<svg width="429" height="135" viewBox="0 0 429 135" fill="none" xmlns="http://www.w3.org/2000/svg">
<path d="M0.749973 2.12997C0.609973 1.97997 0.559974 1.87997 0.609974 1.80997C0.645567 1.77255 0.68944 1.74402 0.738071 1.72665C0.786702 1.70929 0.838732 1.70356 0.889973 1.70996C1.04296 1.69535 1.19699 1.69535 1.34997 1.70996C1.46175 1.72396 1.57214 1.74738 1.67997 1.77997C2.73922 1.95282 3.80774 2.063 4.87997 2.10995C5.98997 2.15995 7.07997 2.18997 8.12997 2.18997H8.99997C10.74 2.10997 12.54 1.93997 14.39 1.68997C14.84 1.62997 15.28 1.56997 15.7 1.52997C15.8873 1.44033 16.0923 1.3938 16.3 1.3938C16.5076 1.3938 16.7127 1.44033 16.9 1.52997C17.2238 1.66604 17.5165 1.8668 17.76 2.11996C18.0381 2.36516 18.2956 2.63274 18.53 2.91998C18.53 3.18998 18.24 3.49997 17.69 3.83997C17.115 4.19674 16.5093 4.50129 15.88 4.74997C15.4011 4.96078 14.8969 5.10868 14.38 5.18997C13.6 5.18997 12.81 5.21997 12.01 5.27997C12.01 5.36997 12.01 5.46996 12.01 5.57996C12.0181 5.65975 12.0181 5.74018 12.01 5.81998C11.8255 6.90789 11.7152 8.00707 11.68 9.10995C11.62 10.36 11.59 11.6 11.58 12.84C11.58 13.62 11.58 14.34 11.53 15C11.53 17.62 11.62 20.2866 11.8 23C11.8412 23.0383 11.874 23.0848 11.8965 23.1364C11.9189 23.188 11.9305 23.2437 11.9305 23.3C11.9305 23.3562 11.9189 23.4119 11.8965 23.4636C11.874 23.5152 11.8412 23.5616 11.8 23.6C11.6483 23.6321 11.4916 23.6321 11.34 23.6L10.81 23.52C10.6343 23.4695 10.4527 23.4426 10.27 23.44C9.91315 23.3152 9.58691 23.116 9.31281 22.8557C9.03871 22.5954 8.82301 22.2799 8.67997 21.93C8.39533 21.2833 8.24236 20.5864 8.22998 19.88C8.30998 18.51 8.31998 17.12 8.22998 15.7C8.22998 15.49 8.22998 15.28 8.22998 15.07C8.22998 14.86 8.22998 14.73 8.22998 14.56C8.12998 13.32 8.03997 11.96 7.96997 10.49C7.89579 9.23022 7.91584 7.96671 8.02997 6.70996C8.17996 6.22849 8.51427 5.82589 8.95997 5.58997C7.53036 5.80718 6.07944 5.84748 4.63997 5.70996C3.80241 5.42006 3.05696 4.91274 2.47998 4.23996C1.84041 3.59064 1.26134 2.8844 0.749973 2.12997Z" fill="black"/>
<path d="M27.89 5.15995H27.35C26.8 5.15995 26.21 5.15995 25.57 5.15995C24.9596 5.14053 24.3529 5.05673 23.76 4.90995C23.2439 4.73421 22.7656 4.46279 22.35 4.10993C22.016 3.86612 21.7282 3.56476 21.5 3.21995C21.7667 2.90814 22.112 2.67336 22.5 2.53995C22.8261 2.42495 23.1604 2.33468 23.5 2.26994H23.66C24.8391 1.94105 26.0487 1.73332 27.27 1.64994C28.4 1.57994 29.66 1.56994 31.06 1.64994C32.7261 1.70692 34.3345 2.27474 35.6671 3.27644C36.9997 4.27813 37.9922 5.66529 38.51 7.24995C38.9776 8.67238 38.8626 10.2222 38.19 11.5599C37.7397 12.3364 37.1404 13.0162 36.4265 13.5602C35.7125 14.1042 34.8981 14.5018 34.03 14.73C34.41 15.37 34.78 15.97 35.13 16.51L35.66 17.38C36.6 18.7133 37.6533 20.0833 38.82 21.4899L39.13 21.88C39.2541 21.9468 39.3588 22.0445 39.4341 22.1636C39.5094 22.2827 39.5528 22.4192 39.56 22.5599C39.55 22.7065 39.5017 22.8479 39.42 22.9699C39.3225 23.1295 39.2157 23.2831 39.1 23.4299C38.98 23.5699 38.89 23.6899 38.81 23.7699C38.4349 23.8495 38.0436 23.7891 37.71 23.6C37.223 23.3869 36.7603 23.122 36.33 22.8099C35.9565 22.5539 35.6201 22.2477 35.33 21.8999C34.7692 20.9829 34.1478 20.1043 33.47 19.2699L33.11 18.8099C32.69 18.3199 32.24 17.81 31.78 17.17C31.358 16.6334 30.9833 16.0612 30.66 15.4599C30.2105 15.5316 29.7545 15.5551 29.3 15.5299C28.8217 15.5185 28.3472 15.4411 27.89 15.2999C27.83 16.2999 27.81 17.2999 27.83 18.4599C27.8456 19.4899 27.919 20.5182 28.05 21.54C28.1323 21.6904 28.1769 21.8585 28.18 22.0299C28.1799 22.1925 28.1563 22.3542 28.11 22.51C28.023 22.6291 27.9145 22.7308 27.79 22.8099C27.6208 22.9315 27.4438 23.0418 27.26 23.14C27.1184 23.2259 26.9714 23.3027 26.82 23.3699C26.45 23.2799 26.09 22.9299 25.74 22.3099C25.3733 21.657 25.0782 20.9663 24.86 20.2499C24.6653 19.7125 24.5475 19.1503 24.51 18.5799C24.59 17.5799 24.64 16.5799 24.67 15.5799C24.67 15.2299 24.67 14.8699 24.67 14.5199C24.67 13.4499 24.67 12.2599 24.67 10.9599C24.6924 9.81031 24.7994 8.66389 24.99 7.52995C25.2338 6.964 25.6368 6.48111 26.15 6.13996C26.6864 5.74128 27.271 5.41199 27.89 5.15995ZM28.14 12.7799L29.14 12.5299C29.89 12.3499 30.71 12.1299 31.59 11.8599C32.421 11.6155 33.2225 11.2801 33.98 10.8599C34.6181 10.529 35.1308 9.99886 35.44 9.34995C35.566 9.04907 35.6308 8.72613 35.6308 8.39994C35.6308 8.07375 35.566 7.75084 35.44 7.44996C35.1372 6.76436 34.6388 6.18329 34.0074 5.77952C33.3759 5.37574 32.6394 5.16718 31.89 5.17994H30.48H29.09C29.1052 5.3496 29.1052 5.52029 29.09 5.68995C29.09 5.86995 29.09 5.99995 29.09 6.09995V6.19996C28.83 7.87996 28.6 9.59995 28.41 11.35L28.14 12.7799Z" fill="black"/>
<path d="M51.87 1.05992C51.98 0.939924 52.1001 0.949924 52.2401 1.05992C52.399 1.22693 52.5336 1.41543 52.6401 1.61992C52.7696 1.85537 52.8832 2.09926 52.98 2.34993C53.08 2.59993 53.1501 2.77993 53.1901 2.90993C54.2159 6.41636 54.9682 9.9971 55.4401 13.6199C55.4401 13.7299 55.4901 13.8599 55.5201 13.9799C55.6501 14.7099 55.8101 15.4899 55.9901 16.3399L56.34 16.4299C56.5668 16.5325 56.7733 16.6747 56.9501 16.8499C57.1608 17.0365 57.3518 17.2443 57.5201 17.4699C57.6518 17.6278 57.7721 17.7949 57.8801 17.9699C57.8801 18.0499 57.8801 18.1599 57.7001 18.2799C57.5372 18.4114 57.3632 18.5285 57.18 18.6299L56.6701 18.8799H56.59C56.8356 19.9599 57.153 21.0222 57.54 22.0599C57.6453 22.1851 57.7244 22.3302 57.7725 22.4865C57.8206 22.6428 57.8368 22.8072 57.8201 22.9699C57.7701 23.0741 57.7024 23.1688 57.62 23.2499L57.2401 23.6299L56.8801 23.9299L56.79 24.0099C56.5466 24.0231 56.3038 23.975 56.0837 23.8702C55.8636 23.7654 55.6733 23.6072 55.5301 23.4099C55.0497 22.8843 54.6335 22.3036 54.29 21.6799C53.9574 21.1219 53.673 20.5364 53.4401 19.9299H53.3801C52.35 19.8745 51.3172 19.8946 50.29 19.9899L48.65 20.2599C47.93 20.3599 47.2301 20.4499 46.5201 20.5099C45.9954 20.575 45.4647 20.575 44.9401 20.5099L44.7401 20.8599C44.6401 21.0299 44.54 21.1999 44.43 21.3699C44.2791 21.9458 43.9236 22.447 43.43 22.7799C43.1082 22.9812 42.7394 23.0949 42.3601 23.1099C41.9627 23.1529 41.5611 23.1327 41.1701 23.0499C41.0597 22.4926 41.1011 21.9158 41.29 21.3799C41.48 20.4899 41.7301 19.5599 42.0201 18.6199C41.5424 18.16 41.0884 17.6761 40.6601 17.1699C40.4801 17.0399 40.4201 16.9399 40.4701 16.8699C40.5119 16.8211 40.5642 16.7823 40.623 16.7563C40.6819 16.7303 40.7458 16.7179 40.8101 16.7199C40.9964 16.7047 41.1837 16.7047 41.37 16.7199H41.8001H41.8601C42.1101 16.7199 42.38 16.7199 42.65 16.7199C42.8827 16.1229 43.1672 15.5474 43.5001 14.9999C43.8987 14.3364 44.2335 13.6366 44.5001 12.9099C44.7201 12.2599 45.0301 11.2699 45.4401 9.90993C45.8501 8.54993 46.2001 7.43993 46.5801 6.24993C46.8318 5.40909 47.1255 4.58137 47.4601 3.76992C47.7591 3.17343 48.2025 2.66123 48.7501 2.27992C49.2 2.0025 49.6886 1.79356 50.2001 1.65993C50.7752 1.51581 51.3347 1.31481 51.87 1.05992ZM46.7401 16.7799C47.4701 16.7799 48.18 16.7799 48.9 16.7799C49.81 16.7799 50.7601 16.6899 51.7201 16.6099L52.7801 16.5299C52.7301 16.2999 52.68 16.0699 52.62 15.8399C52.52 15.3666 52.4201 14.9066 52.3201 14.4599C52.1801 13.9066 52.03 13.3366 51.87 12.7499C51.3767 10.9499 50.9267 9.16327 50.5201 7.38994C49.7601 9.56994 48.9201 11.6966 48.0001 13.7699L47.5501 14.8699L47.1701 15.8099C47.0001 16.1499 46.8701 16.4599 46.7401 16.7799Z" fill="black"/>
<path d="M65.3 1.77992C65.49 1.70992 65.61 1.70992 65.68 1.77992C65.7127 1.81811 65.7367 1.86289 65.7505 1.9112C65.7643 1.95952 65.7676 2.01024 65.76 2.05992C65.7505 2.17813 65.7304 2.29527 65.7 2.40992C65.4686 3.51605 65.3348 4.64036 65.3 5.76991C65.23 7.16991 65.19 8.52992 65.17 9.84992C65.17 10.5999 65.17 11.2499 65.17 11.7999C65.17 13.5599 65.17 15.3399 65.17 17.1299C65.17 18.6599 65.23 20.1799 65.22 21.6999C65.2829 21.8925 65.3047 22.0961 65.284 22.2976C65.2633 22.4991 65.2007 22.6941 65.1 22.8699C64.9104 23.0684 64.6538 23.1895 64.38 23.2099C64.0884 23.2547 63.7917 23.2547 63.5 23.2099C63.0064 22.8682 62.6516 22.3608 62.5 21.7799C62.24 21.0385 62.046 20.2755 61.92 19.4999C61.8183 18.9319 61.7615 18.3568 61.75 17.7799C61.86 15.8999 61.89 14.0099 61.85 12.1099C61.85 11.6999 61.79 11.2399 61.76 10.7499C61.68 9.49992 61.63 8.17991 61.59 6.79991C61.5417 5.639 61.5751 4.47614 61.69 3.31993C61.7709 3.05997 61.9103 2.822 62.0975 2.62437C62.2848 2.42674 62.5148 2.27469 62.77 2.17991C63.301 2.00599 63.8523 1.90178 64.41 1.86991L65.3 1.77992Z" fill="black"/>
<path d="M68.6999 2.12997C68.5599 1.97997 68.5199 1.87997 68.5599 1.80997C68.5979 1.77297 68.6436 1.74483 68.6937 1.72754C68.7438 1.71025 68.7972 1.70424 68.8499 1.70996C68.9995 1.69538 69.1502 1.69538 69.2999 1.70996C69.4149 1.72405 69.5286 1.74747 69.6399 1.77997C70.699 1.95385 71.7676 2.06404 72.8399 2.10995C73.9499 2.15995 75.0299 2.18997 76.0799 2.18997H76.9999C78.7399 2.10997 80.5299 1.93997 82.3899 1.68997C82.8399 1.62997 83.2699 1.56997 83.6899 1.52997C83.8772 1.44033 84.0822 1.3938 84.2899 1.3938C84.4975 1.3938 84.7026 1.44033 84.8899 1.52997C85.2183 1.66302 85.5148 1.8641 85.7599 2.11996C86.0325 2.36756 86.2866 2.63497 86.5199 2.91998C86.5199 3.18998 86.2299 3.49997 85.6799 3.83997C85.1095 4.19868 84.5069 4.50334 83.8799 4.74997C83.398 4.96226 82.8903 5.1102 82.3699 5.18997C81.5899 5.18997 80.7999 5.21997 79.9999 5.27997C79.9999 5.36997 79.9999 5.46996 79.9999 5.57996C79.9921 5.66156 79.9753 5.74207 79.9499 5.81998C79.7753 6.9092 79.6651 8.00775 79.6199 9.10995C79.5699 10.36 79.5399 11.6 79.5299 12.84C79.5299 13.62 79.5099 14.34 79.4699 15C79.4699 17.62 79.5632 20.2866 79.7499 23C79.8281 23.0803 79.8718 23.1879 79.8718 23.3C79.8718 23.412 79.8281 23.5197 79.7499 23.6C79.5982 23.6315 79.4416 23.6315 79.2899 23.6L78.7499 23.52C78.5744 23.4687 78.3927 23.4418 78.2099 23.44C77.8546 23.3124 77.5297 23.1123 77.256 22.8523C76.9822 22.5923 76.7656 22.2782 76.6199 21.93C76.3352 21.2833 76.1823 20.5864 76.1699 19.88C76.2499 18.51 76.2699 17.12 76.1699 15.7C76.1699 15.49 76.1699 15.28 76.1699 15.07C76.1699 14.86 76.1699 14.73 76.1699 14.56C76.0699 13.32 75.9899 11.96 75.9099 10.49C75.8334 9.23009 75.8568 7.96614 75.9799 6.70996C76.051 6.47145 76.169 6.24954 76.3269 6.05722C76.4849 5.8649 76.6797 5.70603 76.8999 5.58997C75.4703 5.80738 74.0193 5.84768 72.5799 5.70996C71.7442 5.41625 70.9997 4.90955 70.4199 4.23996C69.7838 3.59021 69.2081 2.88399 68.6999 2.12997Z" fill="black"/>
<path d="M101.91 6.15987C101.91 6.29987 101.91 6.37987 101.79 6.37987C101.674 6.37915 101.562 6.3405 101.47 6.26985L101.1 6.03987C101.031 5.97678 100.953 5.92299 100.87 5.87987C100.054 5.41787 99.1585 5.11263 98.2301 4.97988C97.3725 4.8392 96.4977 4.8392 95.6401 4.97988C94.8301 5.15988 94.4001 5.41985 94.3701 5.76985C94.3717 5.99017 94.4218 6.20745 94.5168 6.40621C94.6119 6.60497 94.7496 6.78035 94.9201 6.91988C95.3637 7.37533 95.8381 7.79965 96.3401 8.18987C97.5001 9.13987 98.6201 10.1399 99.6801 11.1899C100.745 12.2455 101.694 13.4122 102.51 14.6699C103.092 15.5625 103.562 16.523 103.91 17.5299C104.251 18.4926 104.32 19.5304 104.11 20.5299C103.987 21.0526 103.759 21.5451 103.441 21.9781C103.124 22.411 102.722 22.7755 102.26 23.0499C101.248 23.6318 100.107 23.9515 98.9401 23.9799C97.6316 24.0233 96.3246 23.8545 95.0701 23.4799C93.8034 23.1135 92.6092 22.5317 91.5401 21.7599C91.0941 21.4426 90.676 21.088 90.2901 20.6999C89.9094 20.3197 89.5739 19.8969 89.2901 19.4399C88.8044 18.5971 88.575 17.631 88.6301 16.6599C88.7006 16.023 88.9822 15.4281 89.4301 14.9699C89.8561 14.4947 90.3867 14.125 90.9801 13.8899C91.0006 14.0124 91.0006 14.1374 90.9801 14.2599C90.9801 14.4699 90.9801 14.7299 90.9801 15.0499C90.9801 15.3699 90.9801 15.7299 90.9301 16.0499C90.9121 16.2828 90.9121 16.5169 90.9301 16.7499C91.0292 17.3575 91.2959 17.9255 91.7001 18.3899C92.4569 19.2224 93.435 19.8224 94.5201 20.1199C95.5616 20.4076 96.6311 20.5819 97.7101 20.6399C98.2743 20.6983 98.844 20.6714 99.4001 20.5599C99.9038 20.4779 100.363 20.2234 100.7 19.8399C100.862 19.6102 100.968 19.3465 101.012 19.069C101.055 18.7916 101.034 18.5079 100.95 18.2399C100.623 17.2375 100.096 16.3121 99.4001 15.5199C98.6224 14.582 97.7696 13.7091 96.8501 12.9099C95.9301 12.0999 95.1201 11.4199 94.4301 10.9099C93.3514 10.1229 92.4032 9.1713 91.6201 8.08986C91.1747 7.53647 90.8657 6.88609 90.7181 6.19124C90.5704 5.49639 90.5882 4.77655 90.7701 4.08986C91.0027 3.47181 91.3847 2.92098 91.882 2.4865C92.3793 2.05202 92.9764 1.74741 93.6201 1.59987C95.0345 1.28169 96.5119 1.39666 97.8601 1.92986C99.2895 2.41332 100.536 3.32448 101.43 4.53987C101.589 4.79291 101.723 5.06083 101.83 5.33986C101.924 5.6025 101.951 5.88411 101.91 6.15987Z" fill="black"/>
<path d="M111.15 11.94C110.914 11.9147 110.681 11.8746 110.45 11.82C110.06 11.75 109.63 11.64 109.16 11.52C108.737 11.4073 108.322 11.2636 107.92 11.09C107.57 10.94 107.36 10.78 107.31 10.62C107.413 10.4861 107.487 10.3331 107.53 10.17C107.61 9.91998 107.69 9.65998 107.76 9.38998C107.83 9.11998 107.88 8.95997 107.89 8.87997C107.855 8.6614 107.855 8.43854 107.89 8.21997C107.895 8.11922 107.922 8.02087 107.971 7.93246C108.019 7.84406 108.088 7.76793 108.17 7.70996C108.855 7.73517 109.531 7.87372 110.17 8.11996C111.04 8.40996 111.76 8.67997 112.32 8.90997H112.41H112.46L112.63 8.98996L112.81 9.06998C112.86 9.06998 112.88 9.12997 112.88 9.15997C112.88 9.18997 112.88 9.15996 112.75 9.20996C112.628 9.33257 112.533 9.47896 112.47 9.63998C112.37 9.84998 112.27 10.08 112.16 10.33C112.031 10.7013 111.874 11.0624 111.69 11.41C111.53 11.77 111.35 11.93 111.15 11.94ZM112.41 18.18H112.46L112.63 18.25L112.81 18.34C112.86 18.34 112.88 18.39 112.88 18.42C112.88 18.45 112.88 18.42 112.75 18.47C112.631 18.5945 112.536 18.7404 112.47 18.9C112.37 19.11 112.27 19.34 112.16 19.6C112.033 19.9689 111.876 20.3267 111.69 20.67C111.53 20.99 111.35 21.16 111.15 21.17C110.914 21.1447 110.681 21.1046 110.45 21.05C110.06 20.97 109.63 20.87 109.16 20.74C108.738 20.6259 108.324 20.4856 107.92 20.32C107.57 20.16 107.36 20 107.31 19.85C107.413 19.7161 107.487 19.5631 107.53 19.4C107.61 19.15 107.69 18.89 107.76 18.63C107.813 18.4557 107.856 18.2788 107.89 18.1C107.855 17.8813 107.855 17.6586 107.89 17.44C107.895 17.3392 107.922 17.2409 107.971 17.1525C108.019 17.0641 108.088 16.9879 108.17 16.93C108.855 16.946 109.532 17.0813 110.17 17.33C111.04 17.63 111.76 17.9 112.32 18.13L112.41 18.18Z" fill="black"/>
<path d="M16 48.69C16.14 48.53 16.3 48.54 16.48 48.69C16.6982 48.9064 16.8804 49.1562 17.0199 49.43C17.1944 49.7532 17.348 50.0872 17.48 50.43C17.61 50.75 17.7 51 17.75 51.17C19.1163 55.8456 20.1193 60.6198 20.75 65.45C20.75 65.6 20.8099 65.77 20.8499 65.94C21.0299 66.94 21.24 67.94 21.47 69.08L21.94 69.2C22.245 69.331 22.523 69.5175 22.76 69.75C23.0344 70.0065 23.2885 70.284 23.5199 70.58C23.6932 70.7912 23.8504 71.0152 23.9899 71.25C23.9899 71.37 23.99 71.51 23.76 71.67C23.5418 71.8405 23.3112 71.9942 23.07 72.13L22.3899 72.46L22.2699 72.52C22.605 73.9583 23.0292 75.3744 23.54 76.76C23.7022 76.9208 23.8274 77.115 23.9069 77.3292C23.9863 77.5434 24.0181 77.7723 24 78C23.944 78.1452 23.855 78.2753 23.7399 78.38C23.5899 78.54 23.42 78.71 23.23 78.88L22.75 79.29C22.7207 79.3281 22.6831 79.3589 22.6399 79.38C22.1199 79.49 21.5599 79.22 20.9599 78.58C20.3172 77.8857 19.7599 77.1169 19.3 76.29C18.857 75.5438 18.4789 74.7609 18.1699 73.95H18.0899C16.7165 73.8762 15.3395 73.9029 13.97 74.03C13.46 74.12 12.7299 74.24 11.78 74.38C10.83 74.52 9.87995 74.64 8.94995 74.72C8.24962 74.8119 7.54028 74.8119 6.83995 74.72L6.55995 75.19C6.42995 75.42 6.29995 75.65 6.14995 75.87C5.9708 76.6282 5.51869 77.2939 4.87995 77.74C4.46013 78.0165 3.97233 78.1722 3.46995 78.19C2.93958 78.2507 2.40294 78.2271 1.87995 78.12C1.73107 77.3765 1.78285 76.6069 2.02995 75.89C2.28995 74.69 2.61995 73.46 3.02995 72.2C2.38844 71.5869 1.78087 70.9393 1.20995 70.26C0.97995 70.09 0.88995 69.96 0.95995 69.86C1.08261 69.7391 1.2477 69.6709 1.41995 69.67C1.66535 69.6381 1.91249 69.6214 2.15995 69.62H2.73995H2.80995C3.14995 69.62 3.49995 69.62 3.86995 69.62C4.17976 68.8255 4.55784 68.0592 4.99995 67.33C5.53324 66.4426 5.98508 65.5089 6.34995 64.54C6.63995 63.68 7.04995 62.35 7.59995 60.54C8.14995 58.73 8.59995 57.24 9.11995 55.65C9.63995 54.06 10.02 52.96 10.29 52.35C10.6881 51.5507 11.2792 50.8633 12.01 50.35C12.6142 49.9856 13.2675 49.7094 13.9499 49.53C14.6568 49.3114 15.3429 49.0303 16 48.69ZM9.15996 69.69C10.16 69.69 11.08 69.69 12.03 69.69C13.25 69.69 14.51 69.58 15.8 69.47L17.2099 69.35C17.1399 69.05 17.0699 68.75 16.9899 68.44C16.8599 67.81 16.7299 67.2 16.5999 66.6C16.4699 66 16.2 65.11 16 64.31C15.34 61.92 14.7499 59.54 14.1999 57.17C13.1799 60.0767 12.0599 62.9133 10.8399 65.68C10.6299 66.16 10.43 66.68 10.23 67.15C10.03 67.62 9.88995 67.98 9.72995 68.4C9.56995 68.82 9.36995 69.23 9.19995 69.65L9.15996 69.69Z" fill="black"/>
<path d="M33.2801 53.9199C31.3181 53.4671 29.4129 52.7963 27.6001 51.9199C27.0101 51.7899 27.0601 51.5599 27.7401 51.2399C28.7985 50.7917 29.9013 50.4565 31.0301 50.2399C32.6793 49.8955 34.3497 49.6617 36.0301 49.5399C37.8472 49.3968 39.6745 49.4504 41.4801 49.6999C44.8601 50.2199 47.2834 51.4999 48.7501 53.5399C50.254 55.7381 50.8488 58.4329 50.4101 61.0599C50.1911 62.6872 49.4218 64.1905 48.2301 65.3199C47.0383 66.4363 45.6241 67.2883 44.0801 67.8199C42.9984 68.2081 41.8885 68.5123 40.7601 68.7299C39.5906 68.971 38.3859 68.9879 37.2101 68.7799C36.8908 68.6905 36.5823 68.5665 36.2901 68.4099C36.1783 71.2667 36.2183 74.1274 36.4101 76.9799C36.5129 77.1264 36.5681 77.301 36.5681 77.4799C36.5681 77.6589 36.5129 77.8335 36.4101 77.9799C36.2819 78.0877 36.1317 78.1662 35.9701 78.2099C35.7307 78.2931 35.487 78.3632 35.2401 78.4199L34.6301 78.5599H34.5701C34.3428 78.5478 34.1217 78.4816 33.9252 78.3668C33.7286 78.252 33.5623 78.0919 33.4401 77.8999C33.073 77.4086 32.7799 76.8662 32.5701 76.2899C32.336 75.6895 32.152 75.0707 32.0201 74.4399C31.9159 73.9732 31.8556 73.4978 31.8401 73.0199C31.9801 71.0199 32.0634 69.0199 32.0901 67.0199V66.9199C32.0901 66.6899 32.0901 66.4499 32.0901 66.1999C32.0201 64.5599 31.9801 62.8099 31.9401 60.9699C31.9052 59.3018 31.9552 57.633 32.0901 55.9699C32.295 55.192 32.7062 54.4837 33.2801 53.9199ZM36.4801 65.7199C37.6701 65.3999 38.9801 64.9699 40.4201 64.4299C41.7733 63.9426 43.06 63.2875 44.2501 62.4799C44.7508 62.1863 45.1864 61.7936 45.5303 61.326C45.8742 60.8583 46.1191 60.3254 46.2501 59.7599C46.3471 59.0666 46.3471 58.3632 46.2501 57.6699C46.1737 56.9197 45.8501 56.2161 45.3301 55.6699C44.7098 55.1537 43.9651 54.8089 43.1701 54.6699C42.2553 54.479 41.3245 54.3752 40.3901 54.3599C39.3901 54.3599 38.5701 54.3599 37.8101 54.3599C37.5301 54.3599 37.2701 54.3599 37.0501 54.3599C36.9301 58.1699 36.7501 61.9999 36.4801 65.7199Z" fill="black"/>
<path d="M58.46 54.6499C57.6998 54.0895 57.0717 53.3693 56.62 52.5399C56.1452 51.7442 55.7145 50.9229 55.33 50.0799C55.1166 49.7532 55.0766 49.5632 55.21 49.5099C55.4212 49.4653 55.641 49.4862 55.84 49.5699C56.7271 49.7772 57.6304 49.9076 58.54 49.9599C59.54 50.0199 60.59 50.0599 61.54 50.0799H62.87C63.87 50.0799 64.87 50.0799 65.87 49.9799L69.04 49.7599C70.11 49.6899 71.14 49.6199 72.13 49.5699C73.8233 49.1899 75.3133 49.8266 76.6 51.4799C76.51 51.7899 75.97 52.1599 74.98 52.5799C73.9451 53.0066 72.8867 53.3738 71.81 53.6799C71.0276 53.9265 70.2242 54.1006 69.41 54.1999H68.24C67.43 54.1999 66.69 54.1999 66 54.1999C65.1864 54.2326 64.3752 54.3093 63.57 54.4299C63.29 56.5299 63.05 58.6399 62.85 60.7799C63.5 60.8299 64.15 60.8999 64.85 60.9699C66.2846 61.0082 67.7203 60.9648 69.15 60.8399L70.85 60.7399C71.0299 60.6574 71.2277 60.6214 71.4252 60.6354C71.6227 60.6494 71.8134 60.7129 71.98 60.8199C72.3233 61.0528 72.6131 61.3562 72.83 61.7099C73.0825 62.053 73.3097 62.4139 73.51 62.7899C73.51 63.0799 73.22 63.4199 72.72 63.7899C72.1992 64.1798 71.6395 64.5149 71.05 64.7899C70.5983 65.0461 70.0971 65.2029 69.58 65.2499C68.38 65.1799 67.46 65.1599 66.83 65.1799C66.2 65.1999 65.65 65.2399 65.21 65.2899L64.06 65.3899C63.65 65.3899 63.13 65.3899 62.49 65.3899C62.3673 67.6536 62.4141 69.9232 62.63 72.1799C62.7095 72.3421 62.7538 72.5193 62.76 72.6999C62.7605 72.8561 62.7153 73.0091 62.63 73.1399C62.5363 73.2015 62.4395 73.2583 62.34 73.3099C62.1893 73.3898 62.032 73.4567 61.87 73.5099L65.48 73.6499C65.71 73.6499 65.95 73.6499 66.18 73.6499C67.41 73.6499 68.77 73.5999 70.28 73.4699C71.79 73.3399 73.15 73.1699 74.35 72.9599C74.4855 72.8537 74.6528 72.7959 74.825 72.7959C74.9972 72.7959 75.1644 72.8537 75.3 72.9599C75.5317 73.1099 75.7321 73.3035 75.89 73.5299C76.12 73.8299 76.34 74.1199 76.53 74.3899L76.79 74.7199C76.8396 74.9766 76.8195 75.242 76.7315 75.4883C76.6435 75.7346 76.4911 75.9527 76.29 76.1199C75.8113 76.5913 75.2526 76.974 74.64 77.2499C74.1207 77.5176 73.5591 77.6935 72.98 77.7699C71.62 77.7699 70.26 77.7699 68.9 77.8699L67.98 77.9299C66.81 78.0599 65.43 78.1699 63.85 78.2599C62.4655 78.3556 61.0748 78.3087 59.7 78.1199C58.7322 77.7022 57.9107 77.006 57.34 76.1199C56.7524 75.252 56.2532 74.3273 55.85 73.3599C55.71 73.0899 55.67 72.9299 55.74 72.8599C55.792 72.8202 55.8525 72.7933 55.9167 72.7811C55.9809 72.769 56.0471 72.772 56.11 72.7899C56.2943 72.8177 56.4753 72.8646 56.65 72.9299C57.7054 73.1473 58.7746 73.291 59.85 73.3599C59.2128 72.6374 58.7417 71.7841 58.47 70.8599C58.1777 70.0795 57.9992 69.2611 57.94 68.4299C57.94 68.3199 57.94 68.1099 57.94 67.8099C57.94 67.2899 58.02 66.6699 58.08 65.9399C58.14 65.2099 58.17 64.5599 58.19 63.9399C58.2318 63.6079 58.2318 63.2719 58.19 62.9399C57.6532 62.1299 57.1657 61.2884 56.73 60.4199C56.55 60.1299 56.52 59.9499 56.66 59.8899C56.8614 59.8242 57.0785 59.8242 57.28 59.8899C57.55 59.8899 57.81 59.9899 58.06 60.0599H58.15C58.15 59.0599 58.15 58.0599 58.21 57.1099C58.2438 56.2856 58.3273 55.4641 58.46 54.6499Z" fill="black"/>
<path d="M88.1098 54.1599H87.3799C86.6532 54.1599 85.8632 54.1599 85.0098 54.1599C84.1967 54.1323 83.3889 54.0183 82.5999 53.8199C81.9132 53.5854 81.2759 53.226 80.7198 52.7599C80.2783 52.4303 79.8962 52.0279 79.5898 51.5699C79.9474 51.1479 80.4146 50.833 80.9398 50.6599C81.3587 50.503 81.7903 50.3825 82.2298 50.2999L82.4398 50.2399C84.0156 49.8086 85.6301 49.534 87.2598 49.4199C88.7598 49.3266 90.4265 49.3066 92.2598 49.3599C94.5848 49.4409 96.8218 50.2684 98.6398 51.7199C100.312 53.0279 101.552 54.8082 102.2 56.8299C102.816 58.7279 102.665 60.7916 101.78 62.5799C100.88 64.4199 99.0298 65.8299 96.2298 66.8099C96.7398 67.6599 97.2299 68.4599 97.6898 69.1899C97.9699 69.6299 98.1998 70.0199 98.3998 70.3399C99.6498 72.1499 101.05 73.9799 102.62 75.8299L103.03 76.3399C103.193 76.4315 103.33 76.5631 103.428 76.7224C103.526 76.8816 103.582 77.0631 103.59 77.2499C103.578 77.4457 103.516 77.6351 103.41 77.7999C103.28 78.0099 103.14 78.2099 102.99 78.4099L102.6 78.8599C102.099 78.9692 101.576 78.8909 101.13 78.6399C100.481 78.352 99.8644 77.9967 99.2898 77.5799C98.7908 77.2425 98.34 76.8388 97.9498 76.3799C97.2021 75.1529 96.3736 73.977 95.4698 72.8599C95.3198 72.6599 95.1598 72.4599 94.9798 72.2499C94.4198 71.5832 93.8299 70.8532 93.2099 70.0599C92.6482 69.3444 92.1496 68.5816 91.7198 67.7799C91.1218 67.8777 90.515 67.9112 89.9099 67.8799C89.2724 67.8589 88.6403 67.7547 88.0298 67.5699C87.9498 68.8699 87.9198 70.2799 87.9498 71.7899C87.9617 73.1613 88.0586 74.5306 88.2399 75.8899C88.3512 76.089 88.4129 76.3119 88.4198 76.5399C88.4144 76.7567 88.3808 76.9718 88.3199 77.1799C88.2017 77.3407 88.0561 77.4795 87.8898 77.5899C87.6698 77.7399 87.4298 77.8899 87.1898 78.0299L86.5999 78.3299C86.2774 78.2009 85.984 78.0089 85.7367 77.765C85.4895 77.5212 85.2933 77.2305 85.1599 76.9099C84.6716 76.0404 84.2761 75.1221 83.9798 74.1699C83.7244 73.4509 83.5663 72.7009 83.5098 71.9399C83.6198 70.6299 83.6898 69.2899 83.7298 67.9399C83.7298 67.4666 83.7498 66.9966 83.7898 66.5299C83.7898 65.1032 83.7898 63.5232 83.7898 61.7899C83.8103 60.258 83.9508 58.7299 84.2099 57.2199C84.5305 56.4628 85.0659 55.8162 85.7498 55.3599C86.4844 54.8647 87.277 54.4617 88.1098 54.1599ZM88.4398 64.3099L89.7099 63.9799C90.7099 63.7499 91.7998 63.4499 92.9698 63.0899C94.0774 62.7615 95.1442 62.3086 96.1498 61.7399C97.0121 61.3026 97.7126 60.6021 98.1498 59.7399C98.3182 59.3376 98.4048 58.906 98.4048 58.4699C98.4048 58.0339 98.3182 57.6022 98.1498 57.1999C97.7664 56.2985 97.1222 55.5323 96.2999 54.9999C95.4363 54.4056 94.4079 54.0978 93.3598 54.1199H91.4798H89.6299C89.65 54.3461 89.65 54.5737 89.6299 54.7999C89.6299 55.0399 89.6299 55.2199 89.6299 55.3499C89.6299 55.4799 89.6299 55.4699 89.6299 55.4799C89.2765 57.7199 88.9699 60.0066 88.7099 62.3399C88.5899 63.0599 88.5198 63.6899 88.4398 64.3099Z" fill="black"/>
<path d="M108.69 54.65C107.93 54.0917 107.305 53.3708 106.86 52.54C106.385 51.7443 105.954 50.923 105.57 50.08C105.363 49.7533 105.323 49.5633 105.45 49.51C105.658 49.4635 105.875 49.4845 106.07 49.57C106.96 49.7779 107.867 49.9084 108.78 49.96C109.78 50.02 110.78 50.06 111.78 50.08H113.11C114.11 50.08 115.11 50.08 116.11 49.98L119.29 49.76C120.35 49.69 121.38 49.62 122.37 49.57C124.06 49.19 125.56 49.83 126.85 51.48C126.75 51.79 126.21 52.16 125.22 52.58C124.186 53.0082 123.127 53.3755 122.05 53.68C121.271 53.9263 120.471 54.1004 119.66 54.2H118.49C117.68 54.2 116.93 54.2 116.24 54.2C115.43 54.2327 114.622 54.3094 113.82 54.43C113.53 56.53 113.29 58.64 113.1 60.78C113.75 60.83 114.4 60.9 115.1 60.97C116.535 61.0081 117.97 60.9647 119.4 60.84L121.09 60.74C121.271 60.6566 121.471 60.6202 121.67 60.6342C121.869 60.6481 122.062 60.7121 122.23 60.82C122.572 61.0547 122.861 61.3578 123.08 61.71C123.33 62.0528 123.554 62.4139 123.75 62.79C123.75 63.0767 123.49 63.41 122.97 63.79C122.444 64.1777 121.881 64.5127 121.29 64.79C120.839 65.0473 120.337 65.2042 119.82 65.25C118.63 65.18 117.71 65.16 117.07 65.18C116.43 65.2 115.89 65.24 115.45 65.29L114.31 65.39C113.9 65.39 113.37 65.39 112.73 65.39C112.612 67.6537 112.659 69.923 112.87 72.18C112.952 72.3417 113 72.5188 113.01 72.7C113.006 72.857 112.958 73.0098 112.87 73.14L112.59 73.31C112.435 73.3879 112.274 73.4548 112.11 73.51L115.72 73.65C115.96 73.65 116.19 73.65 116.43 73.65C117.65 73.65 119.02 73.6 120.53 73.47C122.04 73.34 123.39 73.17 124.59 72.96C124.731 72.8446 124.908 72.7816 125.09 72.7816C125.272 72.7816 125.449 72.8446 125.59 72.96C125.818 73.1108 126.015 73.3043 126.17 73.53C126.41 73.83 126.62 74.12 126.82 74.39L127.07 74.72C127.122 74.9767 127.103 75.2428 127.015 75.4895C126.926 75.7362 126.773 75.9542 126.57 76.12C126.091 76.5914 125.532 76.974 124.92 77.25C124.401 77.519 123.839 77.695 123.26 77.77C121.91 77.77 120.55 77.77 119.18 77.87L118.26 77.93C117.09 78.06 115.71 78.17 114.13 78.26C112.745 78.3555 111.355 78.3086 109.98 78.12C109.013 77.7048 108.194 77.0078 107.63 76.12C107.043 75.2499 106.541 74.3257 106.13 73.36C105.99 73.09 105.96 72.93 106.03 72.86C106.081 72.8196 106.142 72.7922 106.206 72.78C106.271 72.7678 106.337 72.7712 106.4 72.79C106.584 72.8202 106.764 72.8671 106.94 72.93C107.995 73.1481 109.064 73.2918 110.14 73.36C109.496 72.6408 109.021 71.7866 108.75 70.86C108.458 70.0796 108.279 69.2612 108.22 68.43C108.232 68.2235 108.232 68.0165 108.22 67.81C108.22 67.29 108.31 66.67 108.36 65.94C108.41 65.21 108.45 64.56 108.48 63.94C108.516 63.6077 108.516 63.2723 108.48 62.94C107.944 62.1276 107.453 61.2863 107.01 60.42C106.83 60.13 106.81 59.95 106.94 59.89C107.141 59.8243 107.358 59.8243 107.56 59.89C107.83 59.89 108.09 59.99 108.34 60.06H108.44C108.44 59.06 108.44 58.06 108.5 57.11C108.514 56.2869 108.578 55.4655 108.69 54.65Z" fill="black"/>
<path d="M129.82 50.12C129.64 49.92 129.58 49.78 129.64 49.7C129.7 49.61 129.82 49.57 130.02 49.56C130.223 49.5407 130.427 49.5407 130.63 49.56C130.779 49.5789 130.926 49.609 131.07 49.65C132.483 49.8848 133.909 50.0351 135.34 50.1C136.82 50.16 138.26 50.19 139.67 50.19H140.82C143.14 50.09 145.53 49.87 148.01 49.53L149.75 49.31C150.001 49.1949 150.274 49.1354 150.55 49.1354C150.826 49.1354 151.099 49.1949 151.35 49.31C151.779 49.5033 152.169 49.7745 152.5 50.11C152.857 50.4397 153.192 50.7939 153.5 51.17C153.5 51.54 153.11 51.95 152.38 52.4C151.615 52.8765 150.809 53.2815 149.97 53.61C149.332 53.893 148.659 54.0914 147.97 54.2C146.97 54.2 145.87 54.2 144.8 54.31C144.81 54.4465 144.81 54.5835 144.8 54.72C144.792 54.8278 144.775 54.9348 144.75 55.04C144.504 56.4917 144.357 57.9583 144.31 59.43C144.24 61.1 144.19 62.75 144.18 64.43C144.18 65.48 144.13 66.43 144.1 67.32C144.1 70.81 144.23 74.32 144.47 77.97C144.524 78.0214 144.568 78.0834 144.597 78.1522C144.627 78.2209 144.642 78.2951 144.642 78.37C144.642 78.4449 144.627 78.519 144.597 78.5878C144.568 78.6566 144.524 78.7185 144.47 78.77C144.268 78.8072 144.062 78.8072 143.86 78.77L143.15 78.67C142.913 78.5981 142.667 78.5577 142.42 78.55C141.947 78.3828 141.514 78.1185 141.148 77.7741C140.783 77.4297 140.494 77.0127 140.3 76.55C139.927 75.6873 139.726 74.7598 139.71 73.82C139.81 71.99 139.83 70.14 139.77 68.25C139.77 67.96 139.77 67.68 139.77 67.41L139.71 66.73C139.58 65.07 139.46 63.26 139.37 61.3C139.268 59.6337 139.295 57.9621 139.45 56.3C139.548 55.982 139.708 55.6867 139.921 55.431C140.134 55.1752 140.395 54.9642 140.69 54.81C138.78 55.0948 136.843 55.1485 134.92 54.97C133.803 54.5636 132.811 53.8745 132.04 52.97C131.218 52.0871 130.475 51.1334 129.82 50.12Z" fill="black"/>
<path d="M162.77 49.6499C163.02 49.5599 163.19 49.5599 163.27 49.6499C163.315 49.7014 163.348 49.7621 163.367 49.8278C163.386 49.8934 163.39 49.9624 163.38 50.0299C163.369 50.1855 163.342 50.3396 163.3 50.4899C162.994 51.9651 162.817 53.4641 162.77 54.9699C162.68 56.8399 162.62 58.6499 162.6 60.4099C162.6 61.4099 162.6 62.2799 162.54 63.0099C162.54 65.3632 162.54 67.7332 162.54 70.1199C162.587 72.1599 162.607 74.1899 162.6 76.2099C162.686 76.4662 162.717 76.7382 162.689 77.0073C162.662 77.2764 162.577 77.5365 162.44 77.7699C162.312 77.9079 162.157 78.0188 161.985 78.0961C161.814 78.1734 161.628 78.2155 161.44 78.2199C161.052 78.2792 160.658 78.2792 160.27 78.2199C159.636 77.7543 159.183 77.0826 158.99 76.3199C158.649 75.3433 158.392 74.3398 158.22 73.3199C158.075 72.5617 157.998 71.7919 157.99 71.0199C158.13 68.5199 158.18 66.0199 158.12 63.4699C158.12 62.9199 158.05 62.3099 158.01 61.6499C157.897 59.9832 157.817 58.2332 157.77 56.3999C157.712 54.8485 157.759 53.295 157.91 51.7499C158.019 51.4042 158.206 51.0878 158.455 50.8246C158.705 50.5613 159.011 50.358 159.35 50.2299C160.06 50.0021 160.796 49.8611 161.54 49.8099L162.77 49.6499Z" fill="black"/>
<path d="M170.92 49.73C171.22 49.57 171.4 49.5499 171.46 49.6799C171.523 49.877 171.55 50.0835 171.54 50.29C171.683 51.8715 171.964 53.4374 172.38 54.97C172.88 56.93 173.363 58.73 173.83 60.37C173.98 60.92 174.12 61.3699 174.24 61.7999C175.147 64.7399 176.22 67.78 177.46 70.92C177.55 70.44 177.64 70.05 177.71 69.76C178.51 67.5 179.233 65.1899 179.88 62.8299C179.908 62.7556 179.928 62.6785 179.94 62.6C180.053 62.1733 180.163 61.7033 180.27 61.19C180.65 59.4966 181.08 57.6966 181.56 55.79C181.961 54.1321 182.479 52.5047 183.11 50.92C183.503 50.2992 184.118 49.852 184.83 49.67C185.519 49.5176 186.225 49.4571 186.93 49.4899C187.469 49.5298 188.011 49.5298 188.55 49.4899C188.83 49.4033 188.99 49.4233 189.03 49.5499C189.088 49.7081 189.088 49.8818 189.03 50.04C188.98 50.211 188.909 50.3755 188.82 50.53C188.135 51.9106 187.547 53.3374 187.06 54.7999C186.48 56.5099 185.92 58.2 185.4 59.88C185.05 61.02 184.72 62.03 184.4 62.9299C183.71 65.1899 183.05 67.5099 182.4 69.8599C181.92 71.6666 181.427 73.4566 180.92 75.23C180.948 75.4606 180.913 75.6945 180.82 75.9073C180.727 76.1201 180.579 76.304 180.39 76.44C179.994 76.7832 179.656 77.1885 179.39 77.64C179.204 77.9565 178.975 78.2459 178.71 78.5C178.434 78.7449 178.079 78.8832 177.71 78.89C177.21 78.89 176.62 78.36 175.96 77.35C175.267 76.2997 174.652 75.2001 174.12 74.06C173.701 73.1933 173.327 72.3054 173 71.4C172.333 69.1 171.583 66.81 170.75 64.53C170.69 64.35 170.62 64.1599 170.56 63.9599C169.97 62.4799 169.31 60.7 168.56 58.62C167.919 56.8979 167.424 55.125 167.08 53.32C167.108 52.8593 167.241 52.4113 167.47 52.0106C167.699 51.61 168.017 51.2676 168.4 51.01C169.171 50.4599 170.021 50.0285 170.92 49.73Z" fill="black"/>
<path d="M198.59 71.48C198.96 71.48 199.16 71.54 199.19 71.67C199.22 71.8 199.19 71.96 198.98 72.17C198.621 72.5868 198.328 73.0554 198.11 73.56C197.87 74.09 197.66 74.6199 197.46 75.1499C197.4 75.3399 197.33 75.5099 197.27 75.6799C197.166 76.2031 197.125 76.737 197.15 77.2699C197.15 77.9299 197.15 78.48 197.23 78.92C197.34 79.04 197.39 79.1399 197.35 79.2099C197.306 79.2912 197.235 79.3549 197.15 79.39C196.947 79.4602 196.734 79.4973 196.52 79.5H195.58C195.26 79.5 195.02 79.5 194.86 79.5C194.436 79.4184 194.047 79.2131 193.74 78.91C193.27 78.5364 192.841 78.114 192.46 77.6499C192.1 77.1999 191.94 76.8699 191.99 76.6499C192.175 76.026 192.28 75.3806 192.3 74.73C192.254 74.1575 192.254 73.5824 192.3 73.01C192.329 72.443 192.501 71.8925 192.8 71.41C193.628 71.0958 194.522 70.9927 195.4 71.1099C196.56 71.1999 197.56 71.2999 198.4 71.4299L198.59 71.48Z" fill="black"/>
<path d="M220.76 54.1599H220.04C219.307 54.1599 218.517 54.1599 217.67 54.1599C216.854 54.1323 216.042 54.0183 215.25 53.8199C214.567 53.5851 213.933 53.2257 213.38 52.7599C212.936 52.4332 212.553 52.0303 212.25 51.5699C212.605 51.1495 213.068 50.8347 213.59 50.6599C214.01 50.5055 214.441 50.385 214.88 50.2999L215.1 50.2399C216.672 49.8086 218.284 49.534 219.91 49.4199C221.42 49.3299 223.1 49.3099 224.91 49.3599C227.235 49.4409 229.472 50.2684 231.29 51.7199C232.959 53.0285 234.196 54.809 234.84 56.8299C235.466 58.7267 235.315 60.7943 234.42 62.5799C233.52 64.4199 231.68 65.8299 228.88 66.8099C229.38 67.6599 229.88 68.4599 230.34 69.1899L231.04 70.3399C232.293 72.1466 233.7 73.9766 235.26 75.8299C235.41 75.9999 235.54 76.1699 235.67 76.3399C235.833 76.4324 235.971 76.564 236.07 76.7229C236.17 76.8817 236.228 77.0629 236.24 77.2499C236.229 77.4473 236.163 77.6376 236.05 77.7999C235.926 78.0139 235.786 78.2179 235.63 78.4099C235.509 78.5672 235.378 78.7174 235.24 78.8599C234.743 78.9695 234.223 78.8911 233.78 78.6399C233.128 78.3521 232.508 77.9968 231.93 77.5799C231.435 77.2371 230.985 76.834 230.59 76.3799C229.846 75.1507 229.017 73.9745 228.11 72.8599C227.97 72.6599 227.81 72.4599 227.63 72.2499C227.07 71.5833 226.48 70.8533 225.86 70.0599C225.295 69.3445 224.793 68.5817 224.36 67.7799C223.765 67.8777 223.162 67.9112 222.56 67.8799C221.919 67.8589 221.284 67.7547 220.67 67.5699C220.59 68.8699 220.57 70.2799 220.59 71.7899C220.61 73.1613 220.71 74.5303 220.89 75.8899C220.994 76.0914 221.052 76.3134 221.06 76.5399C221.058 76.7563 221.028 76.9714 220.97 77.1799C220.852 77.3408 220.706 77.4796 220.54 77.5899C220.31 77.7399 220.08 77.8899 219.83 78.0299L219.25 78.3299C218.75 78.2099 218.25 77.7399 217.8 76.9099C217.311 76.0422 216.919 75.1233 216.63 74.1699C216.375 73.4509 216.216 72.7009 216.16 71.9399C216.27 70.6299 216.34 69.2899 216.38 67.9399C216.38 67.4699 216.38 66.9999 216.43 66.5299C216.43 65.1033 216.43 63.5233 216.43 61.7899C216.46 60.2585 216.601 58.7312 216.85 57.2199C217.175 56.4624 217.714 55.8161 218.4 55.3599C219.134 54.864 219.927 54.461 220.76 54.1599ZM221.09 64.3099L222.36 63.9799C223.36 63.7499 224.45 63.4499 225.63 63.0899C226.738 62.7615 227.804 62.3086 228.81 61.7399C229.657 61.2987 230.34 60.5978 230.76 59.7399C230.931 59.3382 231.018 58.9063 231.018 58.4699C231.018 58.0335 230.931 57.6016 230.76 57.1999C230.402 56.3098 229.79 55.5447 229 54.9999C228.136 54.4057 227.108 54.0978 226.06 54.1199H224.18H222.33C222.35 54.3461 222.35 54.5737 222.33 54.7999C222.33 55.0399 222.33 55.2199 222.33 55.3499C222.325 55.3931 222.325 55.4368 222.33 55.4799C221.97 57.7199 221.67 60.0099 221.41 62.3399C221.277 63.0333 221.17 63.6899 221.09 64.3099Z" fill="black"/>
<path d="M249.57 52.4399C249.777 52.5799 249.857 52.6899 249.81 52.7699C249.763 52.8499 249.643 52.91 249.45 52.95C249.26 52.95 249.04 53.0199 248.79 53.0499C248.474 53.0798 248.16 53.1299 247.85 53.2C247.55 53.3098 247.267 53.4612 247.01 53.6499C246.104 54.3206 245.376 55.203 244.89 56.2199C244.329 57.3468 243.899 58.5347 243.61 59.76C243.327 60.9152 243.146 62.093 243.07 63.2799C242.99 64.7082 243.04 66.1408 243.22 67.5599C243.422 69.0399 243.85 70.4801 244.49 71.8299C245.497 73.9433 247 74.8833 249 74.6499C250.73 74.4965 252.365 73.7959 253.67 72.6499C254.99 71.4727 256.017 70.0038 256.67 68.3599C257.373 66.6259 257.759 64.7801 257.81 62.9099C257.889 61.0541 257.624 59.1997 257.03 57.4399C256.712 56.5508 256.286 55.7044 255.76 54.92C255.316 54.3492 254.82 53.8203 254.28 53.3399C253.78 52.8479 253.215 52.4273 252.6 52.0899C251.7 51.4833 250.96 51.0233 250.38 50.7099C249.8 50.4099 249.02 50.0499 248.05 49.6499C248.18 49.3599 248.6 49.19 249.32 49.14C250.072 49.0805 250.828 49.0805 251.58 49.14C252.164 49.1798 252.745 49.2532 253.32 49.3599C255.063 49.9136 256.641 50.8931 257.91 52.2099C259.475 53.9286 260.67 55.951 261.42 58.1514C262.171 60.3518 262.46 62.683 262.27 64.9999C261.997 67.3388 261.321 69.6126 260.27 71.7199C259.252 73.7663 257.735 75.5236 255.86 76.8299C254.826 77.538 253.694 78.0905 252.5 78.4699C251.229 78.8776 249.893 79.0471 248.56 78.9699C247.145 78.8777 245.773 78.4454 244.56 77.7099C242.885 76.6807 241.506 75.2333 240.56 73.51C239.581 71.7485 238.905 69.8353 238.56 67.85C238.193 65.8725 238.068 63.8576 238.19 61.85C238.263 60.1217 238.563 58.4106 239.08 56.76C239.575 55.0172 240.629 53.4854 242.08 52.3999C242.66 51.9062 243.319 51.514 244.03 51.2399C244.781 50.9609 245.58 50.8384 246.38 50.88C246.977 50.917 247.564 51.0487 248.12 51.2699C248.693 51.5339 249.191 51.936 249.57 52.4399Z" fill="black"/>
<path d="M273 50C273.27 49.93 273.45 50 273.53 50.08C273.73 50 273.86 50.02 273.92 50.14C273.961 50.3177 273.961 50.5023 273.92 50.68C273.98 52.0101 274.178 53.3305 274.51 54.62C274.89 56.25 275.27 57.73 275.63 59.04C275.71 59.33 275.78 59.6 275.85 59.84C276.357 61.42 276.98 63.1533 277.72 65.04C278.48 63.3933 279.183 61.6866 279.83 59.92C279.867 59.8588 279.901 59.7953 279.93 59.73C280.32 58.45 280.82 57 281.42 55.37C281.902 53.9682 282.543 52.6262 283.33 51.37C283.662 51.0807 284.05 50.863 284.47 50.7305C284.889 50.598 285.332 50.5536 285.77 50.6C286.81 49.9739 287.996 49.6293 289.21 49.6C289.47 49.53 289.63 49.6 289.7 49.71C289.749 49.8798 289.749 50.0601 289.7 50.23C289.671 50.4131 289.627 50.5936 289.57 50.77C289.576 50.8031 289.576 50.8369 289.57 50.87C289.275 52.357 289.098 53.8651 289.04 55.38C288.98 56.97 288.95 58.56 288.96 60.15C288.96 61.06 288.96 61.96 288.96 62.84C289.02 65.55 289.14 68.32 289.34 71.16C289.43 72.52 289.5 73.84 289.57 75.16C289.771 75.7656 289.743 76.424 289.49 77.01C289.309 77.3581 289.017 77.6359 288.66 77.8C288.3 78.0087 287.908 78.1573 287.5 78.24C286.907 77.7097 286.489 77.0125 286.3 76.24C285.901 75.0897 285.567 73.9178 285.3 72.73C285.09 71.8715 284.939 70.9993 284.85 70.12C284.91 68.23 284.85 66.32 284.78 64.38C284.78 64.02 284.78 63.67 284.78 63.32C284.7 62.55 284.62 61.7 284.54 60.76L284.39 61.04C284.09 61.78 283.66 63.13 283.1 65.04C282.6 66.74 282.1 68.39 281.57 69.97C281.265 71.0654 280.815 72.1148 280.23 73.09C280.063 73.2844 279.828 73.4073 279.573 73.4334C279.318 73.4594 279.063 73.3866 278.86 73.23C278.223 72.8847 277.665 72.4115 277.22 71.84C276.217 70.6697 275.358 69.384 274.66 68.01C274.137 66.889 273.692 65.7328 273.33 64.55C273.02 63.55 272.61 62.45 272.1 61.17C272.02 61.87 271.94 62.56 271.87 63.24C271.49 67.2 271.24 71.2433 271.12 75.37C271.12 75.6 271.12 75.84 271.12 76.07C271.287 76.7188 271.22 77.406 270.93 78.01C270.71 78.3455 270.398 78.6096 270.03 78.77C269.654 78.965 269.254 79.1096 268.84 79.2C268.235 78.5882 267.848 77.7938 267.74 76.94C267.425 75.6964 267.192 74.4337 267.04 73.16C266.911 72.2491 266.847 71.33 266.85 70.41C267.12 68.14 267.32 65.87 267.45 63.57C267.45 63.46 267.45 63.35 267.45 63.24C267.45 62.73 267.45 62.19 267.45 61.6C267.45 60.06 267.53 58.46 267.61 56.78C267.661 55.3247 267.811 53.8747 268.06 52.44C268.25 52.0359 268.52 51.6745 268.854 51.3772C269.187 51.08 269.577 50.853 270 50.71C270.894 50.3906 271.819 50.1661 272.76 50.04L273 50Z" fill="black"/>
<path d="M307.91 48.69C308.05 48.53 308.22 48.54 308.4 48.69C308.615 48.909 308.797 49.1583 308.94 49.43C309.107 49.7554 309.257 50.0892 309.39 50.43C309.52 50.75 309.62 51 309.67 51.17C311.032 55.8468 312.035 60.6207 312.67 65.45C312.67 65.6 312.72 65.77 312.76 65.94C312.95 66.94 313.15 67.94 313.39 69.08L313.86 69.2C314.164 69.3333 314.441 69.5195 314.68 69.75C314.952 70.0091 315.206 70.2864 315.44 70.58C315.61 70.7937 315.767 71.0175 315.91 71.25C315.95 71.37 315.87 71.51 315.67 71.67C315.455 71.845 315.224 71.999 314.98 72.13L314.31 72.46L314.19 72.52C314.521 73.9595 314.945 75.3759 315.46 76.76C315.6 76.9266 315.705 77.1195 315.768 77.3274C315.832 77.5353 315.853 77.7538 315.83 77.97C315.77 78.1129 315.681 78.2422 315.57 78.35C315.42 78.51 315.25 78.68 315.06 78.85L314.58 79.26C314.545 79.2962 314.505 79.3266 314.46 79.35C313.94 79.46 313.38 79.19 312.78 78.55C312.137 77.8557 311.58 77.0869 311.12 76.26C310.685 75.5095 310.307 74.7273 309.99 73.92H309.91C308.537 73.8464 307.16 73.8731 305.79 74C305.28 74.09 304.55 74.21 303.6 74.35C302.65 74.49 301.71 74.61 300.77 74.69C300.07 74.7819 299.36 74.7819 298.66 74.69L298.39 75.16C298.26 75.39 298.12 75.62 297.98 75.84C297.797 76.5963 297.345 77.2606 296.71 77.71C296.287 77.9883 295.796 78.144 295.29 78.16C294.76 78.22 294.223 78.1964 293.7 78.09C293.557 77.3455 293.612 76.5764 293.86 75.86C294.12 74.66 294.44 73.43 294.86 72.17C294.222 71.557 293.617 70.9093 293.05 70.23C292.81 70.06 292.73 69.93 292.79 69.83C292.914 69.7108 293.078 69.643 293.25 69.64C293.495 69.6081 293.743 69.5914 293.99 69.59H294.57H294.65C294.99 69.59 295.34 69.59 295.7 69.59C296.013 68.7952 296.395 68.029 296.84 67.3C297.374 66.4145 297.823 65.4803 298.18 64.51C298.47 63.65 298.89 62.32 299.43 60.51C299.97 58.7 300.43 57.21 300.96 55.62C301.49 54.03 301.86 52.93 302.13 52.32C302.528 51.5207 303.119 50.8333 303.85 50.32C304.451 49.9556 305.101 49.6794 305.78 49.5C306.514 49.2973 307.227 49.0261 307.91 48.69ZM301.07 69.69C302.07 69.69 303 69.69 303.95 69.69C305.17 69.69 306.43 69.58 307.71 69.47L309.12 69.35C309.06 69.05 308.98 68.75 308.91 68.44C308.78 67.81 308.65 67.2 308.52 66.6C308.39 66 308.12 65.11 307.91 64.31C307.243 61.9233 306.643 59.5434 306.11 57.17C305.103 60.0767 303.983 62.9133 302.75 65.68C302.55 66.16 302.34 66.68 302.15 67.15L301.64 68.4C301.43 68.81 301.24 69.23 301.07 69.65V69.69Z" fill="black"/>
<path d="M337.15 55.4899C337.15 55.6799 337.15 55.7799 336.99 55.7899C336.834 55.7864 336.684 55.7339 336.56 55.6399L336.07 55.3299C335.976 55.2475 335.871 55.1769 335.76 55.1199C334.675 54.5045 333.484 54.0975 332.25 53.9199C331.105 53.7282 329.935 53.7282 328.79 53.9199C327.71 54.1599 327.14 54.5099 327.09 54.9699C327.096 55.2646 327.165 55.5546 327.293 55.8203C327.42 56.0859 327.604 56.3211 327.83 56.5099C328.422 57.1176 329.057 57.6824 329.73 58.1999C331.28 59.4599 332.73 60.7999 334.18 62.1999C335.598 63.6045 336.862 65.1566 337.95 66.8299C338.723 68.0229 339.347 69.3057 339.81 70.6499C340.265 71.9333 340.358 73.317 340.08 74.6499C339.917 75.348 339.615 76.0061 339.193 76.5851C338.77 77.1641 338.235 77.652 337.62 78.0199C336.267 78.7887 334.745 79.2113 333.19 79.2499C331.445 79.3157 329.701 79.0892 328.03 78.5799C326.339 78.0954 324.745 77.3205 323.32 76.2899C322.725 75.8708 322.17 75.3989 321.66 74.8799C321.144 74.376 320.691 73.812 320.31 73.1999C319.668 72.0729 319.362 70.7853 319.43 69.4899C319.523 68.6379 319.9 67.8419 320.5 67.2299C321.073 66.608 321.777 66.1198 322.56 65.7999C322.583 65.9624 322.583 66.1274 322.56 66.2899C322.56 66.5699 322.56 66.9299 322.5 67.2899C322.44 67.6499 322.5 68.2099 322.44 68.6299C322.417 68.9395 322.417 69.2503 322.44 69.5599C322.564 70.3685 322.91 71.1268 323.44 71.7499C324.441 72.8679 325.749 73.6676 327.2 74.0499C328.583 74.4385 330.005 74.6733 331.44 74.7499C332.191 74.832 332.949 74.7983 333.69 74.6499C334.367 74.5262 334.982 74.1731 335.43 73.6499C335.647 73.3433 335.79 72.9903 335.848 72.6189C335.905 72.2474 335.875 71.8677 335.76 71.5099C335.327 70.1754 334.626 68.9436 333.7 67.8899C332.66 66.6395 331.523 65.4726 330.3 64.3999C329.07 63.3199 327.99 62.3999 327.07 61.7099C325.632 60.6625 324.367 59.3973 323.32 57.9599C322.03 55.9599 321.65 54.2199 322.19 52.6299C322.501 51.8057 323.011 51.0708 323.674 50.4901C324.336 49.9093 325.132 49.5006 325.99 49.2999C327.919 48.9246 329.914 49.0934 331.753 49.7875C333.591 50.4816 335.2 51.6735 336.4 53.2299C336.61 53.5654 336.788 53.9204 336.93 54.2899C337.118 54.6601 337.195 55.077 337.15 55.4899Z" fill="black"/>
<path d="M350.84 50.1499C351.07 50.0499 351.23 50.0599 351.31 50.1499C351.395 50.32 351.43 50.5109 351.41 50.7C351.396 50.9213 351.369 51.1416 351.33 51.3599C351.33 51.5699 351.26 51.7 351.25 51.76C350.637 55.0685 350.193 58.4062 349.92 61.76C351.64 61.95 353.06 62.0699 354.18 62.1099C355.636 62.1372 357.092 62.0771 358.54 61.9299C358.54 60.1899 358.54 58.26 358.54 56.16C358.567 54.3597 358.758 52.5656 359.11 50.7999C359.31 50.3766 359.609 50.0075 359.981 49.7238C360.354 49.4401 360.789 49.2502 361.25 49.17C362.243 48.9762 363.267 49 364.25 49.2399C364.6 49.2899 364.78 49.3699 364.8 49.4899C364.804 49.6637 364.755 49.8345 364.66 49.98C364.629 50.0052 364.608 50.0406 364.6 50.0799C364.045 51.7671 363.683 53.5115 363.52 55.28C363.26 57.5 363.06 59.5 362.92 61.28V61.39C363.392 61.4681 363.84 61.6528 364.23 61.9299C364.591 62.1828 364.926 62.4709 365.23 62.79C365.387 62.9346 365.527 63.0955 365.65 63.2699C365.65 63.5699 365.34 63.9199 364.75 64.2699C364.102 64.7075 363.416 65.0857 362.7 65.3999C362.633 68.774 362.754 72.1492 363.06 75.51C363.279 76.0623 363.279 76.6776 363.06 77.23C362.919 77.5638 362.664 77.8367 362.34 78C362.024 78.1996 361.689 78.3671 361.34 78.5C360.78 78.33 360.26 77.69 359.79 76.56C359.308 75.3861 358.933 74.1712 358.67 72.9299C358.45 72.0475 358.31 71.1473 358.25 70.2399C358.34 68.9099 358.39 67.5899 358.39 66.2399C357.87 66.2399 357.39 66.2399 356.82 66.2399H355.26C353.334 66.4487 351.395 66.5122 349.46 66.4299C349.339 69.6478 349.406 72.8699 349.66 76.0799C349.874 76.647 349.874 77.2728 349.66 77.84C349.477 78.1772 349.208 78.4601 348.88 78.66C348.571 78.8871 348.235 79.0752 347.88 79.22C347.37 79.03 346.88 78.38 346.45 77.22C345.996 76.069 345.628 74.8857 345.35 73.6799C345.119 72.8127 344.972 71.9253 344.91 71.03C345.03 69.44 345.11 67.8499 345.14 66.2399L345.2 64.5799C344.209 63.5684 343.328 62.4557 342.57 61.26C342.36 61.04 342.3 60.89 342.4 60.81C342.558 60.7227 342.741 60.6911 342.92 60.72C343.161 60.7279 343.402 60.7513 343.64 60.79L344.07 60.85L344.62 60.95L345.16 61.03C345.16 59.64 345.22 58.26 345.29 56.89C345.344 55.6583 345.484 54.432 345.71 53.22C346.087 52.2678 346.798 51.4856 347.71 51.0199C348.706 50.5803 349.76 50.2873 350.84 50.1499Z" fill="black"/>
<path d="M375.78 49.7299C376.05 49.7299 376.22 49.7899 376.28 49.9299C376.34 50.0877 376.34 50.2621 376.28 50.4199C376.21 50.6099 376.15 50.7699 376.08 50.9199V50.9899C375.653 52.3108 375.358 53.6708 375.2 55.0499C374.99 56.6299 374.83 58.2399 374.71 59.8799C375.704 59.0149 376.624 58.0682 377.46 57.0499C377.98 56.3499 378.63 55.3799 379.4 54.1399C379.86 53.3999 380.31 52.7099 380.72 52.0899C381.025 51.626 381.359 51.1818 381.72 50.7599C382.4 50.2881 383.187 49.9925 384.01 49.8999C384.934 49.7589 385.866 49.6754 386.8 49.6499H387.56C387.83 49.5399 388 49.5599 388.06 49.7099C388.124 49.8945 388.124 50.0953 388.06 50.2799C387.993 50.5156 387.91 50.7462 387.81 50.9699C387.756 51.1075 387.692 51.2411 387.62 51.3699C386.756 52.8961 385.79 54.3627 384.73 55.7599C383.73 57.0599 382.603 58.3932 381.35 59.7599L381.84 60.9899C382.4 62.4099 382.94 63.7299 383.47 64.9899C384 66.2499 384.66 67.6199 385.47 69.1799C386.137 70.2666 386.937 71.4966 387.87 72.8699C388.722 74.0948 389.644 75.2701 390.63 76.3899C390.803 76.4754 390.954 76.599 391.071 76.7515C391.189 76.904 391.271 77.0812 391.31 77.2699C391.334 77.4653 391.314 77.6637 391.25 77.8499C391.187 78.1138 391.11 78.3741 391.02 78.6299C390.954 78.8322 390.874 79.0294 390.78 79.2199C390.42 79.4499 389.86 79.3999 389.1 79.0499C388.301 78.6772 387.549 78.2106 386.86 77.6599C386.253 77.2028 385.703 76.6759 385.22 76.0899C384.28 74.5632 383.323 73.0466 382.35 71.5399C381.97 71.0199 381.43 70.2299 380.74 69.1699C380.05 68.1099 379.42 67.0499 378.83 66.0099C378.356 65.2976 378.017 64.5045 377.83 63.6699L377.27 64.2599C376.8 64.7699 376.27 65.2599 375.72 65.8299C375.333 66.2542 374.864 66.5946 374.34 66.8299C374.34 69.5199 374.34 72.2199 374.45 74.9099C374.45 75.4699 374.45 76.0199 374.51 76.5499C374.609 76.7675 374.654 77.0061 374.64 77.2448C374.626 77.4835 374.554 77.7153 374.43 77.9199C374.177 78.1639 373.849 78.3154 373.5 78.3499C373.131 78.4214 372.755 78.4483 372.38 78.4299C371.733 78.055 371.253 77.4468 371.04 76.7299C370.664 75.8108 370.383 74.8559 370.2 73.8799C370.04 73.1796 369.94 72.4671 369.9 71.7499C369.98 70.5899 370.03 69.3999 370.04 68.1899C370.05 66.9799 370.04 65.7999 370.04 64.6399C369.96 62.7399 369.927 60.6432 369.94 58.3499C369.927 56.3154 370.098 54.2838 370.45 52.2799C370.638 51.7997 370.922 51.3631 371.285 50.9967C371.648 50.6304 372.082 50.3422 372.56 50.1499C373.574 49.7166 374.688 49.5713 375.78 49.7299Z" fill="black"/>
<path d="M408.54 48.69C408.68 48.53 408.84 48.54 409.02 48.69C409.238 48.9064 409.42 49.1562 409.56 49.43C409.734 49.7532 409.888 50.0872 410.02 50.43C410.15 50.75 410.24 51 410.29 51.17C411.656 55.8456 412.659 60.6198 413.29 65.45C413.29 65.6 413.35 65.77 413.39 65.94C413.57 66.94 413.78 67.94 414.01 69.08L414.48 69.2C414.785 69.331 415.063 69.5175 415.3 69.75C415.574 70.0065 415.828 70.284 416.06 70.58C416.233 70.7912 416.39 71.0152 416.53 71.25C416.53 71.37 416.53 71.51 416.3 71.67C416.082 71.8405 415.851 71.9942 415.61 72.13L414.93 72.46L414.81 72.52C415.145 73.9583 415.569 75.3744 416.08 76.76C416.222 76.925 416.328 77.1178 416.392 77.3261C416.456 77.5344 416.476 77.7537 416.45 77.97C416.394 78.1152 416.305 78.2453 416.19 78.35C416.04 78.51 415.87 78.68 415.68 78.85L415.2 79.26C415.171 79.2981 415.133 79.3289 415.09 79.35C414.57 79.46 414.01 79.19 413.41 78.55C412.767 77.8557 412.21 77.0869 411.75 76.26C411.307 75.5138 410.929 74.7309 410.62 73.92H410.54C409.166 73.8462 407.789 73.8729 406.42 74C405.91 74.09 405.18 74.21 404.23 74.35C403.28 74.49 402.33 74.61 401.4 74.69C400.7 74.7819 399.99 74.7819 399.29 74.69L399.01 75.16C398.88 75.39 398.75 75.62 398.6 75.84C398.421 76.5982 397.969 77.2639 397.33 77.71C396.91 77.9865 396.422 78.1422 395.92 78.16C395.39 78.2207 394.853 78.1971 394.33 78.09C394.181 77.3465 394.233 76.5768 394.48 75.86C394.74 74.66 395.07 73.43 395.48 72.17C394.838 71.5569 394.231 70.9093 393.66 70.23C393.43 70.06 393.34 69.93 393.41 69.83C393.533 69.7091 393.698 69.6409 393.87 69.64C394.115 69.6081 394.362 69.5914 394.61 69.59H395.19H395.26C395.6 69.59 395.95 69.59 396.32 69.59C396.63 68.7955 397.008 68.0293 397.45 67.3C397.983 66.4126 398.435 65.4789 398.8 64.51C399.09 63.65 399.5 62.32 400.05 60.51C400.6 58.7 401.05 57.21 401.57 55.62C402.09 54.03 402.47 52.93 402.74 52.32C403.138 51.5207 403.729 50.8333 404.46 50.32C405.064 49.9556 405.717 49.6794 406.4 49.5C407.137 49.2962 407.853 49.025 408.54 48.69ZM401.7 69.69C402.7 69.69 403.62 69.69 404.57 69.69C405.79 69.69 407.05 69.58 408.34 69.47L409.75 69.35C409.68 69.05 409.61 68.75 409.53 68.44C409.4 67.81 409.27 67.2 409.14 66.6C409.01 66 408.74 65.11 408.54 64.31C407.88 61.92 407.29 59.54 406.74 57.17C405.72 60.0767 404.6 62.9133 403.38 65.68C403.17 66.16 402.97 66.68 402.77 67.15C402.57 67.62 402.43 67.98 402.27 68.4C402.11 68.82 401.87 69.23 401.7 69.65V69.69Z" fill="black"/>
<path d="M428 71.48C428.36 71.48 428.56 71.54 428.59 71.67C428.62 71.8 428.59 71.96 428.39 72.17C428.032 72.5889 427.735 73.057 427.51 73.56C427.28 74.09 427.06 74.62 426.87 75.15C426.8 75.34 426.74 75.51 426.67 75.68C426.571 76.2038 426.53 76.7371 426.55 77.2699C426.55 77.9299 426.55 78.48 426.63 78.92C426.75 79.04 426.79 79.14 426.76 79.21C426.714 79.2936 426.64 79.3576 426.55 79.39C426.351 79.4611 426.141 79.4982 425.93 79.5H424.93C424.61 79.5 424.38 79.5 424.22 79.5C423.796 79.4207 423.405 79.2151 423.1 78.91C422.627 78.5393 422.198 78.1167 421.82 77.65C421.45 77.2 421.3 76.87 421.35 76.65C421.531 76.0249 421.635 75.3802 421.66 74.73C421.609 74.1577 421.609 73.5822 421.66 73.01C421.684 72.4422 421.857 71.8906 422.16 71.41C422.988 71.095 423.882 70.9919 424.76 71.1099C425.92 71.1999 426.92 71.3 427.76 71.43L428 71.48Z" fill="black"/>
<path d="M16 103.69C16.14 103.53 16.3 103.54 16.48 103.69C16.6982 103.906 16.8804 104.156 17.0199 104.43C17.1944 104.753 17.348 105.087 17.48 105.43C17.61 105.75 17.7 106 17.75 106.17C19.1163 110.846 20.1193 115.62 20.75 120.45C20.75 120.6 20.8099 120.77 20.8499 120.94C21.0299 121.94 21.24 122.94 21.47 124.08L21.94 124.2C22.245 124.331 22.523 124.517 22.76 124.75C23.0344 125.007 23.2885 125.284 23.5199 125.58C23.6932 125.791 23.8504 126.015 23.9899 126.25C23.9899 126.37 23.99 126.51 23.76 126.67C23.5418 126.84 23.3112 126.994 23.07 127.13L22.3899 127.46L22.2699 127.52C22.605 128.958 23.0292 130.374 23.54 131.76C23.7022 131.921 23.8274 132.115 23.9069 132.329C23.9863 132.543 24.0181 132.772 24 133C23.944 133.145 23.855 133.275 23.7399 133.38C23.5899 133.54 23.42 133.71 23.23 133.88L22.75 134.29C22.7207 134.328 22.6831 134.359 22.6399 134.38C22.1199 134.49 21.5599 134.22 20.9599 133.58C20.3172 132.886 19.7599 132.117 19.3 131.29C18.857 130.544 18.4789 129.761 18.1699 128.95H18.0899C16.7165 128.876 15.3395 128.903 13.97 129.03C13.46 129.12 12.7299 129.24 11.78 129.38C10.83 129.52 9.87995 129.64 8.94995 129.72C8.24962 129.812 7.54028 129.812 6.83995 129.72L6.55995 130.19C6.42995 130.42 6.29995 130.65 6.14995 130.87C5.9708 131.628 5.51869 132.294 4.87995 132.74C4.46013 133.017 3.97233 133.172 3.46995 133.19C2.93958 133.251 2.40294 133.227 1.87995 133.12C1.73107 132.377 1.78285 131.607 2.02995 130.89C2.28995 129.69 2.61995 128.46 3.02995 127.2C2.38844 126.587 1.78087 125.939 1.20995 125.26C0.97995 125.09 0.88995 124.96 0.95995 124.86C1.08261 124.739 1.2477 124.671 1.41995 124.67C1.66535 124.638 1.91249 124.621 2.15995 124.62H2.73995H2.80995C3.14995 124.62 3.49995 124.62 3.86995 124.62C4.17976 123.825 4.55784 123.059 4.99995 122.33C5.53324 121.443 5.98508 120.509 6.34995 119.54C6.63995 118.68 7.04995 117.35 7.59995 115.54C8.14995 113.73 8.59995 112.24 9.11995 110.65C9.63995 109.06 10.02 107.96 10.29 107.35C10.6881 106.551 11.2792 105.863 12.01 105.35C12.6142 104.986 13.2675 104.709 13.9499 104.53C14.6568 104.311 15.3429 104.03 16 103.69ZM9.15996 124.69C10.16 124.69 11.08 124.69 12.03 124.69C13.25 124.69 14.51 124.58 15.8 124.47L17.2099 124.35C17.1399 124.05 17.0699 123.75 16.9899 123.44C16.8599 122.81 16.7299 122.2 16.5999 121.6C16.4699 121 16.2 120.11 16 119.31C15.34 116.92 14.7499 114.54 14.1999 112.17C13.1799 115.077 12.0599 117.913 10.8399 120.68C10.6299 121.16 10.43 121.68 10.23 122.15C10.03 122.62 9.88995 122.98 9.72995 123.4C9.56995 123.82 9.36995 124.23 9.19995 124.65L9.15996 124.69Z" fill="black"/>
<path d="M33.2801 108.92C31.3181 108.467 29.4129 107.796 27.6001 106.92C27.0101 106.79 27.0601 106.56 27.7401 106.24C28.7985 105.792 29.9013 105.457 31.0301 105.24C32.6793 104.896 34.3497 104.662 36.0301 104.54C37.8472 104.397 39.6745 104.45 41.4801 104.7C44.8601 105.22 47.2834 106.5 48.7501 108.54C50.254 110.738 50.8488 113.433 50.4101 116.06C50.1911 117.687 49.4218 119.19 48.2301 120.32C47.0383 121.436 45.6241 122.288 44.0801 122.82C42.9984 123.208 41.8885 123.512 40.7601 123.73C39.5906 123.971 38.3859 123.988 37.2101 123.78C36.8908 123.691 36.5823 123.566 36.2901 123.41C36.1783 126.267 36.2183 129.127 36.4101 131.98C36.5129 132.126 36.5681 132.301 36.5681 132.48C36.5681 132.659 36.5129 132.833 36.4101 132.98C36.2819 133.088 36.1317 133.166 35.9701 133.21C35.7307 133.293 35.487 133.363 35.2401 133.42L34.6301 133.56H34.5701C34.3428 133.548 34.1217 133.482 33.9252 133.367C33.7286 133.252 33.5623 133.092 33.4401 132.9C33.073 132.409 32.7799 131.866 32.5701 131.29C32.336 130.69 32.152 130.071 32.0201 129.44C31.9159 128.973 31.8556 128.498 31.8401 128.02C31.9801 126.02 32.0634 124.02 32.0901 122.02V121.92C32.0901 121.69 32.0901 121.45 32.0901 121.2C32.0201 119.56 31.9801 117.81 31.9401 115.97C31.9052 114.302 31.9552 112.633 32.0901 110.97C32.295 110.192 32.7062 109.484 33.2801 108.92ZM36.4801 120.72C37.6701 120.4 38.9801 119.97 40.4201 119.43C41.7733 118.943 43.06 118.288 44.2501 117.48C44.7508 117.186 45.1864 116.794 45.5303 116.326C45.8742 115.858 46.1191 115.325 46.2501 114.76C46.3471 114.067 46.3471 113.363 46.2501 112.67C46.1737 111.92 45.8501 111.216 45.3301 110.67C44.7098 110.154 43.9651 109.809 43.1701 109.67C42.2553 109.479 41.3245 109.375 40.3901 109.36C39.3901 109.36 38.5701 109.36 37.8101 109.36C37.5301 109.36 37.2701 109.36 37.0501 109.36C36.9301 113.17 36.7501 117 36.4801 120.72Z" fill="black"/>
<path d="M58.46 109.65C57.6998 109.09 57.0717 108.369 56.62 107.54C56.1452 106.744 55.7145 105.923 55.33 105.08C55.1166 104.753 55.0766 104.563 55.21 104.51C55.4212 104.465 55.641 104.486 55.84 104.57C56.7271 104.777 57.6304 104.908 58.54 104.96C59.54 105.02 60.59 105.06 61.54 105.08H62.87C63.87 105.08 64.87 105.08 65.87 104.98L69.04 104.76C70.11 104.69 71.14 104.62 72.13 104.57C73.8233 104.19 75.3133 104.827 76.6 106.48C76.51 106.79 75.97 107.16 74.98 107.58C73.9451 108.007 72.8867 108.374 71.81 108.68C71.0276 108.926 70.2242 109.101 69.41 109.2H68.24C67.43 109.2 66.69 109.2 66 109.2C65.1864 109.233 64.3752 109.309 63.57 109.43C63.29 111.53 63.05 113.64 62.85 115.78C63.5 115.83 64.15 115.9 64.85 115.97C66.2846 116.008 67.7203 115.965 69.15 115.84L70.85 115.74C71.0299 115.657 71.2277 115.621 71.4252 115.635C71.6227 115.649 71.8134 115.713 71.98 115.82C72.3233 116.053 72.6131 116.356 72.83 116.71C73.0825 117.053 73.3097 117.414 73.51 117.79C73.51 118.08 73.22 118.42 72.72 118.79C72.1992 119.18 71.6395 119.515 71.05 119.79C70.5983 120.046 70.0971 120.203 69.58 120.25C68.38 120.18 67.46 120.16 66.83 120.18C66.2 120.2 65.65 120.24 65.21 120.29L64.06 120.39C63.65 120.39 63.13 120.39 62.49 120.39C62.3673 122.654 62.4141 124.923 62.63 127.18C62.7095 127.342 62.7538 127.519 62.76 127.7C62.7605 127.856 62.7153 128.009 62.63 128.14C62.5363 128.202 62.4395 128.258 62.34 128.31C62.1893 128.39 62.032 128.457 61.87 128.51L65.48 128.65C65.71 128.65 65.95 128.65 66.18 128.65C67.41 128.65 68.77 128.6 70.28 128.47C71.79 128.34 73.15 128.17 74.35 127.96C74.4855 127.854 74.6528 127.796 74.825 127.796C74.9972 127.796 75.1644 127.854 75.3 127.96C75.5317 128.11 75.7321 128.303 75.89 128.53C76.12 128.83 76.34 129.12 76.53 129.39L76.79 129.72C76.8396 129.977 76.8195 130.242 76.7315 130.488C76.6435 130.735 76.4911 130.953 76.29 131.12C75.8113 131.591 75.2526 131.974 74.64 132.25C74.1207 132.518 73.5591 132.693 72.98 132.77C71.62 132.77 70.26 132.77 68.9 132.87L67.98 132.93C66.81 133.06 65.43 133.17 63.85 133.26C62.4655 133.356 61.0748 133.309 59.7 133.12C58.7322 132.702 57.9107 132.006 57.34 131.12C56.7524 130.252 56.2532 129.327 55.85 128.36C55.71 128.09 55.67 127.93 55.74 127.86C55.792 127.82 55.8525 127.793 55.9167 127.781C55.9809 127.769 56.0471 127.772 56.11 127.79C56.2943 127.818 56.4753 127.865 56.65 127.93C57.7054 128.147 58.7746 128.291 59.85 128.36C59.2128 127.637 58.7417 126.784 58.47 125.86C58.1777 125.079 57.9992 124.261 57.94 123.43C57.94 123.32 57.94 123.11 57.94 122.81C57.94 122.29 58.02 121.67 58.08 120.94C58.14 120.21 58.17 119.56 58.19 118.94C58.2318 118.608 58.2318 118.272 58.19 117.94C57.6532 117.13 57.1657 116.288 56.73 115.42C56.55 115.13 56.52 114.95 56.66 114.89C56.8614 114.824 57.0785 114.824 57.28 114.89C57.55 114.89 57.81 114.99 58.06 115.06H58.15C58.15 114.06 58.15 113.06 58.21 112.11C58.2438 111.286 58.3273 110.464 58.46 109.65Z" fill="black"/>
<path d="M87.1899 104.57C87.4499 104.57 87.6099 104.57 87.6799 104.71C87.7036 104.763 87.7159 104.821 87.7159 104.88C87.7159 104.938 87.7036 104.996 87.6799 105.05C87.6522 105.194 87.6086 105.335 87.5499 105.47C87.5469 105.513 87.5469 105.557 87.5499 105.6C87.1022 107.063 86.804 108.567 86.6599 110.09C86.4599 111.89 86.2999 113.62 86.1799 115.27C86.1299 115.96 86.0799 116.59 86.0299 117.17C85.8422 120.912 85.8789 124.662 86.1399 128.4C86.2413 128.584 86.2963 128.79 86.2999 129H86.9799C87.1431 129.01 87.3068 129.01 87.4699 129C89.2899 129 91.2366 128.91 93.3099 128.73C94.0399 128.66 94.7299 128.61 95.3799 128.57C95.6323 128.46 95.9046 128.403 96.1799 128.403C96.4552 128.403 96.7276 128.46 96.9799 128.57C97.4055 128.746 97.7877 129.012 98.0999 129.35C98.4433 129.687 98.7547 130.055 99.0299 130.45C99.0299 130.73 98.6399 131.08 97.8399 131.5C97.0233 131.932 96.1741 132.3 95.2999 132.6C94.6586 132.859 93.9863 133.034 93.2999 133.12C91.8876 133.045 90.4723 133.045 89.0599 133.12H88.9999C88.1999 133.25 87.2499 133.36 86.1499 133.43C85.1977 133.518 84.2377 133.467 83.2999 133.28C82.5223 132.741 81.9095 131.997 81.5299 131.13C81.1323 130.289 80.798 129.42 80.5299 128.53C80.3999 128.22 80.3799 128.03 80.5299 127.97C80.6799 127.91 80.8099 127.97 81.0699 128.08C81.628 128.315 82.2177 128.467 82.8199 128.53C82.4218 127.659 82.12 126.747 81.9199 125.81C81.7404 125.116 81.6299 124.406 81.5899 123.69C81.6999 121.97 81.7599 120.22 81.7699 118.45C81.7699 118.01 81.7699 117.57 81.7699 117.12C81.6899 115.5 81.6599 113.65 81.6699 111.59C81.6548 109.81 81.8054 108.032 82.1199 106.28C82.3119 105.856 82.5998 105.483 82.9607 105.19C83.3217 104.896 83.746 104.691 84.1999 104.59C85.1853 104.384 86.2019 104.377 87.1899 104.57Z" fill="black"/>
<path d="M119.71 110.49C119.71 110.68 119.71 110.78 119.55 110.79C119.394 110.788 119.243 110.735 119.12 110.64L118.63 110.33C118.536 110.248 118.431 110.177 118.32 110.12C117.233 109.502 116.038 109.095 114.8 108.92C113.658 108.728 112.492 108.728 111.35 108.92C110.27 109.16 109.7 109.51 109.65 109.97C109.652 110.265 109.719 110.557 109.847 110.823C109.975 111.089 110.16 111.324 110.39 111.51C110.982 112.118 111.617 112.682 112.29 113.2C113.83 114.46 115.29 115.8 116.74 117.2C118.155 118.607 119.419 120.159 120.51 121.83C121.278 123.025 121.903 124.308 122.37 125.65C122.825 126.933 122.918 128.317 122.64 129.65C122.477 130.348 122.175 131.006 121.753 131.585C121.33 132.164 120.795 132.652 120.18 133.02C118.827 133.789 117.305 134.211 115.75 134.25C114.005 134.316 112.26 134.089 110.59 133.58C108.899 133.095 107.305 132.321 105.88 131.29C105.285 130.871 104.73 130.399 104.22 129.88C103.704 129.376 103.251 128.812 102.87 128.2C102.223 127.075 101.918 125.786 101.99 124.49C102.083 123.638 102.46 122.842 103.06 122.23C103.632 121.606 104.335 121.118 105.12 120.8C105.143 120.962 105.143 121.128 105.12 121.29C105.12 121.57 105.12 121.93 105.06 122.29C105 122.65 105.01 123.21 105 123.63C104.977 123.94 104.977 124.25 105 124.56C105.123 125.369 105.469 126.127 106 126.75C107.005 127.864 108.311 128.663 109.76 129.05C111.147 129.438 112.572 129.673 114.01 129.75C114.761 129.832 115.519 129.798 116.26 129.65C116.937 129.526 117.552 129.173 118 128.65C118.215 128.342 118.357 127.989 118.414 127.618C118.471 127.247 118.442 126.868 118.33 126.51C117.897 125.176 117.196 123.944 116.27 122.89C115.23 121.64 114.093 120.473 112.87 119.4C111.64 118.32 110.56 117.4 109.64 116.71C108.202 115.663 106.937 114.397 105.89 112.96C104.6 110.96 104.22 109.22 104.75 107.63C105.065 106.806 105.577 106.072 106.242 105.492C106.906 104.912 107.701 104.502 108.56 104.3C110.502 103.929 112.509 104.108 114.354 104.819C116.199 105.529 117.808 106.742 119 108.32C119.21 108.656 119.388 109.01 119.53 109.38C119.683 109.729 119.745 110.111 119.71 110.49Z" fill="black"/>
<path d="M131.27 104.65C131.52 104.56 131.68 104.56 131.77 104.65C131.813 104.703 131.844 104.764 131.863 104.829C131.882 104.894 131.888 104.962 131.88 105.03C131.864 105.185 131.837 105.339 131.8 105.49C131.494 106.965 131.317 108.464 131.27 109.97C131.18 111.84 131.12 113.65 131.09 115.41C131.09 116.41 131.09 117.28 131.04 118.01C131.04 120.36 131.04 122.73 131.04 125.12C131.1 127.16 131.12 129.19 131.1 131.21C131.188 131.466 131.22 131.737 131.194 132.006C131.168 132.275 131.085 132.536 130.95 132.77C130.688 133.045 130.329 133.207 129.95 133.22C129.562 133.279 129.168 133.279 128.78 133.22C128.143 132.757 127.69 132.084 127.5 131.32C127.155 130.345 126.897 129.341 126.73 128.32C126.588 127.561 126.507 126.792 126.49 126.02C126.64 123.52 126.68 121.02 126.63 118.47C126.63 117.92 126.55 117.31 126.51 116.65C126.41 114.98 126.33 113.23 126.28 111.4C126.219 109.849 126.263 108.295 126.41 106.75C126.521 106.404 126.709 106.087 126.961 105.824C127.212 105.56 127.519 105.357 127.86 105.23C128.57 105 129.305 104.859 130.05 104.81L131.27 104.65Z" fill="black"/>
<path d="M137.36 107.89C137.718 107.005 138.292 106.225 139.03 105.62C139.72 104.976 140.609 104.585 141.55 104.51C142.42 104.51 143.07 105.04 143.55 106.21C144.09 107.76 144.73 109.34 145.46 110.97C146.19 112.6 146.94 114.19 147.71 115.78C148.06 116.54 148.41 117.28 148.71 118.01C149.803 120.123 151 122.297 152.3 124.53C152.3 122.85 152.3 121.16 152.3 119.45C152.3 117.74 152.14 115.76 152.11 113.68C152.072 111.81 152.159 109.939 152.37 108.08C152.695 107.052 153.362 106.166 154.26 105.57C155.183 104.96 156.195 104.498 157.26 104.2C157.5 104.04 157.66 104.07 157.74 104.28C157.815 104.543 157.838 104.818 157.81 105.09C157.81 105.42 157.81 105.68 157.75 105.88C157.744 105.916 157.744 105.954 157.75 105.99C157.243 109.77 156.91 113.647 156.75 117.62C156.75 118.15 156.68 118.68 156.65 119.2C156.6 120.92 156.65 122.79 156.65 124.81C156.65 126.83 156.88 128.73 157.09 130.49C157.21 130.716 157.279 130.965 157.293 131.221C157.307 131.477 157.265 131.732 157.17 131.97C156.78 133.04 156.17 133.43 155.31 133.13C154.272 132.704 153.343 132.052 152.59 131.22C151.662 130.283 150.804 129.28 150.02 128.22C149.52 127.584 149.063 126.916 148.65 126.22C147.65 124.22 146.65 122.22 145.53 120.3C145.4 120.09 145.27 119.88 145.16 119.68C143.98 117.8 142.84 115.81 141.72 113.68C141.65 114.49 141.59 115.29 141.52 116.08C141.45 117.08 141.37 118.01 141.29 118.95C141.163 122.87 141.227 126.843 141.48 130.87C141.677 131.426 141.677 132.033 141.48 132.59C141.314 132.935 141.04 133.216 140.7 133.39C140.368 133.593 140.012 133.754 139.64 133.87C139.16 133.67 138.7 133.02 138.28 131.93C137.859 130.8 137.525 129.64 137.28 128.46C137.061 127.625 136.924 126.771 136.87 125.91C136.98 123.61 137.04 121.35 137.04 119.11C136.96 117.36 136.94 115.45 136.96 113.38C136.951 111.542 137.085 109.707 137.36 107.89Z" fill="black"/>
</svg>
