<svg width="750" height="196" viewBox="0 0 750 196" fill="none" xmlns="http://www.w3.org/2000/svg">
<path d="M1.20996 193.86H16.78V173.8H49.63V160.64H16.78V150.78H51.01V137.61H1.20996V193.86Z" fill="black"/>
<path d="M75.31 137.61H59.75V193.86H75.31V137.61Z" fill="black"/>
<path d="M103.12 171.4H134.6V160.08H103.12L101.51 150.21H136.77V137.61H84.8398L89.1098 165.74L84.8398 193.86H137.15V181.26H101.51L103.12 171.4Z" fill="black"/>
<path d="M191.43 171.36C194.487 170.013 197.101 167.829 198.97 165.06C200.779 162.274 201.712 159.011 201.65 155.69C201.71 152.338 200.778 149.043 198.97 146.22C197.116 143.424 194.499 141.217 191.43 139.86C187.896 138.299 184.063 137.531 180.2 137.61H146.79V193.86H162.35V173.61H170.47L185.56 193.86H203.56L187.39 172.77C188.778 172.429 190.131 171.957 191.43 171.36ZM162.35 149.16H178.06C179.511 149.124 180.954 149.387 182.3 149.93C183.402 150.388 184.342 151.165 185 152.16C185.609 153.226 185.929 154.432 185.929 155.66C185.929 156.888 185.609 158.094 185 159.16C184.34 160.166 183.392 160.95 182.28 161.41C180.94 161.947 179.504 162.206 178.06 162.17H162.35V149.16Z" fill="black"/>
<path d="M259.14 140.05C253.624 137.626 247.665 136.374 241.64 136.374C235.615 136.374 229.656 137.626 224.14 140.05C219.311 142.295 215.229 145.881 212.38 150.38C209.656 155.041 208.22 160.342 208.22 165.74C208.22 171.138 209.656 176.439 212.38 181.1C215.229 185.599 219.311 189.185 224.14 191.43C229.656 193.854 235.615 195.106 241.64 195.106C247.665 195.106 253.624 193.854 259.14 191.43C264.003 189.125 268.111 185.487 270.988 180.94C273.865 176.392 275.393 171.121 275.393 165.74C275.393 160.359 273.865 155.088 270.988 150.54C268.111 145.993 264.003 142.355 259.14 140.05ZM257.2 174C255.733 176.357 253.59 178.218 251.05 179.34C245.022 181.82 238.258 181.82 232.23 179.34C229.695 178.218 227.559 176.357 226.1 174C224.699 171.476 223.964 168.637 223.964 165.75C223.964 162.863 224.699 160.024 226.1 157.5C227.556 155.141 229.693 153.279 232.23 152.16C238.258 149.68 245.022 149.68 251.05 152.16C253.592 153.279 255.736 155.14 257.2 157.5C258.616 160.019 259.359 162.86 259.359 165.75C259.359 168.64 258.616 171.481 257.2 174Z" fill="black"/>
<path d="M353.2 165.4C352.039 164.911 350.838 164.523 349.61 164.24C350.04 164.04 350.45 163.83 350.84 163.6C353.119 162.357 355.003 160.5 356.28 158.24C357.418 156.105 358.003 153.719 357.98 151.3C358.032 148.721 357.338 146.183 355.98 143.99C354.613 141.879 352.64 140.23 350.32 139.26C347.505 138.094 344.476 137.532 341.43 137.61H301.43L305.78 165L301.43 193.87H343C346.536 193.982 350.053 193.299 353.29 191.87C355.923 190.677 358.138 188.723 359.65 186.26C361.096 183.776 361.833 180.943 361.78 178.07C361.844 175.39 361.11 172.751 359.67 170.49C358.072 168.183 355.818 166.41 353.2 165.4ZM339.35 149.15C340.22 149.54 340.957 150.176 341.47 150.98C341.961 151.801 342.214 152.743 342.2 153.7C342.226 154.81 341.931 155.904 341.35 156.85C340.801 157.744 340.01 158.465 339.07 158.93C338.037 159.433 336.899 159.684 335.75 159.66H319.8L318 148.49H336.09C337.212 148.468 338.325 148.694 339.35 149.15ZM344.05 181.34C342.569 182.515 340.707 183.102 338.82 182.99H317.89L319.89 170.31H337.89C340.033 170.173 342.157 170.792 343.89 172.06C344.534 172.643 345.052 173.352 345.412 174.142C345.773 174.933 345.968 175.788 345.987 176.657C346.006 177.525 345.847 178.389 345.521 179.194C345.195 179.999 344.708 180.729 344.09 181.34H344.05Z" fill="black"/>
<path d="M385.66 137.61H370.1V193.86H420.76V180.03H385.66V137.61Z" fill="black"/>
<path d="M466.47 168.74C466.532 171.055 466.031 173.351 465.01 175.43C464.047 177.28 462.525 178.778 460.66 179.71C458.436 180.693 456.031 181.2 453.6 181.2C451.169 181.2 448.764 180.693 446.54 179.71C444.671 178.772 443.142 177.272 442.17 175.42C441.153 173.35 440.652 171.065 440.71 168.76V137.61H425.15V169.49C425.051 174.206 426.285 178.854 428.71 182.9C431.117 186.792 434.587 189.915 438.71 191.9C443.391 194.006 448.466 195.095 453.6 195.095C458.733 195.095 463.809 194.006 468.49 191.9C472.626 189.933 476.1 186.806 478.49 182.9C480.887 178.845 482.103 174.2 482 169.49V137.61H466.47V168.74Z" fill="black"/>
<path d="M533.68 178.74L516.53 137.61H492.5V193.86H507.31V151.37L525.76 193.86H541.47L559.96 151.21V193.86H574.73V137.61H550.73L533.68 178.74Z" fill="black"/>
<path d="M601.5 137.61H585.94V193.86H601.5V137.61Z" fill="black"/>
<path d="M660.08 176.23L632.86 137.61H612.72V193.86H627.83V154.37L655.58 193.86H675.16V137.61H660.08V176.23Z" fill="black"/>
<path d="M719.55 164.76V175.76H734.93C734.771 175.988 734.601 176.209 734.42 176.42C732.63 178.498 730.322 180.064 727.73 180.96C724.621 182.048 721.343 182.573 718.05 182.51C714.672 182.593 711.316 181.949 708.21 180.62C705.55 179.451 703.322 177.479 701.84 174.98C700.275 172.176 699.504 168.999 699.61 165.79C699.502 162.662 700.212 159.56 701.67 156.79C703.009 154.381 705.064 152.449 707.55 151.26C710.406 149.944 713.526 149.301 716.67 149.38C719.305 149.345 721.93 149.72 724.45 150.49C726.565 151.117 728.517 152.199 730.17 153.66C731.61 154.968 732.65 156.656 733.17 158.53H748.84C748.083 154.291 746.243 150.319 743.5 147C740.539 143.525 736.758 140.845 732.5 139.2C727.448 137.236 722.059 136.281 716.64 136.39C710.871 136.289 705.153 137.475 699.9 139.86C695.114 142.041 691.064 145.563 688.24 150C685.472 154.798 684.015 160.24 684.015 165.78C684.015 171.32 685.472 176.762 688.24 181.56C690.997 185.963 694.966 189.476 699.67 191.68C704.714 194.044 710.23 195.231 715.8 195.15C721.07 195.307 726.292 194.112 730.97 191.68C733.494 190.315 735.761 188.522 737.67 186.38L738.41 193.91H749.41V164.81L719.55 164.76Z" fill="black"/>
<path d="M17.27 121.36H0.709961V64.11H51.51V78.28H17.27V87.14H50.13V101.3H17.27V121.36ZM1.70996 120.36H16.27V100.3H49.13V88.14H16.27V77.28H50.51V65.11H1.70996V120.36Z" fill="black"/>
<path d="M75.81 121.36H59.25V64.11H75.81V121.36ZM60.25 120.36H74.81V65.11H60.25V120.36Z" fill="black"/>
<path d="M137.65 121.36H84.25L88.6 92.74L84.25 64.11H137.25V77.71H102.1L103.54 86.58H135.1V98.9H103.54L102.1 107.76H137.65V121.36ZM85.42 120.36H136.65V108.76H100.92L102.69 97.9H134.1V87.58H102.69L100.92 76.71H136.27V65.11H85.42L89.62 92.74V92.81L85.42 120.36Z" fill="black"/>
<path d="M204.61 121.36H185.31L170.22 101.11H162.85V121.36H146.28V64.1099H180.2C184.135 64.0377 188.039 64.8225 191.64 66.4099C194.798 67.8202 197.484 70.1075 199.38 72.9999C201.246 75.9012 202.21 79.2907 202.15 82.7399C202.212 86.1611 201.247 89.5223 199.38 92.3899C197.462 95.2361 194.779 97.4825 191.64 98.8699C190.554 99.3698 189.43 99.7844 188.28 100.11L204.61 121.36ZM185.81 120.36H202.58L186.58 99.4699L187.32 99.2799C188.663 98.9443 189.972 98.4857 191.23 97.9099C194.198 96.5966 196.738 94.4761 198.56 91.7899C200.311 89.0822 201.217 85.9142 201.16 82.6899C201.215 79.4346 200.311 76.235 198.56 73.4899C196.75 70.7812 194.208 68.6418 191.23 67.3199C187.766 65.7961 184.013 65.042 180.23 65.1099H147.28V120.36H161.85V100.11H170.72L185.81 120.36ZM178.06 89.7099H161.85V75.7099H178.06C179.579 75.678 181.09 75.9536 182.5 76.5199C183.693 77.0179 184.709 77.8605 185.42 78.9399C186.082 80.0917 186.43 81.3967 186.43 82.7249C186.43 84.0531 186.082 85.3581 185.42 86.5099C184.711 87.6036 183.686 88.4549 182.48 88.9499C181.074 89.5011 179.57 89.7597 178.06 89.7099ZM162.85 88.7099H178.06C179.428 88.7407 180.788 88.4958 182.06 87.9899C183.084 87.578 183.954 86.8582 184.55 85.9299C185.146 84.9565 185.444 83.8305 185.41 82.6899C185.444 81.5444 185.149 80.4131 184.56 79.4299C183.947 78.5344 183.085 77.8389 182.08 77.4299C180.809 76.9206 179.449 76.6723 178.08 76.6999H162.85V88.7099Z" fill="black"/>
<path d="M241.66 122.6C235.568 122.707 229.531 121.435 224 118.88C219.074 116.597 214.908 112.945 212 108.36C209.128 103.663 207.657 98.2442 207.76 92.7399C207.657 87.2357 209.128 81.8165 212 77.1199C214.908 72.5347 219.074 68.8828 224 66.5999C229.579 64.1486 235.606 62.8828 241.7 62.8828C247.794 62.8828 253.821 64.1486 259.4 66.5999C264.321 68.8914 268.484 72.5414 271.4 77.1199C274.283 81.8128 275.761 87.2332 275.66 92.7399C275.761 98.2466 274.283 103.667 271.4 108.36C268.484 112.939 264.321 116.588 259.4 118.88C253.846 121.452 247.779 122.725 241.66 122.6ZM241.66 63.8799C235.701 63.7667 229.793 65.0043 224.38 67.4999C219.639 69.7106 215.631 73.2328 212.83 77.6499C210.065 82.1906 208.65 87.4246 208.75 92.7399C208.65 98.0553 210.065 103.289 212.83 107.83C215.628 112.254 219.637 115.784 224.38 118C229.824 120.388 235.705 121.62 241.65 121.62C247.595 121.62 253.475 120.388 258.92 118C263.655 115.781 267.661 112.26 270.47 107.85C273.246 103.313 274.669 98.0778 274.57 92.7599C274.669 87.4421 273.246 82.2067 270.47 77.6699C267.664 73.252 263.658 69.7245 258.92 67.4999C253.515 65.0033 247.613 63.7656 241.66 63.8799ZM241.66 108.69C238.347 108.763 235.057 108.115 232.02 106.79C229.399 105.617 227.187 103.688 225.67 101.25C224.224 98.6502 223.466 95.7246 223.466 92.7499C223.466 89.7752 224.224 86.8497 225.67 84.2499C227.179 81.8074 229.383 79.8713 232 78.6899C238.163 76.1562 245.077 76.1562 251.24 78.6899C253.865 79.865 256.082 81.7931 257.61 84.2299C259.069 86.8255 259.835 89.7527 259.835 92.7299C259.835 95.7072 259.069 98.6344 257.61 101.23C256.082 103.667 253.865 105.595 251.24 106.77C248.224 108.098 244.955 108.754 241.66 108.69ZM241.66 77.7899C238.492 77.7166 235.345 78.3342 232.44 79.5999C229.997 80.6874 227.935 82.481 226.52 84.7499C225.166 87.1988 224.455 89.9515 224.455 92.7499C224.455 95.5484 225.166 98.301 226.52 100.75C227.935 103.019 229.997 104.812 232.44 105.9C238.336 108.313 244.944 108.313 250.84 105.9C253.287 104.811 255.355 103.018 256.78 100.75C258.147 98.3052 258.865 95.551 258.865 92.7499C258.865 89.9489 258.147 87.1946 256.78 84.7499C255.355 82.482 253.287 80.6893 250.84 79.5999C247.948 78.3359 244.815 77.7182 241.66 77.7899Z" fill="black"/>
<path d="M343 121.36H300.9L305.28 91.9999L300.85 64.1199H341.48C344.596 64.0425 347.693 64.6217 350.57 65.8199C352.982 66.8271 355.035 68.5382 356.46 70.7299C357.835 73.0145 358.529 75.6443 358.46 78.3099C358.478 80.8122 357.873 83.2796 356.7 85.4899C355.376 87.8101 353.434 89.7175 351.09 90.9999L351 91.0599C351.816 91.2961 352.617 91.5799 353.4 91.9099C356.074 92.9775 358.371 94.8152 360 97.1899C361.496 99.5304 362.262 102.263 362.2 105.04C362.249 108.004 361.488 110.926 360 113.49C358.436 116.034 356.149 118.054 353.43 119.29C350.15 120.744 346.587 121.451 343 121.36ZM302.07 120.36H343C346.464 120.451 349.904 119.768 353.07 118.36C355.614 117.21 357.755 115.326 359.22 112.95C360.618 110.54 361.33 107.795 361.28 105.01C361.349 102.432 360.653 99.8924 359.28 97.7099C357.718 95.5028 355.53 93.8137 353 92.8599C351.864 92.3852 350.69 92.0072 349.49 91.7299L348.1 91.3999L349.39 90.7899C349.8 90.5899 350.2 90.3899 350.58 90.1699C352.781 88.9703 354.603 87.1797 355.84 84.9999C356.937 82.9383 357.501 80.635 357.48 78.2999C357.533 75.8365 356.884 73.4089 355.61 71.2999C354.295 69.2735 352.399 67.6912 350.17 66.7599C347.418 65.6224 344.457 65.074 341.48 65.1499H302L306.29 91.9999V92.0699L302.07 120.36ZM338.87 110.49H317.31L319.42 96.8099H337.85C340.109 96.6753 342.344 97.3331 344.17 98.6699C344.862 99.3001 345.418 100.064 345.805 100.916C346.191 101.768 346.401 102.689 346.421 103.625C346.44 104.56 346.27 105.49 345.919 106.357C345.568 107.224 345.045 108.011 344.38 108.67C342.812 109.936 340.834 110.584 338.82 110.49H338.87ZM318.52 109.49H338.87C340.636 109.598 342.38 109.054 343.77 107.96C344.356 107.435 344.815 106.785 345.115 106.058C345.414 105.33 345.546 104.545 345.5 103.76C345.536 102.94 345.382 102.124 345.048 101.374C344.715 100.624 344.213 99.9623 343.58 99.4399C341.933 98.2536 339.925 97.6773 337.9 97.8099H320.28L318.52 109.49ZM335.8 87.1599H319.37L317.37 74.9899H336.05C337.257 74.9649 338.455 75.2038 339.56 75.6899C340.514 76.1165 341.324 76.8114 341.89 77.6899C342.441 78.5919 342.722 79.633 342.7 80.6899C342.723 81.894 342.404 83.08 341.78 84.1099C341.172 85.0765 340.311 85.8582 339.29 86.3699C338.189 86.9084 336.976 87.1791 335.75 87.1599H335.8ZM320.27 86.1599H335.8C336.868 86.1828 337.927 85.9533 338.89 85.4899C339.747 85.0589 340.47 84.4019 340.98 83.5899C341.505 82.7187 341.772 81.7166 341.75 80.6999C341.767 79.8371 341.538 78.9872 341.09 78.2499C340.632 77.522 339.967 76.9475 339.18 76.5999C338.212 76.1686 337.159 75.9601 336.1 75.9899H318.6L320.27 86.1599Z" fill="black"/>
<path d="M421.26 121.36H369.6V64.11H386.16V106.53H421.26V121.36ZM370.6 120.36H420.26V107.53H385.16V65.11H370.6V120.36Z" fill="black"/>
<path d="M453.61 122.6C448.388 122.704 443.214 121.588 438.5 119.34C434.292 117.311 430.747 114.127 428.28 110.16C425.816 106.032 424.558 101.296 424.65 96.49V64.11H441.21V95.74C441.151 97.9616 441.632 100.164 442.61 102.16C443.537 103.923 444.991 105.353 446.77 106.25C448.923 107.195 451.249 107.682 453.6 107.682C455.951 107.682 458.277 107.195 460.43 106.25C462.201 105.367 463.647 103.945 464.56 102.19C465.557 100.189 466.051 97.9751 466 95.74V64.11H482.56V96.49C482.652 101.297 481.402 106.034 478.95 110.17C476.502 114.149 472.961 117.339 468.75 119.36C464.021 121.595 458.839 122.704 453.61 122.6ZM425.61 65.11V96.49C425.518 101.109 426.724 105.662 429.09 109.63C431.458 113.44 434.86 116.499 438.9 118.45C443.512 120.52 448.51 121.59 453.565 121.59C458.62 121.59 463.618 120.52 468.23 118.45C472.274 116.513 475.673 113.451 478.02 109.63C480.382 105.653 481.584 101.094 481.49 96.47V65.11H467V95.74C467.063 98.1358 466.541 100.511 465.48 102.66C464.472 104.6 462.876 106.172 460.92 107.15C458.649 108.233 456.154 108.76 453.64 108.69C451.117 108.764 448.613 108.229 446.34 107.13C444.38 106.146 442.778 104.572 441.76 102.63C440.703 100.49 440.181 98.1258 440.24 95.74V65.11H425.61Z" fill="black"/>
<path d="M575.23 121.36H559.46V80.62L541.8 121.36H525.43L507.81 80.78V121.36H492V64.11H516.87L517 64.42L533.68 104.42L550.4 64.11H575.23V121.36ZM560.46 120.36H574.23V65.11H551.07L533.68 107.05L516.2 65.11H493V120.36H506.81V78.36L507.81 78.16L526.13 120.35H541.13L559.5 78L560.5 78.19L560.46 120.36Z" fill="black"/>
<path d="M602 121.36H585.44V64.11H602V121.36ZM586.43 120.36H601V65.11H586.44L586.43 120.36Z" fill="black"/>
<path d="M675.66 121.36H655.32L628.33 83V121.41H612.22V64.11H633.11L659.58 101.66V64.11H675.66V121.36ZM655.84 120.36H674.66V65.11H660.58V104.81L632.58 65.11H613.22V120.36H627.33V79.79L655.84 120.36Z" fill="black"/>
<path d="M715.77 122.6C710.127 122.675 704.541 121.472 699.43 119.08C694.64 116.829 690.597 113.25 687.78 108.77C684.855 103.955 683.369 98.4026 683.5 92.7699C683.363 87.1123 684.863 81.5355 687.82 76.7099C690.701 72.2141 694.814 68.6421 699.67 66.4199C705.009 64.0128 710.814 62.8142 716.67 62.9099C722.137 62.8158 727.571 63.7837 732.67 65.7599C737 67.4443 740.847 70.1717 743.87 73.6999C746.675 77.0783 748.566 81.1209 749.36 85.4399L749.47 86.0299H732.83L732.72 85.6699C732.224 83.8683 731.221 82.2472 729.83 80.9999C728.229 79.5906 726.343 78.5434 724.3 77.9299C721.826 77.1851 719.253 76.8209 716.67 76.8499C713.603 76.7747 710.559 77.4006 707.77 78.6799C705.381 79.8333 703.403 81.6897 702.1 83.9999C700.694 86.6935 700.006 89.7033 700.1 92.7399C699.997 95.8574 700.743 98.9442 702.26 101.67C703.694 104.081 705.844 105.986 708.41 107.12C711.452 108.412 714.735 109.04 718.04 108.96C721.275 109.017 724.494 108.503 727.55 107.44C729.989 106.592 732.171 105.137 733.89 103.21H719.05V91.2599H749.87V121.36H737.93L737.25 114.49C735.464 116.308 733.418 117.851 731.18 119.07C726.425 121.532 721.122 122.746 715.77 122.6ZM716.63 63.8799C710.935 63.7901 705.291 64.9578 700.1 67.3C695.412 69.4372 691.439 72.8816 688.66 77.2199C685.804 81.8834 684.36 87.2735 684.5 92.7399C684.365 98.1953 685.799 103.575 688.63 108.24C691.342 112.562 695.241 116.012 699.86 118.18C704.838 120.503 710.277 121.672 715.77 121.6C720.951 121.749 726.085 120.579 730.69 118.2C733.165 116.856 735.391 115.097 737.27 113L738.03 112.14L738.83 120.36H748.83V92.2599H720.05V102.21H735.92L735.33 103.01C735.17 103.24 734.99 103.47 734.81 103.69C732.956 105.83 730.573 107.447 727.9 108.38C724.735 109.483 721.401 110.018 718.05 109.96C714.598 110.034 711.171 109.366 708 108C705.248 106.787 702.944 104.746 701.41 102.16C699.801 99.28 699.006 96.017 699.11 92.7199C699.01 89.5121 699.74 86.3328 701.23 83.4899C702.627 80.999 704.756 78.9985 707.33 77.7599C710.255 76.4119 713.45 75.7517 716.67 75.8299C719.358 75.8099 722.032 76.2046 724.6 76.9999C726.784 77.6533 728.8 78.7723 730.51 80.2799C731.93 81.5566 732.988 83.1845 733.58 84.9999H748.27C747.451 81.0678 745.679 77.3969 743.11 74.3099C740.194 70.9031 736.48 68.2714 732.3 66.6499C727.306 64.7188 721.983 63.778 716.63 63.8799Z" fill="black"/>
<g opacity="0.5">
<path d="M17 44.11H1V-12.64H51.3V0.999986H17V10.36H49.86V24.05H17V44.11ZM1.44 43.61H16.5V23.55H49.36V10.89H16.52V0.529985H50.76V-12.14H1.46L1.44 43.61Z" fill="black"/>
<path d="M75.56 44.11H59.5V-12.64H75.56V44.11ZM60 43.61H75.06V-12.14H60V43.61Z" fill="black"/>
<path d="M137.4 44.11H84.54L88.86 15.74L84.54 -12.64H137V0.459986H101.81L103.33 9.82999H134.85V21.65H103.33L101.81 31H137.4V44.11ZM85.1301 43.61H136.9V31.51H101.22L102.9 21.15H134.35V10.33H102.9L101.22 -1.43051e-05H136.52V-12.1H85.1301L89.36 15.78L85.1301 43.61Z" fill="black"/>
<path d="M204.1 44.1099H185.43L185.36 44.0099L170.36 23.8599H162.6V44.1099H146.53V-12.6401H180.2C184.098 -12.7141 187.964 -11.936 191.53 -10.3601C194.639 -8.98279 197.293 -6.74914 199.18 -3.92007C201.011 -1.05332 201.957 2.28901 201.9 5.68993C201.96 9.06137 201.009 12.3735 199.17 15.1999C197.278 18.0083 194.629 20.2237 191.53 21.5899C190.346 22.1361 189.119 22.581 187.86 22.9199L204.1 44.1099ZM185.69 43.6099H203.09L187 22.6199L187.37 22.5299C188.725 22.1847 190.047 21.7195 191.32 21.1399C194.329 19.8019 196.906 17.6514 198.76 14.9299C200.54 12.1811 201.459 8.96396 201.4 5.68993C201.459 2.38774 200.54 -0.85812 198.76 -3.64007C196.926 -6.39466 194.346 -8.5696 191.32 -9.91007C187.82 -11.4539 184.025 -12.215 180.2 -12.1401H147V43.6099H162.1V23.3599H170.6L170.67 23.4599L185.69 43.6099ZM178.06 12.4599H162.06V-1.09007H178.06C179.545 -1.12249 181.022 -0.853756 182.4 -0.300071C183.544 0.171078 184.522 0.97165 185.21 1.99993C185.892 3.0967 186.24 4.36864 186.21 5.65993C186.234 6.94424 185.887 8.2082 185.21 9.29993C184.534 10.3565 183.545 11.1749 182.38 11.6399C181.011 12.2061 179.541 12.4852 178.06 12.4599ZM162.6 11.9999H178.06C179.469 12.0315 180.87 11.7798 182.18 11.2599C183.249 10.8205 184.159 10.0674 184.79 9.09993C185.4 8.08372 185.709 6.91493 185.68 5.72993C185.714 4.53804 185.405 3.36148 184.79 2.33993C184.166 1.36899 183.263 0.609158 182.2 0.159929C180.885 -0.367094 179.477 -0.622225 178.06 -0.590071H162.6V11.9999Z" fill="black"/>
<path d="M241.66 45.3499C235.589 45.4686 229.57 44.2033 224.06 41.6499C219.189 39.3861 215.072 35.7689 212.2 31.2299C209.356 26.5709 207.899 21.1975 208 15.7399C207.899 10.2823 209.356 4.90902 212.2 0.249937C215.072 -4.28907 219.189 -7.9062 224.06 -10.1701C229.603 -12.6101 235.594 -13.8702 241.65 -13.8702C247.707 -13.8702 253.697 -12.6101 259.24 -10.1701C264.104 -7.89486 268.218 -4.28027 271.1 0.249937C273.955 4.90535 275.419 10.2799 275.32 15.7399C275.419 21.2 273.955 26.5745 271.1 31.2299C268.218 35.7601 264.104 39.3747 259.24 41.6499C253.737 44.2036 247.725 45.469 241.66 45.3499ZM241.66 -13.3701C235.662 -13.4878 229.715 -12.2397 224.27 -9.72006C219.487 -7.49099 215.444 -3.9372 212.62 0.519938C209.825 5.09742 208.396 10.3778 208.5 15.7399C208.39 21.1154 209.82 26.4103 212.62 30.9999C215.453 35.4397 219.495 38.9784 224.27 41.1999C229.716 43.7149 235.662 44.9628 241.66 44.8499C247.642 44.9594 253.57 43.7114 259 41.1999C263.783 38.9775 267.834 35.4397 270.68 30.9999C273.484 26.4257 274.921 21.1444 274.82 15.7799C274.93 10.4018 273.493 5.10527 270.68 0.519938C267.843 -3.93714 263.79 -7.49008 259 -9.72006C253.572 -12.2362 247.642 -13.4844 241.66 -13.3701ZM241.66 31.4399C238.381 31.5145 235.125 30.8729 232.12 29.5599C229.544 28.4097 227.371 26.5152 225.88 24.1199C224.39 21.5833 223.639 18.6809 223.71 15.7399C223.639 12.799 224.39 9.89659 225.88 7.35994C227.371 4.9647 229.544 3.07016 232.12 1.91994C238.207 -0.580513 245.033 -0.580513 251.12 1.91994C253.7 3.07201 255.879 4.96567 257.38 7.35994C258.881 9.89287 259.64 12.7966 259.57 15.7399C259.64 18.6833 258.881 21.587 257.38 24.1199C255.879 26.5142 253.7 28.4079 251.12 29.5599C248.141 30.8661 244.912 31.5076 241.66 31.4399ZM241.66 0.539937C238.454 0.468356 235.271 1.0927 232.33 2.36994C229.851 3.48282 227.762 5.31105 226.33 7.61994C224.89 10.0794 224.163 12.8909 224.23 15.7399C224.163 18.589 224.89 21.4005 226.33 23.8599C227.762 26.1688 229.851 27.9971 232.33 29.1099C235.271 30.3872 238.454 31.0115 241.66 30.9399C244.869 31.0168 248.057 30.3923 251 29.1099C253.475 27.9914 255.563 26.1645 257 23.8599C258.455 21.4061 259.19 18.592 259.12 15.7399C259.19 12.8879 258.455 10.0738 257 7.61994C255.563 5.3154 253.475 3.48848 251 2.36994C248.057 1.08759 244.869 0.463059 241.66 0.539937Z" fill="black"/>
<path d="M343 44.11H301.14L305.53 15L301.14 -12.63H341.48C344.565 -12.7047 347.63 -12.1324 350.48 -10.95C352.847 -9.95938 354.86 -8.27999 356.26 -6.13001C357.623 -3.8917 358.317 -1.31005 358.26 1.30999C358.278 3.77036 357.683 6.19646 356.53 8.37C355.225 10.6622 353.311 12.5485 351 13.82L350.36 14.16C351.384 14.4178 352.387 14.7521 353.36 15.16C355.998 16.1936 358.268 17.9901 359.88 20.32C361.331 22.6137 362.069 25.2866 362 28C362.049 30.9194 361.299 33.7966 359.83 36.32C358.295 38.8233 356.045 40.8088 353.37 42.02C350.112 43.4793 346.569 44.1933 343 44.11ZM301.77 43.61H343C346.5 43.7117 349.979 43.0283 353.18 41.61C355.769 40.4422 357.947 38.5223 359.43 36.1C360.856 33.6566 361.582 30.8684 361.53 28.04C361.592 25.4097 360.872 22.8202 359.46 20.6C357.902 18.3419 355.705 16.6008 353.15 15.6C352.001 15.1171 350.814 14.7324 349.6 14.45L348.91 14.29L349.56 13.98C349.971 13.7943 350.371 13.5873 350.76 13.36C353.002 12.139 354.855 10.313 356.11 8.08999C357.225 5.99063 357.798 3.64674 357.78 1.26999C357.845 -1.25698 357.182 -3.74935 355.87 -5.91001C354.527 -7.97557 352.593 -9.58891 350.32 -10.54C347.535 -11.6889 344.542 -12.2441 341.53 -12.17H301.73L306 15L301.77 43.61ZM338.87 33.24H317.6L319.6 20.06H337.82C340.029 19.9195 342.216 20.5602 344 21.87C344.716 22.4622 345.286 23.2113 345.666 24.0593C346.046 24.9074 346.225 25.8315 346.19 26.76C346.234 27.6539 346.077 28.5462 345.73 29.3716C345.384 30.1969 344.858 30.9344 344.19 31.53C342.667 32.7325 340.758 33.3402 338.82 33.24H338.87ZM318.23 32.74H338.87C340.697 32.8437 342.499 32.2785 343.94 31.15C344.548 30.5982 345.026 29.918 345.339 29.1588C345.652 28.3995 345.793 27.5801 345.75 26.76C345.783 25.9054 345.62 25.0547 345.274 24.2729C344.927 23.4911 344.406 22.7991 343.75 22.25C342.058 21.0263 339.994 20.4289 337.91 20.56H320.06L318.23 32.74ZM335.75 9.90999H319.58L317.67 -1.76001H336.05C337.22 -1.78692 338.381 -1.5547 339.45 -1.08001C340.365 -0.667323 341.14 0.00341129 341.68 0.849995C342.2 1.70876 342.466 2.69651 342.45 3.7C342.48 4.86302 342.17 6.00954 341.56 6.99999C340.985 7.93409 340.161 8.6891 339.18 9.17999C338.109 9.68774 336.935 9.93775 335.75 9.90999ZM320 9.40999H335.74C336.847 9.43303 337.944 9.19313 338.94 8.71C339.842 8.26079 340.601 7.56799 341.13 6.71C341.679 5.80708 341.96 4.76659 341.94 3.71C341.953 2.79822 341.711 1.90097 341.24 1.11999C340.756 0.358222 340.061 -0.24635 339.24 -0.620006C338.236 -1.06264 337.147 -1.27778 336.05 -1.25001H318.26L320 9.40999Z" fill="black"/>
<path d="M421 44.11H369.85V-12.64H385.91V29.78H421V44.11ZM370.34 43.61H420.5V30.28H385.4V-12.14H370.35L370.34 43.61Z" fill="black"/>
<path d="M453.61 45.35C448.427 45.4494 443.293 44.3437 438.61 42.12C434.441 40.1041 430.933 36.9402 428.5 33C426.056 28.9126 424.809 24.2213 424.9 19.46V-12.64H441V18.74C440.941 21.0036 441.432 23.2477 442.43 25.28C443.377 27.0881 444.867 28.5536 446.69 29.47C448.879 30.4327 451.244 30.9298 453.635 30.9298C456.026 30.9298 458.391 30.4327 460.58 29.47C462.398 28.5582 463.884 27.0999 464.83 25.3C465.831 23.2542 466.321 20.9966 466.26 18.72V-12.64H482.32V19.49C482.394 24.2424 481.14 28.921 478.7 33C476.284 36.9419 472.78 40.1019 468.61 42.1C463.927 44.3247 458.794 45.437 453.61 45.35ZM425.4 -12.14V19.49C425.307 24.1557 426.527 28.7537 428.92 32.76C431.306 36.6145 434.744 39.7062 438.83 41.67C443.444 43.8594 448.504 44.948 453.61 44.85C458.715 44.9506 463.773 43.8691 468.39 41.69C472.474 39.7319 475.908 36.6386 478.28 32.78C480.657 28.7602 481.868 24.1588 481.78 19.49V-12.14H466.72V18.74C466.782 21.0971 466.271 23.4341 465.23 25.55C464.244 27.4449 462.683 28.9784 460.77 29.93C458.511 30.9325 456.067 31.4504 453.595 31.4504C451.123 31.4504 448.679 30.9325 446.42 29.93C444.506 28.9681 442.942 27.4289 441.95 25.53C440.913 23.4272 440.401 21.104 440.46 18.76V-12.14H425.4Z" fill="black"/>
<path d="M575 44.11H559.71V2.40999L541.63 44.11H525.63L525.57 43.96L507.57 2.57999V44.11H492.25V-12.64H516.7L516.76 -12.48L533.68 28.09L550.57 -12.64H575V44.11ZM560.23 43.61H574.5V-12.14H550.9L533.68 29.39L516.37 -12.14H492.75V43.61H507.06V1.36999L507.54 1.26999L525.92 43.61H541.31L559.73 1.09999L560.21 1.19999L560.23 43.61Z" fill="black"/>
<path d="M601.76 44.11H585.69V-12.64H601.76V44.11ZM586.19 43.61H601.26V-12.14H586.19V43.61Z" fill="black"/>
<path d="M675.41 44.11H655.41L655.34 44.01L628.08 5.15998V44.16H612.47V-12.64H633L633.07 -12.53L659.84 25.47V-12.64H675.42L675.41 44.11ZM655.71 43.61H674.91V-12.14H660.33V27L632.73 -12.16H613V43.61H627.61V3.60999L655.71 43.61Z" fill="black"/>
<path d="M715.77 45.3499C710.163 45.4241 704.611 44.2311 699.53 41.86C694.789 39.6253 690.787 36.0786 688 31.6399C685.097 26.8536 683.626 21.3361 683.76 15.74C683.604 10.135 685.077 4.60513 688 -0.180048C690.852 -4.64104 694.932 -8.18305 699.75 -10.38C705.041 -12.77 710.795 -13.9618 716.6 -13.87C722.066 -13.9759 727.501 -13.0146 732.6 -11.04C736.893 -9.37336 740.706 -6.66956 743.7 -3.17005C746.483 0.174592 748.356 4.18014 749.14 8.45995V8.74995H733V8.56995C732.472 6.7307 731.431 5.07971 730 3.80995C728.37 2.3784 726.449 1.31734 724.37 0.699951C721.875 -0.0614271 719.278 -0.432477 716.67 -0.400048C713.568 -0.479339 710.489 0.153538 707.67 1.44995C705.228 2.61873 703.209 4.51582 701.89 6.87995C700.471 9.61158 699.782 12.6636 699.89 15.74C699.787 18.9024 700.544 22.0335 702.08 24.7999C703.541 27.2515 705.729 29.1877 708.34 30.34C711.416 31.6509 714.737 32.2885 718.08 32.2099C721.343 32.2707 724.59 31.7493 727.67 30.67C730.223 29.7927 732.497 28.2536 734.26 26.2099C734.332 26.1311 734.399 26.0476 734.46 25.9599H719.3V14.51H749.62V44.11H738.15L737.45 36.9199C735.593 38.8899 733.437 40.5538 731.06 41.8499C726.342 44.2921 721.081 45.4964 715.77 45.3499ZM716.63 -13.37C710.901 -13.4588 705.223 -12.2843 700 -9.93005C695.271 -7.77657 691.264 -4.30435 688.46 0.069952C685.582 4.77333 684.124 10.2077 684.26 15.72C684.128 21.2214 685.575 26.6456 688.43 31.35C691.173 35.6974 695.105 39.1677 699.76 41.3499C704.768 43.6817 710.236 44.8574 715.76 44.79C720.97 44.9293 726.131 43.7458 730.76 41.3499C733.26 39.9965 735.509 38.2241 737.41 36.11L737.78 35.6699L738.56 43.5499H749.07V15H719.8V25.4599H735.42L735.13 25.86C734.97 26.09 734.8 26.31 734.62 26.53C732.796 28.6354 730.451 30.2251 727.82 31.1399C724.682 32.2392 721.374 32.7708 718.05 32.7099C714.638 32.7918 711.248 32.1405 708.11 30.7999C705.403 29.6028 703.134 27.5934 701.62 25.0499C700.039 22.2078 699.258 18.9905 699.36 15.74C699.261 12.574 699.981 9.43611 701.45 6.62995C702.823 4.18084 704.918 2.21483 707.45 0.999951C710.342 -0.327445 713.499 -0.977279 716.68 -0.900048C719.338 -0.930274 721.986 -0.552549 724.53 0.219952C726.677 0.859337 728.66 1.95806 730.34 3.43995C731.757 4.74184 732.794 6.40441 733.34 8.24995H748.53C747.727 4.16808 745.916 0.352077 743.26 -2.85005C740.314 -6.28443 736.567 -8.93945 732.35 -10.58C727.339 -12.5163 722.001 -13.4637 716.63 -13.37Z" fill="black"/>
</g>
</svg>
