<svg width="399" height="196" viewBox="0 0 399 196" fill="none" xmlns="http://www.w3.org/2000/svg">
<path d="M61.0999 138.11H44.64L16.9299 173.5V138.11H1.43994V194.36H15.4999L32.1099 173.87L44.1899 194.36H61.8499L41.9299 161.76L61.0999 138.11Z" fill="black"/>
<path d="M108 169.24C108.067 171.556 107.566 173.853 106.54 175.93C105.583 177.784 104.059 179.283 102.19 180.21C99.966 181.193 97.5614 181.7 95.13 181.7C92.6987 181.7 90.294 181.193 88.07 180.21C86.2006 179.272 84.6722 177.772 83.7001 175.92C82.6831 173.85 82.1822 171.565 82.24 169.26V138.11H66.69V170C66.5915 174.716 67.8255 179.364 70.25 183.41C72.6572 187.302 76.1268 190.425 80.25 192.41C84.9315 194.516 90.0066 195.605 95.1401 195.605C100.274 195.605 105.349 194.516 110.03 192.41C114.166 190.443 117.64 187.316 120.03 183.41C122.441 179.359 123.67 174.714 123.58 170V138.11H108V169.24Z" fill="black"/>
<path d="M192.95 138.11H173.83L161.35 154.44L148.7 138.11H129.24L151.58 165.13L127.63 194.36H146.49L160.99 175.7L175.4 194.36H194.53L170.78 165.14L192.95 138.11Z" fill="black"/>
<path d="M247.06 176.74L219.84 138.11H199.7V194.36H214.81V154.87L242.56 194.36H262.14V138.11H247.06V176.74Z" fill="black"/>
<path d="M336.8 138.11H319.59L302.73 159.64L285.84 138.11H268.63L294.99 171.75V194.36H310.55V171.55L336.8 138.11Z" fill="black"/>
<path d="M381.2 194.36H397.78L372.2 138.11H351.76L326.15 194.36H342.76L347.45 183.53H376.51L381.2 194.36ZM352.85 171L362 150L371.1 171H352.85Z" fill="black"/>
<path d="M62.7399 118.86H43.8999L32.0499 98.7501L15.7399 118.86H0.939941V61.6101H17.4299V96.0501L44.4299 61.6101H62.1799L42.5699 85.8101L62.7399 118.86ZM44.4699 117.86H60.9999L41.3199 85.7301L41.5399 85.4501L60.0499 62.6101H44.8799L16.4299 99.0001V62.6101H1.93994V117.86H15.2599L32.1799 97.0001L44.4699 117.86Z" fill="black"/>
<path d="M95.15 120.1C89.9148 120.21 84.7265 119.094 80 116.84C75.7944 114.811 72.2531 111.627 69.79 107.66C67.3341 103.534 66.0867 98.8007 66.19 94.0001V61.6101H82.75V93.2401C82.6896 95.463 83.1737 97.667 84.16 99.6601C85.083 101.423 86.534 102.853 88.31 103.75C90.4631 104.695 92.7888 105.182 95.14 105.182C97.4912 105.182 99.8169 104.695 101.97 103.75C103.746 102.87 105.196 101.448 106.11 99.6901C107.09 97.6809 107.57 95.4647 107.51 93.2301V61.6101H124.08V94.0001C124.169 98.808 122.916 103.546 120.46 107.68C118.015 111.661 114.473 114.852 110.26 116.87C105.54 119.098 100.368 120.204 95.15 120.1ZM67.15 62.6101V94.0001C67.0564 98.6209 68.2659 103.175 70.64 107.14C73.003 110.955 76.4065 114.015 80.45 115.96C85.0621 118.03 90.0599 119.1 95.115 119.1C100.17 119.1 105.168 118.03 109.78 115.96C113.82 114.018 117.218 110.956 119.57 107.14C121.938 103.171 123.153 98.6211 123.08 94.0001V62.6101H108.51V93.2401C108.573 95.6359 108.051 98.011 106.99 100.16C105.985 102.103 104.388 103.675 102.43 104.65C100.135 105.672 97.6518 106.2 95.14 106.2C92.6283 106.2 90.1445 105.672 87.85 104.65C85.8901 103.666 84.2882 102.092 83.27 100.15C82.213 98.0103 81.6914 95.6459 81.75 93.2601V62.6101H67.15Z" fill="black"/>
<path d="M195.58 118.86H175.16L161 100.52L146.74 118.86H126.57L150.94 89.1401L128.18 61.6101H149L161.4 77.6101L173.63 61.6101H194L171.43 89.1401L195.58 118.86ZM175.65 117.86H193.48L170.14 89.1401L191.89 62.6101H174.07L161.35 79.2601L148.46 62.6101H130.3L152.23 89.1301L128.68 117.86H146.24L160.99 98.8601L175.65 117.86Z" fill="black"/>
<path d="M262.64 118.86H242.3L215.3 80.4501V118.86H199.2V61.6101H220.1L246.56 99.1601V61.6101H262.64V118.86ZM242.82 117.86H261.64V62.6101H247.56V102.31L219.56 62.6101H200.2V117.86H214.31V77.2901L242.82 117.86Z" fill="black"/>
<path d="M311.05 118.86H294.49V95.9201L267.6 61.6101H286.08L302.73 82.8301L319.34 61.6101H337.83L311.05 95.7301V118.86ZM295.49 117.86H310.05V95.3801L335.77 62.6101H319.83L302.73 84.4501L285.59 62.6101H269.65L295.49 95.6101V117.86Z" fill="black"/>
<path d="M398.55 118.86H380.87L376.18 108H347.78L343.09 118.83H325.37L351.44 61.5801H372.52L372.65 61.8801L398.55 118.86ZM381.55 117.86H397L371.88 62.6101H352.08L326.93 117.86H342.43L347.12 107H376.83L381.55 117.86ZM371.88 95.5401H352.09L362 72.6901L371.88 95.5401ZM353.63 94.5401H370.35L362 75.2101L353.63 94.5401Z" fill="black"/>
<path d="M62.2999 44.6101H44.0499L43.9699 44.4901L32.0799 24.3101L15.6199 44.6101H1.18994V-12.1399H17.1899V22.7701L44.5299 -12.1399H61.64L42.2399 11.7901L62.2999 44.6101ZM44.2999 44.1101H61.3799L41.6199 11.7501L41.7299 11.6101L60.5799 -11.6399H44.7599L16.6799 24.2201V-11.6399H1.67993V44.1101H15.3699L32.1299 23.4401L32.3199 23.7501L44.2999 44.1101Z" fill="black"/>
<path d="M95.1498 45.8501C89.9673 45.9484 84.8326 44.8427 80.1498 42.6201C75.9717 40.6158 72.4509 37.4628 69.9998 33.5301C67.572 29.4414 66.3387 24.7542 66.4398 20.0001V-12.1399H82.4998V19.2401C82.4406 21.5036 82.9313 23.7478 83.9298 25.7801C84.875 27.6 86.3689 29.0764 88.1998 30.0001C90.3886 30.9628 92.7537 31.4599 95.1448 31.4599C97.536 31.4599 99.901 30.9628 102.09 30.0001C103.905 29.0877 105.387 27.6293 106.33 25.8301C107.331 23.7843 107.821 21.5267 107.76 19.2501V-12.1399H123.83V20.0001C123.918 24.7616 122.678 29.4535 120.25 33.5501C117.825 37.4891 114.319 40.6479 110.15 42.6501C105.463 44.8575 100.33 45.9527 95.1498 45.8501ZM66.9398 -11.6399V20.0001C66.8459 24.6659 68.0657 29.2642 70.4598 33.2701C72.8481 37.1225 76.286 40.2134 80.3698 42.1801C84.984 44.3695 90.0435 45.4581 95.1498 45.3601C100.254 45.4607 105.313 44.3792 109.93 42.2001C114.014 40.242 117.448 37.1487 119.82 33.2901C122.204 29.2732 123.42 24.6704 123.33 20.0001V-11.6399H108.26V19.2401C108.322 21.5972 107.811 23.9342 106.77 26.0501C105.785 27.9422 104.227 29.475 102.32 30.4301C100.082 31.4919 97.6255 32.0093 95.1498 31.9401C92.6785 32.0083 90.2268 31.4837 87.9998 30.4101C86.0826 29.4488 84.5155 27.9097 83.5198 26.0101C82.472 23.9099 81.9503 21.5866 81.9998 19.2401V-11.6399H66.9398Z" fill="black"/>
<path d="M195.05 44.6101H175.28L161 26.1101L146.62 44.6101H127.1L151.26 15.1401L128.71 -12.1399H148.82L148.9 -12.0399L161.35 4.00008L173.7 -12.1399H193.48L171.11 15.1401L195.05 44.6101ZM175.52 44.1101H194L170.46 15.1101L170.59 14.9501L192.42 -11.6699H174L161.35 4.85008L161.15 4.60008L148.58 -11.6399H129.77L151.91 15.1301L151.78 15.2901L128.15 44.1101H146.37L161 25.2901L175.52 44.1101Z" fill="black"/>
<path d="M262.39 44.6101H242.39L242.32 44.5101L215.06 5.66008V44.6601H199.45V-12.1399H220V-11.9999L246.77 26.0001V-12.1399H262.35L262.39 44.6101ZM242.69 44.1101H261.89V-11.6399H247.31V27.5201L219.71 -11.6399H200V44.1101H214.61V4.11008L242.69 44.1101Z" fill="black"/>
<path d="M310.8 44.6101H294.74V21.8301L268.11 -12.1699H286L286.07 -12.0699L302.77 9.20008L319.51 -12.1699H337.35L310.8 21.6401V44.6101ZM295.24 44.1101H310.3V21.4701L310.35 21.4001L336.29 -11.5999H319.71L302.73 10.0001L302.53 9.75008L285.72 -11.6399H269.14L295.24 21.6601V44.1101Z" fill="black"/>
<path d="M398.16 44.6101H381L376.31 33.7801H347.61L342.93 44.6101H325.76L351.6 -12.1399H372.36L372.43 -11.9899L398.16 44.6101ZM381.36 44.1101H397.36L372 -11.6399H351.92L326.54 44.1101H342.6L347.28 33.2801H376.67L381.36 44.1101ZM371.48 21.2901H352.48L362 -0.679923L371.48 21.2901ZM353.23 20.7901H370.72L362 0.580077L353.23 20.7901Z" fill="black"/>
</svg>
