<svg width="526" height="80" viewBox="0 0 526 80" fill="none" xmlns="http://www.w3.org/2000/svg">
<path d="M0.750217 2.12994C0.610217 1.97994 0.560218 1.87994 0.610218 1.80994C0.645811 1.77252 0.689685 1.74399 0.738315 1.72662C0.786946 1.70926 0.838976 1.70353 0.890217 1.70993C1.0432 1.69532 1.19723 1.69532 1.35022 1.70993C1.46199 1.72393 1.57239 1.74735 1.68022 1.77994C2.73946 1.95279 3.80799 2.06297 4.88021 2.10992C5.99021 2.15992 7.08021 2.18994 8.13021 2.18994H9.00022C10.7402 2.10994 12.5402 1.93994 14.3902 1.68994C14.8402 1.62994 15.2802 1.56994 15.7002 1.52994C15.8875 1.4403 16.0926 1.39377 16.3002 1.39377C16.5079 1.39377 16.7129 1.4403 16.9002 1.52994C17.2241 1.66601 17.5167 1.86677 17.7602 2.11993C18.0383 2.36513 18.2958 2.63271 18.5302 2.91995C18.5302 3.18995 18.2402 3.49994 17.6902 3.83994C17.1153 4.19671 16.5095 4.50126 15.8802 4.74994C15.4013 4.96075 14.8971 5.10865 14.3802 5.18994C13.6002 5.18994 12.8102 5.21994 12.0102 5.27994C12.0102 5.36994 12.0102 5.46993 12.0102 5.57993C12.0183 5.65972 12.0183 5.74015 12.0102 5.81995C11.8257 6.90786 11.7155 8.00704 11.6802 9.10992C11.6202 10.3599 11.5902 11.5999 11.5802 12.8399C11.5802 13.6199 11.5802 14.3399 11.5302 14.9999C11.5302 17.6199 11.6202 20.2866 11.8002 22.9999C11.8414 23.0383 11.8743 23.0847 11.8967 23.1364C11.9192 23.188 11.9308 23.2436 11.9308 23.2999C11.9308 23.3562 11.9192 23.4119 11.8967 23.4635C11.8743 23.5151 11.8414 23.5616 11.8002 23.5999C11.6486 23.6321 11.4919 23.6321 11.3402 23.5999L10.8102 23.5199C10.6346 23.4694 10.453 23.4425 10.2702 23.4399C9.9134 23.3151 9.58715 23.116 9.31305 22.8557C9.03895 22.5954 8.82325 22.2798 8.68022 21.9299C8.39558 21.2833 8.2426 20.5864 8.23022 19.8799C8.31022 18.5099 8.32022 17.12 8.23022 15.7C8.23022 15.49 8.23022 15.2799 8.23022 15.0699C8.23022 14.8599 8.23022 14.7299 8.23022 14.5599C8.13022 13.3199 8.04022 11.9599 7.97022 10.4899C7.89603 9.23019 7.91609 7.96668 8.03022 6.70993C8.18021 6.22846 8.51452 5.82586 8.96022 5.58994C7.5306 5.80715 6.07968 5.84745 4.64022 5.70993C3.80265 5.42003 3.05721 4.91271 2.48022 4.23993C1.84065 3.59061 1.26158 2.88437 0.750217 2.12994Z" fill="black"/>
<path d="M27.89 5.15995H27.35C26.8 5.15995 26.21 5.15995 25.57 5.15995C24.9596 5.14053 24.3529 5.05673 23.76 4.90995C23.2439 4.73421 22.7656 4.46279 22.35 4.10993C22.016 3.86612 21.7282 3.56476 21.5 3.21995C21.7667 2.90814 22.112 2.67336 22.5 2.53995C22.8261 2.42495 23.1604 2.33468 23.5 2.26994H23.66C24.8391 1.94105 26.0487 1.73332 27.27 1.64994C28.4 1.57994 29.66 1.56994 31.06 1.64994C32.7261 1.70692 34.3345 2.27474 35.6671 3.27644C36.9997 4.27813 37.9922 5.66529 38.51 7.24995C38.9776 8.67238 38.8626 10.2222 38.19 11.5599C37.7397 12.3364 37.1404 13.0162 36.4265 13.5602C35.7125 14.1042 34.8981 14.5018 34.03 14.73C34.41 15.37 34.78 15.97 35.13 16.51L35.66 17.38C36.6 18.7133 37.6533 20.0833 38.82 21.4899L39.13 21.88C39.2541 21.9468 39.3588 22.0445 39.4341 22.1636C39.5094 22.2827 39.5528 22.4192 39.56 22.5599C39.55 22.7065 39.5017 22.8479 39.42 22.9699C39.3225 23.1295 39.2157 23.2831 39.1 23.4299C38.98 23.5699 38.89 23.6899 38.81 23.7699C38.4349 23.8495 38.0436 23.7891 37.71 23.6C37.223 23.3869 36.7603 23.122 36.33 22.8099C35.9565 22.5539 35.6201 22.2477 35.33 21.8999C34.7692 20.9829 34.1478 20.1043 33.47 19.2699L33.11 18.8099C32.69 18.3199 32.24 17.81 31.78 17.17C31.358 16.6334 30.9833 16.0612 30.66 15.4599C30.2105 15.5316 29.7545 15.5551 29.3 15.5299C28.8217 15.5185 28.3472 15.4411 27.89 15.2999C27.83 16.2999 27.81 17.2999 27.83 18.4599C27.8456 19.4899 27.919 20.5182 28.05 21.54C28.1323 21.6904 28.1769 21.8585 28.18 22.0299C28.1799 22.1925 28.1563 22.3542 28.11 22.51C28.023 22.6291 27.9145 22.7308 27.79 22.8099C27.6208 22.9315 27.4438 23.0418 27.26 23.14C27.1184 23.2259 26.9714 23.3027 26.82 23.3699C26.45 23.2799 26.09 22.9299 25.74 22.3099C25.3733 21.657 25.0782 20.9663 24.86 20.2499C24.6653 19.7125 24.5474 19.1503 24.51 18.5799C24.59 17.5799 24.64 16.5799 24.67 15.5799C24.67 15.2299 24.67 14.8699 24.67 14.5199C24.67 13.4499 24.67 12.2599 24.67 10.9599C24.6924 9.81031 24.7994 8.66389 24.99 7.52995C25.2338 6.964 25.6368 6.48111 26.15 6.13996C26.6864 5.74128 27.271 5.41199 27.89 5.15995ZM28.14 12.7799L29.14 12.5299C29.89 12.3499 30.71 12.1299 31.59 11.8599C32.421 11.6155 33.2225 11.2801 33.98 10.8599C34.6181 10.529 35.1308 9.99886 35.44 9.34995C35.566 9.04907 35.6308 8.72613 35.6308 8.39994C35.6308 8.07375 35.566 7.75084 35.44 7.44996C35.1372 6.76436 34.6388 6.18329 34.0074 5.77952C33.3759 5.37574 32.6394 5.16718 31.89 5.17994H30.48H29.09C29.1052 5.3496 29.1052 5.52029 29.09 5.68995C29.09 5.86995 29.09 5.99995 29.09 6.09995V6.19996C28.83 7.87996 28.6 9.59995 28.41 11.35L28.14 12.7799Z" fill="black"/>
<path d="M51.87 1.05992C51.98 0.939924 52.1001 0.949924 52.2401 1.05992C52.399 1.22693 52.5336 1.41543 52.6401 1.61992C52.7696 1.85537 52.8832 2.09926 52.98 2.34993C53.08 2.59993 53.1501 2.77993 53.1901 2.90993C54.2159 6.41636 54.9682 9.9971 55.4401 13.6199C55.4401 13.7299 55.4901 13.8599 55.5201 13.9799C55.6501 14.7099 55.8101 15.4899 55.9901 16.3399L56.34 16.4299C56.5668 16.5325 56.7733 16.6747 56.9501 16.8499C57.1608 17.0365 57.3518 17.2443 57.5201 17.4699C57.6518 17.6278 57.7721 17.7949 57.8801 17.9699C57.8801 18.0499 57.8801 18.1599 57.7001 18.2799C57.5372 18.4114 57.3632 18.5285 57.18 18.6299L56.6701 18.8799H56.59C56.8356 19.9599 57.153 21.0222 57.54 22.0599C57.6453 22.1851 57.7244 22.3302 57.7725 22.4865C57.8206 22.6428 57.8368 22.8072 57.8201 22.9699C57.7701 23.0741 57.7024 23.1688 57.62 23.2499L57.2401 23.6299L56.8801 23.9299L56.79 24.0099C56.5466 24.0231 56.3038 23.975 56.0837 23.8702C55.8636 23.7654 55.6733 23.6072 55.5301 23.4099C55.0497 22.8843 54.6335 22.3036 54.29 21.6799C53.9574 21.1219 53.673 20.5364 53.4401 19.9299H53.3801C52.35 19.8745 51.3172 19.8946 50.29 19.9899L48.65 20.2599C47.93 20.3599 47.2301 20.4499 46.5201 20.5099C45.9954 20.575 45.4647 20.575 44.9401 20.5099L44.7401 20.8599C44.6401 21.0299 44.54 21.1999 44.43 21.3699C44.2791 21.9458 43.9236 22.447 43.43 22.7799C43.1082 22.9812 42.7394 23.0949 42.3601 23.1099C41.9627 23.1529 41.5611 23.1327 41.1701 23.0499C41.0597 22.4926 41.1011 21.9158 41.29 21.3799C41.48 20.4899 41.7301 19.5599 42.0201 18.6199C41.5424 18.16 41.0884 17.6761 40.6601 17.1699C40.4801 17.0399 40.4201 16.9399 40.4701 16.8699C40.5119 16.8211 40.5642 16.7823 40.623 16.7563C40.6819 16.7303 40.7458 16.7179 40.8101 16.7199C40.9964 16.7047 41.1837 16.7047 41.37 16.7199H41.8001H41.8601C42.1101 16.7199 42.38 16.7199 42.65 16.7199C42.8827 16.1229 43.1672 15.5474 43.5001 14.9999C43.8987 14.3364 44.2335 13.6366 44.5001 12.9099C44.7201 12.2599 45.0301 11.2699 45.4401 9.90993C45.8501 8.54993 46.2001 7.43993 46.5801 6.24993C46.8318 5.40909 47.1255 4.58137 47.4601 3.76992C47.7591 3.17343 48.2025 2.66123 48.7501 2.27992C49.2 2.0025 49.6886 1.79356 50.2001 1.65993C50.7752 1.51581 51.3347 1.31481 51.87 1.05992ZM46.7401 16.7799C47.4701 16.7799 48.18 16.7799 48.9 16.7799C49.81 16.7799 50.7601 16.6899 51.7201 16.6099L52.7801 16.5299C52.7301 16.2999 52.68 16.0699 52.62 15.8399C52.52 15.3666 52.4201 14.9066 52.3201 14.4599C52.1801 13.9066 52.03 13.3366 51.87 12.7499C51.3767 10.9499 50.9267 9.16327 50.5201 7.38994C49.7601 9.56994 48.9201 11.6966 48.0001 13.7699L47.5501 14.8699L47.1701 15.8099C47.0001 16.1499 46.8701 16.4599 46.7401 16.7799Z" fill="black"/>
<path d="M65.3003 1.77995C65.4903 1.70995 65.6103 1.70995 65.6803 1.77995C65.7129 1.81814 65.737 1.86292 65.7508 1.91123C65.7646 1.95955 65.7678 2.01027 65.7603 2.05995C65.7507 2.17816 65.7306 2.2953 65.7003 2.40995C65.4688 3.51608 65.335 4.64039 65.3003 5.76994C65.2303 7.16994 65.1903 8.52995 65.1703 9.84995C65.1703 10.6 65.1703 11.2499 65.1703 11.7999C65.1703 13.5599 65.1703 15.34 65.1703 17.13C65.1703 18.66 65.2303 20.18 65.2203 21.7C65.2831 21.8925 65.3049 22.0961 65.2842 22.2976C65.2636 22.4992 65.2009 22.6941 65.1003 22.8699C64.9106 23.0684 64.6541 23.1895 64.3803 23.2099C64.0887 23.2547 63.7919 23.2547 63.5003 23.2099C63.0067 22.8682 62.6519 22.3609 62.5003 21.7799C62.2403 21.0385 62.0462 20.2755 61.9203 19.4999C61.8186 18.932 61.7618 18.3569 61.7503 17.7799C61.8603 15.8999 61.8903 14.0099 61.8503 12.1099C61.8503 11.6999 61.7903 11.2399 61.7603 10.7499C61.6803 9.49995 61.6303 8.17994 61.5903 6.79994C61.542 5.63903 61.5754 4.47617 61.6903 3.31996C61.7711 3.06 61.9105 2.82203 62.0978 2.6244C62.285 2.42677 62.5151 2.27472 62.7703 2.17994C63.3012 2.00602 63.8525 1.90181 64.4103 1.86994L65.3003 1.77995Z" fill="black"/>
<path d="M68.7001 2.12994C68.5601 1.97994 68.5201 1.87994 68.5601 1.80994C68.5981 1.77294 68.6438 1.7448 68.6939 1.72751C68.7441 1.71022 68.7974 1.70421 68.8501 1.70993C68.9998 1.69535 69.1505 1.69535 69.3001 1.70993C69.4152 1.72402 69.5289 1.74744 69.6401 1.77994C70.6992 1.95382 71.7678 2.064 72.8401 2.10992C73.9501 2.15992 75.0301 2.18994 76.0801 2.18994H77.0001C78.7401 2.10994 80.5301 1.93994 82.3901 1.68994C82.8401 1.62994 83.2701 1.56994 83.6901 1.52994C83.8774 1.4403 84.0824 1.39377 84.2901 1.39377C84.4978 1.39377 84.7028 1.4403 84.8901 1.52994C85.2185 1.66299 85.515 1.86407 85.7601 2.11993C86.0328 2.36753 86.2868 2.63494 86.5201 2.91995C86.5201 3.18995 86.2301 3.49994 85.6801 3.83994C85.1097 4.19865 84.5071 4.50331 83.8801 4.74994C83.3983 4.96223 82.8906 5.11017 82.3701 5.18994C81.5901 5.18994 80.8001 5.21994 80.0001 5.27994C80.0001 5.36994 80.0001 5.46993 80.0001 5.57993C79.9924 5.66153 79.9756 5.74204 79.9501 5.81995C79.7755 6.90917 79.6653 8.00772 79.6201 9.10992C79.5701 10.3599 79.5401 11.5999 79.5301 12.8399C79.5301 13.6199 79.5101 14.3399 79.4701 14.9999C79.4701 17.6199 79.5634 20.2866 79.7501 22.9999C79.8283 23.0802 79.8721 23.1879 79.8721 23.2999C79.8721 23.412 79.8283 23.5197 79.7501 23.5999C79.5984 23.6315 79.4418 23.6315 79.2901 23.5999L78.7501 23.5199C78.5746 23.4687 78.3929 23.4418 78.2101 23.4399C77.8548 23.3124 77.53 23.1122 77.2562 22.8523C76.9825 22.5923 76.7658 22.2782 76.6201 21.9299C76.3355 21.2833 76.1825 20.5864 76.1701 19.8799C76.2501 18.5099 76.2701 17.12 76.1701 15.7C76.1701 15.49 76.1701 15.2799 76.1701 15.0699C76.1701 14.8599 76.1701 14.7299 76.1701 14.5599C76.0701 13.3199 75.9901 11.9599 75.9101 10.4899C75.8336 9.23006 75.857 7.96611 75.9801 6.70993C76.0512 6.47142 76.1692 6.24951 76.3272 6.05719C76.4852 5.86487 76.6799 5.706 76.9001 5.58994C75.4705 5.80735 74.0196 5.84765 72.5801 5.70993C71.7445 5.41622 70.9999 4.90952 70.4201 4.23993C69.784 3.59018 69.2083 2.88396 68.7001 2.12994Z" fill="black"/>
<path d="M101.91 6.15993C101.91 6.29993 101.91 6.37993 101.79 6.37993C101.674 6.37922 101.562 6.34056 101.47 6.26992L101.1 6.03994C101.031 5.97684 100.953 5.92305 100.87 5.87993C100.054 5.41793 99.1585 5.11269 98.2301 4.97994C97.3725 4.83926 96.4977 4.83926 95.6401 4.97994C94.8301 5.15994 94.4001 5.41992 94.3701 5.76992C94.3717 5.99023 94.4218 6.20751 94.5168 6.40627C94.6119 6.60503 94.7496 6.78041 94.9201 6.91994C95.3637 7.37539 95.8381 7.79971 96.3401 8.18993C97.5001 9.13993 98.6201 10.1399 99.6801 11.1899C100.745 12.2456 101.694 13.4122 102.51 14.6699C103.092 15.5626 103.562 16.523 103.91 17.5299C104.251 18.4927 104.32 19.5305 104.11 20.5299C103.987 21.0527 103.759 21.5452 103.441 21.9781C103.124 22.4111 102.722 22.7756 102.26 23.0499C101.248 23.6319 100.107 23.9516 98.9401 23.9799C97.6316 24.0234 96.3246 23.8545 95.0701 23.4799C93.8034 23.1136 92.6092 22.5317 91.5401 21.7599C91.0941 21.4427 90.676 21.088 90.2901 20.6999C89.9094 20.3198 89.5739 19.897 89.2901 19.4399C88.8044 18.5972 88.575 17.6311 88.6301 16.6599C88.7006 16.0231 88.9822 15.4282 89.4301 14.9699C89.8561 14.4947 90.3867 14.125 90.9801 13.8899C91.0006 14.0124 91.0006 14.1375 90.9801 14.2599C90.9801 14.4699 90.9801 14.7299 90.9801 15.0499C90.9801 15.3699 90.9801 15.7299 90.9301 16.0499C90.9121 16.2829 90.9121 16.5169 90.9301 16.7499C91.0292 17.3576 91.2959 17.9255 91.7001 18.3899C92.4569 19.2225 93.435 19.8225 94.5201 20.1199C95.5616 20.4076 96.6311 20.582 97.7101 20.6399C98.2743 20.6984 98.844 20.6714 99.4001 20.5599C99.9038 20.478 100.363 20.2234 100.7 19.8399C100.862 19.6103 100.968 19.3465 101.012 19.0691C101.055 18.7916 101.034 18.5079 100.95 18.2399C100.623 17.2376 100.096 16.3122 99.4001 15.5199C98.6224 14.5821 97.7696 13.7092 96.8501 12.9099C95.9301 12.0999 95.1201 11.4199 94.4301 10.9099C93.3514 10.123 92.4032 9.17136 91.6201 8.08992C91.1747 7.53653 90.8657 6.88615 90.7181 6.1913C90.5704 5.49645 90.5882 4.77661 90.7701 4.08992C91.0027 3.47188 91.3847 2.92104 91.882 2.48656C92.3793 2.05208 92.9764 1.74747 93.6201 1.59993C95.0345 1.28175 96.5119 1.39672 97.8601 1.92992C99.2895 2.41338 100.536 3.32454 101.43 4.53994C101.589 4.79298 101.723 5.0609 101.83 5.33992C101.924 5.60256 101.951 5.88417 101.91 6.15993Z" fill="black"/>
<path d="M111.15 11.9399C110.914 11.9147 110.681 11.8746 110.45 11.8199C110.06 11.7499 109.63 11.6399 109.16 11.5199C108.737 11.4073 108.322 11.2636 107.92 11.0899C107.57 10.9399 107.36 10.7799 107.31 10.6199C107.413 10.486 107.487 10.3331 107.53 10.17C107.61 9.91995 107.69 9.65995 107.76 9.38995C107.83 9.11995 107.88 8.95994 107.89 8.87994C107.855 8.66137 107.855 8.43851 107.89 8.21994C107.895 8.11919 107.922 8.02084 107.971 7.93243C108.019 7.84403 108.088 7.76789 108.17 7.70993C108.855 7.73514 109.531 7.87369 110.17 8.11993C111.04 8.40993 111.76 8.67994 112.32 8.90994H112.41H112.46L112.63 8.98993L112.81 9.06995C112.86 9.06995 112.88 9.12994 112.88 9.15994C112.88 9.18994 112.88 9.15993 112.75 9.20993C112.628 9.33254 112.533 9.47893 112.47 9.63995C112.37 9.84995 112.27 10.0799 112.16 10.3299C112.031 10.7013 111.874 11.0623 111.69 11.4099C111.53 11.7699 111.35 11.9299 111.15 11.9399ZM112.41 18.1799H112.46L112.63 18.2499L112.81 18.3399C112.86 18.3399 112.88 18.39 112.88 18.42C112.88 18.45 112.88 18.4199 112.75 18.4699C112.631 18.5945 112.536 18.7404 112.47 18.8999C112.37 19.1099 112.27 19.3399 112.16 19.5999C112.033 19.9688 111.876 20.3267 111.69 20.67C111.53 20.99 111.35 21.16 111.15 21.17C110.914 21.1447 110.681 21.1046 110.45 21.0499C110.06 20.9699 109.63 20.8699 109.16 20.7399C108.738 20.6258 108.324 20.4856 107.92 20.3199C107.57 20.1599 107.36 19.9999 107.31 19.8499C107.413 19.716 107.487 19.5631 107.53 19.3999C107.61 19.1499 107.69 18.8899 107.76 18.6299C107.813 18.4557 107.856 18.2787 107.89 18.0999C107.855 17.8813 107.855 17.6586 107.89 17.4399C107.895 17.3392 107.922 17.2408 107.971 17.1524C108.019 17.064 108.088 16.9879 108.17 16.9299C108.855 16.9459 109.532 17.0813 110.17 17.3299C111.04 17.6299 111.76 17.8999 112.32 18.1299L112.41 18.1799Z" fill="black"/>
<path d="M7.71004 49.73C7.99004 49.73 8.15004 49.7899 8.21004 49.9299C8.24222 50.0076 8.25879 50.0909 8.25879 50.1749C8.25879 50.259 8.24222 50.3423 8.21004 50.42C8.15004 50.61 8.08003 50.77 8.02003 50.92V50.9899C7.59783 52.3121 7.30316 53.6716 7.14004 55.0499C6.93004 56.6299 6.77004 58.24 6.65004 59.88C7.64955 59.0176 8.57296 58.0707 9.41004 57.0499C9.93004 56.3499 10.57 55.38 11.34 54.14C11.81 53.4 12.25 52.71 12.67 52.09C12.9722 51.624 13.3063 51.1796 13.67 50.76C14.3504 50.2881 15.1373 49.9926 15.96 49.8999C16.884 49.7589 17.8158 49.6754 18.75 49.6499H19.51C19.79 49.5399 19.95 49.5599 20.01 49.7099C20.074 49.8946 20.074 50.0953 20.01 50.28C19.9421 50.514 19.862 50.7443 19.77 50.97C19.7142 51.1084 19.6473 51.2422 19.57 51.3699C18.7093 52.8983 17.7437 54.3652 16.68 55.76C15.68 57.06 14.5534 58.3933 13.3 59.76C13.47 60.18 13.64 60.5899 13.79 60.9899C14.35 62.4099 14.89 63.7299 15.42 64.9899C15.95 66.2499 16.62 67.6199 17.42 69.1799C18.0867 70.2666 18.89 71.4966 19.83 72.8699C20.6791 74.0946 21.5972 75.2699 22.58 76.39C22.7527 76.4755 22.9037 76.5991 23.0215 76.7516C23.1393 76.904 23.2209 77.0813 23.26 77.2699C23.3002 77.4612 23.3002 77.6587 23.26 77.85C23.1934 78.11 23.1134 78.37 23.02 78.63C22.93 78.89 22.85 79.09 22.79 79.22C22.4985 79.343 22.1798 79.3874 21.8657 79.3488C21.5516 79.3102 21.2531 79.1899 21 79C20.1964 78.6298 19.4408 78.163 18.75 77.6099C18.1436 77.1529 17.5931 76.6259 17.11 76.04C16.17 74.51 15.22 73.0399 14.24 71.4899C13.86 70.9699 13.33 70.1799 12.64 69.1199C11.95 68.0599 11.31 66.9999 10.72 65.9599C10.2489 65.2463 9.91015 64.4537 9.72004 63.6199C9.57004 63.7699 9.38004 63.9599 9.15004 64.2099C8.68004 64.7199 8.15004 65.21 7.61004 65.78C7.22029 66.2052 6.74713 66.5456 6.22004 66.78C6.22004 69.47 6.22003 72.1699 6.34003 74.8599C6.34003 75.4199 6.34004 75.97 6.40004 76.5C6.49667 76.7182 6.53982 76.9563 6.5259 77.1946C6.51199 77.4329 6.44141 77.6644 6.32004 77.8699C6.06334 78.114 5.73252 78.2653 5.38004 78.2999C5.01466 78.3716 4.64191 78.3985 4.27003 78.38C3.61691 78.0094 3.13297 77.4 2.92004 76.6799C2.55343 75.7576 2.27226 74.8036 2.08004 73.8299C1.922 73.1297 1.82497 72.417 1.79004 71.7C1.87004 70.54 1.91004 69.35 1.92004 68.14C1.93004 66.93 1.92004 65.75 1.92004 64.59C1.85004 62.69 1.81004 60.5899 1.83004 58.2999C1.81965 56.2659 1.98696 54.2349 2.33004 52.23C2.51941 51.7507 2.80404 51.3148 3.16672 50.9487C3.52939 50.5826 3.96257 50.2938 4.44004 50.1C5.47425 49.6743 6.60686 49.5461 7.71004 49.73Z" fill="black"/>
<path d="M40.4704 48.6899C40.6104 48.5299 40.7704 48.5399 40.9604 48.6899C41.1752 48.907 41.3541 49.1567 41.4904 49.4299C41.6648 49.7532 41.8185 50.0872 41.9504 50.4299C42.0804 50.7499 42.1704 51 42.2304 51.17C43.5969 55.8455 44.5999 60.6198 45.2304 65.45C45.2304 65.6 45.2904 65.7699 45.3304 65.9399C45.5104 66.9399 45.7204 67.9399 45.9604 69.0799L46.4304 69.2C46.7341 69.3333 47.0118 69.5195 47.2504 69.7499C47.5223 70.0091 47.7762 70.2864 48.0104 70.5799C48.1803 70.7937 48.3372 71.0174 48.4804 71.2499C48.5204 71.3699 48.4404 71.51 48.2404 71.67C48.0256 71.8449 47.7945 71.9989 47.5504 72.13L46.8804 72.4599L46.7604 72.5199C47.0908 73.9594 47.5151 75.3758 48.0304 76.76C48.1701 76.9265 48.2748 77.1195 48.3384 77.3273C48.402 77.5352 48.4231 77.7538 48.4004 77.9699C48.3357 78.1128 48.244 78.2418 48.1304 78.35C47.9739 78.5265 47.8069 78.6934 47.6304 78.85L47.1504 79.26L47.0304 79.35C46.5104 79.46 45.9504 79.1899 45.3504 78.5499C44.7076 77.8556 44.1503 77.0868 43.6904 76.26C43.2515 75.5116 42.8736 74.729 42.5604 73.92H42.4804C41.1069 73.8462 39.73 73.8729 38.3604 73.9999C37.8504 74.0899 37.1204 74.21 36.1704 74.35C35.2204 74.49 34.2804 74.6099 33.3404 74.6899C32.6401 74.7818 31.9307 74.7818 31.2304 74.6899L30.9604 75.16C30.8304 75.3899 30.6904 75.6199 30.5504 75.8399C30.367 76.5963 29.9158 77.2606 29.2804 77.7099C28.8577 77.9882 28.3662 78.144 27.8604 78.16C27.33 78.22 26.7935 78.1963 26.2704 78.0899C26.1271 77.3454 26.1823 76.5763 26.4304 75.8599C26.6904 74.6599 27.0104 73.43 27.4304 72.17C26.792 71.5569 26.1878 70.9093 25.6204 70.23C25.3804 70.06 25.3004 69.9299 25.3604 69.8299C25.4842 69.7107 25.6486 69.6429 25.8204 69.64C26.0658 69.608 26.3129 69.5913 26.5604 69.5899H27.1404H27.2204C27.5604 69.5899 27.9104 69.5899 28.2704 69.5899C28.5797 68.7934 28.9613 68.0269 29.4104 67.2999C29.9404 66.4123 30.3889 65.4785 30.7504 64.51C31.0404 63.65 31.4604 62.32 32.0004 60.51C32.5404 58.7 33.0004 57.2099 33.5304 55.6199C33.8608 54.4997 34.2514 53.3981 34.7004 52.32C35.0953 51.5185 35.6871 50.8304 36.4204 50.32C37.0211 49.9555 37.6711 49.6794 38.3504 49.4999C39.0808 49.2966 39.7905 49.0254 40.4704 48.6899ZM33.6304 69.6899C34.6304 69.6899 35.5504 69.6899 36.5004 69.6899C37.7304 69.6899 38.9804 69.5799 40.2704 69.4699L41.6804 69.35C41.6104 69.05 41.5404 68.7499 41.4604 68.4399C41.3304 67.8099 41.2004 67.2 41.0704 66.6L40.4704 64.3099C39.8037 61.9233 39.2037 59.5433 38.6704 57.17C37.6637 60.0766 36.5437 62.9133 35.3104 65.6799C35.1037 66.1599 34.9037 66.6499 34.7104 67.1499L34.2004 68.3999C34.0004 68.8099 33.8004 69.2299 33.6304 69.6499V69.6899Z" fill="black"/>
<path d="M60.5102 54.16H59.7902C59.0602 54.16 58.2602 54.16 57.4102 54.16C56.5971 54.1323 55.7892 54.0184 55.0002 53.82C54.3168 53.5852 53.6827 53.2258 53.1302 52.76C52.6837 52.4329 52.2978 52.0301 51.9902 51.57C52.3478 51.148 52.8149 50.8331 53.3402 50.66C53.7599 50.5055 54.1913 50.3851 54.6302 50.2999L54.8402 50.2399C56.416 49.8086 58.0305 49.534 59.6602 49.42C61.1602 49.33 62.8402 49.3099 64.7102 49.3599C67.0321 49.441 69.266 50.2686 71.0802 51.72C72.7522 53.028 73.9926 54.8083 74.6402 56.8299C75.2664 58.7267 75.1153 60.7943 74.2202 62.5799C73.3202 64.4199 71.4702 65.83 68.6702 66.8099C69.1802 67.66 69.6702 68.46 70.1402 69.19L70.8402 70.3399C72.0936 72.1466 73.5002 73.9766 75.0602 75.8299L75.4702 76.3399C75.6333 76.4325 75.7707 76.5641 75.8702 76.7229C75.9697 76.8818 76.0281 77.0629 76.0402 77.25C76.0242 77.4464 75.9589 77.6355 75.8502 77.7999C75.7264 78.0139 75.5859 78.2179 75.4302 78.41L75.0402 78.8599C74.5398 78.9692 74.0167 78.8909 73.5702 78.64C72.9215 78.352 72.3048 77.9967 71.7302 77.5799C71.2333 77.2399 70.7829 76.8365 70.3902 76.38C69.6425 75.153 68.814 73.977 67.9102 72.8599C67.7702 72.6599 67.6002 72.46 67.4202 72.25C66.8602 71.5833 66.2702 70.8533 65.6502 70.0599C65.0919 69.342 64.5936 68.5795 64.1602 67.78C63.5622 67.878 62.9554 67.9115 62.3502 67.88C61.7127 67.859 61.0807 67.7548 60.4702 67.57C60.3902 68.87 60.3602 70.28 60.3902 71.79C60.4071 73.1611 60.5039 74.5301 60.6802 75.89C60.7916 76.089 60.8533 76.312 60.8602 76.54C60.8597 76.7571 60.826 76.973 60.7602 77.1799C60.6449 77.3432 60.4988 77.4825 60.3302 77.5899C60.1102 77.7399 59.8802 77.89 59.6302 78.03L59.0402 78.3299C58.5502 78.2099 58.0402 77.74 57.6002 76.91C57.1111 76.0422 56.7188 75.1234 56.4302 74.17C56.1699 73.4523 56.0117 72.7016 55.9602 71.94C56.0602 70.63 56.1302 69.29 56.1702 67.94C56.1702 67.4666 56.1902 66.9966 56.2302 66.53C56.2302 65.1033 56.2302 63.5233 56.2302 61.79C56.2607 60.2585 56.401 58.7313 56.6502 57.22C56.9709 56.4629 57.5063 55.8163 58.1902 55.3599C58.9134 54.8696 59.6922 54.4668 60.5102 54.16ZM60.8402 64.3099L62.1102 63.98C63.1102 63.75 64.2002 63.4499 65.3702 63.0899C66.4778 62.7615 67.5446 62.3086 68.5502 61.7399C69.415 61.3061 70.1164 60.6047 70.5502 59.7399C70.7208 59.3383 70.8086 58.9063 70.8086 58.47C70.8086 58.0336 70.7208 57.6017 70.5502 57.2C70.17 56.2965 69.525 55.5295 68.7002 55C67.8367 54.4057 66.8082 54.0978 65.7602 54.1199H63.8902H62.0302C62.0503 54.3462 62.0503 54.5737 62.0302 54.7999C62.0302 55.0399 62.0302 55.22 62.0302 55.35C62.0302 55.48 62.0302 55.47 62.0302 55.48C61.6769 57.72 61.3702 60.0066 61.1102 62.3399C61.0002 63.0599 60.9202 63.6899 60.8402 64.3099Z" fill="black"/>
<path d="M92.4804 48.6899C92.6204 48.5299 92.7904 48.5399 92.9704 48.6899C93.1855 48.909 93.3674 49.1583 93.5104 49.4299C93.6774 49.7553 93.8276 50.0891 93.9604 50.4299C94.0904 50.7499 94.1904 51 94.2404 51.17C95.602 55.8468 96.6049 60.6206 97.2404 65.45C97.2404 65.6 97.2904 65.7699 97.3304 65.9399C97.5204 66.9399 97.7204 67.9399 97.9604 69.0799L98.4304 69.2C98.7341 69.3333 99.0118 69.5195 99.2504 69.7499C99.5223 70.0091 99.7762 70.2864 100.01 70.5799C100.18 70.7937 100.337 71.0174 100.48 71.2499C100.52 71.3699 100.44 71.51 100.24 71.67C100.026 71.8449 99.7945 71.9989 99.5504 72.13L98.8804 72.4599L98.7604 72.5199C99.0908 73.9594 99.5151 75.3758 100.03 76.76C100.17 76.9265 100.275 77.1195 100.338 77.3273C100.402 77.5352 100.423 77.7538 100.4 77.9699C100.34 78.1128 100.252 78.2421 100.14 78.35C99.9904 78.51 99.8204 78.68 99.6304 78.85L99.1504 79.26L99.0304 79.35C98.5104 79.46 97.9504 79.1899 97.3504 78.5499C96.7076 77.8556 96.1503 77.0868 95.6904 76.26C95.2555 75.5094 94.8778 74.7272 94.5604 73.92H94.4804C93.1069 73.8463 91.73 73.8731 90.3604 73.9999C89.8504 74.0899 89.1204 74.21 88.1704 74.35C87.2204 74.49 86.2804 74.6099 85.3404 74.6899C84.6401 74.7818 83.9307 74.7818 83.2304 74.6899L82.9604 75.16C82.8304 75.3899 82.6904 75.6199 82.5504 75.8399C82.367 76.5963 81.9158 77.2606 81.2804 77.7099C80.8577 77.9882 80.3662 78.144 79.8604 78.16C79.33 78.22 78.7935 78.1963 78.2704 78.0899C78.1331 77.3451 78.1882 76.5775 78.4304 75.8599C78.6904 74.6599 79.0104 73.43 79.4304 72.17C78.792 71.5569 78.1878 70.9093 77.6204 70.23C77.3804 70.06 77.3004 69.9299 77.3604 69.8299C77.4842 69.7107 77.6486 69.6429 77.8204 69.64C78.0658 69.608 78.3129 69.5913 78.5604 69.5899H79.1404H79.2204C79.5604 69.5899 79.9104 69.5899 80.2704 69.5899C80.5836 68.7952 80.9651 68.029 81.4104 67.2999C81.9443 66.4144 82.393 65.4803 82.7504 64.51C83.0404 63.65 83.4604 62.32 84.0004 60.51C84.5404 58.7 85.0004 57.2099 85.5304 55.6199C86.0604 54.0299 86.4304 52.93 86.7004 52.32C87.0985 51.5206 87.6897 50.8332 88.4204 50.32C89.0211 49.9555 89.6711 49.6794 90.3504 49.4999C91.0842 49.2972 91.7973 49.026 92.4804 48.6899ZM85.6404 69.6899C86.6404 69.6899 87.5704 69.6899 88.5204 69.6899C89.7404 69.6899 91.0004 69.5799 92.2904 69.4699L93.6904 69.35C93.6304 69.05 93.5504 68.7499 93.4804 68.4399C93.3504 67.8099 93.2204 67.2 93.0904 66.6C92.9604 66 92.6904 65.1099 92.4804 64.3099C91.8137 61.9233 91.2137 59.5433 90.6804 57.17C89.6671 60.0766 88.5471 62.9133 87.3204 65.6799C87.1204 66.1599 86.9104 66.6799 86.7204 67.1499L86.2104 68.3999C86.0004 68.8099 85.8104 69.2299 85.6404 69.6499V69.6899Z" fill="black"/>
<path d="M111.48 49.9999C111.76 49.9299 111.93 49.9999 112.01 50.0799C112.217 49.9999 112.347 50.0199 112.4 50.1399C112.446 50.317 112.446 50.5028 112.4 50.6799C112.46 52.0108 112.661 53.3316 113 54.6199C113.38 56.2499 113.76 57.7299 114.12 59.0399C114.2 59.3299 114.27 59.5999 114.34 59.8399C114.84 61.4199 115.47 63.1499 116.21 65.0399C116.96 63.3899 117.67 61.6799 118.32 59.9199C118.358 59.8587 118.391 59.7953 118.42 59.7299C118.81 58.4499 119.3 56.9999 119.9 55.3699C120.39 53.9695 121.034 52.6279 121.82 51.3699C122.152 51.0806 122.54 50.863 122.96 50.7305C123.38 50.598 123.823 50.5535 124.26 50.5999C125.298 49.9755 126.48 49.631 127.69 49.5999C127.96 49.5299 128.12 49.5999 128.18 49.7099C128.251 49.8739 128.268 50.0556 128.23 50.2299C128.211 50.4148 128.167 50.5963 128.1 50.7699C128.106 50.803 128.106 50.8368 128.1 50.8699C127.801 52.3562 127.623 53.8646 127.57 55.3799C127.5 56.9699 127.48 58.5599 127.49 60.1499C127.49 61.0599 127.49 61.9599 127.49 62.8399C127.54 65.5499 127.67 68.3199 127.86 71.1599C127.95 72.5199 128.03 73.8399 128.1 75.1599C128.283 75.7661 128.248 76.4171 128 76.9999C127.819 77.348 127.527 77.6259 127.17 77.7899C126.809 77.9971 126.418 78.1456 126.01 78.2299C125.41 77.7039 124.988 77.0054 124.8 76.2299C124.401 75.0797 124.067 73.9078 123.8 72.7199C123.59 71.8614 123.44 70.9893 123.35 70.1099C123.35 68.2199 123.35 66.3099 123.27 64.3699C123.27 64.0099 123.27 63.6599 123.27 63.3099C123.19 62.5399 123.12 61.6899 123.04 60.7499L122.88 61.0299C122.58 61.7699 122.15 63.1199 121.59 65.0299C121.1 66.7299 120.59 68.3799 120.07 69.9599C119.768 71.0578 119.314 72.108 118.72 73.0799C118.4 73.4799 117.94 73.5299 117.35 73.2199C116.715 72.8721 116.158 72.3993 115.71 71.8299C114.714 70.6572 113.858 69.3718 113.16 67.9999C112.628 66.8826 112.184 65.7258 111.83 64.5399C111.51 63.5399 111.1 62.4399 110.6 61.1599C110.52 61.8266 110.44 62.5166 110.36 63.2299C109.98 67.1899 109.734 71.2333 109.62 75.3599C109.62 75.5899 109.62 75.8299 109.62 76.0599C109.783 76.7092 109.716 77.3946 109.43 77.9999C109.211 78.3355 108.898 78.5996 108.53 78.7599C108.153 78.9531 107.754 79.0976 107.34 79.1899C106.737 78.5757 106.347 77.7831 106.23 76.9299C105.919 75.6861 105.689 74.4235 105.54 73.1499C105.409 72.2391 105.342 71.3202 105.34 70.3999C105.62 68.1299 105.82 65.8599 105.95 63.5599C105.95 63.4499 105.95 63.3399 105.95 63.2299C105.95 62.7199 105.95 62.1799 105.95 61.5899C105.95 60.0499 106.03 58.4499 106.1 56.7699C106.156 55.315 106.307 53.8653 106.55 52.4299C106.743 52.0256 107.015 51.664 107.35 51.3668C107.685 51.0696 108.076 50.8429 108.5 50.6999C109.394 50.3806 110.319 50.156 111.26 50.0299L111.48 49.9999Z" fill="black"/>
<path d="M135 54.6499C134.24 54.0895 133.612 53.3693 133.16 52.5399C132.62 51.5999 132.19 50.7799 131.87 50.0799C131.67 49.7499 131.63 49.5599 131.76 49.5099C131.968 49.4634 132.185 49.4844 132.38 49.5699C133.271 49.7779 134.177 49.9083 135.09 49.9599C136.09 50.0199 137.09 50.0599 138.09 50.0799H139.41C140.41 50.0799 141.41 50.0799 142.41 49.9799L145.58 49.7599C146.65 49.6899 147.68 49.6199 148.67 49.5699C150.357 49.1899 151.847 49.8266 153.14 51.4799C153.05 51.7899 152.51 52.1599 151.52 52.5799C150.485 53.0066 149.427 53.3739 148.35 53.6799C147.571 53.9252 146.771 54.0993 145.96 54.1999H144.78C143.98 54.1999 143.23 54.1999 142.54 54.1999C141.73 54.2326 140.922 54.3094 140.12 54.4299C139.83 56.5299 139.59 58.6399 139.39 60.7799C140.04 60.8299 140.69 60.8999 141.39 60.9699C142.821 61.0081 144.254 60.9647 145.68 60.8399L147.38 60.7399C147.562 60.6574 147.761 60.6215 147.96 60.6355C148.159 60.6495 148.352 60.7129 148.52 60.8199C148.86 61.0537 149.146 61.3571 149.36 61.7099C149.616 62.0506 149.844 62.4118 150.04 62.7899C150.04 63.0766 149.78 63.4099 149.26 63.7899C148.734 64.1777 148.172 64.5126 147.58 64.7899C147.128 65.0461 146.627 65.2029 146.11 65.2499C144.91 65.1799 144 65.1599 143.36 65.1799C142.72 65.1999 142.18 65.2399 141.74 65.2899L140.6 65.3899C140.19 65.3899 139.66 65.3899 139.02 65.3899C138.903 67.6537 138.949 69.923 139.16 72.1799C139.242 72.3417 139.29 72.5188 139.3 72.6999C139.297 72.857 139.248 73.0097 139.16 73.1399L138.88 73.3099C138.725 73.3879 138.565 73.4547 138.4 73.5099L142.01 73.6499C142.25 73.6499 142.48 73.6499 142.71 73.6499C143.944 73.6499 145.314 73.5899 146.82 73.4699C148.33 73.3399 149.68 73.1699 150.88 72.9599C151.021 72.8446 151.198 72.7816 151.38 72.7816C151.562 72.7816 151.739 72.8446 151.88 72.9599C152.108 73.1107 152.305 73.3043 152.46 73.5299C152.7 73.8299 152.91 74.1199 153.11 74.3899C153.31 74.6599 153.29 74.6399 153.36 74.7199C153.412 74.9767 153.393 75.2427 153.305 75.4894C153.217 75.7361 153.063 75.9541 152.86 76.1199C152.381 76.5914 151.823 76.974 151.21 77.2499C150.691 77.5189 150.13 77.6949 149.55 77.7699C148.2 77.7699 146.84 77.7699 145.47 77.8699L144.55 77.9299C143.38 78.0599 142 78.1699 140.42 78.2599C139.036 78.3557 137.645 78.3087 136.27 78.1199C135.304 77.7048 134.485 77.0078 133.92 76.1199C133.33 75.2521 132.827 74.3275 132.42 73.3599C132.28 73.0899 132.24 72.9299 132.31 72.8599C132.364 72.8201 132.426 72.7931 132.492 72.781C132.558 72.7689 132.626 72.7719 132.69 72.7899C132.871 72.819 133.049 72.8659 133.22 72.9299C134.279 73.148 135.351 73.2917 136.43 73.3599C135.789 72.6852 135.302 71.8803 135 70.9999C134.708 70.2195 134.529 69.4012 134.47 68.5699C134.47 68.4599 134.47 68.2499 134.47 67.9499C134.47 67.4299 134.56 66.8099 134.61 66.0799C134.66 65.3499 134.7 64.6999 134.73 64.0799C134.762 63.7473 134.762 63.4125 134.73 63.0799C134.191 62.2698 133.7 61.4284 133.26 60.5599C133.08 60.2699 133.06 60.0899 133.19 60.0299C133.392 59.9642 133.609 59.9642 133.81 60.0299C134.08 60.0299 134.34 60.1299 134.59 60.1999H134.69C134.69 59.1999 134.69 58.1999 134.75 57.2499C134.774 56.3785 134.857 55.5098 135 54.6499Z" fill="black"/>
<path d="M163.75 49.57C164.01 49.57 164.17 49.5699 164.24 49.7099C164.303 49.8116 164.324 49.9331 164.3 50.0499C164.269 50.1945 164.222 50.3354 164.16 50.47C164.16 50.47 164.16 50.56 164.16 50.6C163.713 52.0627 163.414 53.567 163.27 55.09C163.07 56.8899 162.91 58.6199 162.79 60.2699C162.74 60.9599 162.69 61.59 162.64 62.17C162.458 65.9122 162.494 69.662 162.75 73.3999C162.852 73.5839 162.907 73.7899 162.91 74H163.59C163.754 74.0095 163.917 74.0095 164.08 74C165.91 74 167.85 73.92 169.92 73.73C170.65 73.66 171.34 73.61 171.99 73.57C172.243 73.4598 172.515 73.403 172.79 73.403C173.066 73.403 173.338 73.4598 173.59 73.57C174.016 73.7456 174.398 74.0117 174.71 74.35C175.056 74.6873 175.371 75.0555 175.65 75.45C175.65 75.73 175.25 76.08 174.45 76.5C173.636 76.9308 172.791 77.2986 171.92 77.6C171.279 77.859 170.607 78.0338 169.92 78.1199C168.508 78.0448 167.093 78.0448 165.68 78.1199H165.63C164.82 78.2499 163.87 78.3599 162.77 78.4299C161.818 78.5179 160.858 78.4673 159.92 78.28C159.142 77.744 158.532 76.9985 158.16 76.13C157.742 75.2925 157.391 74.4231 157.11 73.53C156.98 73.22 156.96 73.03 157.06 72.97C157.16 72.91 157.34 72.9699 157.6 73.0799C158.162 73.3149 158.755 73.4665 159.36 73.53C158.959 72.6591 158.654 71.747 158.45 70.81C158.273 70.1158 158.166 69.4056 158.13 68.69C158.23 66.97 158.29 65.22 158.3 63.45C158.3 63.01 158.3 62.5699 158.3 62.1199C158.22 60.4999 158.19 58.65 158.2 56.59C158.195 54.8102 158.346 53.0334 158.65 51.28C158.842 50.8563 159.13 50.4831 159.491 50.1898C159.852 49.8965 160.276 49.6911 160.73 49.59C161.725 49.38 162.753 49.3732 163.75 49.57Z" fill="black"/>
<path d="M186.45 71.48C186.81 71.48 187.01 71.54 187.04 71.67C187.07 71.8 187.04 71.96 186.84 72.17C186.475 72.5839 186.178 73.053 185.96 73.56C185.72 74.09 185.51 74.6199 185.31 75.1499C185.25 75.3399 185.18 75.5099 185.12 75.6799C185.021 76.2038 184.98 76.7371 185 77.2699C185 77.9299 185 78.48 185.08 78.92C185.2 79.04 185.24 79.1399 185.21 79.2099C185.159 79.2892 185.086 79.3519 185 79.39C184.801 79.461 184.591 79.4982 184.38 79.5H183.43C183.11 79.5 182.87 79.5 182.71 79.5C182.287 79.4184 181.897 79.2131 181.59 78.91C181.12 78.5364 180.691 78.114 180.31 77.6499C179.95 77.1999 179.79 76.8699 179.84 76.6499C180.029 76.0264 180.137 75.3811 180.16 74.73C180.105 74.158 180.105 73.582 180.16 73.01C180.181 72.443 180.35 71.8914 180.65 71.41C181.478 71.0958 182.372 70.9927 183.25 71.1099C184.41 71.1999 185.41 71.2999 186.25 71.4299L186.45 71.48Z" fill="black"/>
<path d="M208.65 53.6499C208.89 53.5099 209.04 53.5099 209.12 53.6499C209.208 53.8512 209.242 54.0716 209.22 54.29C209.21 54.5448 209.183 54.7986 209.14 55.0499C209.121 55.1945 209.094 55.3381 209.06 55.48C208.74 57.23 208.46 59.06 208.22 60.95H208.32H208.42C209.719 60.6364 210.985 60.1977 212.2 59.64C213.368 59.0794 214.455 58.3628 215.43 57.51C216.43 56.51 216.93 55.7 216.82 54.97C216.71 54.24 215.82 53.7 214.1 53.35C212.36 53.0483 210.588 52.9777 208.83 53.14C207.191 53.2324 205.57 53.5211 204 54C203.391 53.8429 202.838 53.5211 202.4 53.07C201.94 52.6141 201.546 52.0957 201.23 51.53C200.979 51.1246 200.828 50.6652 200.79 50.19C201.448 50.0104 202.116 49.8702 202.79 49.7699L203.89 49.57C205.579 49.2673 207.286 49.0769 209 49C210.97 48.9092 212.943 49.0502 214.88 49.42C216.721 49.7481 218.445 50.5512 219.88 51.75C220.613 52.4245 221.195 53.2456 221.59 54.16C221.97 54.9951 222.109 55.92 221.99 56.8299C221.73 58.0325 221.177 59.1522 220.38 60.0899C219.677 61.036 218.767 61.809 217.72 62.35C218.113 62.4778 218.494 62.6384 218.86 62.8299C219.243 63.0289 219.611 63.2562 219.96 63.51C221.128 64.4194 221.93 65.7184 222.22 67.17C222.465 68.4937 222.448 69.8527 222.17 71.17C221.794 73.1791 220.663 74.9682 219.01 76.17C217.311 77.3751 215.369 78.1942 213.32 78.57L212.54 78.73L211.76 78.8699C209.89 79.2994 207.95 79.3233 206.07 78.94C205.143 78.7656 204.247 78.4556 203.41 78.0199C202.532 77.5972 201.739 77.0177 201.07 76.3099C201.07 76.2299 201.38 76.13 202 76.01C202.62 75.9 203.39 75.78 204.32 75.66C203.919 74.7007 203.585 73.7151 203.32 72.7099C203.088 71.9566 202.95 71.1773 202.91 70.39C203.094 68.7928 203.197 67.1875 203.22 65.5799C203.15 64.2599 203.12 62.8099 203.14 61.2399C203.145 59.8424 203.265 58.4476 203.5 57.07C203.952 56.106 204.717 55.3235 205.67 54.85C206.615 54.3393 207.615 53.9367 208.65 53.6499ZM207.65 75.19L208.29 75.1199C209.15 75.0199 209.89 74.94 210.51 74.85C210.907 74.8078 211.301 74.741 211.69 74.6499C212.75 74.3017 213.759 73.8141 214.69 73.2C215.591 72.5922 216.368 71.8185 216.98 70.92C217.297 70.4515 217.518 69.9246 217.63 69.3699C217.757 68.7891 217.801 68.1931 217.76 67.6C217.776 67.3228 217.728 67.0457 217.62 66.79C217.546 66.6814 217.452 66.5883 217.342 66.5163C217.232 66.4442 217.109 66.3945 216.98 66.3699C216.005 66.0986 214.99 65.9938 213.98 66.0599C212.975 66.1127 211.974 66.2161 210.98 66.3699L210.34 66.44C209.976 66.4415 209.611 66.4181 209.25 66.3699C208.646 66.1795 208.088 65.8663 207.61 65.45V65.7999C207.437 68.3999 207.397 71.0966 207.49 73.89V74.6099C207.585 74.7898 207.643 74.9871 207.66 75.19H207.65Z" fill="black"/>
<path d="M232.27 49.7599C232.47 49.6899 232.61 49.6999 232.69 49.7599C232.765 49.9044 232.79 50.0699 232.76 50.2299C232.739 50.4496 232.699 50.6671 232.64 50.8799C232.57 51.0999 232.51 51.2899 232.45 51.4499C232.425 51.544 232.388 51.6346 232.34 51.7199C231.928 53.1067 231.594 54.5156 231.34 55.9399C230.939 57.9688 230.652 60.0187 230.48 62.0799C230.287 64.1345 230.327 66.2044 230.6 68.2499C230.729 69.8522 231.383 71.3672 232.46 72.5599C233.24 73.229 234.144 73.7386 235.12 74.0599C236.044 74.3789 237.013 74.551 237.99 74.5699C239.21 74.5699 239.99 74.4199 240.21 73.9899C240.503 73.2888 240.593 72.5197 240.47 71.7699C240.47 71.2299 240.47 70.5699 240.47 69.7699C240.64 67.7699 240.73 65.6299 240.74 63.5199V63.4099C240.75 63.3302 240.75 63.2497 240.74 63.1699C240.65 61.5399 240.59 59.7899 240.55 57.9199C240.502 56.2504 240.573 54.5796 240.76 52.9199C241.084 51.9362 241.752 51.1019 242.64 50.5699C243.548 50.0255 244.537 49.6305 245.57 49.3999C245.78 49.2699 245.92 49.2699 246.01 49.3999C246.099 49.5765 246.14 49.7728 246.13 49.9699C246.129 50.2008 246.113 50.4313 246.08 50.6599C246.08 50.8799 246.01 51.0199 246 51.0699C245.61 53.9391 245.363 56.8261 245.26 59.7199C245.19 60.9499 245.12 62.1399 245.04 63.2999C244.96 65.5866 244.92 67.9199 244.92 70.2999C244.92 71.8899 244.92 73.4599 244.92 75.0099C245.079 75.6336 244.997 76.2941 244.69 76.8599C244.48 77.2059 244.165 77.4757 243.79 77.6299C243.416 77.8266 243.015 77.9681 242.6 78.0499C242.386 77.9121 242.232 77.6975 242.17 77.4499C241.004 78.0952 239.71 78.4775 238.38 78.5699C236.95 78.6934 235.509 78.5023 234.16 78.0099C233.379 77.6989 232.635 77.3032 231.94 76.8299C231.232 76.3623 230.563 75.8372 229.94 75.2599C228.682 73.9805 227.737 72.4264 227.18 70.7199C226.589 68.9707 226.203 67.1585 226.03 65.3199C225.868 63.7287 225.808 62.1288 225.85 60.5299C225.887 58.2972 226.142 56.0733 226.61 53.8899C227.027 52.7111 227.791 51.6858 228.801 50.9488C229.811 50.2117 231.02 49.7973 232.27 49.7599Z" fill="black"/>
<path d="M257.73 54.16H257.01C256.277 54.16 255.487 54.16 254.64 54.16C253.827 54.1323 253.019 54.0184 252.23 53.82C251.544 53.5854 250.906 53.2261 250.35 52.76C249.909 52.4304 249.527 52.0279 249.22 51.57C249.578 51.148 250.045 50.8331 250.57 50.66C250.989 50.503 251.421 50.3825 251.86 50.2999L252.07 50.2399C253.643 49.8095 255.254 49.5348 256.88 49.42C258.39 49.33 260.07 49.3099 261.93 49.3599C264.255 49.441 266.492 50.2685 268.31 51.72C269.982 53.028 271.223 54.8083 271.87 56.8299C272.487 58.7279 272.336 60.7917 271.45 62.5799C270.55 64.4199 268.7 65.83 265.9 66.8099C266.41 67.66 266.9 68.46 267.36 69.19C267.64 69.63 267.87 70.0199 268.07 70.3399C269.32 72.1499 270.72 73.9799 272.29 75.8299L272.7 76.3399C272.863 76.4315 273 76.5632 273.098 76.7224C273.196 76.8816 273.252 77.0632 273.26 77.25C273.249 77.4457 273.187 77.6351 273.08 77.7999C272.95 78.0099 272.81 78.21 272.66 78.41L272.27 78.8599C271.77 78.9702 271.246 78.8918 270.8 78.64C270.151 78.352 269.535 77.9967 268.96 77.5799C268.461 77.2426 268.01 76.8389 267.62 76.38C266.872 75.153 266.044 73.977 265.14 72.8599C264.99 72.6599 264.83 72.46 264.65 72.25C264.09 71.5833 263.5 70.8533 262.88 70.0599C262.315 69.347 261.816 68.5838 261.39 67.78C260.792 67.8777 260.185 67.9112 259.58 67.88C258.943 67.859 258.311 67.7548 257.7 67.57C257.62 68.87 257.59 70.28 257.62 71.79C257.632 73.1613 257.729 74.5306 257.91 75.89C258.022 76.089 258.083 76.312 258.09 76.54C258.085 76.7567 258.051 76.9719 257.99 77.1799C257.872 77.3408 257.727 77.4796 257.56 77.5899C257.34 77.7399 257.1 77.89 256.86 78.03L256.27 78.3299C255.77 78.2099 255.27 77.74 254.82 76.91C254.335 76.0401 253.943 75.1218 253.65 74.17C253.395 73.4509 253.237 72.7009 253.18 71.94C253.29 70.63 253.36 69.29 253.4 67.94L253.46 66.53C253.46 65.1033 253.46 63.5233 253.46 61.79C253.481 60.258 253.621 58.73 253.88 57.22C254.201 56.4629 254.736 55.8163 255.42 55.3599C256.139 54.8677 256.914 54.4647 257.73 54.16ZM258.07 64.3099L259.34 63.98C260.34 63.75 261.43 63.4499 262.6 63.0899C263.708 62.7615 264.775 62.3086 265.78 61.7399C266.646 61.3073 267.348 60.6055 267.78 59.7399C267.954 59.339 268.043 58.9068 268.043 58.47C268.043 58.0331 267.954 57.6009 267.78 57.2C267.412 56.3234 266.793 55.5754 266 55.0499C265.137 54.4557 264.108 54.1479 263.06 54.17H261.18H259.33C259.345 54.3964 259.345 54.6235 259.33 54.85C259.33 55.09 259.33 55.2699 259.33 55.3999C259.33 55.5299 259.33 55.52 259.33 55.53C258.977 57.77 258.67 60.0566 258.41 62.39C258.22 63.06 258.14 63.6899 258.07 64.3099Z" fill="black"/>
<path d="M283.22 53.6499C283.46 53.5099 283.61 53.5099 283.69 53.6499C283.778 53.8512 283.812 54.0716 283.79 54.29C283.78 54.5448 283.753 54.7986 283.71 55.0499C283.691 55.1945 283.664 55.3381 283.63 55.48C283.31 57.23 283.03 59.06 282.79 60.95H282.89H282.99C284.289 60.6364 285.555 60.1977 286.77 59.64C287.938 59.0794 289.025 58.3628 290 57.51C291 56.51 291.5 55.7 291.39 54.97C291.28 54.24 290.39 53.7 288.67 53.35C286.93 53.0483 285.158 52.9777 283.4 53.14C281.745 53.2251 280.106 53.5105 278.52 53.9899C277.911 53.8329 277.358 53.5111 276.92 53.06C276.46 52.6041 276.066 52.0857 275.75 51.5199C275.499 51.1146 275.348 50.6552 275.31 50.1799C275.968 50.0004 276.636 49.8602 277.31 49.76L278.41 49.56C280.102 49.2602 281.813 49.0732 283.53 49C285.5 48.9092 287.473 49.0502 289.41 49.42C291.251 49.7481 292.975 50.5512 294.41 51.75C295.143 52.4245 295.725 53.2456 296.12 54.16C296.5 54.9951 296.639 55.92 296.52 56.8299C296.26 58.0325 295.707 59.1522 294.91 60.0899C294.207 61.036 293.297 61.809 292.25 62.35C292.643 62.4778 293.024 62.6384 293.39 62.8299C293.773 63.0289 294.141 63.2562 294.49 63.51C295.658 64.4194 296.46 65.7184 296.75 67.17C297.012 68.4905 297.012 69.8495 296.75 71.17C296.374 73.1791 295.243 74.9682 293.59 76.17C291.891 77.3751 289.949 78.1942 287.9 78.57L287.12 78.73L286.34 78.8699C284.474 79.2992 282.537 79.3231 280.66 78.94C279.732 78.7602 278.835 78.4434 278 78C277.123 77.5805 276.333 77.0005 275.67 76.29C275.67 76.21 275.97 76.1099 276.59 75.9899C277.21 75.8699 277.98 75.76 278.91 75.64C278.509 74.6808 278.175 73.6951 277.91 72.69C277.678 71.9366 277.54 71.1573 277.5 70.3699C277.684 68.7728 277.787 67.1675 277.81 65.5599C277.74 64.24 277.71 62.79 277.73 61.22C277.735 59.8224 277.855 58.4276 278.09 57.0499C278.542 56.086 279.307 55.3034 280.26 54.8299C281.2 54.3276 282.193 53.9318 283.22 53.6499ZM282.22 75.19L282.86 75.1199C283.72 75.0199 284.46 74.94 285.08 74.85C285.477 74.8078 285.871 74.741 286.26 74.6499C287.321 74.3037 288.33 73.816 289.26 73.2C290.161 72.5922 290.938 71.8185 291.55 70.92C291.867 70.4515 292.088 69.9246 292.2 69.3699C292.327 68.7891 292.371 68.1931 292.33 67.6C292.346 67.3228 292.298 67.0457 292.19 66.79C292.116 66.6814 292.022 66.5883 291.912 66.5163C291.802 66.4442 291.679 66.3945 291.55 66.3699C290.575 66.0986 289.56 65.9938 288.55 66.0599C287.545 66.1127 286.544 66.2161 285.55 66.3699L284.91 66.44C284.546 66.4415 284.181 66.4181 283.82 66.3699C283.216 66.1795 282.658 65.8663 282.18 65.45V65.7999C282.013 68.3999 281.973 71.0966 282.06 73.89V74.6099C282.155 74.7898 282.213 74.9871 282.23 75.19H282.22Z" fill="black"/>
<path d="M311.46 52.4399C311.67 52.5799 311.75 52.6899 311.71 52.7699C311.617 52.8733 311.489 52.9376 311.35 52.9499C311.15 52.9499 310.93 53.0199 310.68 53.0499C310.367 53.079 310.056 53.1291 309.75 53.1999C309.45 53.3098 309.168 53.4612 308.91 53.6499C308.002 54.3179 307.273 55.201 306.79 56.2199C306.225 57.3449 305.795 58.5333 305.51 59.7599C305.229 60.9159 305.045 62.0933 304.96 63.2799C304.879 64.7085 304.932 66.1415 305.12 67.5599C305.313 69.0419 305.742 70.4835 306.39 71.8299C307.397 73.9233 308.907 74.8633 310.92 74.6499C312.649 74.4924 314.283 73.7924 315.59 72.6499C316.911 71.4732 317.938 70.0041 318.59 68.3599C319.291 66.6251 319.681 64.7801 319.74 62.9099C319.809 61.0546 319.545 59.202 318.96 57.4399C318.458 55.8342 317.499 54.4095 316.2 53.3399C315.7 52.8479 315.135 52.4273 314.52 52.0899C313.62 51.4799 312.88 51.0199 312.31 50.7099C311.74 50.3999 310.95 50.0499 309.97 49.6499C310.1 49.3599 310.53 49.19 311.24 49.14C311.996 49.0805 312.755 49.0805 313.51 49.14C314.094 49.1812 314.675 49.2546 315.25 49.3599C316.991 49.9189 318.567 50.8977 319.84 52.2099C321.402 53.9298 322.591 55.9535 323.334 58.1543C324.078 60.355 324.359 62.6855 324.16 64.9999C323.883 67.3379 323.207 69.611 322.16 71.7199C321.135 73.7646 319.616 75.521 317.74 76.8299C316.711 77.5399 315.582 78.0926 314.39 78.4699C313.115 78.8777 311.776 79.0472 310.44 78.9699C309.024 78.8804 307.652 78.448 306.44 77.7099C304.764 76.6825 303.385 75.2347 302.44 73.5099C301.461 71.7485 300.785 69.8353 300.44 67.8499C300.078 65.8719 299.954 63.8575 300.07 61.8499C300.152 60.1218 300.454 58.4112 300.97 56.7599C301.459 55.014 302.514 53.4801 303.97 52.3999C304.55 51.9062 305.21 51.514 305.92 51.2399C306.667 50.9609 307.464 50.8383 308.26 50.8799C308.857 50.917 309.445 51.0486 310 51.2699C310.578 51.5299 311.081 51.9325 311.46 52.4399Z" fill="black"/>
<path d="M329 52.89C329.358 52.0054 329.932 51.2249 330.67 50.6199C331.361 49.9759 332.249 49.5847 333.19 49.51C334.06 49.51 334.71 50.0399 335.19 51.2099C335.73 52.7599 336.37 54.34 337.1 55.97C337.83 57.6 338.58 59.1899 339.35 60.7799C339.7 61.5399 340.05 62.28 340.4 63.01C341.5 65.12 342.69 67.2899 344 69.5299C344 67.8499 344 66.16 344 64.45C344 62.74 343.84 60.7599 343.81 58.6799C343.772 56.8096 343.859 54.9387 344.07 53.0799C344.399 52.0538 345.065 51.1692 345.96 50.57C346.883 49.9604 347.895 49.4982 348.96 49.2C349.21 49.04 349.37 49.0699 349.44 49.2799C349.514 49.5432 349.541 49.8173 349.52 50.0899C349.52 50.4199 349.47 50.68 349.45 50.88C349.444 50.9164 349.444 50.9535 349.45 50.9899C348.944 54.7699 348.61 58.6466 348.45 62.6199C348.45 63.1499 348.38 63.68 348.35 64.2C348.3 65.92 348.35 67.7899 348.4 69.8099C348.45 71.8299 348.63 73.7299 348.84 75.4899C348.961 75.716 349.03 75.9655 349.044 76.2211C349.058 76.4767 349.015 76.7323 348.92 76.9699C348.53 78.0399 347.92 78.43 347.06 78.13C346.022 77.7044 345.093 77.0518 344.34 76.2199C343.413 75.2828 342.554 74.2802 341.77 73.2199C341.271 72.5836 340.813 71.9155 340.4 71.2199C339.4 69.2199 338.4 67.2199 337.28 65.2999L336.91 64.6799C335.744 62.7999 334.597 60.7999 333.47 58.6799C333.4 59.4899 333.34 60.2899 333.28 61.0799C333.2 62.0799 333.12 63.01 333.04 63.95C332.914 67.87 332.98 71.8433 333.24 75.8699C333.432 76.4272 333.432 77.0327 333.24 77.5899C333.076 77.9323 332.806 78.2128 332.47 78.39C332.134 78.5914 331.775 78.7525 331.4 78.8699C330.92 78.6699 330.47 78.0199 330.04 76.9299C329.62 75.8003 329.285 74.6403 329.04 73.4599C328.826 72.6242 328.689 71.7706 328.63 70.91C328.75 68.61 328.8 66.3499 328.8 64.1099C328.73 62.3599 328.7 60.45 328.73 58.38C328.674 56.5457 328.764 54.7099 329 52.89Z" fill="black"/>
<path d="M360.53 71.48C360.89 71.48 361.09 71.54 361.12 71.67C361.15 71.8 361.12 71.96 360.92 72.17C360.559 72.5864 360.262 73.055 360.04 73.56C359.8 74.09 359.59 74.6199 359.39 75.1499C359.33 75.3399 359.26 75.5099 359.2 75.6799C359.101 76.2038 359.061 76.7371 359.08 77.2699C359.08 77.9299 359.08 78.48 359.16 78.92C359.28 79.04 359.32 79.1399 359.29 79.2099C359.242 79.2914 359.168 79.3547 359.08 79.39C358.881 79.461 358.672 79.4982 358.46 79.5H357.51C357.19 79.5 356.95 79.5 356.8 79.5C356.374 79.4191 355.98 79.2138 355.67 78.91C355.203 78.5337 354.774 78.1116 354.39 77.6499C354.03 77.1999 353.87 76.8699 353.93 76.6499C354.111 76.0249 354.215 75.3802 354.24 74.73C354.19 74.1577 354.19 73.5822 354.24 73.01C354.26 72.4413 354.433 71.8886 354.74 71.41C355.565 71.0958 356.455 70.9927 357.33 71.1099C358.49 71.1999 359.5 71.2999 360.33 71.4299L360.53 71.48Z" fill="black"/>
<path d="M380.9 49.73C381.17 49.73 381.34 49.7899 381.4 49.9299C381.46 50.0878 381.46 50.2621 381.4 50.42C381.33 50.61 381.27 50.77 381.2 50.92C381.204 50.9432 381.204 50.9667 381.2 50.9899C380.778 52.3121 380.483 53.6716 380.32 55.0499C380.12 56.6299 379.95 58.24 379.84 59.88C380.834 59.0149 381.754 58.0683 382.59 57.0499C383.11 56.3499 383.75 55.38 384.52 54.14C384.99 53.4 385.43 52.71 385.85 52.09C386.152 51.6236 386.486 51.1792 386.85 50.76C387.526 50.287 388.31 49.9913 389.13 49.8999C390.058 49.7585 390.993 49.675 391.93 49.6499H392.69C392.96 49.5399 393.13 49.5599 393.19 49.7099C393.249 49.8954 393.249 50.0945 393.19 50.28C393.11 50.52 393.03 50.75 392.94 50.97C392.886 51.1076 392.823 51.2412 392.75 51.3699C391.886 52.8962 390.921 54.3628 389.86 55.76C388.86 57.06 387.73 58.4 386.48 59.76L386.97 60.9899C387.52 62.4099 388.07 63.7299 388.6 64.9899C389.13 66.2499 389.79 67.6199 390.6 69.1799C391.267 70.2666 392.067 71.4966 393 72.8699C393.849 74.0946 394.767 75.2699 395.75 76.39C395.925 76.4736 396.079 76.5966 396.198 76.7492C396.318 76.9019 396.401 77.08 396.44 77.2699C396.454 77.4653 396.434 77.6616 396.38 77.85C396.314 78.114 396.234 78.3744 396.14 78.63C396.077 78.8317 396 79.0288 395.91 79.22C395.55 79.45 394.99 79.3999 394.23 79.0499C393.429 78.6752 392.674 78.2087 391.98 77.66C391.376 77.2002 390.826 76.6735 390.34 76.09C389.414 74.5633 388.457 73.0466 387.47 71.54C387.09 71.02 386.56 70.23 385.87 69.17C385.18 68.11 384.54 67.05 383.96 66.01C383.487 65.2976 383.148 64.5045 382.96 63.67L382.39 64.26C381.93 64.77 381.39 65.2599 380.85 65.8299C380.462 66.2574 379.989 66.5982 379.46 66.8299C379.46 69.5199 379.46 72.22 379.58 74.91C379.58 75.47 379.63 76.0199 379.64 76.5499C379.739 76.7676 379.784 77.0061 379.77 77.2449C379.756 77.4836 379.684 77.7153 379.56 77.92C379.305 78.166 378.973 78.3176 378.62 78.35C378.255 78.4216 377.882 78.4485 377.51 78.4299C376.864 78.0517 376.382 77.4453 376.16 76.73C375.794 75.8077 375.512 74.8537 375.32 73.88C375.167 73.1788 375.07 72.4665 375.03 71.75C375.11 70.59 375.15 69.4 375.17 68.19C375.19 66.98 375.17 65.8 375.17 64.64C375.09 62.74 375.057 60.6433 375.07 58.35C375.058 56.3154 375.228 54.2839 375.58 52.28C375.768 51.7998 376.052 51.3631 376.415 50.9968C376.778 50.6305 377.212 50.3423 377.69 50.1499C378.702 49.7185 379.812 49.5732 380.9 49.73Z" fill="black"/>
<path d="M407.13 54.16H406.41C405.68 54.16 404.89 54.16 404.03 54.16C403.217 54.1317 402.41 54.0177 401.62 53.82C400.937 53.5852 400.303 53.2258 399.75 52.76C399.304 52.4329 398.918 52.0301 398.61 51.57C398.968 51.148 399.435 50.8331 399.96 50.66C400.38 50.5055 400.811 50.3851 401.25 50.2999C401.323 50.2898 401.393 50.2696 401.46 50.2399C403.036 49.8094 404.651 49.5348 406.28 49.42C407.78 49.33 409.47 49.3099 411.33 49.3599C413.655 49.4424 415.892 50.2697 417.71 51.72C419.38 53.0285 420.617 54.809 421.26 56.8299C421.887 58.7267 421.735 60.7943 420.84 62.5799C419.94 64.4199 418.09 65.83 415.29 66.8099C415.8 67.66 416.29 68.46 416.76 69.19L417.46 70.3399C418.714 72.1466 420.12 73.9766 421.68 75.8299L422.09 76.3399C422.253 76.4325 422.391 76.5641 422.49 76.7229C422.59 76.8818 422.648 77.0629 422.66 77.25C422.644 77.4464 422.579 77.6355 422.47 77.7999C422.346 78.0139 422.206 78.2179 422.05 78.41L421.66 78.8599C421.163 78.9695 420.643 78.8912 420.2 78.64C419.548 78.3522 418.928 77.9969 418.35 77.5799C417.853 77.2399 417.403 76.8365 417.01 76.38C416.263 75.153 415.434 73.977 414.53 72.8599C414.38 72.6465 414.216 72.4428 414.04 72.25C413.48 71.59 412.89 70.8599 412.28 70.0599C411.716 69.3445 411.214 68.5817 410.78 67.78C410.182 67.878 409.576 67.9115 408.97 67.88C408.333 67.859 407.701 67.7548 407.09 67.57C407.01 68.87 406.99 70.28 407.01 71.79C407.032 73.1609 407.129 74.5296 407.3 75.89C407.412 76.089 407.473 76.312 407.48 76.54C407.48 76.7571 407.446 76.973 407.38 77.1799C407.265 77.3432 407.119 77.4825 406.95 77.5899C406.73 77.7399 406.5 77.89 406.25 78.03L405.66 78.3299C405.17 78.2099 404.66 77.74 404.22 76.91C403.731 76.0422 403.339 75.1234 403.05 74.17C402.79 73.4523 402.632 72.7016 402.58 71.94C402.68 70.63 402.75 69.29 402.79 67.94C402.79 67.4666 402.81 66.9966 402.85 66.53C402.85 65.1 402.85 63.53 402.85 61.79C402.881 60.2585 403.021 58.7313 403.27 57.22C403.595 56.465 404.129 55.8193 404.81 55.3599C405.534 54.8696 406.312 54.4668 407.13 54.16ZM407.46 64.3099L408.73 63.98C409.73 63.75 410.82 63.4499 411.99 63.0899C413.101 62.7615 414.171 62.3086 415.18 61.7399C416.046 61.3073 416.748 60.6055 417.18 59.7399C417.351 59.3383 417.439 58.9063 417.439 58.47C417.439 58.0336 417.351 57.6017 417.18 57.2C416.808 56.323 416.185 55.5752 415.39 55.0499C414.527 54.4557 413.498 54.1479 412.45 54.17H410.58H408.72C408.74 54.3962 408.74 54.6237 408.72 54.85C408.72 55.09 408.72 55.2699 408.72 55.3999C408.72 55.5299 408.72 55.52 408.72 55.53C408.374 57.77 408.07 60.0566 407.81 62.39C407.657 63.05 407.54 63.6899 407.46 64.3099Z" fill="black"/>
<path d="M427.71 54.6499C426.956 54.0861 426.331 53.3665 425.88 52.5399C425.405 51.7442 424.975 50.9229 424.59 50.0799C424.377 49.7532 424.337 49.5633 424.47 49.5099C424.681 49.4653 424.901 49.4862 425.1 49.5699C425.987 49.7772 426.89 49.9077 427.8 49.9599C428.8 50.0199 429.8 50.0599 430.8 50.0799H432.13C433.13 50.0799 434.13 50.0799 435.13 49.9799L438.3 49.7599C439.37 49.6899 440.4 49.6199 441.39 49.5699C443.083 49.1899 444.573 49.8266 445.86 51.4799C445.77 51.7899 445.23 52.1599 444.24 52.5799C443.202 53.0081 442.14 53.3754 441.06 53.6799C440.281 53.9272 439.481 54.1013 438.67 54.1999H437.5C436.69 54.1999 435.94 54.1999 435.25 54.1999C434.44 54.2331 433.632 54.3099 432.83 54.4299C432.54 56.5299 432.3 58.6399 432.11 60.7799C432.76 60.8299 433.41 60.8999 434.11 60.9699C435.545 61.0082 436.98 60.9648 438.41 60.8399L440.11 60.7399C440.29 60.6574 440.488 60.6215 440.685 60.6355C440.883 60.6494 441.073 60.7129 441.24 60.8199C441.582 61.0547 441.871 61.3577 442.09 61.7099C442.343 62.0504 442.568 62.4117 442.76 62.7899C442.76 63.0766 442.5 63.4099 441.98 63.7899C441.457 64.182 440.894 64.5172 440.3 64.7899C439.852 65.0467 439.354 65.2036 438.84 65.2499C437.64 65.1799 436.72 65.1599 436.08 65.1799C435.44 65.1999 434.91 65.2399 434.46 65.2899L433.32 65.3899C432.91 65.3899 432.39 65.3899 431.75 65.3899C431.627 67.6536 431.674 69.9232 431.89 72.1799C431.97 72.3421 432.014 72.5194 432.02 72.6999C432.021 72.8562 431.975 73.0091 431.89 73.1399L431.6 73.3099C431.447 73.3914 431.286 73.4584 431.12 73.5099L434.74 73.6499C434.97 73.6499 435.21 73.6499 435.44 73.6499C436.66 73.6499 438.03 73.5999 439.54 73.4699C441.05 73.3399 442.41 73.1699 443.6 72.9599C443.741 72.8446 443.918 72.7816 444.1 72.7816C444.282 72.7816 444.459 72.8446 444.6 72.9599C444.832 73.1099 445.032 73.3035 445.19 73.5299C445.42 73.8299 445.64 74.1199 445.83 74.3899L446.09 74.7199C446.14 74.9767 446.12 75.2421 446.032 75.4883C445.944 75.7346 445.791 75.9527 445.59 76.1199C445.111 76.5914 444.553 76.974 443.94 77.2499C443.421 77.5176 442.859 77.6935 442.28 77.7699C440.92 77.7699 439.56 77.7699 438.19 77.8699L437.28 77.9299C436.1 78.0599 434.73 78.1699 433.15 78.2599C431.766 78.3559 430.375 78.309 429 78.1199C428.031 77.7049 427.208 77.0081 426.64 76.1199C426.052 75.252 425.553 74.3274 425.15 73.3599C425 73.0899 424.97 72.9299 425.04 72.8599C425.092 72.8203 425.153 72.7933 425.217 72.7811C425.281 72.769 425.347 72.772 425.41 72.7899C425.594 72.8178 425.775 72.8647 425.95 72.9299C427.005 73.1474 428.075 73.291 429.15 73.3599C428.513 72.6356 428.039 71.7831 427.76 70.8599C427.47 70.0794 427.295 69.2608 427.24 68.4299C427.24 68.3199 427.24 68.1099 427.24 67.8099C427.24 67.2899 427.32 66.6699 427.37 65.9399C427.42 65.2099 427.46 64.5599 427.49 63.9399C427.532 63.6079 427.532 63.2719 427.49 62.9399C426.953 62.13 426.466 61.2884 426.03 60.4199C425.84 60.1299 425.82 59.9499 425.96 59.8899C426.158 59.8264 426.372 59.8264 426.57 59.8899C426.833 59.9328 427.093 59.9896 427.35 60.0599H427.45C427.45 59.0599 427.45 58.0599 427.51 57.1099C427.532 56.2869 427.599 55.4657 427.71 54.6499Z" fill="black"/>
<path d="M454.57 53.92C452.608 53.4672 450.703 52.7963 448.89 51.92C448.3 51.79 448.35 51.5599 449.03 51.2399C450.086 50.7929 451.185 50.4577 452.31 50.2399C453.976 49.8945 455.663 49.6607 457.36 49.54C459.177 49.3968 461.005 49.4505 462.81 49.7C466.18 50.22 468.61 51.5 470.08 53.54C471.584 55.7381 472.179 58.433 471.74 61.0599C471.518 62.686 470.749 64.1881 469.56 65.32C468.369 66.4363 466.954 67.2883 465.41 67.82C464.329 68.2081 463.219 68.5124 462.09 68.73C460.921 68.971 459.716 68.988 458.54 68.78C458.221 68.6906 457.913 68.5665 457.62 68.41C457.51 71.2666 457.547 74.1271 457.73 76.98C457.837 77.1246 457.895 77.2999 457.895 77.48C457.895 77.66 457.837 77.8353 457.73 77.98C457.605 78.0924 457.454 78.1715 457.29 78.2099C457.055 78.2945 456.814 78.3646 456.57 78.42L455.96 78.5599H455.9C455.673 78.5495 455.451 78.4839 455.254 78.369C455.057 78.254 454.891 78.0931 454.77 77.8999C454.403 77.4086 454.11 76.8662 453.9 76.29C453.666 75.6895 453.482 75.0707 453.35 74.44C453.244 73.9734 453.18 73.4981 453.16 73.0199C453.31 71.0199 453.39 69.0199 453.42 67.0199V66.92C453.42 66.69 453.42 66.45 453.42 66.2C453.35 64.56 453.3 62.81 453.27 60.97C453.235 59.3018 453.285 57.633 453.42 55.97C453.614 55.1963 454.011 54.4885 454.57 53.92ZM457.77 65.72C458.96 65.4 460.27 64.9699 461.71 64.4299C463.064 63.9426 464.35 63.2875 465.54 62.48C466.04 62.1845 466.474 61.7913 466.818 61.3239C467.161 60.8565 467.407 60.3246 467.54 59.76C467.632 59.0663 467.632 58.3636 467.54 57.67C467.464 56.9197 467.14 56.2162 466.62 55.67C465.998 55.1572 465.254 54.8129 464.46 54.67C463.546 54.479 462.615 54.3752 461.68 54.3599C460.68 54.3599 459.86 54.3599 459.1 54.3599C458.82 54.3599 458.56 54.3599 458.34 54.3599C458.22 58.1599 458.03 61.9466 457.77 65.72Z" fill="black"/>
<path d="M482.81 49.73C483.09 49.73 483.25 49.7899 483.31 49.9299C483.342 50.0076 483.359 50.0909 483.359 50.1749C483.359 50.259 483.342 50.3423 483.31 50.42C483.25 50.61 483.18 50.77 483.12 50.92C483.117 50.9432 483.117 50.9667 483.12 50.9899C482.698 52.3121 482.403 53.6716 482.24 55.0499C482.03 56.6299 481.87 58.24 481.75 59.88C482.744 59.0149 483.664 58.0683 484.5 57.0499C485.02 56.3499 485.67 55.38 486.44 54.14C486.91 53.4 487.35 52.71 487.76 52.09C488.065 51.626 488.399 51.1818 488.76 50.76C489.44 50.2881 490.227 49.9926 491.05 49.8999C491.974 49.7589 492.906 49.6754 493.84 49.6499H494.6C494.87 49.5399 495.04 49.5599 495.1 49.7099C495.164 49.8946 495.164 50.0953 495.1 50.28C495.032 50.514 494.952 50.7443 494.86 50.97C494.76 51.18 494.7 51.3099 494.66 51.3699C493.799 52.8983 492.834 54.3652 491.77 55.76C490.77 57.06 489.643 58.3933 488.39 59.76L488.88 60.9899C489.44 62.4099 489.98 63.7299 490.51 64.9899C491.04 66.2499 491.7 67.6199 492.51 69.1799C493.177 70.2666 493.977 71.4966 494.91 72.8699C495.765 74.0926 496.687 75.2677 497.67 76.39C497.843 76.4755 497.994 76.5991 498.112 76.7516C498.229 76.904 498.311 77.0813 498.35 77.2699C498.375 77.4653 498.354 77.6637 498.29 77.85C498.227 78.1138 498.151 78.3742 498.06 78.63C497.995 78.8322 497.914 79.0294 497.82 79.22C497.46 79.45 496.9 79.3999 496.14 79.0499C495.341 78.6772 494.589 78.2106 493.9 77.66C493.294 77.2029 492.743 76.6759 492.26 76.09C491.32 74.5633 490.363 73.0466 489.39 71.54C489.01 71.02 488.48 70.23 487.79 69.17C487.1 68.11 486.46 67.05 485.87 66.01C485.405 65.2931 485.067 64.5015 484.87 63.67L484.31 64.26C483.84 64.77 483.31 65.2599 482.76 65.8299C482.375 66.2565 481.905 66.5972 481.38 66.8299C481.38 69.5199 481.38 72.22 481.5 74.91C481.5 75.47 481.5 76.0199 481.5 76.5499C481.598 76.7674 481.643 77.0052 481.631 77.2434C481.619 77.4817 481.55 77.7136 481.43 77.92C481.172 78.1621 480.842 78.3131 480.49 78.35C480.125 78.4214 479.752 78.4482 479.38 78.4299C478.727 78.0594 478.243 77.45 478.03 76.73C477.654 75.8108 477.373 74.8559 477.19 73.88C477.03 73.1797 476.93 72.4671 476.89 71.75C476.97 70.59 477.02 69.4 477.03 68.19C477.04 66.98 477.03 65.8 477.03 64.64C476.95 62.74 476.917 60.6433 476.93 58.35C476.928 56.3158 477.098 54.2852 477.44 52.28C477.628 51.7998 477.912 51.3631 478.275 50.9968C478.638 50.6305 479.072 50.3423 479.55 50.1499C480.576 49.7092 481.706 49.5638 482.81 49.73Z" fill="black"/>
<path d="M512.4 52.4399C512.61 52.5799 512.69 52.6899 512.65 52.7699C512.557 52.8733 512.428 52.9376 512.29 52.95C512.09 52.95 511.87 53.0199 511.62 53.0499C511.304 53.0798 510.99 53.1299 510.68 53.2C510.38 53.3098 510.098 53.4612 509.84 53.6499C508.934 54.3206 508.206 55.203 507.72 56.2199C507.162 57.3472 506.736 58.535 506.45 59.76C506.164 60.915 505.98 62.0928 505.9 63.2799C505.82 64.7082 505.87 66.1408 506.05 67.5599C506.252 69.0399 506.68 70.4801 507.32 71.8299C508.34 73.9233 509.853 74.8633 511.86 74.6499C513.586 74.4944 515.218 73.794 516.52 72.6499C517.843 71.4755 518.871 70.0058 519.52 68.3599C520.221 66.6251 520.61 64.7801 520.67 62.9099C520.741 61.0538 520.473 59.2003 519.88 57.4399C519.562 56.5508 519.136 55.7044 518.61 54.92C518.169 54.3468 517.673 53.8177 517.13 53.3399C516.63 52.8479 516.065 52.4273 515.45 52.0899C514.55 51.4833 513.81 51.0233 513.23 50.7099C512.65 50.4099 511.88 50.0499 510.9 49.6499C511.03 49.3599 511.45 49.19 512.17 49.14C512.922 49.0805 513.678 49.0805 514.43 49.14C515.014 49.1798 515.595 49.2532 516.17 49.3599C517.913 49.9136 519.491 50.8931 520.76 52.2099C522.327 53.9269 523.522 55.9496 524.268 58.1508C525.015 60.352 525.299 62.684 525.1 64.9999C524.823 67.3379 524.147 69.611 523.1 71.7199C522.075 73.7646 520.556 75.521 518.68 76.8299C517.649 77.5418 516.516 78.0947 515.32 78.4699C514.049 78.8776 512.713 79.0471 511.38 78.9699C509.965 78.8777 508.593 78.4454 507.38 77.7099C505.705 76.6807 504.326 75.2333 503.38 73.51C502.401 71.7485 501.725 69.8353 501.38 67.85C501.013 65.8725 500.888 63.8576 501.01 61.85C501.082 60.1207 501.384 58.4089 501.91 56.76C502.401 55.015 503.456 53.4817 504.91 52.3999C505.507 51.9042 506.183 51.5121 506.91 51.2399C507.657 50.9609 508.454 50.8384 509.25 50.88C509.847 50.917 510.434 51.0487 510.99 51.2699C511.548 51.5394 512.032 51.9411 512.4 52.4399Z" fill="black"/>
</svg>
