<svg width="119" height="35" viewBox="0 0 119 35" fill="none" xmlns="http://www.w3.org/2000/svg">
<path d="M0.730123 13.58C0.520123 13.29 0.47015 13.1001 0.57015 13.0201C0.645103 12.9768 0.728045 12.9491 0.813986 12.9388C0.899927 12.9285 0.987082 12.9357 1.07015 12.96C1.28548 12.9885 1.49914 13.0286 1.71016 13.08C3.73458 13.6242 5.80229 13.9924 7.89016 14.1801L8.46017 14.2601C9.39571 14.3249 10.3346 14.3249 11.2702 14.2601C12.3602 14.2001 13.2701 14.1301 14.1301 14.0501C14.3003 13.9505 14.4986 13.9103 14.6941 13.9356C14.8895 13.9609 15.0711 14.0504 15.2102 14.19C15.427 14.3526 15.6132 14.5524 15.7602 14.7801C15.9602 15.0701 16.1502 15.38 16.3302 15.7C16.4689 15.9489 16.5925 16.2061 16.7002 16.47C16.7602 16.71 16.5601 17.0601 16.1001 17.5501C15.6189 18.0439 15.082 18.4801 14.5001 18.85C14.0998 19.1691 13.6111 19.3577 13.1001 19.3901C12.5801 19.3401 12.0501 19.3001 11.5001 19.2801H9.93014C9.0599 19.421 8.18133 19.5045 7.30013 19.5301C6.40596 19.5795 5.50945 19.4953 4.64016 19.2801C3.67731 18.633 2.89036 17.7566 2.35012 16.73C1.74822 15.713 1.20727 14.6612 0.730123 13.58Z" fill="black"/>
<path d="M20.6301 2.00002C20.4101 1.72002 20.3401 1.53007 20.4101 1.43007C20.4653 1.37391 20.5332 1.33176 20.608 1.30739C20.6829 1.28302 20.7625 1.27714 20.8402 1.29005C21.0454 1.29189 21.2498 1.3153 21.4501 1.36C23.7246 1.69516 26.0211 1.85894 28.3201 1.84999C28.8501 1.84999 29.3201 1.85005 29.8601 1.91005C31.1201 1.91005 32.5201 1.74005 34.0601 1.54005C35.6001 1.34005 36.9901 1.11 38.2301 0.860001C38.4572 0.724996 38.712 0.643136 38.9752 0.620621C39.2385 0.598107 39.5034 0.635518 39.7501 0.729996C40.1896 0.943084 40.5888 1.23064 40.9301 1.57997C41.2898 1.92889 41.624 2.30318 41.9301 2.69997C41.9301 3.12997 41.6401 3.62007 40.9301 4.18007C40.2229 4.7553 39.4551 5.25156 38.6401 5.66005C37.9985 6.01748 37.3026 6.26744 36.5801 6.40004C34.9861 6.40278 33.3935 6.49629 31.8101 6.68007C31.0501 6.81007 30.1401 6.93997 29.0701 7.07997C28.9583 7.24119 28.8548 7.40808 28.7601 7.57997L28.6301 7.84999C27.859 9.30133 27.1907 10.805 26.6301 12.35L26.1901 13.95C27.4001 13.62 28.7701 13.3201 30.3001 13.0601C31.8232 12.8083 33.371 12.7411 34.9101 12.86C36.4383 12.9622 37.9213 13.4211 39.2401 14.2C40.4374 14.904 41.3981 15.9483 42.0001 17.2C42.5122 18.3245 42.7813 19.5444 42.7901 20.78C42.8052 21.9732 42.6845 23.1641 42.4301 24.33C42.0909 25.9139 41.3506 27.3842 40.2802 28.6C39.2003 29.8122 37.9178 30.8273 36.4901 31.6C35.0569 32.3901 33.5322 33.0014 31.9501 33.4201C30.8768 33.7353 29.7846 33.9824 28.6801 34.16C27.5395 34.3514 26.3734 34.331 25.2401 34.1H25.1801H25.0701H24.8901C24.2084 33.9045 23.5771 33.5633 23.0401 33.1C22.5625 32.6996 22.1713 32.2063 21.8901 31.65C21.7862 31.4763 21.7313 31.2775 21.7313 31.075C21.7313 30.8725 21.7862 30.6738 21.8901 30.5C21.9218 30.4868 21.9558 30.48 21.9901 30.48C22.0244 30.48 22.0585 30.4868 22.0902 30.5L22.3501 30.6C22.4058 30.6354 22.4665 30.6624 22.5302 30.6801C23.8408 30.8563 25.1746 30.7016 26.4101 30.23C27.6059 29.8595 28.7752 29.4085 29.9101 28.88C30.2601 28.71 30.6402 28.53 31.0302 28.36C32.4584 27.7371 33.8245 26.9804 35.1101 26.1C36.3423 25.2973 37.2303 24.0634 37.6001 22.64C37.8801 21.1 37.7301 20.0001 37.1401 19.3101C36.8133 18.9579 36.4193 18.6747 35.9814 18.4772C35.5434 18.2797 35.0704 18.1719 34.5902 18.16C33.3824 18.0789 32.1691 18.1528 30.9801 18.38C29.6801 18.62 28.4501 18.8801 27.3001 19.1701C26.4301 19.3901 25.7001 19.55 25.1001 19.66C24.9148 19.6492 24.7308 19.6223 24.5501 19.58L23.7601 19.41C23.3801 19.33 23.0601 19.26 22.7601 19.22C21.3301 18.79 20.5301 18.22 20.3801 17.48C20.2242 16.711 20.2724 15.9146 20.5201 15.1701C20.9467 14.0116 21.281 12.8211 21.5201 11.61C21.5201 11.54 21.5201 11.47 21.5201 11.39C21.5801 11.09 21.6501 10.6801 21.7201 10.1801C21.8265 9.30245 21.9801 8.43109 22.1801 7.56996C22.2576 6.92387 22.571 6.32923 23.0601 5.90004C22.1653 4.78935 21.3658 3.60511 20.6701 2.36C20.6653 2.2392 20.652 2.11892 20.6301 2.00002Z" fill="black"/>
<path d="M46.4103 2.00003C46.1903 1.72003 46.1103 1.53008 46.1903 1.43008C46.2444 1.37247 46.3122 1.32943 46.3874 1.30496C46.4626 1.28049 46.5426 1.27536 46.6203 1.29007C46.8222 1.29245 47.0233 1.31586 47.2203 1.36002C49.4981 1.6953 51.7979 1.85908 54.1003 1.85001C54.6303 1.85001 55.1003 1.85006 55.6403 1.91006C56.9003 1.91006 58.2903 1.74007 59.8303 1.54007C61.3703 1.34007 62.7603 1.11002 64.0103 0.860016C64.2356 0.72517 64.4887 0.643404 64.7503 0.62088C65.0119 0.598357 65.2753 0.635661 65.5203 0.730011C65.9623 0.938862 66.3622 1.22693 66.7003 1.57999C67.06 1.92891 67.3942 2.3032 67.7003 2.69998C67.7003 3.12998 67.4103 3.62008 66.7003 4.18008C65.9896 4.75541 65.2184 5.25165 64.4003 5.66007C63.7614 6.01567 63.0691 6.26555 62.3503 6.40006C60.7562 6.40212 59.1637 6.49564 57.5803 6.68008C56.8203 6.81008 55.9003 6.93999 54.8303 7.07999C54.7185 7.24121 54.615 7.4081 54.5203 7.57999L54.3903 7.85001C53.6192 9.30135 52.9508 10.805 52.3903 12.35L51.9503 13.95C53.1703 13.62 54.5403 13.3201 56.0603 13.0601C57.5867 12.8084 59.1379 12.7412 60.6803 12.86C62.2051 12.9637 63.6845 13.4226 65.0003 14.2C66.1976 14.904 67.1583 15.9483 67.7603 17.2C68.277 18.323 68.5464 19.5439 68.5503 20.7801C68.5654 21.9732 68.4447 23.1642 68.1903 24.33C67.8506 25.9118 67.1142 27.3812 66.0503 28.6C64.9678 29.8094 63.6859 30.8241 62.2603 31.6C60.8235 32.3898 59.2955 33.0011 57.7103 33.4201C56.6404 33.7354 55.5515 33.9825 54.4503 34.1601C53.3097 34.3514 52.1436 34.331 51.0103 34.1H51.0003H50.8903H50.7203C50.0346 33.9067 49.3997 33.5654 48.8603 33.1C48.3826 32.7022 47.9941 32.2082 47.7203 31.6501C47.6142 31.477 47.558 31.2779 47.558 31.075C47.558 30.872 47.6142 30.6731 47.7203 30.5C47.752 30.4868 47.786 30.48 47.8203 30.48C47.8546 30.48 47.8886 30.4868 47.9203 30.5L48.1903 30.6L48.3603 30.6801C49.6709 30.8568 51.0049 30.702 52.2403 30.23C53.4361 29.8595 54.6054 29.4085 55.7403 28.88C56.1003 28.71 56.4703 28.53 56.8603 28.36C58.2896 27.7393 59.656 26.9825 60.9403 26.1C62.178 25.3031 63.0677 24.0668 63.4303 22.64C63.7103 21.1 63.5603 20.0001 62.9703 19.3101C62.6449 18.9562 62.2513 18.6717 61.813 18.474C61.3747 18.2764 60.901 18.1696 60.4203 18.1601C59.2125 18.0791 57.9993 18.153 56.8103 18.38C55.5103 18.62 54.2903 18.8801 53.1303 19.1701C52.2703 19.3901 51.5303 19.5501 50.9303 19.6601C50.745 19.6492 50.561 19.6224 50.3803 19.58L49.5903 19.4101C49.2103 19.3301 48.8903 19.26 48.5903 19.22C47.1503 18.79 46.3603 18.22 46.2003 17.48C46.0494 16.7107 46.0976 15.9156 46.3403 15.1701C46.7669 14.0116 47.1012 12.8212 47.3403 11.61C47.3403 11.54 47.3403 11.47 47.3403 11.39C47.4003 11.09 47.4603 10.6801 47.5303 10.1801C47.6402 9.3023 47.7971 8.43094 48.0003 7.56998C48.0705 6.92387 48.381 6.32785 48.8703 5.90006C47.9755 4.78936 47.176 3.60513 46.4803 2.36002C46.4655 2.23852 46.4421 2.11823 46.4103 2.00003Z" fill="black"/>
<path d="M84.7501 4.31009C84.9801 4.47009 85.0801 4.60009 85.0201 4.68009C84.9712 4.73958 84.9103 4.78809 84.8414 4.82254C84.7724 4.857 84.6971 4.87657 84.6201 4.88004C84.3724 4.93081 84.122 4.96752 83.8701 4.99002C83.5333 5.02909 83.1993 5.08926 82.8701 5.17008C82.5101 5.27696 82.1716 5.4462 81.8701 5.67008C80.8494 6.42111 80.0315 7.41428 79.4901 8.56009C78.8496 9.83007 78.366 11.1733 78.0501 12.5601C77.73 13.8734 77.5226 15.2115 77.4301 16.5601C77.3406 18.1689 77.4009 19.7824 77.6101 21.38C77.8296 23.0488 78.3123 24.6723 79.0401 26.19C80.1801 28.53 81.8801 29.59 84.1301 29.35C86.0789 29.1815 87.9223 28.393 89.3901 27.1C90.8545 25.7715 91.9909 24.1217 92.7101 22.2801C93.5026 20.3301 93.9395 18.254 94.0001 16.1501C94.0823 14.0636 93.7841 11.9797 93.1201 10C92.7614 8.99842 92.2812 8.04465 91.6901 7.16007C91.1858 6.51971 90.6271 5.92413 90.0201 5.38004C89.4539 4.83014 88.8185 4.35614 88.1301 3.97C87.3273 3.41392 86.4962 2.89997 85.6401 2.43009C84.7842 1.98615 83.9064 1.58556 83.0101 1.23001C83.1601 0.910014 83.6401 0.720067 84.4401 0.660067C85.2887 0.590524 86.1415 0.590524 86.9901 0.660067C87.6609 0.705644 88.3287 0.78911 88.9901 0.910067C90.9522 1.53008 92.7268 2.63395 94.1501 4.12003C95.9119 6.04575 97.2579 8.31383 98.1044 10.7827C98.9509 13.2517 99.2796 15.8684 99.0701 18.47C98.7477 21.1018 97.9765 23.6589 96.7901 26.0301C95.6271 28.3324 93.9087 30.3087 91.7901 31.7801C90.6288 32.5783 89.3548 33.1985 88.0101 33.62C86.5778 34.0816 85.0726 34.2748 83.5701 34.19C81.9705 34.0906 80.4191 33.6033 79.0501 32.7701C77.166 31.6138 75.6152 29.9872 74.5501 28.0501C73.4526 26.0659 72.6923 23.9133 72.3001 21.6801C71.895 19.4713 71.7541 17.2221 71.8801 14.98C71.9704 13.0322 72.3064 11.1036 72.8801 9.24002C73.4454 7.27536 74.6442 5.55264 76.2901 4.34C76.9474 3.78675 77.6905 3.34435 78.4901 3.03006C79.3309 2.72095 80.2254 2.58487 81.1201 2.63004C81.8067 2.6639 82.4827 2.81257 83.1201 3.06998C83.7566 3.34391 84.3163 3.76977 84.7501 4.31009Z" fill="black"/>
<path d="M102.72 13.5799C102.52 13.2899 102.47 13.1 102.57 13.02C102.643 12.977 102.725 12.9494 102.809 12.939C102.893 12.9287 102.979 12.9358 103.06 12.9599C103.279 12.9875 103.496 13.0276 103.71 13.0799C105.734 13.6241 107.802 13.9923 109.89 14.18L110.46 14.26C111.396 14.3248 112.334 14.3248 113.27 14.26C114.35 14.2 115.27 14.13 116.13 14.05C116.299 13.9512 116.495 13.9114 116.689 13.9367C116.883 13.9621 117.063 14.0511 117.2 14.1899C117.419 14.3497 117.606 14.5501 117.75 14.78C117.961 15.0732 118.151 15.3805 118.32 15.6999C118.461 15.9491 118.588 16.2062 118.7 16.4699C118.7 16.7099 118.55 17.06 118.09 17.55C117.615 18.046 117.081 18.4825 116.5 18.8499C116.097 19.171 115.604 19.3596 115.09 19.39C114.58 19.34 114.09 19.3 113.5 19.28H111.93C111.056 19.4214 110.175 19.5049 109.29 19.53C108.396 19.5781 107.5 19.4939 106.63 19.28C105.671 18.6316 104.887 17.7554 104.35 16.7299C103.749 15.7107 103.205 14.659 102.72 13.5799Z" fill="black"/>
</svg>
