<svg width="878" height="196" viewBox="0 0 878 196" fill="none" xmlns="http://www.w3.org/2000/svg">
<path d="M52.4502 137.61L35.5902 159.14L18.7002 137.61H1.49023L27.8502 171.25V193.86H43.4102V171.05L69.6602 137.61H52.4502Z" fill="black"/>
<path d="M116.72 168.74C116.787 171.056 116.286 173.353 115.26 175.43C114.303 177.284 112.779 178.783 110.91 179.71C108.686 180.693 106.282 181.2 103.85 181.2C101.419 181.2 99.0142 180.693 96.7902 179.71C94.9208 178.772 93.3924 177.272 92.4202 175.42C91.4033 173.35 90.9024 171.065 90.9603 168.76V137.61H75.4002V169.49C75.3187 174.209 76.5662 178.856 79.0003 182.9C81.4074 186.792 84.877 189.915 89.0002 191.9C93.6817 194.006 98.7568 195.095 103.89 195.095C109.024 195.095 114.099 194.006 118.78 191.9C122.916 189.933 126.39 186.806 128.78 182.9C131.197 178.847 132.427 174.198 132.33 169.48V137.61H116.72V168.74Z" fill="black"/>
<path d="M183.93 178.74L166.79 137.61H142.75V193.86H157.56V151.38L176.01 193.86H191.72L210.21 151.2V193.86H224.99V137.61H200.99L183.93 178.74Z" fill="black"/>
<path d="M282.44 137.61L265.57 159.14L248.69 137.61H231.47L257.83 171.25V193.86H273.4V171.05L299.65 137.61H282.44Z" fill="black"/>
<path d="M338.38 150.78H372.62V137.61H322.82V193.86H338.38V173.8H371.24V160.64H338.38V150.78Z" fill="black"/>
<path d="M397.33 137.61L371.72 193.86H388.33L393 183H422.06L426.75 193.83H443.33L417.75 137.58L397.33 137.61ZM398.42 170.54L407.54 149.45L416.67 170.54H398.42Z" fill="black"/>
<path d="M492.92 162.4C488.789 160.98 484.488 160.11 480.13 159.81L468.92 158.73C467.224 158.565 465.549 158.23 463.92 157.73C462.916 157.463 462.006 156.923 461.29 156.17C460.767 155.512 460.494 154.69 460.52 153.85C460.515 153.28 460.635 152.716 460.871 152.198C461.108 151.679 461.456 151.219 461.89 150.85C463.026 149.92 464.371 149.281 465.81 148.99C467.806 148.547 469.846 148.339 471.89 148.37C474.126 148.334 476.356 148.6 478.52 149.16C480.154 149.56 481.671 150.337 482.95 151.43C483.972 152.324 484.639 153.556 484.83 154.9H500.65C500.423 151.304 498.989 147.89 496.58 145.21C493.855 142.216 490.414 139.962 486.58 138.66C481.961 137.044 477.093 136.259 472.2 136.34C467.29 136.243 462.397 136.96 457.72 138.46C454.021 139.592 450.711 141.732 448.16 144.64C445.893 147.399 444.693 150.88 444.78 154.45C444.695 157.399 445.5 160.305 447.09 162.79C448.886 165.311 451.382 167.248 454.27 168.36C458.313 169.944 462.577 170.892 466.91 171.17L477.34 172.17C479.186 172.315 481.013 172.65 482.79 173.17C483.856 173.449 484.825 174.017 485.59 174.81C486.149 175.517 486.44 176.399 486.41 177.3C486.412 177.902 486.28 178.497 486.024 179.041C485.768 179.586 485.394 180.067 484.93 180.45C483.705 181.446 482.257 182.132 480.71 182.45C478.556 182.921 476.355 183.139 474.15 183.1C471.729 183.142 469.314 182.836 466.98 182.19C465.17 181.704 463.501 180.795 462.11 179.54C460.949 178.462 460.194 177.018 459.97 175.45H444.1C444.175 179.224 445.553 182.856 448 185.73C450.805 188.912 454.399 191.299 458.42 192.65C463.35 194.361 468.543 195.19 473.76 195.1C478.804 195.195 483.823 194.368 488.57 192.66C492.45 191.318 495.887 188.938 498.51 185.78C500.844 182.863 502.088 179.225 502.03 175.49C502.143 172.645 501.386 169.834 499.86 167.43C498.115 165.084 495.693 163.329 492.92 162.4Z" fill="black"/>
<path d="M554.91 158.43H526.15V137.61H510.58V193.86H526.15V172.15H554.91V193.86H570.47V137.61H554.91V158.43Z" fill="black"/>
<path d="M597.21 137.61H581.65V193.86H597.21V137.61Z" fill="black"/>
<path d="M656.87 140.05C651.354 137.626 645.395 136.374 639.37 136.374C633.345 136.374 627.386 137.626 621.87 140.05C617.043 142.298 612.962 145.883 610.11 150.38C607.386 155.041 605.951 160.342 605.951 165.74C605.951 171.138 607.386 176.439 610.11 181.1C612.962 185.597 617.043 189.182 621.87 191.43C627.386 193.854 633.345 195.106 639.37 195.106C645.395 195.106 651.354 193.854 656.87 191.43C661.692 189.175 665.772 185.591 668.63 181.1C671.367 176.444 672.81 171.141 672.81 165.74C672.81 160.339 671.367 155.036 668.63 150.38C665.772 145.889 661.692 142.305 656.87 140.05ZM654.94 174C653.468 176.353 651.327 178.213 648.79 179.34C642.758 181.82 635.992 181.82 629.96 179.34C627.428 178.215 625.292 176.354 623.83 174C622.429 171.476 621.694 168.637 621.694 165.75C621.694 162.863 622.429 160.024 623.83 157.5C625.289 155.143 627.426 153.282 629.96 152.16C635.992 149.68 642.758 149.68 648.79 152.16C651.329 153.284 653.471 155.144 654.94 157.5C656.356 160.019 657.099 162.86 657.099 165.75C657.099 168.64 656.356 171.481 654.94 174Z" fill="black"/>
<path d="M728.91 176.23L701.68 137.61H681.54V193.86H696.66V154.37L724.41 193.86H743.98V137.61H728.91V176.23Z" fill="black"/>
<path d="M771.79 171.4H803.27V160.08H771.79L770.18 150.21H805.44V137.61H753.51L757.78 165.74L753.51 193.86H805.82V181.26H770.18L771.79 171.4Z" fill="black"/>
<path d="M872.76 151C869.859 146.656 865.78 143.229 861 141.12C855.5 138.687 849.534 137.489 843.52 137.61H815.46V193.86H843.54C849.553 193.984 855.519 192.789 861.02 190.36C865.79 188.254 869.862 184.834 872.76 180.5C875.481 176.058 876.921 170.949 876.921 165.74C876.921 160.531 875.481 155.422 872.76 150.98V151ZM859.2 173.31C857.825 175.509 855.827 177.249 853.46 178.31C850.709 179.532 847.721 180.13 844.71 180.06H830.94V151.45H844.71C847.721 151.38 850.709 151.978 853.46 153.2C855.828 154.26 857.826 156 859.2 158.2C860.518 160.507 861.21 163.118 861.21 165.775C861.21 168.432 860.518 171.043 859.2 173.35V173.31Z" fill="black"/>
<path d="M43.91 118.8H27.35V95.86L0.459961 61.55H18.94L35.59 82.77L52.21 61.55H70.69L43.91 95.67V118.8ZM28.35 117.8H42.91V95.32L43.02 95.19L68.63 62.55H52.69L35.59 84.39L18.46 62.55H2.50996L28.35 95.55V117.8Z" fill="black"/>
<path d="M103.86 120C98.638 120.104 93.4641 118.988 88.7497 116.74C84.5441 114.711 81.0028 111.527 78.5397 107.56C76.069 103.435 74.8077 98.6978 74.8997 93.89V61.55H91.4597V93.18C91.3994 95.4029 91.8834 97.6069 92.8697 99.6C93.7927 101.363 95.2437 102.793 97.0197 103.69C99.1728 104.635 101.499 105.122 103.85 105.122C106.201 105.122 108.527 104.635 110.68 103.69C112.456 102.81 113.905 101.388 114.82 99.63C115.8 97.6208 116.28 95.4046 116.22 93.17V61.55H132.79V93.93C132.879 98.7379 131.625 103.475 129.17 107.61C126.733 111.587 123.202 114.777 119 116.8C114.268 119.022 109.086 120.118 103.86 120ZM75.8597 62.51V93.93C75.7661 98.5508 76.9756 103.105 79.3497 107.07C81.7127 110.885 85.1162 113.945 89.1597 115.89C93.7718 117.96 98.7696 119.03 103.825 119.03C108.88 119.03 113.878 117.96 118.49 115.89C122.532 113.95 125.93 110.889 128.28 107.07C130.637 103.091 131.839 98.5339 131.75 93.91V62.55H117.22V93.18C117.282 95.5759 116.761 97.9509 115.7 100.1C114.694 102.042 113.098 103.615 111.14 104.59C108.845 105.612 106.361 106.14 103.85 106.14C101.338 106.14 98.8543 105.612 96.5597 104.59C94.5998 103.606 92.998 102.032 91.9797 100.09C90.9227 97.9502 90.4011 95.5858 90.4597 93.2V62.55L75.8597 62.51Z" fill="black"/>
<path d="M225.49 118.8H209.71V78.06L192.05 118.8H175.68L158.06 78.22V118.8H142.25V61.55H167.12L183.93 101.88L200.65 61.55H225.49V118.8ZM210.71 117.8H224.49V62.55H201.32L183.94 104.49L166.45 62.55H143.25V117.8H157.06V75.8L158.06 75.6L176.38 117.78H191.43L209.79 75.43L210.79 75.62L210.71 117.8Z" fill="black"/>
<path d="M273.9 118.8H257.34V95.86L230.45 61.55H248.93L265.58 82.77L282.19 61.55H300.68L273.9 95.67V118.8ZM258.34 117.8H272.9V95.32L273.01 95.19L298.62 62.55H282.68L265.58 84.39L248.44 62.55H232.5L258.34 95.55V117.8Z" fill="black"/>
<path d="M338.88 118.8H322.32V61.55H373.12V75.72H338.88V84.58H371.73V98.74H338.88V118.8ZM323.32 117.8H337.88V97.74H370.73V85.58H337.88V74.72H372.12V62.55H323.32V117.8Z" fill="black"/>
<path d="M444.12 118.8H426.44L421.75 108H393.35L388.66 118.83H371L397 61.55H418.08L444.12 118.8ZM427.12 117.8H442.59L417.45 62.55H397.66L372.5 117.8H388L392.69 107H422.41L427.12 117.8ZM417.45 95.48H397.66L407.54 72.63L417.45 95.48ZM399.2 94.48H415.93L407.56 75.15L399.2 94.48Z" fill="black"/>
<path d="M473.8 120C468.524 120.087 463.274 119.244 458.29 117.51C454.186 116.129 450.517 113.695 447.65 110.45C445.135 107.475 443.723 103.725 443.65 99.83V99.31H460.43L460.49 99.74C460.696 101.2 461.403 102.543 462.49 103.54C463.829 104.74 465.432 105.607 467.17 106.07C469.449 106.697 471.806 106.997 474.17 106.96C476.334 106.997 478.495 106.782 480.61 106.32C482.075 106.036 483.448 105.397 484.61 104.46C485.021 104.125 485.351 103.702 485.578 103.223C485.805 102.744 485.922 102.22 485.92 101.69C485.954 100.901 485.702 100.127 485.21 99.51C484.505 98.7979 483.62 98.2899 482.65 98.04C480.905 97.5268 479.112 97.1918 477.3 97.04L466.87 96.04C462.464 95.7954 458.123 94.8711 454 93.3C451.028 92.1418 448.456 90.144 446.6 87.55C444.866 84.68 444.042 81.3517 444.239 78.0042C444.435 74.6567 445.642 71.4475 447.7 68.8C450.316 65.8246 453.704 63.6304 457.49 62.46C462.221 60.9532 467.166 60.2303 472.13 60.32C477.08 60.2448 482.005 61.0402 486.68 62.67C490.595 64.0045 494.11 66.3056 496.9 69.36C499.376 72.1308 500.851 75.6518 501.09 79.36V79.89H484.35L484.29 79.45C484.123 78.2215 483.511 77.097 482.57 76.29C481.352 75.2495 479.906 74.5096 478.35 74.13C476.228 73.5824 474.041 73.3234 471.85 73.36C469.833 73.3273 467.819 73.5321 465.85 73.97C464.493 74.2407 463.224 74.8379 462.15 75.71C461.779 76.0365 461.484 76.4401 461.285 76.8927C461.086 77.3453 460.989 77.8358 461 78.33C460.976 79.0537 461.21 79.7624 461.66 80.33C462.319 81.0045 463.148 81.4882 464.06 81.73C465.667 82.2088 467.319 82.5205 468.99 82.66L480.2 83.75C484.603 84.0519 488.947 84.9328 493.12 86.37C495.999 87.3235 498.516 89.1388 500.33 91.57C501.91 94.0609 502.698 96.9722 502.59 99.92C502.642 103.767 501.36 107.513 498.96 110.52C496.271 113.728 492.764 116.147 488.81 117.52C483.998 119.248 478.912 120.088 473.8 120ZM444.62 100.31C444.81 103.805 446.146 107.14 448.42 109.8C451.169 112.917 454.691 115.255 458.63 116.58C463.506 118.27 468.64 119.089 473.8 119C478.781 119.088 483.738 118.275 488.43 116.6C492.221 115.276 495.584 112.951 498.16 109.87C500.418 107.031 501.623 103.497 501.57 99.87C501.679 97.1247 500.95 94.4112 499.48 92.09C497.782 89.8248 495.429 88.1354 492.74 87.25C488.652 85.8521 484.4 84.9916 480.09 84.69L468.87 83.6C467.122 83.4525 465.396 83.1172 463.72 82.6C462.638 82.3452 461.651 81.7906 460.87 81C460.266 80.2551 459.951 79.3182 459.98 78.36C459.977 77.7216 460.113 77.0903 460.379 76.51C460.645 75.9297 461.034 75.4144 461.52 75C462.71 74.0013 464.129 73.314 465.65 73C467.684 72.5451 469.765 72.3304 471.85 72.36C474.133 72.3267 476.409 72.5991 478.62 73.17C480.327 73.5922 481.913 74.4071 483.25 75.55C484.257 76.4202 484.958 77.5911 485.25 78.89H500.11C499.771 75.5823 498.387 72.4685 496.16 70C493.478 67.0782 490.105 64.8774 486.35 63.6C481.788 62.0089 476.981 61.2337 472.15 61.31C467.294 61.2192 462.457 61.9252 457.83 63.4C454.222 64.4986 450.989 66.5755 448.49 69.4C446.305 72.0728 445.149 75.4389 445.23 78.89C445.143 81.7558 445.92 84.5816 447.46 87C449.216 89.4405 451.65 91.3114 454.46 92.38C458.455 93.9445 462.668 94.8822 466.95 95.16L477.37 96.16C479.253 96.2997 481.116 96.6348 482.93 97.16C484.078 97.4634 485.118 98.0837 485.93 98.95C486.568 99.7449 486.901 100.741 486.87 101.76C486.871 102.432 486.723 103.096 486.438 103.704C486.153 104.313 485.737 104.851 485.22 105.28C483.935 106.324 482.414 107.038 480.79 107.36C478.597 107.842 476.355 108.067 474.11 108.03C471.641 108.072 469.178 107.756 466.8 107.09C464.912 106.585 463.171 105.639 461.72 104.33C460.581 103.262 459.808 101.862 459.51 100.33L444.62 100.31Z" fill="black"/>
<path d="M571 118.8H554.41V97.09H526.65V118.8H510.08V61.55H526.65V82.37H554.41V61.55H571V118.8ZM555.44 117.8H570V62.55H555.41V83.37H525.65V62.55H511.08V117.8H525.65V96.09H555.41L555.44 117.8Z" fill="black"/>
<path d="M597.71 118.8H581.15V61.55H597.71V118.8ZM582.15 117.8H596.71V62.55H582.15V117.8Z" fill="black"/>
<path d="M639.39 120C633.281 120.115 627.226 118.843 621.68 116.28C616.756 113.994 612.591 110.343 609.68 105.76C606.813 101.061 605.342 95.6435 605.44 90.14C605.342 84.6364 606.813 79.2187 609.68 74.52C612.591 69.937 616.756 66.2857 621.68 64C627.26 61.5472 633.29 60.2806 639.385 60.2806C645.481 60.2806 651.51 61.5472 657.09 64C662.009 66.2942 666.172 69.9436 669.09 74.52C671.968 79.2148 673.446 84.6339 673.35 90.14C673.446 95.646 671.968 101.065 669.09 105.76C666.172 110.336 662.009 113.986 657.09 116.28C651.548 118.845 645.496 120.117 639.39 120ZM639.39 61.28C633.434 61.1669 627.53 62.4045 622.12 64.9C617.38 67.1106 613.372 70.6328 610.57 75.05C607.802 79.5896 606.383 84.8236 606.48 90.14C606.383 95.4563 607.802 100.69 610.57 105.23C613.372 109.647 617.38 113.169 622.12 115.38C627.563 117.766 633.442 118.998 639.385 118.998C645.328 118.998 651.207 117.766 656.65 115.38C661.387 113.164 665.394 109.643 668.2 105.23C670.984 100.696 672.41 95.4594 672.31 90.14C672.411 84.8204 670.985 79.5835 668.2 75.05C665.394 70.6372 661.387 67.1162 656.65 64.9C651.242 62.4161 645.34 61.192 639.39 61.32V61.28ZM639.39 106.09C636.077 106.163 632.788 105.515 629.75 104.19C627.131 103.017 624.923 101.088 623.41 98.65C621.958 96.0523 621.196 93.1259 621.196 90.15C621.196 87.174 621.958 84.2476 623.41 81.65C624.923 79.2121 627.131 77.2827 629.75 76.11C635.917 73.5767 642.833 73.5767 649 76.11C651.625 77.282 653.839 79.2111 655.36 81.65C656.819 84.2455 657.585 87.1727 657.585 90.15C657.585 93.1273 656.819 96.0544 655.36 98.65C653.836 101.086 651.623 103.015 649 104.19C645.976 105.527 642.696 106.189 639.39 106.13V106.09ZM639.39 75.19C636.222 75.1175 633.076 75.7351 630.17 77C627.728 78.085 625.669 79.8793 624.26 82.15C622.899 84.5968 622.185 87.3502 622.185 90.15C622.185 92.9497 622.899 95.7032 624.26 98.15C625.669 100.421 627.728 102.215 630.17 103.3C636.069 105.713 642.681 105.713 648.58 103.3C651.024 102.21 653.088 100.417 654.51 98.15C655.877 95.7053 656.595 92.951 656.595 90.15C656.595 87.3489 655.877 84.5947 654.51 82.15C653.088 79.8827 651.024 78.09 648.58 77C645.681 75.7507 642.546 75.1467 639.39 75.23V75.19Z" fill="black"/>
<path d="M744.48 118.8H724.15L697.15 80.39V118.8H681V61.55H701.9L728.41 99.1V61.55H744.48V118.8ZM724.67 117.8H743.48V62.55H729.41V102.25L701.41 62.55H682V117.8H696.12V77.23L724.67 117.8Z" fill="black"/>
<path d="M806.32 118.8H752.92L757.27 90.18L752.92 61.55H805.92V75.15H770.77L772.21 84H803.77V96.34H772.21L770.77 105.2H806.32V118.8ZM754.09 117.8H805.32V106.2H769.59L771.36 95.34H802.77V85H771.36L769.59 74.13H804.94V62.55H754.09L758.29 90.18V90.25L754.09 117.8Z" fill="black"/>
<path d="M843.54 118.8H815V61.55H843.58C849.665 61.4371 855.702 62.652 861.27 65.11C866.119 67.2424 870.26 70.7108 873.21 75.11C876.076 79.5811 877.555 84.8002 877.46 90.11C877.555 95.4198 876.076 100.639 873.21 105.11C870.256 109.505 866.116 112.973 861.27 115.11C855.7 117.618 849.648 118.878 843.54 118.8ZM815.96 117.8H843.54C849.48 117.917 855.374 116.736 860.81 114.34C865.493 112.272 869.492 108.915 872.34 104.66C875.097 100.341 876.517 95.3032 876.42 90.18C876.517 85.0567 875.097 80.0191 872.34 75.7C869.495 71.438 865.496 68.0737 860.81 66C855.372 63.6092 849.479 62.4286 843.54 62.54H816L815.96 117.8ZM844.71 105H830.44V75.39H844.71C847.805 75.3159 850.879 75.9272 853.71 77.18C856.177 78.2682 858.265 80.0641 859.71 82.34C861.079 84.7259 861.8 87.429 861.8 90.18C861.8 92.931 861.079 95.634 859.71 98.02C858.265 100.296 856.177 102.092 853.71 103.18C850.879 104.437 847.807 105.058 844.71 105ZM831.44 104H844.71C847.647 104.066 850.562 103.485 853.25 102.3C855.522 101.288 857.444 99.6244 858.77 97.52C860.042 95.2935 860.71 92.7739 860.71 90.21C860.71 87.646 860.042 85.1264 858.77 82.9C857.446 80.7932 855.524 79.1289 853.25 78.12C850.562 76.9346 847.647 76.3542 844.71 76.42H831.44V104Z" fill="black"/>
<g opacity="0.5">
<path d="M43.66 43.89H27.6V21.11L1 -12.86H18.85L35.59 8.51001L52.33 -12.86H70.18L43.66 20.92V43.89ZM28.1 43.39H43.16V20.75L69.16 -12.36H52.57L35.57 9.32001L18.57 -12.36H2L28.1 20.94V43.39Z" fill="black"/>
<path d="M103.86 45.13C98.6772 45.2283 93.5426 44.1227 88.8598 41.9C84.6935 39.8891 81.1865 36.7325 78.7498 32.8C76.305 28.7168 75.0575 24.0283 75.1498 19.27V-12.86H91.2098V18.52C91.1497 20.7848 91.644 23.0299 92.6498 25.06C93.5963 26.8681 95.0863 28.3336 96.9098 29.25C99.0977 30.2163 101.463 30.7154 103.855 30.7154C106.247 30.7154 108.612 30.2163 110.8 29.25C112.599 28.34 114.068 26.8886 115 25.1C115.999 23.0538 116.49 20.7965 116.43 18.52V-12.86H132.5V19.27C132.612 24.0238 131.4 28.7153 129 32.82C126.575 36.759 123.069 39.9178 118.9 41.92C114.202 44.1384 109.054 45.2371 103.86 45.13ZM75.6498 -12.36V19.27C75.557 23.9357 76.7766 28.5337 79.1698 32.54C81.5621 36.3927 85.0033 39.4836 89.0898 41.45C93.6997 43.6418 98.7564 44.7305 103.86 44.63C108.964 44.7306 114.023 43.6491 118.64 41.47C122.724 39.5115 126.157 36.4182 128.53 32.56C130.9 28.539 132.102 23.9365 132 19.27V-12.36H117V18.52C117.062 20.8772 116.551 23.2142 115.51 25.33C114.509 27.2314 112.93 28.7653 111 29.71C108.741 30.7125 106.296 31.2304 103.825 31.2304C101.353 31.2304 98.909 30.7125 96.6498 29.71C94.7325 28.7487 93.1655 27.2097 92.1698 25.31C91.1323 23.2073 90.621 20.884 90.6798 18.54V-12.36H75.6498Z" fill="black"/>
<path d="M225.24 43.89H210V2.19001L191.93 43.89H175.93L175.86 43.74L157.86 2.36001V43.89H142.5V-12.86H167L167.07 -12.7L183.98 27.87L200.87 -12.86H225.29L225.24 43.89ZM210.46 43.39H224.74V-12.36H201.15L183.93 29.17L166.62 -12.36H143V43.39H157.31V1.15001L157.79 1.06001L176.17 43.39H191.56L210 0.880014L210.48 0.980015L210.46 43.39Z" fill="black"/>
<path d="M273.65 43.89H257.59V21.11L231 -12.86H248.85L265.58 8.51001L282.31 -12.86H300.16L273.65 20.92V43.89ZM258.09 43.39H273.15V20.75L299.15 -12.36H282.56L265.56 9.32001L248.56 -12.36H232L258.1 20.94L258.09 43.39Z" fill="black"/>
<path d="M338.63 43.89H322.57V-12.86H372.87V0.810015H338.63V10.17H371.48V23.83H338.63V43.89ZM323.07 43.39H338.13V23.33H371V10.67H338.13V0.310015H372.37V-12.36H323.07V43.39Z" fill="black"/>
<path d="M443.74 43.89H426.61L421.91 33.06H393.18L388.5 43.89H371.33L397.17 -12.86H417.93L418 -12.71L443.74 43.89ZM426.94 43.39H442.94L417.61 -12.36H397.49L372.11 43.39H388.17L392.86 32.56H422.24L426.94 43.39ZM417.05 20.57H398L407.5 -1.42999L417.05 20.57ZM398.8 20.07H416.29L407.54 -0.139986L398.8 20.07Z" fill="black"/>
<path d="M473.8 45.13C468.551 45.2178 463.329 44.3818 458.37 42.66C454.31 41.2836 450.68 38.8706 447.84 35.66C445.343 32.7333 443.931 29.036 443.84 25.19V24.93H460.14V25.15C460.355 26.6606 461.082 28.0514 462.2 29.09C463.569 30.3258 465.215 31.2141 467 31.68C469.31 32.3254 471.702 32.6319 474.1 32.59C476.284 32.6241 478.465 32.406 480.6 31.94C482.108 31.6385 483.519 30.9725 484.71 30C485.155 29.6385 485.512 29.1806 485.755 28.661C485.997 28.1413 486.119 27.5734 486.11 27C486.14 26.1533 485.867 25.3236 485.34 24.66C484.605 23.9077 483.678 23.3715 482.66 23.11C480.899 22.5912 479.09 22.256 477.26 22.11L466.84 21.11C462.48 20.8249 458.189 19.8704 454.12 18.28C451.191 17.1432 448.657 15.1761 446.83 12.62C445.216 10.0919 444.398 7.13808 444.48 4.14004C444.391 0.502135 445.612 -3.0467 447.92 -5.85996C450.518 -8.75555 453.864 -10.8798 457.59 -12C462.293 -13.504 467.213 -14.2237 472.15 -14.13C477.07 -14.2095 481.966 -13.4173 486.61 -11.79C490.487 -10.4754 493.968 -8.2015 496.73 -5.17996C499.172 -2.45629 500.626 1.00954 500.86 4.66004V4.93004H484.57V4.71004C484.386 3.42365 483.748 2.24569 482.77 1.39004C481.52 0.328943 480.041 -0.427582 478.45 -0.81996C476.305 -1.3751 474.095 -1.63748 471.88 -1.59996C469.863 -1.62764 467.85 -1.42295 465.88 -0.989959C464.454 -0.708837 463.12 -0.076417 462 0.85004C461.591 1.197 461.264 1.62939 461.041 2.11667C460.818 2.60394 460.705 3.13422 460.71 3.67004C460.682 4.45317 460.938 5.21997 461.43 5.83004C462.127 6.55922 463.019 7.07289 464 7.31004C465.628 7.8147 467.303 8.14981 469 8.31004L480.21 9.39004C484.569 9.69842 488.869 10.5759 493 12C495.83 12.9389 498.304 14.7223 500.09 17.11C501.648 19.5572 502.422 22.4213 502.31 25.32C502.362 29.1127 501.096 32.8059 498.73 35.77C496.088 38.9615 492.633 41.38 488.73 42.77C483.936 44.4488 478.878 45.2483 473.8 45.13ZM444.36 25.44C444.498 29.0817 445.862 32.57 448.23 35.34C451.008 38.4856 454.563 40.8475 458.54 42.19C463.444 43.8912 468.609 44.7171 473.8 44.63C478.813 44.7211 483.8 43.9011 488.52 42.21C492.352 40.8751 495.749 38.5249 498.35 35.41C500.638 32.5294 501.863 28.9484 501.82 25.27C501.928 22.4753 501.185 19.7137 499.69 17.35C497.965 15.0382 495.569 13.3134 492.83 12.41C488.72 11.0032 484.444 10.1393 480.11 9.84004L468.9 8.75004C467.17 8.59308 465.461 8.25797 463.8 7.75004C462.753 7.46515 461.805 6.89777 461.06 6.11004C460.498 5.40804 460.203 4.529 460.23 3.63004C460.231 3.03159 460.361 2.44037 460.611 1.89675C460.861 1.35313 461.226 0.869897 461.68 0.480041C462.838 -0.471746 464.211 -1.12727 465.68 -1.42996C467.694 -1.88133 469.755 -2.0928 471.82 -2.05996C474.079 -2.09656 476.333 -1.82745 478.52 -1.25996C480.191 -0.853862 481.743 -0.0589809 483.05 1.06004C484.064 1.9457 484.751 3.14677 485 4.47004H500.34C500.058 1.02241 498.652 -2.23751 496.34 -4.80996C493.633 -7.76798 490.225 -9.99654 486.43 -11.29C481.838 -12.8892 477.001 -13.6677 472.14 -13.59C467.257 -13.6821 462.393 -12.9727 457.74 -11.49C454.086 -10.3645 450.815 -8.2498 448.29 -5.37996C446.078 -2.65834 444.911 0.764027 445 4.27004C444.923 7.16842 445.714 10.0237 447.27 12.47C449.029 14.9631 451.48 16.8858 454.32 18C458.339 19.5664 462.575 20.5073 466.88 20.79L477.31 21.79C479.176 21.9363 481.022 22.2713 482.82 22.79C483.927 23.0848 484.933 23.676 485.73 24.5C486.328 25.255 486.64 26.1973 486.61 27.16C486.592 27.7844 486.438 28.3974 486.16 28.9567C485.882 29.5161 485.486 30.0085 485 30.4C483.742 31.4047 482.26 32.0909 480.68 32.4C478.506 32.8733 476.284 33.0947 474.06 33.06C471.614 33.1009 469.176 32.7877 466.82 32.13C464.961 31.6433 463.246 30.7174 461.82 29.43C460.675 28.371 459.91 26.9659 459.64 25.43L444.36 25.44Z" fill="black"/>
<path d="M570.72 43.89H554.66V22.18H526.4V43.89H510.33V-12.86H526.4V8.00002H554.66V-12.86H570.72V43.89ZM555.16 43.39H570.22V-12.36H555.16V8.46001H525.9V-12.36H510.83V43.39H525.9V21.68H555.16V43.39Z" fill="black"/>
<path d="M597.46 43.89H581.4V-12.86H597.46V43.89ZM581.9 43.39H597V-12.36H581.9V43.39Z" fill="black"/>
<path d="M639.39 45.13C633.319 45.2459 627.301 43.9807 621.79 41.43C616.924 39.1545 612.809 35.5358 609.93 31C607.09 26.339 605.634 20.967 605.73 15.51C605.63 10.0463 607.087 4.66687 609.93 4.1008e-05C612.811 -4.52642 616.926 -8.13488 621.79 -10.4C627.337 -12.8337 633.328 -14.0903 639.385 -14.0903C645.442 -14.0903 651.433 -12.8337 656.98 -10.4C661.84 -8.12925 665.954 -4.52205 668.84 4.1008e-05C671.695 4.65545 673.159 10.03 673.06 15.49C673.163 20.9569 671.698 26.3389 668.84 31C665.961 35.5285 661.855 39.1457 657 41.43C651.487 43.9849 645.465 45.2502 639.39 45.13ZM639.39 -13.59C633.391 -13.7105 627.444 -12.4622 622 -9.93996C617.22 -7.71532 613.18 -4.16453 610.36 0.290041C607.564 4.87091 606.131 10.154 606.23 15.52C606.131 20.883 607.563 26.1629 610.36 30.74C613.176 35.205 617.217 38.7663 622 41C627.442 43.5162 633.385 44.7642 639.38 44.65C645.375 44.7666 651.318 43.5185 656.76 41C661.537 38.762 665.578 35.2102 668.41 30.76C671.216 26.1862 672.656 20.9053 672.56 15.54C672.661 10.1647 671.221 4.87278 668.41 0.290041C665.577 -4.15719 661.536 -7.7056 656.76 -9.93996C651.323 -12.4616 645.382 -13.7099 639.39 -13.59ZM639.39 31.22C636.114 31.2957 632.862 30.6541 629.86 29.34C627.282 28.1924 625.108 26.2973 623.62 23.9C622.13 21.3632 621.375 18.4616 621.44 15.52C621.372 12.5782 622.127 9.67587 623.62 7.14004C625.104 4.73914 627.279 2.84289 629.86 1.70004C635.946 -0.800409 642.773 -0.800409 648.86 1.70004C651.442 2.84953 653.622 4.74378 655.12 7.14004C656.625 9.67108 657.384 12.5761 657.31 15.52C657.382 18.4637 656.623 21.3679 655.12 23.9C653.622 26.2963 651.442 28.1906 648.86 29.34C645.877 30.6476 642.646 31.2892 639.39 31.22ZM639.39 0.320041C636.187 0.244151 633.006 0.868705 630.07 2.15004C627.592 3.26448 625.503 5.09234 624.07 7.40004C622.628 9.85847 621.9 12.6707 621.97 15.52C621.903 18.3691 622.63 21.1806 624.07 23.64C625.504 25.9448 627.593 27.7693 630.07 28.88C633.006 30.1648 636.186 30.7928 639.39 30.72C642.584 30.7926 645.755 30.1645 648.68 28.88C651.172 27.7719 653.277 25.948 654.73 23.64C656.178 21.1835 656.909 18.3706 656.84 15.52C656.91 12.6693 656.179 9.8562 654.73 7.40004C653.278 5.08918 651.172 3.26185 648.68 2.15004C645.754 0.868973 642.583 0.244334 639.39 0.320041Z" fill="black"/>
<path d="M744.23 43.89H724.23L724.15 43.79L696.91 4.94001V43.94H681.29V-12.86H701.81L701.89 -12.75L728.66 25.25V-12.86H744.23V43.89ZM724.54 43.39H743.73V-12.36H729.16V26.8L701.55 -12.36H681.79V43.39H696.41V3.39001L724.54 43.39Z" fill="black"/>
<path d="M806.07 43.89H753.21L757.53 15.52L753.21 -12.86H805.69V0.240014H770.48L772 9.60001H803.52V21.43H772L770.48 30.79H806.07V43.89ZM753.8 43.39H805.57V31.29H769.89L771.57 20.93H803V10.1H771.57L769.89 -0.259986H805.19V-12.36H753.8L758 15.52L753.8 43.39Z" fill="black"/>
<path d="M843.54 43.89H815.21V-12.86H843.54C849.587 -12.974 855.586 -11.7694 861.12 -9.32998C865.944 -7.20825 870.065 -3.7571 873 0.620025C875.843 5.06234 877.308 10.2467 877.21 15.52C877.308 20.7903 875.843 25.9716 873 30.41C870.088 34.8046 865.98 38.2745 861.16 40.41C855.611 42.8426 849.597 44.0304 843.54 43.89ZM815.71 43.39H843.54C849.514 43.5062 855.442 42.3186 860.91 39.91C865.636 37.8193 869.672 34.4316 872.55 30.14C875.334 25.7792 876.767 20.6929 876.67 15.52C876.769 10.347 875.335 5.26036 872.55 0.900024C869.677 -3.39677 865.64 -6.78583 860.91 -8.86998C855.443 -11.2854 849.515 -12.4765 843.54 -12.36H815.71V43.39ZM844.71 30.06H830.71V1.00002H844.71C847.757 0.932408 850.782 1.53672 853.57 2.77003C855.971 3.84715 858.002 5.60689 859.41 7.83002C860.809 10.1544 861.52 12.8279 861.46 15.54C861.519 18.249 860.808 20.9192 859.41 23.24C858.005 25.4684 855.974 27.2322 853.57 28.31C850.779 29.5318 847.756 30.1291 844.71 30.06ZM831.19 29.56H844.71C847.685 29.6257 850.639 29.035 853.36 27.83C855.674 26.8091 857.635 25.1292 859 23C860.354 20.7578 861.047 18.1789 861 15.56C861.044 12.9384 860.351 10.3571 859 8.11003C857.638 5.9726 855.681 4.27986 853.37 3.24002C850.646 2.04314 847.694 1.45611 844.72 1.52003H831.19V29.56Z" fill="black"/>
</g>
</svg>
