<svg width="432" height="79" viewBox="0 0 432 79" fill="none" xmlns="http://www.w3.org/2000/svg">
<path d="M0.750004 1.61002C0.610004 1.46002 0.560004 1.36004 0.610004 1.29004C0.645597 1.25263 0.689471 1.22406 0.738102 1.2067C0.786733 1.18933 0.838762 1.18363 0.890003 1.19003C1.04299 1.17543 1.19702 1.17543 1.35 1.19003C1.46178 1.20403 1.57217 1.22746 1.68 1.26004C2.73925 1.43289 3.80777 1.54307 4.88 1.59003C5.99 1.64003 7.08 1.67004 8.13 1.67004H9C10.74 1.59004 12.54 1.42004 14.39 1.17004C14.84 1.11004 15.28 1.05004 15.7 1.01004C15.8873 0.920403 16.0923 0.873871 16.3 0.873871C16.5077 0.873871 16.7127 0.920403 16.9 1.01004C17.2238 1.14611 17.5165 1.34688 17.76 1.60004C18.0381 1.84523 18.2956 2.11278 18.53 2.40002C18.53 2.67002 18.24 2.98004 17.69 3.32004C17.1151 3.67681 16.5093 3.98136 15.88 4.23004C15.4011 4.44085 14.8969 4.58875 14.38 4.67004C13.6 4.67004 12.81 4.70004 12.01 4.76004C12.01 4.85004 12.01 4.95003 12.01 5.06003C12.0181 5.13982 12.0181 5.22022 12.01 5.30002C11.8255 6.38793 11.7153 7.48715 11.68 8.59003C11.62 9.84003 11.59 11.08 11.58 12.32C11.58 13.1 11.58 13.82 11.53 14.48C11.53 17.1 11.62 19.7667 11.8 22.48C11.8412 22.5184 11.874 22.5648 11.8965 22.6165C11.919 22.6681 11.9305 22.7237 11.9305 22.78C11.9305 22.8363 11.919 22.892 11.8965 22.9436C11.874 22.9952 11.8412 23.0417 11.8 23.08C11.6484 23.1121 11.4917 23.1121 11.34 23.08L10.81 23C10.6343 22.9495 10.4528 22.9226 10.27 22.92C9.91319 22.7952 9.58694 22.5961 9.31284 22.3358C9.03874 22.0755 8.82304 21.7599 8.68 21.41C8.39536 20.7634 8.24239 20.0665 8.23001 19.36C8.31001 17.99 8.32001 16.6 8.23001 15.18C8.23001 14.97 8.23001 14.76 8.23001 14.55C8.23001 14.34 8.23001 14.21 8.23001 14.04C8.13001 12.8 8.04001 11.44 7.97001 9.97003C7.89582 8.7103 7.91587 7.44678 8.03 6.19003C8.17999 5.70857 8.5143 5.30596 8.96 5.07004C7.53039 5.28725 6.07947 5.32755 4.64 5.19003C3.80244 4.90014 3.05699 4.39281 2.48001 3.72003C1.84044 3.07072 1.26137 2.36445 0.750004 1.61002Z" fill="black"/>
<path d="M27.89 4.64005H27.35C26.8 4.64005 26.21 4.64005 25.57 4.64005C24.9596 4.62063 24.3529 4.53683 23.76 4.39005C23.2439 4.21431 22.7656 3.94289 22.35 3.59003C22.016 3.34622 21.7282 3.04486 21.5 2.70005C21.7667 2.38824 22.112 2.15344 22.5 2.02003C22.8261 1.90503 23.1604 1.81478 23.5 1.75004H23.66C24.8391 1.42116 26.0487 1.21342 27.27 1.13004C28.4 1.06004 29.66 1.05004 31.06 1.13004C32.7261 1.18702 34.3345 1.75484 35.6671 2.75654C36.9997 3.75824 37.9922 5.14539 38.51 6.73005C38.9776 8.15249 38.8626 9.70226 38.19 11.04C37.7397 11.8165 37.1404 12.4963 36.4265 13.0403C35.7125 13.5843 34.8981 13.9819 34.03 14.21C34.41 14.85 34.78 15.45 35.13 15.99L35.66 16.86C36.6 18.1934 37.6533 19.5634 38.82 20.97L39.13 21.36C39.2541 21.4269 39.3588 21.5246 39.4341 21.6437C39.5094 21.7628 39.5528 21.8993 39.56 22.04C39.55 22.1866 39.5017 22.328 39.42 22.4501C39.3225 22.6096 39.2157 22.7632 39.1 22.91C38.98 23.05 38.89 23.17 38.81 23.25C38.4349 23.3296 38.0436 23.2691 37.71 23.08C37.223 22.867 36.7603 22.6021 36.33 22.29C35.9565 22.034 35.6201 21.7278 35.33 21.38C34.7692 20.463 34.1478 19.5844 33.47 18.75L33.11 18.29C32.69 17.8 32.24 17.29 31.78 16.65C31.358 16.1134 30.9833 15.5413 30.66 14.94C30.2105 15.0118 29.7545 15.0352 29.3 15.01C28.8217 14.9986 28.3472 14.9212 27.89 14.78C27.83 15.78 27.81 16.78 27.83 17.94C27.8456 18.97 27.919 19.9983 28.05 21.02C28.1323 21.1704 28.1769 21.3386 28.18 21.51C28.1799 21.6726 28.1563 21.8342 28.11 21.99C28.023 22.1091 27.9145 22.2109 27.79 22.29C27.6208 22.4116 27.4438 22.5219 27.26 22.62C27.1184 22.706 26.9714 22.7828 26.82 22.85C26.45 22.76 26.09 22.41 25.74 21.79C25.3733 21.1371 25.0782 20.4464 24.86 19.73C24.6653 19.1926 24.5475 18.6304 24.51 18.06C24.59 17.06 24.64 16.06 24.67 15.06C24.67 14.71 24.67 14.35 24.67 14C24.67 12.93 24.67 11.74 24.67 10.44C24.6924 9.29041 24.7994 8.14399 24.99 7.01005C25.2338 6.44411 25.6368 5.96119 26.15 5.62003C26.6864 5.22135 27.271 4.89209 27.89 4.64005ZM28.14 12.26L29.14 12.01C29.89 11.83 30.71 11.61 31.59 11.34C32.421 11.0956 33.2225 10.7602 33.98 10.34C34.6181 10.0091 35.1308 9.47894 35.44 8.83002C35.566 8.52914 35.6308 8.20623 35.6308 7.88004C35.6308 7.55386 35.566 7.23091 35.44 6.93003C35.1372 6.24443 34.6388 5.66339 34.0074 5.25962C33.3759 4.85585 32.6394 4.64728 31.89 4.66004H30.48H29.09C29.1052 4.8297 29.1052 5.00039 29.09 5.17005C29.09 5.35005 29.09 5.48002 29.09 5.58002V5.68003C28.83 7.36003 28.6 9.08002 28.41 10.83L28.14 12.26Z" fill="black"/>
<path d="M51.87 0.540026C51.98 0.420026 52.1 0.430026 52.24 0.540026C52.3989 0.707029 52.5336 0.895537 52.64 1.10002C52.7696 1.33547 52.8831 1.57933 52.98 1.83C53.08 2.08 53.15 2.26003 53.19 2.39003C54.2159 5.89647 54.9681 9.4772 55.44 13.1C55.44 13.21 55.49 13.34 55.52 13.46C55.65 14.19 55.81 14.97 55.99 15.82L56.34 15.91C56.5667 16.0126 56.7733 16.1548 56.95 16.33C57.1607 16.5166 57.3517 16.7244 57.52 16.95C57.6518 17.1079 57.7721 17.275 57.88 17.45C57.88 17.53 57.88 17.64 57.7 17.76C57.5371 17.8915 57.3631 18.0086 57.18 18.11L56.67 18.36H56.59C56.8356 19.44 57.1529 20.5023 57.54 21.54C57.6453 21.6652 57.7243 21.8102 57.7724 21.9666C57.8205 22.1229 57.8367 22.2873 57.82 22.45C57.77 22.5542 57.7023 22.649 57.62 22.73L57.24 23.11L56.88 23.41L56.79 23.49C56.5466 23.5031 56.3038 23.4551 56.0837 23.3503C55.8636 23.2455 55.6732 23.0873 55.53 22.89C55.0497 22.3644 54.6334 21.7837 54.29 21.16C53.9573 20.602 53.673 20.0165 53.44 19.41H53.38C52.3499 19.3546 51.3172 19.3747 50.29 19.47L48.65 19.74C47.93 19.84 47.23 19.93 46.52 19.99C45.9954 20.0551 45.4647 20.0551 44.94 19.99L44.74 20.34C44.64 20.51 44.54 20.68 44.43 20.85C44.2791 21.4259 43.9236 21.9271 43.43 22.26C43.1081 22.4613 42.7393 22.5751 42.36 22.59C41.9627 22.6331 41.561 22.6128 41.17 22.53C41.0596 21.9727 41.1011 21.3959 41.29 20.86C41.48 19.97 41.73 19.04 42.02 18.1C41.5423 17.6401 41.0884 17.1562 40.66 16.65C40.48 16.52 40.42 16.42 40.47 16.35C40.5119 16.3012 40.5641 16.2624 40.623 16.2364C40.6818 16.2104 40.7457 16.198 40.81 16.2C40.9964 16.1848 41.1836 16.1848 41.37 16.2H41.8H41.86C42.11 16.2 42.38 16.2 42.65 16.2C42.8827 15.603 43.1671 15.0275 43.5 14.48C43.8986 13.8165 44.2335 13.1167 44.5 12.39C44.72 11.74 45.03 10.75 45.44 9.39003C45.85 8.03003 46.2 6.92003 46.58 5.73003C46.8318 4.88919 47.1255 4.06148 47.46 3.25002C47.759 2.65353 48.2025 2.14133 48.75 1.76003C49.1999 1.48261 49.6886 1.27366 50.2 1.14003C50.7752 0.995911 51.3346 0.794915 51.87 0.540026ZM46.74 16.26C47.47 16.26 48.18 16.26 48.9 16.26C49.81 16.26 50.76 16.17 51.72 16.09L52.78 16.01C52.73 15.78 52.68 15.55 52.62 15.32C52.52 14.8467 52.42 14.3867 52.32 13.94C52.18 13.3867 52.03 12.8167 51.87 12.23C51.3767 10.43 50.9267 8.64335 50.52 6.87001C49.76 9.05001 48.92 11.1767 48 13.25L47.55 14.35L47.17 15.29C47 15.63 46.87 15.94 46.74 16.26Z" fill="black"/>
<path d="M65.3 1.26005C65.49 1.19005 65.61 1.19005 65.68 1.26005C65.7126 1.29824 65.7367 1.34302 65.7505 1.39134C65.7643 1.43965 65.7675 1.49037 65.76 1.54005C65.7504 1.65826 65.7303 1.7754 65.7 1.89005C65.4685 2.99618 65.3347 4.12049 65.3 5.25004C65.23 6.65004 65.19 8.01003 65.17 9.33003C65.17 10.08 65.17 10.73 65.17 11.28C65.17 13.04 65.17 14.82 65.17 16.61C65.17 18.14 65.23 19.66 65.22 21.18C65.2828 21.3726 65.3046 21.5762 65.2839 21.7778C65.2633 21.9793 65.2006 22.1742 65.1 22.35C64.9103 22.5485 64.6538 22.6697 64.38 22.69C64.0884 22.7348 63.7916 22.7348 63.5 22.69C63.0064 22.3483 62.6516 21.841 62.5 21.26C62.24 20.5186 62.0459 19.7556 61.92 18.9801C61.8183 18.4121 61.7615 17.837 61.75 17.26C61.86 15.38 61.89 13.49 61.85 11.59C61.85 11.18 61.79 10.7201 61.76 10.2301C61.68 8.98005 61.63 7.66004 61.59 6.28004C61.5417 5.11913 61.5751 3.95625 61.69 2.80003C61.7709 2.54007 61.9103 2.30214 62.0975 2.1045C62.2847 1.90687 62.5148 1.75482 62.77 1.66004C63.3009 1.48612 63.8522 1.38192 64.41 1.35005L65.3 1.26005Z" fill="black"/>
<path d="M68.7 1.61002C68.56 1.46002 68.52 1.36004 68.56 1.29004C68.598 1.25304 68.6437 1.2249 68.6938 1.20761C68.744 1.19032 68.7973 1.18431 68.85 1.19003C68.9997 1.17545 69.1504 1.17545 69.3 1.19003C69.4151 1.20412 69.5288 1.22754 69.64 1.26004C70.6991 1.43392 71.7677 1.54411 72.84 1.59003C73.95 1.64003 75.03 1.67004 76.08 1.67004H77C78.74 1.59004 80.53 1.42004 82.39 1.17004C82.84 1.11004 83.27 1.05004 83.69 1.01004C83.8773 0.920403 84.0823 0.873871 84.29 0.873871C84.4977 0.873871 84.7027 0.920403 84.89 1.01004C85.2184 1.1431 85.5149 1.34417 85.76 1.60004C86.0327 1.84763 86.2867 2.11501 86.52 2.40002C86.52 2.67002 86.23 2.98004 85.68 3.32004C85.1096 3.67875 84.507 3.98341 83.88 4.23004C83.3982 4.44233 82.8905 4.59027 82.37 4.67004C81.59 4.67004 80.8 4.70004 80 4.76004C80 4.85004 80 4.95003 80 5.06003C79.9923 5.14163 79.9755 5.22211 79.95 5.30002C79.7754 6.38925 79.6652 7.48783 79.62 8.59003C79.57 9.84003 79.54 11.08 79.53 12.32C79.53 13.1 79.51 13.82 79.47 14.48C79.47 17.1 79.5633 19.7667 79.75 22.48C79.8282 22.5603 79.872 22.668 79.872 22.78C79.872 22.8921 79.8282 22.9997 79.75 23.08C79.5983 23.1116 79.4417 23.1116 79.29 23.08L78.75 23C78.5745 22.9488 78.3928 22.9219 78.21 22.92C77.8547 22.7925 77.5299 22.5923 77.2561 22.3324C76.9824 22.0724 76.7657 21.7583 76.62 21.41C76.3354 20.7634 76.1824 20.0665 76.17 19.36C76.25 17.99 76.27 16.6 76.17 15.18C76.17 14.97 76.17 14.76 76.17 14.55C76.17 14.34 76.17 14.21 76.17 14.04C76.07 12.8 75.99 11.44 75.91 9.97003C75.8335 8.71016 75.8569 7.44621 75.98 6.19003C76.0511 5.95152 76.1691 5.72958 76.3271 5.53726C76.4851 5.34494 76.6798 5.18611 76.9 5.07004C75.4704 5.28745 74.0195 5.32775 72.58 5.19003C71.7444 4.89632 70.9998 4.38963 70.42 3.72003C69.7839 3.07028 69.2082 2.36403 68.7 1.61002Z" fill="black"/>
<path d="M101.91 5.64005C101.91 5.78005 101.91 5.86002 101.79 5.86002C101.674 5.85931 101.562 5.82069 101.47 5.75004L101.1 5.52003C101.031 5.45693 100.953 5.40314 100.87 5.36002C100.054 4.89802 99.1584 4.59278 98.23 4.46003C97.3724 4.31935 96.4976 4.31935 95.64 4.46003C94.83 4.64003 94.4 4.90004 94.37 5.25004C94.3716 5.47035 94.4217 5.6876 94.5168 5.88636C94.6118 6.08512 94.7495 6.2605 94.92 6.40003C95.3636 6.85548 95.8381 7.27984 96.34 7.67005C97.5 8.62005 98.62 9.62005 99.68 10.6701C100.745 11.7257 101.694 12.8923 102.51 14.15C103.092 15.0426 103.562 16.0031 103.91 17.01C104.25 17.9728 104.32 19.0106 104.11 20.01C103.987 20.5328 103.759 21.0253 103.441 21.4583C103.124 21.8912 102.722 22.2557 102.26 22.53C101.248 23.112 100.107 23.4317 98.94 23.46C97.6315 23.5035 96.3245 23.3346 95.07 22.96C93.8033 22.5937 92.6091 22.0118 91.54 21.24C91.0941 20.9227 90.6759 20.5681 90.29 20.18C89.9094 19.7999 89.5738 19.3771 89.29 18.9201C88.8043 18.0773 88.5749 17.1112 88.63 16.1401C88.7005 15.5032 88.9822 14.9083 89.43 14.4501C89.856 13.9749 90.3867 13.6051 90.98 13.37C91.0005 13.4925 91.0005 13.6175 90.98 13.74C90.98 13.95 90.98 14.21 90.98 14.53C90.98 14.85 90.98 15.21 90.93 15.53C90.912 15.763 90.912 15.9971 90.93 16.2301C91.0291 16.8377 91.2958 17.4056 91.7 17.87C92.4568 18.7025 93.4349 19.3026 94.52 19.6C95.5615 19.8878 96.6311 20.0621 97.71 20.12C98.2742 20.1785 98.8439 20.1515 99.4 20.04C99.9037 19.9581 100.363 19.7036 100.7 19.32C100.862 19.0904 100.968 18.8267 101.012 18.5492C101.055 18.2718 101.034 17.988 100.95 17.72C100.623 16.7177 100.096 15.7923 99.4 15C98.6223 14.0622 97.7695 13.1893 96.85 12.3901C95.93 11.5801 95.12 10.9001 94.43 10.3901C93.3513 9.60311 92.4031 8.65149 91.62 7.57005C91.1746 7.01665 90.8656 6.36624 90.718 5.6714C90.5703 4.97655 90.5881 4.25673 90.77 3.57005C91.0026 2.952 91.3846 2.40114 91.8819 1.96665C92.3792 1.53217 92.9763 1.22756 93.62 1.08003C95.0344 0.76184 96.5119 0.876847 97.86 1.41004C99.2894 1.89351 100.536 2.80463 101.43 4.02003C101.589 4.27307 101.723 4.54102 101.83 4.82005C101.924 5.08269 101.951 5.3643 101.91 5.64005Z" fill="black"/>
<path d="M111.15 11.42C110.914 11.3948 110.681 11.3547 110.45 11.3C110.06 11.23 109.63 11.12 109.16 11C108.737 10.8874 108.322 10.7437 107.92 10.57C107.57 10.42 107.36 10.26 107.31 10.1C107.412 9.96613 107.487 9.81314 107.53 9.65002C107.61 9.40002 107.69 9.14003 107.76 8.87003C107.83 8.60003 107.88 8.44002 107.89 8.36002C107.855 8.14145 107.855 7.91861 107.89 7.70004C107.895 7.59929 107.922 7.50092 107.971 7.41251C108.019 7.3241 108.087 7.248 108.17 7.19003C108.855 7.21524 109.531 7.35379 110.17 7.60004C111.04 7.89004 111.76 8.16005 112.32 8.39005H112.41H112.46L112.63 8.47003L112.81 8.55002C112.86 8.55002 112.88 8.61005 112.88 8.64005C112.88 8.67005 112.88 8.64003 112.75 8.69003C112.628 8.81264 112.533 8.959 112.47 9.12003C112.37 9.33003 112.27 9.56003 112.16 9.81003C112.031 10.1814 111.874 10.5424 111.69 10.89C111.53 11.25 111.35 11.41 111.15 11.42ZM112.41 17.66H112.46L112.63 17.73L112.81 17.82C112.86 17.82 112.88 17.87 112.88 17.9C112.88 17.93 112.88 17.9 112.75 17.95C112.631 18.0746 112.536 18.2205 112.47 18.38C112.37 18.59 112.27 18.82 112.16 19.08C112.033 19.4489 111.876 19.8068 111.69 20.15C111.53 20.47 111.35 20.64 111.15 20.65C110.914 20.6248 110.681 20.5847 110.45 20.53C110.06 20.45 109.63 20.35 109.16 20.22C108.738 20.1059 108.324 19.9657 107.92 19.8C107.57 19.64 107.36 19.48 107.31 19.33C107.412 19.1961 107.487 19.0432 107.53 18.88C107.61 18.63 107.69 18.37 107.76 18.11C107.812 17.9357 107.856 17.7588 107.89 17.58C107.855 17.3614 107.855 17.1387 107.89 16.92C107.895 16.8193 107.922 16.7209 107.971 16.6325C108.019 16.5441 108.087 16.468 108.17 16.41C108.855 16.426 109.532 16.5614 110.17 16.81C111.04 17.11 111.76 17.38 112.32 17.61L112.41 17.66Z" fill="black"/>
<path d="M4.61 49.21C4.91 49.05 5.09 49.03 5.15 49.21C5.2177 49.4058 5.24491 49.6134 5.23 49.82C5.37306 51.4015 5.65412 52.9675 6.07 54.5C6.57 56.46 7.05333 58.26 7.52 59.9L7.93 61.33C8.83667 64.27 9.91 67.31 11.15 70.45C11.24 69.97 11.33 69.58 11.41 69.29C12.2033 67.03 12.9233 64.72 13.57 62.36C13.5981 62.2857 13.6182 62.2086 13.63 62.13C13.7367 61.6967 13.8467 61.2267 13.96 60.72C14.34 59.0267 14.77 57.2267 15.25 55.32C15.6558 53.6635 16.1737 52.0364 16.8 50.45C17.1953 49.8272 17.8145 49.3798 18.53 49.2C19.2188 49.0466 19.9251 48.9861 20.63 49.02C21.1693 49.0598 21.7107 49.0598 22.25 49.02C22.52 48.93 22.68 48.95 22.72 49.08C22.7741 49.2389 22.7741 49.4112 22.72 49.57C22.6623 49.7399 22.5886 49.904 22.5 50.06C21.8147 51.4407 21.2266 52.8675 20.74 54.33C20.16 56.04 19.6 57.73 19.08 59.41C18.73 60.55 18.41 61.56 18.08 62.46C17.39 64.72 16.72 67.04 16.08 69.39C15.6 71.1967 15.1067 72.9867 14.6 74.76C14.6278 74.9907 14.5934 75.2246 14.5001 75.4374C14.4069 75.6502 14.2584 75.8341 14.07 75.97C13.6733 76.3126 13.3354 76.718 13.07 77.17C12.8776 77.4849 12.6457 77.7739 12.38 78.03C12.1062 78.2789 11.75 78.4178 11.38 78.42C10.87 78.42 10.28 77.89 9.62 76.88C8.92721 75.8297 8.31223 74.7301 7.78 73.59C7.35875 72.7366 6.98159 71.8621 6.65 70.97C5.98334 68.67 5.23334 66.38 4.4 64.1C4.34 63.92 4.27 63.73 4.21 63.53C3.61667 62.05 2.95 60.27 2.21 58.19C1.562 56.4694 1.06349 54.6962 0.720001 52.89C0.747547 52.4294 0.880983 51.9813 1.10992 51.5807C1.33887 51.18 1.65714 50.8376 2.04 50.58C2.82107 49.9938 3.68795 49.5317 4.61 49.21Z" fill="black"/>
<path d="M30.78 49.13C31.03 49.04 31.19 49.04 31.28 49.13C31.3227 49.1829 31.3545 49.2437 31.3733 49.3089C31.3922 49.3742 31.3979 49.4426 31.39 49.51C31.3739 49.665 31.3472 49.8187 31.31 49.97C31.0042 51.4452 30.8269 52.9442 30.78 54.45C30.69 56.32 30.63 58.13 30.61 59.89C30.61 60.89 30.61 61.76 30.55 62.49C30.55 64.8367 30.55 67.2067 30.55 69.6C30.6033 71.64 30.6233 73.67 30.61 75.69C30.6946 75.9467 30.7241 76.2183 30.6965 76.4871C30.669 76.7559 30.5849 77.0159 30.45 77.25C30.1884 77.5251 29.8294 77.6867 29.45 77.7C29.0622 77.7593 28.6677 77.7593 28.28 77.7C27.6458 77.2344 27.1932 76.5627 27 75.8C26.6568 74.8072 26.3992 73.7868 26.23 72.75C26.0878 71.9911 26.0076 71.2219 25.99 70.45C26.14 67.95 26.18 65.45 26.13 62.9C26.13 62.35 26.05 61.74 26.01 61.08C25.91 59.41 25.83 57.66 25.78 55.83C25.7172 54.2786 25.764 52.7248 25.92 51.18C26.0296 50.8343 26.2161 50.518 26.4655 50.2547C26.7149 49.9915 27.0207 49.7881 27.36 49.66C28.0704 49.4322 28.8057 49.2912 29.55 49.24L30.78 49.13Z" fill="black"/>
<path d="M53 55C53 55.19 53 55.29 52.84 55.3C52.6842 55.2979 52.5333 55.2452 52.41 55.15L51.92 54.84C51.8256 54.7576 51.7215 54.6871 51.61 54.63C50.5251 54.0146 49.3346 53.6076 48.1 53.43C46.9546 53.2383 45.7854 53.2383 44.64 53.43C43.56 53.67 42.99 54.02 42.94 54.48C42.942 54.7755 43.0093 55.0668 43.1373 55.333C43.2652 55.5993 43.4506 55.8339 43.68 56.02C44.2724 56.6277 44.9074 57.1925 45.58 57.71C47.13 58.97 48.58 60.31 50.03 61.71C51.4455 63.1169 52.7091 64.6688 53.8 66.34C54.5686 67.5355 55.193 68.8177 55.66 70.16C56.1148 71.4434 56.2082 72.8271 55.93 74.16C55.7671 74.8581 55.4654 75.5163 55.0427 76.0952C54.6201 76.6742 54.0852 77.1622 53.47 77.53C52.1173 78.2989 50.5955 78.7214 49.04 78.76C47.2947 78.8258 45.5506 78.5994 43.88 78.09C42.1891 77.6055 40.5954 76.8306 39.17 75.8C38.5754 75.3809 38.0198 74.909 37.51 74.39C36.9943 73.8861 36.5411 73.3221 36.16 72.71C35.5135 71.5847 35.2078 70.2958 35.28 69C35.373 68.148 35.7499 67.352 36.35 66.74C36.9235 66.1181 37.6268 65.6299 38.41 65.31C38.4334 65.4725 38.4334 65.6375 38.41 65.8C38.41 66.08 38.41 66.44 38.35 66.85C38.29 67.26 38.3 67.77 38.29 68.19C38.2669 68.4996 38.2669 68.8105 38.29 69.12C38.4127 69.9289 38.7591 70.6875 39.29 71.31C40.2947 72.424 41.6007 73.2229 43.05 73.61C44.4368 73.9979 45.862 74.2327 47.3 74.31C48.0507 74.3922 48.8096 74.3584 49.55 74.21C50.2276 74.0863 50.842 73.7332 51.29 73.21C51.5053 72.9024 51.647 72.5495 51.7042 72.1785C51.7615 71.8074 51.7326 71.4282 51.62 71.07C51.1873 69.7356 50.4862 68.5037 49.56 67.45C48.5196 66.1996 47.3828 65.0327 46.16 63.96C44.93 62.88 43.85 61.96 42.93 61.27C41.4926 60.2226 40.2274 58.9574 39.18 57.52C37.89 55.52 37.51 53.78 38.04 52.19C38.3555 51.3665 38.8676 50.6325 39.5317 50.0521C40.1957 49.4717 40.9916 49.0625 41.85 48.86C43.779 48.4847 45.7743 48.6536 47.6127 49.3476C49.4512 50.0417 51.0603 51.2336 52.26 52.79C52.4703 53.1255 52.6477 53.4805 52.79 53.85C52.9601 54.2082 53.0325 54.6049 53 55Z" fill="black"/>
<path d="M64.92 49.21C65.2 49.21 65.36 49.27 65.42 49.41C65.4522 49.4877 65.4688 49.571 65.4688 49.655C65.4688 49.7391 65.4522 49.8224 65.42 49.9C65.35 50.09 65.29 50.25 65.22 50.4V50.47C64.7932 51.791 64.4984 53.151 64.34 54.53C64.13 56.11 63.97 57.72 63.85 59.36C64.8439 58.495 65.7638 57.5484 66.6 56.53C67.12 55.83 67.77 54.86 68.54 53.62C69 52.88 69.45 52.1901 69.86 51.5701C70.1651 51.1061 70.499 50.6619 70.86 50.24C71.5404 49.7682 72.3272 49.4727 73.15 49.3801C74.0739 49.239 75.0057 49.1555 75.94 49.1301H76.7C76.97 49.0201 77.14 49.04 77.2 49.19C77.264 49.3747 77.264 49.5754 77.2 49.7601C77.1321 49.9941 77.052 50.2244 76.96 50.4501C76.86 50.6601 76.8 50.7901 76.76 50.8501C75.8958 52.3763 74.9303 53.8429 73.87 55.24C72.87 56.54 71.7433 57.8734 70.49 59.24L70.98 60.47C71.54 61.88 72.08 63.21 72.61 64.47C73.14 65.73 73.8 67.1 74.61 68.66C75.2767 69.7467 76.0767 70.9767 77.01 72.3501C77.8654 73.5727 78.7867 74.7477 79.77 75.87C79.9427 75.9555 80.0936 76.0792 80.2114 76.2316C80.3293 76.3841 80.4108 76.5614 80.45 76.75C80.4745 76.9454 80.454 77.1438 80.39 77.33C80.3272 77.5939 80.2504 77.8543 80.16 78.11C80.0945 78.3123 80.0143 78.5095 79.92 78.7001C79.56 78.9301 79 78.88 78.24 78.53C77.4408 78.1573 76.6888 77.6907 76 77.1401C75.3935 76.683 74.8431 76.156 74.36 75.5701C73.42 74.0434 72.4633 72.5267 71.49 71.02C71.11 70.5 70.58 69.71 69.88 68.65C69.18 67.59 68.56 66.53 67.97 65.49C67.5006 64.7755 67.162 63.9832 66.97 63.15L66.41 63.74C65.94 64.25 65.41 64.74 64.86 65.31C64.4734 65.7344 64.0036 66.0748 63.48 66.31C63.48 69 63.48 71.7001 63.59 74.3901C63.59 74.9501 63.59 75.5 63.65 76.03C63.7481 76.2475 63.793 76.4853 63.7808 76.7235C63.7686 76.9618 63.6998 77.1937 63.58 77.4C63.322 77.6422 62.9919 77.7932 62.64 77.83C62.2713 77.9018 61.8952 77.9287 61.52 77.91C60.8727 77.5352 60.3933 76.927 60.18 76.21C59.8043 75.2909 59.5229 74.336 59.34 73.36C59.1801 72.6598 59.0798 71.9472 59.04 71.2301C59.12 70.0701 59.17 68.8801 59.18 67.6701C59.19 66.4601 59.18 65.28 59.18 64.12C59.1 62.22 59.0667 60.1234 59.08 57.83C59.0775 55.7959 59.2481 53.7653 59.59 51.7601C59.7778 51.2799 60.0619 50.8432 60.4248 50.4769C60.7877 50.1106 61.2216 49.8224 61.7 49.6301C62.7143 49.1967 63.8285 49.0514 64.92 49.21Z" fill="black"/>
<path d="M89 49.13C89.25 49.04 89.42 49.04 89.5 49.13C89.5449 49.1816 89.5779 49.2423 89.5969 49.3079C89.6159 49.3735 89.6204 49.4425 89.61 49.51C89.5988 49.6657 89.572 49.8198 89.53 49.97C89.2242 51.4452 89.0469 52.9442 89 54.45C88.91 56.32 88.85 58.13 88.83 59.89C88.83 60.89 88.83 61.76 88.77 62.49C88.77 64.8367 88.77 67.2067 88.77 69.6C88.8233 71.64 88.8433 73.67 88.83 75.69C88.9165 75.9464 88.947 76.2183 88.9194 76.4874C88.8918 76.7565 88.8068 77.0166 88.67 77.25C88.5418 77.388 88.3873 77.4989 88.2156 77.5762C88.0438 77.6535 87.8583 77.6956 87.67 77.7C87.2823 77.7593 86.8878 77.7593 86.5 77.7C85.8658 77.2344 85.4133 76.5627 85.22 75.8C84.8768 74.8072 84.6192 73.7868 84.45 72.75C84.3048 71.9918 84.2278 71.222 84.22 70.45C84.36 67.95 84.41 65.45 84.35 62.9C84.35 62.35 84.28 61.74 84.24 61.08C84.1333 59.4133 84.0533 57.6633 84 55.83C83.9421 54.2786 83.9889 52.7251 84.14 51.18C84.2496 50.8343 84.4361 50.518 84.6855 50.2547C84.9349 49.9915 85.2407 49.7881 85.58 49.66C86.2904 49.4322 87.0257 49.2912 87.77 49.24L89 49.13Z" fill="black"/>
<path d="M101.45 71C101.81 71 102.01 71.06 102.04 71.19C102.07 71.32 102.04 71.48 101.84 71.69C101.496 72.0823 101.213 72.5239 101 73C100.76 73.53 100.55 74.06 100.35 74.59C100.29 74.78 100.22 74.95 100.16 75.12C100.061 75.6439 100.02 76.1772 100.04 76.71C100.04 77.37 100.04 77.92 100.12 78.36C100.24 78.48 100.28 78.58 100.25 78.65C100.199 78.7293 100.126 78.7919 100.04 78.83C99.8409 78.9011 99.6314 78.9383 99.42 78.94H98.47C98.15 78.94 97.91 78.94 97.75 78.94C97.3265 78.8585 96.9368 78.6532 96.63 78.3501C96.16 77.9765 95.7309 77.5541 95.35 77.09C94.99 76.64 94.83 76.31 94.88 76.09C95.069 75.4665 95.1765 74.8212 95.2 74.1701C95.1445 73.5981 95.1445 73.022 95.2 72.4501C95.2209 71.8831 95.3898 71.3315 95.69 70.8501C96.5184 70.5359 97.4119 70.4328 98.29 70.55C99.45 70.64 100.45 70.74 101.29 70.87L101.45 71Z" fill="black"/>
<path d="M122.77 54.21C121.581 54.3853 120.375 54.4088 119.18 54.28C118.342 53.7741 117.653 53.0568 117.18 52.2001C116.649 51.3624 116.168 50.4943 115.74 49.6C115.53 49.3 115.5 49.12 115.63 49.07C115.845 49.0253 116.068 49.0462 116.27 49.13C117.175 49.3305 118.095 49.4576 119.02 49.5101C120.09 49.5801 121.11 49.62 122.09 49.63H123.3C124.227 49.63 125.197 49.6001 126.21 49.5401L129.21 49.32C130.38 49.23 131.5 49.15 132.57 49.09C134.25 48.7034 135.773 49.3534 137.14 51.0401C137.05 51.3501 136.51 51.72 135.52 52.13C134.49 52.5646 133.435 52.9352 132.36 53.24C131.583 53.4924 130.782 53.6633 129.97 53.75C128.34 53.7 126.75 53.75 125.2 53.83C125.229 54.3863 125.229 54.9438 125.2 55.5C125.2 56.37 125.2 57.27 125.14 58.21C125.1 59.31 125.08 60.04 125.08 60.4L125.8 60.47C126.05 60.47 126.29 60.55 126.52 60.57C127.33 60.57 128.22 60.57 129.2 60.57L131.97 60.4H132.56C132.746 60.3149 132.951 60.2777 133.155 60.2916C133.359 60.3056 133.557 60.3704 133.73 60.4801C133.927 60.6233 134.106 60.7913 134.26 60.9801C134.467 61.2332 134.66 61.4969 134.84 61.77C134.984 61.9884 135.114 62.2155 135.23 62.4501C135.23 62.7301 134.99 63.0701 134.51 63.4501C134.004 63.8547 133.458 64.2065 132.88 64.5C132.42 64.7535 131.919 64.9228 131.4 65C130.55 64.95 129.87 64.92 129.4 64.91C128.93 64.9 128.52 64.91 128.22 64.91L127.38 64.9801L126.43 65.06C126.06 65.06 125.57 65.12 124.94 65.13L124.71 76.36C124.788 76.5981 124.805 76.8518 124.759 77.0981C124.714 77.3444 124.608 77.5754 124.45 77.77C124.171 78.0099 123.818 78.1443 123.45 78.15C123.045 78.1988 122.635 78.1988 122.23 78.15C121.737 77.69 121.389 77.0955 121.23 76.44C120.919 75.5537 120.678 74.6443 120.51 73.72C120.363 73.0455 120.272 72.3598 120.24 71.6701C120.36 70.7801 120.44 69.8601 120.48 68.8901C120.52 67.9201 120.54 66.98 120.54 66.06C120.54 65.14 120.37 64.1301 120.28 63.0101C119.576 62.08 118.951 61.0933 118.41 60.06C118.22 59.8 118.19 59.64 118.31 59.57C118.497 59.502 118.703 59.502 118.89 59.57C119.17 59.6104 119.447 59.6671 119.72 59.74L120.13 59.84C120.13 59.67 120.13 59.52 120.13 59.37C119.994 58.3186 120.072 57.2505 120.36 56.2301C120.864 55.2639 121.731 54.5373 122.77 54.21Z" fill="black"/>
<path d="M148.52 53.64H147.79C147.063 53.64 146.273 53.64 145.42 53.64C144.607 53.6124 143.799 53.4984 143.01 53.3C142.323 53.0655 141.686 52.7061 141.13 52.24C140.684 51.8955 140.302 51.4759 140 51C140.358 50.5781 140.825 50.2631 141.35 50.09C141.769 49.9331 142.2 49.8126 142.64 49.73L142.85 49.67C144.426 49.2387 146.04 48.9641 147.67 48.85C149.17 48.7634 150.837 48.7434 152.67 48.79C154.995 48.8711 157.232 49.6985 159.05 51.15C160.722 52.458 161.962 54.2384 162.61 56.26C163.232 58.1573 163.081 60.2232 162.19 62.01C161.29 63.85 159.44 65.26 156.64 66.24C157.15 67.09 157.64 67.89 158.1 68.62C158.38 69.06 158.61 69.45 158.81 69.77C160.06 71.58 161.46 73.41 163.03 75.26L163.44 75.77C163.603 75.8616 163.74 75.9932 163.838 76.1525C163.936 76.3117 163.992 76.4932 164 76.68C163.988 76.8758 163.926 77.0652 163.82 77.23C163.69 77.44 163.55 77.64 163.4 77.84L163.01 78.29C162.51 78.3993 161.986 78.321 161.54 78.07C160.891 77.7821 160.275 77.4268 159.7 77.01C159.201 76.6727 158.75 76.269 158.36 75.81C157.612 74.583 156.784 73.4071 155.88 72.29C155.73 72.09 155.57 71.89 155.39 71.68C154.83 71.0134 154.24 70.2833 153.62 69.49C153.058 68.7746 152.56 68.0117 152.13 67.21C151.532 67.3078 150.925 67.3413 150.32 67.31C149.683 67.289 149.05 67.1848 148.44 67C148.36 68.3 148.33 69.71 148.36 71.22C148.372 72.5914 148.469 73.9607 148.65 75.32C148.761 75.5191 148.823 75.742 148.83 75.97C148.825 76.1868 148.791 76.4019 148.73 76.61C148.612 76.7709 148.466 76.9096 148.3 77.02C148.08 77.17 147.84 77.32 147.6 77.46L147.01 77.76C146.688 77.631 146.394 77.439 146.147 77.1952C145.9 76.9513 145.703 76.6606 145.57 76.34C145.082 75.4706 144.686 74.5522 144.39 73.6C144.135 72.881 143.976 72.131 143.92 71.37C144.03 70.06 144.1 68.72 144.14 67.37C144.14 66.8967 144.16 66.4267 144.2 65.96C144.2 64.5333 144.2 62.9534 144.2 61.22C144.221 59.6881 144.361 58.1601 144.62 56.65C144.941 55.8929 145.476 55.2464 146.16 54.79C146.897 54.3122 147.69 53.9261 148.52 53.64ZM148.85 63.79L150.12 63.46C151.12 63.23 152.21 62.93 153.38 62.57C154.488 62.2416 155.554 61.7887 156.56 61.22C157.422 60.7828 158.123 60.0822 158.56 59.22C158.728 58.8178 158.815 58.3861 158.815 57.95C158.815 57.514 158.728 57.0823 158.56 56.68C158.184 55.8049 157.563 55.0579 156.77 54.53C155.906 53.9358 154.878 53.6279 153.83 53.65H151.95H150.1C150.12 53.8762 150.12 54.1038 150.1 54.33C150.1 54.57 150.1 54.75 150.1 54.88C150.1 55.01 150.1 55 150.1 55.01C149.753 57.25 149.447 59.5367 149.18 61.87C149 62.54 148.93 63.17 148.85 63.79Z" fill="black"/>
<path d="M172.7 49.24C172.9 49.17 173.04 49.18 173.12 49.24C173.195 49.3845 173.22 49.5499 173.19 49.71C173.169 49.9297 173.128 50.1471 173.07 50.36C173 50.58 172.94 50.77 172.88 50.93C172.854 51.0241 172.817 51.1147 172.77 51.2C172.358 52.5868 172.024 53.9957 171.77 55.42C171.363 57.4481 171.076 59.4983 170.91 61.56C170.717 63.6146 170.757 65.6845 171.03 67.73C171.159 69.3323 171.812 70.8473 172.89 72.04C173.67 72.7091 174.574 73.2187 175.55 73.54C176.474 73.859 177.443 74.0311 178.42 74.05C179.64 74.05 180.42 73.9 180.64 73.47C180.933 72.7689 181.023 71.9998 180.9 71.25C180.9 70.71 180.9 70.05 180.9 69.25C181.07 67.2 181.16 65.11 181.17 63C181.18 62.9203 181.18 62.8397 181.17 62.76C181.08 61.13 181.02 59.38 180.98 57.51C180.932 55.8405 181.002 54.1697 181.19 52.51C181.484 51.5151 182.126 50.6594 183 50.1C183.908 49.5556 184.897 49.1606 185.93 48.93C186.14 48.8 186.28 48.8 186.37 48.93C186.458 49.1066 186.5 49.3029 186.49 49.5C186.489 49.7309 186.472 49.9614 186.44 50.19C186.44 50.41 186.37 50.55 186.36 50.6C185.969 53.4692 185.722 56.3562 185.62 59.25C185.55 60.48 185.48 61.67 185.4 62.83C185.32 65.1233 185.28 67.4567 185.28 69.83C185.28 71.42 185.28 72.99 185.28 74.54C185.439 75.1637 185.356 75.8242 185.05 76.39C184.84 76.736 184.524 77.0058 184.15 77.16C183.776 77.3567 183.375 77.4982 182.96 77.58C182.745 77.4422 182.592 77.2276 182.53 76.98C181.363 77.6253 180.07 78.0076 178.74 78.1C177.309 78.2235 175.869 78.0324 174.52 77.54C173.739 77.229 172.995 76.8333 172.3 76.36C171.573 75.8921 170.884 75.3672 170.24 74.79C168.987 73.5076 168.046 71.9542 167.49 70.25C166.898 68.5008 166.512 66.6886 166.34 64.85C166.178 63.2588 166.118 61.6589 166.16 60.06C166.197 57.8273 166.451 55.6034 166.92 53.42C167.335 52.2122 168.113 51.1621 169.147 50.4138C170.182 49.6654 171.423 49.2554 172.7 49.24Z" fill="black"/>
<path d="M196.37 49.21C196.64 49.21 196.81 49.27 196.87 49.41C196.925 49.5688 196.925 49.7413 196.87 49.9C196.8 50.09 196.74 50.25 196.67 50.4V50.47C196.248 51.7922 195.953 53.1517 195.79 54.53C195.58 56.11 195.42 57.72 195.3 59.36C196.299 58.4977 197.223 57.5508 198.06 56.53C198.58 55.83 199.22 54.86 199.99 53.62C200.46 52.88 200.9 52.1901 201.32 51.5701C201.622 51.1037 201.956 50.6593 202.32 50.24C202.996 49.7671 203.78 49.4714 204.6 49.3801C205.524 49.239 206.456 49.1555 207.39 49.1301H208.16C208.43 49.0201 208.6 49.04 208.65 49.19C208.719 49.3738 208.719 49.5763 208.65 49.7601C208.582 49.9941 208.502 50.2244 208.41 50.4501C208.32 50.6601 208.25 50.7901 208.22 50.8501C207.356 52.3786 206.387 53.8455 205.32 55.24C204.32 56.54 203.197 57.8734 201.95 59.24C202.11 59.66 202.28 60.07 202.43 60.47C202.99 61.88 203.54 63.21 204.06 64.47C204.58 65.73 205.26 67.1 206.06 68.66C206.69 69.75 207.5 70.9801 208.46 72.3501C209.309 73.5747 210.227 74.7499 211.21 75.87C211.385 75.9537 211.538 76.0767 211.658 76.2293C211.778 76.3819 211.86 76.5602 211.9 76.75C211.914 76.9454 211.894 77.1417 211.84 77.33C211.767 77.59 211.687 77.85 211.6 78.11C211.51 78.37 211.43 78.5701 211.37 78.7001C211.097 78.8104 210.802 78.8526 210.509 78.823C210.216 78.7933 209.935 78.6928 209.69 78.53C208.888 78.1575 208.132 77.6909 207.44 77.1401C206.834 76.683 206.283 76.156 205.8 75.5701C204.873 74.0434 203.917 72.5267 202.93 71.02C202.55 70.5 202.02 69.71 201.33 68.65C200.64 67.59 200 66.53 199.42 65.49C198.947 64.7777 198.608 63.9846 198.42 63.15L197.85 63.74C197.38 64.25 196.85 64.74 196.31 65.31C195.922 65.7375 195.449 66.0783 194.92 66.31C194.92 69 194.92 71.7001 195.04 74.3901C195.04 74.9501 195.09 75.5 195.1 76.03C195.197 76.2483 195.24 76.4864 195.226 76.7247C195.212 76.963 195.141 77.1945 195.02 77.4C194.765 77.646 194.433 77.7977 194.08 77.83C193.715 77.9017 193.342 77.9286 192.97 77.91C192.324 77.5318 191.842 76.9254 191.62 76.21C191.253 75.2877 190.972 74.3337 190.78 73.36C190.627 72.6588 190.53 71.9466 190.49 71.2301C190.57 70.0701 190.61 68.8801 190.63 67.6701C190.65 66.4601 190.63 65.28 190.63 64.12C190.55 62.22 190.517 60.1234 190.53 57.83C190.518 55.7955 190.688 53.764 191.04 51.7601C191.228 51.2799 191.512 50.8432 191.875 50.4769C192.238 50.1106 192.672 49.8224 193.15 49.6301C194.164 49.1967 195.278 49.0514 196.37 49.21Z" fill="black"/>
<path d="M214.08 49.6C213.9 49.4 213.84 49.26 213.9 49.18C213.96 49.09 214.08 49.05 214.28 49.04C214.48 49.0208 214.68 49.0208 214.88 49.04C215.032 49.058 215.183 49.0881 215.33 49.13C216.743 49.3649 218.169 49.5151 219.6 49.58C221.08 49.64 222.52 49.67 223.93 49.67H225.08C227.4 49.57 229.79 49.35 232.27 49.01L234 48.79C234.253 48.6748 234.527 48.6151 234.805 48.6151C235.083 48.6151 235.357 48.6748 235.61 48.79C236.039 48.9833 236.429 49.2546 236.76 49.59C237.121 49.9166 237.455 50.271 237.76 50.65C237.76 51.0234 237.39 51.4334 236.65 51.88C235.886 52.3566 235.079 52.7616 234.24 53.09C233.602 53.3731 232.93 53.5715 232.24 53.68C231.19 53.68 230.14 53.68 229.07 53.79C229.08 53.9265 229.08 54.0636 229.07 54.2C229.064 54.3089 229.044 54.4165 229.01 54.52C228.774 55.973 228.627 57.4391 228.57 58.91C228.5 60.58 228.46 62.23 228.45 63.91C228.45 64.96 228.4 65.91 228.37 66.8C228.37 70.2934 228.493 73.8434 228.74 77.45C228.794 77.5015 228.838 77.5634 228.868 77.6322C228.897 77.701 228.913 77.7751 228.913 77.85C228.913 77.9249 228.897 77.9991 228.868 78.0678C228.838 78.1366 228.794 78.1986 228.74 78.25C228.538 78.2873 228.332 78.2873 228.13 78.25L227.41 78.15C227.177 78.0775 226.934 78.0371 226.69 78.03C226.217 77.8629 225.784 77.5986 225.419 77.2542C225.053 76.9097 224.764 76.4928 224.57 76.03C224.192 75.1689 223.991 74.2404 223.98 73.3C224.08 71.47 224.1 69.62 224.03 67.73C224.03 67.44 224.03 67.16 224.03 66.89C224.03 66.62 224.03 66.44 224.03 66.21C223.9 64.55 223.78 62.74 223.68 60.78C223.586 59.1134 223.616 57.4422 223.77 55.78C223.968 55.1407 224.41 54.6053 225 54.29C223.093 54.5745 221.159 54.6282 219.24 54.45C218.122 54.0462 217.129 53.3567 216.36 52.45C215.517 51.5697 214.754 50.6159 214.08 49.6Z" fill="black"/>
<path d="M243.32 49.3201C243.48 49.1101 243.62 49.06 243.75 49.16C243.9 49.2824 244.011 49.4457 244.07 49.63C244.16 49.86 244.22 50.03 244.26 50.16C244.722 51.4172 245.312 52.6235 246.02 53.7601C246.76 54.9701 247.51 56.1101 248.26 57.1701L248.36 57.33C249.646 58.987 251.021 60.5727 252.48 62.08C252.81 60.2 253.22 58.24 253.73 56.19C254.164 54.3533 254.781 52.5644 255.57 50.85C256.19 49.9875 257.123 49.4023 258.17 49.22C259.33 49.0404 260.517 49.2329 261.56 49.77C261.81 49.85 261.95 49.95 261.98 50.06C261.996 50.1244 261.996 50.1917 261.981 50.2561C261.965 50.3206 261.934 50.3802 261.89 50.43C261.795 50.5573 261.692 50.6776 261.58 50.7901L261.45 50.9201C260.241 52.778 259.301 54.7981 258.66 56.9201C257.827 59.4201 257.16 61.6067 256.66 63.4801C255.662 67.6426 254.931 71.8645 254.47 76.12C254.562 76.6227 254.458 77.1415 254.18 77.5701C253.934 77.8284 253.605 77.9914 253.25 78.03C252.888 78.1106 252.52 78.1574 252.15 78.1701C251.831 77.9359 251.567 77.6363 251.373 77.2913C251.18 76.9464 251.063 76.564 251.03 76.1701C250.8 75.0941 250.666 73.9998 250.63 72.9C250.587 72.0828 250.61 71.2635 250.7 70.4501C251.07 68.9001 251.42 67.33 251.76 65.74C251.071 65.3822 250.403 64.9848 249.76 64.55C249.283 64.2338 248.844 63.8648 248.45 63.4501C247.69 62.4501 246.89 61.4501 246.04 60.4501C245.928 60.2913 245.804 60.1409 245.67 60C244.85 59.14 244.02 58.18 243.16 57.12C242.388 56.1516 241.718 55.1061 241.16 54C240.962 53.0853 241.123 52.1294 241.61 51.33C242.069 50.5732 242.647 49.8947 243.32 49.3201Z" fill="black"/>
<path d="M272.44 71C272.81 71 273 71.06 273.04 71.19C273.08 71.32 273.04 71.48 272.83 71.69C272.496 72.0874 272.216 72.528 272 73C271.77 73.53 271.55 74.06 271.36 74.59C271.29 74.78 271.23 74.95 271.16 75.12C271.06 75.6437 271.023 76.1775 271.05 76.71C271.05 77.37 271.05 77.92 271.12 78.36C271.24 78.48 271.28 78.58 271.25 78.65C271.206 78.7313 271.135 78.7949 271.05 78.83C270.847 78.9002 270.635 78.9374 270.42 78.94H269.47C269.15 78.94 268.92 78.94 268.76 78.94C268.337 78.8585 267.947 78.6531 267.64 78.35C267.167 77.9794 266.738 77.5567 266.36 77.09C265.99 76.64 265.84 76.31 265.89 76.09C266.076 75.466 266.18 74.8207 266.2 74.17C266.155 73.5976 266.155 73.0225 266.2 72.45C266.224 71.8822 266.397 71.3307 266.7 70.85C267.528 70.5351 268.422 70.4319 269.3 70.55C270.46 70.64 271.46 70.74 272.3 70.87L272.44 71Z" fill="black"/>
<path d="M286.09 49.6C285.91 49.4 285.85 49.26 285.91 49.18C285.97 49.09 286.09 49.05 286.29 49.04C286.49 49.0205 286.691 49.0205 286.89 49.04C287.042 49.058 287.193 49.0881 287.34 49.13C288.753 49.3649 290.179 49.5151 291.61 49.58C293.09 49.64 294.53 49.67 295.94 49.67H297.09C299.41 49.57 301.8 49.35 304.28 49.01L306.02 48.79C306.271 48.675 306.544 48.6154 306.82 48.6154C307.096 48.6154 307.369 48.675 307.62 48.79C308.049 48.9833 308.439 49.2546 308.77 49.59C309.127 49.9198 309.462 50.274 309.77 50.65C309.77 51.02 309.38 51.43 308.65 51.88C307.886 52.3566 307.079 52.7616 306.24 53.09C305.602 53.3731 304.93 53.5715 304.24 53.68C303.24 53.68 302.14 53.68 301.07 53.79C301.08 53.9265 301.08 54.0636 301.07 54.2C301.062 54.3079 301.045 54.4149 301.02 54.52C300.774 55.9717 300.627 57.4384 300.58 58.91C300.5 60.58 300.46 62.23 300.45 63.91C300.45 64.96 300.4 65.91 300.37 66.8C300.37 70.29 300.5 73.8 300.74 77.45C300.794 77.5015 300.838 77.5634 300.868 77.6322C300.897 77.701 300.913 77.7751 300.913 77.85C300.913 77.9249 300.897 77.9991 300.868 78.0678C300.838 78.1366 300.794 78.1986 300.74 78.25C300.538 78.2873 300.332 78.2873 300.13 78.25L299.42 78.15C299.183 78.0781 298.938 78.0378 298.69 78.03C298.217 77.8629 297.784 77.5986 297.419 77.2542C297.053 76.9097 296.764 76.4928 296.57 76.03C296.197 75.1673 295.996 74.2398 295.98 73.3C296.08 71.47 296.1 69.62 296.04 67.73C296.04 67.44 296.04 67.16 296.04 66.89L295.98 66.21C295.85 64.55 295.73 62.74 295.64 60.78C295.538 59.1138 295.565 57.4422 295.72 55.78C295.918 55.1407 296.36 54.6053 296.95 54.29C295.043 54.5745 293.109 54.6282 291.19 54.45C290.073 54.0437 289.081 53.3546 288.31 52.45C287.488 51.5672 286.745 50.6135 286.09 49.6Z" fill="black"/>
<path d="M330.37 55C330.37 55.19 330.37 55.29 330.21 55.3C330.057 55.2979 329.91 55.2451 329.79 55.15C329.62 55.05 329.45 54.95 329.3 54.84C329.202 54.757 329.095 54.6864 328.98 54.63C327.895 54.0146 326.705 53.6076 325.47 53.43C324.325 53.2383 323.155 53.2383 322.01 53.43C320.93 53.67 320.36 54.02 320.31 54.48C320.316 54.7747 320.385 55.0647 320.513 55.3303C320.64 55.596 320.824 55.8312 321.05 56.02C321.642 56.6277 322.277 57.1925 322.95 57.71C324.5 58.97 325.95 60.31 327.4 61.71C328.818 63.1146 330.082 64.6667 331.17 66.34C331.946 67.5327 332.574 68.8155 333.04 70.16C333.492 71.4444 333.581 72.828 333.3 74.16C333.137 74.8581 332.835 75.5163 332.413 76.0952C331.99 76.6742 331.455 77.1622 330.84 77.53C329.491 78.2988 327.972 78.7214 326.42 78.76C324.671 78.8252 322.924 78.5988 321.25 78.09C319.56 77.6034 317.967 76.8287 316.54 75.8C315.947 75.3783 315.392 74.9066 314.88 74.39C314.365 73.8885 313.914 73.324 313.54 72.71C312.889 71.5864 312.583 70.2962 312.66 69C312.75 68.149 313.123 67.3529 313.72 66.74C314.295 66.1203 314.998 65.6325 315.78 65.31C315.809 65.472 315.809 65.638 315.78 65.8C315.78 66.08 315.78 66.44 315.72 66.85C315.66 67.26 315.72 67.77 315.66 68.19C315.642 68.4998 315.642 68.8103 315.66 69.12C315.784 69.9286 316.13 70.6869 316.66 71.31C317.663 72.4262 318.97 73.2256 320.42 73.61C321.807 73.9987 323.232 74.2334 324.67 74.31C325.417 74.3919 326.173 74.3582 326.91 74.21C327.588 74.0863 328.202 73.7332 328.65 73.21C328.87 72.9045 329.014 72.5514 329.071 72.1795C329.129 71.8077 329.097 71.4275 328.98 71.07C328.552 69.7337 327.85 68.501 326.92 67.45C325.882 66.1972 324.745 65.0301 323.52 63.96C322.29 62.88 321.22 61.96 320.29 61.27C318.857 60.2172 317.593 58.9527 316.54 57.52C315.25 55.52 314.87 53.78 315.41 52.19C315.723 51.3646 316.234 50.6289 316.898 50.0481C317.563 49.4673 318.36 49.0592 319.22 48.86C321.106 48.4398 323.074 48.5966 324.87 49.31C326.777 49.9521 328.44 51.1675 329.63 52.79C329.837 53.1258 330.011 53.4808 330.15 53.85C330.329 54.2055 330.405 54.6037 330.37 55Z" fill="black"/>
<path d="M339.16 49.21C339.46 49.05 339.64 49.03 339.7 49.21C339.772 49.4049 339.803 49.6127 339.79 49.82C339.923 51.4029 340.204 52.9697 340.63 54.5C341.123 56.46 341.603 58.26 342.07 59.9L342.48 61.33C343.387 64.27 344.46 67.31 345.7 70.45C345.79 69.97 345.88 69.58 345.96 69.29C346.753 67.03 347.477 64.72 348.13 62.36C348.13 62.28 348.13 62.2 348.18 62.13C348.29 61.7 348.4 61.23 348.52 60.72C348.893 59.0267 349.32 57.2267 349.8 55.32C350.206 53.6635 350.724 52.0364 351.35 50.45C351.745 49.8272 352.365 49.3798 353.08 49.2C353.769 49.0466 354.475 48.9861 355.18 49.02C355.719 49.0598 356.261 49.0598 356.8 49.02C357.067 48.9267 357.227 48.9467 357.28 49.08C357.328 49.2398 357.328 49.4102 357.28 49.57C357.222 49.7399 357.149 49.904 357.06 50.06C356.379 51.4426 355.791 52.8691 355.3 54.33C354.72 56.04 354.16 57.73 353.64 59.41C353.29 60.55 352.97 61.56 352.64 62.46C351.95 64.72 351.28 67.04 350.64 69.39C350.16 71.1967 349.667 72.9867 349.16 74.76C349.188 74.9907 349.153 75.2246 349.06 75.4374C348.967 75.6502 348.818 75.8341 348.63 75.97C348.233 76.3126 347.895 76.718 347.63 77.17C347.438 77.4849 347.206 77.7739 346.94 78.03C346.679 78.2678 346.343 78.4059 345.99 78.42C345.48 78.42 344.89 77.89 344.23 76.88C343.537 75.8297 342.922 74.7301 342.39 73.59C341.969 72.7366 341.592 71.8621 341.26 70.97C340.593 68.67 339.843 66.38 339.01 64.1C338.95 63.92 338.88 63.73 338.82 63.53C338.233 62.05 337.567 60.27 336.82 58.19C336.172 56.4695 335.673 54.6962 335.33 52.89C335.358 52.4294 335.491 51.9813 335.72 51.5807C335.949 51.18 336.267 50.8376 336.65 50.58C337.413 49.9992 338.259 49.5373 339.16 49.21Z" fill="black"/>
<path d="M362.6 54.13C361.84 53.5696 361.212 52.8494 360.76 52.02C360.289 51.2221 359.859 50.4011 359.47 49.56C359.26 49.23 359.23 49.04 359.36 48.99C359.568 48.9435 359.785 48.9645 359.98 49.05C360.87 49.2579 361.777 49.3884 362.69 49.44C363.69 49.5 364.69 49.54 365.69 49.56H367.02C368.02 49.56 369.02 49.56 370.02 49.46L373.19 49.24C374.26 49.17 375.29 49.1 376.28 49.05C377.973 48.67 379.463 49.3067 380.75 50.96C380.66 51.27 380.12 51.64 379.13 52.06C378.095 52.4867 377.037 52.854 375.96 53.16C375.178 53.4066 374.374 53.5807 373.56 53.68H372.39C371.58 53.68 370.84 53.68 370.15 53.68C369.336 53.7131 368.525 53.7899 367.72 53.91C367.44 56.01 367.2 58.12 367 60.26C367.65 60.31 368.3 60.38 369 60.45C370.435 60.4883 371.87 60.4449 373.3 60.32L375 60.22C375.18 60.1375 375.378 60.1016 375.575 60.1156C375.773 60.1295 375.963 60.193 376.13 60.3C376.473 60.5329 376.763 60.8363 376.98 61.19C377.232 61.5331 377.46 61.894 377.66 62.27C377.66 62.5633 377.4 62.8967 376.88 63.27C376.354 63.6577 375.792 63.9927 375.2 64.27C374.748 64.5262 374.247 64.683 373.73 64.73C372.53 64.66 371.61 64.64 370.98 64.66C370.35 64.68 369.8 64.72 369.36 64.77L368.21 64.87C367.8 64.87 367.28 64.87 366.64 64.87C366.517 67.1337 366.564 69.4033 366.78 71.66C366.86 71.8222 366.904 71.9994 366.91 72.18C366.911 72.3362 366.865 72.4892 366.78 72.62C366.686 72.6816 366.59 72.7384 366.49 72.79C366.339 72.8699 366.182 72.9368 366.02 72.99L369.63 73.13C369.86 73.13 370.1 73.13 370.33 73.13C371.56 73.13 372.92 73.08 374.43 72.95C375.94 72.82 377.3 72.65 378.5 72.44C378.636 72.3338 378.803 72.276 378.975 72.276C379.147 72.276 379.314 72.3338 379.45 72.44C379.684 72.5872 379.885 72.7813 380.04 73.01C380.27 73.31 380.49 73.6 380.68 73.87L380.94 74.2C380.992 74.4568 380.973 74.7228 380.885 74.9695C380.797 75.2162 380.643 75.4342 380.44 75.6C379.961 76.0715 379.403 76.4541 378.79 76.73C378.271 76.999 377.709 77.175 377.13 77.25C375.77 77.25 374.41 77.25 373.05 77.35L372.13 77.41C370.96 77.54 369.58 77.65 368 77.74C366.616 77.8357 365.225 77.7888 363.85 77.6C362.882 77.1824 362.061 76.4861 361.49 75.6C360.912 74.7829 360.413 73.9122 360 73C359.86 72.73 359.82 72.57 359.89 72.5C359.942 72.4604 360.002 72.4334 360.067 72.4212C360.131 72.4091 360.197 72.4121 360.26 72.43C360.444 72.4578 360.625 72.5048 360.8 72.57C361.855 72.7875 362.925 72.9311 364 73C363.363 72.2776 362.892 71.4242 362.62 70.5C362.328 69.7196 362.149 68.9012 362.09 68.07C362.09 67.96 362.09 67.75 362.09 67.45C362.09 66.93 362.17 66.31 362.23 65.58C362.29 64.85 362.32 64.2 362.34 63.58C362.382 63.248 362.382 62.912 362.34 62.58C361.803 61.77 361.316 60.9285 360.88 60.06C360.7 59.77 360.67 59.59 360.81 59.53C361.011 59.4643 361.229 59.4643 361.43 59.53C361.7 59.58 361.96 59.63 362.21 59.7H362.3C362.3 58.7 362.3 57.7 362.36 56.75C362.384 55.8725 362.464 54.9973 362.6 54.13Z" fill="black"/>
<path d="M383.73 49.6C383.55 49.4 383.49 49.26 383.54 49.18C383.59 49.1 383.73 49.05 383.93 49.04C384.13 49.0208 384.33 49.0208 384.53 49.04C384.682 49.058 384.833 49.0881 384.98 49.13C386.393 49.3649 387.819 49.5151 389.25 49.58C390.73 49.64 392.17 49.67 393.57 49.67H394.73C397.04 49.57 399.44 49.35 401.91 49.01L403.65 48.79C403.901 48.675 404.174 48.6154 404.45 48.6154C404.726 48.6154 404.999 48.675 405.25 48.79C405.683 48.9829 406.076 49.2541 406.41 49.59C406.771 49.9166 407.105 50.271 407.41 50.65C407.41 51.0234 407.04 51.4334 406.3 51.88C405.536 52.3566 404.729 52.7616 403.89 53.09C403.252 53.3731 402.58 53.5715 401.89 53.68C400.89 53.68 399.8 53.68 398.73 53.79C398.73 53.93 398.73 54.06 398.73 54.2C398.724 54.3089 398.704 54.4165 398.67 54.52C398.429 55.9724 398.282 57.4388 398.23 58.91C398.16 60.58 398.12 62.23 398.11 63.91C398.11 64.96 398.05 65.91 398.03 66.8C398.03 70.2934 398.153 73.8434 398.4 77.45C398.453 77.5022 398.495 77.5644 398.524 77.6331C398.553 77.7018 398.568 77.7755 398.568 77.85C398.568 77.9245 398.553 77.9983 398.524 78.067C398.495 78.1356 398.453 78.1979 398.4 78.25C398.195 78.2876 397.985 78.2876 397.78 78.25L397.07 78.15C396.836 78.0782 396.594 78.0379 396.35 78.03C395.876 77.8645 395.442 77.6009 395.077 77.2562C394.711 76.9116 394.423 76.4938 394.23 76.03C393.849 75.1696 393.644 74.2411 393.63 73.3C393.74 71.47 393.76 69.62 393.69 67.73C393.69 67.44 393.69 67.16 393.69 66.89C393.69 66.62 393.69 66.44 393.63 66.21C393.5 64.55 393.39 62.74 393.29 60.78C393.191 59.1135 393.221 57.4419 393.38 55.78C393.578 55.1407 394.02 54.6053 394.61 54.29C392.703 54.5745 390.769 54.6282 388.85 54.45C387.732 54.0462 386.739 53.3567 385.97 52.45C385.141 51.568 384.391 50.6143 383.73 49.6Z" fill="black"/>
<path d="M413 49.3201C413.16 49.1101 413.3 49.06 413.43 49.16C413.58 49.2824 413.691 49.4457 413.75 49.63C413.84 49.86 413.9 50.03 413.94 50.16C414.402 51.4152 414.989 52.6212 415.69 53.7601C416.44 54.9701 417.19 56.1101 417.94 57.1701L418.04 57.33C419.326 58.987 420.701 60.5727 422.16 62.08C422.48 60.2 422.897 58.2367 423.41 56.19C423.846 54.355 424.459 52.5666 425.24 50.85C425.866 49.9892 426.802 49.4049 427.85 49.22C429.01 49.0404 430.197 49.2329 431.24 49.77C431.49 49.85 431.63 49.95 431.66 50.06C431.674 50.1245 431.673 50.1913 431.657 50.2553C431.642 50.3193 431.612 50.379 431.57 50.43C431.475 50.5573 431.372 50.6776 431.26 50.7901L431.12 50.9201C429.919 52.7809 428.983 54.8004 428.34 56.9201C427.513 59.4201 426.847 61.6067 426.34 63.4801C425.342 67.6426 424.611 71.8645 424.15 76.12C424.242 76.6227 424.138 77.1415 423.86 77.5701C423.614 77.8284 423.285 77.9914 422.93 78.03C422.568 78.1106 422.2 78.1574 421.83 78.1701C421.511 77.9359 421.247 77.6363 421.053 77.2913C420.86 76.9464 420.743 76.564 420.71 76.1701C420.475 75.0949 420.341 74.0001 420.31 72.9C420.267 72.0828 420.29 71.2635 420.38 70.4501C420.75 68.9001 421.1 67.33 421.44 65.74C420.751 65.3822 420.083 64.9848 419.44 64.55C418.961 64.2334 418.518 63.8645 418.12 63.4501C417.37 62.4501 416.57 61.4501 415.72 60.4501C415.608 60.2913 415.484 60.1409 415.35 60C414.53 59.14 413.69 58.18 412.84 57.12C412.068 56.1516 411.398 55.1061 410.84 54C410.637 53.0854 410.798 52.1276 411.29 51.33C411.746 50.5711 412.324 49.8921 413 49.3201Z" fill="black"/>
</svg>
