<svg width="636" height="281" viewBox="0 0 636 281" fill="none" xmlns="http://www.w3.org/2000/svg">
    <path
        d="M51.66 140.05C46.1925 137.511 40.2169 136.256 34.19 136.38C28.1536 136.258 22.1688 137.513 16.69 140.05C11.864 142.296 7.78529 145.881 4.94 150.38C2.20903 155.038 0.769379 160.34 0.769379 165.74C0.769379 171.14 2.20903 176.442 4.94 181.1C7.78529 185.599 11.864 189.184 16.69 191.43C22.1688 193.967 28.1536 195.222 34.19 195.1C40.2169 195.224 46.1925 193.969 51.66 191.43C56.4823 189.175 60.5617 185.591 63.42 181.1C66.157 176.444 67.6002 171.141 67.6002 165.74C67.6002 160.339 66.157 155.036 63.42 150.38C60.5617 145.889 56.4823 142.305 51.66 140.05ZM49.73 174C48.2582 176.353 46.1166 178.213 43.58 179.34C37.5518 181.82 30.7882 181.82 24.76 179.34C22.2238 178.221 20.0864 176.359 18.63 174C17.2291 171.476 16.494 168.637 16.494 165.75C16.494 162.863 17.2291 160.024 18.63 157.5C20.0835 155.139 22.2217 153.276 24.76 152.16C30.7882 149.68 37.5518 149.68 43.58 152.16C46.1185 153.284 48.2611 155.144 49.73 157.5C51.1457 160.019 51.8893 162.86 51.8893 165.75C51.8893 168.64 51.1457 171.481 49.73 174Z"
        fill="black" />
    <path
        d="M110.39 182.41C108.233 182.881 106.028 183.099 103.82 183.06C101.402 183.102 98.9907 182.795 96.66 182.15C94.8502 181.664 93.1814 180.755 91.79 179.5C90.625 178.425 89.8687 176.98 89.65 175.41H73.82C73.907 179.201 75.2985 182.846 77.76 185.73C80.5706 188.91 84.1673 191.297 88.19 192.65C93.1166 194.36 98.3058 195.19 103.52 195.1C108.567 195.195 113.59 194.368 118.34 192.66C122.217 191.318 125.651 188.938 128.27 185.78C130.606 182.864 131.855 179.226 131.8 175.49C131.91 172.644 131.15 169.832 129.62 167.43C127.856 165.084 125.412 163.338 122.62 162.43C118.488 161.01 114.188 160.14 109.83 159.84L98.62 158.76C96.9237 158.597 95.2484 158.262 93.62 157.76C92.615 157.496 91.704 156.955 90.99 156.2C90.4668 155.542 90.1939 154.72 90.22 153.88C90.2147 153.31 90.3346 152.746 90.5713 152.228C90.8081 151.709 91.1558 151.249 91.59 150.88C92.7185 149.941 94.0617 149.295 95.5 149C97.4922 148.557 99.5294 148.349 101.57 148.38C103.809 148.345 106.042 148.611 108.21 149.17C109.844 149.57 111.361 150.347 112.64 151.44C113.663 152.332 114.327 153.565 114.51 154.91H130.34C130.113 151.314 128.679 147.9 126.27 145.22C123.544 142.226 120.104 139.972 116.27 138.67C111.648 137.054 106.776 136.269 101.88 136.35C96.9727 136.254 92.0833 136.97 87.41 138.47C83.7102 139.6 80.3993 141.74 77.85 144.65C75.5828 147.409 74.3831 150.89 74.47 154.46C74.3851 157.409 75.19 160.315 76.78 162.8C78.5817 165.338 81.0937 167.286 84 168.4C88.0427 169.985 92.3067 170.932 96.64 171.21L107.06 172.21C108.91 172.354 110.739 172.689 112.52 173.21C113.584 173.487 114.55 174.055 115.31 174.85C115.877 175.553 116.171 176.437 116.14 177.34C116.139 177.941 116.006 178.535 115.75 179.079C115.494 179.624 115.122 180.105 114.66 180.49C113.412 181.465 111.947 182.124 110.39 182.41Z"
        fill="black" />
    <path
        d="M207.77 151.2V193.86H222.55V137.61H198.55L181.5 178.74L164.35 137.61H140.31V193.86H155.12V151.38L173.57 193.86H189.29L207.77 151.2Z"
        fill="black" />
    <path
        d="M249.92 183H279L283.69 193.83H300.27L274.69 137.58H254.24L228.62 193.83H245.24L249.92 183ZM255.32 170.51L264.44 149.42L273.57 170.51H255.32Z"
        fill="black" />
    <path d="M321.4 154.37L349.15 193.86H368.72V137.61H353.65V176.23L326.42 137.61H306.28V193.86H321.4V154.37Z"
        fill="black" />
    <path d="M376.15 151.45H397.6V193.86H413.16V151.45H434.61V137.61H376.15V151.45Z" fill="black" />
    <path d="M486.32 158.43H457.56V137.61H442V193.86H457.56V172.15H486.32V193.86H501.88V137.61H486.32V158.43Z"
        fill="black" />
    <path
        d="M553.63 168.74C553.692 171.055 553.191 173.351 552.17 175.43C551.21 177.282 549.687 178.78 547.82 179.71C545.596 180.693 543.191 181.2 540.76 181.2C538.329 181.2 535.924 180.693 533.7 179.71C531.831 178.772 530.302 177.272 529.33 175.42C528.313 173.35 527.812 171.065 527.87 168.76V137.61H512.31V169.49C512.211 174.206 513.445 178.854 515.87 182.9C518.277 186.792 521.747 189.915 525.87 191.9C530.551 194.006 535.627 195.096 540.76 195.096C545.893 195.096 550.969 194.006 555.65 191.9C559.786 189.933 563.26 186.806 565.65 182.9C568.062 178.846 569.292 174.197 569.2 169.48V137.61H553.63V168.74Z"
        fill="black" />
    <path
        d="M632.94 167.43C631.176 165.084 628.732 163.338 625.94 162.43C621.808 161.01 617.508 160.14 613.15 159.84L602 158.73C600.304 158.567 598.628 158.232 597 157.73C595.995 157.466 595.084 156.925 594.37 156.17C593.847 155.512 593.574 154.69 593.6 153.85C593.595 153.28 593.715 152.716 593.951 152.198C594.188 151.679 594.536 151.219 594.97 150.85C596.103 149.917 597.45 149.278 598.89 148.99C600.882 148.547 602.919 148.339 604.96 148.37C607.199 148.335 609.432 148.601 611.6 149.16C613.234 149.56 614.751 150.337 616.03 151.43C617.053 152.322 617.717 153.555 617.9 154.9H633.73C633.503 151.304 632.069 147.89 629.66 145.21C626.934 142.216 623.494 139.962 619.66 138.66C615.038 137.044 610.166 136.259 605.27 136.34C600.363 136.244 595.473 136.96 590.8 138.46C587.1 139.59 583.789 141.73 581.24 144.64C578.973 147.399 577.773 150.88 577.86 154.45C577.775 157.399 578.58 160.305 580.17 162.79C581.965 165.311 584.462 167.248 587.35 168.36C591.393 169.945 595.657 170.892 599.99 171.17L610.41 172.17C612.259 172.315 614.089 172.65 615.87 173.17C616.934 173.447 617.9 174.015 618.66 174.81C619.227 175.513 619.521 176.397 619.49 177.3C619.489 177.901 619.356 178.495 619.1 179.039C618.844 179.584 618.472 180.065 618.01 180.45C616.785 181.446 615.337 182.132 613.79 182.45C611.633 182.921 609.428 183.139 607.22 183.1C604.802 183.142 602.391 182.835 600.06 182.19C598.25 181.704 596.581 180.795 595.19 179.54C594.025 178.465 593.269 177.02 593.05 175.45H577.14C577.227 179.241 578.619 182.886 581.08 185.77C583.891 188.95 587.487 191.337 591.51 192.69C596.437 194.4 601.626 195.23 606.84 195.14C611.887 195.235 616.91 194.408 621.66 192.7C625.537 191.358 628.971 188.978 631.59 185.82C633.926 182.904 635.175 179.266 635.12 175.53C635.238 172.671 634.477 169.844 632.94 167.43Z"
        fill="black" />
    <path d="M47.54 243.43H18.78V222.61H3.21V278.86H18.78V257.15H47.54V278.86H63.1V222.61H47.54V243.43Z" fill="black" />
    <path d="M89.83 222.61H74.27V278.86H89.83V222.61Z" fill="black" />
    <path
        d="M134.24 260.71H149.61C149.451 260.939 149.281 261.159 149.1 261.37C147.31 263.448 145.002 265.014 142.41 265.91C139.304 266.998 136.03 267.523 132.74 267.46C129.359 267.544 126 266.899 122.89 265.57C120.23 264.402 118.002 262.429 116.52 259.93C114.956 257.126 114.185 253.949 114.29 250.74C114.182 247.612 114.893 244.51 116.35 241.74C117.692 239.331 119.751 237.398 122.24 236.21C125.092 234.893 128.209 234.25 131.35 234.33C133.985 234.295 136.61 234.67 139.13 235.44C141.245 236.067 143.197 237.149 144.85 238.61C146.29 239.918 147.33 241.606 147.85 243.48H163.52C162.757 239.258 160.918 235.304 158.18 232C155.219 228.526 151.438 225.845 147.18 224.2C142.128 222.236 136.74 221.281 131.32 221.39C125.552 221.29 119.833 222.476 114.58 224.86C109.794 227.041 105.744 230.563 102.92 235C100.159 239.801 98.7056 245.242 98.7056 250.78C98.7056 256.318 100.159 261.759 102.92 266.56C105.677 270.963 109.646 274.477 114.35 276.68C119.394 279.044 124.91 280.231 130.48 280.15C135.75 280.307 140.972 279.112 145.65 276.68C148.176 275.318 150.443 273.524 152.35 271.38L153.09 278.91H164.09V249.81H134.24V260.71Z"
        fill="black" />
    <path d="M218.42 243.43H189.66V222.61H174.1V278.86H189.66V257.15H218.42V278.86H233.99V222.61H218.42V243.43Z"
        fill="black" />
    <path
        d="M295.24 250.4C294.079 249.911 292.878 249.523 291.65 249.24C292.08 249.04 292.49 248.83 292.88 248.6C295.159 247.357 297.044 245.5 298.32 243.24C299.454 241.104 300.038 238.719 300.02 236.3C300.087 233.726 299.41 231.188 298.07 228.99C296.703 226.879 294.73 225.23 292.41 224.26C289.595 223.094 286.566 222.532 283.52 222.61H243.52L247.82 250L243.47 278.87H285C288.536 278.982 292.053 278.299 295.29 276.87C297.923 275.677 300.138 273.723 301.65 271.26C303.096 268.777 303.833 265.944 303.78 263.07C303.846 260.388 303.107 257.749 301.66 255.49C300.075 253.191 297.84 251.419 295.24 250.4ZM281.39 234.15C282.262 234.543 282.997 235.187 283.5 236C283.999 236.818 284.256 237.762 284.24 238.72C284.262 239.83 283.967 240.922 283.39 241.87C282.839 242.766 282.045 243.488 281.1 243.95C280.071 244.454 278.936 244.705 277.79 244.68H261.79L260 233.49H278.09C279.225 233.462 280.353 233.688 281.39 234.15ZM286.09 266.34C284.609 267.515 282.747 268.102 280.86 267.99H259.93L261.93 255.31H279.93C282.073 255.173 284.197 255.792 285.93 257.06C286.574 257.644 287.092 258.352 287.452 259.142C287.813 259.933 288.009 260.788 288.027 261.657C288.046 262.526 287.887 263.389 287.561 264.194C287.235 264.999 286.748 265.729 286.13 266.34H286.09Z"
        fill="black" />
    <path
        d="M329.87 222.61L304.26 278.86H320.87L325.56 268H354.62L359.31 278.83H375.89L350.31 222.58L329.87 222.61ZM331 255.54L340.12 234.45L349.25 255.54H331Z"
        fill="black" />
    <path d="M397.48 222.61H381.92V278.86H432.58V265.03H397.48V222.61Z" fill="black" />
    <path d="M455.53 222.61H439.97V278.86H490.63V265.03H455.53V222.61Z" fill="black" />
    <path
        d="M34.19 120C28.0811 120.117 22.0254 118.845 16.48 116.28C11.5564 113.993 7.39189 110.342 4.48001 105.76C1.61609 101.047 0.155645 95.6142 0.27 90.1001C0.172297 84.5965 1.64292 79.1789 4.51 74.4801C7.42189 69.8982 11.5864 66.2473 16.51 63.9601C22.0554 61.3949 28.1111 60.1229 34.22 60.2401C40.3154 60.1402 46.3539 61.4259 51.88 64.0001C56.8008 66.2915 60.9643 69.9415 63.88 74.5201C66.7415 79.2057 68.2055 84.6109 68.1 90.1001C68.2012 95.6068 66.7229 101.027 63.84 105.72C60.9243 110.299 56.7608 113.949 51.84 116.24C46.317 118.813 40.2821 120.098 34.19 120ZM34.19 61.2801C28.2305 61.1658 22.3226 62.4035 16.91 64.9001C12.1761 67.0972 8.16874 70.6015 5.36 75.0001C2.58969 79.5426 1.17098 84.7804 1.27 90.1001C1.17288 95.4164 2.59153 100.65 5.36 105.19C8.16146 109.607 12.1695 113.129 16.91 115.34C22.3193 117.85 28.2274 119.102 34.19 119C40.14 119.115 46.0384 117.878 51.44 115.38C56.183 113.15 60.1927 109.616 63 105.19C65.7761 100.653 67.1986 95.4179 67.1 90.1001C67.2005 84.7789 65.7779 79.5398 63 75.0001C60.1869 70.5892 56.1777 67.069 51.44 64.8501C46.0376 62.356 40.1392 61.1217 34.19 61.2401V61.2801ZM34.19 106.09C30.8768 106.165 27.5871 105.517 24.55 104.19C21.9269 103.02 19.715 101.09 18.2 98.6501C16.7543 96.0503 15.9956 93.1248 15.9956 90.1501C15.9956 87.1754 16.7543 84.2499 18.2 81.6501C19.715 79.2099 21.9269 77.2802 24.55 76.1101C30.7131 73.5763 37.6269 73.5763 43.79 76.1101C46.4135 77.2877 48.6299 79.2153 50.16 81.6501C51.6186 84.2456 52.3848 87.1728 52.3848 90.1501C52.3848 93.1274 51.6186 96.0546 50.16 98.6501C48.6299 101.085 46.4135 103.013 43.79 104.19C40.7627 105.499 37.487 106.134 34.19 106.05V106.09ZM34.19 75.1901C31.0317 75.1201 27.8959 75.7377 25 77.0001C22.557 78.0876 20.4953 79.8812 19.08 82.1501C17.7256 84.599 17.0152 87.3516 17.0152 90.1501C17.0152 92.9485 17.7256 95.7012 19.08 98.1501C20.4953 100.419 22.557 102.213 25 103.3C30.896 105.713 37.504 105.713 43.4 103.3C45.8471 102.211 47.9148 100.418 49.34 98.1501C50.7072 95.7054 51.425 92.9511 51.425 90.1501C51.425 87.3491 50.7072 84.5948 49.34 82.1501C47.9068 79.8776 45.8281 78.0845 43.37 77.0001C40.4812 75.7223 37.3482 75.0909 34.19 75.1501V75.1901Z"
        fill="black" />
    <path
        d="M103.52 120C98.2383 120.074 92.9847 119.218 88 117.47C83.899 116.089 80.2331 113.655 77.37 110.41C74.8553 107.435 73.4427 103.685 73.37 99.7901V99.2701H90.14L90.2 99.7001C90.4107 101.159 91.1169 102.501 92.2 103.5C93.5388 104.7 95.1424 105.567 96.88 106.03C99.1592 106.658 101.516 106.957 103.88 106.92C106.048 106.957 108.212 106.742 110.33 106.28C111.796 105.998 113.17 105.359 114.33 104.42C114.744 104.087 115.077 103.665 115.306 103.186C115.534 102.706 115.652 102.181 115.65 101.65C115.68 100.862 115.428 100.089 114.94 99.4701C114.216 98.7465 113.306 98.2377 112.31 98.0001C110.565 97.4851 108.773 97.15 106.96 97.0001L96.54 96.0001C92.1555 95.7133 87.8414 94.752 83.75 93.1501C80.7777 91.9919 78.2066 89.9941 76.35 87.4001C74.6158 84.5301 73.7926 81.2018 73.989 77.8543C74.1853 74.5068 75.3921 71.2976 77.45 68.6501C80.0647 65.6727 83.4535 63.4781 87.24 62.3101C91.9674 60.804 96.9093 60.0812 101.87 60.1701C106.824 60.0941 111.752 60.8896 116.43 62.5201C120.344 63.8518 123.856 66.1534 126.64 69.2101C129.122 71.9779 130.601 75.5 130.84 79.2101V79.7401H114.04V79.3001C113.869 78.0731 113.257 76.9501 112.32 76.1401C111.094 75.104 109.642 74.3709 108.08 74.0001C105.954 73.4526 103.765 73.1936 101.57 73.2301C99.5697 73.2011 97.5728 73.4058 95.62 73.8401C94.2615 74.1045 92.9901 74.7024 91.92 75.5801C91.5367 75.902 91.2294 76.3047 91.0201 76.7594C90.8109 77.2142 90.705 77.7096 90.71 78.2101C90.6864 78.9339 90.9203 79.6425 91.37 80.2101C92.027 80.8823 92.8524 81.3658 93.76 81.6101C95.3704 82.0888 97.0258 82.4004 98.7 82.5401L109.91 83.6301C114.312 83.9342 118.655 84.8116 122.83 86.2401C125.7 87.2216 128.202 89.0569 130 91.5001C131.582 93.9902 132.37 96.9021 132.26 99.8501C132.313 103.697 131.03 107.443 128.63 110.45C125.938 113.658 122.427 116.077 118.47 117.45C113.682 119.197 108.616 120.061 103.52 120ZM74.35 100.31C74.5353 103.806 75.8713 107.142 78.15 109.8C80.8994 112.917 84.4206 115.255 88.36 116.58C93.2325 118.269 98.3639 119.088 103.52 119C108.505 119.089 113.464 118.275 118.16 116.6C121.95 115.279 125.31 112.953 127.88 109.87C130.144 107.033 131.352 103.499 131.3 99.8701C131.409 97.1248 130.68 94.4113 129.21 92.0901C127.512 89.8249 125.159 88.1355 122.47 87.2501C118.379 85.8512 114.123 84.9907 109.81 84.6901L98.6 83.5801C96.8523 83.4336 95.1255 83.0983 93.45 82.5801C92.3543 82.2916 91.3628 81.6987 90.59 80.8701C89.9948 80.1212 89.6832 79.1863 89.71 78.2301C89.7055 77.5901 89.841 76.9568 90.107 76.3747C90.3731 75.7925 90.7632 75.2756 91.25 74.8601C92.4396 73.8614 93.8589 73.1741 95.38 72.8601C97.4113 72.4058 99.4888 72.191 101.57 72.2201C103.856 72.1812 106.137 72.4537 108.35 73.0301C110.069 73.4641 111.662 74.2965 113 75.4601C114.008 76.3298 114.709 77.5009 115 78.8001H129.86C129.538 75.5065 128.171 72.4021 125.96 69.9401C123.284 67.0086 119.909 64.8033 116.15 63.5301C111.585 61.9381 106.774 61.1629 101.94 61.2401C97.0878 61.15 92.2537 61.8561 87.63 63.3301C84.0208 64.4259 80.7871 66.5032 78.29 69.3301C76.3754 71.8164 75.2556 74.8226 75.0772 77.9556C74.8988 81.0886 75.67 84.2025 77.29 86.8901C79.047 89.3294 81.4807 91.1999 84.29 92.2701C88.2818 93.8346 92.4916 94.7724 96.77 95.0501L107.2 96.0501C109.083 96.1898 110.946 96.5249 112.76 97.0501C113.908 97.3535 114.948 97.9738 115.76 98.8401C116.398 99.635 116.731 100.631 116.7 101.65C116.701 102.322 116.553 102.986 116.268 103.594C115.983 104.203 115.567 104.741 115.05 105.17C113.762 106.216 112.238 106.93 110.61 107.25C108.417 107.733 106.175 107.958 103.93 107.92C101.464 107.963 99.0048 107.646 96.63 106.98C94.7412 106.477 92.9996 105.531 91.55 104.22C90.4081 103.155 89.6342 101.754 89.34 100.22L74.35 100.31Z"
        fill="black" />
    <path
        d="M223.05 118.72H207.27V78.0001L189.61 118.74H173.25L155.62 78.1401V118.72H139.81V61.4701H164.68L181.5 101.8L198.21 61.4701H223.05V118.72ZM208.27 117.72H222.05V62.4701H198.88L181.5 104.41L164 62.4701H140.81V117.72H154.62V75.7201L155.62 75.5301L173.94 117.71H189L207.35 75.3601L208.35 75.5501L208.27 117.72Z"
        fill="black" />
    <path
        d="M301 118.72H283.35L278.65 107.89H250.25L245.56 118.72H227.85L253.91 61.4701H275L301 118.72ZM284 117.72H299.47L274.35 62.4701H254.56L229.4 117.72H244.91L249.59 106.89H279.31L284 117.72ZM274.33 95.4001H254.56L264.44 72.5501L274.33 95.4001ZM256.08 94.4001H272.81L264.44 75.0701L256.08 94.4001Z"
        fill="black" />
    <path
        d="M369.22 118.72H348.89L321.89 80.3101V118.72H305.78V61.4701H326.68L353.15 99.0001V61.4701H369.22V118.72ZM349.41 117.72H368.22V62.4701H354.15V102.17L326.15 62.4701H306.78V117.72H320.9V77.1501L349.41 117.72Z"
        fill="black" />
    <path
        d="M413.66 118.72H397.1V76.3101H375.65V61.4701H435.11V76.3101H413.66V118.72ZM398.1 117.72H412.66V75.3101H434.11V62.4701H376.65V75.3101H398.1V117.72Z"
        fill="black" />
    <path
        d="M502.38 118.72H485.82V97.0001H458.06V118.71H441.5V61.4701H458.06V82.2901H485.82V61.4701H502.38V118.72ZM486.82 117.72H501.38V62.4701H486.82V83.2901H457.06V62.4701H442.5V117.72H457.06V96.0001H486.82V117.72Z"
        fill="black" />
    <path
        d="M540.77 120C535.548 120.104 530.374 118.988 525.66 116.74C521.452 114.711 517.907 111.527 515.44 107.56C512.976 103.432 511.718 98.6965 511.81 93.8901V61.4701H528.37V93.1001C528.31 95.323 528.794 97.527 529.78 99.5201C530.7 101.282 532.152 102.71 533.93 103.6C536.082 104.55 538.408 105.04 540.76 105.04C543.112 105.04 545.438 104.55 547.59 103.6C549.366 102.72 550.816 101.298 551.73 99.5401C552.71 97.5309 553.19 95.3147 553.13 93.0801V61.4701H569.7V93.8501C569.789 98.658 568.536 103.396 566.08 107.53C563.635 111.511 560.093 114.702 555.88 116.72C551.164 118.966 545.992 120.088 540.77 120ZM512.77 62.5101V93.8501C512.687 98.4782 513.91 103.036 516.3 107C518.663 110.815 522.066 113.875 526.11 115.82C530.722 117.89 535.72 118.96 540.775 118.96C545.83 118.96 550.828 117.89 555.44 115.82C559.479 113.88 562.874 110.818 565.22 107C567.585 103.024 568.791 98.4655 568.7 93.8401V62.4701H554.13V93.1001C554.193 95.496 553.671 97.871 552.61 100.02C551.602 101.96 550.006 103.532 548.05 104.51C545.755 105.532 543.272 106.06 540.76 106.06C538.248 106.06 535.764 105.532 533.47 104.51C531.51 103.526 529.908 101.952 528.89 100.01C527.833 97.8703 527.311 95.5059 527.37 93.1201V62.4701L512.77 62.5101Z"
        fill="black" />
    <path
        d="M606.84 120C601.564 120.086 596.314 119.243 591.33 117.51C587.229 116.129 583.563 113.695 580.7 110.45C578.168 107.481 576.734 103.731 576.64 99.8301V99.3101H593.4L593.46 99.7401C593.671 101.199 594.377 102.541 595.46 103.54C596.799 104.74 598.402 105.607 600.14 106.07C602.419 106.698 604.776 106.997 607.14 106.96C609.308 106.997 611.472 106.782 613.59 106.32C615.056 106.038 616.43 105.399 617.59 104.46C618.004 104.127 618.337 103.705 618.566 103.226C618.794 102.746 618.912 102.221 618.91 101.69C618.94 100.902 618.688 100.129 618.2 99.5101C617.497 98.7814 616.609 98.2592 615.63 98.0001C613.885 97.4851 612.093 97.15 610.28 97.0001L599.86 96.0001C595.475 95.7133 591.161 94.752 587.07 93.1501C584.098 91.9919 581.527 89.9941 579.67 87.4001C577.936 84.5301 577.113 81.2018 577.309 77.8543C577.505 74.5068 578.712 71.2976 580.77 68.6501C583.385 65.6727 586.773 63.4781 590.56 62.3101C595.287 60.804 600.229 60.0812 605.19 60.1701C610.144 60.0941 615.072 60.8896 619.75 62.5201C623.686 63.8657 627.213 66.1922 630 69.2801C632.482 72.0479 633.961 75.57 634.2 79.2801V79.8101H617.4V79.3801C617.228 78.1506 616.617 77.0249 615.68 76.2101C614.45 75.1433 612.982 74.3856 611.4 74.0001C609.274 73.4526 607.085 73.1936 604.89 73.2301C602.89 73.2011 600.893 73.4058 598.94 73.8401C597.582 74.1045 596.31 74.7024 595.24 75.5801C594.844 75.9018 594.527 76.3094 594.312 76.7721C594.097 77.2347 593.99 77.7401 594 78.2501C593.976 78.9739 594.21 79.6825 594.66 80.2501C595.314 80.9259 596.141 81.41 597.05 81.6501C598.66 82.1288 600.316 82.4404 601.99 82.5801L613.2 83.6701C617.602 83.9742 621.945 84.8516 626.12 86.2801C628.998 87.241 631.514 89.0589 633.33 91.4901C634.912 93.9802 635.7 96.8921 635.59 99.8401C635.643 103.687 634.36 107.433 631.96 110.44C629.268 113.648 625.757 116.067 621.8 117.44C617.009 119.191 611.94 120.059 606.84 120ZM577.67 100.31C577.862 103.803 579.193 107.136 581.46 109.8C584.215 112.915 587.739 115.253 591.68 116.58C596.552 118.269 601.684 119.088 606.84 119C611.825 119.089 616.784 118.275 621.48 116.6C625.27 115.279 628.63 112.953 631.2 109.87C633.464 107.033 634.672 103.499 634.62 99.8701C634.729 97.1248 634 94.4113 632.53 92.0901C630.832 89.8249 628.479 88.1355 625.79 87.2501C621.699 85.8512 617.443 84.9907 613.13 84.6901L601.92 83.6001C600.172 83.4536 598.446 83.1183 596.77 82.6001C595.674 82.3116 594.683 81.7187 593.91 80.8901C593.315 80.1412 593.003 79.2063 593.03 78.2501C593.026 77.6101 593.161 76.9768 593.427 76.3947C593.693 75.8125 594.083 75.2956 594.57 74.8801C595.76 73.8814 597.179 73.1941 598.7 72.8801C600.731 72.4258 602.809 72.211 604.89 72.2401C607.176 72.2019 609.457 72.4744 611.67 73.0501C613.375 73.4699 614.958 74.2852 616.29 75.4301C617.297 76.3003 617.999 77.4712 618.29 78.7701H633.15C632.828 75.4765 631.461 72.3721 629.25 69.9101C626.574 66.9786 623.199 64.7733 619.44 63.5001C614.875 61.9081 610.064 61.1329 605.23 61.2101C600.378 61.12 595.544 61.8261 590.92 63.3001C587.311 64.3959 584.077 66.4732 581.58 69.3001C579.665 71.7864 578.546 74.7926 578.367 77.9256C578.189 81.0586 578.96 84.1725 580.58 86.8601C582.337 89.2994 584.771 91.1699 587.58 92.2401C591.55 93.8192 595.739 94.7771 600 95.0801L610.43 96.0801C612.313 96.2198 614.176 96.5549 615.99 97.0801C617.138 97.3835 618.178 98.0038 618.99 98.8701C619.627 99.6654 619.96 100.662 619.93 101.68C619.931 102.352 619.783 103.016 619.498 103.624C619.213 104.233 618.797 104.771 618.28 105.2C616.992 106.246 615.468 106.96 613.84 107.28C611.647 107.763 609.405 107.988 607.16 107.95C604.694 107.993 602.235 107.676 599.86 107.01C597.971 106.507 596.23 105.561 594.78 104.25C593.636 103.186 592.862 101.785 592.57 100.25L577.67 100.31Z"
        fill="black" />
    <path
        d="M34.19 44.71C28.1346 44.8179 22.1337 43.5494 16.64 41C11.7927 38.739 7.69445 35.137 4.83 30.62C2.00169 25.9808 0.551904 20.6325 0.65 15.2C0.554608 9.77416 2.00434 4.43305 4.83 -0.199967C7.69445 -4.71694 11.7927 -8.31898 16.64 -10.58C22.1353 -13.1224 28.1361 -14.3841 34.19 -14.27C40.2377 -14.3863 46.2324 -13.1245 51.72 -10.58C56.5602 -8.31222 60.6535 -4.71148 63.52 -0.199967C66.3681 4.43209 67.8291 9.78333 67.73 15.22C67.8274 20.6565 66.3665 26.0073 63.52 30.64C60.6506 35.1442 56.5576 38.7377 51.72 41C46.2341 43.5514 40.2392 44.8201 34.19 44.71ZM34.19 -14.02C28.1746 -14.1355 22.2114 -12.8841 16.75 -10.36C11.9289 -8.12567 7.85071 -4.55419 5 -0.0699673C2.20976 4.53423 0.787685 9.83752 0.9 15.22C0.787685 20.6025 2.20976 25.9058 5 30.51C7.83754 34.9881 11.9022 38.5564 16.71 40.79C22.1706 43.3176 28.1338 44.5725 34.15 44.46C40.1598 44.5736 46.1168 43.3186 51.57 40.79C56.3695 38.5477 60.4287 34.9811 63.27 30.51C66.0884 25.9148 67.5352 20.6099 67.44 15.22C67.5472 9.8341 66.1143 4.52953 63.31 -0.0699673C60.4663 -4.54147 56.4081 -8.11068 51.61 -10.36C46.1544 -12.8782 40.1975 -14.123 34.19 -14V-14.02ZM34.19 30.79C30.9291 30.8671 27.6905 30.2324 24.7 28.93C22.1468 27.7878 19.9943 25.907 18.52 23.53C17.0394 21.0156 16.2912 18.1372 16.36 15.22C16.2931 12.2999 17.041 9.41883 18.52 6.90003C19.9958 4.52681 22.1482 2.6496 24.7 1.51003C30.7637 -0.983142 37.5663 -0.983142 43.63 1.51003C46.1886 2.65134 48.3501 4.52746 49.84 6.90003C51.3234 9.41698 52.0717 12.2993 52 15.22C52.0687 18.1417 51.3169 21.0241 49.83 23.54C48.3369 25.9098 46.1763 27.7852 43.62 28.93C40.6495 30.2291 37.4313 30.8638 34.19 30.79ZM34.19 -0.109967C30.9657 -0.185753 27.764 0.445715 24.81 1.74003C22.3049 2.84901 20.1878 4.68053 18.73 7.00003C17.2776 9.48064 16.5436 12.3163 16.61 15.19C16.5423 18.0608 17.2764 20.8936 18.73 23.37C20.1799 25.706 22.2981 27.5524 24.81 28.67C30.8089 31.123 37.5311 31.123 43.53 28.67C46.0456 27.55 48.1697 25.7046 49.63 23.37C51.0901 20.8958 51.8279 18.0621 51.76 15.19C51.8309 12.3144 51.0929 9.47674 49.63 7.00003C48.1697 4.66548 46.0456 2.82002 43.53 1.70003C40.5859 0.422693 37.3981 -0.195084 34.19 -0.109967Z"
        fill="black" />
    <path
        d="M103.52 44.71C98.288 44.7972 93.0816 43.961 88.14 42.24C84.0942 40.87 80.4823 38.4551 77.67 35.24C75.179 32.3413 73.7659 28.6709 73.67 24.85V24.72H89.73V24.83C89.9521 26.3642 90.6933 27.776 91.83 28.83C93.2125 30.0697 94.867 30.9672 96.66 31.45C98.978 32.0903 101.375 32.3968 103.78 32.36C105.978 32.3939 108.172 32.1758 110.32 31.71C111.842 31.407 113.269 30.7415 114.48 29.77C114.936 29.4103 115.308 28.9556 115.571 28.4375C115.833 27.9195 115.98 27.3505 116 26.77C116.029 25.8957 115.749 25.0391 115.21 24.35C114.454 23.5865 113.508 23.0377 112.47 22.76C110.698 22.2457 108.879 21.9107 107.04 21.76L96.62 20.76C92.263 20.5015 87.9723 19.5705 83.9 18C80.9934 16.8672 78.4783 14.9148 76.66 12.38C75.0724 9.87876 74.2648 6.96169 74.34 4.00004C74.2555 0.403069 75.4617 -3.10528 77.74 -5.88996C80.3114 -8.81116 83.6409 -10.9639 87.36 -12.11C92.0477 -13.6086 96.9494 -14.3282 101.87 -14.24C106.779 -14.3127 111.663 -13.5241 116.3 -11.91C120.152 -10.5953 123.612 -8.33251 126.36 -5.32996C128.782 -2.62408 130.226 0.81623 130.46 4.44004V4.57004H114.4V4.47004C114.227 3.12635 113.57 1.89215 112.55 1.00004C111.288 -0.0768509 109.791 -0.843905 108.18 -1.23996C106.021 -1.78881 103.797 -2.04444 101.57 -1.99996C99.5533 -2.02544 97.5403 -1.82079 95.57 -1.38996C94.1344 -1.10422 92.7914 -0.468788 91.66 0.460037C91.2419 0.820154 90.9072 1.26701 90.6793 1.76955C90.4513 2.27208 90.3355 2.81824 90.34 3.37004C90.3143 4.18374 90.5763 4.98045 91.08 5.62004C91.782 6.34952 92.6711 6.8719 93.65 7.13004C95.2772 7.63694 96.953 7.9721 98.65 8.13004L109.86 9.22004C114.229 9.51902 118.54 10.3932 122.68 11.82C125.477 12.7551 127.919 14.5245 129.68 16.89C131.232 19.3035 132.014 22.132 131.92 25C131.973 28.7634 130.718 32.4284 128.37 35.37C125.73 38.5451 122.272 40.9381 118.37 42.29C113.606 43.9855 108.575 44.8053 103.52 44.71ZM74 25C74.1197 28.7158 75.4984 32.2806 77.91 35.11C80.6896 38.2681 84.2476 40.6435 88.23 42C93.1442 43.7046 98.3193 44.5338 103.52 44.45C108.551 44.5322 113.555 43.7022 118.29 42C122.145 40.6577 125.564 38.2936 128.18 35.16C130.475 32.2744 131.707 28.6869 131.67 25C131.782 22.1769 131.033 19.3865 129.52 17C127.782 14.6621 125.366 12.9163 122.6 12C118.481 10.5849 114.195 9.7175 109.85 9.42004L98.64 8.33004C96.9199 8.17352 95.2207 7.83838 93.57 7.33004C92.5443 7.05186 91.6141 6.49859 90.88 5.73004C90.3393 5.0496 90.0592 4.19858 90.09 3.33004C90.0897 2.74981 90.2157 2.17647 90.4592 1.6498C90.7027 1.12313 91.0578 0.655734 91.5 0.280037C92.6553 -0.672961 94.0302 -1.32259 95.5 -1.60996C97.5024 -2.05231 99.5495 -2.26038 101.6 -2.22996C103.852 -2.26465 106.098 -1.99898 108.28 -1.43996C109.93 -1.0345 111.461 -0.246615 112.75 0.860037C113.762 1.74866 114.433 2.96108 114.65 4.29004H130.2C129.954 0.774037 128.547 -2.56065 126.2 -5.18996C123.474 -8.17459 120.032 -10.4151 116.2 -11.7C111.596 -13.3028 106.745 -14.0814 101.87 -14C96.9771 -14.0889 92.1026 -13.3762 87.44 -11.89C83.7642 -10.7548 80.4732 -8.62654 77.93 -5.73996C75.6875 -2.99728 74.5025 0.45839 74.59 4.00004C74.5108 6.92208 75.3046 9.80138 76.87 12.27C78.6629 14.7562 81.1402 16.6671 84 17.77C88.0311 19.3456 92.281 20.2901 96.6 20.57L107.02 21.57C108.879 21.7197 110.718 22.0547 112.51 22.57C113.596 22.8583 114.582 23.4394 115.36 24.25C115.94 24.9786 116.241 25.8896 116.21 26.82C116.204 27.4288 116.064 28.0288 115.802 28.5781C115.539 29.1274 115.16 29.6127 114.69 30C113.45 31.0036 111.985 31.6901 110.42 32C108.253 32.4742 106.038 32.6957 103.82 32.66C101.392 32.6984 98.9704 32.3886 96.63 31.74C94.798 31.2489 93.1084 30.3304 91.7 29.06C90.547 27.9857 89.7867 26.5565 89.54 25H74Z"
        fill="black" />
    <path
        d="M222.67 43.4701H207.67V1.29006L189.37 43.4701H173.49V43.3901L155.25 1.46006V43.4601H140.19V-12.9999H164.43V-12.9199L181.43 27.9301L198.43 -12.9999H222.63L222.67 43.4701ZM207.9 43.2201H222.42V-12.7799H198.63L181.5 28.5501L164.27 -12.7799H140.44V43.2201H155V0.850061H155.24L173.66 43.2601H189.2L207.66 0.630061L207.9 0.680061V43.2201Z"
        fill="black" />
    <path
        d="M300.44 43.4701H283.59V43.3901L278.9 32.6301H250L245.32 43.4701H228.43L228.51 43.2901L254.16 -12.9999H274.75V-12.9299L300.44 43.4701ZM283.76 43.2201H300.05L274.59 -12.7799H254.32L228.82 43.2201H245.15L249.84 32.3801H279.06V32.4601L283.76 43.2201ZM273.76 20.1401H255.13L264.44 -1.37994L273.76 20.1401ZM255.51 19.8901H273.38L264.44 -0.749939L255.51 19.8901Z"
        fill="black" />
    <path
        d="M368.85 43.4701H349.08L321.52 4.24006V43.4701H306.16V-12.9999H326.49L353.49 25.3001V-12.9999H368.82L368.85 43.4701ZM349.21 43.2201H368.6V-12.7799H353.77V26.1101L326.36 -12.7799H306.41V43.2201H321.27V3.45006L321.5 3.78006L349.21 43.2201Z"
        fill="black" />
    <path
        d="M413.28 43.4701H397.47V1.06006H376V-12.9999H434.71V1.06006H413.28V43.4701ZM397.72 43.2201H413V0.810061H434.45V-12.7799H376.27V0.810061H397.72V43.2201Z"
        fill="black" />
    <path
        d="M502 43.4701H486.2V21.7601H457.68V43.4701H441.87V-12.9999H457.68V7.78006H486.2V-12.9999H502V43.4701ZM486.44 43.2201H501.75V-12.7799H486.45V8.00006H457.45V-12.7799H442.12V43.2201H457.43V21.5101H486.43L486.44 43.2201Z"
        fill="black" />
    <path
        d="M540.77 44.7101C535.608 44.808 530.493 43.7057 525.83 41.4901C521.682 39.4906 518.189 36.3516 515.76 32.4401C513.336 28.3819 512.096 23.7263 512.18 19.0001V-12.9999H528V18.2201C527.94 20.504 528.435 22.7685 529.44 24.8201C530.399 26.6522 531.91 28.1357 533.76 29.0601C535.966 30.0296 538.35 30.5302 540.76 30.5302C543.17 30.5302 545.554 30.0296 547.76 29.0601C549.606 28.1417 551.111 26.6604 552.06 24.8301C553.073 22.7701 553.571 20.4949 553.51 18.2001V-12.9999H569.32V19.0001C569.407 23.7399 568.175 28.4105 565.76 32.4901C563.355 36.3843 559.885 39.5076 555.76 41.4901C551.08 43.7088 545.949 44.811 540.77 44.7101ZM512.43 -12.7799V19.0001C512.353 23.6832 513.59 28.2942 516 32.3101C518.411 36.1865 521.881 39.2921 526 41.2601C530.628 43.464 535.705 44.5596 540.83 44.4601C545.953 44.5604 551.029 43.4719 555.66 41.2801C559.775 39.3067 563.229 36.1799 565.6 32.2801C567.96 28.2585 569.161 23.6622 569.07 19.0001V-12.7799H553.76V18.2201C553.826 20.5668 553.318 22.8941 552.28 25.0001C551.307 26.8713 549.767 28.3869 547.88 29.3301C545.637 30.3191 543.212 30.8299 540.76 30.8299C538.308 30.8299 535.883 30.3191 533.64 29.3301C531.747 28.3795 530.201 26.8577 529.22 24.9801C528.194 22.8954 527.69 20.5928 527.75 18.2701V-12.7299L512.43 -12.7799Z"
        fill="black" />
    <path
        d="M606.84 44.71C601.608 44.7972 596.402 43.961 591.46 42.24C587.414 40.87 583.802 38.4551 580.99 35.24C578.499 32.3413 577.086 28.6709 576.99 24.85V24.72H593.05V24.83C593.272 26.3642 594.013 27.776 595.15 28.83C596.532 30.0941 598.194 31.0126 600 31.51C602.318 32.151 604.715 32.4574 607.12 32.42C609.318 32.4539 611.512 32.2358 613.66 31.77C615.182 31.467 616.609 30.8015 617.82 29.83C618.269 29.4561 618.63 28.9884 618.879 28.4597C619.128 27.931 619.258 27.3543 619.26 26.77C619.289 25.8957 619.009 25.0391 618.47 24.35C617.716 23.5841 616.769 23.035 615.73 22.76C613.958 22.2457 612.139 21.9107 610.3 21.76L599.87 20.76C595.537 20.4943 591.27 19.5634 587.22 18C584.321 16.8639 581.813 14.9118 580 12.38C578.405 9.88097 577.591 6.96374 577.66 4.00004C577.576 0.403069 578.782 -3.10528 581.06 -5.88996C583.628 -8.81476 586.959 -10.9682 590.68 -12.11C595.368 -13.6086 600.269 -14.3282 605.19 -14.24C610.099 -14.3127 614.983 -13.5241 619.62 -11.91C623.472 -10.5953 626.932 -8.33251 629.68 -5.32996C632.102 -2.62408 633.546 0.81623 633.78 4.44004V4.57004H617.72V4.47004C617.547 3.12635 616.889 1.89215 615.87 1.00004C614.604 -0.0624847 613.108 -0.815691 611.5 -1.19996C609.343 -1.76229 607.119 -2.03138 604.89 -1.99996C602.873 -2.02544 600.86 -1.82079 598.89 -1.38996C597.461 -1.10112 596.126 -0.465847 595 0.460037C594.582 0.820154 594.247 1.26701 594.019 1.76955C593.791 2.27208 593.676 2.81824 593.68 3.37004C593.654 4.18374 593.916 4.98045 594.42 5.62004C595.125 6.35027 596.018 6.87263 597 7.13004C598.628 7.63511 600.303 7.97023 602 8.13004L613.21 9.22004C617.567 9.50547 621.867 10.3628 626 11.77C628.797 12.7051 631.239 14.4745 633 16.84C634.558 19.2695 635.339 22.1157 635.24 25C635.292 28.7634 634.038 32.4284 631.69 35.37C629.05 38.5451 625.592 40.9381 621.69 42.29C616.926 43.9855 611.895 44.8053 606.84 44.71ZM577.27 25C577.39 28.7158 578.768 32.2806 581.18 35.11C583.974 38.2753 587.55 40.6513 591.55 42C596.464 43.7046 601.639 44.5338 606.84 44.45C611.871 44.5322 616.875 43.7022 621.61 42C625.465 40.6577 628.884 38.2936 631.5 35.16C633.799 32.2757 635.035 28.6881 635 25C635.112 22.1769 634.362 19.3865 632.85 17C631.109 14.6644 628.694 12.9192 625.93 12C621.811 10.5849 617.525 9.7175 613.18 9.42004L602 8.33004C600.28 8.17352 598.581 7.83838 596.93 7.33004C595.904 7.05186 594.974 6.49859 594.24 5.73004C593.699 5.0496 593.419 4.19858 593.45 3.33004C593.445 2.75291 593.565 2.1815 593.801 1.65503C594.038 1.12855 594.385 0.659488 594.82 0.280037C595.975 -0.672961 597.35 -1.32259 598.82 -1.60996C600.822 -2.05231 602.869 -2.26038 604.92 -2.22996C607.172 -2.26465 609.418 -1.99898 611.6 -1.43996C613.225 -1.02436 614.731 -0.237009 616 0.860037C617.012 1.74866 617.683 2.96108 617.9 4.29004H633.48C633.234 0.774037 631.827 -2.56065 629.48 -5.18996C626.754 -8.17459 623.312 -10.4151 619.48 -11.7C614.888 -13.2982 610.051 -14.0767 605.19 -14C600.297 -14.0889 595.423 -13.3762 590.76 -11.89C587.084 -10.7548 583.793 -8.62654 581.25 -5.73996C579.008 -2.99728 577.823 0.45839 577.91 4.00004C577.826 6.92267 578.62 9.80338 580.19 12.27C581.982 14.7644 584.458 16.6854 587.32 17.8C591.351 19.3756 595.601 20.3201 599.92 20.6L610.34 21.6C612.199 21.7497 614.038 22.0847 615.83 22.6C616.915 22.8906 617.9 23.4714 618.68 24.28C619.26 25.0086 619.561 25.9196 619.53 26.85C619.518 27.4545 619.375 28.0492 619.111 28.593C618.847 29.1368 618.468 29.6169 618 30C616.76 31.0036 615.295 31.6901 613.73 32C611.563 32.4742 609.348 32.6957 607.13 32.66C604.702 32.6984 602.28 32.3886 599.94 31.74C598.105 31.2533 596.412 30.3382 595 29.07C593.849 27.9931 593.095 26.559 592.86 25H577.27Z"
        fill="black" />
</svg>