<svg width="539" height="279" viewBox="0 0 539 279" fill="none" xmlns="http://www.w3.org/2000/svg">
<path d="M16.77 176.39H32.77C36.9469 176.49 41.0948 175.671 44.92 173.99C48.1565 172.554 50.8951 170.191 52.79 167.2C54.5844 164.1 55.5292 160.582 55.5292 157C55.5292 153.418 54.5844 149.9 52.79 146.8C50.8914 143.812 48.1539 141.45 44.92 140.01C41.0948 138.329 36.9469 137.51 32.77 137.61H1.20996V193.86H16.77V176.39ZM36.16 150.91C37.295 151.414 38.2504 152.251 38.9 153.31C39.517 154.449 39.8401 155.724 39.8401 157.02C39.8401 158.316 39.517 159.591 38.9 160.73C38.2542 161.787 37.2971 162.618 36.16 163.11C34.8132 163.692 33.3565 163.975 31.89 163.94H16.77V150.06H31.89C33.3584 150.026 34.8163 150.316 36.16 150.91Z" fill="black"/>
<path d="M76.49 191.43C82.0057 193.854 87.9649 195.106 93.99 195.106C100.015 195.106 105.974 193.854 111.49 191.43C116.312 189.174 120.392 185.591 123.25 181.1C125.987 176.444 127.43 171.141 127.43 165.74C127.43 160.339 125.987 155.036 123.25 150.38C120.392 145.889 116.312 142.305 111.49 140.05C105.974 137.625 100.015 136.374 93.99 136.374C87.9649 136.374 82.0057 137.625 76.49 140.05C71.6639 142.295 67.5852 145.881 64.74 150.38C62.009 155.038 60.5693 160.34 60.5693 165.74C60.5693 171.14 62.009 176.442 64.74 181.1C67.5852 185.598 71.6639 189.184 76.49 191.43ZM78.42 157.49C79.88 155.13 82.0207 153.269 84.56 152.15C90.5881 149.669 97.3518 149.669 103.38 152.15C105.919 153.274 108.061 155.134 109.53 157.49C110.946 160.009 111.689 162.85 111.689 165.74C111.689 168.63 110.946 171.471 109.53 173.99C108.058 176.343 105.917 178.203 103.38 179.33C97.3518 181.81 90.5881 181.81 84.56 179.33C82.0227 178.208 79.8829 176.347 78.42 173.99C77.019 171.466 76.2839 168.627 76.2839 165.74C76.2839 162.853 77.019 160.014 78.42 157.49Z" fill="black"/>
<path d="M151.7 173.61H159.83L174.91 193.86H192.91L176.74 172.77C178.115 172.427 179.454 171.955 180.74 171.36C183.797 170.013 186.411 167.829 188.28 165.06C190.089 162.274 191.022 159.011 190.96 155.69C191.02 152.338 190.087 149.043 188.28 146.22C186.425 143.423 183.809 141.216 180.74 139.86C177.206 138.299 173.373 137.531 169.51 137.61H136.14V193.86H151.7V173.61ZM171.65 149.93C172.752 150.388 173.692 151.165 174.35 152.16C174.958 153.226 175.279 154.432 175.279 155.66C175.279 156.887 174.958 158.094 174.35 159.16C173.689 160.166 172.742 160.95 171.63 161.41C170.289 161.947 168.854 162.206 167.41 162.17H151.7V149.16H167.41C168.861 149.124 170.304 149.386 171.65 149.93Z" fill="black"/>
<path d="M215.75 154.37L243.5 193.86H263.07V137.61H248V176.23L220.77 137.61H200.64V193.86H215.75V154.37Z" fill="black"/>
<path d="M327.65 182.41C325.496 182.88 323.294 183.099 321.09 183.06C318.669 183.102 316.254 182.796 313.92 182.15C312.11 181.663 310.441 180.755 309.05 179.5C307.889 178.422 307.133 176.978 306.91 175.41H291.09C291.163 179.198 292.544 182.844 295 185.73C297.81 188.91 301.407 191.297 305.43 192.65C310.36 194.361 315.552 195.19 320.77 195.1C325.814 195.195 330.833 194.368 335.58 192.66C339.459 191.318 342.897 188.938 345.52 185.78C347.849 182.861 349.093 179.224 349.04 175.49C349.15 172.645 348.393 169.835 346.87 167.43C345.104 165.085 342.66 163.34 339.87 162.43C335.738 161.01 331.438 160.14 327.08 159.84L315.87 158.76C314.174 158.596 312.498 158.261 310.87 157.76C309.865 157.495 308.954 156.955 308.24 156.2C307.717 155.542 307.444 154.72 307.47 153.88C307.465 153.31 307.584 152.746 307.821 152.228C308.058 151.709 308.406 151.249 308.84 150.88C309.973 149.946 311.32 149.307 312.76 149.02C314.755 148.576 316.796 148.368 318.84 148.4C321.075 148.364 323.305 148.63 325.47 149.19C327.104 149.59 328.621 150.367 329.9 151.46C330.922 152.352 331.587 153.585 331.77 154.93H347.6C347.373 151.334 345.939 147.919 343.53 145.24C340.804 142.246 337.364 139.992 333.53 138.69C328.911 137.075 324.042 136.29 319.15 136.37C314.239 136.273 309.347 136.99 304.67 138.49C300.971 139.622 297.661 141.762 295.11 144.67C292.843 147.428 291.643 150.91 291.73 154.48C291.645 157.429 292.45 160.335 294.04 162.82C295.835 165.34 298.332 167.277 301.22 168.39C305.263 169.974 309.527 170.922 313.86 171.2L324.28 172.2C326.129 172.344 327.959 172.679 329.74 173.2C330.804 173.477 331.77 174.045 332.53 174.84C333.097 175.543 333.391 176.427 333.36 177.33C333.359 177.931 333.225 178.525 332.97 179.069C332.714 179.614 332.342 180.095 331.88 180.48C330.645 181.453 329.194 182.114 327.65 182.41Z" fill="black"/>
<path d="M410.26 151.45V137.61H351.8V151.45H373.25V193.86H388.81V151.45H410.26Z" fill="black"/>
<path d="M429.12 137.61L403.51 193.86H420.12L424.81 183H453.87L458.56 193.83H475.13L449.56 137.58L429.12 137.61ZM430.21 170.54L439.32 149.45L448.46 170.54H430.21Z" fill="black"/>
<path d="M520 193.86H538L521.84 172.77C523.215 172.427 524.554 171.955 525.84 171.36C528.897 170.013 531.511 167.829 533.38 165.06C535.193 162.276 536.127 159.011 536.06 155.69C536.126 152.337 535.193 149.041 533.38 146.22C531.525 143.423 528.909 141.216 525.84 139.86C522.306 138.298 518.473 137.53 514.61 137.61H481.17V193.86H496.73V173.61H504.86L520 193.86ZM496.78 149.16H512.5C513.948 149.123 515.388 149.386 516.73 149.93C517.834 150.385 518.774 151.162 519.43 152.16C520.038 153.226 520.359 154.432 520.359 155.66C520.359 156.887 520.038 158.094 519.43 159.16C518.773 160.169 517.824 160.954 516.71 161.41C515.373 161.947 513.94 162.206 512.5 162.17H496.73L496.78 149.16Z" fill="black"/>
<path d="M42.4 263.74L25.25 222.61H1.20996V278.86H16.03V236.38L34.47 278.86H50.19L68.68 236.2V278.86H83.45V222.61H59.45L42.4 263.74Z" fill="black"/>
<path d="M115.14 222.61L89.52 278.86H106.14L110.82 268H139.88L144.57 278.83H161.15L135.57 222.58L115.14 222.61ZM116.22 255.54L125.34 234.45L134.47 255.54H116.22Z" fill="black"/>
<path d="M211.83 256.36C214.887 255.013 217.501 252.829 219.37 250.06C221.179 247.274 222.112 244.011 222.05 240.69C222.11 237.338 221.177 234.043 219.37 231.22C217.515 228.423 214.899 226.216 211.83 224.86C208.296 223.299 204.463 222.531 200.6 222.61H167.19V278.86H182.75V258.61H190.87L206 278.86H224L207.83 257.77C209.205 257.427 210.544 256.955 211.83 256.36ZM182.75 234.16H198.46C199.911 234.124 201.354 234.386 202.7 234.93C203.802 235.388 204.742 236.165 205.4 237.16C206.008 238.226 206.329 239.432 206.329 240.66C206.329 241.887 206.008 243.094 205.4 244.16C204.739 245.166 203.792 245.95 202.68 246.41C201.339 246.947 199.904 247.206 198.46 247.17H182.75V234.16Z" fill="black"/>
<path d="M226.32 236.45H247.77V278.86H263.33V236.45H284.79V222.61H226.32V236.45Z" fill="black"/>
<path d="M307.73 222.61H292.17V278.86H307.73V222.61Z" fill="black"/>
<path d="M366.31 261.23L339.08 222.61H318.95V278.86H334.06V239.37L361.81 278.86H381.38V222.61H366.31V261.23Z" fill="black"/>
<path d="M408.15 222.61H392.59V278.86H408.15V222.61Z" fill="black"/>
<path d="M17.28 118H0.709961V60.77H32.79C37.0392 60.6767 41.2576 61.5129 45.15 63.22C48.4775 64.7052 51.292 67.1404 53.24 70.22C55.081 73.3985 56.0505 77.0067 56.0505 80.68C56.0505 84.3532 55.081 87.9614 53.24 91.14C51.292 94.2195 48.4775 96.6548 45.15 98.14C41.2576 99.847 37.0392 100.683 32.79 100.59H17.28V118ZM1.70996 117H16.28V99.55H32.79C36.8949 99.6483 40.9711 98.8426 44.73 97.19C47.8725 95.7892 50.5357 93.4981 52.39 90.6C54.1328 87.5772 55.0503 84.1492 55.0503 80.66C55.0503 77.1707 54.1328 73.7428 52.39 70.72C50.5357 67.8218 47.8725 65.5307 44.73 64.13C40.9711 62.4773 36.8949 61.6716 32.79 61.77H1.70996V117ZM31.89 88.1H16.28V73.22H31.89C33.4304 73.1853 34.9597 73.4891 36.37 74.11C37.6086 74.6553 38.6541 75.5614 39.37 76.71C40.0689 77.9243 40.4153 79.3096 40.37 80.71C40.41 82.1098 40.0641 83.4937 39.37 84.71C38.6588 85.8578 37.6113 86.7587 36.37 87.29C34.9507 87.8737 33.4238 88.1498 31.89 88.1ZM17.28 87.1H31.89C33.2838 87.1366 34.669 86.8705 35.95 86.32C36.9952 85.8665 37.8751 85.1017 38.47 84.13C39.0406 83.0678 39.3393 81.8808 39.3393 80.675C39.3393 79.4692 39.0406 78.2822 38.47 77.22C37.8838 76.2524 37.0244 75.4799 36 75C34.7218 74.4385 33.3356 74.1654 31.94 74.2H17.28V87.1Z" fill="black"/>
<path d="M94 119.26C87.8911 119.377 81.8354 118.105 76.29 115.54C71.3683 113.25 67.2044 109.6 64.29 105.02C61.4229 100.321 59.9523 94.9035 60.05 89.4C59.9523 83.8964 61.4229 78.4787 64.29 73.78C67.2019 69.1981 71.3664 65.5472 76.29 63.26C81.8689 60.8086 87.8962 59.5428 93.99 59.5428C100.084 59.5428 106.111 60.8086 111.69 63.26C116.608 65.5506 120.771 69.1965 123.69 73.77C126.555 78.4719 128.016 83.8951 127.9 89.4C127.997 94.8999 126.519 100.313 123.64 105C120.724 109.576 116.56 113.222 111.64 115.51C106.12 118.081 100.088 119.364 94 119.26ZM94 60.54C88.0401 60.4219 82.1313 61.6597 76.72 64.16C71.9795 66.3706 67.9714 69.8929 65.17 74.31C62.4015 78.8496 60.9829 84.0837 61.08 89.4C60.9829 94.7163 62.4015 99.9503 65.17 104.49C67.972 108.904 71.9802 112.423 76.72 114.63C82.162 117.02 88.0411 118.255 93.985 118.255C99.9289 118.255 105.808 117.02 111.25 114.63C115.986 112.408 119.994 108.888 122.81 104.48C125.582 99.9414 127.004 94.7073 126.91 89.39C127.01 84.072 125.587 78.8363 122.81 74.3C119.997 69.8891 115.988 66.3689 111.25 64.15C105.849 61.6513 99.9496 60.4166 94 60.54ZM94 105.35C90.6856 105.426 87.3948 104.774 84.36 103.44C81.7316 102.279 79.5149 100.352 78 97.91C76.5543 95.3102 75.7956 92.3847 75.7956 89.41C75.7956 86.4353 76.5543 83.5097 78 80.91C79.5116 78.467 81.7246 76.5364 84.35 75.37C90.5131 72.8362 97.4269 72.8362 103.59 75.37C106.225 76.5319 108.456 78.4495 110 80.88C111.457 83.4761 112.222 86.4031 112.222 89.38C112.222 92.3569 111.457 95.2838 110 97.88C108.472 100.314 106.255 102.239 103.63 103.41C100.601 104.755 97.3134 105.418 94 105.35ZM94 74.45C90.8316 74.3756 87.6851 74.9933 84.78 76.26C82.337 77.3475 80.2752 79.1411 78.86 81.41C77.5056 83.8589 76.7951 86.6115 76.7951 89.41C76.7951 92.2084 77.5056 94.9611 78.86 97.41C80.2752 99.6789 82.337 101.472 84.78 102.56C90.676 104.973 97.284 104.973 103.18 102.56C105.628 101.467 107.695 99.6708 109.12 97.4C110.489 94.9559 111.208 92.2014 111.208 89.4C111.208 86.5986 110.489 83.8441 109.12 81.4C107.695 79.132 105.627 77.3393 103.18 76.25C100.287 74.9894 97.1545 74.3751 94 74.45Z" fill="black"/>
<path d="M194 118H174.7L159.57 97.7699H152.2V118H135.64V60.7699H169.55C173.489 60.6921 177.397 61.4771 181 63.0699C184.154 64.4665 186.843 66.7356 188.75 69.6099C190.61 72.5135 191.57 75.9022 191.51 79.3499C191.567 82.7706 190.603 86.1306 188.74 88.9999C186.812 91.8374 184.132 94.0814 181 95.4799C179.912 95.9754 178.789 96.3899 177.64 96.7199L194 118ZM175.2 117H191.98L175.98 96.1099L176.72 95.9199C178.063 95.5843 179.371 95.1257 180.63 94.5499C183.6 93.2394 186.14 91.1183 187.96 88.4299C189.716 85.7243 190.621 82.5548 190.56 79.3299C190.621 76.0737 189.717 72.8723 187.96 70.1299C186.13 67.425 183.566 65.2984 180.57 63.9999C177.108 62.4715 173.354 61.7172 169.57 61.7899H136.64V117H151.2V96.7699H160.08L175.2 117ZM167.45 86.3499H151.2V72.3199H167.41C168.929 72.2872 170.44 72.5628 171.85 73.1299C173.042 73.6279 174.059 74.4705 174.77 75.5499C175.438 76.6994 175.79 78.0053 175.79 79.3349C175.79 80.6645 175.438 81.9705 174.77 83.1199C174.064 84.2158 173.037 85.0677 171.83 85.5599C170.427 86.1282 168.923 86.4038 167.41 86.3699L167.45 86.3499ZM152.24 85.3499H167.45C168.819 85.3831 170.181 85.1346 171.45 84.6199C172.467 84.2224 173.339 83.5248 173.95 82.6199C174.514 81.6295 174.81 80.5095 174.81 79.3699C174.81 78.2303 174.514 77.1103 173.95 76.1199C173.34 75.2224 172.476 74.5263 171.47 74.1199C170.199 73.6106 168.839 73.3623 167.47 73.3899H152.2L152.24 85.3499Z" fill="black"/>
<path d="M263.57 118H243.24L216.24 79.59V118H200.14V60.77H221L247.5 98.31V60.77H263.57V118ZM243.76 117H262.57V61.77H248.5V101.47L220.5 61.77H201.14V117H215.25V76.44L243.76 117Z" fill="black"/>
<path d="M320.79 119.26C315.511 119.347 310.257 118.504 305.27 116.77C301.171 115.385 297.506 112.951 294.64 109.71C292.107 106.742 290.677 102.991 290.59 99.0899V98.5699H307.36L307.43 98.9999C307.637 100.46 308.344 101.802 309.43 102.8C310.765 103.998 312.365 104.862 314.1 105.32C316.378 105.955 318.735 106.258 321.1 106.22C323.267 106.257 325.432 106.042 327.55 105.58C329.014 105.294 330.387 104.655 331.55 103.72C331.964 103.387 332.297 102.965 332.526 102.485C332.754 102.006 332.872 101.481 332.87 100.95C332.904 100.161 332.652 99.3871 332.16 98.7699C331.452 98.0559 330.564 97.5477 329.59 97.2999C327.845 96.785 326.053 96.4499 324.24 96.2999L313.82 95.2999C309.429 95.0344 305.106 94.0968 301 92.5199C298.028 91.3618 295.456 89.3639 293.6 86.7699C291.863 83.8968 291.039 80.564 291.237 77.2124C291.435 73.8608 292.646 70.6483 294.71 67.9999C297.325 65.0225 300.713 62.828 304.5 61.6599C309.227 60.1539 314.169 59.431 319.13 59.5199C324.083 59.444 329.012 60.2394 333.69 61.8699C337.601 63.2019 341.113 65.4996 343.9 68.5499C346.379 71.3198 347.858 74.8407 348.1 78.5499V79.0899H331.3L331.25 78.6499C331.079 77.4229 330.467 76.2999 329.53 75.4899C328.312 74.4494 326.866 73.7096 325.31 73.3299C323.184 72.7819 320.995 72.5229 318.8 72.5599C316.8 72.5309 314.803 72.7356 312.85 73.1699C311.491 73.4344 310.22 74.0323 309.15 74.9099C308.776 75.2386 308.479 75.6455 308.281 76.1018C308.082 76.558 307.986 77.0525 308 77.5499C307.976 78.2737 308.21 78.9824 308.66 79.5499C309.297 80.2332 310.105 80.7338 311 80.9999C312.61 81.4827 314.265 81.7977 315.94 81.9399L327.17 82.9999C331.572 83.304 335.915 84.1814 340.09 85.6099C342.968 86.5708 345.484 88.3887 347.3 90.8199C348.882 93.31 349.67 96.2219 349.56 99.1699C349.611 103.017 348.328 106.762 345.93 109.77C343.239 112.975 339.732 115.394 335.78 116.77C330.975 118.499 325.896 119.343 320.79 119.26ZM291.61 99.5699C291.795 103.066 293.131 106.402 295.41 109.06C298.16 112.174 301.681 114.509 305.62 115.83C310.495 117.523 315.63 118.346 320.79 118.26C325.772 118.35 330.729 117.533 335.42 115.85C339.211 114.536 342.572 112.213 345.14 109.13C347.403 106.293 348.612 102.759 348.56 99.1299C348.669 96.3846 347.94 93.6712 346.47 91.3499C344.772 89.0848 342.419 87.3954 339.73 86.5099C335.642 85.1196 331.389 84.2756 327.08 83.9999L315.86 82.9099C314.113 82.7582 312.387 82.423 310.71 81.9099C309.616 81.6179 308.625 81.0256 307.85 80.1999C307.255 79.4511 306.943 78.5161 306.97 77.5599C306.965 76.9199 307.101 76.2866 307.367 75.7045C307.633 75.1224 308.023 74.6054 308.51 74.1899C309.699 73.1913 311.119 72.504 312.64 72.1899C314.671 71.7356 316.749 71.5208 318.83 71.5499C321.116 71.5111 323.397 71.7836 325.61 72.3599C327.319 72.7779 328.905 73.5933 330.24 74.7399C331.229 75.6169 331.913 76.7872 332.19 78.0799H347.05C346.726 74.7837 345.36 71.6765 343.15 69.2099C340.471 66.2848 337.096 64.0834 333.34 62.8099C328.774 61.2187 323.964 60.4436 319.13 60.5199C314.278 60.4299 309.444 61.1359 304.82 62.6099C301.211 63.7057 297.977 65.783 295.48 68.6099C293.295 71.2827 292.139 74.6489 292.22 78.0999C292.141 80.9477 292.914 83.7542 294.44 86.1599C296.193 88.605 298.628 90.4796 301.44 91.5499C305.432 93.1106 309.642 94.045 313.92 94.3199L324.35 95.3199C326.233 95.4596 328.096 95.7947 329.91 96.3199C331.055 96.624 332.094 97.2403 332.91 98.0999C333.547 98.8992 333.88 99.8983 333.85 100.92C333.851 101.592 333.703 102.256 333.418 102.864C333.133 103.473 332.717 104.011 332.2 104.44C330.912 105.486 329.388 106.2 327.76 106.52C325.567 107.003 323.325 107.228 321.08 107.19C318.614 107.233 316.155 106.916 313.78 106.25C311.891 105.747 310.149 104.801 308.7 103.49C307.558 102.424 306.784 101.024 306.49 99.4899L291.61 99.5699Z" fill="black"/>
<path d="M389.31 118H372.75V75.61H351.3V60.77H410.76V75.61H389.31V118ZM373.75 117H388.31V74.61H409.76V61.77H352.3V74.61H373.75V117Z" fill="black"/>
<path d="M475.91 118H458.23L453.54 107.17H425.14L420.45 118H402.73L428.8 60.77H449.88L450.01 61.07L475.91 118ZM458.91 117H474.38L449.24 61.77H429.44L404.29 117H419.79L424.48 106.17H454.19L458.91 117ZM449.22 94.7H429.45L439.32 71.85L449.22 94.7ZM431 93.7H447.7L439.32 74.37L431 93.7Z" fill="black"/>
<path d="M539 118H519.69L504.61 97.7699H497.23V118H480.67V60.7699H514.58C518.509 60.6939 522.407 61.4789 526 63.0699C529.154 64.4665 531.843 66.7356 533.75 69.6099C535.61 72.5135 536.57 75.9022 536.51 79.3499C536.576 82.7675 535.622 86.1272 533.77 88.9999C531.837 91.8439 529.145 94.0889 526 95.4799C524.915 95.9754 523.796 96.3899 522.65 96.7199L539 118ZM520.2 117H537L521 96.1299L521.73 95.9399C523.073 95.6059 524.382 95.1473 525.64 94.5699C528.612 93.2622 531.153 91.1405 532.97 88.4499C534.726 85.7443 535.631 82.5748 535.57 79.3499C535.631 76.0937 534.727 72.8923 532.97 70.1499C531.151 67.4383 528.593 65.3042 525.6 63.9999C522.138 62.4693 518.384 61.715 514.6 61.7899H481.67V117H496.23V96.7699H505.11L520.2 117ZM512.45 86.3499H496.23V72.3199H512.45C513.966 72.2872 515.473 72.5628 516.88 73.1299C518.076 73.622 519.094 74.4659 519.8 75.5499C520.496 76.6922 520.844 78.0129 520.8 79.3499C520.834 80.6764 520.487 81.9847 519.8 83.1199C519.09 84.2161 518.06 85.0678 516.85 85.5599C515.454 86.1269 513.956 86.4025 512.45 86.3699V86.3499ZM497.23 85.3499H512.45C513.819 85.3814 515.18 85.133 516.45 84.6199C517.463 84.2196 518.331 83.5224 518.94 82.6199C519.504 81.6295 519.8 80.5095 519.8 79.3699C519.8 78.2303 519.504 77.1103 518.94 76.1199C518.33 75.2224 517.466 74.5263 516.46 74.1199C515.19 73.6082 513.829 73.3599 512.46 73.3899H497.23V85.3499Z" fill="black"/>
<g opacity="0.5">
<path d="M17 43.8899H1V-12.8601H32.83C37.0151 -12.9444 41.1682 -12.1152 45 -10.4301C48.2885 -8.97854 51.0726 -6.58423 53 -3.55006C54.8977 -0.443487 55.8691 3.14027 55.8 6.77994C55.8691 10.4196 54.8977 14.0034 53 17.1099C51.0741 20.1478 48.2899 22.5457 45 23.9999C41.1437 25.6965 36.9619 26.526 32.75 26.4299H17V43.8899ZM1.43 43.3899H16.5V25.9199H32.76C36.8857 26.0113 40.9815 25.199 44.76 23.5399C47.9517 22.1228 50.6545 19.7957 52.53 16.8499C54.3654 13.8167 55.3017 10.3246 55.23 6.77994C55.3017 3.23532 54.3654 -0.256788 52.53 -3.29006C50.6762 -6.2328 47.9986 -8.56608 44.83 -10.0001C41.0512 -11.6582 36.9556 -12.4705 32.83 -12.3801H1.46L1.43 43.3899ZM31.89 13.9999H16.53V-0.410058H31.89C33.3963 -0.446472 34.892 -0.149382 36.27 0.459942C37.4554 0.994295 38.4472 1.88128 39.11 2.99994C39.7899 4.15643 40.136 5.47867 40.11 6.81994C40.1398 8.1743 39.7936 9.5104 39.11 10.6799C38.4422 11.7801 37.4501 12.6465 36.27 13.1599C34.8867 13.7495 33.3932 14.0359 31.89 13.9999ZM17 13.4699H31.86C33.2912 13.5049 34.7133 13.232 36.03 12.6699C37.1191 12.1917 38.0365 11.3929 38.66 10.3799C39.2812 9.28388 39.5923 8.03939 39.56 6.77994C39.5886 5.5336 39.2775 4.30297 38.66 3.21994C38.0404 2.21014 37.1357 1.40636 36.06 0.909942C34.7459 0.337353 33.323 0.0575466 31.89 0.089942H17V13.4699Z" fill="black"/>
<path d="M94.0001 45.1299C87.9286 45.2486 81.9099 43.9833 76.4001 41.4299C71.5263 39.1616 67.4064 35.5415 64.5301 30.9999C61.683 26.3417 60.2227 20.9685 60.3201 15.5099C60.2189 10.0446 61.6794 4.66394 64.5301 -6.77109e-05C67.409 -4.52836 71.5246 -8.13735 76.3901 -10.4001C81.9351 -12.8336 87.9246 -14.0901 93.9801 -14.0901C100.036 -14.0901 106.025 -12.8336 111.57 -10.4001C116.43 -8.12936 120.544 -4.52216 123.43 -6.77109e-05C126.285 4.65534 127.749 10.0299 127.65 15.4899C127.753 20.9568 126.288 26.3388 123.43 30.9999C120.545 35.5276 116.432 39.1415 111.57 41.4199C106.071 43.9746 100.062 45.2433 94.0001 45.1299ZM94.0001 -13.5901C87.9983 -13.7093 82.0481 -12.4611 76.6001 -9.94007C71.8387 -7.70343 67.8145 -4.15446 65.0001 0.289932C62.2037 4.8708 60.7711 10.1539 60.8701 15.5199C60.7724 20.8827 62.205 26.1622 65.0001 30.7399C67.811 35.1947 71.8354 38.7542 76.6001 40.9999C82.0512 43.5095 88.0003 44.7506 94.0001 44.6299C99.9838 44.75 105.916 43.5087 111.35 40.9999C116.13 38.7579 120.172 35.1986 123 30.7399C125.803 26.165 127.239 20.8842 127.14 15.5199C127.241 10.1524 125.804 4.86797 123 0.289932C120.168 -4.15839 116.127 -7.70711 111.35 -9.94007C105.92 -12.4604 99.9858 -13.7087 94.0001 -13.5901ZM94.0001 31.2199C90.7211 31.2964 87.465 30.6548 84.4601 29.3399C81.884 28.1897 79.7108 26.2952 78.2201 23.8999C76.7153 21.3674 75.9465 18.4654 76.0001 15.5199C75.9287 12.579 76.6803 9.67658 78.1701 7.13993C79.6608 4.7447 81.834 2.85015 84.4101 1.69993C90.4966 -0.800518 97.3236 -0.800518 103.41 1.69993C105.989 2.84952 108.166 4.74398 109.66 7.13993C111.168 9.67015 111.931 12.5751 111.86 15.5199C111.928 18.4644 111.166 21.3687 109.66 23.8999C108.163 26.2931 105.987 28.1867 103.41 29.3399C100.446 30.6381 97.2357 31.2794 94.0001 31.2199ZM94.0001 0.319932C90.7939 0.242579 87.6095 0.867165 84.6701 2.14993C82.1916 3.26282 80.1022 5.09104 78.6701 7.39993C77.2234 9.8565 76.4958 12.67 76.5701 15.5199C76.4985 18.3696 77.2259 21.1823 78.6701 23.6399C80.1027 25.9459 82.1923 27.7708 84.6701 28.8799C87.6088 30.1661 90.7932 30.7941 94.0001 30.7199C97.1938 30.7905 100.364 30.1626 103.29 28.8799C105.762 27.762 107.85 25.9392 109.29 23.6399C110.741 21.1842 111.475 18.3714 111.41 15.5199C111.478 12.6681 110.743 9.85465 109.29 7.39993C107.85 5.09774 105.763 3.27151 103.29 2.14993C100.364 0.871033 97.1931 0.24649 94.0001 0.319932Z" fill="black"/>
<path d="M193.46 43.8899H174.79L174.71 43.7899L159.71 23.6399H152V43.8899H135.89V-12.8601H169.55C173.451 -12.9339 177.321 -12.1558 180.89 -10.5801C183.993 -9.19743 186.642 -6.96473 188.53 -4.14006C190.361 -1.2733 191.307 2.06902 191.25 5.46994C191.31 8.84625 190.363 12.1639 188.53 14.9999C186.633 17.804 183.985 20.0182 180.89 21.3899C179.703 21.9327 178.472 22.3743 177.21 22.7099L193.46 43.8899ZM175 43.3899H192.4L176.31 22.3899L176.68 22.2899C178.053 21.9533 179.392 21.4913 180.68 20.9099C183.689 19.5713 186.263 17.4166 188.11 14.6899C189.891 11.9455 190.81 8.73106 190.75 5.45994C190.808 2.15775 189.89 -1.08811 188.11 -3.87006C186.28 -6.62431 183.703 -8.79942 180.68 -10.1401C177.176 -11.6841 173.378 -12.4451 169.55 -12.3701H136.39V43.3899H151.45V23.1399H160L160.08 23.2399L175 43.3899ZM167.37 12.2399H151.37V-1.31006H167.37C168.855 -1.34471 170.332 -1.0759 171.71 -0.520061C172.859 -0.0435143 173.839 0.768467 174.52 1.80994C175.202 2.90694 175.549 4.17872 175.52 5.46994C175.543 6.75411 175.196 8.01775 174.52 9.10994C173.837 10.1599 172.85 10.9763 171.69 11.4499C170.332 12.0015 168.875 12.2703 167.41 12.2399H167.37ZM152 11.7399H167.46C168.87 11.7744 170.272 11.5192 171.58 10.9899C172.649 10.5571 173.56 9.80668 174.19 8.83994C174.803 7.82456 175.115 6.65586 175.09 5.46994C175.121 4.27707 174.808 3.10043 174.19 2.07994C173.56 1.12384 172.658 0.378461 171.6 -0.0600605C170.286 -0.591977 168.877 -0.847292 167.46 -0.810061H152V11.7399Z" fill="black"/>
<path d="M263.32 43.89H243.37L216 4.93995V43.94H200.39V-12.86H220.9L247.75 25.22V-12.86H263.32V43.89ZM243.63 43.39H262.82V-12.36H248.25V26.8L220.64 -12.36H200.89V43.39H215.5V3.38995L243.63 43.39Z" fill="black"/>
<path d="M320.79 45.1299C315.542 45.2177 310.319 44.3816 305.36 42.6599C301.3 41.2835 297.671 38.8705 294.83 35.6599C292.334 32.7328 290.922 29.0357 290.83 25.1899V24.9299H307.13V25.1499C307.345 26.6604 308.072 28.0513 309.19 29.0899C310.562 30.3271 312.212 31.2155 314 31.6799C316.307 32.3246 318.695 32.6311 321.09 32.5899C323.278 32.624 325.462 32.4059 327.6 31.9399C329.104 31.6345 330.511 30.9688 331.7 29.9999C332.145 29.6384 332.502 29.1805 332.745 28.6609C332.987 28.1412 333.109 27.5733 333.1 26.9999C333.13 26.1531 332.857 25.3234 332.33 24.6599C331.594 23.9096 330.668 23.3737 329.65 23.1099C327.889 22.591 326.08 22.2559 324.25 22.1099L313.82 21.1099C309.463 20.8238 305.177 19.8693 301.11 18.2799C298.181 17.1431 295.647 15.176 293.82 12.6199C292.207 10.0918 291.388 7.13796 291.47 4.13992C291.381 0.502017 292.602 -3.04682 294.91 -5.86008C297.507 -8.75806 300.853 -10.8828 304.58 -12.0001C309.28 -13.5031 314.196 -14.2227 319.13 -14.1301C324.054 -14.2095 328.953 -13.4173 333.6 -11.7901C337.477 -10.4755 340.958 -8.20162 343.72 -5.18008C346.154 -2.4514 347.607 1.01158 347.85 4.65992V4.92992H331.55V4.70992C331.371 3.42436 330.736 2.24603 329.76 1.38992C328.511 0.328827 327.032 -0.427698 325.44 -0.820076C323.292 -1.37587 321.079 -1.63825 318.86 -1.60008C316.843 -1.62802 314.83 -1.42334 312.86 -0.990076C311.441 -0.705816 310.115 -0.0735598 309 0.849924C308.59 1.19552 308.262 1.62765 308.039 2.11524C307.816 2.60283 307.703 3.13378 307.71 3.66992C307.683 4.4513 307.935 5.21676 308.42 5.82992C309.123 6.55677 310.018 7.06986 311 7.30992C312.628 7.81458 314.303 8.14969 316 8.30992L327.21 9.38992C331.569 9.6983 335.869 10.5758 340 11.9999C342.83 12.9388 345.304 14.7221 347.09 17.1099C348.643 19.5591 349.417 22.4217 349.31 25.3199C349.362 29.1126 348.097 32.8058 345.73 35.7699C343.088 38.9613 339.633 41.3799 335.73 42.7699C330.933 44.4499 325.872 45.2494 320.79 45.1299ZM291.34 25.4399C291.488 29.0796 292.85 32.5651 295.21 35.3399C297.991 38.4869 301.55 40.8489 305.53 42.1899C310.434 43.8919 315.6 44.7178 320.79 44.6299C325.803 44.721 330.79 43.901 335.51 42.2099C339.342 40.875 342.739 38.5247 345.34 35.4099C347.628 32.5293 348.853 28.9483 348.81 25.2699C348.918 22.4752 348.175 19.7136 346.68 17.3499C344.952 15.0404 342.558 13.3162 339.82 12.4099C335.71 11.0052 331.434 10.1413 327.1 9.83992L315.89 8.74992C314.16 8.59297 312.451 8.25786 310.79 7.74992C309.744 7.46503 308.796 6.89766 308.05 6.10992C307.488 5.40792 307.194 4.52888 307.22 3.62992C307.221 3.03147 307.351 2.44026 307.601 1.89664C307.851 1.35301 308.216 0.86978 308.67 0.479923C309.828 -0.473577 311.201 -1.12932 312.67 -1.43008C314.681 -1.88094 316.739 -2.09241 318.8 -2.06008C321.063 -2.09733 323.32 -1.82822 325.51 -1.26008C327.181 -0.851507 328.732 -0.0569067 330.04 1.05992C331.058 1.94408 331.748 3.14532 332 4.46992H347.34C347.054 1.02338 345.649 -2.23522 343.34 -4.81008C340.633 -7.7681 337.225 -9.99666 333.43 -11.2901C328.835 -12.8884 323.995 -13.6669 319.13 -13.5901C314.251 -13.6824 309.389 -12.973 304.74 -11.4901C301.087 -10.3647 297.816 -8.24992 295.29 -5.38008C293.078 -2.65846 291.911 0.76391 292 4.26992C291.919 7.16891 292.709 10.0256 294.27 12.4699C296.026 14.9615 298.474 16.884 301.31 17.9999C305.329 19.5673 309.565 20.5083 313.87 20.7899L324.3 21.7899C326.166 21.9361 328.012 22.2712 329.81 22.7899C330.916 23.0815 331.92 23.6734 332.71 24.4999C333.318 25.2501 333.634 26.1949 333.6 27.1599C333.583 27.7835 333.431 28.396 333.155 28.9552C332.879 29.5145 332.485 30.0074 332 30.3999C330.742 31.4046 329.26 32.0907 327.68 32.3999C325.503 32.8739 323.278 33.0954 321.05 33.0599C318.608 33.1001 316.173 32.7869 313.82 32.1299C311.964 31.6374 310.25 30.7122 308.82 29.4299C307.678 28.3703 306.916 26.965 306.65 25.4299L291.34 25.4399Z" fill="black"/>
<path d="M389.06 43.89H373V1.47995H351.55V-12.86H410.55V1.47995H389.06V43.89ZM373.5 43.39H388.56V0.999953H410V-12.36H352V0.999953H373.5V43.39Z" fill="black"/>
<path d="M475.52 43.89H458.4L453.7 33.06H425L420.32 43.89H403.12L429 -12.86H449.76L449.83 -12.71L475.52 43.89ZM458.72 43.39H474.72L449.4 -12.36H429.28L403.9 43.39H420L424.68 32.56H454L458.72 43.39ZM448.84 20.57H429.84L439.33 -1.43005L448.84 20.57ZM430.59 20.07H448.08L439.32 -0.140047L430.59 20.07Z" fill="black"/>
<path d="M538.49 43.8899H519.82L519.75 43.7899L504.75 23.6399H497V43.8899H480.92V-12.8601H514.58C518.481 -12.9339 522.351 -12.1558 525.92 -10.5801C529.028 -9.20545 531.679 -6.97103 533.56 -4.14006C535.395 -1.27527 536.341 2.0684 536.28 5.46994C536.347 8.84721 535.4 12.167 533.56 14.9999C531.663 17.804 529.015 20.0182 525.92 21.3899C524.733 21.9343 523.502 22.3759 522.24 22.7099L538.49 43.8899ZM520.07 43.3899H537.48L521.39 22.3899L521.75 22.2899C523.124 21.9566 524.463 21.4945 525.75 20.9099C528.761 19.574 531.335 17.4187 533.18 14.6899C534.961 11.9455 535.88 8.73106 535.82 5.45994C535.878 2.15775 534.96 -1.08811 533.18 -3.87006C531.352 -6.62618 528.774 -8.8018 525.75 -10.1401C522.247 -11.685 518.448 -12.4461 514.62 -12.3701H481.42V43.3899H496.48V23.1399H505L505.07 23.2399L520.07 43.3899ZM512.45 12.2399H496.45V-1.31006H512.45C513.932 -1.34363 515.405 -1.07483 516.78 -0.520061C517.93 -0.0435143 518.909 0.768467 519.59 1.80994C520.272 2.90694 520.619 4.17872 520.59 5.46994C520.613 6.75411 520.266 8.01775 519.59 9.10994C518.907 10.1599 517.92 10.9763 516.76 11.4499C515.393 12.0069 513.926 12.2759 512.45 12.2399ZM497 11.7399H512.47C513.88 11.7724 515.282 11.5172 516.59 10.9899C517.656 10.5565 518.564 9.80597 519.19 8.83994C519.808 7.82655 520.12 6.65646 520.09 5.46994C520.126 4.27647 519.813 3.09839 519.19 2.07994C518.565 1.11963 517.661 0.373045 516.6 -0.0600605C515.289 -0.591176 513.883 -0.846487 512.47 -0.810061H497V11.7399Z" fill="black"/>
</g>
</svg>
