<svg width="441" height="134" viewBox="0 0 441 134" fill="none" xmlns="http://www.w3.org/2000/svg">
<path d="M0.749973 1.61002C0.609973 1.46002 0.559974 1.36004 0.609974 1.29004C0.645567 1.25263 0.68944 1.22406 0.738071 1.2067C0.786702 1.18933 0.838732 1.18363 0.889973 1.19003C1.04296 1.17543 1.19699 1.17543 1.34997 1.19003C1.46175 1.20403 1.57214 1.22746 1.67997 1.26004C2.73922 1.43289 3.80774 1.54307 4.87997 1.59003C5.98997 1.64003 7.07997 1.67004 8.12997 1.67004H8.99997C10.74 1.59004 12.54 1.42004 14.39 1.17004C14.84 1.11004 15.28 1.05004 15.7 1.01004C15.8873 0.920403 16.0923 0.873871 16.3 0.873871C16.5076 0.873871 16.7127 0.920403 16.9 1.01004C17.2238 1.14611 17.5165 1.34688 17.76 1.60004C18.0381 1.84523 18.2956 2.11278 18.53 2.40002C18.53 2.67002 18.24 2.98004 17.69 3.32004C17.115 3.67681 16.5093 3.98136 15.88 4.23004C15.4011 4.44085 14.8969 4.58875 14.38 4.67004C13.6 4.67004 12.81 4.70004 12.01 4.76004C12.01 4.85004 12.01 4.95003 12.01 5.06003C12.0181 5.13982 12.0181 5.22022 12.01 5.30002C11.8255 6.38793 11.7152 7.48715 11.68 8.59003C11.62 9.84003 11.59 11.08 11.58 12.32C11.58 13.1 11.58 13.82 11.53 14.48C11.53 17.1 11.62 19.7667 11.8 22.48C11.8412 22.5184 11.874 22.5648 11.8965 22.6165C11.9189 22.6681 11.9305 22.7237 11.9305 22.78C11.9305 22.8363 11.9189 22.892 11.8965 22.9436C11.874 22.9952 11.8412 23.0417 11.8 23.08C11.6483 23.1121 11.4916 23.1121 11.34 23.08L10.81 23C10.6343 22.9495 10.4527 22.9226 10.27 22.92C9.91315 22.7952 9.58691 22.5961 9.31281 22.3358C9.03871 22.0755 8.82301 21.7599 8.67997 21.41C8.39533 20.7634 8.24236 20.0665 8.22998 19.36C8.30998 17.99 8.31998 16.6 8.22998 15.18C8.22998 14.97 8.22998 14.76 8.22998 14.55C8.22998 14.34 8.22998 14.21 8.22998 14.04C8.12998 12.8 8.03997 11.44 7.96997 9.97003C7.89579 8.7103 7.91584 7.44678 8.02997 6.19003C8.17996 5.70857 8.51427 5.30596 8.95997 5.07004C7.53036 5.28725 6.07944 5.32755 4.63997 5.19003C3.80241 4.90014 3.05696 4.39281 2.47998 3.72003C1.84041 3.07072 1.26134 2.36445 0.749973 1.61002Z" fill="black"/>
<path d="M27.89 4.64005H27.35C26.8 4.64005 26.21 4.64005 25.57 4.64005C24.9596 4.62063 24.3529 4.53683 23.76 4.39005C23.2439 4.21431 22.7656 3.94289 22.35 3.59003C22.016 3.34622 21.7282 3.04486 21.5 2.70005C21.7667 2.38824 22.112 2.15344 22.5 2.02003C22.8261 1.90503 23.1604 1.81478 23.5 1.75004H23.66C24.8391 1.42116 26.0487 1.21342 27.27 1.13004C28.4 1.06004 29.66 1.05004 31.06 1.13004C32.7261 1.18702 34.3345 1.75484 35.6671 2.75654C36.9997 3.75824 37.9922 5.14539 38.51 6.73005C38.9776 8.15249 38.8626 9.70226 38.19 11.04C37.7397 11.8165 37.1404 12.4963 36.4265 13.0403C35.7125 13.5843 34.8981 13.9819 34.03 14.21C34.41 14.85 34.78 15.45 35.13 15.99L35.66 16.86C36.6 18.1934 37.6533 19.5634 38.82 20.97L39.13 21.36C39.2541 21.4269 39.3588 21.5246 39.4341 21.6437C39.5094 21.7628 39.5528 21.8993 39.56 22.04C39.55 22.1866 39.5017 22.328 39.42 22.4501C39.3225 22.6096 39.2157 22.7632 39.1 22.91C38.98 23.05 38.89 23.17 38.81 23.25C38.4349 23.3296 38.0436 23.2691 37.71 23.08C37.223 22.867 36.7603 22.6021 36.33 22.29C35.9565 22.034 35.6201 21.7278 35.33 21.38C34.7692 20.463 34.1478 19.5844 33.47 18.75L33.11 18.29C32.69 17.8 32.24 17.29 31.78 16.65C31.358 16.1134 30.9833 15.5413 30.66 14.94C30.2105 15.0118 29.7545 15.0352 29.3 15.01C28.8217 14.9986 28.3472 14.9212 27.89 14.78C27.83 15.78 27.81 16.78 27.83 17.94C27.8456 18.97 27.919 19.9983 28.05 21.02C28.1323 21.1704 28.1769 21.3386 28.18 21.51C28.1799 21.6726 28.1563 21.8342 28.11 21.99C28.023 22.1091 27.9145 22.2109 27.79 22.29C27.6208 22.4116 27.4438 22.5219 27.26 22.62C27.1184 22.706 26.9714 22.7828 26.82 22.85C26.45 22.76 26.09 22.41 25.74 21.79C25.3733 21.1371 25.0782 20.4464 24.86 19.73C24.6653 19.1926 24.5475 18.6304 24.51 18.06C24.59 17.06 24.64 16.06 24.67 15.06C24.67 14.71 24.67 14.35 24.67 14C24.67 12.93 24.67 11.74 24.67 10.44C24.6924 9.29041 24.7994 8.14399 24.99 7.01005C25.2338 6.44411 25.6368 5.96119 26.15 5.62003C26.6864 5.22135 27.271 4.89209 27.89 4.64005ZM28.14 12.26L29.14 12.01C29.89 11.83 30.71 11.61 31.59 11.34C32.421 11.0956 33.2225 10.7602 33.98 10.34C34.6181 10.0091 35.1308 9.47894 35.44 8.83002C35.566 8.52914 35.6308 8.20623 35.6308 7.88004C35.6308 7.55386 35.566 7.23091 35.44 6.93003C35.1372 6.24443 34.6388 5.66339 34.0074 5.25962C33.3759 4.85585 32.6394 4.64728 31.89 4.66004H30.48H29.09C29.1052 4.8297 29.1052 5.00039 29.09 5.17005C29.09 5.35005 29.09 5.48002 29.09 5.58002V5.68003C28.83 7.36003 28.6 9.08002 28.41 10.83L28.14 12.26Z" fill="black"/>
<path d="M51.87 0.540026C51.98 0.420026 52.1001 0.430026 52.2401 0.540026C52.399 0.707029 52.5336 0.895537 52.6401 1.10002C52.7696 1.33547 52.8832 1.57933 52.98 1.83C53.08 2.08 53.1501 2.26003 53.1901 2.39003C54.2159 5.89647 54.9682 9.4772 55.4401 13.1C55.4401 13.21 55.4901 13.34 55.5201 13.46C55.6501 14.19 55.8101 14.97 55.9901 15.82L56.34 15.91C56.5668 16.0126 56.7733 16.1548 56.9501 16.33C57.1608 16.5166 57.3518 16.7244 57.5201 16.95C57.6518 17.1079 57.7721 17.275 57.8801 17.45C57.8801 17.53 57.8801 17.64 57.7001 17.76C57.5372 17.8915 57.3632 18.0086 57.18 18.11L56.6701 18.36H56.59C56.8356 19.44 57.153 20.5023 57.54 21.54C57.6453 21.6652 57.7244 21.8102 57.7725 21.9666C57.8206 22.1229 57.8368 22.2873 57.8201 22.45C57.7701 22.5542 57.7024 22.649 57.62 22.73L57.2401 23.11L56.8801 23.41L56.79 23.49C56.5466 23.5031 56.3038 23.4551 56.0837 23.3503C55.8636 23.2455 55.6733 23.0873 55.5301 22.89C55.0497 22.3644 54.6335 21.7837 54.29 21.16C53.9574 20.602 53.673 20.0165 53.4401 19.41H53.3801C52.35 19.3546 51.3172 19.3747 50.29 19.47L48.65 19.74C47.93 19.84 47.2301 19.93 46.5201 19.99C45.9954 20.0551 45.4647 20.0551 44.9401 19.99L44.7401 20.34C44.6401 20.51 44.54 20.68 44.43 20.85C44.2791 21.4259 43.9236 21.9271 43.43 22.26C43.1082 22.4613 42.7394 22.5751 42.3601 22.59C41.9627 22.6331 41.5611 22.6128 41.1701 22.53C41.0597 21.9727 41.1011 21.3959 41.29 20.86C41.48 19.97 41.7301 19.04 42.0201 18.1C41.5424 17.6401 41.0884 17.1562 40.6601 16.65C40.4801 16.52 40.4201 16.42 40.4701 16.35C40.5119 16.3012 40.5642 16.2624 40.623 16.2364C40.6819 16.2104 40.7458 16.198 40.8101 16.2C40.9964 16.1848 41.1837 16.1848 41.37 16.2H41.8001H41.8601C42.1101 16.2 42.38 16.2 42.65 16.2C42.8827 15.603 43.1672 15.0275 43.5001 14.48C43.8987 13.8165 44.2335 13.1167 44.5001 12.39C44.7201 11.74 45.0301 10.75 45.4401 9.39003C45.8501 8.03003 46.2001 6.92003 46.5801 5.73003C46.8318 4.88919 47.1255 4.06148 47.4601 3.25002C47.7591 2.65353 48.2025 2.14133 48.7501 1.76003C49.2 1.48261 49.6886 1.27366 50.2001 1.14003C50.7752 0.995911 51.3347 0.794915 51.87 0.540026ZM46.7401 16.26C47.4701 16.26 48.18 16.26 48.9 16.26C49.81 16.26 50.7601 16.17 51.7201 16.09L52.7801 16.01C52.7301 15.78 52.68 15.55 52.62 15.32C52.52 14.8467 52.4201 14.3867 52.3201 13.94C52.1801 13.3867 52.03 12.8167 51.87 12.23C51.3767 10.43 50.9267 8.64335 50.5201 6.87001C49.7601 9.05001 48.9201 11.1767 48.0001 13.25L47.5501 14.35L47.1701 15.29C47.0001 15.63 46.8701 15.94 46.7401 16.26Z" fill="black"/>
<path d="M65.3 1.26005C65.49 1.19005 65.61 1.19005 65.68 1.26005C65.7127 1.29824 65.7367 1.34302 65.7505 1.39134C65.7643 1.43965 65.7676 1.49037 65.76 1.54005C65.7505 1.65826 65.7304 1.7754 65.7 1.89005C65.4686 2.99618 65.3348 4.12049 65.3 5.25004C65.23 6.65004 65.19 8.01003 65.17 9.33003C65.17 10.08 65.17 10.73 65.17 11.28C65.17 13.04 65.17 14.82 65.17 16.61C65.17 18.14 65.23 19.66 65.22 21.18C65.2829 21.3726 65.3047 21.5762 65.284 21.7778C65.2633 21.9793 65.2007 22.1742 65.1 22.35C64.9104 22.5485 64.6538 22.6697 64.38 22.69C64.0884 22.7348 63.7917 22.7348 63.5 22.69C63.0064 22.3483 62.6516 21.841 62.5 21.26C62.24 20.5186 62.046 19.7556 61.92 18.9801C61.8183 18.4121 61.7615 17.837 61.75 17.26C61.86 15.38 61.89 13.49 61.85 11.59C61.85 11.18 61.79 10.7201 61.76 10.2301C61.68 8.98005 61.63 7.66004 61.59 6.28004C61.5417 5.11913 61.5751 3.95625 61.69 2.80003C61.7709 2.54007 61.9103 2.30214 62.0975 2.1045C62.2848 1.90687 62.5148 1.75482 62.77 1.66004C63.301 1.48612 63.8523 1.38192 64.41 1.35005L65.3 1.26005Z" fill="black"/>
<path d="M68.6999 1.61002C68.5599 1.46002 68.5199 1.36004 68.5599 1.29004C68.5979 1.25304 68.6436 1.2249 68.6937 1.20761C68.7438 1.19032 68.7972 1.18431 68.8499 1.19003C68.9995 1.17545 69.1502 1.17545 69.2999 1.19003C69.4149 1.20412 69.5286 1.22754 69.6399 1.26004C70.699 1.43392 71.7676 1.54411 72.8399 1.59003C73.9499 1.64003 75.0299 1.67004 76.0799 1.67004H76.9999C78.7399 1.59004 80.5299 1.42004 82.3899 1.17004C82.8399 1.11004 83.2699 1.05004 83.6899 1.01004C83.8772 0.920403 84.0822 0.873871 84.2899 0.873871C84.4975 0.873871 84.7026 0.920403 84.8899 1.01004C85.2183 1.1431 85.5148 1.34417 85.7599 1.60004C86.0325 1.84763 86.2866 2.11501 86.5199 2.40002C86.5199 2.67002 86.2299 2.98004 85.6799 3.32004C85.1095 3.67875 84.5069 3.98341 83.8799 4.23004C83.398 4.44233 82.8903 4.59027 82.3699 4.67004C81.5899 4.67004 80.7999 4.70004 79.9999 4.76004C79.9999 4.85004 79.9999 4.95003 79.9999 5.06003C79.9921 5.14163 79.9753 5.22211 79.9499 5.30002C79.7753 6.38925 79.6651 7.48783 79.6199 8.59003C79.5699 9.84003 79.5399 11.08 79.5299 12.32C79.5299 13.1 79.5099 13.82 79.4699 14.48C79.4699 17.1 79.5632 19.7667 79.7499 22.48C79.8281 22.5603 79.8718 22.668 79.8718 22.78C79.8718 22.8921 79.8281 22.9997 79.7499 23.08C79.5982 23.1116 79.4416 23.1116 79.2899 23.08L78.7499 23C78.5744 22.9488 78.3927 22.9219 78.2099 22.92C77.8546 22.7925 77.5297 22.5923 77.256 22.3324C76.9822 22.0724 76.7656 21.7583 76.6199 21.41C76.3352 20.7634 76.1823 20.0665 76.1699 19.36C76.2499 17.99 76.2699 16.6 76.1699 15.18C76.1699 14.97 76.1699 14.76 76.1699 14.55C76.1699 14.34 76.1699 14.21 76.1699 14.04C76.0699 12.8 75.9899 11.44 75.9099 9.97003C75.8334 8.71016 75.8568 7.44621 75.9799 6.19003C76.051 5.95152 76.169 5.72958 76.3269 5.53726C76.4849 5.34494 76.6797 5.18611 76.8999 5.07004C75.4703 5.28745 74.0193 5.32775 72.5799 5.19003C71.7442 4.89632 70.9997 4.38963 70.4199 3.72003C69.7838 3.07028 69.2081 2.36403 68.6999 1.61002Z" fill="black"/>
<path d="M101.91 5.64005C101.91 5.78005 101.91 5.86002 101.79 5.86002C101.674 5.85931 101.562 5.82069 101.47 5.75004L101.1 5.52003C101.031 5.45693 100.953 5.40314 100.87 5.36002C100.054 4.89802 99.1585 4.59278 98.2301 4.46003C97.3725 4.31935 96.4977 4.31935 95.6401 4.46003C94.8301 4.64003 94.4001 4.90004 94.3701 5.25004C94.3717 5.47035 94.4218 5.6876 94.5168 5.88636C94.6119 6.08512 94.7496 6.2605 94.9201 6.40003C95.3637 6.85548 95.8381 7.27984 96.3401 7.67005C97.5001 8.62005 98.6201 9.62005 99.6801 10.6701C100.745 11.7257 101.694 12.8923 102.51 14.15C103.092 15.0426 103.562 16.0031 103.91 17.01C104.251 17.9728 104.32 19.0106 104.11 20.01C103.987 20.5328 103.759 21.0253 103.441 21.4583C103.124 21.8912 102.722 22.2557 102.26 22.53C101.248 23.112 100.107 23.4317 98.9401 23.46C97.6316 23.5035 96.3246 23.3346 95.0701 22.96C93.8034 22.5937 92.6092 22.0118 91.5401 21.24C91.0941 20.9227 90.676 20.5681 90.2901 20.18C89.9094 19.7999 89.5739 19.3771 89.2901 18.9201C88.8044 18.0773 88.575 17.1112 88.6301 16.1401C88.7006 15.5032 88.9822 14.9083 89.4301 14.4501C89.8561 13.9749 90.3867 13.6051 90.9801 13.37C91.0006 13.4925 91.0006 13.6175 90.9801 13.74C90.9801 13.95 90.9801 14.21 90.9801 14.53C90.9801 14.85 90.9801 15.21 90.9301 15.53C90.9121 15.763 90.9121 15.9971 90.9301 16.2301C91.0292 16.8377 91.2959 17.4056 91.7001 17.87C92.4569 18.7025 93.435 19.3026 94.5201 19.6C95.5616 19.8878 96.6311 20.0621 97.7101 20.12C98.2743 20.1785 98.844 20.1515 99.4001 20.04C99.9038 19.9581 100.363 19.7036 100.7 19.32C100.862 19.0904 100.968 18.8267 101.012 18.5492C101.055 18.2718 101.034 17.988 100.95 17.72C100.623 16.7177 100.096 15.7923 99.4001 15C98.6224 14.0622 97.7696 13.1893 96.8501 12.3901C95.9301 11.5801 95.1201 10.9001 94.4301 10.3901C93.3514 9.60311 92.4032 8.65149 91.6201 7.57005C91.1747 7.01665 90.8657 6.36624 90.7181 5.6714C90.5704 4.97655 90.5882 4.25673 90.7701 3.57005C91.0027 2.952 91.3847 2.40114 91.882 1.96665C92.3793 1.53217 92.9764 1.22756 93.6201 1.08003C95.0345 0.76184 96.5119 0.876847 97.8601 1.41004C99.2895 1.89351 100.536 2.80463 101.43 4.02003C101.589 4.27307 101.723 4.54102 101.83 4.82005C101.924 5.08269 101.951 5.3643 101.91 5.64005Z" fill="black"/>
<path d="M111.15 11.42C110.914 11.3948 110.681 11.3547 110.45 11.3C110.06 11.23 109.63 11.12 109.16 11C108.737 10.8874 108.322 10.7437 107.92 10.57C107.57 10.42 107.36 10.26 107.31 10.1C107.413 9.96613 107.487 9.81314 107.53 9.65002C107.61 9.40002 107.69 9.14003 107.76 8.87003C107.83 8.60003 107.88 8.44002 107.89 8.36002C107.855 8.14145 107.855 7.91861 107.89 7.70004C107.895 7.59929 107.922 7.50092 107.971 7.41251C108.019 7.3241 108.088 7.248 108.17 7.19003C108.855 7.21524 109.531 7.35379 110.17 7.60004C111.04 7.89004 111.76 8.16005 112.32 8.39005H112.41H112.46L112.63 8.47003L112.81 8.55002C112.86 8.55002 112.88 8.61005 112.88 8.64005C112.88 8.67005 112.88 8.64003 112.75 8.69003C112.628 8.81264 112.533 8.959 112.47 9.12003C112.37 9.33003 112.27 9.56003 112.16 9.81003C112.031 10.1814 111.874 10.5424 111.69 10.89C111.53 11.25 111.35 11.41 111.15 11.42ZM112.41 17.66H112.46L112.63 17.73L112.81 17.82C112.86 17.82 112.88 17.87 112.88 17.9C112.88 17.93 112.88 17.9 112.75 17.95C112.631 18.0746 112.536 18.2205 112.47 18.38C112.37 18.59 112.27 18.82 112.16 19.08C112.033 19.4489 111.876 19.8068 111.69 20.15C111.53 20.47 111.35 20.64 111.15 20.65C110.914 20.6248 110.681 20.5847 110.45 20.53C110.06 20.45 109.63 20.35 109.16 20.22C108.738 20.1059 108.324 19.9657 107.92 19.8C107.57 19.64 107.36 19.48 107.31 19.33C107.413 19.1961 107.487 19.0432 107.53 18.88C107.61 18.63 107.69 18.37 107.76 18.11C107.813 17.9357 107.856 17.7588 107.89 17.58C107.855 17.3614 107.855 17.1387 107.89 16.92C107.895 16.8193 107.922 16.7209 107.971 16.6325C108.019 16.5441 108.088 16.468 108.17 16.41C108.855 16.426 109.532 16.5614 110.17 16.81C111.04 17.11 111.76 17.38 112.32 17.61L112.41 17.66Z" fill="black"/>
<path d="M8.48008 49.44C8.75008 49.37 8.93008 49.44 9.00008 49.52C9.20674 49.44 9.33674 49.46 9.39008 49.58C9.4396 49.7566 9.4396 49.9434 9.39008 50.12C9.45984 51.4499 9.66082 52.7697 9.99007 54.06C10.3701 55.69 10.7501 57.17 11.1101 58.48C11.1901 58.77 11.2601 59.04 11.3301 59.28C11.8367 60.86 12.4601 62.5934 13.2001 64.48C13.9601 62.8267 14.6634 61.12 15.3101 59.36C15.3473 59.2988 15.3807 59.2354 15.4101 59.17C15.8001 57.89 16.2901 56.44 16.8901 54.81C17.3797 53.4096 18.0237 52.068 18.8101 50.81C19.1419 50.5207 19.5299 50.303 19.9498 50.1706C20.3696 50.0381 20.8123 49.9936 21.2501 50.04C22.2906 49.414 23.4761 49.0693 24.6901 49.04C24.9501 48.97 25.1101 49.04 25.1701 49.15C25.2452 49.3127 25.2629 49.4961 25.2201 49.67C25.1983 49.8536 25.1581 50.0345 25.1001 50.21C25.1057 50.2431 25.1057 50.2769 25.1001 50.31C24.8053 51.7971 24.6281 53.3051 24.5701 54.82C24.5001 56.41 24.4801 58 24.4901 59.59C24.4901 60.5 24.4901 61.4 24.4901 62.28C24.4901 64.99 24.6701 67.76 24.8601 70.6C24.9501 71.96 25.0301 73.28 25.1001 74.6C25.2967 75.2063 25.2683 75.8631 25.0201 76.45C24.8387 76.7981 24.5467 77.076 24.1901 77.24C23.8299 77.4488 23.4381 77.5974 23.0301 77.68C22.4308 77.1552 22.0112 76.4557 21.8301 75.68C21.4264 74.5312 21.0925 73.3591 20.8301 72.17C20.6197 71.3115 20.4694 70.4394 20.3801 69.56C20.4301 67.67 20.3801 65.76 20.3001 63.82C20.3001 63.46 20.3001 63.11 20.3001 62.76C20.2301 61.99 20.1501 61.14 20.0701 60.2L19.9101 60.48C19.6101 61.22 19.1801 62.57 18.6201 64.48C18.1301 66.18 17.6201 67.83 17.1001 69.41C16.7979 70.5079 16.3435 71.5581 15.7501 72.53C15.4301 72.93 14.9701 72.98 14.3901 72.67C13.7515 72.3275 13.1927 71.8538 12.7501 71.28C11.7473 70.1098 10.8879 68.824 10.1901 67.45C9.66257 66.3308 9.21804 65.1744 8.86008 63.99C8.55008 62.99 8.14007 61.89 7.63007 60.61C7.55007 61.2767 7.47008 61.9667 7.39008 62.68C7.02341 66.64 6.77674 70.6834 6.65008 74.81C6.65008 75.04 6.65008 75.28 6.65008 75.51C6.81249 76.1593 6.74536 76.8447 6.46008 77.45C6.24045 77.7856 5.92765 78.0497 5.56007 78.21C5.18403 78.405 4.78392 78.5496 4.37008 78.64C3.76644 78.0258 3.37715 77.2332 3.26008 76.38C2.95371 75.1352 2.72328 73.8728 2.57008 72.6C2.43555 71.6897 2.37202 70.7702 2.38007 69.85C2.65007 67.58 2.85008 65.31 2.98008 63.01C2.98008 62.9 2.98008 62.79 2.98008 62.68C2.98008 62.17 2.98008 61.63 2.98008 61.04C2.98008 59.5 3.06008 57.9 3.14008 56.22C3.18816 54.7651 3.33517 53.315 3.58008 51.88C3.77958 51.4717 4.05959 51.108 4.4033 50.8107C4.747 50.5134 5.14729 50.2886 5.58008 50.15C6.47409 49.8307 7.39916 49.6061 8.34007 49.48L8.48008 49.44Z" fill="black"/>
<path d="M43.4001 48.1701C43.5401 48.0101 43.7001 48.0201 43.8901 48.1701C44.1049 48.3871 44.2838 48.6368 44.4201 48.91C44.5945 49.2333 44.7482 49.5673 44.8801 49.91C45.0101 50.23 45.1001 50.48 45.1601 50.65C46.5266 55.3256 47.5296 60.0998 48.1601 64.93C48.1601 65.08 48.2201 65.2501 48.2601 65.4201C48.4401 66.4201 48.6501 67.42 48.8901 68.56L49.3601 68.68C49.6638 68.8133 49.9415 68.9996 50.1801 69.23C50.4519 69.4892 50.7059 69.7665 50.9401 70.06C51.11 70.2738 51.2669 70.4975 51.4101 70.73C51.4501 70.85 51.3701 70.99 51.1701 71.15C50.9553 71.325 50.7242 71.479 50.4801 71.61C50.2101 71.75 49.9901 71.86 49.8001 71.94L49.6901 72C50.0205 73.4396 50.4448 74.8559 50.9601 76.24C51.0998 76.4066 51.2045 76.5995 51.2681 76.8074C51.3317 77.0153 51.3528 77.2339 51.3301 77.4501C51.2654 77.5929 51.1737 77.7219 51.0601 77.83C50.9036 78.0066 50.7366 78.1735 50.5601 78.33L50.0801 78.74L49.9601 78.83C49.4401 78.94 48.8801 78.67 48.2801 78.03C47.6373 77.3357 47.08 76.5669 46.6201 75.74C46.1812 74.9916 45.8033 74.2091 45.4901 73.4H45.4101C44.0366 73.3263 42.6596 73.3531 41.2901 73.48C40.7801 73.57 40.0501 73.69 39.1001 73.83C38.1501 73.97 37.2101 74.0901 36.2701 74.1701C35.5698 74.2619 34.8604 74.2619 34.1601 74.1701L33.8901 74.6401C33.7601 74.8701 33.6201 75.1 33.4801 75.32C33.2933 76.0749 32.8429 76.7381 32.2101 77.19C31.7874 77.4683 31.2959 77.6241 30.7901 77.6401C30.2597 77.7001 29.7232 77.6764 29.2001 77.57C29.0515 76.8259 29.1067 76.0554 29.3601 75.34C29.6201 74.14 29.9401 72.91 30.3601 71.65C29.7217 71.037 29.1174 70.3893 28.5501 69.71C28.3101 69.54 28.2301 69.41 28.2901 69.31C28.4139 69.1908 28.5783 69.123 28.7501 69.12C28.9955 69.0881 29.2426 69.0714 29.4901 69.07H30.0701H30.1501C30.4901 69.07 30.8401 69.07 31.1501 69.07C31.4599 68.2755 31.838 67.5093 32.2801 66.78C32.8173 65.8948 33.2693 64.9606 33.6301 63.99C33.9201 63.13 34.3401 61.8 34.8801 59.99C35.4201 58.18 35.8801 56.69 36.4101 55.1C36.7405 53.9798 37.1311 52.8782 37.5801 51.8C37.975 50.9986 38.5668 50.3104 39.3001 49.8C39.9008 49.4356 40.5508 49.1595 41.2301 48.98C41.9775 48.7797 42.7042 48.5085 43.4001 48.1701ZM36.5601 69.1701C37.5601 69.1701 38.4801 69.1701 39.4301 69.1701C40.6601 69.1701 41.9101 69.0601 43.2001 68.9501L44.6101 68.83C44.5401 68.53 44.4701 68.2301 44.3901 67.9201C44.2601 67.2901 44.1301 66.68 44.0001 66.08L43.4001 63.79C42.7334 61.3967 42.1334 59.0167 41.6001 56.65C40.5934 59.5634 39.4734 62.4 38.2401 65.16C38.0334 65.64 37.8334 66.13 37.6401 66.63L37.1301 67.88C36.9201 68.29 36.7301 68.71 36.5601 69.13V69.1701Z" fill="black"/>
<path d="M63.4399 53.64H62.7099C61.9899 53.64 61.1899 53.64 60.3399 53.64C59.5268 53.6124 58.7189 53.4984 57.9299 53.3C57.2443 53.0632 56.6074 52.7041 56.0499 52.24C55.6084 51.9104 55.2263 51.508 54.9199 51.05C55.2774 50.628 55.7446 50.3131 56.2699 50.14C56.6896 49.9856 57.1209 49.8652 57.5599 49.78L57.7699 49.72C59.3457 49.2887 60.9602 49.0141 62.5899 48.9C64.0899 48.81 65.7699 48.79 67.5899 48.84C69.9118 48.921 72.1457 49.7487 73.9599 51.2C75.6319 52.508 76.8723 54.2884 77.5199 56.31C78.1461 58.2068 77.995 60.2744 77.0999 62.06C76.1999 63.9 74.3499 65.31 71.5499 66.29C72.0599 67.14 72.5499 67.94 73.0199 68.67L73.7199 69.82C74.9733 71.6267 76.3799 73.4567 77.9399 75.31L78.3499 75.82C78.5129 75.9116 78.6499 76.0432 78.7478 76.2024C78.8458 76.3617 78.9016 76.5433 78.9099 76.73C78.8982 76.9258 78.8362 77.1152 78.7299 77.28C78.606 77.494 78.4656 77.698 78.3099 77.89L77.9199 78.34C77.4195 78.4493 76.8964 78.371 76.4499 78.12C75.8012 77.8321 75.1845 77.4768 74.6099 77.06C74.113 76.7199 73.6626 76.3165 73.2699 75.86C72.5222 74.633 71.6937 73.4571 70.7899 72.34C70.6499 72.14 70.4799 71.94 70.2999 71.73C69.7399 71.0634 69.1499 70.3334 68.5299 69.54C67.9716 68.8221 67.4733 68.0596 67.0399 67.26C66.4419 67.3581 65.8351 67.3916 65.2299 67.36C64.5924 67.339 63.9604 67.2348 63.3499 67.05C63.2699 68.35 63.2399 69.76 63.2699 71.27C63.2868 72.6412 63.3836 74.0102 63.5599 75.37C63.6713 75.5691 63.733 75.792 63.7399 76.02C63.7394 76.2372 63.7057 76.453 63.6399 76.66C63.5246 76.8233 63.3785 76.9626 63.2099 77.07C62.9899 77.22 62.7599 77.37 62.5099 77.51L61.9199 77.81C61.4299 77.69 60.9199 77.22 60.4799 76.39C59.9908 75.5223 59.5985 74.6034 59.3099 73.65C59.0496 72.9324 58.8914 72.1817 58.8399 71.42C58.9399 70.11 59.0099 68.77 59.0499 67.42C59.0499 66.9467 59.0699 66.4767 59.1099 66.01C59.1099 64.5834 59.1099 63.0033 59.1099 61.27C59.1404 59.7386 59.2807 58.2114 59.5299 56.7C59.8506 55.943 60.386 55.2963 61.0699 54.84C61.8088 54.3462 62.6045 53.9433 63.4399 53.64ZM63.7699 63.79L65.0399 63.46C66.0399 63.23 67.1299 62.93 68.2999 62.57C69.4075 62.2416 70.4743 61.7887 71.4799 61.22C72.3446 60.7862 73.0461 60.0847 73.4799 59.22C73.6504 58.8183 73.7383 58.3864 73.7383 57.95C73.7383 57.5136 73.6504 57.0817 73.4799 56.68C73.1074 55.8031 72.4848 55.0553 71.6899 54.53C70.8264 53.9358 69.7979 53.6279 68.7499 53.65H66.8799H65.0199C65.04 53.8762 65.04 54.1038 65.0199 54.33C65.0199 54.57 65.0199 54.75 65.0199 54.88C65.0199 55.01 65.0199 55 65.0199 55.01C64.6666 57.25 64.3599 59.5367 64.0999 61.87C63.9299 62.54 63.8499 63.17 63.7699 63.79Z" fill="black"/>
<path d="M95.4101 48.1701C95.5501 48.0101 95.7201 48.0201 95.9001 48.1701C96.1152 48.3891 96.2971 48.6384 96.4401 48.91C96.6071 49.2354 96.7573 49.5692 96.8901 49.91C97.0201 50.23 97.1201 50.48 97.1701 50.65C98.5317 55.3268 99.5346 60.1007 100.17 64.93C100.17 65.08 100.17 65.2501 100.26 65.4201C100.45 66.4201 100.65 67.42 100.89 68.56L101.36 68.68C101.664 68.8133 101.941 68.9996 102.18 69.23C102.452 69.4892 102.706 69.7665 102.94 70.06C103.11 70.2738 103.267 70.4975 103.41 70.73C103.45 70.85 103.37 70.99 103.17 71.15C102.955 71.325 102.724 71.479 102.48 71.61L101.81 71.94L101.69 72C102.021 73.4396 102.445 74.8559 102.96 76.24C103.1 76.4066 103.205 76.5995 103.268 76.8074C103.332 77.0153 103.353 77.2339 103.33 77.4501C103.27 77.5929 103.181 77.7222 103.07 77.83C102.92 77.99 102.75 78.16 102.56 78.33L102.08 78.74L101.96 78.83C101.44 78.94 100.88 78.67 100.28 78.03C99.6373 77.3357 99.08 76.5669 98.6201 75.74C98.1852 74.9895 97.8075 74.2073 97.4901 73.4H97.4101C96.0366 73.3264 94.6596 73.3532 93.2901 73.48C92.7801 73.57 92.0501 73.69 91.1001 73.83C90.1501 73.97 89.2101 74.0901 88.2701 74.1701C87.5698 74.2619 86.8604 74.2619 86.1601 74.1701L85.8901 74.6401C85.7601 74.8701 85.6201 75.1 85.4801 75.32C85.2967 76.0764 84.8455 76.7407 84.2101 77.19C83.7874 77.4683 83.2959 77.6241 82.7901 77.6401C82.2597 77.7001 81.7232 77.6764 81.2001 77.57C81.0568 76.8256 81.112 76.0564 81.3601 75.34C81.6201 74.14 81.9401 72.91 82.3601 71.65C81.7217 71.037 81.1175 70.3893 80.5501 69.71C80.3101 69.54 80.2301 69.41 80.2901 69.31C80.4139 69.1908 80.5783 69.123 80.7501 69.12C80.9955 69.0881 81.2426 69.0714 81.4901 69.07H82.0701H82.1501C82.4901 69.07 82.8401 69.07 83.2001 69.07C83.5133 68.2753 83.8948 67.5091 84.3401 66.78C84.874 65.8945 85.3227 64.9603 85.6801 63.99C85.9701 63.13 86.3901 61.8 86.9301 59.99C87.4701 58.18 87.9301 56.69 88.4601 55.1C88.9901 53.51 89.3601 52.41 89.6301 51.8C90.0282 51.0007 90.6194 50.3133 91.3501 49.8C91.9508 49.4356 92.6008 49.1595 93.2801 48.98C94.0139 48.7773 94.727 48.5061 95.4101 48.1701ZM88.5701 69.1701C89.5701 69.1701 90.5001 69.1701 91.4501 69.1701C92.6701 69.1701 93.9301 69.0601 95.2101 68.9501L96.6201 68.83C96.5601 68.53 96.4801 68.2301 96.4101 67.9201C96.2801 67.2901 96.1501 66.68 96.0201 66.08C95.8901 65.48 95.6201 64.59 95.4101 63.79C94.7434 61.3967 94.1434 59.0167 93.6101 56.65C92.5968 59.5634 91.4768 62.4 90.2501 65.16C90.0501 65.64 89.8401 66.16 89.6501 66.63L89.1401 67.88C88.9301 68.29 88.7401 68.71 88.5701 69.13V69.1701Z" fill="black"/>
<path d="M113.65 49.21C113.93 49.21 114.09 49.27 114.15 49.41C114.182 49.4877 114.199 49.571 114.199 49.655C114.199 49.7391 114.182 49.8224 114.15 49.9C114.09 50.09 114.02 50.25 113.96 50.4C113.957 50.4233 113.957 50.4468 113.96 50.47C113.538 51.7922 113.243 53.1517 113.08 54.53C112.87 56.11 112.71 57.72 112.59 59.36C113.584 58.495 114.504 57.5484 115.34 56.53C115.86 55.83 116.51 54.86 117.28 53.62C117.75 52.88 118.19 52.1901 118.6 51.5701C118.905 51.1061 119.239 50.6619 119.6 50.24C120.28 49.7682 121.067 49.4727 121.89 49.3801C122.814 49.239 123.746 49.1555 124.68 49.1301H125.44C125.71 49.0201 125.88 49.04 125.94 49.19C126.004 49.3747 126.004 49.5754 125.94 49.7601C125.872 49.9941 125.792 50.2244 125.7 50.4501C125.6 50.6601 125.54 50.7901 125.5 50.8501C124.639 52.3784 123.674 53.8453 122.61 55.24C121.61 56.54 120.483 57.8734 119.23 59.24L119.72 60.47C120.28 61.88 120.82 63.21 121.35 64.47C121.88 65.73 122.54 67.1 123.35 68.66C124.017 69.7467 124.817 70.9767 125.75 72.3501C126.605 73.5727 127.527 74.7477 128.51 75.87C128.683 75.9555 128.834 76.0792 128.951 76.2316C129.069 76.3841 129.151 76.5614 129.19 76.75C129.215 76.9454 129.194 77.1438 129.13 77.33C129.067 77.5939 128.99 77.8543 128.9 78.11C128.835 78.3123 128.754 78.5095 128.66 78.7001C128.3 78.9301 127.74 78.88 126.98 78.53C126.181 78.1573 125.429 77.6907 124.74 77.1401C124.134 76.683 123.583 76.156 123.1 75.5701C122.16 74.0434 121.203 72.5267 120.23 71.02C119.85 70.5 119.32 69.71 118.63 68.65C117.94 67.59 117.3 66.53 116.71 65.49C116.245 64.7732 115.907 63.9816 115.71 63.15L115.15 63.74C114.68 64.25 114.15 64.74 113.6 65.31C113.215 65.7366 112.745 66.0773 112.22 66.31C112.22 69 112.22 71.7001 112.34 74.3901C112.34 74.9501 112.34 75.5 112.39 76.03C112.488 76.2475 112.533 76.4853 112.521 76.7235C112.509 76.9618 112.44 77.1937 112.32 77.4C112.062 77.6422 111.732 77.7932 111.38 77.83C111.011 77.9018 110.635 77.9287 110.26 77.91C109.613 77.5352 109.133 76.927 108.92 76.21C108.544 75.2909 108.263 74.336 108.08 73.36C107.92 72.6598 107.82 71.9472 107.78 71.2301C107.86 70.0701 107.91 68.8801 107.92 67.6701C107.93 66.4601 107.92 65.28 107.92 64.12C107.84 62.22 107.807 60.1234 107.82 57.83C107.818 55.7959 107.988 53.7653 108.33 51.7601C108.518 51.2799 108.802 50.8432 109.165 50.4769C109.528 50.1106 109.962 49.8224 110.44 49.6301C111.451 49.1986 112.562 49.0533 113.65 49.21Z" fill="black"/>
<path d="M138.61 49.24C138.82 49.17 138.96 49.18 139.03 49.24C139.108 49.3833 139.137 49.5488 139.11 49.71C139.09 49.9307 139.046 50.1486 138.98 50.36C138.92 50.58 138.86 50.77 138.8 50.93C138.769 51.0223 138.732 51.1125 138.69 51.2C138.278 52.5868 137.944 53.9957 137.69 55.42C137.283 57.4481 136.996 59.4983 136.83 61.56C136.639 63.6144 136.676 65.6837 136.94 67.73C137.072 69.3333 137.729 70.8483 138.81 72.04C139.59 72.7091 140.494 73.2187 141.47 73.54C142.394 73.859 143.362 74.0311 144.34 74.05C145.56 74.05 146.34 73.9 146.55 73.47C146.852 72.7716 146.946 72.0006 146.82 71.25C146.82 70.71 146.82 70.05 146.82 69.25C146.99 67.2 147.08 65.11 147.09 63C147.095 62.9201 147.095 62.84 147.09 62.76C147 61.13 146.94 59.38 146.9 57.51C146.852 55.8405 146.922 54.1697 147.11 52.51C147.434 51.5263 148.101 50.692 148.99 50.16C149.897 49.6139 150.886 49.2187 151.92 48.99C152.12 48.86 152.27 48.86 152.35 48.99C152.449 49.1628 152.494 49.3613 152.48 49.56C152.481 49.7914 152.461 50.0223 152.42 50.25C152.42 50.47 152.36 50.61 152.35 50.66C151.97 53.42 151.72 56.31 151.6 59.31C151.54 60.54 151.47 61.73 151.39 62.89C151.31 65.1834 151.27 67.5167 151.27 69.89C151.27 71.48 151.27 73.05 151.27 74.6C151.429 75.2237 151.346 75.8842 151.04 76.45C150.83 76.796 150.514 77.0658 150.14 77.22C149.766 77.4167 149.365 77.5582 148.95 77.64C148.735 77.5022 148.581 77.2876 148.52 77.04C147.353 77.6841 146.06 78.0663 144.73 78.16C143.299 78.2835 141.859 78.0924 140.51 77.6C139.726 77.2892 138.978 76.8936 138.28 76.42C137.558 75.9497 136.872 75.4248 136.23 74.85C134.977 73.5676 134.036 72.0142 133.48 70.31C132.888 68.5608 132.502 66.7486 132.33 64.91C132.168 63.3188 132.108 61.7189 132.15 60.12C132.182 57.8869 132.436 55.6626 132.91 53.48C133.309 52.2728 134.07 51.2179 135.09 50.4592C136.11 49.7004 137.339 49.2747 138.61 49.24Z" fill="black"/>
<path d="M158.24 49.3201C158.4 49.1101 158.54 49.06 158.67 49.16C158.82 49.2824 158.931 49.4457 158.99 49.63C159.08 49.86 159.14 50.03 159.18 50.16C159.646 51.4154 160.236 52.6214 160.94 53.7601C161.68 54.9701 162.43 56.1101 163.18 57.1701L163.28 57.33C164.569 58.9846 165.944 60.5701 167.4 62.08C167.73 60.2 168.14 58.24 168.65 56.19C169.084 54.3533 169.701 52.5644 170.49 50.85C171.112 49.9853 172.05 49.3999 173.1 49.22C174.257 49.0411 175.44 49.2337 176.48 49.77C176.73 49.85 176.87 49.95 176.9 50.06C176.918 50.1235 176.921 50.1905 176.907 50.2551C176.893 50.3197 176.863 50.3798 176.82 50.43C176.722 50.5573 176.615 50.6777 176.5 50.7901L176.37 50.9201C175.161 52.778 174.222 54.7981 173.58 56.9201C172.76 59.4201 172.093 61.6067 171.58 63.4801C170.582 67.6426 169.851 71.8645 169.39 76.12C169.482 76.6227 169.378 77.1415 169.1 77.5701C168.854 77.8284 168.525 77.9914 168.17 78.03C167.809 78.1113 167.44 78.1582 167.07 78.1701C166.751 77.9368 166.487 77.6372 166.295 77.2919C166.104 76.9466 165.989 76.5639 165.96 76.1701C165.72 75.0958 165.586 74.0005 165.56 72.9C165.515 72.0831 165.535 71.2638 165.62 70.4501C165.99 68.9001 166.34 67.33 166.68 65.74C165.99 65.3848 165.322 64.9874 164.68 64.55C164.199 64.236 163.756 63.8669 163.36 63.4501C162.6 62.4501 161.8 61.4501 160.96 60.4501C160.841 60.2935 160.714 60.1433 160.58 60C159.76 59.14 158.93 58.18 158.07 57.12C157.298 56.1516 156.628 55.1061 156.07 54C155.872 53.0853 156.033 52.1294 156.52 51.33C156.982 50.5725 157.563 49.8939 158.24 49.3201Z" fill="black"/>
<path d="M194.51 48.1701C194.66 48.0101 194.82 48.0201 195 48.1701C195.215 48.3891 195.397 48.6384 195.54 48.91C195.71 49.2353 195.864 49.5691 196 49.91C196.13 50.23 196.22 50.48 196.27 50.65C197.632 55.3268 198.635 60.1007 199.27 64.93C199.27 65.08 199.33 65.2501 199.37 65.4201C199.55 66.4201 199.76 67.42 199.99 68.56L200.46 68.68C200.764 68.8133 201.041 68.9996 201.28 69.23C201.555 69.4866 201.809 69.7641 202.04 70.06C202.21 70.2738 202.367 70.4975 202.51 70.73C202.51 70.85 202.51 70.99 202.28 71.15C202.06 71.3227 201.826 71.4765 201.58 71.61C201.32 71.75 201.09 71.86 200.91 71.94L200.79 72C201.121 73.4396 201.545 74.8559 202.06 76.24C202.2 76.4066 202.305 76.5995 202.368 76.8074C202.432 77.0153 202.453 77.2339 202.43 77.4501C202.374 77.5952 202.285 77.7253 202.17 77.83C202.02 77.99 201.85 78.16 201.66 78.33L201.18 78.74C201.145 78.7763 201.105 78.8066 201.06 78.83C200.54 78.94 199.98 78.67 199.38 78.03C198.74 77.3331 198.183 76.5647 197.72 75.74C197.285 74.9895 196.907 74.2073 196.59 73.4H196.51C195.137 73.3264 193.76 73.3532 192.39 73.48C191.88 73.57 191.16 73.69 190.2 73.83C189.24 73.97 188.31 74.0901 187.37 74.1701C186.67 74.2618 185.96 74.2618 185.26 74.1701L184.99 74.6401C184.86 74.8701 184.72 75.1 184.58 75.32C184.397 76.0764 183.945 76.7407 183.31 77.19C182.887 77.4683 182.396 77.6241 181.89 77.6401C181.36 77.7001 180.823 77.6764 180.3 77.57C180.163 76.8252 180.218 76.0576 180.46 75.34C180.72 74.14 181.04 72.91 181.46 71.65C180.816 71.0395 180.208 70.3917 179.64 69.71C179.4 69.54 179.32 69.41 179.39 69.31C179.449 69.25 179.519 69.2023 179.596 69.1697C179.673 69.137 179.756 69.1202 179.84 69.12C180.089 69.0881 180.339 69.0714 180.59 69.07H181.16H181.24C181.58 69.07 181.93 69.07 182.3 69.07C182.61 68.2755 182.988 67.5093 183.43 66.78C183.963 65.8927 184.415 64.9589 184.78 63.99C185.06 63.13 185.48 61.8 186.03 59.99C186.58 58.18 187.03 56.69 187.55 55.1C188.07 53.51 188.45 52.41 188.72 51.8C189.118 51.0007 189.709 50.3133 190.44 49.8C191.041 49.4356 191.691 49.1595 192.37 48.98C193.107 48.7779 193.824 48.5067 194.51 48.1701ZM187.68 69.1701C188.68 69.1701 189.6 69.1701 190.55 69.1701C191.77 69.1701 193.03 69.0601 194.32 68.9501L195.72 68.83C195.66 68.53 195.59 68.2301 195.51 67.9201C195.38 67.2901 195.25 66.68 195.12 66.08C194.99 65.48 194.72 64.59 194.51 63.79C193.843 61.3967 193.243 59.0167 192.71 56.65C191.703 59.5634 190.587 62.4 189.36 65.16C189.15 65.64 188.95 66.16 188.75 66.63L188.24 67.88C188.031 68.2862 187.844 68.7035 187.68 69.13V69.1701Z" fill="black"/>
<path d="M213.93 71C214.29 71 214.49 71.06 214.52 71.19C214.525 71.2829 214.51 71.3757 214.475 71.4621C214.441 71.5484 214.388 71.6262 214.32 71.69C213.955 72.1039 213.658 72.5731 213.44 73.08C213.2 73.61 212.99 74.14 212.79 74.67C212.73 74.86 212.66 75.03 212.6 75.2C212.501 75.7239 212.46 76.2572 212.48 76.79C212.48 77.45 212.48 78 212.56 78.44C212.68 78.56 212.72 78.66 212.69 78.73C212.639 78.8093 212.566 78.8719 212.48 78.91C212.281 78.9811 212.071 79.0183 211.86 79.02H210.91C210.59 79.02 210.35 79.02 210.2 79.02C209.773 78.9415 209.379 78.7359 209.07 78.43C208.6 78.0565 208.171 77.6341 207.79 77.17C207.43 76.72 207.27 76.39 207.32 76.17C207.509 75.5465 207.617 74.9011 207.64 74.25C207.585 73.678 207.585 73.102 207.64 72.53C207.66 71.9614 207.832 71.4086 208.14 70.93C208.965 70.6151 209.855 70.512 210.73 70.63C211.89 70.72 212.89 70.82 213.73 70.95L213.93 71Z" fill="black"/>
<path d="M233.3 53.4C231.338 52.9473 229.433 52.2764 227.62 51.4C227.03 51.27 227.08 51.04 227.76 50.72C228.815 50.273 229.915 49.9378 231.04 49.72C232.689 49.3768 234.36 49.1429 236.04 49.02C237.857 48.8769 239.684 48.9305 241.49 49.18C244.87 49.7 247.293 50.98 248.76 53.02C250.264 55.2182 250.859 57.9131 250.42 60.5401C250.201 62.1673 249.432 63.6706 248.24 64.8C247.048 65.9164 245.634 66.7684 244.09 67.3C243.008 67.6882 241.898 67.9924 240.77 68.21C239.6 68.4511 238.396 68.4681 237.22 68.2601C236.901 68.1707 236.592 68.0466 236.3 67.8901C236.19 70.7467 236.227 73.6071 236.41 76.46C236.517 76.6047 236.575 76.78 236.575 76.96C236.575 77.1401 236.517 77.3154 236.41 77.46C236.288 77.571 236.14 77.65 235.98 77.69C235.741 77.7732 235.497 77.8433 235.25 77.9L234.64 78.0401H234.58C234.352 78.0296 234.13 77.964 233.934 77.8491C233.737 77.7341 233.571 77.5732 233.45 77.38C233.083 76.8887 232.79 76.3463 232.58 75.77C232.346 75.1696 232.162 74.5509 232.03 73.9201C231.923 73.4535 231.86 72.9782 231.84 72.5C231.99 70.5 232.07 68.5 232.1 66.5V66.4C232.1 66.17 232.1 65.93 232.1 65.68C232.03 64.04 231.99 62.2901 231.95 60.4501C231.915 58.7819 231.965 57.1131 232.1 55.4501C232.308 54.671 232.722 53.9626 233.3 53.4ZM236.5 65.2001C237.69 64.8801 239 64.45 240.44 63.91C241.796 63.407 243.082 62.7351 244.27 61.91C244.771 61.6164 245.206 61.2238 245.55 60.7561C245.894 60.2884 246.139 59.7556 246.27 59.19C246.362 58.4964 246.362 57.7937 246.27 57.1C246.193 56.3498 245.87 55.6462 245.35 55.1C244.727 54.5873 243.984 54.243 243.19 54.1C242.275 53.9091 241.344 53.8053 240.41 53.7901C239.41 53.7901 238.59 53.7901 237.83 53.7901C237.55 53.7901 237.29 53.7901 237.07 53.7901C236.95 57.6234 236.76 61.4267 236.5 65.2001Z" fill="black"/>
<path d="M263.34 53.64H262.62C261.89 53.64 261.1 53.64 260.24 53.64C259.427 53.6117 258.619 53.4978 257.83 53.3C257.147 53.0652 256.513 52.7058 255.96 52.24C255.513 51.913 255.128 51.5102 254.82 51.05C255.181 50.6315 255.647 50.3172 256.17 50.14C256.59 49.9856 257.021 49.8652 257.46 49.78L257.68 49.72C259.252 49.2887 260.864 49.0141 262.49 48.9C263.99 48.81 265.68 48.79 267.54 48.84C269.865 48.921 272.102 49.7486 273.92 51.2C275.589 52.5086 276.826 54.2891 277.47 56.31C278.096 58.2068 277.945 60.2744 277.05 62.06C276.15 63.9 274.3 65.31 271.5 66.29C272.01 67.14 272.5 67.94 272.97 68.67L273.67 69.82C274.923 71.6267 276.33 73.4567 277.89 75.31L278.3 75.82C278.463 75.9125 278.601 76.0441 278.7 76.203C278.8 76.3619 278.858 76.543 278.87 76.73C278.859 76.9274 278.793 77.1178 278.68 77.28C278.556 77.494 278.416 77.698 278.26 77.89C278.139 78.0473 278.008 78.1975 277.87 78.34C277.373 78.4496 276.853 78.3712 276.41 78.12C275.758 77.8322 275.138 77.477 274.56 77.06C274.065 76.7172 273.615 76.3141 273.22 75.86C272.472 74.633 271.644 73.4571 270.74 72.34C270.59 72.1266 270.426 71.9229 270.25 71.73C269.69 71.07 269.1 70.34 268.49 69.54C267.925 68.8246 267.424 68.0618 266.99 67.26C266.395 67.3578 265.792 67.3913 265.19 67.36C264.549 67.3399 263.914 67.2357 263.3 67.05C263.22 68.35 263.2 69.76 263.22 71.27C263.24 72.6414 263.34 74.0104 263.52 75.37C263.624 75.5715 263.682 75.7935 263.69 76.02C263.69 76.2372 263.656 76.453 263.59 76.66C263.477 76.8257 263.331 76.9655 263.16 77.07C262.94 77.22 262.71 77.37 262.46 77.51L261.88 77.81C261.38 77.69 260.88 77.22 260.43 76.39C259.941 75.5223 259.549 74.6034 259.26 73.65C259.005 72.931 258.847 72.181 258.79 71.42C258.89 70.11 258.96 68.77 259 67.42C259 66.9467 259.02 66.4767 259.06 66.01C259.06 64.5834 259.06 63.0033 259.06 61.27C259.091 59.7386 259.231 58.2114 259.48 56.7C259.804 55.9451 260.339 55.2994 261.02 54.84C261.743 54.3497 262.522 53.9469 263.34 53.64ZM263.67 63.79L264.94 63.46C265.94 63.23 267.03 62.93 268.2 62.57C269.312 62.2435 270.382 61.7905 271.39 61.22C272.237 60.7788 272.92 60.0779 273.34 59.22C273.511 58.8183 273.598 58.3864 273.598 57.95C273.598 57.5136 273.511 57.0817 273.34 56.68C272.968 55.8031 272.345 55.0553 271.55 54.53C270.687 53.9358 269.658 53.6279 268.61 53.65H266.74H264.88C264.905 53.876 264.905 54.104 264.88 54.33C264.88 54.57 264.88 54.75 264.88 54.88C264.88 55.01 264.88 55 264.88 55.01C264.533 57.25 264.23 59.5367 263.97 61.87L263.67 63.79Z" fill="black"/>
<path d="M292.15 51.9201C292.363 52.0601 292.443 52.17 292.39 52.25C292.337 52.33 292.217 52.39 292.03 52.43C291.84 52.43 291.61 52.5 291.37 52.53C291.054 52.5591 290.74 52.6092 290.43 52.68C290.13 52.7899 289.847 52.9414 289.59 53.13C288.681 53.798 287.953 54.6811 287.47 55.7C286.909 56.8269 286.479 58.0147 286.19 59.24C285.909 60.396 285.725 61.5734 285.64 62.76C285.569 64.1887 285.622 65.6207 285.8 67.04C285.997 68.5211 286.426 69.9619 287.07 71.31C288.09 73.3967 289.6 74.3367 291.6 74.13C293.329 73.9746 294.964 73.2743 296.27 72.13C297.59 70.9528 298.617 69.4839 299.27 67.84C299.968 66.1046 300.354 64.2597 300.41 62.3901C300.489 60.5343 300.224 58.6798 299.63 56.92C299.126 55.3178 298.171 53.8944 296.88 52.82C296.378 52.3303 295.813 51.9099 295.2 51.57C294.3 50.9567 293.56 50.4967 292.98 50.19C292.4 49.89 291.62 49.53 290.65 49.13C290.78 48.84 291.2 48.67 291.92 48.62C292.672 48.5605 293.428 48.5605 294.18 48.62C294.764 48.6612 295.345 48.7347 295.92 48.84C297.663 49.3937 299.241 50.3732 300.51 51.69C302.165 53.4489 303.396 55.5627 304.11 57.87C304.833 59.9834 305.096 62.2269 304.88 64.45C304.608 66.789 303.931 69.0629 302.88 71.17C301.862 73.2164 300.345 74.9737 298.47 76.28C297.407 77.0259 296.237 77.6059 295 78C293.709 78.4146 292.353 78.5842 291 78.5C289.585 78.4077 288.213 77.9755 287 77.24C285.325 76.2108 283.946 74.7634 283 73.04C282.026 71.2765 281.35 69.364 281 67.38C280.643 65.4014 280.518 63.3876 280.63 61.38C280.711 59.6519 281.014 57.9413 281.53 56.29C282.025 54.5473 283.079 53.0155 284.53 51.93C285.11 51.4363 285.769 51.0441 286.48 50.77C287.23 50.4902 288.03 50.3676 288.83 50.41C289.424 50.446 290.008 50.5776 290.56 50.8C291.179 51.0279 291.727 51.4141 292.15 51.9201Z" fill="black"/>
<path d="M325.8 55C325.8 55.19 325.8 55.29 325.64 55.3C325.485 55.2964 325.334 55.244 325.21 55.15C325.05 55.05 324.88 54.95 324.73 54.84C324.633 54.757 324.525 54.6864 324.41 54.63C323.325 54.0146 322.135 53.6076 320.9 53.43C319.755 53.2383 318.585 53.2383 317.44 53.43C316.36 53.67 315.79 54.02 315.74 54.48C315.746 54.7747 315.815 55.0647 315.943 55.3303C316.071 55.596 316.254 55.8312 316.48 56.02C317.073 56.6277 317.707 57.1925 318.38 57.71C319.93 58.97 321.38 60.31 322.83 61.71C324.248 63.1146 325.512 64.6667 326.6 66.34C327.376 67.5327 328.004 68.8155 328.47 70.16C328.922 71.4444 329.011 72.828 328.73 74.16C328.567 74.8581 328.265 75.5163 327.843 76.0952C327.42 76.6742 326.885 77.1622 326.27 77.53C324.92 78.2976 323.402 78.7202 321.85 78.76C320.101 78.826 318.354 78.5995 316.68 78.09C314.99 77.6034 313.397 76.8287 311.97 75.8C311.377 75.3783 310.822 74.9066 310.31 74.39C309.794 73.8861 309.341 73.3221 308.96 72.71C308.317 71.5838 308.014 70.2949 308.09 69C308.18 68.149 308.553 67.3529 309.15 66.74C309.725 66.1203 310.428 65.6325 311.21 65.31C311.239 65.472 311.239 65.638 311.21 65.8C311.21 66.08 311.21 66.44 311.15 66.85C311.09 67.26 311.15 67.77 311.09 68.19C311.072 68.4998 311.072 68.8103 311.09 69.12C311.214 69.9286 311.56 70.6869 312.09 71.31C313.093 72.4262 314.4 73.2256 315.85 73.61C317.237 73.9987 318.662 74.2334 320.1 74.31C320.847 74.3919 321.603 74.3582 322.34 74.21C323.018 74.0863 323.632 73.7332 324.08 73.21C324.3 72.9045 324.444 72.5514 324.501 72.1795C324.559 71.8077 324.527 71.4275 324.41 71.07C323.982 69.7337 323.28 68.501 322.35 67.45C321.327 66.213 320.206 65.0594 319 64C317.77 62.92 316.7 62 315.77 61.31C314.337 60.2572 313.073 58.9928 312.02 57.56C310.73 55.56 310.35 53.82 310.89 52.23C311.203 51.4046 311.714 50.6689 312.378 50.0881C313.043 49.5073 313.84 49.0992 314.7 48.9C316.586 48.4798 318.555 48.6366 320.35 49.35C322.257 49.9921 323.92 51.2075 325.11 52.83C325.313 53.1679 325.487 53.5226 325.63 53.89C325.785 54.2383 325.843 54.6215 325.8 55Z" fill="black"/>
<path d="M334.63 54.13C333.87 53.5696 333.242 52.8494 332.79 52.02C332.25 51.08 331.82 50.26 331.5 49.56C331.3 49.23 331.26 49.04 331.39 48.99C331.598 48.9435 331.815 48.9645 332.01 49.05C332.9 49.2579 333.807 49.3884 334.72 49.44C335.72 49.5 336.72 49.54 337.72 49.56H339.05C340 49.56 341.05 49.56 342.05 49.46L345.22 49.24C346.29 49.17 347.32 49.1 348.31 49.05C350.003 48.67 351.493 49.3067 352.78 50.96C352.69 51.27 352.15 51.64 351.16 52.06C350.125 52.4867 349.067 52.854 347.99 53.16C347.211 53.4053 346.411 53.5794 345.6 53.68H344.42C343.62 53.68 342.87 53.68 342.18 53.68C341.37 53.7127 340.562 53.7895 339.76 53.91C339.47 56.01 339.23 58.12 339.03 60.26C339.68 60.31 340.33 60.38 341.03 60.45C342.461 60.4882 343.894 60.4448 345.32 60.32L347.02 60.22C347.2 60.1375 347.398 60.1016 347.595 60.1156C347.793 60.1295 347.984 60.193 348.15 60.3C348.496 60.5302 348.786 60.8342 349 61.19C349.253 61.5331 349.48 61.894 349.68 62.27C349.68 62.5633 349.42 62.8967 348.9 63.27C348.374 63.6577 347.812 63.9927 347.22 64.27C346.768 64.5262 346.267 64.683 345.75 64.73C344.55 64.66 343.64 64.64 343 64.66C342.36 64.68 341.82 64.72 341.38 64.77L340.23 64.87C339.82 64.87 339.3 64.87 338.66 64.87C338.542 67.1338 338.589 69.4031 338.8 71.66C338.882 71.8218 338.93 71.9989 338.94 72.18C338.937 72.3371 338.888 72.4898 338.8 72.62L338.52 72.79C338.365 72.868 338.205 72.9348 338.04 72.99L341.65 73.13C341.89 73.13 342.12 73.13 342.35 73.13C343.58 73.13 344.94 73.08 346.46 72.95C347.98 72.82 349.32 72.65 350.52 72.44C350.656 72.3338 350.823 72.276 350.995 72.276C351.167 72.276 351.335 72.3338 351.47 72.44C351.704 72.5872 351.905 72.7813 352.06 73.01C352.3 73.31 352.51 73.6 352.71 73.87C352.91 74.14 352.89 74.12 352.96 74.2C353.012 74.4568 352.993 74.7228 352.905 74.9695C352.817 75.2162 352.663 75.4342 352.46 75.6C351.981 76.0715 351.423 76.4541 350.81 76.73C350.291 76.999 349.73 77.175 349.15 77.25C347.8 77.25 346.44 77.25 345.07 77.35L344.15 77.41C342.98 77.54 341.6 77.65 340.02 77.74C338.636 77.8357 337.245 77.7888 335.87 77.6C334.903 77.1849 334.084 76.4879 333.52 75.6C332.932 74.7838 332.423 73.9132 332 73C331.86 72.73 331.82 72.57 331.89 72.5C331.944 72.4602 332.006 72.4332 332.072 72.4211C332.138 72.4089 332.206 72.412 332.27 72.43C332.451 72.4591 332.628 72.506 332.8 72.57C333.855 72.7877 334.925 72.9313 336 73C335.356 72.2808 334.881 71.4266 334.61 70.5C334.318 69.7196 334.139 68.9012 334.08 68.07C334.08 67.96 334.08 67.75 334.08 67.45C334.08 66.93 334.17 66.31 334.22 65.58C334.27 64.85 334.31 64.2 334.33 63.58C334.364 63.2475 334.364 62.9125 334.33 62.58C333.787 61.7722 333.296 60.9305 332.86 60.06C332.68 59.77 332.66 59.59 332.79 59.53C332.992 59.4643 333.209 59.4643 333.41 59.53C333.68 59.58 333.94 59.63 334.19 59.7H334.29C334.29 58.7 334.29 57.7 334.34 56.75C334.381 55.8714 334.477 54.9962 334.63 54.13Z" fill="black"/>
<path d="M362.48 49.21C362.75 49.21 362.92 49.27 362.98 49.41C363.04 49.5679 363.04 49.7422 362.98 49.9C362.91 50.09 362.85 50.25 362.78 50.4C362.783 50.4233 362.783 50.4468 362.78 50.47C362.361 51.7926 362.07 53.1521 361.91 54.53C361.7 56.11 361.53 57.72 361.42 59.36C362.414 58.495 363.334 57.5484 364.17 56.53C364.69 55.83 365.34 54.86 366.1 53.62C366.57 52.88 367.02 52.1901 367.43 51.5701C367.735 51.1061 368.069 50.6619 368.43 50.24C369.106 49.7671 369.89 49.4714 370.71 49.3801C371.637 49.239 372.572 49.1555 373.51 49.1301H374.27C374.54 49.0201 374.71 49.04 374.77 49.19C374.834 49.3747 374.834 49.5754 374.77 49.7601C374.699 49.9943 374.615 50.2246 374.52 50.4501C374.466 50.5877 374.402 50.7213 374.33 50.8501C373.466 52.3763 372.5 53.8429 371.44 55.24C370.44 56.54 369.31 57.88 368.06 59.24L368.55 60.47C369.11 61.88 369.65 63.21 370.18 64.47C370.71 65.73 371.37 67.1 372.18 68.66C372.847 69.7467 373.647 70.9767 374.58 72.3501C375.432 73.575 376.354 74.7503 377.34 75.87C377.513 75.9555 377.663 76.0792 377.781 76.2316C377.899 76.3841 377.981 76.5614 378.02 76.75C378.044 76.9454 378.024 77.1438 377.96 77.33C377.897 77.5939 377.82 77.8543 377.73 78.11C377.664 78.3123 377.584 78.5095 377.49 78.7001C377.13 78.9301 376.57 78.88 375.81 78.53C375.011 78.1573 374.259 77.6907 373.57 77.1401C372.961 76.6857 372.41 76.1585 371.93 75.5701C370.99 74.0434 370.03 72.5267 369.05 71.02C368.68 70.5 368.14 69.71 367.45 68.65C366.76 67.59 366.13 66.53 365.54 65.49C365.066 64.7777 364.727 63.9846 364.54 63.15L363.98 63.74C363.51 64.25 362.98 64.74 362.43 65.31C362.043 65.7344 361.574 66.0748 361.05 66.31C361.05 69 361.05 71.7001 361.16 74.3901C361.16 74.9501 361.21 75.5 361.22 76.03C361.319 76.2477 361.363 76.4862 361.35 76.725C361.336 76.9637 361.264 77.1954 361.14 77.4C360.887 77.644 360.559 77.7955 360.21 77.83C359.841 77.9016 359.465 77.9284 359.09 77.91C358.443 77.5352 357.963 76.927 357.75 76.21C357.374 75.2909 357.093 74.336 356.91 73.36C356.75 72.6598 356.65 71.9472 356.61 71.2301C356.69 70.0701 356.74 68.8801 356.75 67.6701C356.76 66.4601 356.75 65.28 356.75 64.12C356.67 62.22 356.637 60.1234 356.65 57.83C356.637 55.7955 356.808 53.764 357.16 51.7601C357.348 51.2799 357.632 50.8432 357.995 50.4769C358.358 50.1106 358.791 49.8224 359.27 49.6301C360.281 49.1986 361.392 49.0533 362.48 49.21Z" fill="black"/>
<path d="M386.91 49.21C387.19 49.21 387.35 49.27 387.41 49.41C387.442 49.4877 387.459 49.571 387.459 49.655C387.459 49.7391 387.442 49.8224 387.41 49.9C387.35 50.09 387.28 50.25 387.22 50.4C387.217 50.4233 387.217 50.4468 387.22 50.47C386.798 51.7922 386.503 53.1517 386.34 54.53C386.13 56.11 385.97 57.72 385.85 59.36C386.846 58.4976 387.767 57.5507 388.6 56.53C389.13 55.83 389.77 54.86 390.54 53.62C391.01 52.88 391.45 52.1901 391.87 51.5701C392.172 51.1041 392.506 50.6597 392.87 50.24C393.55 49.7682 394.337 49.4727 395.16 49.3801C396.084 49.239 397.016 49.1555 397.95 49.1301H398.71C398.99 49.0201 399.15 49.04 399.21 49.19C399.274 49.3747 399.274 49.5754 399.21 49.7601C399.142 49.9941 399.062 50.2244 398.97 50.4501C398.914 50.5885 398.847 50.7223 398.77 50.8501C397.909 52.3784 396.944 53.8453 395.88 55.24C394.88 56.54 393.753 57.8734 392.5 59.24L392.99 60.47C393.55 61.88 394.09 63.21 394.62 64.47C395.15 65.73 395.82 67.1 396.62 68.66C397.287 69.7467 398.09 70.9767 399.03 72.3501C399.879 73.5747 400.797 74.7499 401.78 75.87C401.953 75.9555 402.104 76.0792 402.222 76.2316C402.339 76.3841 402.421 76.5614 402.46 76.75C402.485 76.9454 402.464 77.1438 402.4 77.33C402.337 77.5939 402.261 77.8543 402.17 78.11C402.08 78.37 402 78.5701 401.94 78.7001C401.667 78.8104 401.372 78.8526 401.079 78.823C400.786 78.7933 400.505 78.6928 400.26 78.53C399.456 78.1598 398.701 77.6931 398.01 77.1401C397.404 76.683 396.853 76.156 396.37 75.5701C395.43 74.0401 394.48 72.52 393.5 71.02C393.12 70.5 392.59 69.71 391.9 68.65C391.21 67.59 390.57 66.53 389.98 65.49C389.527 64.7729 389.205 63.9804 389.03 63.15C388.88 63.3 388.69 63.49 388.46 63.74C387.99 64.25 387.46 64.74 386.92 65.31C386.53 65.7353 386.057 66.0757 385.53 66.31C385.53 69 385.53 71.7001 385.65 74.3901C385.65 74.9501 385.65 75.5 385.71 76.03C385.804 76.2489 385.846 76.4867 385.832 76.7245C385.818 76.9624 385.749 77.1937 385.63 77.4C385.372 77.6422 385.042 77.7932 384.69 77.83C384.325 77.9017 383.952 77.9286 383.58 77.91C382.927 77.5395 382.443 76.9301 382.23 76.21C381.854 75.2909 381.573 74.336 381.39 73.36C381.232 72.6597 381.135 71.9471 381.1 71.2301C381.17 70.0701 381.22 68.8801 381.23 67.6701C381.24 66.4601 381.23 65.28 381.23 64.12C381.15 62.22 381.117 60.1234 381.13 57.83C381.128 55.7959 381.298 53.7653 381.64 51.7601C381.829 51.2808 382.114 50.8449 382.477 50.4788C382.839 50.1127 383.273 49.8239 383.75 49.6301C384.746 49.2077 385.838 49.0625 386.91 49.21Z" fill="black"/>
<path d="M416.5 51.92C416.71 52.06 416.79 52.17 416.75 52.25C416.657 52.3534 416.529 52.4177 416.39 52.43C416.19 52.43 415.97 52.5 415.72 52.53C415.407 52.5591 415.096 52.6092 414.79 52.68C414.49 52.7898 414.208 52.9413 413.95 53.13C413.042 53.798 412.313 54.6811 411.83 55.7C411.264 56.825 410.835 58.0134 410.55 59.24C410.269 60.396 410.085 61.5734 410 62.76C409.919 64.1886 409.972 65.6216 410.16 67.04C410.353 68.522 410.782 69.9636 411.43 71.31C412.437 73.3967 413.947 74.3367 415.96 74.13C417.689 73.9725 419.323 73.2725 420.63 72.13C421.951 70.9533 422.978 69.4842 423.63 67.84C424.331 66.1052 424.72 64.2602 424.78 62.39C424.849 60.5347 424.585 58.6821 424 56.92C423.498 55.3143 422.539 53.8896 421.24 52.82C420.74 52.328 420.175 51.9074 419.56 51.57C418.66 50.9567 417.92 50.4967 417.34 50.19C416.77 49.89 415.99 49.53 415.01 49.13C415.14 48.84 415.56 48.67 416.28 48.62C417.036 48.5605 417.795 48.5605 418.55 48.62C419.13 48.6604 419.708 48.7338 420.28 48.84C422.023 49.3937 423.601 50.3732 424.87 51.69C426.44 53.4001 427.64 55.4164 428.394 57.6122C429.147 59.8081 429.439 62.1361 429.25 64.45C428.973 66.788 428.297 69.0611 427.25 71.17C426.225 73.2147 424.706 74.9711 422.83 76.28C421.799 76.9919 420.666 77.5448 419.47 77.92C418.199 78.3284 416.863 78.4979 415.53 78.42C414.114 78.3305 412.742 77.8981 411.53 77.16C409.853 76.1326 408.475 74.6847 407.53 72.96C406.551 71.1986 405.875 69.2853 405.53 67.3C405.168 65.322 405.043 63.3076 405.16 61.3C405.242 59.5719 405.544 57.8613 406.06 56.21C406.551 54.4651 407.606 52.9318 409.06 51.85C409.657 51.3543 410.333 50.9621 411.06 50.69C411.807 50.411 412.604 50.2884 413.4 50.33C413.997 50.3671 414.584 50.4987 415.14 50.72C415.685 51.0024 416.152 51.4145 416.5 51.92Z" fill="black"/>
<path d="M440.33 71C440.7 71 440.9 71.06 440.93 71.19C440.96 71.32 440.93 71.48 440.72 71.69C440.362 72.109 440.065 72.577 439.84 73.08C439.61 73.61 439.39 74.14 439.2 74.67C439.13 74.86 439.07 75.03 439 75.2C438.9 75.7237 438.863 76.2575 438.89 76.79C438.89 77.45 438.89 78 438.96 78.44C439.08 78.56 439.12 78.66 439.09 78.73C439.046 78.8113 438.975 78.8749 438.89 78.91C438.687 78.9803 438.475 79.0174 438.26 79.02H437.26C436.95 79.02 436.71 79.02 436.55 79.02C436.127 78.9385 435.737 78.7331 435.43 78.43C434.957 78.0594 434.528 77.6368 434.15 77.17C433.78 76.72 433.63 76.39 433.68 76.17C433.866 75.5461 433.97 74.9007 433.99 74.25C433.945 73.6776 433.945 73.1025 433.99 72.53C434.019 71.963 434.191 71.4125 434.49 70.93C435.318 70.6151 436.212 70.512 437.09 70.63C438.25 70.72 439.25 70.82 440.09 70.95L440.33 71Z" fill="black"/>
<path d="M18.7099 110C18.7099 110.19 18.7099 110.29 18.5499 110.3C18.3972 110.298 18.2494 110.245 18.1299 110.15C17.9599 110.05 17.7899 109.95 17.6399 109.84C17.5424 109.757 17.4349 109.686 17.3199 109.63C16.235 109.015 15.0445 108.608 13.8099 108.43C12.6645 108.238 11.4953 108.238 10.3499 108.43C9.26989 108.67 8.69989 109.02 8.64989 109.48C8.65589 109.775 8.72505 110.065 8.85271 110.33C8.98037 110.596 9.16355 110.831 9.38989 111.02C9.98234 111.628 10.6173 112.192 11.2899 112.71C12.8399 113.97 14.2899 115.31 15.7399 116.71C17.158 118.115 18.4218 119.667 19.5099 121.34C20.286 122.533 20.9139 123.816 21.3799 125.16C21.8314 126.444 21.9213 127.828 21.6399 129.16C21.477 129.858 21.1753 130.516 20.7527 131.095C20.33 131.674 19.7951 132.162 19.1799 132.53C17.8308 133.299 16.3122 133.721 14.7599 133.76C13.0113 133.826 11.2639 133.6 9.58989 133.09C7.8998 132.603 6.3064 131.829 4.87989 130.8C4.28726 130.378 3.7319 129.907 3.21989 129.39C2.70451 128.888 2.2543 128.324 1.87989 127.71C1.22905 126.586 0.923028 125.296 0.999893 124C1.08941 123.149 1.4628 122.353 2.05989 121.74C2.63533 121.12 3.33809 120.632 4.1199 120.31C4.14913 120.472 4.14913 120.638 4.1199 120.8C4.1199 121.08 4.11989 121.44 4.05989 121.85C3.99989 122.26 4.05989 122.77 3.99989 123.19C3.98197 123.5 3.98197 123.81 3.99989 124.12C4.12366 124.929 4.46989 125.687 4.99989 126.31C6.00271 127.426 7.30945 128.226 8.7599 128.61C10.1466 128.999 11.5718 129.233 13.0099 129.31C13.7573 129.392 14.5128 129.358 15.2499 129.21C15.9275 129.086 16.5419 128.733 16.9899 128.21C17.2095 127.904 17.3538 127.551 17.4111 127.18C17.4685 126.808 17.4372 126.428 17.3199 126.07C16.8914 124.734 16.1899 123.501 15.2599 122.45C14.2222 121.197 13.0852 120.03 11.8599 118.96C10.6299 117.88 9.55989 116.96 8.62989 116.27C7.19715 115.217 5.93272 113.953 4.87989 112.52C3.58989 110.52 3.20989 108.78 3.74989 107.19C4.0624 106.365 4.57354 105.629 5.23808 105.048C5.90262 104.467 6.70008 104.059 7.55989 103.86C9.44572 103.44 11.4143 103.597 13.2099 104.31C15.1171 104.952 16.7795 106.167 17.9699 107.79C18.173 108.128 18.347 108.483 18.4899 108.85C18.6687 109.205 18.7449 109.604 18.7099 110Z" fill="black"/>
<path d="M31.4801 104.05C31.7501 104.05 31.9101 104.05 31.9701 104.19C32.0055 104.238 32.0293 104.294 32.0398 104.353C32.0502 104.412 32.0468 104.473 32.0301 104.53C31.9986 104.675 31.9516 104.815 31.8901 104.95V105.08C31.4375 106.542 31.1392 108.046 31.0001 109.57C30.7901 111.37 30.6401 113.1 30.5201 114.75C30.4701 115.44 30.4101 116.07 30.3601 116.65C30.1807 120.392 30.2208 124.142 30.4801 127.88C30.577 128.066 30.6317 128.271 30.6401 128.48H31.3201C31.4833 128.49 31.6469 128.49 31.8101 128.48C33.6301 128.48 35.5767 128.39 37.6501 128.21C38.3801 128.14 39.0701 128.09 39.7201 128.05C39.9724 127.94 40.2448 127.883 40.5201 127.883C40.7954 127.883 41.0678 127.94 41.3201 128.05C41.7423 128.226 42.1211 128.492 42.4301 128.83C42.7791 129.165 43.0939 129.533 43.3701 129.93C43.3701 130.21 42.9701 130.56 42.1801 130.98C41.3626 131.411 40.5135 131.778 39.6401 132.08C38.9987 132.339 38.3264 132.514 37.6401 132.6C36.2277 132.525 34.8124 132.525 33.4001 132.6H33.3401C32.5301 132.73 31.5801 132.84 30.4901 132.91C29.5378 132.998 28.5778 132.948 27.6401 132.76C26.8584 132.225 26.2446 131.48 25.8701 130.61C25.4731 129.769 25.1388 128.9 24.8701 128.01C24.7401 127.7 24.7301 127.51 24.8701 127.45C25.0101 127.39 25.1401 127.45 25.4001 127.56C25.9621 127.794 26.5549 127.945 27.1601 128.01C26.763 127.137 26.458 126.226 26.2501 125.29C26.0776 124.595 25.9705 123.885 25.9301 123.17C26.0301 121.45 26.0901 119.7 26.1101 117.93C26.1101 117.49 26.1101 117.05 26.1101 116.6C26.0301 114.98 26.0001 113.13 26.0101 111.07C25.9949 109.29 26.1455 107.512 26.4601 105.76C26.652 105.336 26.9399 104.963 27.3009 104.67C27.6619 104.377 28.0861 104.171 28.5401 104.07C29.5092 103.869 30.5084 103.863 31.4801 104.05Z" fill="black"/>
<path d="M52.68 104.13C52.92 104.04 53.09 104.04 53.17 104.13C53.2149 104.182 53.2479 104.242 53.2669 104.308C53.2859 104.374 53.2904 104.443 53.28 104.51C53.2688 104.666 53.242 104.82 53.2 104.97C52.8983 106.446 52.7244 107.945 52.68 109.45C52.58 111.32 52.53 113.13 52.5 114.89C52.5 115.89 52.5 116.76 52.44 117.49C52.44 119.84 52.44 122.21 52.44 124.6C52.4867 126.64 52.5067 128.67 52.5 130.69C52.5892 130.946 52.6211 131.218 52.5935 131.488C52.5658 131.757 52.4793 132.018 52.34 132.25C52.2122 132.388 52.0577 132.5 51.8859 132.577C51.7141 132.654 51.5284 132.696 51.34 132.7C50.9489 132.759 50.5511 132.759 50.16 132.7C49.5295 132.233 49.0807 131.561 48.89 130.8C48.5389 129.809 48.2778 128.788 48.11 127.75C47.9701 126.991 47.8932 126.222 47.88 125.45C48.02 122.95 48.07 120.45 48.02 117.9C48.02 117.35 47.94 116.74 47.9 116.08C47.79 114.41 47.72 112.66 47.66 110.83C47.6021 109.279 47.6489 107.725 47.8 106.18C47.91 105.833 48.0978 105.516 48.3491 105.252C48.6004 104.989 48.9085 104.786 49.25 104.66C49.9567 104.431 50.6889 104.29 51.43 104.24L52.68 104.13Z" fill="black"/>
<path d="M60.8199 104.21C61.1199 104.05 61.2999 104.03 61.3599 104.21C61.4319 104.405 61.4625 104.613 61.4499 104.82C61.583 106.403 61.8643 107.97 62.2899 109.5C62.7833 111.46 63.2633 113.26 63.7299 114.9L64.1399 116.33C65.0533 119.27 66.1266 122.31 67.3599 125.45C67.4499 124.97 67.5399 124.58 67.6199 124.29C68.4133 122.03 69.1366 119.72 69.7899 117.36C69.7899 117.28 69.7899 117.2 69.8399 117.13C69.9499 116.7 70.0599 116.23 70.1799 115.72C70.5533 114.027 70.9799 112.227 71.4599 110.32C71.8603 108.647 72.3749 107.003 72.9999 105.4C73.3952 104.777 74.0145 104.33 74.7299 104.15C75.4188 103.997 76.125 103.936 76.8299 103.97C77.3692 104.01 77.9107 104.01 78.4499 103.97C78.7166 103.877 78.8766 103.897 78.9299 104.03C78.978 104.19 78.978 104.36 78.9299 104.52C78.8722 104.69 78.7985 104.854 78.7099 105.01C78.0289 106.393 77.4409 107.819 76.9499 109.28C76.3699 110.99 75.8099 112.68 75.2899 114.36C74.9399 115.5 74.6199 116.51 74.2899 117.41C73.5999 119.67 72.9299 121.99 72.2899 124.34C71.8099 126.147 71.3166 127.937 70.8099 129.71C70.8378 129.941 70.8033 130.175 70.7101 130.387C70.6169 130.6 70.4683 130.784 70.2799 130.92C69.8832 131.263 69.5454 131.668 69.2799 132.12C69.0875 132.435 68.8556 132.724 68.5899 132.98C68.3161 133.229 67.96 133.368 67.5899 133.37C67.0799 133.37 66.4899 132.84 65.8299 131.83C65.1371 130.78 64.5222 129.68 63.9899 128.54C63.4299 127.36 63.0599 126.48 62.8599 125.92C62.1933 123.62 61.4433 121.33 60.6099 119.05C60.5499 118.87 60.4799 118.68 60.4199 118.48C59.8333 117 59.1666 115.22 58.4199 113.14C57.7719 111.419 57.2734 109.646 56.9299 107.84C56.9575 107.379 57.0909 106.931 57.3199 106.531C57.5488 106.13 57.8671 105.788 58.2499 105.53C59.0342 104.961 59.9009 104.516 60.8199 104.21Z" fill="black"/>
<path d="M92.4799 106.92C92.6933 107.06 92.7733 107.17 92.7199 107.25C92.6666 107.33 92.5466 107.39 92.3599 107.43C92.1699 107.43 91.9499 107.5 91.6999 107.53C91.3837 107.56 91.0697 107.61 90.7599 107.68C90.4602 107.79 90.1774 107.941 89.9199 108.13C89.014 108.801 88.2861 109.683 87.7999 110.7C87.2386 111.827 86.8091 113.015 86.5199 114.24C86.2371 115.395 86.0564 116.573 85.9799 117.76C85.9003 119.188 85.9506 120.621 86.1299 122.04C86.332 123.52 86.7604 124.96 87.3999 126.31C88.4199 128.397 89.9299 129.337 91.9299 129.13C93.6596 128.977 95.2954 128.276 96.5999 127.13C97.92 125.953 98.9472 124.484 99.5999 122.84C100.302 121.106 100.689 119.26 100.74 117.39C100.819 115.534 100.554 113.68 99.9599 111.92C99.642 111.031 99.2155 110.185 98.6899 109.4C98.2459 108.829 97.7505 108.3 97.2099 107.82C96.7101 107.328 96.1448 106.907 95.5299 106.57C94.6299 105.957 93.8899 105.497 93.3099 105.19C92.7299 104.89 91.9499 104.53 90.9799 104.13C91.1099 103.84 91.5299 103.67 92.2499 103.62C93.0021 103.561 93.7578 103.561 94.5099 103.62C95.0937 103.66 95.6747 103.733 96.2499 103.84C97.9931 104.394 99.5707 105.373 100.84 106.69C102.405 108.403 103.602 110.42 104.355 112.615C105.108 114.81 105.403 117.137 105.22 119.45C104.947 121.789 104.271 124.063 103.22 126.17C102.202 128.216 100.685 129.974 98.8099 131.28C97.7762 131.988 96.6441 132.541 95.4499 132.92C94.1786 133.328 92.8428 133.497 91.5099 133.42C90.0947 133.328 88.7226 132.896 87.5099 132.16C85.8348 131.131 84.4563 129.683 83.5099 127.96C82.5311 126.199 81.8551 124.285 81.5099 122.3C81.1425 120.323 81.0182 118.308 81.1399 116.3C81.2134 114.572 81.5127 112.861 82.0299 111.21C82.5254 109.467 83.5793 107.936 85.0299 106.85C85.6099 106.356 86.2692 105.964 86.9799 105.69C87.7305 105.411 88.5303 105.288 89.3299 105.33C89.9269 105.367 90.5142 105.499 91.0699 105.72C91.6315 105.998 92.1158 106.41 92.4799 106.92Z" fill="black"/>
<path d="M129.34 107C129.508 107.175 129.627 107.391 129.685 107.626C129.743 107.861 129.737 108.107 129.67 108.34C129.509 108.752 129.222 109.102 128.85 109.34C128.523 109.58 128.135 109.722 127.73 109.75C127.53 109.69 127.31 109.61 127.09 109.52C125.85 109.045 124.585 108.638 123.3 108.3C122.2 107.948 121.024 107.903 119.9 108.17C118.4 108.755 117.084 109.733 116.09 111C115.289 112.233 114.682 113.582 114.29 115C113.853 116.469 113.575 117.981 113.46 119.51C113.379 120.904 113.541 122.302 113.94 123.64C114.346 125.071 115.083 126.386 116.09 127.48C116.871 128.217 117.858 128.699 118.92 128.86C119.972 129.045 121.048 129.045 122.1 128.86C123.048 128.687 123.974 128.409 124.86 128.03C125.135 127.845 125.398 127.645 125.65 127.43L126.74 126.54L127.74 125.73C128 125.5 128.15 125.38 128.17 125.35C128.731 125.182 129.329 125.182 129.89 125.35C130.392 125.465 130.909 125.492 131.42 125.43C131.64 125.53 131.68 125.79 131.55 126.19C131.382 126.668 131.165 127.128 130.9 127.56C130.59 128.06 130.3 128.56 130.01 128.92C129.72 129.28 129.53 129.57 129.44 129.67C128.197 130.978 126.686 132.001 125.01 132.67C123.636 133.233 122.165 133.521 120.68 133.52C119.077 133.503 117.5 133.105 116.08 132.36C114.287 131.403 112.766 130.006 111.66 128.3C110.586 126.657 109.823 124.83 109.41 122.91C108.911 120.391 108.871 117.803 109.29 115.27C109.565 113.749 110.007 112.263 110.61 110.84C111.203 109.384 112.027 108.034 113.05 106.84C114.026 105.69 115.259 104.785 116.65 104.2C119.586 103.215 122.778 103.311 125.65 104.47C126.339 104.791 127.007 105.155 127.65 105.56C128.271 105.968 128.838 106.452 129.34 107Z" fill="black"/>
<path d="M141.86 104.63C142.09 104.53 142.25 104.54 142.32 104.63C142.405 104.8 142.44 104.991 142.42 105.18C142.411 105.402 142.384 105.622 142.34 105.84C142.34 106.05 142.28 106.18 142.27 106.24C141.652 109.548 141.208 112.886 140.94 116.24C142.66 116.43 144.08 116.55 145.2 116.59C146.652 116.617 148.105 116.557 149.55 116.41C149.55 114.67 149.55 112.74 149.55 110.64C149.567 108.839 149.758 107.044 150.12 105.28C150.319 104.856 150.617 104.486 150.99 104.202C151.362 103.918 151.798 103.729 152.26 103.65C153.253 103.453 154.277 103.477 155.26 103.72C155.61 103.77 155.8 103.85 155.82 103.97C155.824 104.145 155.772 104.317 155.67 104.46C155.646 104.491 155.625 104.524 155.61 104.56C155.064 106.249 154.706 107.993 154.54 109.76C154.28 111.98 154.077 113.98 153.93 115.76V115.87C154.404 115.943 154.853 116.128 155.24 116.41C155.601 116.663 155.935 116.952 156.24 117.27C156.393 117.418 156.534 117.578 156.66 117.75C156.66 118.05 156.35 118.4 155.76 118.75C155.111 119.185 154.425 119.564 153.71 119.88C153.635 123.254 153.752 126.629 154.06 129.99C154.285 130.541 154.285 131.159 154.06 131.71C153.919 132.044 153.664 132.317 153.34 132.48C153.024 132.679 152.689 132.847 152.34 132.98C151.78 132.81 151.27 132.17 150.8 131.04C150.318 129.866 149.943 128.651 149.68 127.41C149.46 126.528 149.32 125.627 149.26 124.72C149.35 123.39 149.39 122.07 149.39 120.72C148.87 120.72 148.39 120.72 147.83 120.72H146.27C144.344 120.929 142.405 120.992 140.47 120.91C140.351 124.128 140.415 127.35 140.66 130.56C140.884 131.125 140.884 131.755 140.66 132.32C140.481 132.657 140.215 132.94 139.89 133.14C139.581 133.367 139.245 133.555 138.89 133.7C138.39 133.51 137.89 132.86 137.47 131.75C137.016 130.599 136.648 129.416 136.37 128.21C136.134 127.344 135.987 126.456 135.93 125.56C136.04 123.97 136.12 122.38 136.16 120.77C136.16 120.21 136.16 119.66 136.22 119.11C135.224 118.101 134.338 116.988 133.58 115.79C133.37 115.57 133.32 115.42 133.42 115.34C133.575 115.252 133.755 115.22 133.93 115.25C134.175 115.258 134.418 115.281 134.66 115.32L135.09 115.38L135.63 115.48L136.18 115.56C136.18 114.17 136.24 112.79 136.31 111.42C136.364 110.188 136.504 108.962 136.73 107.75C137.105 106.796 137.816 106.013 138.73 105.55C139.723 105.092 140.777 104.782 141.86 104.63Z" fill="black"/>
<path d="M161.64 107.37C161.998 106.486 162.572 105.705 163.31 105.1C163.998 104.453 164.888 104.061 165.83 103.99C166.7 103.99 167.35 104.52 167.83 105.69C168.38 107.24 169.02 108.82 169.75 110.45C170.48 112.08 171.22 113.67 171.99 115.26C172.34 116.02 172.7 116.76 173.05 117.49C174.143 119.603 175.34 121.777 176.64 124.01C176.64 122.33 176.64 120.64 176.64 118.93C176.64 117.22 176.49 115.24 176.46 113.16C176.412 111.29 176.499 109.418 176.72 107.56C177.045 106.532 177.712 105.646 178.61 105.05C179.533 104.441 180.545 103.979 181.61 103.68C181.86 103.52 182.02 103.55 182.09 103.76C182.169 104.022 182.196 104.297 182.17 104.57C182.17 104.9 182.17 105.16 182.1 105.36C182.03 105.56 182.1 105.46 182.1 105.47C181.6 109.25 181.267 113.127 181.1 117.1C181.1 117.63 181.03 118.16 181 118.68C180.95 120.4 181 122.27 181.05 124.29C181.1 126.31 181.28 128.21 181.49 129.97C181.608 130.197 181.676 130.446 181.689 130.701C181.703 130.957 181.663 131.212 181.57 131.45C181.17 132.52 180.57 132.91 179.71 132.61C178.669 132.189 177.739 131.536 176.99 130.7C176.063 129.763 175.204 128.76 174.42 127.7C173.917 127.066 173.459 126.398 173.05 125.7C172.05 123.7 171.05 121.7 169.92 119.78L169.55 119.16C168.377 117.28 167.233 115.28 166.12 113.16C166.05 113.97 165.99 114.77 165.92 115.56C165.84 116.56 165.76 117.49 165.69 118.43C165.563 122.35 165.627 126.323 165.88 130.35C166.077 130.906 166.077 131.514 165.88 132.07C165.722 132.417 165.45 132.699 165.11 132.87C164.777 133.071 164.421 133.232 164.05 133.35C163.57 133.15 163.11 132.5 162.69 131.41C162.274 130.279 161.94 129.119 161.69 127.94C161.476 127.104 161.339 126.251 161.28 125.39C161.4 123.09 161.46 120.83 161.46 118.59C161.38 116.84 161.36 114.93 161.38 112.86C161.32 111.026 161.407 109.19 161.64 107.37Z" fill="black"/>
<path d="M197.19 106.92C197.397 107.06 197.477 107.17 197.43 107.25C197.383 107.33 197.263 107.39 197.07 107.43C196.88 107.43 196.65 107.5 196.41 107.53C196.094 107.558 195.779 107.608 195.47 107.68C195.17 107.79 194.887 107.941 194.63 108.13C193.721 108.798 192.993 109.681 192.51 110.7C191.949 111.827 191.519 113.015 191.23 114.24C190.949 115.396 190.765 116.573 190.68 117.76C190.609 119.189 190.662 120.621 190.84 122.04C191.037 123.521 191.466 124.962 192.11 126.31C193.13 128.397 194.64 129.337 196.64 129.13C198.369 128.975 200.004 128.274 201.31 127.13C202.627 125.95 203.654 124.482 204.31 122.84C205.003 121.103 205.389 119.259 205.45 117.39C205.524 115.534 205.26 113.681 204.67 111.92C204.166 110.318 203.211 108.894 201.92 107.82C201.416 107.333 200.852 106.912 200.24 106.57C199.34 105.957 198.6 105.497 198.02 105.19C197.44 104.89 196.66 104.53 195.68 104.13C195.81 103.84 196.24 103.67 196.95 103.62C197.705 103.56 198.464 103.56 199.22 103.62C199.804 103.661 200.384 103.735 200.96 103.84C202.703 104.394 204.281 105.373 205.55 106.69C207.205 108.449 208.436 110.563 209.15 112.87C209.873 114.983 210.135 117.227 209.92 119.45C209.648 121.789 208.971 124.063 207.92 126.17C206.902 128.216 205.385 129.974 203.51 131.28C202.476 131.988 201.344 132.541 200.15 132.92C198.875 133.328 197.536 133.498 196.2 133.42C194.784 133.329 193.412 132.897 192.2 132.16C190.522 131.134 189.143 129.686 188.2 127.96C187.226 126.196 186.55 124.284 186.2 122.3C185.843 120.321 185.718 118.308 185.83 116.3C185.911 114.572 186.214 112.861 186.73 111.21C187.225 109.467 188.279 107.936 189.73 106.85C190.31 106.356 190.969 105.964 191.68 105.69C192.427 105.411 193.224 105.288 194.02 105.33C194.617 105.365 195.205 105.497 195.76 105.72C196.33 105.994 196.821 106.406 197.19 106.92Z" fill="black"/>
<path d="M230.84 110C230.84 110.19 230.84 110.29 230.68 110.3C230.525 110.296 230.374 110.244 230.25 110.15C230.085 110.055 229.925 109.951 229.77 109.84C229.673 109.757 229.565 109.686 229.45 109.63C228.365 109.015 227.175 108.608 225.94 108.43C224.795 108.238 223.625 108.238 222.48 108.43C221.4 108.67 220.83 109.02 220.78 109.48C220.786 109.775 220.855 110.065 220.983 110.33C221.111 110.596 221.294 110.831 221.52 111.02C222.113 111.628 222.747 112.192 223.42 112.71C224.97 113.97 226.42 115.31 227.87 116.71C229.288 118.115 230.552 119.667 231.64 121.34C232.412 122.535 233.04 123.817 233.51 125.16C233.962 126.444 234.051 127.828 233.77 129.16C233.607 129.858 233.305 130.516 232.883 131.095C232.46 131.674 231.925 132.162 231.31 132.53C229.957 133.299 228.436 133.721 226.88 133.76C225.135 133.825 223.391 133.599 221.72 133.09C220.03 132.603 218.437 131.829 217.01 130.8C216.415 130.381 215.86 129.909 215.35 129.39C214.834 128.886 214.381 128.322 214 127.71C213.357 126.584 213.054 125.295 213.13 124C213.22 123.149 213.593 122.353 214.19 121.74C214.766 121.12 215.468 120.632 216.25 120.31C216.279 120.472 216.279 120.638 216.25 120.8C216.25 121.08 216.25 121.44 216.19 121.85C216.13 122.26 216.19 122.77 216.13 123.19C216.112 123.5 216.112 123.81 216.13 124.12C216.254 124.929 216.6 125.687 217.13 126.31C218.133 127.426 219.44 128.226 220.89 128.61C222.273 128.999 223.695 129.233 225.13 129.31C225.881 129.392 226.64 129.358 227.38 129.21C228.058 129.086 228.672 128.733 229.12 128.21C229.34 127.904 229.484 127.551 229.541 127.18C229.599 126.808 229.567 126.428 229.45 126.07C229.022 124.734 228.32 123.501 227.39 122.45C226.352 121.197 225.215 120.03 223.99 118.96C222.76 117.88 221.68 116.96 220.76 116.27C219.323 115.223 218.057 113.957 217.01 112.52C215.72 110.52 215.34 108.78 215.88 107.19C216.193 106.365 216.704 105.629 217.368 105.048C218.033 104.467 218.83 104.059 219.69 103.86C221.576 103.44 223.545 103.597 225.34 104.31C227.246 104.955 228.907 106.17 230.1 107.79C230.303 108.128 230.477 108.483 230.62 108.85C230.799 109.205 230.875 109.604 230.84 110Z" fill="black"/>
<path d="M236 104.6C235.81 104.4 235.75 104.26 235.81 104.18C235.87 104.1 236 104.05 236.19 104.04C236.393 104.02 236.597 104.02 236.8 104.04C236.952 104.06 237.102 104.09 237.25 104.13C238.66 104.365 240.082 104.515 241.51 104.58C242.99 104.64 244.43 104.67 245.84 104.67H247C249.32 104.57 251.717 104.35 254.19 104.01L255.93 103.79C256.181 103.675 256.454 103.615 256.73 103.615C257.006 103.615 257.279 103.675 257.53 103.79C257.959 103.983 258.349 104.255 258.68 104.59C259.037 104.92 259.372 105.274 259.68 105.65C259.68 106.02 259.29 106.43 258.56 106.88C257.795 107.357 256.989 107.762 256.15 108.09C255.512 108.374 254.84 108.573 254.15 108.68C253.15 108.68 252.05 108.68 250.99 108.79C250.99 108.93 250.99 109.06 250.99 109.2C250.99 109.34 250.99 109.44 250.93 109.52C250.689 110.972 250.542 112.439 250.49 113.91C250.42 115.58 250.37 117.23 250.36 118.91C250.36 119.96 250.31 120.91 250.28 121.8C250.28 125.29 250.41 128.8 250.65 132.45C250.703 132.502 250.745 132.564 250.774 132.633C250.803 132.702 250.818 132.776 250.818 132.85C250.818 132.925 250.803 132.998 250.774 133.067C250.745 133.136 250.703 133.198 250.65 133.25C250.445 133.287 250.235 133.287 250.03 133.25L249.32 133.15C249.083 133.078 248.837 133.038 248.59 133.03C248.117 132.864 247.685 132.601 247.321 132.256C246.957 131.911 246.671 131.493 246.48 131.03C246.098 130.17 245.894 129.241 245.88 128.3C245.98 126.47 246 124.62 245.94 122.73C245.94 122.44 245.94 122.16 245.94 121.89C245.94 121.62 245.94 121.44 245.88 121.21C245.75 119.55 245.64 117.74 245.54 115.78C245.436 114.114 245.466 112.442 245.63 110.78C245.724 110.462 245.882 110.166 246.093 109.91C246.305 109.654 246.565 109.443 246.86 109.29C244.95 109.575 243.013 109.629 241.09 109.45C239.975 109.041 238.983 108.352 238.21 107.45C237.388 106.57 236.648 105.616 236 104.6Z" fill="black"/>
<path d="M269.73 104.71C270.08 104.71 270.27 104.78 270.3 104.93C270.307 105.029 270.293 105.128 270.258 105.222C270.224 105.315 270.17 105.399 270.1 105.47C269.483 106.438 269.014 107.493 268.71 108.6L268.46 109.32C268.371 109.906 268.327 110.498 268.33 111.09C268.33 111.83 268.33 112.43 268.38 112.92C268.5 113.06 268.54 113.17 268.51 113.25C268.465 113.337 268.391 113.404 268.3 113.44C268.116 113.514 267.919 113.551 267.72 113.55H266.85H266.21C265.96 113.55 265.62 113.33 265.21 112.91C264.772 112.496 264.382 112.033 264.05 111.53C263.789 111.219 263.647 110.826 263.65 110.42C263.783 109.85 263.876 109.272 263.93 108.69C263.93 108.56 263.93 108.43 263.93 108.32C263.877 107.654 263.877 106.986 263.93 106.32C263.944 105.711 264.106 105.114 264.4 104.58C265.199 104.249 266.074 104.141 266.93 104.27C268 104.45 269 104.57 269.73 104.71Z" fill="black"/>
</svg>
