<svg width="383" height="80" viewBox="0 0 383 80" fill="none" xmlns="http://www.w3.org/2000/svg">
<path d="M0.749973 2.12997C0.609973 1.97997 0.559974 1.87997 0.609974 1.80997C0.645567 1.77255 0.68944 1.74402 0.738071 1.72665C0.786702 1.70929 0.838732 1.70356 0.889973 1.70996C1.04296 1.69535 1.19699 1.69535 1.34997 1.70996C1.46175 1.72396 1.57214 1.74738 1.67997 1.77997C2.73922 1.95282 3.80774 2.063 4.87997 2.10995C5.98997 2.15995 7.07997 2.18997 8.12997 2.18997H8.99997C10.74 2.10997 12.54 1.93997 14.39 1.68997C14.84 1.62997 15.28 1.56997 15.7 1.52997C15.8873 1.44033 16.0923 1.3938 16.3 1.3938C16.5076 1.3938 16.7127 1.44033 16.9 1.52997C17.2238 1.66604 17.5165 1.8668 17.76 2.11996C18.0381 2.36516 18.2956 2.63274 18.53 2.91998C18.53 3.18998 18.24 3.49997 17.69 3.83997C17.115 4.19674 16.5093 4.50129 15.88 4.74997C15.4011 4.96078 14.8969 5.10868 14.38 5.18997C13.6 5.18997 12.81 5.21997 12.01 5.27997C12.01 5.36997 12.01 5.46996 12.01 5.57996C12.0181 5.65975 12.0181 5.74018 12.01 5.81998C11.8255 6.90789 11.7152 8.00707 11.68 9.10995C11.62 10.36 11.59 11.6 11.58 12.84C11.58 13.62 11.58 14.34 11.53 15C11.53 17.62 11.62 20.2866 11.8 23C11.8412 23.0383 11.874 23.0848 11.8965 23.1364C11.9189 23.188 11.9305 23.2437 11.9305 23.3C11.9305 23.3562 11.9189 23.4119 11.8965 23.4636C11.874 23.5152 11.8412 23.5616 11.8 23.6C11.6483 23.6321 11.4916 23.6321 11.34 23.6L10.81 23.52C10.6343 23.4695 10.4527 23.4426 10.27 23.44C9.91315 23.3152 9.58691 23.116 9.31281 22.8557C9.03871 22.5954 8.82301 22.2799 8.67997 21.93C8.39533 21.2833 8.24236 20.5864 8.22998 19.88C8.30998 18.51 8.31998 17.12 8.22998 15.7C8.22998 15.49 8.22998 15.28 8.22998 15.07C8.22998 14.86 8.22998 14.73 8.22998 14.56C8.12998 13.32 8.03997 11.96 7.96997 10.49C7.89579 9.23022 7.91584 7.96671 8.02997 6.70996C8.17996 6.22849 8.51427 5.82589 8.95997 5.58997C7.53036 5.80718 6.07944 5.84748 4.63997 5.70996C3.80241 5.42006 3.05696 4.91274 2.47998 4.23996C1.84041 3.59064 1.26134 2.8844 0.749973 2.12997Z" fill="black"/>
<path d="M27.89 5.15995H27.35C26.8 5.15995 26.21 5.15995 25.57 5.15995C24.9596 5.14053 24.3529 5.05673 23.76 4.90995C23.2439 4.73421 22.7656 4.46279 22.35 4.10993C22.016 3.86612 21.7282 3.56476 21.5 3.21995C21.7667 2.90814 22.112 2.67336 22.5 2.53995C22.8261 2.42495 23.1604 2.33468 23.5 2.26994H23.66C24.8391 1.94105 26.0487 1.73332 27.27 1.64994C28.4 1.57994 29.66 1.56994 31.06 1.64994C32.7261 1.70692 34.3345 2.27474 35.6671 3.27644C36.9997 4.27813 37.9922 5.66529 38.51 7.24995C38.9776 8.67238 38.8626 10.2222 38.19 11.5599C37.7397 12.3364 37.1404 13.0162 36.4265 13.5602C35.7125 14.1042 34.8981 14.5018 34.03 14.73C34.41 15.37 34.78 15.97 35.13 16.51L35.66 17.38C36.6 18.7133 37.6533 20.0833 38.82 21.4899L39.13 21.88C39.2541 21.9468 39.3588 22.0445 39.4341 22.1636C39.5094 22.2827 39.5528 22.4192 39.56 22.5599C39.55 22.7065 39.5017 22.8479 39.42 22.9699C39.3225 23.1295 39.2157 23.2831 39.1 23.4299C38.98 23.5699 38.89 23.6899 38.81 23.7699C38.4349 23.8495 38.0436 23.7891 37.71 23.6C37.223 23.3869 36.7603 23.122 36.33 22.8099C35.9565 22.5539 35.6201 22.2477 35.33 21.8999C34.7692 20.9829 34.1478 20.1043 33.47 19.2699L33.11 18.8099C32.69 18.3199 32.24 17.81 31.78 17.17C31.358 16.6334 30.9833 16.0612 30.66 15.4599C30.2105 15.5316 29.7545 15.5551 29.3 15.5299C28.8217 15.5185 28.3472 15.4411 27.89 15.2999C27.83 16.2999 27.81 17.2999 27.83 18.4599C27.8456 19.4899 27.919 20.5182 28.05 21.54C28.1323 21.6904 28.1769 21.8585 28.18 22.0299C28.1799 22.1925 28.1563 22.3542 28.11 22.51C28.023 22.6291 27.9145 22.7308 27.79 22.8099C27.6208 22.9315 27.4438 23.0418 27.26 23.14C27.1184 23.2259 26.9714 23.3027 26.82 23.3699C26.45 23.2799 26.09 22.9299 25.74 22.3099C25.3733 21.657 25.0782 20.9663 24.86 20.2499C24.6653 19.7125 24.5475 19.1503 24.51 18.5799C24.59 17.5799 24.64 16.5799 24.67 15.5799C24.67 15.2299 24.67 14.8699 24.67 14.5199C24.67 13.4499 24.67 12.2599 24.67 10.9599C24.6924 9.81031 24.7994 8.66389 24.99 7.52995C25.2338 6.964 25.6368 6.48111 26.15 6.13996C26.6864 5.74128 27.271 5.41199 27.89 5.15995ZM28.14 12.7799L29.14 12.5299C29.89 12.3499 30.71 12.1299 31.59 11.8599C32.421 11.6155 33.2225 11.2801 33.98 10.8599C34.6181 10.529 35.1308 9.99886 35.44 9.34995C35.566 9.04907 35.6308 8.72613 35.6308 8.39994C35.6308 8.07375 35.566 7.75084 35.44 7.44996C35.1372 6.76436 34.6388 6.18329 34.0074 5.77952C33.3759 5.37574 32.6394 5.16718 31.89 5.17994H30.48H29.09C29.1052 5.3496 29.1052 5.52029 29.09 5.68995C29.09 5.86995 29.09 5.99995 29.09 6.09995V6.19996C28.83 7.87996 28.6 9.59995 28.41 11.35L28.14 12.7799Z" fill="black"/>
<path d="M51.87 1.05992C51.98 0.939924 52.1001 0.949924 52.2401 1.05992C52.399 1.22693 52.5336 1.41543 52.6401 1.61992C52.7696 1.85537 52.8832 2.09926 52.98 2.34993C53.08 2.59993 53.1501 2.77993 53.1901 2.90993C54.2159 6.41636 54.9682 9.9971 55.4401 13.6199C55.4401 13.7299 55.4901 13.8599 55.5201 13.9799C55.6501 14.7099 55.8101 15.4899 55.9901 16.3399L56.34 16.4299C56.5668 16.5325 56.7733 16.6747 56.9501 16.8499C57.1608 17.0365 57.3518 17.2443 57.5201 17.4699C57.6518 17.6278 57.7721 17.7949 57.8801 17.9699C57.8801 18.0499 57.8801 18.1599 57.7001 18.2799C57.5372 18.4114 57.3632 18.5285 57.18 18.6299L56.6701 18.8799H56.59C56.8356 19.9599 57.153 21.0222 57.54 22.0599C57.6453 22.1851 57.7244 22.3302 57.7725 22.4865C57.8206 22.6428 57.8368 22.8072 57.8201 22.9699C57.7701 23.0741 57.7024 23.1688 57.62 23.2499L57.2401 23.6299L56.8801 23.9299L56.79 24.0099C56.5466 24.0231 56.3038 23.975 56.0837 23.8702C55.8636 23.7654 55.6733 23.6072 55.5301 23.4099C55.0497 22.8843 54.6335 22.3036 54.29 21.6799C53.9574 21.1219 53.673 20.5364 53.4401 19.9299H53.3801C52.35 19.8745 51.3172 19.8946 50.29 19.9899L48.65 20.2599C47.93 20.3599 47.2301 20.4499 46.5201 20.5099C45.9954 20.575 45.4647 20.575 44.9401 20.5099L44.7401 20.8599C44.6401 21.0299 44.54 21.1999 44.43 21.3699C44.2791 21.9458 43.9236 22.447 43.43 22.7799C43.1082 22.9812 42.7394 23.0949 42.3601 23.1099C41.9627 23.1529 41.5611 23.1327 41.1701 23.0499C41.0597 22.4926 41.1011 21.9158 41.29 21.3799C41.48 20.4899 41.7301 19.5599 42.0201 18.6199C41.5424 18.16 41.0884 17.6761 40.6601 17.1699C40.4801 17.0399 40.4201 16.9399 40.4701 16.8699C40.5119 16.8211 40.5642 16.7823 40.623 16.7563C40.6819 16.7303 40.7458 16.7179 40.8101 16.7199C40.9964 16.7047 41.1837 16.7047 41.37 16.7199H41.8001H41.8601C42.1101 16.7199 42.38 16.7199 42.65 16.7199C42.8827 16.1229 43.1672 15.5474 43.5001 14.9999C43.8987 14.3364 44.2335 13.6366 44.5001 12.9099C44.7201 12.2599 45.0301 11.2699 45.4401 9.90993C45.8501 8.54993 46.2001 7.43993 46.5801 6.24993C46.8318 5.40909 47.1255 4.58137 47.4601 3.76992C47.7591 3.17343 48.2025 2.66123 48.7501 2.27992C49.2 2.0025 49.6886 1.79356 50.2001 1.65993C50.7752 1.51581 51.3347 1.31481 51.87 1.05992ZM46.7401 16.7799C47.4701 16.7799 48.18 16.7799 48.9 16.7799C49.81 16.7799 50.7601 16.6899 51.7201 16.6099L52.7801 16.5299C52.7301 16.2999 52.68 16.0699 52.62 15.8399C52.52 15.3666 52.4201 14.9066 52.3201 14.4599C52.1801 13.9066 52.03 13.3366 51.87 12.7499C51.3767 10.9499 50.9267 9.16327 50.5201 7.38994C49.7601 9.56994 48.9201 11.6966 48.0001 13.7699L47.5501 14.8699L47.1701 15.8099C47.0001 16.1499 46.8701 16.4599 46.7401 16.7799Z" fill="black"/>
<path d="M65.3 1.77992C65.49 1.70992 65.61 1.70992 65.68 1.77992C65.7127 1.81811 65.7367 1.86289 65.7505 1.9112C65.7643 1.95952 65.7676 2.01024 65.76 2.05992C65.7505 2.17813 65.7304 2.29527 65.7 2.40992C65.4686 3.51605 65.3348 4.64036 65.3 5.76991C65.23 7.16991 65.19 8.52992 65.17 9.84992C65.17 10.5999 65.17 11.2499 65.17 11.7999C65.17 13.5599 65.17 15.3399 65.17 17.1299C65.17 18.6599 65.23 20.1799 65.22 21.6999C65.2829 21.8925 65.3047 22.0961 65.284 22.2976C65.2633 22.4991 65.2007 22.6941 65.1 22.8699C64.9104 23.0684 64.6538 23.1895 64.38 23.2099C64.0884 23.2547 63.7917 23.2547 63.5 23.2099C63.0064 22.8682 62.6516 22.3608 62.5 21.7799C62.24 21.0385 62.046 20.2755 61.92 19.4999C61.8183 18.9319 61.7615 18.3568 61.75 17.7799C61.86 15.8999 61.89 14.0099 61.85 12.1099C61.85 11.6999 61.79 11.2399 61.76 10.7499C61.68 9.49992 61.63 8.17991 61.59 6.79991C61.5417 5.639 61.5751 4.47614 61.69 3.31993C61.7709 3.05997 61.9103 2.822 62.0975 2.62437C62.2848 2.42674 62.5148 2.27469 62.77 2.17991C63.301 2.00599 63.8523 1.90178 64.41 1.86991L65.3 1.77992Z" fill="black"/>
<path d="M68.6999 2.12997C68.5599 1.97997 68.5199 1.87997 68.5599 1.80997C68.5979 1.77297 68.6436 1.74483 68.6937 1.72754C68.7438 1.71025 68.7972 1.70424 68.8499 1.70996C68.9995 1.69538 69.1502 1.69538 69.2999 1.70996C69.4149 1.72405 69.5286 1.74747 69.6399 1.77997C70.699 1.95385 71.7676 2.06404 72.8399 2.10995C73.9499 2.15995 75.0299 2.18997 76.0799 2.18997H76.9999C78.7399 2.10997 80.5299 1.93997 82.3899 1.68997C82.8399 1.62997 83.2699 1.56997 83.6899 1.52997C83.8772 1.44033 84.0822 1.3938 84.2899 1.3938C84.4975 1.3938 84.7026 1.44033 84.8899 1.52997C85.2183 1.66302 85.5148 1.8641 85.7599 2.11996C86.0325 2.36756 86.2866 2.63497 86.5199 2.91998C86.5199 3.18998 86.2299 3.49997 85.6799 3.83997C85.1095 4.19868 84.5069 4.50334 83.8799 4.74997C83.398 4.96226 82.8903 5.1102 82.3699 5.18997C81.5899 5.18997 80.7999 5.21997 79.9999 5.27997C79.9999 5.36997 79.9999 5.46996 79.9999 5.57996C79.9921 5.66156 79.9753 5.74207 79.9499 5.81998C79.7753 6.9092 79.6651 8.00775 79.6199 9.10995C79.5699 10.36 79.5399 11.6 79.5299 12.84C79.5299 13.62 79.5099 14.34 79.4699 15C79.4699 17.62 79.5632 20.2866 79.7499 23C79.8281 23.0803 79.8718 23.1879 79.8718 23.3C79.8718 23.412 79.8281 23.5197 79.7499 23.6C79.5982 23.6315 79.4416 23.6315 79.2899 23.6L78.7499 23.52C78.5744 23.4687 78.3927 23.4418 78.2099 23.44C77.8546 23.3124 77.5297 23.1123 77.256 22.8523C76.9822 22.5923 76.7656 22.2782 76.6199 21.93C76.3352 21.2833 76.1823 20.5864 76.1699 19.88C76.2499 18.51 76.2699 17.12 76.1699 15.7C76.1699 15.49 76.1699 15.28 76.1699 15.07C76.1699 14.86 76.1699 14.73 76.1699 14.56C76.0699 13.32 75.9899 11.96 75.9099 10.49C75.8334 9.23009 75.8568 7.96614 75.9799 6.70996C76.051 6.47145 76.169 6.24954 76.3269 6.05722C76.4849 5.8649 76.6797 5.70603 76.8999 5.58997C75.4703 5.80738 74.0193 5.84768 72.5799 5.70996C71.7442 5.41625 70.9997 4.90955 70.4199 4.23996C69.7838 3.59021 69.2081 2.88399 68.6999 2.12997Z" fill="black"/>
<path d="M101.91 6.15987C101.91 6.29987 101.91 6.37987 101.79 6.37987C101.674 6.37915 101.562 6.3405 101.47 6.26985L101.1 6.03987C101.031 5.97678 100.953 5.92299 100.87 5.87987C100.054 5.41787 99.1585 5.11263 98.2301 4.97988C97.3725 4.8392 96.4977 4.8392 95.6401 4.97988C94.8301 5.15988 94.4001 5.41985 94.3701 5.76985C94.3717 5.99017 94.4218 6.20745 94.5168 6.40621C94.6119 6.60497 94.7496 6.78035 94.9201 6.91988C95.3637 7.37533 95.8381 7.79965 96.3401 8.18987C97.5001 9.13987 98.6201 10.1399 99.6801 11.1899C100.745 12.2455 101.694 13.4122 102.51 14.6699C103.092 15.5625 103.562 16.523 103.91 17.5299C104.251 18.4926 104.32 19.5304 104.11 20.5299C103.987 21.0526 103.759 21.5451 103.441 21.9781C103.124 22.411 102.722 22.7755 102.26 23.0499C101.248 23.6318 100.107 23.9515 98.9401 23.9799C97.6316 24.0233 96.3246 23.8545 95.0701 23.4799C93.8034 23.1135 92.6092 22.5317 91.5401 21.7599C91.0941 21.4426 90.676 21.088 90.2901 20.6999C89.9094 20.3197 89.5739 19.8969 89.2901 19.4399C88.8044 18.5971 88.575 17.631 88.6301 16.6599C88.7006 16.023 88.9822 15.4281 89.4301 14.9699C89.8561 14.4947 90.3867 14.125 90.9801 13.8899C91.0006 14.0124 91.0006 14.1374 90.9801 14.2599C90.9801 14.4699 90.9801 14.7299 90.9801 15.0499C90.9801 15.3699 90.9801 15.7299 90.9301 16.0499C90.9121 16.2828 90.9121 16.5169 90.9301 16.7499C91.0292 17.3575 91.2959 17.9255 91.7001 18.3899C92.4569 19.2224 93.435 19.8224 94.5201 20.1199C95.5616 20.4076 96.6311 20.5819 97.7101 20.6399C98.2743 20.6983 98.844 20.6714 99.4001 20.5599C99.9038 20.4779 100.363 20.2234 100.7 19.8399C100.862 19.6102 100.968 19.3465 101.012 19.069C101.055 18.7916 101.034 18.5079 100.95 18.2399C100.623 17.2375 100.096 16.3121 99.4001 15.5199C98.6224 14.582 97.7696 13.7091 96.8501 12.9099C95.9301 12.0999 95.1201 11.4199 94.4301 10.9099C93.3514 10.1229 92.4032 9.1713 91.6201 8.08986C91.1747 7.53647 90.8657 6.88609 90.7181 6.19124C90.5704 5.49639 90.5882 4.77655 90.7701 4.08986C91.0027 3.47181 91.3847 2.92098 91.882 2.4865C92.3793 2.05202 92.9764 1.74741 93.6201 1.59987C95.0345 1.28169 96.5119 1.39666 97.8601 1.92986C99.2895 2.41332 100.536 3.32448 101.43 4.53987C101.589 4.79291 101.723 5.06083 101.83 5.33986C101.924 5.6025 101.951 5.88411 101.91 6.15987Z" fill="black"/>
<path d="M111.15 11.94C110.914 11.9147 110.681 11.8746 110.45 11.82C110.06 11.75 109.63 11.64 109.16 11.52C108.737 11.4073 108.322 11.2636 107.92 11.09C107.57 10.94 107.36 10.78 107.31 10.62C107.413 10.4861 107.487 10.3331 107.53 10.17C107.61 9.91998 107.69 9.65998 107.76 9.38998C107.83 9.11998 107.88 8.95997 107.89 8.87997C107.855 8.6614 107.855 8.43854 107.89 8.21997C107.895 8.11922 107.922 8.02087 107.971 7.93246C108.019 7.84406 108.088 7.76793 108.17 7.70996C108.855 7.73517 109.531 7.87372 110.17 8.11996C111.04 8.40996 111.76 8.67997 112.32 8.90997H112.41H112.46L112.63 8.98996L112.81 9.06998C112.86 9.06998 112.88 9.12997 112.88 9.15997C112.88 9.18997 112.88 9.15996 112.75 9.20996C112.628 9.33257 112.533 9.47896 112.47 9.63998C112.37 9.84998 112.27 10.08 112.16 10.33C112.031 10.7013 111.874 11.0624 111.69 11.41C111.53 11.77 111.35 11.93 111.15 11.94ZM112.41 18.18H112.46L112.63 18.25L112.81 18.34C112.86 18.34 112.88 18.39 112.88 18.42C112.88 18.45 112.88 18.42 112.75 18.47C112.631 18.5945 112.536 18.7404 112.47 18.9C112.37 19.11 112.27 19.34 112.16 19.6C112.033 19.9689 111.876 20.3267 111.69 20.67C111.53 20.99 111.35 21.16 111.15 21.17C110.914 21.1447 110.681 21.1046 110.45 21.05C110.06 20.97 109.63 20.87 109.16 20.74C108.738 20.6259 108.324 20.4856 107.92 20.32C107.57 20.16 107.36 20 107.31 19.85C107.413 19.7161 107.487 19.5631 107.53 19.4C107.61 19.15 107.69 18.89 107.76 18.63C107.813 18.4557 107.856 18.2788 107.89 18.1C107.855 17.8813 107.855 17.6586 107.89 17.44C107.895 17.3392 107.922 17.2409 107.971 17.1525C108.019 17.0641 108.088 16.9879 108.17 16.93C108.855 16.946 109.532 17.0813 110.17 17.33C111.04 17.63 111.76 17.9 112.32 18.13L112.41 18.18Z" fill="black"/>
<path d="M18.7099 55.4899C18.7099 55.6799 18.7099 55.78 18.5499 55.79C18.3972 55.7878 18.2494 55.7351 18.1299 55.64C17.9599 55.54 17.7899 55.4399 17.6399 55.3299C17.5424 55.2469 17.4349 55.1764 17.3199 55.12C16.235 54.5045 15.0445 54.0976 13.8099 53.92C12.6645 53.7283 11.4953 53.7283 10.3499 53.92C9.26989 54.16 8.69989 54.51 8.64989 54.97C8.65589 55.2646 8.72505 55.5546 8.85271 55.8203C8.98037 56.086 9.16355 56.3212 9.38989 56.51C9.98234 57.1177 10.6173 57.6824 11.2899 58.2C12.8399 59.46 14.2899 60.8 15.7399 62.2C17.158 63.6045 18.4218 65.1567 19.5099 66.8299C20.286 68.0227 20.9139 69.3054 21.3799 70.65C21.8314 71.9343 21.9213 73.318 21.6399 74.65C21.477 75.348 21.1753 76.0062 20.7527 76.5852C20.33 77.1641 19.7951 77.6521 19.1799 78.0199C17.8308 78.7887 16.3122 79.2113 14.7599 79.25C13.0113 79.3159 11.2639 79.0895 9.58989 78.5799C7.8998 78.0934 6.3064 77.3187 4.87989 76.29C4.28726 75.8683 3.7319 75.3966 3.21989 74.88C2.70451 74.3784 2.2543 73.814 1.87989 73.2C1.22905 72.0764 0.923028 70.7862 0.999893 69.4899C1.08941 68.639 1.4628 67.8429 2.05989 67.23C2.63533 66.6102 3.33809 66.1224 4.1199 65.7999C4.14913 65.962 4.14913 66.1279 4.1199 66.29C4.1199 66.57 4.11989 66.93 4.05989 67.29C3.99989 67.65 4.05989 68.21 3.99989 68.63C3.98197 68.9397 3.98197 69.2502 3.99989 69.56C4.12366 70.3686 4.46989 71.1268 4.99989 71.75C6.00271 72.8662 7.30945 73.6655 8.7599 74.0499C10.1466 74.4386 11.5718 74.6734 13.0099 74.75C13.7573 74.8319 14.5128 74.7981 15.2499 74.65C15.9275 74.5263 16.5419 74.1732 16.9899 73.65C17.2095 73.3444 17.3538 72.9913 17.4111 72.6195C17.4685 72.2476 17.4372 71.8675 17.3199 71.51C16.8914 70.1736 16.1899 68.9409 15.2599 67.89C14.2222 66.6372 13.0852 65.47 11.8599 64.4C10.6299 63.32 9.55989 62.3999 8.62989 61.7099C7.19715 60.6571 5.93272 59.3927 4.87989 57.9599C3.58989 55.9599 3.20989 54.22 3.74989 52.63C4.0624 51.8045 4.57354 51.0689 5.23808 50.4881C5.90262 49.9072 6.70008 49.4992 7.55989 49.2999C9.44572 48.8798 11.4143 49.0366 13.2099 49.75C15.1171 50.392 16.7795 51.6074 17.9699 53.23C18.173 53.5679 18.347 53.9225 18.4899 54.29C18.6781 54.6601 18.7545 55.0771 18.7099 55.4899Z" fill="black"/>
<path d="M38.93 48.69C39.07 48.53 39.23 48.54 39.41 48.69C39.6313 48.9037 39.814 49.1541 39.95 49.43C40.1245 49.7532 40.2781 50.0872 40.41 50.43C40.54 50.75 40.63 51 40.68 51.17C42.0464 55.8456 43.0494 60.6198 43.68 65.45C43.68 65.6 43.74 65.77 43.78 65.94C43.96 66.94 44.17 67.94 44.4 69.08L44.87 69.2C45.1751 69.331 45.4531 69.5175 45.69 69.75C45.9645 70.0065 46.2186 70.284 46.45 70.58C46.6233 70.7912 46.7804 71.0152 46.92 71.25C46.92 71.37 46.92 71.51 46.69 71.67C46.4719 71.8405 46.2413 71.9942 46 72.13L45.32 72.46L45.2 72.52C45.5351 73.9583 45.9593 75.3744 46.47 76.76C46.6115 76.9258 46.7181 77.1184 46.7834 77.3263C46.8487 77.5342 46.8713 77.7531 46.85 77.97C46.7853 78.1129 46.6936 78.2419 46.58 78.35C46.43 78.51 46.26 78.68 46.07 78.85C45.88 79.02 45.73 79.15 45.6 79.26L45.48 79.35C44.96 79.46 44.4 79.19 43.8 78.55C43.1573 77.8557 42.6 77.0869 42.14 76.26C41.6971 75.5138 41.319 74.7309 41.01 73.92H40.93C39.5566 73.8462 38.1796 73.8729 36.81 74C36.3 74.09 35.57 74.21 34.62 74.35C33.67 74.49 32.72 74.61 31.79 74.69C31.0897 74.7819 30.3804 74.7819 29.68 74.69L29.4 75.16C29.27 75.39 29.14 75.62 28.99 75.84C28.8109 76.5982 28.3588 77.2639 27.72 77.71C27.3011 77.9884 26.8128 78.1443 26.31 78.16C25.7797 78.2207 25.243 78.1971 24.72 78.09C24.5712 77.3465 24.6229 76.5768 24.87 75.86C25.13 74.66 25.46 73.43 25.87 72.17C25.2285 71.5569 24.621 70.9093 24.05 70.23C23.82 70.06 23.73 69.93 23.8 69.83C23.9227 69.7091 24.0878 69.6409 24.26 69.64C24.5054 69.6081 24.7526 69.5914 25 69.59H25.58H25.65C25.99 69.59 26.34 69.59 26.71 69.59C27.0198 68.7955 27.3979 68.0293 27.84 67.3C28.3733 66.4126 28.8252 65.4789 29.19 64.51C29.48 63.65 29.89 62.32 30.44 60.51C30.99 58.7 31.44 57.21 31.96 55.62C32.2972 54.5007 32.691 53.3993 33.14 52.32C33.5346 51.5214 34.1224 50.8339 34.85 50.32C35.4543 49.9556 36.1076 49.6794 36.79 49.5C37.5267 49.2962 38.243 49.025 38.93 48.69ZM32.09 69.69C33.09 69.69 34.01 69.69 34.96 69.69C36.18 69.69 37.44 69.58 38.73 69.47L40.14 69.35C40.07 69.05 40 68.75 39.92 68.44C39.79 67.81 39.66 67.2 39.53 66.6C39.4 66 39.13 65.11 38.93 64.31C38.27 61.92 37.68 59.54 37.13 57.17C36.11 60.0767 34.99 62.9133 33.77 65.68C33.56 66.16 33.36 66.68 33.16 67.15C32.96 67.62 32.83 67.98 32.66 68.4C32.49 68.82 32.26 69.23 32.09 69.65V69.69Z" fill="black"/>
<path d="M57.17 49.7299C57.44 49.7299 57.61 49.7899 57.67 49.9299C57.7249 50.0886 57.7249 50.2612 57.67 50.4199C57.6 50.6099 57.54 50.7699 57.47 50.9199V50.9899C57.0478 52.312 56.7532 53.6716 56.59 55.0499C56.38 56.6299 56.2201 58.2399 56.1001 59.8799C57.0996 59.0175 58.023 58.0707 58.86 57.0499C59.38 56.3499 60.02 55.3799 60.79 54.1399C61.26 53.3999 61.7 52.7099 62.12 52.0899C62.4217 51.6236 62.7558 51.1792 63.12 50.7599C63.7961 50.287 64.5801 49.9913 65.4 49.8999C66.3273 49.7584 67.2624 49.6749 68.2 49.6499H68.9601C69.2301 49.5399 69.4 49.5599 69.45 49.7099C69.5156 49.8942 69.5156 50.0956 69.45 50.2799C69.37 50.5199 69.29 50.7499 69.2 50.9699C69.11 51.1899 69.04 51.3099 69.01 51.3699C68.1458 52.8961 67.1803 54.3627 66.12 55.7599C65.12 57.0599 63.9901 58.3999 62.7401 59.7599C62.9134 60.1799 63.0734 60.5899 63.22 60.9899C63.78 62.4099 64.33 63.7299 64.86 64.9899C65.39 66.2499 66.05 67.6199 66.86 69.1799C67.5267 70.2666 68.3267 71.4966 69.26 72.8699C70.1091 74.0945 71.0272 75.2698 72.01 76.3899C72.185 76.4736 72.3383 76.5965 72.458 76.7492C72.5777 76.9018 72.6605 77.08 72.7 77.2699C72.7142 77.4652 72.6939 77.6616 72.64 77.8499C72.5738 78.1139 72.4937 78.3743 72.4 78.6299C72.3371 78.8316 72.2603 79.0288 72.17 79.2199C71.81 79.4499 71.2501 79.3999 70.4901 79.0499C69.6888 78.6751 68.9338 78.2087 68.2401 77.6599C67.6359 77.2001 67.0857 76.6734 66.6001 76.0899C65.6667 74.5632 64.71 73.0466 63.73 71.5399C63.35 71.0199 62.8201 70.2299 62.1301 69.1699C61.4401 68.1099 60.8 67.0499 60.22 66.0099C59.7465 65.2976 59.4076 64.5045 59.22 63.6699L58.65 64.2599C58.18 64.7699 57.65 65.2599 57.11 65.8299C56.7223 66.2573 56.2486 66.5981 55.72 66.8299C55.72 69.5199 55.72 72.2199 55.84 74.9099C55.84 75.4699 55.84 76.0199 55.9 76.5499C55.9967 76.7681 56.0398 77.0063 56.0259 77.2446C56.012 77.4829 55.9414 77.7144 55.8201 77.9199C55.5647 78.1659 55.2331 78.3176 54.8801 78.3499C54.5147 78.4216 54.1419 78.4484 53.7701 78.4299C53.1236 78.0516 52.6421 77.4452 52.42 76.7299C52.0534 75.8076 51.7723 74.8536 51.58 73.8799C51.4271 73.1787 51.3301 72.4665 51.29 71.7499C51.37 70.5899 51.41 69.3999 51.43 68.1899C51.45 66.9799 51.43 65.7999 51.43 64.6399C51.35 62.7399 51.3167 60.6432 51.33 58.3499C51.3176 56.3154 51.4882 54.2838 51.84 52.2799C52.0279 51.7997 52.312 51.3631 52.6748 50.9967C53.0377 50.6304 53.4717 50.3422 53.95 50.1499C54.9644 49.7166 56.0785 49.5713 57.17 49.7299Z" fill="black"/>
<path d="M78.5401 54.6499C77.7799 54.0895 77.1518 53.3693 76.7001 52.5399C76.2253 51.7442 75.7946 50.9229 75.4101 50.0799C75.1967 49.7532 75.1567 49.5632 75.2901 49.5099C75.5013 49.4653 75.7211 49.4862 75.9201 49.5699C76.8072 49.7772 77.7105 49.9076 78.6201 49.9599C79.6201 50.0199 80.6201 50.0599 81.6201 50.0799H82.9501C83.9001 50.0799 84.9001 50.0799 85.9501 49.9799L89.1201 49.7599C90.1901 49.6899 91.2201 49.6199 92.2101 49.5699C93.8967 49.1899 95.3867 49.8266 96.6801 51.4799C96.5901 51.7899 96.0501 52.1599 95.0601 52.5799C94.0224 53.0081 92.9606 53.3754 91.8801 53.6799C91.1013 53.9272 90.3012 54.1013 89.4901 54.1999H88.3201C87.5101 54.1999 86.7601 54.1999 86.0701 54.1999C85.2599 54.2331 84.452 54.3098 83.6501 54.4299C83.3701 56.5299 83.1201 58.6399 82.9301 60.7799C83.5801 60.8299 84.2301 60.8999 84.8801 60.9699C86.3147 61.0082 87.7503 60.9648 89.1801 60.8399L90.8801 60.7399C91.06 60.6574 91.2578 60.6214 91.4553 60.6354C91.6528 60.6494 91.8435 60.7129 92.0101 60.8199C92.3518 61.0546 92.6413 61.3577 92.8601 61.7099C93.1135 62.0503 93.3376 62.4116 93.5301 62.7899C93.5301 63.0766 93.2701 63.4099 92.7501 63.7899C92.2272 64.182 91.664 64.5172 91.0701 64.7899C90.6223 65.0467 90.1242 65.2036 89.6101 65.2499C88.4101 65.1799 87.4901 65.1599 86.8501 65.1799C86.2101 65.1999 85.6801 65.2399 85.2301 65.2899L84.0901 65.3899C83.6801 65.3899 83.1601 65.3899 82.5201 65.3899C82.3974 67.6536 82.4442 69.9232 82.6601 72.1799C82.7396 72.3421 82.7839 72.5193 82.7901 72.6999C82.7906 72.8561 82.7454 73.0091 82.6601 73.1399L82.3701 73.3099C82.2167 73.3914 82.056 73.4584 81.8901 73.5099L85.5101 73.6499C85.7401 73.6499 85.9801 73.6499 86.2101 73.6499C87.4301 73.6499 88.8001 73.5999 90.3101 73.4699C91.8201 73.3399 93.1801 73.1699 94.3701 72.9599C94.5112 72.8445 94.6878 72.7815 94.8701 72.7815C95.0523 72.7815 95.229 72.8445 95.3701 72.9599C95.6018 73.1099 95.8022 73.3035 95.9601 73.5299C96.1901 73.8299 96.4101 74.1199 96.6001 74.3899L96.8601 74.7199C96.9097 74.9766 96.8895 75.242 96.8016 75.4883C96.7136 75.7346 96.5611 75.9527 96.3601 76.1199C95.8814 76.5913 95.3227 76.974 94.7101 77.2499C94.1908 77.5176 93.6292 77.6935 93.0501 77.7699C91.6901 77.7699 90.3301 77.7699 88.9601 77.8699L88.0501 77.9299C86.8801 78.0599 85.5001 78.1699 83.9201 78.2599C82.5356 78.3558 81.1449 78.3089 79.7701 78.1199C78.8007 77.7048 77.9785 77.008 77.4101 76.1199C76.8225 75.252 76.3233 74.3273 75.9201 73.3599C75.7701 73.0899 75.7401 72.9299 75.8101 72.8599C75.862 72.8202 75.9225 72.7933 75.9868 72.7811C76.051 72.769 76.1172 72.772 76.1801 72.7899C76.3644 72.8177 76.5454 72.8646 76.7201 72.9299C77.7755 73.1473 78.8447 73.291 79.9201 73.3599C79.2829 72.6374 78.8118 71.7841 78.5401 70.8599C78.2429 70.0809 78.0643 69.2618 78.0101 68.4299C78.0101 68.3199 78.0101 68.1099 78.0101 67.8099C78.0101 67.2899 78.0901 66.6699 78.1401 65.9399C78.1901 65.2099 78.2301 64.5599 78.2601 63.9399C78.3019 63.6079 78.3019 63.2719 78.2601 62.9399C77.7233 62.1299 77.2358 61.2884 76.8001 60.4199C76.6101 60.1299 76.5901 59.9499 76.7301 59.8899C76.9284 59.8264 77.1417 59.8264 77.3401 59.8899C77.6029 59.9328 77.8632 59.9895 78.1201 60.0599H78.2201C78.2201 59.0599 78.2201 58.0599 78.2801 57.1099C78.3172 56.2854 78.404 55.4639 78.5401 54.6499Z" fill="black"/>
<path d="M107.56 71.48C107.92 71.48 108.12 71.54 108.15 71.67C108.18 71.8 108.15 71.96 107.95 72.17C107.588 72.5864 107.292 73.055 107.07 73.56C106.84 74.09 106.62 74.62 106.43 75.15C106.36 75.34 106.3 75.51 106.23 75.68C106.131 76.2038 106.09 76.7371 106.11 77.2699C106.11 77.9299 106.11 78.48 106.19 78.92C106.31 79.04 106.35 79.14 106.32 79.21C106.274 79.2936 106.2 79.3576 106.11 79.39C105.911 79.4611 105.701 79.4982 105.49 79.5H104.49C104.17 79.5 103.93 79.5 103.78 79.5C103.356 79.4207 102.965 79.2151 102.66 78.91C102.187 78.5393 101.758 78.1167 101.38 77.65C101.01 77.2 100.86 76.87 100.91 76.65C101.091 76.0249 101.195 75.3802 101.22 74.73C101.17 74.1577 101.17 73.5822 101.22 73.01C101.244 72.4422 101.417 71.8906 101.72 71.41C102.548 71.095 103.442 70.9919 104.32 71.1099C105.47 71.1999 106.48 71.3 107.32 71.43L107.56 71.48Z" fill="black"/>
<path d="M138.32 49.84C138.52 49.6933 138.67 49.6933 138.77 49.84C138.889 50.0298 138.957 50.2465 138.97 50.47C138.995 50.7461 138.995 51.0239 138.97 51.3C138.97 51.57 138.97 51.77 138.97 51.88V51.96C138.97 53.66 138.97 55.34 138.97 57.02C138.97 59.27 138.97 61.55 138.9 63.84C138.83 65.24 138.73 66.64 138.58 68.04C138.442 69.4161 138.202 70.7799 137.86 72.12C137.624 73.2405 137.289 74.3381 136.86 75.4C136.441 76.3328 135.742 77.1121 134.86 77.63C133.963 78.1632 132.966 78.5038 131.93 78.63C130.944 78.7468 129.946 78.6893 128.98 78.46C127.077 77.9348 125.368 76.8683 124.06 75.39C123.511 74.7758 123.028 74.1054 122.62 73.39C121.991 72.5653 121.603 71.5821 121.5 70.55C121.449 70.2186 121.449 69.8813 121.5 69.55C121.521 69.0631 121.7 68.5964 122.01 68.22C122.261 67.8874 122.591 67.6221 122.97 67.4477C123.348 67.2732 123.764 67.195 124.18 67.22C124.18 67.22 124.23 67.33 124.24 67.52C124.25 67.71 124.24 67.9 124.24 68.12C124.24 68.34 124.24 68.47 124.24 68.63C124.226 68.7463 124.226 68.8637 124.24 68.98C124.31 69.5096 124.468 70.0236 124.71 70.5C125.203 71.499 125.93 72.3637 126.83 73.02C127.199 73.3 127.595 73.5444 128.01 73.75C128.406 73.9212 128.818 74.0518 129.24 74.14H129.33H129.39C129.735 74.268 130.107 74.3059 130.47 74.25C131.059 74.2045 131.632 74.0341 132.15 73.75C132.297 73.6492 132.423 73.52 132.52 73.37C132.63 73.19 132.72 73.04 132.79 72.91C132.999 72.4987 133.163 72.0662 133.28 71.62C133.36 71.23 133.43 70.82 133.51 70.39C133.841 67.8569 134.005 65.3047 134 62.75C134 62 134 61.24 134 60.48C134 58.99 134 57.48 134 56.03C134.108 54.675 134.522 53.3622 135.21 52.19C135.965 51.0907 137.056 50.266 138.32 49.84Z" fill="black"/>
<path d="M157 48.69C157.15 48.53 157.31 48.54 157.49 48.69C157.705 48.909 157.887 49.1583 158.03 49.43C158.2 49.7553 158.354 50.0891 158.49 50.43C158.62 50.75 158.71 51 158.76 51.17C160.121 55.8468 161.124 60.6207 161.76 65.45C161.76 65.6 161.82 65.77 161.86 65.94C162.04 66.94 162.25 67.94 162.48 69.08L162.95 69.2C163.254 69.3333 163.531 69.5195 163.77 69.75C164.044 70.0065 164.298 70.284 164.53 70.58C164.7 70.7937 164.857 71.0175 165 71.25C165 71.37 165 71.51 164.77 71.67C164.55 71.8427 164.316 71.9965 164.07 72.13C163.81 72.27 163.58 72.38 163.4 72.46L163.28 72.52C163.61 73.9595 164.035 75.3759 164.55 76.76C164.69 76.9266 164.794 77.1195 164.858 77.3274C164.921 77.5353 164.943 77.7538 164.92 77.97C164.864 78.1152 164.775 78.2453 164.66 78.35C164.51 78.51 164.34 78.68 164.15 78.85L163.67 79.26L163.56 79.35C163.234 79.3759 162.908 79.3156 162.613 79.1752C162.318 79.0347 162.065 78.8191 161.88 78.55C161.234 77.8583 160.676 77.0891 160.22 76.26C159.778 75.5116 159.397 74.7291 159.08 73.92H159C157.626 73.8464 156.249 73.8731 154.88 74C154.38 74.09 153.65 74.21 152.7 74.35C151.75 74.49 150.8 74.61 149.86 74.69C149.16 74.7818 148.45 74.7818 147.75 74.69L147.48 75.16C147.35 75.39 147.21 75.62 147.07 75.84C146.886 76.5963 146.435 77.2606 145.8 77.71C145.38 77.9865 144.892 78.1422 144.39 78.16C143.856 78.2203 143.316 78.1966 142.79 78.09C142.653 77.3452 142.708 76.5776 142.95 75.86C143.21 74.66 143.54 73.43 143.95 72.17C143.308 71.5569 142.701 70.9093 142.13 70.23C141.9 70.06 141.81 69.93 141.88 69.83C141.938 69.77 142.008 69.7222 142.086 69.6896C142.163 69.657 142.246 69.6401 142.33 69.64C142.579 69.6081 142.829 69.5914 143.08 69.59H143.65H143.73C144.07 69.59 144.42 69.59 144.79 69.59C145.1 68.7955 145.478 68.0293 145.92 67.3C146.453 66.4126 146.905 65.4789 147.27 64.51C147.55 63.65 147.97 62.32 148.52 60.51C149.07 58.7 149.52 57.21 150.04 55.62C150.56 54.03 150.94 52.93 151.21 52.32C151.608 51.5207 152.199 50.8333 152.93 50.32C153.531 49.9556 154.181 49.6794 154.86 49.5C155.598 49.2996 156.314 49.0283 157 48.69ZM150.17 69.69C151.17 69.69 152.09 69.69 153.04 69.69C154.26 69.69 155.52 69.58 156.81 69.47L158.21 69.35C158.15 69.05 158.08 68.75 158 68.44C157.87 67.81 157.74 67.2 157.61 66.6C157.48 66 157.21 65.11 157 64.31C156.333 61.9233 155.737 59.5434 155.21 57.17C154.19 60.0767 153.07 62.9133 151.85 65.68C151.64 66.16 151.44 66.68 151.24 67.15L150.73 68.4C150.5 68.81 150.31 69.23 150.14 69.65L150.17 69.69Z" fill="black"/>
<path d="M186.21 55.4899C186.21 55.6799 186.21 55.78 186.05 55.79C185.897 55.7878 185.749 55.7351 185.63 55.64C185.46 55.54 185.29 55.4399 185.14 55.3299C185.042 55.2469 184.935 55.1764 184.82 55.12C183.735 54.5045 182.544 54.0976 181.31 53.92C180.165 53.7283 178.995 53.7283 177.85 53.92C176.77 54.16 176.2 54.51 176.15 54.97C176.156 55.2646 176.225 55.5546 176.353 55.8203C176.48 56.086 176.664 56.3212 176.89 56.51C177.482 57.1177 178.117 57.6824 178.79 58.2C180.34 59.46 181.79 60.8 183.24 62.2C184.658 63.6045 185.922 65.1567 187.01 66.8299C187.786 68.0227 188.414 69.3054 188.88 70.65C189.331 71.9343 189.421 73.318 189.14 74.65C188.977 75.348 188.675 76.0062 188.253 76.5852C187.83 77.1641 187.295 77.6521 186.68 78.0199C185.331 78.7887 183.812 79.2113 182.26 79.25C180.511 79.3159 178.764 79.0895 177.09 78.5799C175.4 78.0934 173.806 77.3187 172.38 76.29C171.787 75.8683 171.232 75.3966 170.72 74.88C170.205 74.3784 169.754 73.814 169.38 73.2C168.729 72.0764 168.423 70.7862 168.5 69.4899C168.589 68.639 168.963 67.8429 169.56 67.23C170.135 66.6102 170.838 66.1224 171.62 65.7999C171.649 65.962 171.649 66.1279 171.62 66.29C171.62 66.57 171.62 66.93 171.56 67.29C171.5 67.65 171.56 68.21 171.5 68.63C171.482 68.9397 171.482 69.2502 171.5 69.56C171.624 70.3686 171.97 71.1268 172.5 71.75C173.503 72.8662 174.809 73.6655 176.26 74.0499C177.647 74.4386 179.072 74.6734 180.51 74.75C181.257 74.8319 182.013 74.7981 182.75 74.65C183.427 74.5263 184.042 74.1732 184.49 73.65C184.709 73.3444 184.854 72.9913 184.911 72.6195C184.968 72.2476 184.937 71.8675 184.82 71.51C184.391 70.1736 183.69 68.9409 182.76 67.89C181.722 66.6372 180.585 65.47 179.36 64.4C178.13 63.32 177.06 62.3999 176.13 61.7099C174.697 60.6571 173.433 59.3927 172.38 57.9599C171.09 55.9599 170.71 54.22 171.25 52.63C171.562 51.8045 172.074 51.0689 172.738 50.4881C173.403 49.9072 174.2 49.4992 175.06 49.2999C176.946 48.8798 178.914 49.0366 180.71 49.75C182.617 50.392 184.279 51.6074 185.47 53.23C185.673 53.5679 185.847 53.9225 185.99 54.29C186.178 54.6601 186.255 55.0771 186.21 55.4899Z" fill="black"/>
<path d="M198.87 50C199.14 49.93 199.32 50 199.39 50.08C199.6 50 199.73 50.02 199.79 50.14C199.835 50.3172 199.835 50.5028 199.79 50.68C199.86 52.0098 200.061 53.3296 200.39 54.62C200.77 56.25 201.15 57.73 201.51 59.04C201.59 59.33 201.66 59.6 201.73 59.84C202.237 61.42 202.86 63.1533 203.6 65.04C204.36 63.3933 205.063 61.6866 205.71 59.92C205.747 59.8588 205.781 59.7953 205.81 59.73C206.2 58.45 206.7 57 207.29 55.37C207.78 53.9695 208.424 52.628 209.21 51.37C209.542 51.0807 209.93 50.863 210.35 50.7305C210.769 50.598 211.212 50.5536 211.65 50.6C212.69 49.9739 213.876 49.6293 215.09 49.6C215.35 49.53 215.51 49.6 215.58 49.71C215.633 49.8792 215.633 50.0607 215.58 50.23C215.558 50.4136 215.518 50.5944 215.46 50.77C215.466 50.8031 215.466 50.8369 215.46 50.87C215.165 52.357 214.988 53.8651 214.93 55.38C214.87 56.97 214.84 58.56 214.85 60.15C214.85 61.06 214.85 61.96 214.85 62.84C214.91 65.5466 215.033 68.32 215.22 71.16C215.32 72.52 215.39 73.84 215.46 75.16C215.657 75.7662 215.628 76.423 215.38 77.01C215.199 77.3581 214.907 77.6359 214.55 77.8C214.19 78.0087 213.798 78.1573 213.39 78.24C212.794 77.7126 212.375 77.0142 212.19 76.24C211.786 75.0911 211.452 73.919 211.19 72.73C210.98 71.8715 210.829 70.9993 210.74 70.12C210.79 68.23 210.74 66.32 210.66 64.38V63.32C210.58 62.55 210.5 61.7 210.42 60.76L210.26 61.04C209.96 61.78 209.53 63.13 208.98 65.04C208.48 66.74 207.98 68.39 207.45 69.97C207.148 71.0679 206.693 72.1181 206.1 73.09C205.78 73.49 205.32 73.54 204.74 73.23C204.101 72.8874 203.542 72.4137 203.1 71.84C202.097 70.6697 201.238 69.384 200.54 68.01C200.012 66.8908 199.568 65.7343 199.21 64.55C198.9 63.55 198.49 62.45 197.98 61.17C197.9 61.8366 197.82 62.5266 197.74 63.24C197.367 67.2 197.12 71.2433 197 75.37C197 75.6 197 75.84 197 76.07C197.162 76.7192 197.095 77.4046 196.81 78.01C196.59 78.3455 196.278 78.6096 195.91 78.77C195.534 78.965 195.134 79.1096 194.72 79.2C194.116 78.5858 193.727 77.7931 193.61 76.94C193.304 75.6951 193.073 74.4328 192.92 73.16C192.785 72.2496 192.722 71.3302 192.73 70.41C193 68.14 193.2 65.87 193.33 63.57C193.33 63.46 193.33 63.35 193.33 63.24C193.33 62.73 193.33 62.19 193.33 61.6C193.33 60.06 193.41 58.46 193.49 56.78C193.536 55.3244 193.686 53.874 193.94 52.44C194.13 52.0359 194.4 51.6745 194.734 51.3772C195.067 51.08 195.457 50.853 195.88 50.71C196.774 50.3906 197.699 50.1661 198.64 50.04L198.87 50Z" fill="black"/>
<path d="M225.14 49.6499C225.38 49.5599 225.55 49.5599 225.63 49.6499C225.675 49.7014 225.708 49.7621 225.727 49.8278C225.746 49.8934 225.75 49.9624 225.74 50.0299C225.729 50.1855 225.702 50.3396 225.66 50.4899C225.358 51.9655 225.184 53.4644 225.14 54.9699C225.05 56.8399 224.99 58.6499 224.96 60.4099C224.96 61.4099 224.96 62.2799 224.9 63.0099C224.9 65.3599 224.9 67.7299 224.9 70.1199C224.947 72.1599 224.967 74.1899 224.96 76.2099C225.049 76.4658 225.081 76.7381 225.054 77.0077C225.026 77.2773 224.939 77.5375 224.8 77.7699C224.554 78.0376 224.213 78.199 223.85 78.2199C223.462 78.2792 223.068 78.2792 222.68 78.2199C222.043 77.7567 221.59 77.084 221.4 76.3199C221.052 75.345 220.791 74.341 220.62 73.3199C220.485 72.5602 220.408 71.7913 220.39 71.0199C220.53 68.5199 220.58 66.0199 220.53 63.4699C220.53 62.9199 220.45 62.3099 220.41 61.6499C220.31 59.9799 220.23 58.2299 220.18 56.3999C220.114 54.8488 220.158 53.2949 220.31 51.7499C220.42 51.4028 220.608 51.0855 220.859 50.822C221.11 50.5586 221.419 50.3561 221.76 50.2299C222.467 50.0012 223.199 49.8601 223.94 49.8099L225.14 49.6499Z" fill="black"/>
<path d="M231.23 52.89C231.588 52.0054 232.162 51.2249 232.9 50.6199C233.588 49.9726 234.478 49.5808 235.42 49.51C236.29 49.51 236.94 50.0399 237.42 51.2099C237.97 52.7599 238.61 54.34 239.34 55.97C240.07 57.6 240.81 59.1899 241.58 60.7799C241.93 61.5399 242.29 62.28 242.64 63.01C243.727 65.1233 244.923 67.2966 246.23 69.5299C246.23 67.8499 246.23 66.16 246.23 64.45C246.23 62.74 246.08 60.7599 246.05 58.6799C246.002 56.8095 246.088 54.9379 246.31 53.0799C246.635 52.052 247.302 51.1662 248.2 50.57C249.108 49.966 250.103 49.5041 251.15 49.2C251.4 49.04 251.56 49.0699 251.63 49.2799C251.708 49.5423 251.736 49.8173 251.71 50.0899C251.71 50.4199 251.71 50.68 251.64 50.88V50.9899C251.14 54.7699 250.807 58.6466 250.64 62.6199C250.64 63.1499 250.57 63.68 250.54 64.2C250.49 65.92 250.54 67.7899 250.54 69.8099C250.54 71.8299 250.77 73.7299 250.98 75.4899C251.092 75.7252 251.152 75.982 251.156 76.2427C251.159 76.5035 251.106 76.7618 251 76.9999C250.6 78.0699 250 78.46 249.14 78.16C248.099 77.7393 247.169 77.0859 246.42 76.2499C245.492 75.3128 244.634 74.3102 243.85 73.2499C243.347 72.6163 242.889 71.9479 242.48 71.2499C241.48 69.2499 240.48 67.2499 239.35 65.3299L238.98 64.7099C237.813 62.8299 236.67 60.8299 235.55 58.7099C235.48 59.5199 235.42 60.3199 235.35 61.1099C235.27 62.1099 235.19 63.04 235.12 63.98C234.987 67.9 235.05 71.8733 235.31 75.8999C235.507 76.4564 235.507 77.0635 235.31 77.6199C235.152 77.9666 234.88 78.2489 234.54 78.42C234.206 78.6207 233.851 78.7817 233.48 78.8999C233 78.6999 232.54 78.0499 232.12 76.9599C231.687 75.8301 231.336 74.6704 231.07 73.4899C230.856 72.6542 230.719 71.8006 230.66 70.94C230.78 68.64 230.84 66.38 230.84 64.14C230.76 62.39 230.74 60.48 230.76 58.41C230.768 56.5603 230.925 54.7143 231.23 52.89Z" fill="black"/>
<path d="M262.79 71.48C263.16 71.48 263.36 71.54 263.39 71.67C263.42 71.8 263.39 71.96 263.18 72.17C262.822 72.5889 262.526 73.057 262.3 73.56C262.07 74.09 261.86 74.6199 261.66 75.1499C261.59 75.3399 261.53 75.5099 261.46 75.6799C261.36 76.2036 261.323 76.7374 261.35 77.2699C261.35 77.9299 261.35 78.48 261.43 78.92C261.54 79.04 261.58 79.1399 261.55 79.2099C261.506 79.2912 261.436 79.3549 261.35 79.39C261.147 79.4602 260.935 79.4973 260.72 79.5H259.78C259.46 79.5 259.22 79.5 259.06 79.5C258.637 79.4184 258.247 79.2131 257.94 78.91C257.467 78.5393 257.038 78.1167 256.66 77.6499C256.3 77.1999 256.14 76.8699 256.19 76.6499C256.376 76.026 256.48 75.3806 256.5 74.73C256.455 74.1575 256.455 73.5824 256.5 73.01C256.529 72.443 256.701 71.8925 257 71.41C257.828 71.0958 258.722 70.9927 259.6 71.1099C260.76 71.1999 261.76 71.2999 262.6 71.4299L262.79 71.48Z" fill="black"/>
<path d="M280.06 49.7299C280.36 49.5699 280.54 49.5499 280.6 49.6799C280.662 49.8769 280.69 50.0835 280.68 50.2899C280.823 51.8714 281.104 53.4374 281.52 54.9699C282.02 56.9299 282.503 58.7299 282.97 60.3699L283.38 61.7999C284.293 64.7399 285.367 67.7799 286.6 70.9199C286.69 70.4399 286.78 70.0499 286.86 69.7599C287.647 67.4999 288.367 65.1899 289.02 62.8299C289.048 62.7556 289.068 62.6785 289.08 62.5999C289.193 62.1733 289.303 61.7033 289.41 61.1899C289.79 59.4966 290.22 57.6966 290.7 55.7899C291.101 54.1321 291.619 52.5047 292.25 50.9199C292.643 50.2991 293.258 49.852 293.97 49.6699C294.659 49.5176 295.365 49.457 296.07 49.4899C296.613 49.5298 297.157 49.5298 297.7 49.4899C297.97 49.3999 298.13 49.4199 298.17 49.5499C298.228 49.7081 298.228 49.8818 298.17 50.0399C298.12 50.211 298.049 50.3755 297.96 50.5299C297.275 51.9106 296.687 53.3374 296.2 54.7999C295.62 56.5099 295.06 58.1999 294.54 59.8799C294.19 61.0199 293.86 62.0299 293.54 62.9299C292.84 65.1899 292.18 67.5099 291.54 69.8599C291.06 71.6666 290.567 73.4566 290.06 75.2299C290.088 75.4606 290.053 75.6945 289.96 75.9073C289.867 76.1201 289.718 76.304 289.53 76.4399C289.131 76.7799 288.792 77.1857 288.53 77.6399C288.338 77.9548 288.106 78.2438 287.84 78.4999C287.565 78.7472 287.21 78.8859 286.84 78.8899C286.34 78.8899 285.75 78.3599 285.09 77.3499C284.412 76.2788 283.813 75.1591 283.3 73.9999C282.879 73.1465 282.502 72.272 282.17 71.3799C281.503 69.0799 280.753 66.7899 279.92 64.5099C279.86 64.3299 279.79 64.1399 279.73 63.9399C279.14 62.4599 278.48 60.6799 277.73 58.5999C277.089 56.8778 276.594 55.1049 276.25 53.2999C276.278 52.8393 276.411 52.3912 276.64 51.9906C276.869 51.5899 277.187 51.2475 277.57 50.9899C278.333 50.4495 279.172 50.0249 280.06 49.7299Z" fill="black"/>
<path d="M314.88 48.69C315.03 48.53 315.19 48.54 315.37 48.69C315.585 48.909 315.767 49.1583 315.91 49.43C316.08 49.7553 316.234 50.0891 316.37 50.43C316.5 50.75 316.59 51 316.64 51.17C318.002 55.8468 319.004 60.6207 319.64 65.45C319.64 65.6 319.7 65.77 319.74 65.94C319.92 66.94 320.13 67.94 320.36 69.08L320.83 69.2C321.134 69.3333 321.411 69.5195 321.65 69.75C321.924 70.0065 322.179 70.284 322.41 70.58C322.58 70.7937 322.737 71.0175 322.88 71.25C322.88 71.37 322.88 71.51 322.65 71.67C322.43 71.8427 322.196 71.9965 321.95 72.13C321.69 72.27 321.46 72.38 321.28 72.46L321.16 72.52C321.49 73.9595 321.915 75.3759 322.43 76.76C322.57 76.9266 322.674 77.1195 322.738 77.3274C322.802 77.5353 322.823 77.7538 322.8 77.97C322.744 78.1152 322.655 78.2453 322.54 78.35C322.39 78.51 322.22 78.68 322.03 78.85L321.55 79.26L321.44 79.35C321.114 79.3759 320.788 79.3156 320.493 79.1752C320.198 79.0347 319.945 78.8191 319.76 78.55C319.114 77.8583 318.556 77.0891 318.1 76.26C317.658 75.5116 317.277 74.7291 316.96 73.92H316.88C315.507 73.8464 314.13 73.8731 312.76 74C312.26 74.09 311.53 74.21 310.58 74.35C309.63 74.49 308.68 74.61 307.74 74.69C307.04 74.7818 306.33 74.7818 305.63 74.69L305.36 75.16C305.23 75.39 305.09 75.62 304.95 75.84C304.767 76.5963 304.315 77.2606 303.68 77.71C303.26 77.9865 302.772 78.1422 302.27 78.16C301.736 78.2203 301.196 78.1966 300.67 78.09C300.533 77.3452 300.588 76.5776 300.83 75.86C301.09 74.66 301.42 73.43 301.83 72.17C301.188 71.5569 300.581 70.9093 300.01 70.23C299.78 70.06 299.69 69.93 299.76 69.83C299.82 69.7692 299.892 69.7211 299.971 69.6885C300.05 69.6558 300.135 69.6394 300.22 69.64C300.465 69.6078 300.713 69.5911 300.96 69.59H301.53H301.61C301.95 69.59 302.3 69.59 302.67 69.59C302.98 68.7955 303.358 68.0293 303.8 67.3C304.333 66.4126 304.785 65.4789 305.15 64.51C305.43 63.65 305.85 62.32 306.4 60.51C306.95 58.7 307.4 57.21 307.92 55.62C308.44 54.03 308.82 52.93 309.09 52.32C309.488 51.5207 310.079 50.8333 310.81 50.32C311.411 49.9556 312.061 49.6794 312.74 49.5C313.478 49.2996 314.194 49.0283 314.88 48.69ZM308.05 69.69C309.05 69.69 309.97 69.69 310.92 69.69C312.14 69.69 313.4 69.58 314.69 69.47L316.09 69.35C316.03 69.05 315.96 68.75 315.88 68.44C315.75 67.81 315.62 67.2 315.49 66.6C315.36 66 315.09 65.11 314.88 64.31C314.213 61.9233 313.617 59.5434 313.09 57.17C312.07 60.0767 310.95 62.9133 309.73 65.68C309.52 66.16 309.32 66.68 309.12 67.15L308.61 68.4C308.41 68.81 308.22 69.23 308.05 69.65V69.69Z" fill="black"/>
<path d="M328 52.89C328.358 52.0054 328.932 51.2249 329.67 50.6199C330.358 49.9726 331.248 49.5808 332.19 49.51C333.05 49.51 333.71 50.0399 334.19 51.2099C334.74 52.7599 335.38 54.34 336.11 55.97C336.84 57.6 337.58 59.1899 338.35 60.7799C338.7 61.5399 339.05 62.28 339.41 63.01C340.503 65.1233 341.7 67.2966 343 69.5299C343 67.8499 343 66.16 343 64.45C343 62.74 342.85 60.7599 342.82 58.6799C342.772 56.8095 342.858 54.9379 343.08 53.0799C343.404 52.0546 344.067 51.1697 344.96 50.57C345.885 49.9642 346.896 49.5023 347.96 49.2C348.21 49.04 348.37 49.0699 348.44 49.2799C348.518 49.5423 348.545 49.8173 348.52 50.0899C348.52 50.4199 348.52 50.68 348.45 50.88V50.9899C347.943 54.7699 347.61 58.6466 347.45 62.6199C347.45 63.1499 347.38 63.68 347.36 64.2C347.36 65.92 347.36 67.7899 347.41 69.8099C347.46 71.8299 347.64 73.7299 347.85 75.4899C347.968 75.7167 348.036 75.9666 348.048 76.2222C348.06 76.4778 348.016 76.733 347.92 76.9699C347.53 78.0399 346.92 78.43 346.07 78.13C345.027 77.7072 344.094 77.0543 343.34 76.2199C342.416 75.2828 341.56 74.2802 340.78 73.2199C340.277 72.5863 339.819 71.9179 339.41 71.2199C338.41 69.2199 337.41 67.2199 336.28 65.2999L335.91 64.6799C334.743 62.7999 333.597 60.7999 332.47 58.6799C332.41 59.4899 332.34 60.2899 332.28 61.0799C332.2 62.0799 332.12 63.01 332.04 63.95C331.913 67.87 331.98 71.8433 332.24 75.8699C332.437 76.4264 332.437 77.0335 332.24 77.5899C332.079 77.9344 331.808 78.2158 331.47 78.39C331.134 78.593 330.775 78.7542 330.4 78.8699C329.92 78.6699 329.47 78.0199 329.05 76.9299C328.612 75.8016 328.261 74.6416 328 73.4599C327.786 72.6242 327.649 71.7706 327.59 70.91C327.71 68.61 327.77 66.3499 327.77 64.1099C327.69 62.3599 327.66 60.45 327.69 58.38C327.647 56.5446 327.75 54.7088 328 52.89Z" fill="black"/>
<path d="M358 49.6499C358.24 49.5599 358.41 49.5599 358.5 49.6499C358.543 49.7023 358.574 49.7633 358.592 49.8289C358.609 49.8945 358.612 49.9631 358.6 50.0299C358.589 50.1855 358.562 50.3396 358.52 50.4899C358.216 51.9754 358.043 53.4844 358 54.9999C357.91 56.8699 357.85 58.6799 357.82 60.4399C357.82 61.4399 357.82 62.3099 357.76 63.0399C357.76 65.3899 357.76 67.7599 357.76 70.1499C357.807 72.1899 357.827 74.2199 357.82 76.2399C357.909 76.4958 357.941 76.7681 357.913 77.0377C357.886 77.3073 357.799 77.5675 357.66 77.7999C357.414 78.0676 357.073 78.229 356.71 78.2499C356.322 78.3092 355.928 78.3092 355.54 78.2499C354.903 77.7867 354.45 77.114 354.26 76.3499C353.91 75.3761 353.653 74.3717 353.49 73.3499C353.348 72.591 353.267 71.8218 353.25 71.0499C353.39 68.5499 353.44 66.0499 353.39 63.4999C353.39 62.9499 353.31 62.3399 353.27 61.6799C353.17 60.0099 353.09 58.2599 353.04 56.4299C352.974 54.8788 353.018 53.3249 353.17 51.7799C353.28 51.4328 353.468 51.1155 353.719 50.852C353.97 50.5886 354.278 50.3861 354.62 50.2599C355.33 50.0303 356.065 49.8892 356.81 49.8399L358 49.6499Z" fill="black"/>
<path d="M370.16 49.5699C370.42 49.5699 370.58 49.5699 370.64 49.7099C370.675 49.7581 370.699 49.8139 370.71 49.8729C370.72 49.9318 370.717 49.9924 370.7 50.0499C370.672 50.1942 370.629 50.3351 370.57 50.4699C370.567 50.5132 370.567 50.5566 370.57 50.5999C370.122 52.0626 369.824 53.5669 369.68 55.0899C369.48 56.8899 369.32 58.6199 369.2 60.2699C369.15 60.9599 369.1 61.5899 369.04 62.1699C368.861 65.9123 368.901 69.6621 369.16 73.3999C369.261 73.5839 369.316 73.7898 369.32 73.9999H370C370.163 74.0096 370.327 74.0096 370.49 73.9999C372.31 73.9999 374.257 73.9099 376.33 73.7299C377.06 73.6599 377.75 73.6099 378.4 73.5699C378.652 73.4598 378.925 73.4029 379.2 73.4029C379.475 73.4029 379.748 73.4598 380 73.5699C380.424 73.7436 380.803 74.0101 381.11 74.3499C381.459 74.6845 381.774 75.053 382.05 75.4499C382.05 75.7299 381.65 76.0799 380.86 76.4999C380.043 76.9324 379.194 77.3002 378.32 77.5999C377.679 77.859 377.006 78.0337 376.32 78.1199C374.908 78.0447 373.492 78.0447 372.08 78.1199H372C371.19 78.2499 370.24 78.3599 369.15 78.4299C368.198 78.5178 367.238 78.4673 366.3 78.2799C365.522 77.7409 364.91 76.9966 364.53 76.1299C364.132 75.2894 363.798 74.4203 363.53 73.5299C363.4 73.2199 363.38 73.0299 363.48 72.9699C363.58 72.9099 363.75 72.9699 364.01 73.0799C364.572 73.3136 365.165 73.4651 365.77 73.5299C365.373 72.6573 365.068 71.7457 364.86 70.8099C364.688 70.1147 364.58 69.405 364.54 68.6899C364.65 66.9699 364.71 65.2199 364.72 63.4499C364.72 63.0099 364.72 62.5699 364.72 62.1199C364.64 60.4999 364.61 58.6499 364.62 56.5899C364.605 54.8097 364.755 53.0321 365.07 51.2799C365.262 50.8562 365.55 50.483 365.911 50.1897C366.272 49.8964 366.696 49.691 367.15 49.5899C368.142 49.381 369.166 49.3742 370.16 49.5699Z" fill="black"/>
</svg>
