<svg width="666" height="196" viewBox="0 0 666 196" fill="none" xmlns="http://www.w3.org/2000/svg">
<path d="M26.6901 137.61L1.08008 193.86H17.6901L22.3701 183H51.4301L56.1301 193.83H72.7001L47.1301 137.58L26.6901 137.61ZM27.7701 170.54L36.8901 149.45L46.0001 170.54H27.7701Z" fill="black"/>
<path d="M122.27 162.4C118.142 160.981 113.845 160.111 109.49 159.81L98.2702 158.73C96.5742 158.565 94.8991 158.23 93.2702 157.73C92.2679 157.466 91.3601 156.925 90.6502 156.17C90.1222 155.515 89.8488 154.691 89.8802 153.85C89.8728 153.28 89.9918 152.715 90.2287 152.196C90.4655 151.678 90.8144 151.218 91.2502 150.85C92.3823 149.914 93.7294 149.275 95.1702 148.99C97.1623 148.546 99.1996 148.338 101.24 148.37C103.479 148.335 105.712 148.601 107.88 149.16C109.511 149.56 111.025 150.337 112.3 151.43C113.326 152.321 113.994 153.554 114.18 154.9H130C129.773 151.304 128.339 147.89 125.93 145.21C123.205 142.216 119.764 139.962 115.93 138.66C111.311 137.044 106.443 136.258 101.55 136.34C96.614 136.249 91.697 136.979 87.0002 138.5C83.3015 139.632 79.9912 141.772 77.4402 144.68C75.4539 147.245 74.2889 150.351 74.098 153.59C73.907 156.828 74.699 160.049 76.3702 162.83C78.1674 165.353 80.6682 167.29 83.5602 168.4C87.5994 169.985 91.8601 170.933 96.1902 171.21L106.62 172.21C108.466 172.355 110.293 172.69 112.07 173.21C113.135 173.486 114.104 174.05 114.87 174.84C115.433 175.549 115.723 176.436 115.69 177.34C115.692 177.942 115.56 178.537 115.304 179.081C115.048 179.626 114.674 180.107 114.21 180.49C112.986 181.488 111.538 182.175 109.99 182.49C107.836 182.961 105.635 183.179 103.43 183.14C101.012 183.182 98.6008 182.876 96.2702 182.23C94.4575 181.744 92.7853 180.836 91.3902 179.58C90.2291 178.502 89.4736 177.058 89.2502 175.49H73.4502C73.5323 179.282 74.9244 182.928 77.3902 185.81C80.1971 188.99 83.7904 191.376 87.8102 192.73C92.7402 194.44 97.9327 195.269 103.15 195.18C108.213 195.255 113.246 194.401 118 192.66C121.881 191.32 125.319 188.94 127.94 185.78C130.274 182.863 131.518 179.225 131.46 175.49C131.573 172.645 130.816 169.834 129.29 167.43C127.524 165.071 125.072 163.314 122.27 162.4Z" fill="black"/>
<path d="M155.5 137.61H139.94V193.86H155.5V137.61Z" fill="black"/>
<path d="M187.19 137.61L161.57 193.86H178.19L182.87 183H211.93L216.62 193.83H233.2L207.62 137.58L187.19 137.61ZM188.27 170.54L197.39 149.45L206.52 170.54H188.27Z" fill="black"/>
<path d="M286.6 176.23L259.37 137.61H239.23V193.86H254.35V154.37L282.1 193.86H301.67V137.61H286.6V176.23Z" fill="black"/>
<path d="M378.51 162.4C374.379 160.98 370.079 160.11 365.72 159.81L354.51 158.73C352.797 158.569 351.105 158.234 349.46 157.73C348.459 157.463 347.552 156.923 346.84 156.17C346.317 155.512 346.044 154.69 346.07 153.85C346.065 153.28 346.185 152.716 346.422 152.198C346.658 151.679 347.006 151.219 347.44 150.85C348.574 149.916 349.92 149.278 351.36 148.99C353.352 148.547 355.39 148.339 357.43 148.37C359.669 148.335 361.902 148.601 364.07 149.16C365.704 149.56 367.221 150.337 368.5 151.43C369.523 152.322 370.187 153.555 370.37 154.9H386.2C385.973 151.304 384.539 147.89 382.13 145.21C379.403 142.218 375.963 139.965 372.13 138.66C367.511 137.044 362.643 136.258 357.75 136.34C352.843 136.243 347.954 136.96 343.28 138.46C339.58 139.59 336.269 141.73 333.72 144.64C331.453 147.399 330.253 150.88 330.34 154.45C330.255 157.399 331.06 160.305 332.65 162.79C334.443 165.313 336.941 167.251 339.83 168.36C343.873 169.944 348.137 170.892 352.47 171.17L362.89 172.17C364.74 172.315 366.569 172.65 368.35 173.17C369.412 173.448 370.377 174.012 371.14 174.8C371.705 175.508 372 176.395 371.97 177.3C371.97 177.903 371.836 178.497 371.578 179.042C371.321 179.587 370.946 180.068 370.48 180.45C369.26 181.448 367.815 182.135 366.27 182.45C364.113 182.921 361.908 183.139 359.7 183.1C357.282 183.142 354.871 182.835 352.54 182.19C350.73 181.704 349.062 180.795 347.67 179.54C346.505 178.465 345.749 177.02 345.53 175.45H329.68C329.767 179.241 331.159 182.886 333.62 185.77C336.431 188.95 340.027 191.337 344.05 192.69C348.977 194.4 354.166 195.23 359.38 195.14C364.427 195.235 369.45 194.408 374.2 192.7C378.077 191.358 381.511 188.978 384.13 185.82C386.467 182.904 387.715 179.266 387.66 175.53C387.77 172.684 387.01 169.872 385.48 167.47C383.734 165.103 381.3 163.332 378.51 162.4Z" fill="black"/>
<path d="M439.9 140C436.075 138.319 431.927 137.5 427.75 137.6H396.17V193.85H411.73V176.39H427.73C431.913 176.496 436.068 175.68 439.9 174C443.134 172.56 445.872 170.198 447.77 167.21C449.565 164.11 450.509 160.592 450.509 157.01C450.509 153.428 449.565 149.91 447.77 146.81C445.875 143.815 443.137 141.446 439.9 140ZM433.9 160.72C433.254 161.777 432.297 162.609 431.16 163.1C429.813 163.682 428.357 163.965 426.89 163.93H411.73V150.06H426.85C428.319 150.026 429.777 150.317 431.12 150.91C432.255 151.414 433.211 152.251 433.86 153.31C434.471 154.451 434.791 155.726 434.791 157.02C434.791 158.314 434.471 159.589 433.86 160.73L433.9 160.72Z" fill="black"/>
<path d="M502.61 171.36C505.667 170.013 508.281 167.829 510.15 165.06C511.964 162.277 512.897 159.012 512.83 155.69C512.896 152.337 511.963 149.041 510.15 146.22C508.296 143.424 505.679 141.217 502.61 139.86C499.076 138.298 495.243 137.53 491.38 137.61H458V193.86H473.56V173.61H481.69L496.77 193.86H514.77L498.6 172.77C499.979 172.429 501.321 171.957 502.61 171.36ZM473.53 149.16H489.24C490.691 149.124 492.134 149.386 493.48 149.93C494.584 150.385 495.525 151.162 496.18 152.16C496.789 153.226 497.109 154.433 497.109 155.66C497.109 156.888 496.789 158.094 496.18 159.16C495.523 160.169 494.574 160.954 493.46 161.41C492.12 161.948 490.684 162.207 489.24 162.17H473.53V149.16Z" fill="black"/>
<path d="M538.03 137.61H522.47V193.86H538.03V137.61Z" fill="black"/>
<path d="M545.46 151.45H566.91V193.86H582.47V151.45H603.92V137.61H545.46V151.45Z" fill="black"/>
<path d="M663.24 167.43C661.476 165.084 659.031 163.338 656.24 162.43C652.108 161.012 647.808 160.141 643.45 159.84L632.24 158.76C630.544 158.595 628.869 158.26 627.24 157.76C626.239 157.493 625.331 156.953 624.62 156.2C624.097 155.542 623.824 154.72 623.85 153.88C623.845 153.31 623.965 152.746 624.201 152.228C624.438 151.709 624.786 151.249 625.22 150.88C626.353 149.946 627.7 149.308 629.14 149.02C631.132 148.577 633.169 148.369 635.21 148.4C637.449 148.365 639.682 148.631 641.85 149.19C643.484 149.59 645.001 150.367 646.28 151.46C647.303 152.352 647.967 153.585 648.15 154.93H664C663.773 151.334 662.339 147.92 659.93 145.24C657.202 142.248 653.762 139.995 649.93 138.69C645.311 137.074 640.443 136.288 635.55 136.37C630.615 136.268 625.698 136.988 621 138.5C617.3 139.63 613.989 141.77 611.44 144.68C609.173 147.439 607.973 150.92 608.06 154.49C607.975 157.439 608.78 160.345 610.37 162.83C612.163 165.353 614.66 167.291 617.55 168.4C621.593 169.984 625.857 170.932 630.19 171.21L640.61 172.21C642.459 172.355 644.289 172.69 646.07 173.21C647.132 173.488 648.096 174.052 648.86 174.84C649.425 175.548 649.719 176.434 649.69 177.34C649.69 177.943 649.556 178.537 649.298 179.082C649.041 179.627 648.665 180.108 648.2 180.49C646.98 181.488 645.535 182.175 643.99 182.49C641.833 182.961 639.628 183.179 637.42 183.14C635.002 183.182 632.591 182.875 630.26 182.23C628.45 181.743 626.781 180.835 625.39 179.58C624.225 178.505 623.469 177.06 623.25 175.49H607.44C607.527 179.281 608.918 182.926 611.38 185.81C614.189 188.988 617.781 191.374 621.8 192.73C626.73 194.44 631.922 195.269 637.14 195.18C642.206 195.254 647.242 194.4 652 192.66C655.877 191.318 659.311 188.938 661.93 185.78C664.266 182.864 665.515 179.226 665.46 175.49C665.558 172.64 664.784 169.828 663.24 167.43Z" fill="black"/>
<path d="M73.48 119.26H55.8L51.1001 108.42H22.7L18 119.26H0.300049L26.37 62H47.45L73.48 119.26ZM56.48 118.26H71.95L46.8 63H27L1.85004 118.26H17.36L22 107.42H51.72L56.48 118.26ZM46.81 95.93H27L36.8801 73.09L46.81 95.93ZM28.56 94.93H45.29L36.92 75.61L28.56 94.93Z" fill="black"/>
<path d="M103.15 120.5C97.8734 120.583 92.6234 119.736 87.64 118C83.5377 116.616 79.8693 114.182 77 110.94C74.4917 107.965 73.0798 104.22 73 100.33V99.81H89.78L89.84 100.24C90.0554 101.697 90.7608 103.037 91.84 104.04C93.1748 105.238 94.7755 106.102 96.51 106.56C98.7877 107.196 101.145 107.499 103.51 107.46C105.677 107.492 107.841 107.277 109.96 106.82C111.424 106.531 112.796 105.893 113.96 104.96C114.372 104.624 114.704 104.2 114.93 103.719C115.157 103.238 115.273 102.712 115.27 102.18C115.303 101.395 115.051 100.624 114.56 100.01C113.857 99.2959 112.971 98.7876 112 98.54C110.257 98.0194 108.464 97.6842 106.65 97.54L96.23 96.54C91.8461 96.249 87.5327 95.2878 83.44 93.69C80.4576 92.5605 77.8712 90.5825 76 88C74.2658 85.13 73.4426 81.8017 73.6389 78.4542C73.8353 75.1068 75.0421 71.8975 77.1 69.25C79.7099 66.2717 83.0958 64.0768 86.88 62.91C91.6091 61.3956 96.5551 60.6692 101.52 60.76C106.471 60.6813 111.397 61.4803 116.07 63.12C119.984 64.4521 123.499 66.7496 126.29 69.8C128.767 72.5704 130.242 76.0917 130.48 79.8V80.33H113.7L113.64 79.9C113.471 78.6694 112.86 77.5425 111.92 76.73C110.701 75.6928 109.256 74.9564 107.7 74.58C105.578 74.0325 103.391 73.7735 101.2 73.81C99.1834 73.7745 97.1696 73.9759 95.2 74.41C93.8412 74.6793 92.5702 75.2805 91.5 76.16C91.1179 76.4824 90.8121 76.8855 90.6046 77.3403C90.3971 77.795 90.2931 78.2902 90.3 78.79C90.2683 79.5133 90.4991 80.2236 90.95 80.79C91.6082 81.4657 92.4378 81.9497 93.35 82.19C94.9599 82.6728 96.6153 82.9878 98.29 83.13L109.5 84.21C113.9 84.5102 118.241 85.3911 122.41 86.83C125.299 87.77 127.83 89.5747 129.66 92C131.24 94.487 132.029 97.3953 131.92 100.34C131.984 104.207 130.701 107.976 128.29 111C125.601 114.208 122.094 116.627 118.14 118C113.336 119.733 108.257 120.58 103.15 120.5ZM74 100.81C74.1949 104.304 75.5297 107.637 77.8 110.3C80.5518 113.407 84.068 115.741 88 117.07C92.875 118.763 98.01 119.586 103.17 119.5C108.156 119.59 113.116 118.773 117.81 117.09C121.598 115.771 124.958 113.448 127.53 110.37C129.79 107.532 130.995 103.998 130.94 100.37C131.045 97.6264 130.321 94.9149 128.86 92.59C127.152 90.3349 124.803 88.648 122.12 87.75C118.029 86.3525 113.773 85.4952 109.46 85.2L98.25 84.11C96.5004 83.9535 94.7714 83.6184 93.09 83.11C92.0015 82.8114 91.0157 82.22 90.24 81.4C89.6402 80.6537 89.3279 79.717 89.36 78.76C89.3535 78.1192 89.4871 77.4847 89.7513 76.9009C90.0156 76.317 90.4042 75.798 90.89 75.38C92.0848 74.3834 93.5067 73.6965 95.03 73.38C97.0616 72.9289 99.1391 72.7174 101.22 72.75C103.503 72.7117 105.781 72.9842 107.99 73.56C109.698 73.9985 111.277 74.8346 112.6 76C113.607 76.8667 114.308 78.0342 114.6 79.33H129.46C129.125 76.0398 127.76 72.9392 125.56 70.47C122.88 67.5459 119.506 65.3447 115.75 64.07C111.186 62.4713 106.375 61.6927 101.54 61.77C96.6881 61.6843 91.8547 62.3902 87.23 63.86C83.623 64.9606 80.3906 67.0371 77.89 69.86C75.9762 72.3448 74.8569 75.3493 74.6785 78.4805C74.5001 81.6118 75.2709 84.7239 76.89 87.41C78.6502 89.8485 81.0826 91.7215 83.89 92.8C87.8877 94.3548 92.0998 95.289 96.38 95.57L106.8 96.57C108.686 96.7105 110.553 97.0456 112.37 97.57C113.518 97.873 114.558 98.4933 115.37 99.36C116.011 100.153 116.345 101.151 116.31 102.17C116.313 102.844 116.166 103.51 115.881 104.12C115.596 104.73 115.179 105.27 114.66 105.7C113.375 106.744 111.854 107.458 110.23 107.78C108.036 108.258 105.795 108.482 103.55 108.45C101.081 108.487 98.6194 108.17 96.24 107.51C94.3551 107.005 92.6174 106.059 91.17 104.75C90.031 103.681 89.2547 102.282 88.95 100.75L74 100.81Z" fill="black"/>
<path d="M156 119.26H139.44V62H156V119.26ZM140.44 118.26H155V63H140.44V118.26Z" fill="black"/>
<path d="M234 119.26H216.29L211.6 108.42H183.2L178.51 119.26H160.8L186.86 62H207.94L234 119.26ZM217 118.26H232.47L207.3 63H187.51L162.35 118.25H177.86L182.54 107.41H212.26L217 118.26ZM207.33 95.93H187.51L197.39 73.09L207.33 95.93ZM189.08 94.93H205.81L197.44 75.61L189.08 94.93Z" fill="black"/>
<path d="M302.17 119.26H281.84L254.84 80.84V119.26H238.73V62H259.63L286.1 99.55V62H302.17V119.26ZM282.36 118.26H301.17V63H287.1V102.7L259.1 63H239.73V118.25H253.85V77.68L282.36 118.26Z" fill="black"/>
<path d="M359.38 120.5C354.104 120.583 348.854 119.736 343.87 118C339.769 116.616 336.103 114.177 333.24 110.93C330.71 107.963 329.277 104.218 329.18 100.32V99.8H345.95L346.01 100.23C346.226 101.687 346.931 103.027 348.01 104.03C349.345 105.228 350.946 106.092 352.68 106.55C354.958 107.185 357.316 107.488 359.68 107.45C361.847 107.482 364.011 107.267 366.13 106.81C367.594 106.521 368.966 105.883 370.13 104.95C370.545 104.616 370.88 104.192 371.108 103.711C371.337 103.23 371.454 102.703 371.45 102.17C371.478 101.385 371.227 100.616 370.74 100C370.033 99.2859 369.144 98.7777 368.17 98.53C366.427 98.0094 364.634 97.6742 362.82 97.53L352.4 96.53C348.016 96.239 343.703 95.2778 339.61 93.68C336.64 92.5183 334.07 90.5212 332.21 87.93C330.476 85.06 329.653 81.7316 329.849 78.3842C330.046 75.0367 331.252 71.8275 333.31 69.18C335.922 66.1993 339.312 64.0041 343.1 62.84C347.826 61.3247 352.769 60.5983 357.73 60.69C362.685 60.6116 367.614 61.4106 372.29 63.05C376.201 64.382 379.713 66.6796 382.5 69.73C384.981 72.4978 386.457 76.0205 386.69 79.73V80.26H369.89L369.84 79.83C369.665 78.6014 369.055 77.4765 368.12 76.66C366.899 75.6268 365.454 74.8908 363.9 74.51C361.775 73.9625 359.585 73.7035 357.39 73.74C355.39 73.7075 353.393 73.9088 351.44 74.34C350.08 74.614 348.807 75.2146 347.73 76.09C347.348 76.4123 347.042 76.8154 346.835 77.2702C346.627 77.725 346.523 78.2201 346.53 78.72C346.501 79.4445 346.736 80.155 347.19 80.72C347.844 81.3957 348.671 81.8798 349.58 82.12C351.19 82.6027 352.846 82.9177 354.52 83.06L365.73 84.14C370.133 84.4419 374.477 85.3228 378.65 86.76C381.547 87.7217 384.078 89.551 385.9 92C387.481 94.487 388.269 97.3952 388.16 100.34C388.226 104.209 386.938 107.979 384.52 111C381.834 114.21 378.325 116.629 374.37 118C369.566 119.734 364.487 120.581 359.38 120.5ZM330.21 100.81C330.397 104.304 331.729 107.639 334 110.3C336.757 113.411 340.281 115.745 344.22 117.07C349.092 118.762 354.223 119.585 359.38 119.5C364.359 119.588 369.313 118.771 374 117.09C377.791 115.776 381.152 113.453 383.72 110.37C385.984 107.533 387.193 103.999 387.14 100.37C387.248 97.6248 386.519 94.9117 385.05 92.59C383.344 90.3326 380.994 88.6451 378.31 87.75C374.22 86.3503 369.963 85.493 365.65 85.2L354.44 84.11C352.694 83.9536 350.968 83.6185 349.29 83.11C348.198 82.814 347.208 82.2223 346.43 81.4C345.837 80.6503 345.525 79.7159 345.55 78.76C345.546 78.1195 345.68 77.4856 345.944 76.9021C346.208 76.3186 346.596 75.7992 347.08 75.38C348.276 74.3851 349.698 73.6984 351.22 73.38C353.252 72.9288 355.329 72.7174 357.41 72.75C359.696 72.7117 361.977 72.9842 364.19 73.56C365.909 73.9926 367.5 74.8291 368.83 76C369.839 76.8647 370.541 78.033 370.83 79.33H385.69C385.365 76.0373 383.999 72.9339 381.79 70.47C379.114 67.5418 375.739 65.3399 371.98 64.07C367.416 62.4713 362.605 61.6926 357.77 61.77C352.918 61.6842 348.085 62.3901 343.46 63.86C339.853 64.9605 336.621 67.037 334.12 69.86C332.206 72.3447 331.087 75.3492 330.909 78.4805C330.73 81.6117 331.501 84.7239 333.12 87.41C334.88 89.8493 337.312 91.7224 340.12 92.8C344.114 94.3559 348.323 95.2901 352.6 95.57L363.03 96.57C364.913 96.7103 366.776 97.0455 368.59 97.57C369.737 97.8774 370.775 98.497 371.59 99.36C372.227 100.155 372.561 101.151 372.53 102.17C372.531 102.843 372.384 103.509 372.098 104.119C371.813 104.729 371.397 105.269 370.88 105.7C369.59 106.742 368.067 107.456 366.44 107.78C364.246 108.258 362.005 108.483 359.76 108.45C357.294 108.488 354.836 108.171 352.46 107.51C350.571 107.007 348.83 106.061 347.38 104.75C346.24 103.683 345.466 102.283 345.17 100.75L330.21 100.81Z" fill="black"/>
<path d="M412.23 119.26H395.67V61.9999H427.74C431.993 61.8994 436.216 62.7358 440.11 64.4499C443.431 65.9403 446.241 68.3746 448.19 71.4499C450.037 74.6283 451.01 78.2389 451.01 81.9149C451.01 85.591 450.037 89.2015 448.19 92.3799C446.241 95.4544 443.431 97.8885 440.11 99.3799C436.214 101.088 431.992 101.924 427.74 101.83H412.23V119.26ZM396.67 118.26H411.23V100.79H427.74C431.844 100.884 435.92 100.078 439.68 98.4299C442.828 97.0287 445.495 94.7337 447.35 91.8299C449.093 88.809 450.01 85.3826 450.01 81.8949C450.01 78.4072 449.093 74.9809 447.35 71.9599C445.495 69.0562 442.828 66.7612 439.68 65.3599C435.92 63.7114 431.844 62.9058 427.74 62.9999H396.67V118.26ZM426.84 89.3299H411.23V74.4599H426.84C428.384 74.4244 429.916 74.7282 431.33 75.3499C432.568 75.8915 433.614 76.7942 434.33 77.9399C434.995 79.1682 435.343 80.5431 435.343 81.9399C435.343 83.3368 434.995 84.7116 434.33 85.9399C433.618 87.0849 432.571 87.9824 431.33 88.5099C429.91 89.103 428.378 89.3827 426.84 89.3299ZM412.23 88.3299H426.84C428.236 88.3646 429.623 88.1022 430.91 87.5599C431.953 87.1037 432.833 86.3396 433.43 85.3699C433.995 84.3059 434.29 83.1196 434.29 81.9149C434.29 80.7103 433.995 79.524 433.43 78.4599C432.83 77.4898 431.952 76.7231 430.91 76.2599C429.628 75.6986 428.239 75.4255 426.84 75.4599H412.23V88.3299Z" fill="black"/>
<path d="M515.79 119.26H496.49L481.41 99H474V119.25H457.47V62H491.38C495.315 61.9236 499.22 62.7086 502.82 64.3C505.971 65.6962 508.66 67.9612 510.57 70.83C512.428 73.7345 513.388 77.1225 513.33 80.57C513.391 83.9927 512.43 87.3559 510.57 90.23C508.645 93.071 505.959 95.3131 502.82 96.7C501.737 97.2244 500.614 97.6592 499.46 98L515.79 119.26ZM497 118.26H513.77L497.77 97.36L498.51 97.18C499.853 96.846 501.162 96.3873 502.42 95.81C505.39 94.4953 507.931 92.3709 509.75 89.68C511.508 86.9753 512.414 83.8052 512.35 80.58C512.41 77.3271 511.505 74.1293 509.75 71.39C507.943 68.6761 505.4 66.5326 502.42 65.21C498.956 63.6874 495.203 62.9367 491.42 63.01H458.47V118.26H473V98H481.88L497 118.26ZM489.24 87.61H473V73.61H489.21C490.73 73.5722 492.241 73.8479 493.65 74.42C494.845 74.9147 495.862 75.7581 496.57 76.84C497.238 77.9894 497.59 79.2953 497.59 80.625C497.59 81.9546 497.238 83.2605 496.57 84.41C495.866 85.5076 494.839 86.36 493.63 86.85C492.233 87.3982 490.74 87.6568 489.24 87.61ZM474.03 86.61H489.24C490.609 86.6386 491.969 86.3903 493.24 85.88C494.264 85.4653 495.137 84.7463 495.74 83.82C496.304 82.8314 496.6 81.713 496.6 80.575C496.6 79.4369 496.304 78.3185 495.74 77.33C495.13 76.4324 494.267 75.7363 493.26 75.33C491.991 74.8153 490.629 74.5668 489.26 74.6H474L474.03 86.61Z" fill="black"/>
<path d="M538.53 119.26H522V62H538.56L538.53 119.26ZM522.97 118.26H537.53V63H523L522.97 118.26Z" fill="black"/>
<path d="M583 119.26H566.4V76.85H545V62H604.46V76.85H583V119.26ZM567.43 118.26H582V75.85H603.45V63H546V75.85H567.4L567.43 118.26Z" fill="black"/>
<path d="M637.14 120.5C631.863 120.582 626.613 119.736 621.63 118C617.529 116.618 613.864 114.184 611 110.94C608.464 107.977 607.03 104.229 606.94 100.33V99.8099H623.7L623.76 100.24C623.975 101.697 624.681 103.037 625.76 104.04C627.095 105.238 628.695 106.102 630.43 106.56C632.708 107.195 635.065 107.498 637.43 107.46C639.597 107.492 641.761 107.277 643.88 106.82C645.344 106.531 646.716 105.893 647.88 104.96C648.295 104.626 648.629 104.202 648.858 103.721C649.086 103.24 649.203 102.713 649.2 102.18C649.228 101.395 648.976 100.626 648.49 100.01C647.782 99.2958 646.894 98.7877 645.92 98.5399C644.177 98.0193 642.383 97.6841 640.57 97.5399L630.15 96.5399C625.766 96.2489 621.453 95.2877 617.36 93.6899C614.41 92.5414 611.854 90.5656 610 87.9999C608.266 85.1299 607.442 81.8016 607.639 78.4541C607.835 75.1066 609.042 71.8974 611.1 69.2499C613.712 66.2693 617.102 64.0741 620.89 62.9099C625.615 61.3946 630.558 60.6682 635.52 60.7599C640.475 60.6815 645.404 61.4805 650.08 63.1199C653.991 64.4519 657.503 66.7495 660.29 69.7999C662.77 72.5678 664.246 76.0905 664.48 79.7999V80.3299H647.68L647.62 79.8999C647.451 78.6716 646.844 77.5457 645.91 76.7299C644.688 75.6967 643.244 74.9608 641.69 74.5799C639.564 74.033 637.375 73.774 635.18 73.8099C633.163 73.7735 631.149 73.9749 629.18 74.4099C627.818 74.6797 626.544 75.2807 625.47 76.1599C625.088 76.4823 624.782 76.8854 624.575 77.3401C624.367 77.7949 624.263 78.2901 624.27 78.7899C624.241 79.5144 624.475 80.2249 624.93 80.7899C625.583 81.4677 626.41 81.9522 627.32 82.1899C628.93 82.6727 630.585 82.9877 632.26 83.1299L643.47 84.2099C647.873 84.5118 652.217 85.3928 656.39 86.8299C659.284 87.7715 661.821 89.5755 663.66 91.9999C665.24 94.4869 666.028 97.3952 665.92 100.34C665.98 104.208 664.693 107.977 662.28 111C659.593 114.21 656.085 116.629 652.13 118C647.326 119.734 642.247 120.581 637.14 120.5ZM608 100.81C608.187 104.304 609.519 107.639 611.79 110.3C614.544 113.409 618.064 115.743 622 117.07C626.871 118.764 632.003 119.587 637.16 119.5C642.146 119.59 647.106 118.774 651.8 117.09C655.591 115.776 658.952 113.453 661.52 110.37C663.784 107.533 664.992 103.999 664.94 100.37C665.042 97.6253 664.314 94.9137 662.85 92.5899C661.144 90.3325 658.794 88.6451 656.11 87.7499C652.019 86.3513 647.763 85.494 643.45 85.1999L632.24 84.1099C630.494 83.9535 628.768 83.6184 627.09 83.1099C625.997 82.814 625.008 82.2222 624.23 81.3999C623.636 80.6502 623.325 79.7158 623.35 78.7599C623.345 78.1194 623.48 77.4855 623.744 76.902C624.008 76.3185 624.396 75.7992 624.88 75.3799C626.076 74.385 627.497 73.6983 629.02 73.3799C631.052 72.9288 633.129 72.7173 635.21 72.7499C637.493 72.711 639.771 72.9835 641.98 73.5599C643.688 73.9962 645.268 74.8326 646.59 75.9999C647.597 76.8666 648.298 78.0341 648.59 79.3299H663.45C663.124 76.0372 661.758 72.9338 659.55 70.4699C656.873 67.5418 653.498 65.3399 649.74 64.0699C645.176 62.4712 640.365 61.6926 635.53 61.7699C630.678 61.6842 625.845 62.3901 621.22 63.8599C617.613 64.9605 614.38 67.037 611.88 69.8599C609.966 72.3447 608.847 75.3492 608.668 78.4804C608.49 81.6116 609.261 84.7238 610.88 87.4099C612.64 89.8484 615.073 91.7214 617.88 92.7999C621.878 94.3547 626.09 95.2889 630.37 95.5699L640.8 96.5699C642.683 96.7103 644.546 97.0454 646.36 97.5699C647.508 97.8729 648.548 98.4932 649.36 99.3599C650.022 100.145 650.377 101.143 650.36 102.17C650.361 102.843 650.213 103.509 649.928 104.119C649.643 104.729 649.227 105.269 648.71 105.7C647.42 106.742 645.896 107.456 644.27 107.78C642.076 108.258 639.835 108.483 637.59 108.45C635.124 108.487 632.666 108.171 630.29 107.51C628.401 107.007 626.66 106.061 625.21 104.75C624.07 103.683 623.296 102.283 623 100.75L608 100.81Z" fill="black"/>
<g opacity="0.5">
<path d="M73.0899 44.14H55.9999L51.2699 33.3H22.5399L17.8499 44.14H0.689941L26.5299 -12.61H47.2899L47.3499 -12.47L73.0899 44.14ZM56.2899 43.64H72.2899L46.9999 -12.11H26.8499L1.45994 43.64H17.5199L22.2099 32.8H51.5999L56.2899 43.64ZM46.3999 20.81H27.3999L36.8999 -1.18999L46.3999 20.81ZM28.1499 20.31H45.6399L36.8899 0.100015L28.1499 20.31Z" fill="black"/>
<path d="M103.15 45.37C97.9048 45.4587 92.685 44.6226 87.7299 42.9C83.664 41.5363 80.0311 39.1213 77.2 35.9C74.7025 32.9737 73.2898 29.2761 73.2 25.43V25.18H89.5V25.39C89.7174 26.8998 90.4442 28.2899 91.56 29.33C92.9272 30.5576 94.5649 31.445 96.34 31.92C98.6475 32.5614 101.035 32.8679 103.43 32.83C105.614 32.8646 107.796 32.6465 109.93 32.18C111.436 31.8805 112.848 31.2257 114.05 30.27C114.492 29.9065 114.847 29.448 115.087 28.9287C115.328 28.4093 115.449 27.8424 115.44 27.27C115.459 26.4511 115.198 25.6501 114.7 25C113.962 24.236 113.028 23.6894 112 23.42C110.235 22.9052 108.422 22.5701 106.59 22.42L96.17 21.42C91.8123 21.1334 87.5251 20.1754 83.46 18.58C80.5444 17.4687 78.0174 15.5291 76.19 13C74.5765 10.4718 73.7579 7.51805 73.84 4.52002C73.7445 0.882824 74.9622 -2.66709 77.27 -5.47998C79.8497 -8.42603 83.1977 -10.5969 86.94 -11.75C91.645 -13.2479 96.563 -13.9674 101.5 -13.88C106.435 -13.9481 111.343 -13.1458 116 -11.51C119.86 -10.1847 123.326 -7.91198 126.08 -4.89998C128.531 -2.15834 129.986 1.32947 130.21 5.00002V5.26002H113.92V5.05002C113.739 3.76277 113.1 2.58397 112.12 1.73002C110.874 0.663015 109.394 -0.0942621 107.8 -0.479983C105.655 -1.03646 103.445 -1.29886 101.23 -1.25998C99.2129 -1.29265 97.1991 -1.08791 95.2299 -0.649983C93.8307 -0.374017 92.5217 0.244417 91.42 1.15002C91.0131 1.4955 90.6875 1.92643 90.4663 2.41213C90.245 2.89783 90.1336 3.42634 90.14 3.96002C90.1152 4.74417 90.3665 5.51214 90.85 6.13002C91.538 6.84043 92.4053 7.35178 93.36 7.61002C94.9905 8.09175 96.6658 8.4067 98.36 8.55002L109.57 9.64002C113.949 9.93893 118.269 10.8131 122.42 12.24C125.253 13.1826 127.731 14.9692 129.52 17.36C131.069 19.807 131.839 22.6661 131.73 25.56C131.763 29.3549 130.48 33.0441 128.1 36C125.464 39.1977 122.007 41.6176 118.1 43C113.302 44.6904 108.236 45.4935 103.15 45.37ZM73.71 25.69C73.8482 29.3317 75.2119 32.82 77.58 35.59C80.3604 38.7358 83.9195 41.0948 87.8999 42.43C92.8007 44.132 97.9628 44.958 103.15 44.87C108.163 44.962 113.15 44.142 117.87 42.45C121.702 41.1151 125.099 38.7648 127.7 35.65C129.998 32.7751 131.225 29.1903 131.17 25.51C131.269 22.7108 130.512 19.9479 129 17.59C127.273 15.2868 124.882 13.5666 122.15 12.66C118.037 11.2496 113.758 10.3855 109.42 10.09L98.25 9.00002C96.5201 8.84271 94.8111 8.5076 93.1499 8.00002C92.1063 7.71372 91.1596 7.1505 90.41 6.37002C89.8553 5.66069 89.5653 4.78014 89.59 3.88002C89.5859 3.28464 89.7096 2.69533 89.9529 2.1519C90.1961 1.60847 90.5532 1.12359 91 0.730017C92.1553 -0.228808 93.5292 -0.888238 95 -1.18998C97.0125 -1.63268 99.0695 -1.84074 101.13 -1.80998C103.392 -1.84449 105.648 -1.57884 107.84 -1.01998C109.507 -0.60424 111.054 0.193433 112.36 1.31002C113.369 2.19156 114.046 3.39107 114.28 4.71002H129.62C129.334 1.26329 127.929 -1.99553 125.62 -4.56998C122.926 -7.49445 119.549 -9.70396 115.79 -11C111.199 -12.6028 106.362 -13.3848 101.5 -13.31C96.621 -13.3973 91.7605 -12.688 87.11 -11.21C83.4544 -10.0837 80.183 -7.96509 77.66 -5.08998C75.4332 -2.3787 74.2549 1.04254 74.34 4.55002C74.2589 7.45068 75.0459 10.3095 76.6 12.76C78.3764 15.2303 80.8328 17.1308 83.67 18.23C87.6922 19.7956 91.9323 20.7299 96.24 21L106.66 22C108.526 22.1446 110.372 22.4796 112.17 23C113.279 23.2904 114.286 23.8823 115.08 24.71C115.682 25.459 115.994 26.3997 115.96 27.36C115.963 27.9975 115.825 28.6277 115.555 29.2052C115.285 29.7828 114.891 30.2933 114.4 30.7C113.141 31.7086 111.654 32.395 110.07 32.7C107.897 33.1785 105.675 33.4033 103.45 33.37C101.008 33.4059 98.5734 33.0928 96.22 32.44C94.3624 31.95 92.6484 31.0245 91.22 29.74C90.0824 28.6755 89.318 27.2729 89.0399 25.74L73.71 25.69Z" fill="black"/>
<path d="M155.75 44.14H139.69V-12.61H155.75V44.14ZM140.19 43.64H155.25V-12.11H140.19V43.64Z" fill="black"/>
<path d="M233.59 44.14H216.46L211.76 33.3H183L178.31 44.14H161.18L187 -12.61H207.76L207.83 -12.47L233.59 44.14ZM216.79 43.64H232.79L207.46 -12.11H187.35L162 43.64H178L182.69 32.8H212.07L216.79 43.64ZM206.9 20.81H187.9L197.4 -1.18999L206.9 20.81ZM188.65 20.31H206.14L197.39 0.100015L188.65 20.31Z" fill="black"/>
<path d="M301.92 44.14H282L254.63 5.14001V44.14H239V-12.61H259.5L286.35 25.47V-12.61H301.92V44.14ZM282.23 43.64H301.42V-12.11H286.85V27L259.24 -12.11H239.48V43.64H254.1V3.60001L282.23 43.64Z" fill="black"/>
<path d="M359.38 45.37C354.148 45.4524 348.943 44.6164 344 42.9C339.936 41.5312 336.305 39.117 333.47 35.9C330.972 32.9737 329.56 29.2761 329.47 25.43V25.18H345.76V25.39C345.973 26.9013 346.7 28.2929 347.82 29.33C349.182 30.5597 350.817 31.4475 352.59 31.92C354.898 32.5604 357.285 32.8669 359.68 32.83C361.868 32.8641 364.052 32.6459 366.19 32.18C367.693 31.8805 369.102 31.2256 370.3 30.27C370.743 29.907 371.1 29.4489 371.342 28.9296C371.584 28.4102 371.707 27.8431 371.7 27.27C371.729 26.4264 371.456 25.6 370.93 24.94C370.195 24.1864 369.268 23.6471 368.25 23.38C366.488 22.866 364.679 22.5309 362.85 22.38L352.42 21.38C348.063 21.0921 343.776 20.1342 339.71 18.54C336.794 17.4393 334.261 15.5145 332.42 13C330.807 10.4718 329.988 7.51805 330.07 4.52001C329.979 0.883508 331.196 -2.66488 333.5 -5.47999C336.083 -8.42638 339.435 -10.5971 343.18 -11.75C347.882 -13.2479 352.796 -13.9674 357.73 -13.88C362.653 -13.9542 367.551 -13.1621 372.2 -11.54C376.075 -10.213 379.553 -7.92907 382.31 -4.89999C384.761 -2.15834 386.216 1.32947 386.44 5.00002V5.26002H370.15V5.05001C369.973 3.76388 369.337 2.58498 368.36 1.73001C367.105 0.642943 365.611 -0.131531 364 -0.529985C361.855 -1.08646 359.645 -1.34886 357.43 -1.30999C355.413 -1.34349 353.399 -1.13874 351.43 -0.699986C350.03 -0.426427 348.72 0.192275 347.62 1.10001C347.21 1.44362 346.882 1.87395 346.659 2.35991C346.436 2.84588 346.323 3.37533 346.33 3.91002C346.294 4.6893 346.531 5.45676 347 6.08002C347.69 6.7881 348.556 7.29904 349.51 7.56001C351.141 8.04175 352.816 8.3567 354.51 8.50002L365.72 9.59002C370.102 9.88956 374.426 10.7637 378.58 12.19C381.411 13.1327 383.885 14.9195 385.67 17.31C387.222 19.7559 387.996 22.6151 387.89 25.51C387.953 29.3134 386.695 33.0209 384.33 36C381.68 39.2052 378.205 41.6256 374.28 43C369.498 44.6851 364.449 45.4881 359.38 45.37ZM329.94 25.69C330.083 29.3307 331.446 32.8176 333.81 35.59C336.59 38.7358 340.15 41.0948 344.13 42.43C349.031 44.1312 354.193 44.9571 359.38 44.87C364.396 44.9618 369.387 44.1419 374.11 42.45C377.942 41.1151 381.339 38.7648 383.94 35.65C386.232 32.7718 387.458 29.1892 387.41 25.51C387.516 22.7154 386.774 19.9542 385.28 17.59C383.549 15.2865 381.155 13.5665 378.42 12.66C374.311 11.2505 370.034 10.3865 365.7 10.09L354.48 9.00002C352.753 8.84287 351.048 8.50776 349.39 8.00002C348.343 7.72231 347.394 7.15779 346.65 6.37001C346.088 5.6641 345.794 4.78199 345.82 3.88001C345.821 3.28156 345.951 2.69035 346.201 2.14672C346.451 1.6031 346.816 1.11987 347.27 0.730015C348.426 -0.227077 349.8 -0.886289 351.27 -1.18999C353.282 -1.63269 355.34 -1.84074 357.4 -1.80999C359.662 -1.84449 361.918 -1.57884 364.11 -1.01999C365.779 -0.601922 367.329 0.195403 368.64 1.31001C369.645 2.1946 370.321 3.3927 370.56 4.71001H385.9C385.609 1.26454 384.205 -1.99275 381.9 -4.56999C379.187 -7.50413 375.784 -9.71432 372 -11C367.405 -12.602 362.565 -13.3838 357.7 -13.31C352.821 -13.3973 347.96 -12.688 343.31 -11.21C339.655 -10.0813 336.385 -7.9631 333.86 -5.08999C331.637 -2.3765 330.459 1.04323 330.54 4.55001C330.459 7.45067 331.246 10.3095 332.8 12.76C334.578 15.2327 337.039 17.1335 339.88 18.23C343.908 19.7988 348.155 20.7333 352.47 21L362.89 22C364.756 22.1436 366.602 22.4787 368.4 23C369.51 23.288 370.518 23.8802 371.31 24.71C371.916 25.4576 372.232 26.3984 372.2 27.36C372.201 27.9981 372.061 28.6286 371.79 29.2061C371.518 29.7836 371.122 30.2938 370.63 30.7C369.372 31.7106 367.885 32.3974 366.3 32.7C364.127 33.1785 361.905 33.4033 359.68 33.37C357.238 33.4059 354.803 33.0928 352.45 32.44C350.593 31.9475 348.88 31.0223 347.45 29.74C346.312 28.6755 345.548 27.2729 345.27 25.74L329.94 25.69Z" fill="black"/>
<path d="M412 44.14H395.92V-12.61H427.74C431.954 -12.7094 436.139 -11.8833 440 -10.19C443.285 -8.7324 446.067 -6.33947 448 -3.31003C449.874 -0.202414 450.831 3.37179 450.76 6.99997C450.84 10.645 449.882 14.2377 448 17.36C446.067 20.3894 443.285 22.7823 440 24.24C436.139 25.9333 431.954 26.7594 427.74 26.66H412V44.14ZM396.44 43.64H411.5V26.16H427.76C431.884 26.2481 435.979 25.4395 439.76 23.79C442.949 22.3631 445.65 20.034 447.53 17.09C449.38 14.0541 450.326 10.5543 450.26 6.99997C450.319 3.47897 449.383 0.0127935 447.56 -3.00003C445.68 -5.94406 442.978 -8.27319 439.79 -9.70003C436.009 -11.3495 431.914 -12.1581 427.79 -12.07H396.42L396.44 43.64ZM426.86 14.21H411.48V-0.160028H426.84C428.348 -0.194561 429.846 0.0988665 431.23 0.699971C432.404 1.23325 433.392 2.10346 434.07 3.19997C434.721 4.35806 435.042 5.67218 435 6.99997C435.028 8.35734 434.682 9.69632 434 10.87C433.325 11.9659 432.331 12.8281 431.15 13.34C429.792 13.9356 428.322 14.2323 426.84 14.21H426.86ZM412 13.71H426.86C428.291 13.7449 429.713 13.4721 431.03 12.91C432.12 12.4383 433.038 11.6422 433.66 10.63C434.284 9.53155 434.596 8.28296 434.56 7.01997C434.594 5.77305 434.282 4.54106 433.66 3.45997C433.029 2.43991 432.1 1.63735 431 1.15997C429.688 0.581435 428.263 0.301368 426.83 0.339972H412V13.71Z" fill="black"/>
<path d="M515.29 44.14H496.62L496.54 44.04L481.54 23.89H473.79V44.14H457.72V-12.61H491.38C495.28 -12.687 499.15 -11.9123 502.72 -10.34C505.828 -8.95935 508.478 -6.72206 510.36 -3.89001C512.195 -1.02906 513.142 2.31153 513.08 5.70999C513.143 9.08355 512.196 12.3989 510.36 15.23C508.459 18.0285 505.813 20.2387 502.72 21.61C501.52 22.1582 500.276 22.6032 499 22.94L515.29 44.14ZM496.87 43.64H514.27L498.18 22.64L498.55 22.55C499.923 22.21 501.262 21.7447 502.55 21.16C505.541 19.8383 508.101 17.7041 509.94 15C511.72 12.2512 512.639 9.03403 512.58 5.75999C512.639 2.45781 511.72 -0.788055 509.94 -3.57001C508.107 -6.32129 505.53 -8.49559 502.51 -9.84001C499.004 -11.3757 495.207 -12.1331 491.38 -12.06H458.22V43.64H473.28V23.39H481.78L481.86 23.49L496.87 43.64ZM489.24 12.49H473.24V-1.06001H489.24C490.726 -1.09952 492.204 -0.830523 493.58 -0.270006C494.729 0.202787 495.708 1.01139 496.39 2.04999C497.071 3.14746 497.418 4.41891 497.39 5.70999C497.414 6.99431 497.067 8.25827 496.39 9.34999C495.71 10.4054 494.722 11.226 493.56 11.7C492.188 12.2532 490.719 12.5219 489.24 12.49ZM473.78 12H489.24C490.65 12.0345 492.052 11.7792 493.36 11.25C494.444 10.8188 495.367 10.0603 496 9.07999C496.619 8.06706 496.932 6.89664 496.9 5.70999C496.936 4.51652 496.623 3.33845 496 2.31999C495.361 1.36008 494.448 0.614473 493.38 0.179994C492.064 -0.343613 490.656 -0.595337 489.24 -0.560006H473.78V12Z" fill="black"/>
<path d="M538.28 44.14H522.22V-12.61H538.28V44.14ZM522.72 43.64H537.78V-12.11H522.72V43.64Z" fill="black"/>
<path d="M582.72 44.14H566.65V1.73001H545.21V-12.61H604.21V1.73001H582.72V44.14ZM567.15 43.64H582.22V1.23001H603.67V-12.11H545.67V1.23001H567.11L567.15 43.64Z" fill="black"/>
<path d="M637.14 45.37C631.895 45.457 626.675 44.621 621.72 42.9C617.655 41.5338 614.023 39.1192 611.19 35.9C608.692 32.9737 607.28 29.2761 607.19 25.43V25.18H623.49V25.39C623.707 26.9021 624.438 28.2934 625.56 29.33C626.922 30.5597 628.557 31.4475 630.33 31.92C632.638 32.5604 635.025 32.8669 637.42 32.83C639.608 32.8641 641.792 32.6459 643.93 32.18C645.433 31.8805 646.842 31.2256 648.04 30.27C648.483 29.907 648.839 29.4489 649.082 28.9296C649.324 28.4102 649.447 27.8431 649.44 27.27C649.469 26.4264 649.196 25.6 648.67 24.94C647.933 24.2025 647.01 23.6775 646 23.42C644.238 22.906 642.429 22.5709 640.6 22.42L630.17 21.42C625.812 21.1321 621.526 20.1742 617.46 18.58C614.543 17.4668 612.013 15.5278 610.18 13C608.566 10.4718 607.748 7.51805 607.83 4.52001C607.739 0.883508 608.956 -2.66488 611.26 -5.47999C613.843 -8.42638 617.195 -10.5971 620.94 -11.75C625.642 -13.2479 630.556 -13.9674 635.49 -13.88C640.428 -13.9493 645.34 -13.147 650 -11.51C653.858 -10.1855 657.32 -7.91256 660.07 -4.89999C662.521 -2.15834 663.976 1.32947 664.2 5.00002V5.26002H647.91V5.05001C647.733 3.76388 647.097 2.58498 646.12 1.73001C644.869 0.665079 643.386 -0.0918341 641.79 -0.479985C639.645 -1.03646 637.435 -1.29886 635.22 -1.25999C633.203 -1.29349 631.189 -1.08874 629.22 -0.649985C627.82 -0.376427 626.51 0.242275 625.41 1.15001C625 1.49362 624.672 1.92395 624.449 2.40991C624.226 2.89588 624.113 3.42533 624.12 3.96001C624.095 4.74417 624.346 5.51213 624.83 6.13001C625.52 6.83809 626.386 7.34904 627.34 7.61001C628.971 8.09175 630.646 8.4067 632.34 8.55001L643.5 9.59002C647.882 9.89059 652.205 10.7647 656.36 12.19C659.191 13.1327 661.665 14.9195 663.45 17.31C665.002 19.7559 665.776 22.6151 665.67 25.51C665.728 29.3158 664.462 33.0236 662.09 36C659.44 39.2052 655.965 41.6256 652.04 43C647.258 44.6851 642.209 45.4881 637.14 45.37ZM607.7 25.69C607.838 29.3317 609.202 32.82 611.57 35.59C614.35 38.7358 617.909 41.0948 621.89 42.43C626.791 44.132 631.953 44.958 637.14 44.87C642.156 44.9618 647.147 44.1419 651.87 42.45C655.7 41.1124 659.097 38.7626 661.7 35.65C663.994 32.7726 665.22 29.1895 665.17 25.51C665.264 22.7113 664.508 19.9497 663 17.59C661.267 15.2883 658.874 13.5688 656.14 12.66C652.031 11.2505 647.754 10.3865 643.42 10.09L632.24 9.00002C630.51 8.84173 628.801 8.50664 627.14 8.00002C626.1 7.71207 625.157 7.14897 624.41 6.37001C623.848 5.6641 623.554 4.78199 623.58 3.88001C623.577 3.28387 623.702 2.69409 623.947 2.15061C624.192 1.60713 624.551 1.12266 625 0.730015C626.156 -0.227077 627.53 -0.886289 629 -1.18999C631.012 -1.63269 633.07 -1.84074 635.13 -1.80999C637.413 -1.8433 639.69 -1.57088 641.9 -0.999986C643.567 -0.584243 645.114 0.21343 646.42 1.33001C647.432 2.20897 648.11 3.40968 648.34 4.73001H663.69C663.399 1.28454 661.995 -1.97275 659.69 -4.54999C656.979 -7.49142 653.576 -9.70861 649.79 -11C645.195 -12.602 640.355 -13.3838 635.49 -13.31C630.611 -13.3973 625.75 -12.688 621.1 -11.21C617.445 -10.0813 614.175 -7.9631 611.65 -5.08999C609.427 -2.3765 608.249 1.04323 608.33 4.55001C608.249 7.45067 609.036 10.3095 610.59 12.76C612.368 15.2327 614.828 17.1335 617.67 18.23C621.689 19.7958 625.925 20.7302 630.23 21L640.65 22C642.516 22.1446 644.362 22.4796 646.16 23C647.27 23.288 648.278 23.8802 649.07 24.71C649.676 25.4576 649.992 26.3984 649.96 27.36C649.961 27.9981 649.821 28.6286 649.55 29.2061C649.278 29.7836 648.882 30.2938 648.39 30.7C647.132 31.7106 645.645 32.3974 644.06 32.7C641.887 33.1785 639.665 33.4033 637.44 33.37C634.998 33.4059 632.563 33.0928 630.21 32.44C628.353 31.9475 626.64 31.0223 625.21 29.74C624.072 28.6755 623.308 27.2729 623.03 25.74L607.7 25.69Z" fill="black"/>
</g>
</svg>
