<svg width="119" height="35" viewBox="0 0 119 35" fill="none" xmlns="http://www.w3.org/2000/svg">
<path d="M0.730001 13.58C0.520001 13.29 0.470028 13.1001 0.570028 13.0201C0.644981 12.9768 0.727922 12.9491 0.813864 12.9388C0.899805 12.9285 0.98696 12.9357 1.07003 12.96C1.28536 12.9885 1.49901 13.0286 1.71004 13.08C3.73446 13.6242 5.80216 13.9924 7.89004 14.1801L8.46004 14.2601C9.39559 14.3249 10.3345 14.3249 11.27 14.2601C12.36 14.2001 13.27 14.1301 14.13 14.0501C14.3001 13.9505 14.4985 13.9103 14.6939 13.9356C14.8894 13.9609 15.0709 14.0504 15.21 14.19C15.4268 14.3526 15.613 14.5524 15.76 14.7801C15.96 15.0701 16.15 15.38 16.33 15.7C16.4688 15.9489 16.5924 16.2061 16.7 16.47C16.76 16.71 16.56 17.0601 16.1 17.5501C15.6188 18.0439 15.0819 18.4801 14.5 18.85C14.0997 19.1691 13.6109 19.3577 13.1 19.3901C12.58 19.3401 12.05 19.3001 11.5 19.2801H9.93001C9.05978 19.421 8.18121 19.5045 7.30001 19.5301C6.40584 19.5795 5.50933 19.4953 4.64004 19.2801C3.67719 18.633 2.89023 17.7566 2.35 16.73C1.7481 15.713 1.20715 14.6612 0.730001 13.58Z" fill="black"/>
<path d="M20.63 2.00002C20.41 1.72002 20.34 1.53007 20.41 1.43007C20.4651 1.37391 20.5331 1.33176 20.6079 1.30739C20.6828 1.28302 20.7624 1.27714 20.84 1.29005C21.0453 1.29189 21.2497 1.3153 21.45 1.36C23.7245 1.69516 26.021 1.85894 28.32 1.84999C28.85 1.84999 29.32 1.85005 29.86 1.91005C31.12 1.91005 32.52 1.74005 34.06 1.54005C35.6 1.34005 36.99 1.11 38.23 0.860001C38.4571 0.724996 38.7119 0.643136 38.9751 0.620621C39.2383 0.598107 39.5033 0.635518 39.75 0.729996C40.1895 0.943084 40.5887 1.23064 40.93 1.57997C41.2897 1.92889 41.6239 2.30318 41.93 2.69997C41.93 3.12997 41.64 3.62007 40.93 4.18007C40.2228 4.7553 39.455 5.25156 38.64 5.66005C37.9983 6.01748 37.3025 6.26744 36.58 6.40004C34.986 6.40278 33.3934 6.49629 31.81 6.68007C31.05 6.81007 30.14 6.93997 29.07 7.07997C28.9581 7.24119 28.8547 7.40808 28.76 7.57997L28.63 7.84999C27.8588 9.30133 27.1905 10.805 26.63 12.35L26.19 13.95C27.4 13.62 28.77 13.3201 30.3 13.0601C31.823 12.8083 33.3709 12.7411 34.91 12.86C36.4382 12.9622 37.9212 13.4211 39.24 14.2C40.4372 14.904 41.398 15.9483 42 17.2C42.512 18.3245 42.7812 19.5444 42.79 20.78C42.8051 21.9732 42.6843 23.1641 42.43 24.33C42.0907 25.9139 41.3505 27.3842 40.28 28.6C39.2002 29.8122 37.9177 30.8273 36.49 31.6C35.0568 32.3901 33.5321 33.0014 31.95 33.4201C30.8767 33.7353 29.7845 33.9824 28.68 34.16C27.5394 34.3514 26.3733 34.331 25.24 34.1H25.18H25.07H24.89C24.2082 33.9045 23.577 33.5633 23.04 33.1C22.5624 32.6996 22.1712 32.2063 21.89 31.65C21.7861 31.4763 21.7311 31.2775 21.7311 31.075C21.7311 30.8725 21.7861 30.6738 21.89 30.5C21.9217 30.4868 21.9557 30.48 21.99 30.48C22.0243 30.48 22.0583 30.4868 22.09 30.5L22.35 30.6C22.4057 30.6354 22.4664 30.6624 22.53 30.6801C23.8407 30.8563 25.1745 30.7016 26.41 30.23C27.6058 29.8595 28.7751 29.4085 29.91 28.88C30.26 28.71 30.64 28.53 31.03 28.36C32.4583 27.7371 33.8244 26.9804 35.11 26.1C36.3422 25.2973 37.2302 24.0634 37.6 22.64C37.88 21.1 37.73 20.0001 37.14 19.3101C36.8132 18.9579 36.4192 18.6747 35.9813 18.4772C35.5433 18.2797 35.0703 18.1719 34.59 18.16C33.3822 18.0789 32.169 18.1528 30.98 18.38C29.68 18.62 28.45 18.8801 27.3 19.1701C26.43 19.3901 25.7 19.55 25.1 19.66C24.9147 19.6492 24.7307 19.6223 24.55 19.58L23.76 19.41C23.38 19.33 23.06 19.26 22.76 19.22C21.33 18.79 20.53 18.22 20.38 17.48C20.224 16.711 20.2723 15.9146 20.52 15.1701C20.9465 14.0116 21.2809 12.8211 21.52 11.61C21.52 11.54 21.52 11.47 21.52 11.39C21.58 11.09 21.65 10.6801 21.72 10.1801C21.8264 9.30245 21.98 8.43109 22.18 7.56996C22.2575 6.92387 22.5709 6.32923 23.06 5.90004C22.1652 4.78935 21.3657 3.60511 20.67 2.36C20.6652 2.2392 20.6519 2.11892 20.63 2.00002Z" fill="black"/>
<path d="M46.41 2.00003C46.19 1.72003 46.1101 1.53008 46.1901 1.43008C46.2442 1.37247 46.312 1.32943 46.3871 1.30496C46.4623 1.28049 46.5424 1.27536 46.6201 1.29007C46.822 1.29245 47.023 1.31586 47.22 1.36002C49.4979 1.6953 51.7977 1.85908 54.1 1.85001C54.63 1.85001 55.1001 1.85006 55.6401 1.91006C56.9001 1.91006 58.2901 1.74007 59.8301 1.54007C61.3701 1.34007 62.7601 1.11002 64.0101 0.860016C64.2354 0.72517 64.4884 0.643404 64.7501 0.62088C65.0117 0.598357 65.275 0.635661 65.5201 0.730011C65.9621 0.938862 66.362 1.22693 66.7001 1.57999C67.0598 1.92891 67.394 2.3032 67.7001 2.69998C67.7001 3.12998 67.4101 3.62008 66.7001 4.18008C65.9894 4.75541 65.2182 5.25165 64.4001 5.66007C63.7611 6.01567 63.0688 6.26555 62.35 6.40006C60.756 6.40212 59.1634 6.49564 57.5801 6.68008C56.8201 6.81008 55.9001 6.93999 54.8301 7.07999C54.7182 7.24121 54.6147 7.4081 54.5201 7.57999L54.3901 7.85001C53.6189 9.30135 52.9506 10.805 52.3901 12.35L51.9501 13.95C53.1701 13.62 54.5401 13.3201 56.0601 13.0601C57.5865 12.8084 59.1376 12.7412 60.6801 12.86C62.2048 12.9637 63.6842 13.4226 65.0001 14.2C66.1973 14.904 67.1581 15.9483 67.7601 17.2C68.2768 18.323 68.5462 19.5439 68.5501 20.7801C68.5652 21.9732 68.4444 23.1642 68.1901 24.33C67.8503 25.9118 67.1139 27.3812 66.0501 28.6C64.9676 29.8094 63.6857 30.8241 62.2601 31.6C60.8232 32.3898 59.2952 33.0011 57.7101 33.4201C56.6401 33.7354 55.5513 33.9825 54.4501 34.1601C53.3095 34.3514 52.1433 34.331 51.0101 34.1H51.0001H50.8901H50.72C50.0344 33.9067 49.3994 33.5654 48.86 33.1C48.3823 32.7022 47.9938 32.2082 47.72 31.6501C47.6139 31.477 47.5578 31.2779 47.5578 31.075C47.5578 30.872 47.6139 30.6731 47.72 30.5C47.7517 30.4868 47.7857 30.48 47.8201 30.48C47.8544 30.48 47.8884 30.4868 47.92 30.5L48.1901 30.6L48.36 30.6801C49.6707 30.8568 51.0047 30.702 52.2401 30.23C53.4359 29.8595 54.6052 29.4085 55.7401 28.88C56.1001 28.71 56.47 28.53 56.8601 28.36C58.2894 27.7393 59.6557 26.9825 60.9401 26.1C62.1778 25.3031 63.0675 24.0668 63.4301 22.64C63.7101 21.1 63.56 20.0001 62.97 19.3101C62.6447 18.9562 62.251 18.6717 61.8127 18.474C61.3745 18.2764 60.9007 18.1696 60.42 18.1601C59.2123 18.0791 57.9991 18.153 56.8101 18.38C55.5101 18.62 54.2901 18.8801 53.1301 19.1701C52.2701 19.3901 51.5301 19.5501 50.9301 19.6601C50.7448 19.6492 50.5608 19.6224 50.3801 19.58L49.5901 19.4101C49.2101 19.3301 48.8901 19.26 48.5901 19.22C47.1501 18.79 46.3601 18.22 46.2001 17.48C46.0491 16.7107 46.0973 15.9156 46.3401 15.1701C46.7666 14.0116 47.101 12.8212 47.3401 11.61C47.3401 11.54 47.3401 11.47 47.3401 11.39C47.4001 11.09 47.4601 10.6801 47.5301 10.1801C47.64 9.3023 47.7968 8.43094 48.0001 7.56998C48.0703 6.92387 48.3808 6.32785 48.8701 5.90006C47.9753 4.78936 47.1757 3.60513 46.48 2.36002C46.4652 2.23852 46.4418 2.11823 46.41 2.00003Z" fill="black"/>
<path d="M84.75 4.31009C84.98 4.47009 85.08 4.60009 85.02 4.68009C84.9711 4.73958 84.9101 4.78809 84.8412 4.82254C84.7723 4.857 84.6969 4.87657 84.62 4.88004C84.3722 4.93081 84.1219 4.96752 83.87 4.99002C83.5332 5.02909 83.1992 5.08926 82.87 5.17008C82.51 5.27696 82.1715 5.4462 81.87 5.67008C80.8492 6.42111 80.0313 7.41428 79.49 8.56009C78.8495 9.83007 78.3659 11.1733 78.05 12.5601C77.7299 13.8734 77.5224 15.2115 77.43 16.5601C77.3405 18.1689 77.4007 19.7824 77.61 21.38C77.8295 23.0488 78.3122 24.6723 79.04 26.19C80.18 28.53 81.88 29.59 84.13 29.35C86.0787 29.1815 87.9222 28.393 89.39 27.1C90.8543 25.7715 91.9908 24.1217 92.71 22.2801C93.5025 20.3301 93.9394 18.254 94 16.1501C94.0822 14.0636 93.784 11.9797 93.12 10C92.7613 8.99842 92.2811 8.04465 91.69 7.16007C91.1857 6.51971 90.6269 5.92413 90.02 5.38004C89.4537 4.83014 88.8184 4.35614 88.13 3.97C87.3272 3.41392 86.4961 2.89997 85.64 2.43009C84.7841 1.98615 83.9063 1.58556 83.01 1.23001C83.16 0.910014 83.64 0.720067 84.44 0.660067C85.2886 0.590524 86.1414 0.590524 86.99 0.660067C87.6608 0.705644 88.3285 0.78911 88.99 0.910067C90.9521 1.53008 92.7267 2.63395 94.15 4.12003C95.9117 6.04575 97.2578 8.31383 98.1043 10.7827C98.9508 13.2517 99.2795 15.8684 99.07 18.47C98.7476 21.1018 97.9764 23.6589 96.79 26.0301C95.627 28.3324 93.9086 30.3087 91.79 31.7801C90.6287 32.5783 89.3546 33.1985 88.01 33.62C86.5777 34.0816 85.0725 34.2748 83.57 34.19C81.9704 34.0906 80.419 33.6033 79.05 32.7701C77.1659 31.6138 75.6151 29.9872 74.55 28.0501C73.4525 26.0659 72.6922 23.9133 72.3 21.6801C71.8949 19.4713 71.7539 17.2221 71.88 14.98C71.9703 13.0322 72.3062 11.1036 72.88 9.24002C73.4452 7.27536 74.6441 5.55264 76.29 4.34C76.9473 3.78675 77.6904 3.34435 78.49 3.03006C79.3307 2.72095 80.2253 2.58487 81.12 2.63004C81.8065 2.6639 82.4826 2.81257 83.12 3.06998C83.7565 3.34391 84.3161 3.76977 84.75 4.31009Z" fill="black"/>
<path d="M102.72 13.5799C102.52 13.2899 102.47 13.1 102.57 13.02C102.643 12.977 102.725 12.9494 102.809 12.939C102.893 12.9287 102.979 12.9358 103.06 12.9599C103.279 12.9875 103.496 13.0276 103.71 13.0799C105.734 13.6241 107.802 13.9923 109.89 14.18L110.46 14.26C111.396 14.3248 112.334 14.3248 113.27 14.26C114.35 14.2 115.27 14.13 116.13 14.05C116.299 13.9512 116.495 13.9114 116.689 13.9367C116.883 13.9621 117.063 14.0511 117.2 14.1899C117.419 14.3497 117.606 14.5501 117.75 14.78C117.961 15.0732 118.151 15.3805 118.32 15.6999C118.461 15.9491 118.588 16.2062 118.7 16.4699C118.7 16.7099 118.55 17.06 118.09 17.55C117.615 18.046 117.081 18.4825 116.5 18.8499C116.097 19.171 115.604 19.3596 115.09 19.39C114.58 19.34 114.09 19.3 113.5 19.28H111.93C111.056 19.4214 110.175 19.5049 109.29 19.53C108.396 19.5781 107.5 19.4939 106.63 19.28C105.671 18.6316 104.887 17.7554 104.35 16.7299C103.749 15.7107 103.205 14.659 102.72 13.5799Z" fill="black"/>
</svg>
