<svg width="688" height="281" viewBox="0 0 688 281" fill="none" xmlns="http://www.w3.org/2000/svg">
<path d="M53.88 180.03H18.78V137.61H3.20996V193.86H53.88V180.03Z" fill="black"/>
<path d="M111.89 193.86V181.26H76.2501L77.8501 171.4H109.34V160.08H77.8501L76.2501 150.21H111.51V137.61H59.5701L63.8501 165.74L59.5701 193.86H111.89Z" fill="black"/>
<path d="M203.76 193.86V137.61H179.76L162.71 178.74L145.56 137.61H121.52V193.86H136.34V151.38L154.79 193.86H170.5L188.99 151.2V193.86H203.76Z" fill="black"/>
<path d="M228.45 191.43C233.966 193.854 239.925 195.106 245.95 195.106C251.975 195.106 257.934 193.854 263.45 191.43C268.272 189.175 272.352 185.591 275.21 181.1C277.947 176.444 279.39 171.141 279.39 165.74C279.39 160.339 277.947 155.036 275.21 150.38C272.352 145.889 268.272 142.305 263.45 140.05C257.934 137.626 251.975 136.374 245.95 136.374C239.925 136.374 233.966 137.626 228.45 140.05C223.624 142.296 219.545 145.881 216.7 150.38C213.976 155.041 212.541 160.342 212.541 165.74C212.541 171.138 213.976 176.439 216.7 181.1C219.545 185.599 223.624 189.184 228.45 191.43ZM230.39 157.49C231.844 155.129 233.982 153.266 236.52 152.15C242.548 149.67 249.312 149.67 255.34 152.15C257.879 153.274 260.021 155.134 261.49 157.49C262.906 160.009 263.649 162.85 263.649 165.74C263.649 168.63 262.906 171.471 261.49 173.99C260.018 176.343 257.877 178.203 255.34 179.33C249.312 181.81 242.548 181.81 236.52 179.33C233.984 178.211 231.846 176.349 230.39 173.99C228.989 171.466 228.254 168.627 228.254 165.74C228.254 162.853 228.989 160.014 230.39 157.49Z" fill="black"/>
<path d="M303.21 154.37L330.96 193.86H350.54V137.61H335.46V176.23L308.24 137.61H288.1V193.86H303.21V154.37Z" fill="black"/>
<path d="M394.93 175.71H410.31C410.151 175.938 409.981 176.159 409.8 176.37C408.01 178.448 405.702 180.014 403.11 180.91C400.001 181.997 396.723 182.522 393.43 182.46C390.052 182.543 386.696 181.899 383.59 180.57C380.929 179.398 378.7 177.427 377.21 174.93C375.65 172.124 374.88 168.949 374.98 165.74C374.876 162.611 375.589 159.509 377.05 156.74C378.389 154.331 380.444 152.399 382.93 151.21C385.786 149.893 388.906 149.25 392.05 149.33C394.685 149.296 397.31 149.671 399.83 150.44C401.945 151.067 403.897 152.149 405.55 153.61C406.994 154.914 408.034 156.604 408.55 158.48H424.23C423.462 154.258 421.619 150.304 418.88 147C415.917 143.528 412.137 140.847 407.88 139.2C402.822 137.23 397.427 136.271 392 136.38C386.232 136.279 380.513 137.465 375.26 139.85C370.48 142.037 366.437 145.562 363.62 150C360.855 154.799 359.4 160.241 359.4 165.78C359.4 171.319 360.855 176.761 363.62 181.56C366.374 185.935 370.323 189.429 375 191.63C380.044 193.994 385.56 195.181 391.13 195.1C396.397 195.258 401.616 194.063 406.29 191.63C408.819 190.268 411.09 188.474 413 186.33L413.74 193.86H424.74V164.76H394.93V175.71Z" fill="black"/>
<path d="M479.44 171.36C482.497 170.013 485.111 167.829 486.98 165.06C488.789 162.274 489.722 159.011 489.66 155.69C489.72 152.338 488.788 149.043 486.98 146.22C485.126 143.424 482.509 141.217 479.44 139.86C475.906 138.299 472.073 137.531 468.21 137.61H434.8V193.86H450.36V173.61H458.48L473.57 193.86H491.57L475.4 172.77C476.788 172.429 478.141 171.957 479.44 171.36ZM450.36 149.16H466.07C467.521 149.124 468.964 149.387 470.31 149.93C471.412 150.388 472.352 151.165 473.01 152.16C473.619 153.226 473.939 154.432 473.939 155.66C473.939 156.888 473.619 158.094 473.01 159.16C472.35 160.166 471.402 160.95 470.29 161.41C468.95 161.947 467.514 162.206 466.07 162.17H450.36V149.16Z" fill="black"/>
<path d="M518.68 137.61L493.07 193.86H509.68L514.37 183H543.43L548.12 193.83H564.7L539.12 137.58L518.68 137.61ZM519.77 170.54L528.88 149.45L538 170.54H519.77Z" fill="black"/>
<path d="M614.27 162.4C610.138 160.98 605.838 160.11 601.48 159.81L590.27 158.73C588.574 158.567 586.898 158.232 585.27 157.73C584.265 157.465 583.354 156.925 582.64 156.17C582.117 155.512 581.844 154.69 581.87 153.85C581.865 153.28 581.985 152.716 582.221 152.198C582.458 151.679 582.806 151.219 583.24 150.85C584.373 149.916 585.72 149.277 587.16 148.99C589.155 148.546 591.196 148.338 593.24 148.37C595.475 148.334 597.705 148.6 599.87 149.16C601.504 149.56 603.021 150.337 604.3 151.43C605.322 152.322 605.987 153.555 606.17 154.9H622C621.773 151.304 620.339 147.89 617.93 145.21C615.204 142.216 611.764 139.962 607.93 138.66C603.311 137.045 598.443 136.26 593.55 136.34C588.614 136.248 583.697 136.978 579 138.5C575.3 139.63 571.989 141.77 569.44 144.68C567.173 147.438 565.973 150.92 566.06 154.49C565.975 157.439 566.78 160.345 568.37 162.83C570.165 165.351 572.662 167.287 575.55 168.4C579.593 169.984 583.857 170.932 588.19 171.21L598.61 172.21C600.46 172.354 602.289 172.689 604.07 173.21C605.134 173.487 606.1 174.055 606.86 174.85C607.427 175.553 607.721 176.437 607.69 177.34C607.689 177.941 607.556 178.535 607.3 179.079C607.044 179.624 606.672 180.105 606.21 180.49C604.985 181.486 603.537 182.172 601.99 182.49C599.836 182.961 597.634 183.179 595.43 183.14C593.009 183.182 590.594 182.876 588.26 182.23C586.45 181.743 584.781 180.835 583.39 179.58C582.229 178.502 581.473 177.058 581.25 175.49H565.45C565.528 179.281 566.917 182.927 569.38 185.81C572.191 188.99 575.787 191.377 579.81 192.73C584.737 194.44 589.926 195.27 595.14 195.18C600.206 195.255 605.242 194.401 610 192.66C613.877 191.317 617.311 188.938 619.93 185.78C622.266 182.864 623.515 179.226 623.46 175.49C623.573 172.645 622.816 169.833 621.29 167.43C619.521 165.073 617.07 163.317 614.27 162.4Z" fill="black"/>
<path d="M685.22 167.43C683.454 165.085 681.011 163.34 678.22 162.43C674.092 161.011 669.795 160.141 665.44 159.84L654.22 158.76C652.524 158.595 650.849 158.26 649.22 157.76C648.218 157.496 647.31 156.955 646.6 156.2C646.072 155.545 645.799 154.721 645.83 153.88C645.823 153.31 645.942 152.745 646.178 152.226C646.415 151.708 646.764 151.248 647.2 150.88C648.33 149.947 649.673 149.307 651.11 149.02C653.105 148.577 655.146 148.369 657.19 148.4C659.429 148.365 661.662 148.63 663.83 149.19C665.461 149.59 666.975 150.367 668.25 151.46C669.275 152.351 669.943 153.584 670.13 154.93H685.95C685.723 151.334 684.289 147.92 681.88 145.24C679.154 142.246 675.714 139.992 671.88 138.69C667.261 137.074 662.393 136.289 657.5 136.37C652.582 136.274 647.683 136.994 643 138.5C639.301 139.632 635.991 141.772 633.44 144.68C631.454 147.245 630.289 150.351 630.098 153.589C629.907 156.828 630.699 160.049 632.37 162.83C634.165 165.351 636.662 167.288 639.55 168.4C643.593 169.984 647.857 170.932 652.19 171.21L662.62 172.21C664.466 172.355 666.292 172.69 668.07 173.21C669.138 173.485 670.108 174.053 670.87 174.85C671.434 175.554 671.725 176.438 671.69 177.34C671.691 177.942 671.56 178.536 671.304 179.081C671.048 179.626 670.674 180.107 670.21 180.49C668.986 181.488 667.538 182.175 665.99 182.49C663.836 182.961 661.634 183.179 659.43 183.14C657.012 183.182 654.601 182.876 652.27 182.23C650.457 181.743 648.785 180.835 647.39 179.58C646.229 178.502 645.473 177.058 645.25 175.49H629.42C629.502 179.282 630.894 182.928 633.36 185.81C636.167 188.99 639.76 191.376 643.78 192.73C648.71 194.441 653.902 195.27 659.12 195.18C664.164 195.276 669.183 194.449 673.93 192.74C677.811 191.4 681.249 189.02 683.87 185.86C686.204 182.943 687.448 179.305 687.39 175.57C687.519 172.698 686.762 169.856 685.22 167.43Z" fill="black"/>
<path d="M36.4 260.71H51.78C51.61 260.94 51.45 261.16 51.27 261.37C49.4784 263.446 47.1707 265.012 44.58 265.91C41.4708 266.997 38.1931 267.521 34.9 267.46C31.5224 267.543 28.1664 266.899 25.06 265.57C22.3971 264.401 20.1664 262.429 18.68 259.93C17.1155 257.126 16.3446 253.949 16.45 250.74C16.3471 247.612 17.0569 244.511 18.51 241.74C19.8551 239.333 21.9127 237.401 24.4 236.21C27.2526 234.894 30.3694 234.251 33.51 234.33C36.1452 234.294 38.7699 234.669 41.29 235.44C43.4066 236.063 45.3597 237.145 47.01 238.61C48.4497 239.918 49.4899 241.606 50.01 243.48H65.69C64.9217 239.258 63.0792 235.304 60.34 232C57.3784 228.526 53.5978 225.846 49.34 224.2C44.2876 222.237 38.8995 221.282 33.48 221.39C27.7085 221.291 21.9871 222.476 16.73 224.86C11.9487 227.04 7.90447 230.563 5.09002 235C2.32494 239.799 0.869507 245.241 0.869507 250.78C0.869507 256.319 2.32494 261.761 5.09002 266.56C7.84984 270.964 11.8221 274.478 16.53 276.68C21.5706 279.044 27.083 280.231 32.65 280.15C37.92 280.308 43.1427 279.113 47.82 276.68C50.3468 275.315 52.6172 273.522 54.53 271.38L55.27 278.91H66.27V249.81H36.4V260.71Z" fill="black"/>
<path d="M91.82 222.61H76.26V278.86H91.82V222.61Z" fill="black"/>
<path d="M144.22 263.74L127.07 222.61H103.04V278.86H117.85V236.38L136.3 278.86H152.01L170.5 236.2V278.86H185.27V222.61H161.27L144.22 263.74Z" fill="black"/>
<path d="M212.05 222.61H196.49V278.86H247.15V265.03H212.05V222.61Z" fill="black"/>
<path d="M271.13 256.4H302.61V245.08H271.13L269.52 235.21H304.78V222.61H252.85L257.12 250.74L252.85 278.86H305.16V266.26H269.52L271.13 256.4Z" fill="black"/>
<path d="M310.37 236.45H331.82V278.86H347.38V236.45H368.83V222.61H310.37V236.45Z" fill="black"/>
<path d="M54.38 118H2.70996V60.77H19.27V103.19H54.38V118ZM3.70996 117H53.38V104.19H18.27V61.77H3.70996V117Z" fill="black"/>
<path d="M112.39 118H59L63.35 89.38L59 60.77H112V74.37H76.84L78.28 83.24H109.84V95.56H78.28L76.84 104.42H112.39V118ZM60.16 117H111.39V105.4H75.66L77.43 94.54H108.84V84.24H77.43L75.66 73.37H111V61.77H60.16L64.35 89.4V89.47L60.16 117Z" fill="black"/>
<path d="M204.26 118H188.49V77.27L170.83 118H154.46L136.84 77.44V118H121V60.77H145.87L162.69 101.1L179.41 60.77H204.24L204.26 118ZM189.49 117H203.26V61.77H180.1L162.71 103.7L145.23 61.77H122V117H135.82V75L136.77 74.8L155.11 117H170.17L188.53 74.64L189.53 74.84L189.49 117Z" fill="black"/>
<path d="M246 119.26C239.891 119.377 233.835 118.105 228.29 115.54C223.366 113.253 219.202 109.602 216.29 105.02C213.405 100.326 211.917 94.9084 212 89.3999C211.899 83.8974 213.366 78.4797 216.23 73.7799C219.142 69.198 223.306 65.5471 228.23 63.2599C233.809 60.8086 239.836 59.5428 245.93 59.5428C252.024 59.5428 258.051 60.8086 263.63 63.2599C268.548 65.5505 272.711 69.1965 275.63 73.7699C278.513 78.4666 279.991 83.8901 279.89 89.3999C279.978 94.9028 278.49 100.316 275.6 105C272.687 109.578 268.522 113.225 263.6 115.51C258.093 118.076 252.075 119.359 246 119.26ZM246 60.5399C240.04 60.4218 234.131 61.6596 228.72 64.1599C223.979 66.3706 219.971 69.8928 217.17 74.3099C214.373 78.8411 212.927 84.0757 213 89.3999C212.9 94.7152 214.315 99.9492 217.08 104.49C219.879 108.906 223.888 112.426 228.63 114.63C234.072 117.02 239.951 118.255 245.895 118.255C251.839 118.255 257.718 117.02 263.16 114.63C267.898 112.411 271.907 108.891 274.72 104.48C277.492 99.9413 278.914 94.7072 278.82 89.3899C278.92 84.0719 277.497 78.8363 274.72 74.2999C271.916 69.8984 267.922 66.3824 263.2 64.1599C257.815 61.6652 251.934 60.4273 246 60.5399ZM246 105.35C242.686 105.426 239.395 104.774 236.36 103.44C233.732 102.279 231.515 100.352 230 97.9099C228.554 95.3101 227.796 92.3846 227.796 89.4099C227.796 86.4352 228.554 83.5097 230 80.9099C231.512 78.4669 233.725 76.5363 236.35 75.3699C242.513 72.8362 249.427 72.8362 255.59 75.3699C258.213 76.5438 260.429 78.468 261.96 80.8999C263.417 83.496 264.182 86.423 264.182 89.3999C264.182 92.3768 263.417 95.3038 261.96 97.8999C260.432 100.334 258.215 102.259 255.59 103.43C252.572 104.763 249.298 105.418 246 105.35ZM246 74.4499C242.832 74.3756 239.685 74.9933 236.78 76.2599C234.337 77.3474 232.275 79.141 230.86 81.4099C229.506 83.8588 228.795 86.6115 228.795 89.4099C228.795 92.2084 229.506 94.961 230.86 97.4099C232.275 99.6788 234.337 101.472 236.78 102.56C242.676 104.973 249.284 104.973 255.18 102.56C257.628 101.467 259.695 99.6708 261.12 97.3999C262.489 94.9558 263.208 92.2013 263.208 89.3999C263.208 86.5985 262.489 83.844 261.12 81.3999C259.695 79.132 257.627 77.3393 255.18 76.2499C252.287 74.9893 249.154 74.375 246 74.4499Z" fill="black"/>
<path d="M351 118H330.7L303.7 79.59V118H287.6V60.77H308.49L335 98.32V60.77H351V118ZM331.18 117H350V61.77H336V101.47L308 61.77H288.6V117H302.71V76.44L331.18 117Z" fill="black"/>
<path d="M391.15 119.26C385.507 119.335 379.921 118.132 374.81 115.74C370.02 113.489 365.977 109.91 363.16 105.43C360.235 100.615 358.749 95.0626 358.88 89.43C358.743 83.7723 360.243 78.1955 363.2 73.37C366.078 68.8715 370.192 65.2987 375.05 63.08C380.389 60.6718 386.194 59.4733 392.05 59.57C397.535 59.4642 402.987 60.4324 408.1 62.4199C412.434 64.0962 416.283 66.8249 419.3 70.36C422.109 73.7359 424 77.7795 424.79 82.0999L424.9 82.69H408.2L408.1 82.32C407.594 80.5314 406.592 78.9226 405.21 77.68C403.605 76.2788 401.72 75.2356 399.68 74.62C397.207 73.8703 394.634 73.506 392.05 73.54C388.984 73.4627 385.94 74.0851 383.15 75.36C380.76 76.516 378.781 78.376 377.48 80.69C376.075 83.3835 375.386 86.3933 375.48 89.43C375.38 92.5483 376.13 95.6352 377.65 98.36C379.082 100.77 381.233 102.673 383.8 103.8C386.84 105.102 390.124 105.733 393.43 105.65C396.665 105.707 399.884 105.193 402.94 104.13C405.377 103.278 407.558 101.823 409.28 99.9H394.43V87.9H425.25V118H413.31L412.63 111.12C410.847 112.944 408.801 114.491 406.56 115.71C401.807 118.179 396.504 119.4 391.15 119.26ZM392 60.54C386.306 60.4631 380.665 61.6446 375.48 64C370.782 66.12 366.796 69.5505 364 73.8799C361.144 78.5434 359.7 83.9336 359.84 89.4C359.715 94.8582 361.159 100.238 364 104.9C366.712 109.222 370.611 112.672 375.23 114.84C380.208 117.164 385.647 118.333 391.14 118.26C396.322 118.406 401.456 117.233 406.06 114.85C408.537 113.513 410.763 111.757 412.64 109.66L413.4 108.8L414.2 117.02H424.2V88.9199H395.43V98.9199H411.29L410.71 99.72C410.54 99.95 410.37 100.18 410.19 100.4C408.336 102.54 405.953 104.157 403.28 105.09C400.115 106.193 396.781 106.728 393.43 106.67C389.98 106.751 386.552 106.089 383.38 104.73C380.631 103.514 378.328 101.473 376.79 98.8899C375.178 96.011 374.38 92.7479 374.48 89.4499C374.383 86.2412 375.117 83.0619 376.61 80.22C378.007 77.729 380.137 75.7285 382.71 74.4899C385.635 73.1419 388.83 72.4817 392.05 72.5599C394.74 72.5087 397.421 72.873 400 73.6399C402.182 74.2911 404.195 75.4104 405.9 76.9199C407.336 78.1964 408.406 79.8325 409 81.66H423.69C422.853 77.7353 421.068 74.0753 418.49 71C415.577 67.59 411.863 64.9577 407.68 63.34C402.685 61.3973 397.359 60.4463 392 60.54Z" fill="black"/>
<path d="M492.62 118H473.32L458.23 97.7699H450.86V118H434.3V60.7699H468.21C472.145 60.6935 476.05 61.4785 479.65 63.0699C482.802 64.4693 485.49 66.7379 487.4 69.6099C489.26 72.5135 490.22 75.9022 490.16 79.3499C490.222 82.7711 489.257 86.1323 487.39 88.9999C485.466 91.8407 482.785 94.0855 479.65 95.4799C478.562 95.9754 477.439 96.3899 476.29 96.7199L492.62 118ZM473.82 117H490.59L474.59 96.1099L475.33 95.9199C476.673 95.5843 477.981 95.1257 479.24 94.5499C482.208 93.2361 484.748 91.1157 486.57 88.4299C488.321 85.7222 489.227 82.5542 489.17 79.3299C489.227 76.0743 488.322 72.8743 486.57 70.1299C484.754 67.4323 482.208 65.3064 479.23 63.9999C475.768 62.4715 472.014 61.7172 468.23 61.7899H435.3V117H449.86V96.7699H458.74L473.82 117ZM466.07 86.3499H449.86V72.3199H466.07C467.589 72.2881 469.1 72.5636 470.51 73.1299C471.703 73.6279 472.719 74.4705 473.43 75.5499C474.098 76.6994 474.45 78.0053 474.45 79.3349C474.45 80.6645 474.098 81.9705 473.43 83.1199C472.721 84.2136 471.696 85.0649 470.49 85.5599C469.087 86.1282 467.583 86.4038 466.07 86.3699V86.3499ZM450.86 85.3499H466.07C467.439 85.3831 468.801 85.1346 470.07 84.6199C471.086 84.2251 471.955 83.5268 472.56 82.6199C473.127 81.6305 473.425 80.5101 473.425 79.3699C473.425 78.2297 473.127 77.1094 472.56 76.1199C471.95 75.2224 471.086 74.5263 470.08 74.1199C468.809 73.6106 467.449 73.3623 466.08 73.3899H450.86V85.3499Z" fill="black"/>
<path d="M565.47 118H547.79L543.1 107.17H514.7L510 118H492.29L518.36 60.7499H539.44L539.58 61.0499L565.47 118ZM548.47 117H563.94L538.8 61.7699H519L493.85 117H509.35L514 106.19H543.71L548.47 117ZM538.78 94.6999H519L528.87 71.8499L538.78 94.6999ZM520.53 93.6999H537.26L528.88 74.3699L520.53 93.6999Z" fill="black"/>
<path d="M595.14 119.26C589.864 119.346 584.614 118.503 579.63 116.77C575.53 115.387 571.865 112.952 569 109.71C566.485 106.735 565.073 102.985 565 99.0899V98.5699H581.7L581.76 98.9999C581.971 100.459 582.677 101.8 583.76 102.8C585.097 104.001 586.702 104.865 588.44 105.32C590.718 105.956 593.075 106.259 595.44 106.22C597.604 106.256 599.765 106.041 601.88 105.58C603.343 105.29 604.715 104.652 605.88 103.72C606.291 103.385 606.622 102.962 606.848 102.483C607.075 102.004 607.192 101.48 607.19 100.95C607.22 100.162 606.968 99.3892 606.48 98.7699C605.773 98.0559 604.884 97.5477 603.91 97.2999C602.165 96.785 600.373 96.4499 598.56 96.2999L588.14 95.2999C583.756 95.0071 579.443 94.046 575.35 92.4499C572.378 91.2918 569.807 89.2939 567.95 86.6999C566.23 83.8334 565.416 80.5138 565.616 77.1766C565.816 73.8394 567.02 70.6406 569.07 67.9999C571.685 65.0225 575.073 62.828 578.86 61.6599C583.591 60.1532 588.536 59.4303 593.5 59.5199C598.45 59.4447 603.375 60.2402 608.05 61.8699C611.961 63.2019 615.473 65.4996 618.26 68.5499C620.739 71.3198 622.218 74.8407 622.46 78.5499V79.0899H605.66L605.61 78.6499C605.439 77.4229 604.827 76.2999 603.89 75.4899C602.672 74.4494 601.226 73.7096 599.67 73.3299C597.548 72.7824 595.361 72.5234 593.17 72.5599C591.153 72.5273 589.139 72.732 587.17 73.1699C585.812 73.4343 584.54 74.0323 583.47 74.9099C583.087 75.2318 582.779 75.6345 582.57 76.0893C582.361 76.544 582.255 77.0394 582.26 77.5399C582.236 78.2637 582.47 78.9724 582.92 79.5399C583.589 80.2453 584.44 80.7508 585.38 80.9999C586.99 81.4827 588.645 81.7977 590.32 81.9399L601.53 82.9999C605.932 83.304 610.275 84.1814 614.45 85.6099C617.328 86.5708 619.844 88.3887 621.66 90.8199C623.242 93.31 624.03 96.2219 623.92 99.1699C623.971 103.017 622.688 106.762 620.29 109.77C617.598 112.978 614.087 115.397 610.13 116.77C605.325 118.501 600.246 119.344 595.14 119.26ZM566 99.5699C566.19 103.065 567.526 106.4 569.8 109.06C572.545 112.175 576.063 114.511 580 115.83C584.872 117.522 590.003 118.345 595.16 118.26C600.146 118.35 605.106 117.534 609.8 115.85C613.591 114.536 616.952 112.213 619.52 109.13C621.784 106.293 622.992 102.759 622.94 99.1299C623.05 96.3845 622.321 93.6706 620.85 91.3499C619.152 89.0848 616.799 87.3954 614.11 86.5099C610.016 85.1179 605.756 84.2739 601.44 83.9999L590.22 82.9099C588.473 82.7581 586.747 82.423 585.07 81.9099C583.974 81.6214 582.983 81.0285 582.21 80.1999C581.615 79.4511 581.303 78.5161 581.33 77.5599C581.326 76.9199 581.461 76.2866 581.727 75.7045C581.993 75.1224 582.383 74.6054 582.87 74.1899C584.06 73.1913 585.479 72.504 587 72.1899C589.035 71.7356 591.115 71.5209 593.2 71.5499C595.483 71.5116 597.76 71.7841 599.97 72.3599C601.679 72.7779 603.265 73.5933 604.6 74.7399C605.589 75.6169 606.273 76.7872 606.55 78.0799H621.41C621.086 74.7837 619.72 71.6765 617.51 69.2099C614.831 66.2848 611.457 64.0834 607.7 62.8099C603.138 61.2189 598.331 60.4437 593.5 60.5199C588.645 60.4291 583.807 61.1352 579.18 62.6099C575.571 63.7057 572.337 65.783 569.84 68.6099C567.655 71.2827 566.499 74.6489 566.58 78.0999C566.501 80.9477 567.274 83.7541 568.8 86.1599C570.556 88.6021 572.99 90.476 575.8 91.5499C579.793 93.1098 584.002 94.0473 588.28 94.3299L598.71 95.3299C600.593 95.4696 602.456 95.8047 604.27 96.3299C605.416 96.634 606.454 97.2503 607.27 98.1099C607.907 98.9091 608.24 99.9083 608.21 100.93C608.211 101.602 608.063 102.266 607.778 102.874C607.493 103.483 607.077 104.021 606.56 104.45C605.272 105.496 603.748 106.21 602.12 106.53C599.93 107.013 597.692 107.237 595.45 107.2C592.981 107.243 590.518 106.926 588.14 106.26C586.251 105.757 584.51 104.811 583.06 103.5C581.921 102.432 581.148 101.032 580.85 99.4999L566 99.5699Z" fill="black"/>
<path d="M659.12 119.26C653.844 119.347 648.594 118.504 643.61 116.77C639.518 115.382 635.861 112.948 633 109.71C630.471 106.739 629.042 102.99 628.95 99.0899V98.5699H645.73L645.79 98.9999C646.003 100.458 646.709 101.799 647.79 102.8C649.123 104.001 650.724 104.865 652.46 105.32C654.738 105.956 657.095 106.259 659.46 106.22C661.627 106.257 663.792 106.042 665.91 105.58C667.374 105.291 668.746 104.653 669.91 103.72C670.321 103.385 670.652 102.962 670.878 102.483C671.105 102.004 671.222 101.48 671.22 100.95C671.254 100.161 671.002 99.3871 670.51 98.7699C669.807 98.0558 668.921 97.5475 667.95 97.2999C666.205 96.7868 664.412 96.4517 662.6 96.2999L652.17 95.2999C647.789 95.0079 643.479 94.0468 639.39 92.4499C636.414 91.2974 633.842 89.2984 631.99 86.6999C630.261 83.8393 629.437 80.523 629.626 77.1859C629.816 73.8488 631.009 70.6468 633.05 67.9999C635.663 65.0248 639.048 62.8306 642.83 61.6599C647.561 60.154 652.506 59.4312 657.47 59.5199C662.415 59.4527 667.333 60.2549 672 61.8899C675.913 63.2247 679.427 65.5218 682.22 68.5699C684.693 71.3428 686.167 74.8626 686.41 78.5699V79.1099H669.61L669.55 78.6699C669.383 77.4414 668.771 76.317 667.83 75.5099C666.612 74.4694 665.166 73.7296 663.61 73.3499C661.488 72.8024 659.301 72.5434 657.11 72.5799C655.093 72.5478 653.079 72.7525 651.11 73.1899C649.752 73.4563 648.481 74.054 647.41 74.9299C647.028 75.2523 646.722 75.6554 646.515 76.1102C646.307 76.5649 646.203 77.0601 646.21 77.5599C646.183 78.2826 646.413 78.9914 646.86 79.5599C647.522 80.2284 648.351 80.7083 649.26 80.9499C650.869 81.4347 652.525 81.7497 654.2 81.8899L665.5 82.9999C669.902 83.303 674.245 84.1804 678.42 85.6099C681.3 86.5679 683.816 88.3864 685.63 90.8199C687.212 93.31 688 96.2219 687.89 99.1699C687.941 103.016 686.658 106.762 684.26 109.77C681.573 112.98 678.065 115.399 674.11 116.77C669.305 118.5 664.226 119.344 659.12 119.26ZM629.94 99.5699C630.135 103.064 631.47 106.397 633.74 109.06C636.503 112.182 640.043 114.517 644 115.83C648.875 117.523 654.01 118.346 659.17 118.26C664.152 118.35 669.11 117.534 673.8 115.85C677.594 114.536 680.958 112.213 683.53 109.13C685.791 106.292 686.996 102.758 686.94 99.1299C687.047 96.3861 686.322 93.674 684.86 91.3499C683.158 89.0889 680.806 87.4005 678.12 86.5099C674.013 85.1163 669.739 84.2723 665.41 83.9999L654.2 82.8799C652.45 82.7283 650.72 82.3931 649.04 81.8799C647.948 81.5897 646.96 80.9969 646.19 80.1699C645.59 79.4236 645.278 78.4869 645.31 77.5299C645.304 76.8906 645.437 76.2576 645.701 75.6754C645.966 75.0932 646.354 74.5759 646.84 74.1599C648.032 73.1594 649.455 72.472 650.98 72.1599C653.011 71.705 655.089 71.4902 657.17 71.5199C659.453 71.4816 661.73 71.7541 663.94 72.3299C665.649 72.7479 667.235 73.5633 668.57 74.7099C669.577 75.5801 670.279 76.751 670.57 78.0499H685.43C685.097 74.7562 683.732 71.6518 681.53 69.1799C678.847 66.2591 675.474 64.0585 671.72 62.7799C667.154 61.1895 662.344 60.4144 657.51 60.4899C652.658 60.3991 647.824 61.1052 643.2 62.5799C639.591 63.6757 636.357 65.753 633.86 68.5799C631.671 71.2505 630.515 74.6182 630.6 78.0699C630.516 80.9183 631.29 83.7261 632.82 86.1299C634.575 88.5733 637.009 90.4475 639.82 91.5199C643.817 93.0791 648.029 94.0166 652.31 94.2999L662.73 95.2999C664.616 95.4407 666.483 95.7758 668.3 96.2999C669.445 96.605 670.483 97.2211 671.3 98.0799C671.941 98.877 672.274 99.8777 672.24 100.9C672.243 101.572 672.096 102.237 671.811 102.845C671.525 103.454 671.108 103.992 670.59 104.42C669.307 105.468 667.785 106.182 666.16 106.5C663.967 106.982 661.725 107.207 659.48 107.17C657.011 107.212 654.548 106.895 652.17 106.23C650.285 105.725 648.547 104.779 647.1 103.47C645.959 102.402 645.182 101.003 644.88 99.4699L629.94 99.5699Z" fill="black"/>
<g opacity="0.5">
<path d="M54.13 43.8899H3V-12.8601H19V29.5599H54.11L54.13 43.8899ZM3.46 43.3899H53.63V30.0599H18.52V-12.3601H3.46V43.3899Z" fill="black"/>
<path d="M112.14 43.8899H59.28L63.6 15.5199L59.28 -12.8601H111.76V0.239892H76.54L78.07 9.59989H109.59V21.4299H78.07L76.54 30.7899H112.14V43.8899ZM59.87 43.3899H111.64V31.2899H76L77.68 20.9299H109.13V10.0999H77.64L76 -0.260108H111.3V-12.3601H59.87L64.1 15.5199L59.87 43.3899Z" fill="black"/>
<path d="M204 43.8899H188.74V2.18989L170.66 43.8899H154.66L154.6 43.7399L136.6 2.35989V43.8899H121.27V-12.8601H145.73L145.79 -12.7001L162.71 27.8699L179.59 -12.8601H204V43.8899ZM189.23 43.3899H203.5V-12.3601H179.93L162.71 29.1699L145.39 -12.3601H121.77V43.3899H136.09V1.14989L136.57 1.04989L155 43.3899H170.38L188.76 0.879892L189.24 0.979893L189.23 43.3899Z" fill="black"/>
<path d="M246 45.1299C239.928 45.2486 233.91 43.9833 228.4 41.4299C223.511 39.168 219.377 35.5473 216.49 30.9999C213.646 26.3409 212.189 20.9675 212.29 15.5099C212.185 10.0456 213.642 4.66478 216.49 -6.77109e-05C219.365 -4.53168 223.482 -8.14162 228.35 -10.4001C233.895 -12.8336 239.884 -14.0901 245.94 -14.0901C251.995 -14.0901 257.985 -12.8336 263.53 -10.4001C268.39 -8.12936 272.504 -4.52216 275.39 -6.77109e-05C278.245 4.65534 279.709 10.0299 279.61 15.4899C279.713 20.9568 278.248 26.3388 275.39 30.9999C272.505 35.5276 268.391 39.1415 263.53 41.4199C258.043 43.9686 252.049 45.2372 246 45.1299ZM246 -13.5901C240.001 -13.7078 234.055 -12.4597 228.61 -9.94007C223.812 -7.71928 219.751 -4.16891 216.91 0.289932C214.117 4.87163 212.687 10.1548 212.79 15.5199C212.689 20.8817 214.118 26.1613 216.91 30.7399C219.734 35.2019 223.777 38.7621 228.56 40.9999C234.023 43.5154 239.987 44.7566 246 44.6299C251.97 44.7439 257.888 43.5028 263.31 40.9999C268.105 38.7642 272.161 35.2044 275 30.7399C277.803 26.165 279.239 20.8842 279.14 15.5199C279.24 10.1524 277.804 4.86797 275 0.289932C272.157 -4.16416 268.102 -7.71344 263.31 -9.94007C257.892 -12.4545 251.972 -13.7026 246 -13.5901ZM246 31.2199C242.721 31.2954 239.465 30.6538 236.46 29.3399C233.886 28.1866 231.713 26.2928 230.22 23.8999C228.715 21.3674 227.946 18.4654 228 15.5199C227.929 12.579 228.68 9.67658 230.17 7.13993C231.661 4.7447 233.834 2.85015 236.41 1.69993C242.496 -0.800518 249.323 -0.800518 255.41 1.69993C257.989 2.84952 260.166 4.74398 261.66 7.13993C263.168 9.67015 263.931 12.5751 263.86 15.5199C263.928 18.4644 263.166 21.3687 261.66 23.8999C260.166 26.2959 257.989 28.1903 255.41 29.3399C252.446 30.6381 249.236 31.2794 246 31.2199ZM246 0.319932C242.794 0.242579 239.609 0.867165 236.67 2.14993C234.191 3.26282 232.102 5.09104 230.67 7.39993C229.223 9.8565 228.496 12.67 228.57 15.5199C228.498 18.3696 229.226 21.1823 230.67 23.6399C232.103 25.9459 234.192 27.7708 236.67 28.8799C239.609 30.1661 242.793 30.7941 246 30.7199C249.194 30.7905 252.364 30.1626 255.29 28.8799C257.762 27.762 259.849 25.9392 261.29 23.6399C262.745 21.1861 263.48 18.372 263.41 15.5199C263.481 12.6677 262.747 9.85318 261.29 7.39993C259.85 5.09774 257.763 3.27151 255.29 2.14993C252.363 0.871033 249.193 0.24649 246 0.319932Z" fill="black"/>
<path d="M350.79 43.8899H330.79L303.46 4.93989V43.9399H287.85V-12.8601H308.36L335.21 25.2199V-12.8601H350.79V43.8899ZM331.09 43.3899H350.29V-12.3601H335.71V26.7999L308.11 -12.3601H288.35V43.3899H303V3.38989L331.09 43.3899Z" fill="black"/>
<path d="M391.15 45.1299C385.543 45.1993 379.993 44.0065 374.91 41.6399C370.167 39.4035 366.163 35.8574 363.37 31.4199C360.469 26.6329 358.998 21.1159 359.13 15.5199C358.987 9.91095 360.473 4.38081 363.41 -0.40008C366.262 -4.86107 370.342 -8.40308 375.16 -10.6001C380.448 -12.9886 386.198 -14.1803 392 -14.0901C397.467 -14.1959 402.901 -13.2347 408 -11.2601C412.291 -9.58935 416.103 -6.88621 419.1 -3.39008C421.871 -0.0464659 423.731 3.95615 424.5 8.22992L424.56 8.52992H408.39L408.34 8.34992C407.812 6.51067 406.771 4.85967 405.34 3.58992C403.72 2.16311 401.815 1.0993 399.75 0.46992C397.254 -0.283113 394.657 -0.65068 392.05 -0.62008C388.948 -0.696887 385.87 -0.0641241 383.05 1.22992C380.612 2.40468 378.594 4.30026 377.27 6.65992C375.857 9.39373 375.168 12.4442 375.27 15.5199C375.171 18.6833 375.931 21.8144 377.47 24.5799C378.931 27.0315 381.119 28.9677 383.73 30.1199C386.793 31.4287 390.1 32.0696 393.43 31.9999C396.686 32.0503 399.926 31.5256 403 30.4499C405.557 29.5747 407.837 28.0396 409.61 25.9999L409.81 25.7499H394.68V14.2899H425V43.8899H413.53L412.83 36.6999C410.973 38.6699 408.817 40.3338 406.44 41.6299C401.722 44.0721 396.461 45.2764 391.15 45.1299ZM392 -13.5901C386.268 -13.684 380.585 -12.5093 375.36 -10.1501C370.633 -7.99371 366.627 -4.52213 363.82 -0.15008C360.942 4.55708 359.484 9.99454 359.62 15.5099C359.483 21.0119 360.931 26.4373 363.79 31.1399C366.534 35.4874 370.465 38.9577 375.12 41.1399C380.128 43.4717 385.596 44.6474 391.12 44.5799C396.33 44.7192 401.491 43.5357 406.12 41.1399C408.621 39.7888 410.868 38.0122 412.76 35.8899L413.15 35.4599L413.92 43.3399H424.5V14.7899H395.18V25.2399H410.8L410.51 25.6399C410.349 25.8723 410.175 26.0959 409.99 26.3099C408.169 28.4143 405.828 30.0039 403.2 30.9199C400.061 32.0142 396.754 32.5457 393.43 32.4899C390.018 32.5708 386.629 31.9195 383.49 30.5799C380.783 29.3828 378.515 27.3733 377 24.8299C375.416 21.9887 374.631 18.7714 374.73 15.5199C374.634 12.3531 375.357 9.21514 376.83 6.40992C378.203 3.9608 380.298 1.9948 382.83 0.779921C385.722 -0.547476 388.879 -1.19731 392.06 -1.12008C394.715 -1.15039 397.359 -0.772651 399.9 -8.01086e-05C402.051 0.637084 404.037 1.73598 405.72 3.21992C407.136 4.52278 408.173 6.185 408.72 8.02992H424C423.197 3.94804 421.386 0.132045 418.73 -3.07008C415.784 -6.50446 412.037 -9.15949 407.82 -10.8001C402.778 -12.7481 397.404 -13.6957 392 -13.5901Z" fill="black"/>
<path d="M492.11 43.8899H473.44L473.37 43.7899L458.37 23.6399H450.62V43.8899H434.55V-12.8601H468.21C472.108 -12.9341 475.974 -12.156 479.54 -10.5801C482.649 -9.20282 485.303 -6.96918 487.19 -4.1401C489.021 -1.27335 489.967 2.06897 489.91 5.4699C489.974 8.84812 489.023 12.1678 487.18 14.9999C485.288 17.8083 482.639 20.0237 479.54 21.3899C478.357 21.9343 477.129 22.3759 475.87 22.7099L492.11 43.8899ZM473.7 43.3899H491.1L475 22.3999L475.37 22.2999C476.743 21.9655 478.083 21.5035 479.37 20.9199C482.384 19.5842 484.961 17.429 486.81 14.6999C488.591 11.9554 489.51 8.74102 489.45 5.4699C489.509 2.16771 488.59 -1.07815 486.81 -3.8601C484.976 -6.61469 482.396 -8.78964 479.37 -10.1301C475.87 -11.6739 472.075 -12.435 468.25 -12.3601H435.05V43.3899H450.11V23.1399H458.61L458.68 23.2399L473.7 43.3899ZM466.07 12.2399H450.07V-1.3101H466.07C467.555 -1.34476 469.032 -1.07594 470.41 -0.520103C471.558 -0.0408936 472.537 0.770498 473.22 1.8099C473.902 2.9069 474.249 4.17867 474.22 5.4699C474.243 6.75407 473.896 8.01771 473.22 9.1099C472.537 10.1599 471.55 10.9763 470.39 11.4499C469.019 12.0058 467.549 12.2746 466.07 12.2399ZM450.61 11.7399H466.07C467.48 11.7732 468.882 11.518 470.19 10.9899C471.259 10.557 472.17 9.80664 472.8 8.8399C473.413 7.82452 473.725 6.65581 473.7 5.4699C473.731 4.27702 473.419 3.10039 472.8 2.0799C472.17 1.1238 471.268 0.378419 470.21 -0.0601025C468.896 -0.592019 467.487 -0.847334 466.07 -0.810102H450.61V11.7399Z" fill="black"/>
<path d="M565.08 43.8899H548L543.3 33.0599H514.53L509.85 43.8899H492.68L518.52 -12.8601H539.28L539.35 -12.7101L565.08 43.8899ZM548.28 43.3899H564.28L539 -12.3601H518.84L493.46 43.3899H509.52L514.2 32.5599H543.59L548.28 43.3899ZM538.4 20.5699H519.4L528.89 -1.43011L538.4 20.5699ZM520.15 20.0699H537.64L528.88 -0.140108L520.15 20.0699Z" fill="black"/>
<path d="M595.14 45.1299C589.895 45.217 584.675 44.3809 579.72 42.6599C575.66 41.2835 572.03 38.8705 569.19 35.6599C566.693 32.7332 565.281 29.0359 565.19 25.1899V24.9299H581.49V25.1499C581.703 26.6612 582.43 28.0528 583.55 29.0899C584.912 30.3179 586.547 31.2025 588.32 31.6699C590.63 32.3153 593.022 32.6218 595.42 32.5799C597.604 32.6135 599.785 32.3954 601.92 31.9299C603.437 31.6336 604.858 30.9711 606.06 29.9999C606.505 29.6384 606.862 29.1805 607.105 28.6609C607.347 28.1412 607.469 27.5733 607.46 26.9999C607.49 26.1531 607.217 25.3234 606.69 24.6599C605.943 23.9335 605.013 23.4222 604 23.1799C602.239 22.661 600.43 22.3259 598.6 22.1799L588.17 21.1799C583.813 20.8938 579.526 19.9393 575.46 18.3499C572.531 17.2131 569.997 15.2459 568.17 12.6899C566.556 10.1618 565.738 7.20795 565.82 4.20992C565.732 0.573825 566.948 -2.97366 569.25 -5.79008C571.846 -8.71321 575.2 -10.8623 578.94 -12.0001C583.644 -13.5042 588.563 -14.2238 593.5 -14.1301C598.436 -14.2015 603.346 -13.3957 608 -11.7501C611.877 -10.4355 615.358 -8.16163 618.12 -5.14008C620.554 -2.4114 622.007 1.05157 622.25 4.69992V4.99992H605.91V4.77992C605.731 3.49435 605.096 2.31602 604.12 1.45992C602.868 0.396839 601.385 -0.359838 599.79 -0.750081C597.649 -1.3059 595.442 -1.5683 593.23 -1.53008C591.213 -1.55776 589.2 -1.35308 587.23 -0.920081C585.832 -0.639794 584.524 -0.0218344 583.42 0.879919C583.011 1.22598 582.683 1.65819 582.46 2.14567C582.237 2.63316 582.124 3.16388 582.13 3.69992C582.103 4.48129 582.355 5.24676 582.84 5.85992C583.527 6.57715 584.399 7.08953 585.36 7.33992C586.988 7.84457 588.663 8.17969 590.36 8.33992L601.57 9.41992C605.928 9.7186 610.227 10.586 614.36 11.9999C617.19 12.9388 619.664 14.7221 621.45 17.1099C623.003 19.5591 623.777 22.4217 623.67 25.3199C623.722 29.1126 622.457 32.8058 620.09 35.7699C617.448 38.9613 613.993 41.3799 610.09 42.7699C605.289 44.4507 600.225 45.2502 595.14 45.1299ZM565.71 25.4399C565.849 29.0796 567.209 32.5665 569.57 35.3399C572.351 38.4869 575.91 40.8489 579.89 42.1899C584.791 43.8903 589.953 44.7162 595.14 44.6299C600.156 44.7218 605.147 43.9018 609.87 42.2099C613.702 40.875 617.099 38.5247 619.7 35.4099C621.988 32.5293 623.213 28.9483 623.17 25.2699C623.266 22.471 622.509 19.7091 621 17.3499C619.272 15.0404 616.878 13.3162 614.14 12.4099C610.03 11.0031 605.754 10.1391 601.42 9.83992L590.25 8.74992C588.52 8.59296 586.811 8.25785 585.15 7.74992C584.103 7.46503 583.155 6.89765 582.41 6.10992C581.848 5.40791 581.554 4.52888 581.58 3.62992C581.578 3.03399 581.704 2.44461 581.949 1.90133C582.194 1.35804 582.552 0.873405 583 0.479918C584.157 -0.473581 585.531 -1.12932 587 -1.43008C589.015 -1.88145 591.076 -2.09292 593.14 -2.06008C595.399 -2.09607 597.653 -1.82697 599.84 -1.26008C601.511 -0.851512 603.062 -0.0569115 604.37 1.05992C605.373 1.95006 606.049 3.15062 606.29 4.46992H621.63C621.339 1.02445 619.935 -2.23284 617.63 -4.81008C614.923 -7.7681 611.515 -9.99666 607.72 -11.2901C603.128 -12.8893 598.291 -13.6679 593.43 -13.5901C588.547 -13.6832 583.683 -12.9737 579.03 -11.4901C575.376 -10.3647 572.106 -8.24992 569.58 -5.38008C567.357 -2.66265 566.18 0.760135 566.26 4.26992C566.178 7.1689 566.969 10.0256 568.53 12.4699C570.313 14.9769 572.797 16.9009 575.67 17.9999C579.689 19.5663 583.925 20.5072 588.23 20.7899L598.66 21.7899C600.526 21.9361 602.372 22.2712 604.17 22.7899C605.277 23.0846 606.284 23.6759 607.08 24.4999C607.678 25.2549 607.99 26.1972 607.96 27.1599C607.96 27.7964 607.819 28.4249 607.547 29.0005C607.276 29.5762 606.881 30.0848 606.39 30.4899C605.132 31.4946 603.65 32.1807 602.07 32.4899C599.896 32.9631 597.675 33.1846 595.45 33.1499C593.004 33.1908 590.566 32.8776 588.21 32.2199C586.351 31.7332 584.636 30.8072 583.21 29.5199C582.062 28.4636 581.295 27.0573 581.03 25.5199L565.71 25.4399Z" fill="black"/>
<path d="M659.12 45.1299C653.875 45.2186 648.655 44.3825 643.7 42.6599C639.638 41.2886 636.007 38.8748 633.17 35.6599C630.67 32.7353 629.257 29.0367 629.17 25.1899V24.9299H645.47V25.1499C645.69 26.659 646.416 28.0484 647.53 29.0899C648.895 30.318 650.534 31.2025 652.31 31.6699C654.617 32.316 657.005 32.6226 659.4 32.5799C661.584 32.6145 663.766 32.3964 665.9 31.9299C667.402 31.626 668.809 30.9639 670 29.9999C670.442 29.6364 670.797 29.1779 671.037 28.6586C671.278 28.1392 671.399 27.5723 671.39 26.9999C671.418 26.155 671.149 25.3269 670.63 24.6599C669.9 23.9428 668.992 23.4321 668 23.1799C666.236 22.6602 664.423 22.3251 662.59 22.1799L652.17 21.1799C647.813 20.896 643.526 19.9415 639.46 18.3499C636.529 17.2156 633.995 15.248 632.17 12.6899C630.556 10.1618 629.738 7.20797 629.82 4.20993C629.727 0.573148 630.945 -2.97585 633.25 -5.79007C635.837 -8.70978 639.18 -10.8587 642.91 -12.0001C647.614 -13.5027 652.533 -14.2223 657.47 -14.1301C662.393 -14.2095 667.292 -13.4173 671.94 -11.7901C675.813 -10.4728 679.29 -8.19922 682.05 -5.18007C684.492 -2.45641 685.946 1.00943 686.18 4.65993V4.92993H669.89V4.70993C669.707 3.42354 669.068 2.24558 668.09 1.38993C666.842 0.32668 665.363 -0.430118 663.77 -0.820072C661.625 -1.37521 659.415 -1.63759 657.2 -1.60007C655.183 -1.62722 653.17 -1.42254 651.2 -0.990072C649.802 -0.709785 648.494 -0.0918255 647.39 0.809928C646.983 1.15784 646.658 1.59065 646.437 2.07788C646.216 2.5651 646.104 3.09489 646.11 3.62993C646.083 4.4113 646.335 5.17677 646.82 5.78993C647.503 6.50724 648.372 7.0198 649.33 7.26993C650.958 7.77458 652.633 8.1097 654.33 8.26993L665.54 9.34993C669.901 9.6702 674.201 10.5611 678.33 11.9999C681.159 12.9399 683.633 14.7231 685.42 17.1099C686.978 19.5571 687.752 22.4212 687.64 25.3199C687.69 29.1107 686.429 32.8024 684.07 35.7699C681.414 38.9687 677.941 41.3878 674.02 42.7699C669.236 44.446 664.188 45.2455 659.12 45.1299ZM629.68 25.4399C629.818 29.0816 631.182 32.5699 633.55 35.3399C636.331 38.4869 639.89 40.8489 643.87 42.1899C648.771 43.8919 653.933 44.7179 659.12 44.6299C664.133 44.7219 669.12 43.9019 673.84 42.2099C677.673 40.8773 681.071 38.5266 683.67 35.4099C685.965 32.5333 687.192 28.9496 687.14 25.2699C687.249 22.4737 686.503 19.7107 685 17.3499C683.272 15.0409 680.878 13.3168 678.14 12.4099C674.03 11.0031 669.754 10.1392 665.42 9.83993L654.22 8.74993C652.49 8.59297 650.781 8.25786 649.12 7.74993C648.073 7.46504 647.125 6.89766 646.38 6.10993C645.821 5.40697 645.53 4.52777 645.56 3.62993C645.558 3.03193 645.685 2.44055 645.934 1.89668C646.182 1.35281 646.546 0.869423 647 0.479928C648.156 -0.475654 649.53 -1.13165 651 -1.43007C653.011 -1.88149 655.069 -2.09297 657.13 -2.06007C659.389 -2.09741 661.643 -1.82829 663.83 -1.26007C665.501 -0.853975 667.054 -0.0590935 668.36 1.05993C669.369 1.94557 670.046 3.1482 670.28 4.46993H685.62C685.338 1.0223 683.933 -2.23763 681.62 -4.81007C678.915 -7.77041 675.506 -9.99939 671.71 -11.2901C667.118 -12.8893 662.281 -13.6678 657.42 -13.5901C652.541 -13.6824 647.679 -12.973 643.03 -11.4901C639.372 -10.3673 636.098 -8.25225 633.57 -5.38007C631.35 -2.66168 630.176 0.761265 630.26 4.26993C630.18 7.16728 630.967 10.0225 632.52 12.4699C634.297 14.9738 636.774 16.8975 639.64 17.9999C643.659 19.5663 647.895 20.5072 652.2 20.7899L662.63 21.7899C664.496 21.9361 666.342 22.2712 668.14 22.7899C669.247 23.0846 670.254 23.6759 671.05 24.4999C671.648 25.2549 671.96 26.1972 671.93 27.1599C671.932 27.7957 671.793 28.4239 671.523 28.9996C671.253 29.5754 670.859 30.0843 670.37 30.4899C669.109 31.4961 667.623 32.1823 666.04 32.4899C663.866 32.964 661.645 33.1855 659.42 33.1499C656.978 33.1908 654.542 32.8776 652.19 32.2199C650.332 31.7299 648.618 30.8044 647.19 29.5199C646.045 28.4609 645.28 27.0558 645.01 25.5199L629.68 25.4399Z" fill="black"/>
</g>
</svg>
