<svg width="320" height="80" viewBox="0 0 320 80" fill="none" xmlns="http://www.w3.org/2000/svg">
<path d="M0.749973 1.61002C0.609973 1.46002 0.559974 1.36004 0.609974 1.29004C0.645567 1.25263 0.68944 1.22406 0.738071 1.2067C0.786702 1.18933 0.838732 1.18363 0.889973 1.19003C1.04296 1.17543 1.19699 1.17543 1.34997 1.19003C1.46175 1.20403 1.57214 1.22746 1.67997 1.26004C2.73922 1.43289 3.80774 1.54307 4.87997 1.59003C5.98997 1.64003 7.07997 1.67004 8.12997 1.67004H8.99997C10.74 1.59004 12.54 1.42004 14.39 1.17004C14.84 1.11004 15.28 1.05004 15.7 1.01004C15.8873 0.920403 16.0923 0.873871 16.3 0.873871C16.5076 0.873871 16.7127 0.920403 16.9 1.01004C17.2238 1.14611 17.5165 1.34688 17.76 1.60004C18.0381 1.84523 18.2956 2.11278 18.53 2.40002C18.53 2.67002 18.24 2.98004 17.69 3.32004C17.115 3.67681 16.5093 3.98136 15.88 4.23004C15.4011 4.44085 14.8969 4.58875 14.38 4.67004C13.6 4.67004 12.81 4.70004 12.01 4.76004C12.01 4.85004 12.01 4.95003 12.01 5.06003C12.0181 5.13982 12.0181 5.22022 12.01 5.30002C11.8255 6.38793 11.7152 7.48715 11.68 8.59003C11.62 9.84003 11.59 11.08 11.58 12.32C11.58 13.1 11.58 13.82 11.53 14.48C11.53 17.1 11.62 19.7667 11.8 22.48C11.8412 22.5184 11.874 22.5648 11.8965 22.6165C11.9189 22.6681 11.9305 22.7237 11.9305 22.78C11.9305 22.8363 11.9189 22.892 11.8965 22.9436C11.874 22.9952 11.8412 23.0417 11.8 23.08C11.6483 23.1121 11.4916 23.1121 11.34 23.08L10.81 23C10.6343 22.9495 10.4527 22.9226 10.27 22.92C9.91315 22.7952 9.58691 22.5961 9.31281 22.3358C9.03871 22.0755 8.82301 21.7599 8.67997 21.41C8.39533 20.7634 8.24236 20.0665 8.22998 19.36C8.30998 17.99 8.31998 16.6 8.22998 15.18C8.22998 14.97 8.22998 14.76 8.22998 14.55C8.22998 14.34 8.22998 14.21 8.22998 14.04C8.12998 12.8 8.03997 11.44 7.96997 9.97003C7.89579 8.7103 7.91584 7.44678 8.02997 6.19003C8.17996 5.70857 8.51427 5.30596 8.95997 5.07004C7.53036 5.28725 6.07944 5.32755 4.63997 5.19003C3.80241 4.90014 3.05696 4.39281 2.47998 3.72003C1.84041 3.07072 1.26134 2.36445 0.749973 1.61002Z" fill="black"/>
<path d="M27.89 4.64005H27.35C26.8 4.64005 26.21 4.64005 25.57 4.64005C24.9596 4.62063 24.3529 4.53683 23.76 4.39005C23.2439 4.21431 22.7656 3.94289 22.35 3.59003C22.016 3.34622 21.7282 3.04486 21.5 2.70005C21.7667 2.38824 22.112 2.15344 22.5 2.02003C22.8261 1.90503 23.1604 1.81478 23.5 1.75004H23.66C24.8391 1.42116 26.0487 1.21342 27.27 1.13004C28.4 1.06004 29.66 1.05004 31.06 1.13004C32.7261 1.18702 34.3345 1.75484 35.6671 2.75654C36.9997 3.75824 37.9922 5.14539 38.51 6.73005C38.9776 8.15249 38.8626 9.70226 38.19 11.04C37.7397 11.8165 37.1404 12.4963 36.4265 13.0403C35.7125 13.5843 34.8981 13.9819 34.03 14.21C34.41 14.85 34.78 15.45 35.13 15.99L35.66 16.86C36.6 18.1934 37.6533 19.5634 38.82 20.97L39.13 21.36C39.2541 21.4269 39.3588 21.5246 39.4341 21.6437C39.5094 21.7628 39.5528 21.8993 39.56 22.04C39.55 22.1866 39.5017 22.328 39.42 22.4501C39.3225 22.6096 39.2157 22.7632 39.1 22.91C38.98 23.05 38.89 23.17 38.81 23.25C38.4349 23.3296 38.0436 23.2691 37.71 23.08C37.223 22.867 36.7603 22.6021 36.33 22.29C35.9565 22.034 35.6201 21.7278 35.33 21.38C34.7692 20.463 34.1478 19.5844 33.47 18.75L33.11 18.29C32.69 17.8 32.24 17.29 31.78 16.65C31.358 16.1134 30.9833 15.5413 30.66 14.94C30.2105 15.0118 29.7545 15.0352 29.3 15.01C28.8217 14.9986 28.3472 14.9212 27.89 14.78C27.83 15.78 27.81 16.78 27.83 17.94C27.8456 18.97 27.919 19.9983 28.05 21.02C28.1323 21.1704 28.1769 21.3386 28.18 21.51C28.1799 21.6726 28.1563 21.8342 28.11 21.99C28.023 22.1091 27.9145 22.2109 27.79 22.29C27.6208 22.4116 27.4438 22.5219 27.26 22.62C27.1184 22.706 26.9714 22.7828 26.82 22.85C26.45 22.76 26.09 22.41 25.74 21.79C25.3733 21.1371 25.0782 20.4464 24.86 19.73C24.6653 19.1926 24.5475 18.6304 24.51 18.06C24.59 17.06 24.64 16.06 24.67 15.06C24.67 14.71 24.67 14.35 24.67 14C24.67 12.93 24.67 11.74 24.67 10.44C24.6924 9.29041 24.7994 8.14399 24.99 7.01005C25.2338 6.44411 25.6368 5.96119 26.15 5.62003C26.6864 5.22135 27.271 4.89209 27.89 4.64005ZM28.14 12.26L29.14 12.01C29.89 11.83 30.71 11.61 31.59 11.34C32.421 11.0956 33.2225 10.7602 33.98 10.34C34.6181 10.0091 35.1308 9.47894 35.44 8.83002C35.566 8.52914 35.6308 8.20623 35.6308 7.88004C35.6308 7.55386 35.566 7.23091 35.44 6.93003C35.1372 6.24443 34.6388 5.66339 34.0074 5.25962C33.3759 4.85585 32.6394 4.64728 31.89 4.66004H30.48H29.09C29.1052 4.8297 29.1052 5.00039 29.09 5.17005C29.09 5.35005 29.09 5.48002 29.09 5.58002V5.68003C28.83 7.36003 28.6 9.08002 28.41 10.83L28.14 12.26Z" fill="black"/>
<path d="M51.8699 0.540026C51.9799 0.420026 52.0999 0.430026 52.2399 0.540026C52.3989 0.707029 52.5335 0.895537 52.6399 1.10002C52.7695 1.33547 52.8831 1.57933 52.9799 1.83C53.0799 2.08 53.1499 2.26003 53.1899 2.39003C54.2158 5.89647 54.9681 9.4772 55.4399 13.1C55.4399 13.21 55.4899 13.34 55.5199 13.46C55.6499 14.19 55.8099 14.97 55.9899 15.82L56.3399 15.91C56.5666 16.0126 56.7732 16.1548 56.9499 16.33C57.1607 16.5166 57.3517 16.7244 57.5199 16.95C57.6517 17.1079 57.772 17.275 57.8799 17.45C57.8799 17.53 57.8799 17.64 57.6999 17.76C57.537 17.8915 57.3631 18.0086 57.1799 18.11L56.6699 18.36H56.5899C56.8355 19.44 57.1529 20.5023 57.5399 21.54C57.6452 21.6652 57.7243 21.8102 57.7724 21.9666C57.8205 22.1229 57.8367 22.2873 57.8199 22.45C57.77 22.5542 57.7023 22.649 57.6199 22.73L57.2399 23.11L56.8799 23.41L56.7899 23.49C56.5465 23.5031 56.3037 23.4551 56.0836 23.3503C55.8635 23.2455 55.6732 23.0873 55.5299 22.89C55.0496 22.3644 54.6334 21.7837 54.2899 21.16C53.9572 20.602 53.6729 20.0165 53.4399 19.41H53.3799C52.3499 19.3546 51.3171 19.3747 50.2899 19.47L48.6499 19.74C47.9299 19.84 47.2299 19.93 46.5199 19.99C45.9953 20.0551 45.4646 20.0551 44.9399 19.99L44.7399 20.34C44.6399 20.51 44.5399 20.68 44.4299 20.85C44.279 21.4259 43.9235 21.9271 43.4299 22.26C43.1081 22.4613 42.7392 22.5751 42.3599 22.59C41.9626 22.6331 41.5609 22.6128 41.1699 22.53C41.0595 21.9727 41.101 21.3959 41.2899 20.86C41.4799 19.97 41.7299 19.04 42.0199 18.1C41.5422 17.6401 41.0883 17.1562 40.6599 16.65C40.4799 16.52 40.4199 16.42 40.4699 16.35C40.5118 16.3012 40.564 16.2624 40.6229 16.2364C40.6817 16.2104 40.7456 16.198 40.8099 16.2C40.9963 16.1848 41.1836 16.1848 41.3699 16.2H41.7999H41.8599C42.1099 16.2 42.3799 16.2 42.6499 16.2C42.8826 15.603 43.167 15.0275 43.4999 14.48C43.8985 13.8165 44.2334 13.1167 44.4999 12.39C44.7199 11.74 45.0299 10.75 45.4399 9.39003C45.8499 8.03003 46.1999 6.92003 46.5799 5.73003C46.8317 4.88919 47.1254 4.06148 47.4599 3.25002C47.7589 2.65353 48.2024 2.14133 48.7499 1.76003C49.1998 1.48261 49.6885 1.27366 50.1999 1.14003C50.7751 0.995911 51.3345 0.794915 51.8699 0.540026ZM46.7399 16.26C47.4699 16.26 48.1799 16.26 48.8999 16.26C49.8099 16.26 50.7599 16.17 51.7199 16.09L52.7799 16.01C52.7299 15.78 52.6799 15.55 52.6199 15.32C52.5199 14.8467 52.4199 14.3867 52.3199 13.94C52.1799 13.3867 52.0299 12.8167 51.8699 12.23C51.3766 10.43 50.9266 8.64335 50.5199 6.87001C49.7599 9.05001 48.9199 11.1767 47.9999 13.25L47.5499 14.35L47.1699 15.29C46.9999 15.63 46.8699 15.94 46.7399 16.26Z" fill="black"/>
<path d="M65.2999 1.26005C65.4899 1.19005 65.6099 1.19005 65.6799 1.26005C65.7126 1.29824 65.7366 1.34302 65.7504 1.39134C65.7642 1.43965 65.7675 1.49037 65.7599 1.54005C65.7503 1.65826 65.7303 1.7754 65.6999 1.89005C65.4685 2.99618 65.3346 4.12049 65.2999 5.25004C65.2299 6.65004 65.1899 8.01003 65.1699 9.33003C65.1699 10.08 65.1699 10.73 65.1699 11.28C65.1699 13.04 65.1699 14.82 65.1699 16.61C65.1699 18.14 65.2299 19.66 65.2199 21.18C65.2828 21.3726 65.3045 21.5762 65.2839 21.7778C65.2632 21.9793 65.2005 22.1742 65.0999 22.35C64.9102 22.5485 64.6537 22.6697 64.3799 22.69C64.0883 22.7348 63.7915 22.7348 63.4999 22.69C63.0063 22.3483 62.6515 21.841 62.4999 21.26C62.2399 20.5186 62.0458 19.7556 61.9199 18.9801C61.8182 18.4121 61.7614 17.837 61.7499 17.26C61.8599 15.38 61.8899 13.49 61.8499 11.59C61.8499 11.18 61.7899 10.7201 61.7599 10.2301C61.6799 8.98005 61.6299 7.66004 61.5899 6.28004C61.5416 5.11913 61.575 3.95625 61.6899 2.80003C61.7708 2.54007 61.9102 2.30214 62.0974 2.1045C62.2846 1.90687 62.5147 1.75482 62.7699 1.66004C63.3009 1.48612 63.8521 1.38192 64.4099 1.35005L65.2999 1.26005Z" fill="black"/>
<path d="M68.7 1.61002C68.56 1.46002 68.52 1.36004 68.56 1.29004C68.598 1.25304 68.6437 1.2249 68.6938 1.20761C68.7439 1.19032 68.7973 1.18431 68.85 1.19003C68.9996 1.17545 69.1503 1.17545 69.3 1.19003C69.415 1.20412 69.5287 1.22754 69.64 1.26004C70.6991 1.43392 71.7677 1.54411 72.84 1.59003C73.95 1.64003 75.03 1.67004 76.08 1.67004H77C78.74 1.59004 80.53 1.42004 82.39 1.17004C82.84 1.11004 83.27 1.05004 83.69 1.01004C83.8773 0.920403 84.0823 0.873871 84.29 0.873871C84.4976 0.873871 84.7027 0.920403 84.89 1.01004C85.2184 1.1431 85.5149 1.34417 85.76 1.60004C86.0327 1.84763 86.2867 2.11501 86.52 2.40002C86.52 2.67002 86.23 2.98004 85.68 3.32004C85.1096 3.67875 84.507 3.98341 83.88 4.23004C83.3982 4.44233 82.8904 4.59027 82.37 4.67004C81.59 4.67004 80.8 4.70004 80 4.76004C80 4.85004 80 4.95003 80 5.06003C79.9922 5.14163 79.9755 5.22211 79.95 5.30002C79.7754 6.38925 79.6652 7.48783 79.62 8.59003C79.57 9.84003 79.54 11.08 79.53 12.32C79.53 13.1 79.51 13.82 79.47 14.48C79.47 17.1 79.5633 19.7667 79.75 22.48C79.8282 22.5603 79.8719 22.668 79.8719 22.78C79.8719 22.8921 79.8282 22.9997 79.75 23.08C79.5983 23.1116 79.4417 23.1116 79.29 23.08L78.75 23C78.5745 22.9488 78.3928 22.9219 78.21 22.92C77.8547 22.7925 77.5298 22.5923 77.2561 22.3324C76.9824 22.0724 76.7657 21.7583 76.62 21.41C76.3353 20.7634 76.1824 20.0665 76.17 19.36C76.25 17.99 76.27 16.6 76.17 15.18C76.17 14.97 76.17 14.76 76.17 14.55C76.17 14.34 76.17 14.21 76.17 14.04C76.07 12.8 75.99 11.44 75.91 9.97003C75.8335 8.71016 75.8569 7.44621 75.98 6.19003C76.0511 5.95152 76.1691 5.72958 76.3271 5.53726C76.485 5.34494 76.6798 5.18611 76.9 5.07004C75.4704 5.28745 74.0195 5.32775 72.58 5.19003C71.7444 4.89632 70.9998 4.38963 70.42 3.72003C69.7839 3.07028 69.2082 2.36403 68.7 1.61002Z" fill="black"/>
<path d="M101.91 5.64005C101.91 5.78005 101.91 5.86002 101.79 5.86002C101.674 5.85931 101.562 5.82069 101.47 5.75004L101.1 5.52003C101.031 5.45693 100.953 5.40314 100.87 5.36002C100.054 4.89802 99.1584 4.59278 98.23 4.46003C97.3724 4.31935 96.4976 4.31935 95.64 4.46003C94.83 4.64003 94.4 4.90004 94.37 5.25004C94.3716 5.47035 94.4217 5.6876 94.5167 5.88636C94.6118 6.08512 94.7495 6.2605 94.92 6.40003C95.3636 6.85548 95.838 7.27984 96.34 7.67005C97.5 8.62005 98.62 9.62005 99.68 10.6701C100.745 11.7257 101.694 12.8923 102.51 14.15C103.092 15.0426 103.562 16.0031 103.91 17.01C104.25 17.9728 104.32 19.0106 104.11 20.01C103.987 20.5328 103.759 21.0253 103.441 21.4583C103.124 21.8912 102.722 22.2557 102.26 22.53C101.248 23.112 100.107 23.4317 98.94 23.46C97.6314 23.5035 96.3245 23.3346 95.07 22.96C93.8033 22.5937 92.6091 22.0118 91.54 21.24C91.094 20.9227 90.6759 20.5681 90.29 20.18C89.9093 19.7999 89.5738 19.3771 89.29 18.9201C88.8042 18.0773 88.5749 17.1112 88.63 16.1401C88.7005 15.5032 88.9821 14.9083 89.43 14.4501C89.856 13.9749 90.3866 13.6051 90.98 13.37C91.0005 13.4925 91.0005 13.6175 90.98 13.74C90.98 13.95 90.98 14.21 90.98 14.53C90.98 14.85 90.98 15.21 90.93 15.53C90.9119 15.763 90.9119 15.9971 90.93 16.2301C91.0291 16.8377 91.2958 17.4056 91.7 17.87C92.4568 18.7025 93.4349 19.3026 94.52 19.6C95.5615 19.8878 96.631 20.0621 97.71 20.12C98.2741 20.1785 98.8439 20.1515 99.4 20.04C99.9037 19.9581 100.363 19.7036 100.7 19.32C100.862 19.0904 100.968 18.8267 101.012 18.5492C101.055 18.2718 101.034 17.988 100.95 17.72C100.623 16.7177 100.096 15.7923 99.4 15C98.6223 14.0622 97.7695 13.1893 96.85 12.3901C95.93 11.5801 95.12 10.9001 94.43 10.3901C93.3513 9.60311 92.4031 8.65149 91.62 7.57005C91.1746 7.01665 90.8656 6.36624 90.7179 5.6714C90.5703 4.97655 90.5881 4.25673 90.77 3.57005C91.0026 2.952 91.3846 2.40114 91.8819 1.96665C92.3792 1.53217 92.9763 1.22756 93.62 1.08003C95.0344 0.76184 96.5118 0.876847 97.86 1.41004C99.2894 1.89351 100.536 2.80463 101.43 4.02003C101.589 4.27307 101.723 4.54102 101.83 4.82005C101.923 5.08269 101.951 5.3643 101.91 5.64005Z" fill="black"/>
<path d="M111.15 11.42C110.914 11.3948 110.681 11.3547 110.45 11.3C110.06 11.23 109.63 11.12 109.16 11C108.737 10.8874 108.322 10.7437 107.92 10.57C107.57 10.42 107.36 10.26 107.31 10.1C107.412 9.96613 107.487 9.81314 107.53 9.65002C107.61 9.40002 107.69 9.14003 107.76 8.87003C107.83 8.60003 107.88 8.44002 107.89 8.36002C107.854 8.14145 107.854 7.91861 107.89 7.70004C107.895 7.59929 107.922 7.50092 107.971 7.41251C108.019 7.3241 108.087 7.248 108.17 7.19003C108.855 7.21524 109.531 7.35379 110.17 7.60004C111.04 7.89004 111.76 8.16005 112.32 8.39005H112.41H112.46L112.63 8.47003L112.81 8.55002C112.86 8.55002 112.88 8.61005 112.88 8.64005C112.88 8.67005 112.88 8.64003 112.75 8.69003C112.628 8.81264 112.533 8.959 112.47 9.12003C112.37 9.33003 112.27 9.56003 112.16 9.81003C112.031 10.1814 111.874 10.5424 111.69 10.89C111.53 11.25 111.35 11.41 111.15 11.42ZM112.41 17.66H112.46L112.63 17.73L112.81 17.82C112.86 17.82 112.88 17.87 112.88 17.9C112.88 17.93 112.88 17.9 112.75 17.95C112.631 18.0746 112.536 18.2205 112.47 18.38C112.37 18.59 112.27 18.82 112.16 19.08C112.033 19.4489 111.876 19.8068 111.69 20.15C111.53 20.47 111.35 20.64 111.15 20.65C110.914 20.6248 110.681 20.5847 110.45 20.53C110.06 20.45 109.63 20.35 109.16 20.22C108.738 20.1059 108.324 19.9657 107.92 19.8C107.57 19.64 107.36 19.48 107.31 19.33C107.412 19.1961 107.487 19.0432 107.53 18.88C107.61 18.63 107.69 18.37 107.76 18.11C107.812 17.9357 107.856 17.7588 107.89 17.58C107.855 17.3614 107.855 17.1387 107.89 16.92C107.895 16.8193 107.922 16.7209 107.971 16.6325C108.019 16.5441 108.087 16.468 108.17 16.41C108.855 16.426 109.532 16.5614 110.17 16.81C111.04 17.11 111.76 17.38 112.32 17.61L112.41 17.66Z" fill="black"/>
<path d="M8.52 53C7.06 53.28 5.80001 53.55 4.75001 53.82L3.85001 54.06C3.49679 53.4737 3.20204 52.854 2.97001 52.21C2.73001 51.57 2.55001 51.02 2.42001 50.58L2.32001 50.25C3.65321 49.6186 5.07717 49.2002 6.54001 49.01C8.58312 48.6851 10.6573 48.6012 12.72 48.76C14.8975 48.9089 17.0277 49.4652 19 50.4C20.9696 51.3113 22.5832 52.8475 23.59 54.77C24.5421 56.7744 24.9819 58.9838 24.87 61.2C24.7921 63.752 24.2322 66.2661 23.22 68.61C22.1923 71.0589 20.615 73.2385 18.61 74.98C16.4544 76.8083 13.8072 77.9597 11 78.29C9.19181 78.5321 7.35368 78.4165 5.59 77.95C3.67022 77.3865 2.0055 76.1742 0.880005 74.52C1.57029 74.4479 2.26735 74.4748 2.95 74.6C3.94551 74.7224 4.94707 74.7891 5.95 74.8C7.23532 74.8039 8.51582 74.6426 9.76001 74.32C10.5827 74.0954 11.3802 73.7871 12.14 73.4C12.805 73.0527 13.4464 72.6618 14.06 72.23C14.3 72.09 14.54 71.93 14.8 71.76C16.1581 70.8251 17.2864 69.5942 18.1 68.16C19.0429 66.5996 19.7188 64.8929 20.1 63.11C20.5011 61.4168 20.5011 59.6533 20.1 57.96C19.6919 56.3562 18.6961 54.9643 17.31 54.06C15.88 53.06 13.8 52.64 11.09 52.76C11.1188 53.6342 11.0921 54.5093 11.01 55.38C10.91 56.67 10.77 58.15 10.61 59.83C10.38 62.15 10.2 64.38 10.04 66.53C9.88249 68.0551 9.86241 69.5913 9.98001 71.12C10.048 71.5194 9.97365 71.9299 9.77 72.28C9.58238 72.5515 9.31765 72.7605 9.01001 72.88C8.74348 72.9834 8.46435 73.0506 8.18001 73.08C8.03035 73.0943 7.87967 73.0943 7.73001 73.08C7.23001 72.8 6.81001 71.89 6.48001 70.36C6.15566 68.8019 5.92524 67.2258 5.79001 65.64C5.66899 64.5779 5.62554 63.5084 5.66001 62.44C5.76648 61.0025 5.78651 59.5599 5.72001 58.12C5.58454 57.0721 5.68011 56.0071 6.00001 55C6.55355 54.0358 7.45528 53.3202 8.52 53Z" fill="black"/>
<path d="M44.75 49.3201C44.9367 49.1734 45.0867 49.1734 45.2 49.3201C45.3186 49.5099 45.3874 49.7266 45.4 49.9501C45.4199 50.2264 45.4199 50.5037 45.4 50.78C45.4 51.05 45.4 51.25 45.4 51.36V51.44C45.4 53.13 45.35 54.82 45.4 56.5C45.4 58.75 45.4 61.0301 45.32 63.3201C45.26 64.7201 45.15 66.12 45.01 67.52C44.8724 68.8961 44.6318 70.26 44.29 71.6001C44.0534 72.7206 43.7188 73.8181 43.29 74.8801C42.8802 75.8033 42.2003 76.5807 41.34 77.11C40.4427 77.6417 39.4451 77.9821 38.41 78.11C37.4243 78.2271 36.4257 78.1695 35.46 77.94C33.5573 77.4148 31.848 76.3483 30.54 74.87C29.9878 74.2561 29.5018 73.5857 29.09 72.87C28.4659 72.0338 28.0884 71.0397 28 70C27.9489 69.6687 27.9489 69.3314 28 69C28.017 68.5123 28.1965 68.0442 28.51 67.6701C28.7613 67.3375 29.0909 67.0722 29.4695 66.8978C29.8481 66.7233 30.2639 66.6451 30.68 66.6701C30.7188 66.7651 30.7359 66.8676 30.73 66.97C30.7407 67.1699 30.7407 67.3702 30.73 67.5701C30.73 67.7501 30.73 67.92 30.73 68.08C30.73 68.24 30.73 68.35 30.73 68.43C30.8088 68.9576 30.9673 69.4701 31.2 69.9501C31.6991 70.9478 32.4293 71.8118 33.33 72.47C34.0233 73.039 34.8486 73.4242 35.73 73.59H35.83H35.89C36.2313 73.7181 36.5998 73.756 36.96 73.7001C37.5492 73.6546 38.1219 73.4841 38.64 73.2001C38.7897 73.1021 38.916 72.9723 39.01 72.8201C39.13 72.6401 39.22 72.49 39.29 72.36C39.4956 71.9484 39.6566 71.516 39.77 71.0701C39.85 70.6834 39.93 70.2734 40.01 69.84C40.336 67.3064 40.4997 64.7546 40.5 62.2001C40.5 61.4501 40.5 60.69 40.5 59.93C40.5 58.44 40.5 56.9301 40.5 55.4801C40.6019 54.1239 41.016 52.8097 41.71 51.6401C42.4495 50.5619 43.5149 49.7488 44.75 49.3201Z" fill="black"/>
<path d="M54.75 49.13C54.99 49.04 55.16 49.04 55.24 49.13C55.2848 49.1816 55.3179 49.2423 55.3369 49.3079C55.3559 49.3735 55.3604 49.4425 55.35 49.51C55.3388 49.6657 55.312 49.8198 55.27 49.97C54.9683 51.4457 54.7943 52.9445 54.75 54.45C54.66 56.32 54.6 58.13 54.57 59.89C54.57 60.89 54.57 61.76 54.51 62.49C54.51 64.84 54.51 67.21 54.51 69.6C54.5633 71.64 54.5833 73.67 54.57 75.69C54.6592 75.9459 54.6911 76.2183 54.6634 76.4878C54.6358 76.7574 54.5493 77.0176 54.41 77.25C54.2822 77.3885 54.1277 77.4997 53.9559 77.577C53.784 77.6543 53.5984 77.6962 53.41 77.7C53.0189 77.7594 52.6211 77.7594 52.23 77.7C51.5995 77.2328 51.1506 76.5613 50.96 75.8C50.6088 74.8089 50.3478 73.7881 50.18 72.75C50.04 71.991 49.9631 71.2217 49.95 70.45C50.09 67.95 50.14 65.45 50.09 62.9C50.09 62.35 50.01 61.74 49.97 61.08C49.86 59.41 49.79 57.66 49.73 55.83C49.6721 54.2786 49.7188 52.7251 49.87 51.18C49.9799 50.833 50.1677 50.5156 50.419 50.2522C50.6703 49.9887 50.9785 49.7862 51.32 49.66C52.0267 49.4313 52.7589 49.2902 53.5 49.24L54.75 49.13Z" fill="black"/>
<path d="M60.84 52.37C61.1979 51.4855 61.7721 50.705 62.51 50.1C63.1918 49.4625 64.0696 49.0748 65 49C65.87 49 66.52 49.5301 67 50.7001C67.55 52.2501 68.19 53.83 68.92 55.46C69.65 57.09 70.39 58.68 71.16 60.27C71.51 61.03 71.87 61.77 72.22 62.5C73.3133 64.6134 74.51 66.7867 75.81 69.02C75.81 67.34 75.81 65.65 75.81 63.94C75.81 62.23 75.66 60.2501 75.63 58.1701C75.5817 56.2996 75.6686 54.428 75.89 52.57C76.2145 51.5447 76.8773 50.6597 77.77 50.06C78.695 49.4543 79.7065 48.9923 80.77 48.69C81.02 48.53 81.18 48.56 81.25 48.77C81.3285 49.0324 81.3557 49.3074 81.33 49.58C81.33 49.91 81.33 50.17 81.26 50.37C81.19 50.57 81.26 50.4701 81.26 50.4801C80.7467 54.2601 80.4133 58.1367 80.26 62.11C80.26 62.64 80.18 63.17 80.16 63.69C80.11 65.41 80.16 67.28 80.16 69.3C80.16 71.32 80.39 73.2201 80.6 74.9801C80.7186 75.2068 80.7863 75.4567 80.7983 75.7123C80.8104 75.9679 80.7666 76.2231 80.67 76.46C80.28 77.53 79.67 77.92 78.82 77.62C77.7777 77.1973 76.8444 76.5444 76.09 75.71C75.1657 74.7729 74.3101 73.7703 73.53 72.71C73.027 72.0763 72.5692 71.408 72.16 70.71C71.16 68.71 70.16 66.71 69.03 64.79L68.66 64.1701C67.4934 62.2901 66.35 60.2901 65.23 58.1701C65.16 58.9801 65.1 59.78 65.03 60.57C64.95 61.57 64.87 62.5 64.8 63.44C64.6667 67.36 64.73 71.3334 64.99 75.36C65.1868 75.9165 65.1868 76.5236 64.99 77.08C64.8289 77.4245 64.5581 77.7058 64.22 77.88C63.8866 78.0808 63.5308 78.2418 63.16 78.36C62.67 78.16 62.22 77.5101 61.8 76.4201C61.3839 75.2889 61.0497 74.1292 60.8 72.9501C60.5861 72.1143 60.4489 71.2607 60.39 70.4C60.51 68.1 60.57 65.84 60.57 63.6C60.49 61.85 60.46 59.94 60.49 57.87C60.4595 56.0303 60.5765 54.1911 60.84 52.37Z" fill="black"/>
<path d="M92.3999 71C92.7699 71 92.9699 71.06 92.9999 71.19C93.0299 71.32 92.9999 71.48 92.7899 71.69C92.4317 72.109 92.1354 72.577 91.9099 73.08C91.6799 73.61 91.4599 74.14 91.2699 74.67C91.1999 74.86 91.1399 75.03 91.0699 75.2C90.9696 75.7237 90.9327 76.2575 90.9599 76.79C90.9599 77.45 90.9599 78 91.0399 78.44C91.1499 78.56 91.1899 78.66 91.1599 78.73C91.116 78.8113 91.0454 78.8749 90.9599 78.91C90.7572 78.9803 90.5445 79.0174 90.3299 79.02H89.3299C89.0199 79.02 88.7799 79.02 88.6199 79.02C88.1964 78.9385 87.8067 78.7331 87.4999 78.43C87.0273 78.0594 86.5979 77.6368 86.2199 77.17C85.8599 76.72 85.6999 76.39 85.7499 76.17C85.9355 75.5461 86.0397 74.9007 86.0599 74.25C86.0145 73.6776 86.0145 73.1025 86.0599 72.53C86.0887 71.963 86.2607 71.4125 86.5599 70.93C87.3881 70.6151 88.2818 70.512 89.1599 70.63C90.3199 70.72 91.3199 70.82 92.1599 70.95L92.3999 71Z" fill="black"/>
<path d="M113.65 49.05C113.91 49.05 114.08 49.05 114.14 49.19C114.175 49.2383 114.199 49.2941 114.21 49.353C114.22 49.412 114.217 49.4725 114.2 49.53C114.168 49.6746 114.121 49.8154 114.06 49.95C114.066 49.9932 114.066 50.0369 114.06 50.08C113.617 51.5439 113.319 53.0478 113.17 54.57C112.97 56.37 112.81 58.1 112.7 59.75C112.64 60.44 112.59 61.07 112.54 61.65C112.361 65.3925 112.401 69.1423 112.66 72.88C112.754 73.0663 112.805 73.2714 112.81 73.48H113.5C113.663 73.4898 113.827 73.4898 113.99 73.48C115.81 73.48 117.75 73.4 119.83 73.21C120.55 73.14 121.24 73.09 121.9 73.05C122.152 72.9399 122.425 72.8831 122.7 72.8831C122.975 72.8831 123.248 72.9399 123.5 73.05C123.921 73.2288 124.299 73.4946 124.61 73.83C124.959 74.1646 125.274 74.5331 125.55 74.93C125.55 75.21 125.15 75.56 124.36 75.98C123.542 76.4107 122.693 76.7784 121.82 77.08C121.178 77.3384 120.506 77.5132 119.82 77.6C118.408 77.5248 116.992 77.5248 115.58 77.6H115.52C114.71 77.73 113.76 77.84 112.67 77.91C111.718 77.9987 110.758 77.9481 109.82 77.76C109.038 77.2255 108.424 76.4798 108.05 75.61C107.632 74.7725 107.28 73.9032 107 73.01C106.87 72.7 106.86 72.51 106.95 72.45C107.04 72.39 107.23 72.45 107.49 72.56C108.052 72.7937 108.645 72.9453 109.25 73.01C108.853 72.1375 108.548 71.2259 108.34 70.29C108.167 69.5949 108.06 68.8851 108.02 68.17C108.12 66.45 108.18 64.7 108.19 62.93C108.19 62.49 108.19 62.05 108.19 61.6C108.12 59.98 108.08 58.13 108.1 56.07C108.085 54.2899 108.235 52.5122 108.55 50.76C108.742 50.3364 109.03 49.9632 109.391 49.6699C109.752 49.3766 110.176 49.1712 110.63 49.07C111.625 48.8584 112.652 48.8516 113.65 49.05Z" fill="black"/>
<path d="M134.84 49.13C135.09 49.04 135.26 49.04 135.34 49.13C135.385 49.1816 135.418 49.2423 135.437 49.3079C135.456 49.3735 135.46 49.4425 135.45 49.51C135.439 49.6657 135.412 49.8198 135.37 49.97C135.064 51.4452 134.887 52.9442 134.84 54.45C134.75 56.32 134.69 58.13 134.67 59.89C134.67 60.89 134.67 61.76 134.61 62.49C134.61 64.8367 134.61 67.2067 134.61 69.6C134.663 71.64 134.683 73.67 134.67 75.69C134.756 75.9464 134.787 76.2183 134.759 76.4874C134.732 76.7565 134.647 77.0166 134.51 77.25C134.382 77.388 134.227 77.4989 134.056 77.5762C133.884 77.6535 133.698 77.6956 133.51 77.7C133.122 77.7593 132.728 77.7593 132.34 77.7C131.706 77.2344 131.253 76.5627 131.06 75.8C130.717 74.8072 130.459 73.7868 130.29 72.75C130.145 71.9918 130.068 71.222 130.06 70.45C130.2 67.95 130.25 65.45 130.19 62.9C130.19 62.35 130.12 61.74 130.08 61.08C129.973 59.4133 129.893 57.6633 129.84 55.83C129.782 54.2786 129.829 52.7251 129.98 51.18C130.09 50.8343 130.276 50.518 130.525 50.2547C130.775 49.9915 131.081 49.7881 131.42 49.66C132.13 49.4322 132.866 49.2912 133.61 49.24L134.84 49.13Z" fill="black"/>
<path d="M160.29 52C160.461 52.1726 160.583 52.3879 160.643 52.6236C160.703 52.8593 160.698 53.1067 160.63 53.34C160.468 53.7542 160.177 54.105 159.8 54.34C159.476 54.5783 159.091 54.7204 158.69 54.75C158.473 54.6851 158.259 54.6083 158.05 54.52C156.809 54.0464 155.544 53.6392 154.26 53.3C153.16 52.9482 151.984 52.9033 150.86 53.17C149.36 53.7555 148.044 54.7328 147.05 56C146.245 57.2329 145.635 58.5819 145.24 60C144.808 61.4705 144.529 62.982 144.41 64.51C144.328 65.9042 144.491 67.3018 144.89 68.64C145.296 70.0729 146.036 71.389 147.05 72.48C147.829 73.2148 148.812 73.696 149.87 73.86C150.925 74.045 152.005 74.045 153.06 73.86C154.008 73.6874 154.934 73.409 155.82 73.03C156 72.91 156.27 72.71 156.61 72.43L157.7 71.54C158.07 71.23 158.4 70.96 158.7 70.73C159 70.5 159.12 70.38 159.14 70.35C159.701 70.1822 160.299 70.1822 160.86 70.35C161.358 70.465 161.873 70.4921 162.38 70.43C162.61 70.53 162.65 70.79 162.52 71.19C162.352 71.6684 162.134 72.1276 161.87 72.56C161.56 73.06 161.26 73.56 160.98 73.92C160.7 74.28 160.5 74.57 160.41 74.67C159.165 75.9756 157.654 76.9987 155.98 77.67C154.606 78.2327 153.135 78.5214 151.65 78.52C150.046 78.5037 148.47 78.1061 147.05 77.36C145.255 76.4054 143.733 75.0079 142.63 73.3C141.557 71.6546 140.792 69.8285 140.37 67.91C139.881 65.3902 139.841 62.804 140.25 60.27C140.534 58.7513 140.976 57.2665 141.57 55.84C142.171 54.3882 142.994 53.0388 144.01 51.84C144.988 50.6873 146.225 49.7826 147.62 49.2C150.556 48.2151 153.748 48.3108 156.62 49.47C157.289 49.7929 157.936 50.1569 158.56 50.56C159.198 50.9609 159.78 51.4452 160.29 52Z" fill="black"/>
<path d="M172.81 49.63C173.05 49.53 173.2 49.54 173.28 49.63C173.365 49.8001 173.4 49.9909 173.38 50.18C173.371 50.4018 173.344 50.6224 173.3 50.84C173.3 51.05 173.24 51.18 173.22 51.24C172.607 54.5486 172.163 57.8863 171.89 61.24C173.61 61.43 175.03 61.55 176.15 61.59C177.606 61.6173 179.062 61.5572 180.51 61.41C180.51 59.67 180.51 57.74 180.51 55.64C180.529 53.8398 180.716 52.0453 181.07 50.28C181.271 49.8577 181.57 49.4894 181.943 49.2059C182.315 48.9224 182.749 48.7318 183.21 48.65C184.203 48.4562 185.227 48.4801 186.21 48.72C186.56 48.77 186.75 48.85 186.77 48.97C186.774 49.1453 186.722 49.3172 186.62 49.46C186.589 49.4852 186.568 49.5207 186.56 49.56C186.014 51.2491 185.656 52.9928 185.49 54.76C185.23 56.98 185.02 58.97 184.88 60.76V60.87C185.352 60.9465 185.801 61.1313 186.19 61.41C186.551 61.6635 186.885 61.9515 187.19 62.27C187.34 62.421 187.48 62.5814 187.61 62.75C187.61 63.05 187.29 63.4 186.71 63.75C186.061 64.1854 185.375 64.5635 184.66 64.88C184.615 68.259 184.762 71.6377 185.1 75C185.314 75.5533 185.314 76.1667 185.1 76.72C184.955 77.0546 184.696 77.3272 184.37 77.49C184.054 77.6896 183.719 77.8571 183.37 77.99C182.81 77.82 182.29 77.18 181.83 76.05C181.345 74.8765 180.967 73.6616 180.7 72.42C180.48 71.5376 180.34 70.6374 180.28 69.73C180.37 68.4 180.42 67.08 180.42 65.73C179.9 65.73 179.42 65.73 178.86 65.73H177.29C175.364 65.9388 173.425 66.0023 171.49 65.92C171.374 69.1379 171.441 72.3597 171.69 75.57C171.909 76.1363 171.909 76.7638 171.69 77.33C171.508 77.6649 171.243 77.9473 170.92 78.15C170.611 78.3769 170.275 78.5649 169.92 78.71C169.41 78.52 168.92 77.87 168.5 76.76C168.042 75.6094 167.671 74.4261 167.39 73.22C167.159 72.3528 167.012 71.4654 166.95 70.57C167.07 68.98 167.15 67.39 167.19 65.78C167.19 65.22 167.19 64.67 167.25 64.12C166.254 63.1112 165.368 61.9981 164.61 60.8C164.4 60.58 164.35 60.43 164.44 60.35C164.598 60.2628 164.781 60.2312 164.96 60.26C165.201 60.2675 165.442 60.2909 165.68 60.33L166.11 60.39L166.66 60.49L167.21 60.57C167.21 59.1834 167.25 57.8034 167.33 56.43C167.389 55.1988 167.529 53.9728 167.75 52.76C168.13 51.8098 168.84 51.0286 169.75 50.56C170.721 50.1077 171.751 49.7946 172.81 49.63Z" fill="black"/>
<path d="M197.42 49.13C197.67 49.04 197.83 49.04 197.92 49.13C197.963 49.1829 197.994 49.2437 198.013 49.3089C198.032 49.3742 198.038 49.4426 198.03 49.51C198.014 49.665 197.987 49.8187 197.95 49.97C197.644 51.4452 197.467 52.9442 197.42 54.45C197.33 56.32 197.27 58.13 197.25 59.89C197.25 60.89 197.25 61.76 197.19 62.49C197.19 64.8367 197.19 67.2067 197.19 69.6C197.237 71.64 197.257 73.67 197.25 75.69C197.335 75.9467 197.364 76.2183 197.337 76.4871C197.309 76.7559 197.225 77.0159 197.09 77.25C196.828 77.5251 196.469 77.6867 196.09 77.7C195.702 77.7593 195.308 77.7593 194.92 77.7C194.286 77.2344 193.833 76.5627 193.64 75.8C193.297 74.8072 193.039 73.7868 192.87 72.75C192.725 71.9918 192.648 71.222 192.64 70.45C192.78 67.95 192.82 65.45 192.77 62.9C192.77 62.35 192.69 61.74 192.65 61.08C192.55 59.41 192.47 57.66 192.42 55.83C192.357 54.2786 192.404 52.7248 192.56 51.18C192.67 50.8343 192.856 50.518 193.106 50.2547C193.355 49.9915 193.661 49.7881 194 49.66C194.71 49.4322 195.446 49.2912 196.19 49.24L197.42 49.13Z" fill="black"/>
<path d="M209.84 71C210.21 71 210.41 71.06 210.44 71.19C210.47 71.32 210.44 71.48 210.23 71.69C209.871 72.1068 209.578 72.5754 209.36 73.08C209.12 73.61 208.91 74.14 208.71 74.67C208.65 74.86 208.58 75.03 208.52 75.2C208.416 75.7232 208.375 76.2571 208.4 76.79C208.4 77.45 208.4 78 208.48 78.44C208.59 78.56 208.64 78.66 208.6 78.73C208.556 78.8113 208.485 78.8749 208.4 78.91C208.197 78.9802 207.984 79.0174 207.77 79.02H206.83C206.51 79.02 206.27 79.02 206.11 79.02C205.686 78.9385 205.297 78.7331 204.99 78.43C204.52 78.0565 204.091 77.6341 203.71 77.17C203.35 76.72 203.19 76.39 203.24 76.17C203.425 75.546 203.53 74.9007 203.55 74.25C203.504 73.6776 203.504 73.1025 203.55 72.53C203.579 71.963 203.751 71.4125 204.05 70.93C204.878 70.6159 205.772 70.5128 206.65 70.63C207.81 70.72 208.81 70.82 209.65 70.95L209.84 71Z" fill="black"/>
<path d="M241.21 55C241.21 55.19 241.21 55.29 241.05 55.3C240.897 55.2979 240.75 55.2451 240.63 55.15C240.46 55.05 240.29 54.95 240.14 54.84C240.043 54.757 239.935 54.6864 239.82 54.63C238.735 54.0146 237.545 53.6076 236.31 53.43C235.165 53.2383 233.995 53.2383 232.85 53.43C231.77 53.67 231.2 54.02 231.15 54.48C231.156 54.7747 231.225 55.0647 231.353 55.3303C231.48 55.596 231.664 55.8312 231.89 56.02C232.482 56.6277 233.117 57.1925 233.79 57.71C235.34 58.97 236.79 60.31 238.24 61.71C239.658 63.1146 240.922 64.6667 242.01 66.34C242.786 67.5327 243.414 68.8155 243.88 70.16C244.332 71.4444 244.421 72.828 244.14 74.16C243.977 74.8581 243.675 75.5163 243.253 76.0952C242.83 76.6742 242.295 77.1622 241.68 77.53C240.331 78.2988 238.812 78.7214 237.26 78.76C235.511 78.826 233.764 78.5995 232.09 78.09C230.4 77.6034 228.807 76.8287 227.38 75.8C226.787 75.3783 226.232 74.9066 225.72 74.39C225.205 73.8885 224.754 73.324 224.38 72.71C223.729 71.5864 223.423 70.2962 223.5 69C223.59 68.149 223.963 67.3529 224.56 66.74C225.135 66.1203 225.838 65.6325 226.62 65.31C226.649 65.472 226.649 65.638 226.62 65.8C226.62 66.08 226.62 66.44 226.56 66.85C226.5 67.26 226.56 67.77 226.5 68.19C226.482 68.4998 226.482 68.8103 226.5 69.12C226.624 69.9286 226.97 70.6869 227.5 71.31C228.503 72.4262 229.81 73.2256 231.26 73.61C232.647 73.9987 234.072 74.2334 235.51 74.31C236.257 74.3919 237.013 74.3582 237.75 74.21C238.428 74.0863 239.042 73.7332 239.49 73.21C239.71 72.9045 239.854 72.5514 239.911 72.1795C239.969 71.8077 239.937 71.4275 239.82 71.07C239.392 69.7337 238.69 68.501 237.76 67.45C236.722 66.1972 235.585 65.0301 234.36 63.96C233.13 62.88 232.06 61.96 231.13 61.27C229.697 60.2172 228.433 58.9527 227.38 57.52C226.09 55.52 225.71 53.78 226.25 52.19C226.563 51.3646 227.074 50.6289 227.738 50.0481C228.403 49.4673 229.2 49.0592 230.06 48.86C231.946 48.4398 233.914 48.5966 235.71 49.31C237.617 49.9521 239.28 51.1675 240.47 52.79C240.673 53.1279 240.847 53.4826 240.99 53.85C241.169 54.2055 241.245 54.6037 241.21 55Z" fill="black"/>
<path d="M261.43 48.1701C261.57 48.0101 261.73 48.0201 261.91 48.1701C262.131 48.3838 262.314 48.6341 262.45 48.91C262.624 49.2333 262.778 49.5673 262.91 49.91C263.04 50.23 263.13 50.48 263.18 50.65C264.546 55.3256 265.549 60.0999 266.18 64.93C266.18 65.08 266.24 65.2501 266.28 65.4201C266.46 66.4201 266.67 67.42 266.9 68.56L267.37 68.68C267.675 68.811 267.953 68.9975 268.19 69.23C268.464 69.4866 268.719 69.7641 268.95 70.06C269.123 70.2712 269.28 70.4952 269.42 70.73C269.42 70.85 269.42 70.99 269.19 71.15C268.972 71.3205 268.741 71.4742 268.5 71.61L267.82 71.94L267.7 72C268.035 73.4383 268.459 74.8544 268.97 76.24C269.111 76.4058 269.218 76.5984 269.283 76.8063C269.349 77.0142 269.371 77.2332 269.35 77.4501C269.285 77.5929 269.194 77.7219 269.08 77.83C268.93 77.99 268.76 78.16 268.57 78.33C268.38 78.5 268.23 78.63 268.1 78.74L267.98 78.83C267.46 78.94 266.9 78.67 266.3 78.03C265.657 77.3357 265.1 76.5669 264.64 75.74C264.197 74.9938 263.819 74.2109 263.51 73.4H263.43C262.056 73.3262 260.679 73.353 259.31 73.48C258.8 73.57 258.07 73.69 257.12 73.83C256.17 73.97 255.22 74.0901 254.29 74.1701C253.59 74.2619 252.88 74.2619 252.18 74.1701L251.9 74.6401C251.77 74.8701 251.64 75.1 251.49 75.32C251.311 76.0783 250.859 76.744 250.22 77.19C249.801 77.4684 249.313 77.6243 248.81 77.6401C248.28 77.7007 247.743 77.6771 247.22 77.57C247.071 76.8266 247.123 76.0569 247.37 75.34C247.63 74.14 247.96 72.91 248.37 71.65C247.728 71.037 247.121 70.3893 246.55 69.71C246.32 69.54 246.23 69.41 246.3 69.31C246.423 69.1891 246.588 69.1209 246.76 69.12C247.005 69.0881 247.252 69.0714 247.5 69.07H248.08H248.15C248.49 69.07 248.84 69.07 249.21 69.07C249.52 68.2755 249.898 67.5093 250.34 66.78C250.873 65.8927 251.325 64.9589 251.69 63.99C251.98 63.13 252.39 61.8 252.94 59.99C253.49 58.18 253.94 56.69 254.46 55.1C254.797 53.9807 255.191 52.8793 255.64 51.8C256.035 51.0014 256.622 50.3139 257.35 49.8C257.954 49.4356 258.607 49.1595 259.29 48.98C260.027 48.7762 260.743 48.5051 261.43 48.1701ZM254.59 69.1701C255.59 69.1701 256.51 69.1701 257.46 69.1701C258.68 69.1701 259.94 69.0601 261.23 68.9501L262.64 68.83C262.57 68.53 262.5 68.2301 262.42 67.9201C262.29 67.2901 262.16 66.68 262.03 66.08C261.9 65.48 261.63 64.59 261.43 63.79C260.77 61.4 260.18 59.02 259.63 56.65C258.61 59.5634 257.49 62.4 256.27 65.16C256.06 65.64 255.86 66.16 255.66 66.63L255.16 67.88C255 68.29 254.76 68.71 254.59 69.13V69.1701Z" fill="black"/>
<path d="M279.67 49.21C279.94 49.21 280.11 49.27 280.17 49.41C280.225 49.5688 280.225 49.7413 280.17 49.9C280.1 50.09 280.04 50.25 279.97 50.4V50.47C279.548 51.7922 279.253 53.1517 279.09 54.53C278.88 56.11 278.72 57.72 278.6 59.36C279.6 58.4977 280.523 57.5508 281.36 56.53C281.88 55.83 282.52 54.86 283.29 53.62C283.76 52.88 284.2 52.1901 284.62 51.5701C284.922 51.1037 285.256 50.6593 285.62 50.24C286.296 49.7671 287.08 49.4714 287.9 49.3801C288.827 49.2386 289.762 49.1551 290.7 49.1301H291.46C291.73 49.0201 291.9 49.04 291.95 49.19C292.016 49.3744 292.016 49.5757 291.95 49.7601C291.87 50.0001 291.79 50.2301 291.7 50.4501C291.61 50.6701 291.54 50.7901 291.51 50.8501C290.646 52.3763 289.68 53.8429 288.62 55.24C287.62 56.54 286.49 57.88 285.24 59.24C285.407 59.66 285.567 60.07 285.72 60.47C286.28 61.88 286.83 63.21 287.36 64.47C287.89 65.73 288.55 67.1 289.36 68.66C290.027 69.7467 290.827 70.9767 291.76 72.3501C292.609 73.5747 293.527 74.7499 294.51 75.87C294.685 75.9537 294.838 76.0767 294.958 76.2293C295.078 76.3819 295.161 76.5602 295.2 76.75C295.214 76.9454 295.194 77.1417 295.14 77.33C295.074 77.5941 294.994 77.8544 294.9 78.11C294.837 78.3118 294.76 78.5089 294.67 78.7001C294.31 78.9301 293.75 78.88 292.99 78.53C292.189 78.1553 291.434 77.6888 290.74 77.1401C290.136 76.6803 289.586 76.1536 289.1 75.5701C288.173 74.0434 287.217 72.5267 286.23 71.02C285.85 70.5 285.32 69.71 284.63 68.65C283.94 67.59 283.3 66.53 282.72 65.49C282.247 64.7777 281.908 63.9846 281.72 63.15L281.15 63.74C280.68 64.25 280.15 64.74 279.61 65.31C279.222 65.7375 278.749 66.0783 278.22 66.31C278.22 69 278.22 71.7001 278.34 74.3901C278.34 74.9501 278.39 75.5 278.4 76.03C278.497 76.2483 278.54 76.4864 278.526 76.7247C278.512 76.963 278.441 77.1945 278.32 77.4C278.065 77.646 277.733 77.7977 277.38 77.83C277.015 77.9017 276.642 77.9286 276.27 77.91C275.624 77.5318 275.142 76.9254 274.92 76.21C274.553 75.2877 274.272 74.3337 274.08 73.36C273.927 72.6588 273.83 71.9466 273.79 71.2301C273.87 70.0701 273.91 68.8801 273.93 67.6701C273.95 66.4601 273.93 65.28 273.93 64.12C273.85 62.22 273.817 60.1234 273.83 57.83C273.818 55.7955 273.988 53.764 274.34 51.7601C274.528 51.2799 274.812 50.8432 275.175 50.4769C275.538 50.1106 275.972 49.8224 276.45 49.6301C277.464 49.1967 278.579 49.0514 279.67 49.21Z" fill="black"/>
<path d="M301 54.13C300.252 53.5595 299.638 52.8326 299.2 52C298.725 51.2043 298.295 50.3831 297.91 49.54C297.697 49.2134 297.657 49.0234 297.79 48.97C298.001 48.9254 298.221 48.9463 298.42 49.03C299.307 49.2373 300.21 49.3678 301.12 49.42C302.12 49.48 303.12 49.52 304.12 49.54H305.45C306.4 49.54 307.4 49.54 308.45 49.44L311.62 49.22C312.69 49.15 313.72 49.08 314.71 49.03C316.397 48.65 317.887 49.2867 319.18 50.94C319.09 51.25 318.55 51.62 317.56 52.04C316.522 52.4682 315.46 52.8355 314.38 53.14C313.601 53.3873 312.801 53.5614 311.99 53.66H310.82C310.01 53.66 309.26 53.66 308.57 53.66C307.76 53.6932 306.952 53.77 306.15 53.89C305.87 55.99 305.62 58.1 305.43 60.24C306.08 60.29 306.73 60.36 307.38 60.43C308.815 60.4683 310.25 60.4249 311.68 60.3L313.38 60.2C313.56 60.1175 313.758 60.0816 313.955 60.0955C314.153 60.1095 314.343 60.173 314.51 60.28C314.852 60.5148 315.141 60.8178 315.36 61.17C315.613 61.5105 315.837 61.8718 316.03 62.25C316.03 62.5434 315.77 62.8767 315.25 63.25C314.727 63.6421 314.164 63.9773 313.57 64.25C313.122 64.5068 312.624 64.6637 312.11 64.71C310.91 64.64 309.99 64.62 309.35 64.64C308.71 64.66 308.18 64.7 307.73 64.75L306.59 64.85C306.18 64.85 305.66 64.85 305.02 64.85C304.897 67.1137 304.944 69.3834 305.16 71.64C305.239 71.8022 305.284 71.9795 305.29 72.16C305.29 72.3162 305.245 72.4692 305.16 72.6L304.87 72.77C304.717 72.8515 304.556 72.9185 304.39 72.97L308.01 73.11C308.24 73.11 308.48 73.11 308.71 73.11C309.93 73.11 311.3 73.06 312.81 72.93C314.32 72.8 315.68 72.63 316.87 72.42C317.011 72.3047 317.188 72.2417 317.37 72.2417C317.552 72.2417 317.729 72.3047 317.87 72.42C318.102 72.57 318.302 72.7636 318.46 72.99C318.69 73.29 318.91 73.58 319.1 73.85L319.36 74.18C319.41 74.4368 319.389 74.7021 319.301 74.9484C319.214 75.1947 319.061 75.4128 318.86 75.58C318.381 76.0515 317.823 76.4341 317.21 76.71C316.691 76.9777 316.129 77.1536 315.55 77.23C314.19 77.23 312.83 77.23 311.46 77.33L310.55 77.39C309.38 77.52 308 77.63 306.42 77.72C305.035 77.816 303.645 77.769 302.27 77.58C301.301 77.165 300.478 76.4682 299.91 75.58C299.322 74.7121 298.823 73.7875 298.42 72.82C298.27 72.55 298.24 72.39 298.31 72.32C298.362 72.2804 298.422 72.2534 298.487 72.2412C298.551 72.2291 298.617 72.2321 298.68 72.25C298.864 72.2778 299.045 72.3248 299.22 72.39C300.275 72.6075 301.345 72.7511 302.42 72.82C301.783 72.0976 301.312 71.2442 301.04 70.32C300.743 69.5411 300.564 68.722 300.51 67.89C300.51 67.78 300.51 67.57 300.51 67.27C300.51 66.75 300.59 66.13 300.64 65.4C300.69 64.67 300.73 64.02 300.76 63.4C300.802 63.068 300.802 62.732 300.76 62.4C300.223 61.59 299.736 60.7485 299.3 59.88C299.11 59.59 299.09 59.41 299.23 59.35C299.428 59.2865 299.642 59.2865 299.84 59.35C300.103 59.3929 300.363 59.4497 300.62 59.52H300.72C300.72 58.52 300.72 57.52 300.78 56.57C300.805 55.753 300.878 54.9383 301 54.13Z" fill="black"/>
</svg>
