<svg width="544" height="282" viewBox="0 0 544 282" fill="none" xmlns="http://www.w3.org/2000/svg">
<path d="M14 192.9C18.6442 195.108 23.7388 196.203 28.88 196.1C34.0237 196.208 39.1218 195.115 43.77 192.91C47.903 190.939 51.3764 187.813 53.77 183.91C56.1794 179.855 57.4056 175.206 57.31 170.49V138.61H41.79V169.74C41.8523 172.055 41.3512 174.351 40.33 176.43C39.3674 178.28 37.8449 179.778 35.98 180.71C33.756 181.693 31.3514 182.2 28.92 182.2C26.4886 182.2 24.084 181.693 21.86 180.71C19.9869 179.777 18.4572 178.275 17.49 176.42C16.465 174.353 15.9604 172.067 16.02 169.76V138.61H0.459971V170.49C0.360297 175.203 1.58691 179.85 3.99997 183.9C6.4101 187.789 9.87895 190.911 14 192.9Z" fill="black"/>
<path d="M109 179.74L91.8499 138.61H67.8099V194.86H82.6199V152.38L101.07 194.86H116.79L135.27 152.2V194.86H150.05V138.61H126.05L109 179.74Z" fill="black"/>
<path d="M181.74 138.61L156.12 194.86H172.74L177.42 184H206.48L211.17 194.83H227.75L202.17 138.58L181.74 138.61ZM182.82 171.54L191.94 150.45L201.07 171.54H182.82Z" fill="black"/>
<path d="M248.6 152.38L267.05 194.86H282.76L301.25 152.2V194.86H316.02V138.61H292.02L274.97 179.74L257.82 138.61H233.79V194.86H248.6V152.38Z" fill="black"/>
<path d="M342.79 138.61H327.23V194.86H342.79V138.61Z" fill="black"/>
<path d="M46.77 227.12C41.2732 224.687 35.3099 223.489 29.3 223.61H1.20996V279.86H29.3C35.3091 279.984 41.2724 278.789 46.77 276.36C51.5412 274.256 55.6138 270.836 58.51 266.5C61.2308 262.057 62.6708 256.949 62.6708 251.74C62.6708 246.53 61.2308 241.422 58.51 236.98C55.6138 232.644 51.5412 229.223 46.77 227.12ZM45 259.31C43.6247 261.509 41.6267 263.249 39.26 264.31C36.505 265.533 33.5134 266.131 30.5 266.06H16.7V237.45H30.46C33.4734 237.379 36.465 237.977 39.22 239.2C41.5874 240.26 43.5856 242 44.96 244.2C46.2704 246.509 46.9592 249.119 46.9592 251.775C46.9592 254.43 46.2704 257.04 44.96 259.35L45 259.31Z" fill="black"/>
<path d="M106.55 255.3C106.55 259.3 105.573 262.35 103.62 264.45C101.667 266.55 98.6666 267.613 94.6199 267.64C90.4733 267.64 87.4733 266.513 85.6199 264.26C83.7666 262.007 82.8333 258.607 82.8199 254.06V252.19H67.5499L67.6199 255.3C67.5218 260.084 68.6877 264.81 70.9999 269C73.1937 272.854 76.4828 275.969 80.4499 277.95C84.8627 280.098 89.7234 281.164 94.6299 281.06C99.6119 281.17 104.554 280.144 109.08 278.06C113.076 276.186 116.43 273.173 118.72 269.4C121.079 265.354 122.266 260.732 122.15 256.05V223.61H106.55V255.3Z" fill="black"/>
<path d="M148.17 223.61H132.61V279.86H148.17V223.61Z" fill="black"/>
<path d="M206.75 262.23L179.52 223.61H159.39V279.86H174.5V240.37L202.25 279.86H221.82V223.61H206.75V262.23Z" fill="black"/>
<path d="M246.24 237.45H267.69V279.86H283.25V237.45H304.7V223.61H246.24V237.45Z" fill="black"/>
<path d="M358.25 226.05C352.734 223.626 346.775 222.374 340.75 222.374C334.725 222.374 328.766 223.626 323.25 226.05C318.423 228.298 314.341 231.883 311.49 236.38C308.766 241.041 307.33 246.342 307.33 251.74C307.33 257.138 308.766 262.439 311.49 267.1C314.341 271.597 318.423 275.182 323.25 277.43C328.766 279.854 334.725 281.106 340.75 281.106C346.775 281.106 352.734 279.854 358.25 277.43C363.072 275.179 367.15 271.594 370 267.1C372.743 262.446 374.19 257.142 374.19 251.74C374.19 246.338 372.743 241.034 370 236.38C367.15 231.886 363.072 228.301 358.25 226.05ZM356.32 260C354.848 262.353 352.707 264.213 350.17 265.34C344.138 267.82 337.372 267.82 331.34 265.34C328.807 264.215 326.672 262.354 325.21 260C323.809 257.476 323.074 254.637 323.074 251.75C323.074 248.863 323.809 246.024 325.21 243.5C326.669 241.143 328.805 239.282 331.34 238.16C337.372 235.68 344.138 235.68 350.17 238.16C352.709 239.284 354.851 241.144 356.32 243.5C357.73 246.021 358.47 248.861 358.47 251.75C358.47 254.639 357.73 257.479 356.32 260Z" fill="black"/>
<path d="M430.29 262.23L403.06 223.61H382.92V279.86H398.04V240.37L425.79 279.86H445.36V223.61H430.29V262.23Z" fill="black"/>
<path d="M472.13 223.61H456.57V279.86H472.13V223.61Z" fill="black"/>
<path d="M543.76 279.86L523.84 247.26L543.01 223.61H526.55L498.83 259V223.61H483.35V279.86H497.41L514.02 259.37L526.1 279.86H543.76Z" fill="black"/>
<path d="M28.92 121.46C23.6988 121.558 18.5263 120.442 13.81 118.2C9.60172 116.166 6.06016 112.974 3.59998 109C1.15135 104.874 -0.0955447 100.147 -2.28407e-05 95.35V63H16.56V94.6C16.5044 96.8225 16.9882 99.0253 17.97 101.02C18.8912 102.785 20.3474 104.213 22.13 105.1C24.2818 106.049 26.608 106.54 28.96 106.54C31.312 106.54 33.6381 106.049 35.79 105.1C37.5608 104.217 39.0066 102.795 39.92 101.04C40.9035 99.0317 41.3872 96.8155 41.33 94.58V63H57.89V95.35C57.9615 100.152 56.6942 104.878 54.23 109C51.7849 112.981 48.2433 116.172 44.03 118.19C39.3133 120.432 34.1416 121.551 28.92 121.46ZM0.999977 64V95.35C0.911235 99.9702 2.12037 104.523 4.48997 108.49C6.85807 112.3 10.2602 115.359 14.3 117.31C18.911 119.383 23.9093 120.455 28.965 120.455C34.0207 120.455 39.019 119.383 43.63 117.31C47.6752 115.38 51.0753 112.32 53.42 108.5C55.7773 104.521 56.9789 99.9639 56.89 95.34V64H42.29V94.6C42.3526 96.9959 41.831 99.3709 40.77 101.52C39.7559 103.457 38.1567 105.025 36.2 106C33.9073 107.022 31.4252 107.55 28.915 107.55C26.4048 107.55 23.9226 107.022 21.63 106C19.6656 105.019 18.0597 103.445 17.04 101.5C15.9879 99.3585 15.4665 96.9954 15.52 94.61V64H0.999977Z" fill="black"/>
<path d="M150.55 120.22H134.77V79.47L117.11 120.22H100.75L83.1199 79.64V120.22H67.3099V63H92.1799L109 103.3L125.72 63H150.55V120.22ZM135.77 119.22H149.55V64H126.38L109 105.9L91.5199 64H68.3099V119.25H82.1199V77.25L83.1199 77.05L101.44 119.24H116.5L134.85 76.88L135.85 77.08L135.77 119.22Z" fill="black"/>
<path d="M228.53 120.22H210.85L206.15 109.39H177.75L173.06 120.22H155.35L181.41 63H202.5L228.53 120.22ZM211.53 119.22H227L201.85 64H182.06L156.9 119.22H172.41L177.09 108.39H206.81L211.53 119.22ZM201.83 96.9H182.06L191.94 74.05L201.83 96.9ZM183.58 95.9H200.31L191.94 76.57L183.58 95.9Z" fill="black"/>
<path d="M316.52 120.22H300.75V79.47L283.09 120.22H266.72L249.1 79.64V120.22H233.29V63H258.16L275 103.3L291.69 63H316.52V120.22ZM301.75 119.22H315.52V64H292.36L275 105.9L257.49 64H234.29V119.25H248.1V77.25L249.1 77.05L267.42 119.24H282.47L300.83 76.88L301.83 77.08L301.75 119.22Z" fill="black"/>
<path d="M343.3 120.22H326.73V63H343.3V120.22ZM327.73 119.22H342.3V64H327.73V119.22Z" fill="black"/>
<g opacity="0.5">
<path d="M28.92 46.0698C23.7373 46.1696 18.6023 45.0639 13.92 42.8398C9.74904 40.8319 6.23811 37.6748 3.79999 33.7398C1.35616 29.6562 0.108759 24.968 0.19998 20.2098V-11.9202H16.26V19.4598C16.207 21.7251 16.7045 23.9693 17.71 25.9998C18.6649 27.8096 20.166 29.2723 22 30.1798C24.187 31.1491 26.5528 31.6499 28.945 31.6499C31.3372 31.6499 33.7029 31.1491 35.89 30.1798C37.699 29.2654 39.1726 27.8023 40.1 25.9998C41.1067 23.9594 41.601 21.7043 41.54 19.4298V-11.9202H57.6V20.2098C57.6853 24.9736 56.4385 29.6666 54 33.7598C51.5793 37.6995 48.072 40.8561 43.9 42.8498C39.2228 45.067 34.0951 46.1693 28.92 46.0698ZM0.709983 -11.4202V20.2098C0.620703 24.8765 1.84381 29.4744 4.23998 33.4798C6.6313 37.3297 10.0684 40.42 14.15 42.3898C18.7599 44.5816 23.8166 45.6703 28.92 45.5698C34.0241 45.6668 39.0818 44.5855 43.7 42.4098C47.7859 40.4542 51.2201 37.3602 53.59 33.4998C55.9729 29.4823 57.1884 24.88 57.1 20.2098V-11.4202H42V19.4598C42.0609 21.8169 41.5496 24.1536 40.51 26.2698C39.5178 28.1602 37.958 29.692 36.05 30.6498C33.7908 31.6523 31.3466 32.1702 28.875 32.1702C26.4034 32.1702 23.9592 31.6523 21.7 30.6498C19.7856 29.6879 18.222 28.1488 17.23 26.2498C16.1891 24.148 15.6743 21.8247 15.73 19.4798V-11.4202H0.709983Z" fill="black"/>
<path d="M150.3 44.8298H135V3.12983L117 44.8298H101L100.93 44.6798L82.9299 3.28983V44.8298H67.5599V-11.9202H91.9999L92.0599 -11.7702L109 28.8098L125.88 -11.9202H150.3V44.8298ZM135.52 44.3298H149.8V-11.4202H126.22L109 30.1098L91.6799 -11.4202H68.0599V44.3298H82.3699V2.08983L82.8499 1.98983L101.24 44.3298H116.62L135 1.81983L135.48 1.91983L135.52 44.3298Z" fill="black"/>
<path d="M228.14 44.8298H211L206.32 33.9998H177.59L172.9 44.8298H155.74L181.58 -11.9202H202.33L202.4 -11.7702L228.14 44.8298ZM211.34 44.3298H227.34L202 -11.4202H181.9L156.51 44.3298H172.57L177.26 33.4898H206.64L211.34 44.3298ZM201.45 21.5098H182.45L191.95 -0.490166L201.45 21.5098ZM183.2 20.9998H200.69L191.94 0.799834L183.2 20.9998Z" fill="black"/>
<path d="M316.27 44.8298H301V3.12983L282.92 44.8298H266.92L266.86 44.6798L248.86 3.28983V44.8298H233.54V-11.9202H258L258.06 -11.7702L275 28.8098L291.89 -11.9202H316.3L316.27 44.8298ZM301.5 44.3298H315.77V-11.4202H292.19L275 30.1098L257.66 -11.4202H234V44.3298H248.31V2.08983L248.79 1.98983L267.17 44.3298H282.6L301 1.81983L301.48 1.91983L301.5 44.3298Z" fill="black"/>
<path d="M343.05 44.8298H327V-11.9202H343.07L343.05 44.8298ZM327.48 44.3298H342.55V-11.4202H327.48V44.3298Z" fill="black"/>
</g>
</svg>
