<svg width="307" height="80" viewBox="0 0 307 80" fill="none" xmlns="http://www.w3.org/2000/svg">
<path d="M0.749973 1.61005C0.609973 1.46005 0.559974 1.36007 0.609974 1.29007C0.645567 1.25266 0.68944 1.22409 0.738071 1.20673C0.786702 1.18936 0.838732 1.18366 0.889973 1.19006C1.04296 1.17546 1.19699 1.17546 1.34997 1.19006C1.46175 1.20406 1.57214 1.22749 1.67997 1.26007C2.73922 1.43292 3.80774 1.5431 4.87997 1.59006C5.98997 1.64006 7.07997 1.67007 8.12997 1.67007H8.99997C10.74 1.59007 12.54 1.42007 14.39 1.17007C14.84 1.11007 15.28 1.05007 15.7 1.01007C15.8873 0.920433 16.0923 0.873901 16.3 0.873901C16.5076 0.873901 16.7127 0.920433 16.9 1.01007C17.2238 1.14614 17.5165 1.34691 17.76 1.60007C18.0381 1.84527 18.2956 2.11281 18.53 2.40005C18.53 2.67005 18.24 2.98007 17.69 3.32007C17.115 3.67684 16.5093 3.9814 15.88 4.23007C15.4011 4.44088 14.8969 4.58878 14.38 4.67007C13.6 4.67007 12.81 4.70007 12.01 4.76007C12.01 4.85007 12.01 4.95006 12.01 5.06006C12.0181 5.13985 12.0181 5.22025 12.01 5.30005C11.8255 6.38796 11.7152 7.48718 11.68 8.59006C11.62 9.84006 11.59 11.0801 11.58 12.3201C11.58 13.1001 11.58 13.8201 11.53 14.4801C11.53 17.1001 11.62 19.7667 11.8 22.4801C11.8412 22.5184 11.874 22.5649 11.8965 22.6165C11.9189 22.6681 11.9305 22.7238 11.9305 22.7801C11.9305 22.8363 11.9189 22.892 11.8965 22.9436C11.874 22.9952 11.8412 23.0417 11.8 23.08C11.6483 23.1122 11.4916 23.1122 11.34 23.08L10.81 23.0001C10.6343 22.9496 10.4527 22.9227 10.27 22.9201C9.91315 22.7953 9.58691 22.5961 9.31281 22.3358C9.03871 22.0755 8.82301 21.76 8.67997 21.4101C8.39533 20.7634 8.24236 20.0665 8.22998 19.36C8.30998 17.99 8.31998 16.6001 8.22998 15.1801C8.22998 14.9701 8.22998 14.76 8.22998 14.55C8.22998 14.34 8.22998 14.2101 8.22998 14.0401C8.12998 12.8001 8.03997 11.4401 7.96997 9.97006C7.89579 8.71033 7.91584 7.44681 8.02997 6.19006C8.17996 5.7086 8.51427 5.30599 8.95997 5.07007C7.53036 5.28728 6.07944 5.32758 4.63997 5.19006C3.80241 4.90017 3.05696 4.39285 2.47998 3.72006C1.84041 3.07075 1.26134 2.36448 0.749973 1.61005Z" fill="black"/>
<path d="M27.89 4.64005H27.35C26.8 4.64005 26.21 4.64005 25.57 4.64005C24.9596 4.62063 24.3529 4.53683 23.76 4.39005C23.2439 4.21431 22.7656 3.94289 22.35 3.59003C22.016 3.34622 21.7282 3.04486 21.5 2.70005C21.7667 2.38824 22.112 2.15344 22.5 2.02003C22.8261 1.90503 23.1604 1.81478 23.5 1.75004H23.66C24.8391 1.42116 26.0487 1.21342 27.27 1.13004C28.4 1.06004 29.66 1.05004 31.06 1.13004C32.7261 1.18702 34.3345 1.75484 35.6671 2.75654C36.9997 3.75824 37.9922 5.14539 38.51 6.73005C38.9776 8.15249 38.8626 9.70226 38.19 11.04C37.7397 11.8165 37.1404 12.4963 36.4265 13.0403C35.7125 13.5843 34.8981 13.9819 34.03 14.21C34.41 14.85 34.78 15.45 35.13 15.99L35.66 16.86C36.6 18.1934 37.6533 19.5634 38.82 20.97L39.13 21.36C39.2541 21.4269 39.3588 21.5246 39.4341 21.6437C39.5094 21.7628 39.5528 21.8993 39.56 22.04C39.55 22.1866 39.5017 22.328 39.42 22.4501C39.3225 22.6096 39.2157 22.7632 39.1 22.91C38.98 23.05 38.89 23.17 38.81 23.25C38.4349 23.3296 38.0436 23.2691 37.71 23.08C37.223 22.867 36.7603 22.6021 36.33 22.29C35.9565 22.034 35.6201 21.7278 35.33 21.38C34.7692 20.463 34.1478 19.5844 33.47 18.75L33.11 18.29C32.69 17.8 32.24 17.29 31.78 16.65C31.358 16.1134 30.9833 15.5413 30.66 14.94C30.2105 15.0118 29.7545 15.0352 29.3 15.01C28.8217 14.9986 28.3472 14.9212 27.89 14.78C27.83 15.78 27.81 16.78 27.83 17.94C27.8456 18.97 27.919 19.9983 28.05 21.02C28.1323 21.1704 28.1769 21.3386 28.18 21.51C28.1799 21.6726 28.1563 21.8342 28.11 21.99C28.023 22.1091 27.9145 22.2109 27.79 22.29C27.6208 22.4116 27.4438 22.5219 27.26 22.62C27.1184 22.706 26.9714 22.7828 26.82 22.85C26.45 22.76 26.09 22.41 25.74 21.79C25.3733 21.1371 25.0782 20.4464 24.86 19.73C24.6653 19.1926 24.5474 18.6304 24.51 18.06C24.59 17.06 24.64 16.06 24.67 15.06C24.67 14.71 24.67 14.35 24.67 14C24.67 12.93 24.67 11.74 24.67 10.44C24.6924 9.29041 24.7994 8.14399 24.99 7.01005C25.2338 6.44411 25.6368 5.96119 26.15 5.62003C26.6864 5.22135 27.271 4.89209 27.89 4.64005ZM28.14 12.26L29.14 12.01C29.89 11.83 30.71 11.61 31.59 11.34C32.421 11.0956 33.2225 10.7602 33.98 10.34C34.6181 10.0091 35.1308 9.47894 35.44 8.83002C35.566 8.52914 35.6308 8.20623 35.6308 7.88004C35.6308 7.55386 35.566 7.23091 35.44 6.93003C35.1372 6.24443 34.6388 5.66339 34.0074 5.25962C33.3759 4.85585 32.6394 4.64728 31.89 4.66004H30.48H29.09C29.1052 4.8297 29.1052 5.00039 29.09 5.17005C29.09 5.35005 29.09 5.48002 29.09 5.58002V5.68003C28.83 7.36003 28.6 9.08002 28.41 10.83L28.14 12.26Z" fill="black"/>
<path d="M51.8699 0.540026C51.9799 0.420026 52.0999 0.430026 52.2399 0.540026C52.3989 0.707029 52.5335 0.895537 52.6399 1.10002C52.7695 1.33547 52.8831 1.57933 52.9799 1.83C53.0799 2.08 53.1499 2.26003 53.1899 2.39003C54.2158 5.89647 54.9681 9.4772 55.4399 13.1C55.4399 13.21 55.4899 13.34 55.5199 13.46C55.6499 14.19 55.8099 14.97 55.9899 15.82L56.3399 15.91C56.5666 16.0126 56.7732 16.1548 56.9499 16.33C57.1607 16.5166 57.3517 16.7244 57.5199 16.95C57.6517 17.1079 57.772 17.275 57.8799 17.45C57.8799 17.53 57.8799 17.64 57.6999 17.76C57.537 17.8915 57.3631 18.0086 57.1799 18.11L56.6699 18.36H56.5899C56.8355 19.44 57.1529 20.5023 57.5399 21.54C57.6452 21.6652 57.7243 21.8102 57.7724 21.9666C57.8205 22.1229 57.8367 22.2873 57.8199 22.45C57.77 22.5542 57.7023 22.649 57.6199 22.73L57.2399 23.11L56.8799 23.41L56.7899 23.49C56.5465 23.5031 56.3037 23.4551 56.0836 23.3503C55.8635 23.2455 55.6732 23.0873 55.5299 22.89C55.0496 22.3644 54.6334 21.7837 54.2899 21.16C53.9572 20.602 53.6729 20.0165 53.4399 19.41H53.3799C52.3499 19.3546 51.3171 19.3747 50.2899 19.47L48.6499 19.74C47.9299 19.84 47.2299 19.93 46.5199 19.99C45.9953 20.0551 45.4646 20.0551 44.9399 19.99L44.7399 20.34C44.6399 20.51 44.5399 20.68 44.4299 20.85C44.279 21.4259 43.9235 21.9271 43.4299 22.26C43.1081 22.4613 42.7392 22.5751 42.3599 22.59C41.9626 22.6331 41.5609 22.6128 41.1699 22.53C41.0595 21.9727 41.101 21.3959 41.2899 20.86C41.4799 19.97 41.7299 19.04 42.0199 18.1C41.5422 17.6401 41.0883 17.1562 40.6599 16.65C40.4799 16.52 40.4199 16.42 40.4699 16.35C40.5118 16.3012 40.564 16.2624 40.6229 16.2364C40.6817 16.2104 40.7456 16.198 40.8099 16.2C40.9963 16.1848 41.1836 16.1848 41.3699 16.2H41.7999H41.8599C42.1099 16.2 42.3799 16.2 42.6499 16.2C42.8826 15.603 43.167 15.0275 43.4999 14.48C43.8985 13.8165 44.2334 13.1167 44.4999 12.39C44.7199 11.74 45.0299 10.75 45.4399 9.39003C45.8499 8.03003 46.1999 6.92003 46.5799 5.73003C46.8317 4.88919 47.1254 4.06148 47.4599 3.25002C47.7589 2.65353 48.2024 2.14133 48.7499 1.76003C49.1998 1.48261 49.6885 1.27366 50.1999 1.14003C50.7751 0.995911 51.3345 0.794915 51.8699 0.540026ZM46.7399 16.26C47.4699 16.26 48.1799 16.26 48.8999 16.26C49.8099 16.26 50.7599 16.17 51.7199 16.09L52.7799 16.01C52.7299 15.78 52.6799 15.55 52.6199 15.32C52.5199 14.8467 52.4199 14.3867 52.3199 13.94C52.1799 13.3867 52.0299 12.8167 51.8699 12.23C51.3766 10.43 50.9266 8.64335 50.5199 6.87001C49.7599 9.05001 48.9199 11.1767 47.9999 13.25L47.5499 14.35L47.1699 15.29C46.9999 15.63 46.8699 15.94 46.7399 16.26Z" fill="black"/>
<path d="M65.2999 1.26002C65.4899 1.19002 65.6099 1.19002 65.6799 1.26002C65.7126 1.29821 65.7366 1.34299 65.7504 1.39131C65.7642 1.43962 65.7675 1.49034 65.7599 1.54002C65.7503 1.65823 65.7303 1.77537 65.6999 1.89002C65.4685 2.99615 65.3346 4.12046 65.2999 5.25001C65.2299 6.65001 65.1899 8.01 65.1699 9.33C65.1699 10.08 65.1699 10.73 65.1699 11.28C65.1699 13.04 65.1699 14.82 65.1699 16.61C65.1699 18.14 65.2299 19.66 65.2199 21.18C65.2828 21.3726 65.3045 21.5762 65.2839 21.7777C65.2632 21.9792 65.2005 22.1742 65.0999 22.35C64.9102 22.5485 64.6537 22.6696 64.3799 22.69C64.0883 22.7348 63.7915 22.7348 63.4999 22.69C63.0063 22.3483 62.6515 21.8409 62.4999 21.26C62.2399 20.5186 62.0458 19.7556 61.9199 18.98C61.8182 18.412 61.7614 17.8369 61.7499 17.26C61.8599 15.38 61.8899 13.49 61.8499 11.59C61.8499 11.18 61.7899 10.72 61.7599 10.23C61.6799 8.98002 61.6299 7.66001 61.5899 6.28001C61.5416 5.1191 61.575 3.95622 61.6899 2.8C61.7708 2.54004 61.9102 2.3021 62.0974 2.10447C62.2846 1.90684 62.5147 1.75479 62.7699 1.66001C63.3009 1.48609 63.8521 1.38189 64.4099 1.35002L65.2999 1.26002Z" fill="black"/>
<path d="M68.7 1.61005C68.56 1.46005 68.52 1.36007 68.56 1.29007C68.598 1.25307 68.6437 1.22493 68.6938 1.20764C68.7439 1.19035 68.7973 1.18434 68.85 1.19006C68.9996 1.17548 69.1503 1.17548 69.3 1.19006C69.415 1.20415 69.5287 1.22757 69.64 1.26007C70.6991 1.43395 71.7677 1.54414 72.84 1.59006C73.95 1.64006 75.03 1.67007 76.08 1.67007H77C78.74 1.59007 80.53 1.42007 82.39 1.17007C82.84 1.11007 83.27 1.05007 83.69 1.01007C83.8773 0.920433 84.0823 0.873901 84.29 0.873901C84.4976 0.873901 84.7027 0.920433 84.89 1.01007C85.2184 1.14313 85.5149 1.3442 85.76 1.60007C86.0327 1.84766 86.2867 2.11504 86.52 2.40005C86.52 2.67005 86.23 2.98007 85.68 3.32007C85.1096 3.67878 84.507 3.98345 83.88 4.23007C83.3982 4.44236 82.8904 4.5903 82.37 4.67007C81.59 4.67007 80.8 4.70007 80 4.76007C80 4.85007 80 4.95006 80 5.06006C79.9922 5.14166 79.9755 5.22214 79.95 5.30005C79.7754 6.38928 79.6652 7.48786 79.62 8.59006C79.57 9.84006 79.54 11.0801 79.53 12.3201C79.53 13.1001 79.51 13.8201 79.47 14.4801C79.47 17.1001 79.5633 19.7667 79.75 22.4801C79.8282 22.5604 79.8719 22.668 79.8719 22.7801C79.8719 22.8921 79.8282 22.9998 79.75 23.08C79.5983 23.1116 79.4417 23.1116 79.29 23.08L78.75 23.0001C78.5745 22.9488 78.3928 22.9219 78.21 22.9201C77.8547 22.7925 77.5298 22.5924 77.2561 22.3324C76.9824 22.0724 76.7657 21.7583 76.62 21.4101C76.3353 20.7634 76.1824 20.0665 76.17 19.36C76.25 17.99 76.27 16.6001 76.17 15.1801C76.17 14.9701 76.17 14.76 76.17 14.55C76.17 14.34 76.17 14.2101 76.17 14.0401C76.07 12.8001 75.99 11.4401 75.91 9.97006C75.8335 8.71019 75.8569 7.44624 75.98 6.19006C76.0511 5.95155 76.1691 5.72961 76.3271 5.53729C76.485 5.34497 76.6798 5.18614 76.9 5.07007C75.4704 5.28748 74.0195 5.32778 72.58 5.19006C71.7444 4.89635 70.9998 4.38966 70.42 3.72006C69.7839 3.07031 69.2082 2.36406 68.7 1.61005Z" fill="black"/>
<path d="M101.91 5.64011C101.91 5.78011 101.91 5.86009 101.79 5.86009C101.674 5.85937 101.562 5.82075 101.47 5.7501L101.1 5.52009C101.031 5.457 100.953 5.40321 100.87 5.36009C100.054 4.89808 99.1584 4.59284 98.23 4.46009C97.3724 4.31941 96.4976 4.31941 95.64 4.46009C94.83 4.64009 94.4 4.9001 94.37 5.2501C94.3716 5.47042 94.4217 5.68766 94.5167 5.88642C94.6118 6.08518 94.7495 6.26056 94.92 6.40009C95.3636 6.85554 95.838 7.2799 96.34 7.67011C97.5 8.62011 98.62 9.62011 99.68 10.6701C100.745 11.7258 101.694 12.8924 102.51 14.1501C103.092 15.0427 103.562 16.0032 103.91 17.0101C104.25 17.9729 104.32 19.0107 104.11 20.0101C103.987 20.5328 103.759 21.0254 103.441 21.4583C103.124 21.8913 102.722 22.2558 102.26 22.5301C101.248 23.1121 100.107 23.4317 98.94 23.4601C97.6314 23.5035 96.3245 23.3347 95.07 22.9601C93.8033 22.5937 92.6091 22.0119 91.54 21.2401C91.094 20.9228 90.6759 20.5682 90.29 20.1801C89.9093 19.7999 89.5738 19.3771 89.29 18.9201C88.8042 18.0774 88.5749 17.1113 88.63 16.1401C88.7005 15.5033 88.9821 14.9084 89.43 14.4501C89.856 13.9749 90.3866 13.6052 90.98 13.3701C91.0005 13.4926 91.0005 13.6176 90.98 13.7401C90.98 13.9501 90.98 14.2101 90.98 14.5301C90.98 14.8501 90.98 15.2101 90.93 15.5301C90.9119 15.7631 90.9119 15.9971 90.93 16.2301C91.0291 16.8378 91.2958 17.4057 91.7 17.8701C92.4568 18.7026 93.4349 19.3026 94.52 19.6001C95.5615 19.8878 96.631 20.0622 97.71 20.1201C98.2741 20.1786 98.8439 20.1516 99.4 20.0401C99.9037 19.9582 100.363 19.7036 100.7 19.3201C100.862 19.0905 100.968 18.8267 101.012 18.5493C101.055 18.2718 101.034 17.9881 100.95 17.7201C100.623 16.7178 100.096 15.7924 99.4 15.0001C98.6223 14.0623 97.7695 13.1894 96.85 12.3901C95.93 11.5801 95.12 10.9001 94.43 10.3901C93.3513 9.60317 92.4031 8.65155 91.62 7.57011C91.1746 7.01671 90.8656 6.3663 90.7179 5.67146C90.5703 4.97661 90.5881 4.2568 90.77 3.57011C91.0026 2.95206 91.3846 2.4012 91.8819 1.96671C92.3792 1.53223 92.9763 1.22762 93.62 1.08009C95.0344 0.761901 96.5118 0.876908 97.86 1.4101C99.2894 1.89357 100.536 2.8047 101.43 4.02009C101.589 4.27313 101.723 4.54108 101.83 4.82011C101.923 5.08275 101.951 5.36436 101.91 5.64011Z" fill="black"/>
<path d="M111.15 11.4201C110.914 11.3948 110.681 11.3547 110.45 11.3C110.06 11.23 109.63 11.1201 109.16 11.0001C108.737 10.8874 108.322 10.7437 107.92 10.5701C107.57 10.4201 107.36 10.2601 107.31 10.1001C107.412 9.96616 107.487 9.81317 107.53 9.65005C107.61 9.40005 107.69 9.14006 107.76 8.87006C107.83 8.60006 107.88 8.44005 107.89 8.36005C107.854 8.14148 107.854 7.91864 107.89 7.70007C107.895 7.59932 107.922 7.50095 107.971 7.41254C108.019 7.32413 108.087 7.24803 108.17 7.19006C108.855 7.21527 109.531 7.35382 110.17 7.60007C111.04 7.89007 111.76 8.16008 112.32 8.39008H112.41H112.46L112.63 8.47006L112.81 8.55005C112.86 8.55005 112.88 8.61008 112.88 8.64008C112.88 8.67008 112.88 8.64006 112.75 8.69006C112.628 8.81267 112.533 8.95903 112.47 9.12006C112.37 9.33006 112.27 9.56006 112.16 9.81006C112.031 10.1814 111.874 10.5425 111.69 10.8901C111.53 11.2501 111.35 11.4101 111.15 11.4201ZM112.41 17.6601H112.46L112.63 17.7301L112.81 17.8201C112.86 17.8201 112.88 17.8701 112.88 17.9001C112.88 17.9301 112.88 17.9001 112.75 17.9501C112.631 18.0746 112.536 18.2205 112.47 18.3801C112.37 18.5901 112.27 18.82 112.16 19.08C112.033 19.4489 111.876 19.8068 111.69 20.1501C111.53 20.4701 111.35 20.6401 111.15 20.6501C110.914 20.6248 110.681 20.5847 110.45 20.5301C110.06 20.4501 109.63 20.3501 109.16 20.2201C108.738 20.106 108.324 19.9657 107.92 19.8C107.57 19.64 107.36 19.48 107.31 19.33C107.412 19.1961 107.487 19.0432 107.53 18.8801C107.61 18.6301 107.69 18.37 107.76 18.11C107.812 17.9358 107.856 17.7588 107.89 17.58C107.855 17.3614 107.855 17.1387 107.89 16.9201C107.895 16.8193 107.922 16.7209 107.971 16.6325C108.019 16.5441 108.087 16.468 108.17 16.4101C108.855 16.4261 109.532 16.5614 110.17 16.8101C111.04 17.1101 111.76 17.38 112.32 17.61L112.41 17.6601Z" fill="black"/>
<path d="M18.71 55C18.71 55.19 18.71 55.29 18.55 55.3C18.3973 55.2979 18.2495 55.2451 18.13 55.15C17.96 55.05 17.79 54.95 17.64 54.84C17.5425 54.757 17.435 54.6864 17.32 54.63C16.2351 54.0146 15.0446 53.6076 13.81 53.43C12.6646 53.2383 11.4954 53.2383 10.35 53.43C9.27001 53.67 8.70002 54.02 8.65002 54.48C8.65601 54.7747 8.72517 55.0647 8.85283 55.3303C8.98049 55.596 9.16367 55.8312 9.39001 56.02C9.98246 56.6277 10.6174 57.1925 11.29 57.71C12.84 58.97 14.29 60.31 15.74 61.71C17.1581 63.1146 18.422 64.6667 19.51 66.34C20.2861 67.5327 20.914 68.8155 21.38 70.16C21.8315 71.4444 21.9214 72.828 21.64 74.16C21.4772 74.8581 21.1754 75.5163 20.7528 76.0952C20.3301 76.6742 19.7953 77.1622 19.18 77.53C17.8309 78.2988 16.3123 78.7214 14.76 78.76C13.0114 78.826 11.264 78.5995 9.59001 78.09C7.89992 77.6034 6.30652 76.8287 4.88001 75.8C4.28738 75.3783 3.73202 74.9066 3.22002 74.39C2.70463 73.8885 2.25442 73.324 1.88001 72.71C1.22918 71.5864 0.92315 70.2962 1.00002 69C1.08954 68.149 1.46292 67.3529 2.06001 66.74C2.63545 66.1203 3.33821 65.6325 4.12002 65.31C4.14925 65.472 4.14925 65.638 4.12002 65.8C4.12002 66.08 4.12001 66.44 4.06001 66.85C4.00001 67.26 4.06001 67.77 4.00002 68.19C3.98209 68.4998 3.98209 68.8103 4.00002 69.12C4.12378 69.9286 4.47002 70.6869 5.00002 71.31C6.00283 72.4262 7.30957 73.2256 8.76002 73.61C10.1467 73.9987 11.5719 74.2334 13.01 74.31C13.7574 74.3919 14.5129 74.3582 15.25 74.21C15.9276 74.0863 16.542 73.7332 16.99 73.21C17.2096 72.9045 17.3539 72.5514 17.4113 72.1795C17.4686 71.8077 17.4373 71.4275 17.32 71.07C16.8915 69.7337 16.19 68.501 15.26 67.45C14.2223 66.1972 13.0853 65.0301 11.86 63.96C10.63 62.88 9.56001 61.96 8.63001 61.27C7.19727 60.2172 5.93284 58.9527 4.88001 57.52C3.59001 55.52 3.21002 53.78 3.75002 52.19C4.06252 51.3646 4.57366 50.6289 5.2382 50.0481C5.90275 49.4673 6.7002 49.0592 7.56001 48.86C9.44585 48.4398 11.4145 48.5966 13.21 49.31C15.1172 49.9521 16.7796 51.1675 17.97 52.79C18.1731 53.1279 18.3471 53.4826 18.49 53.85C18.6688 54.2055 18.745 54.6037 18.71 55Z" fill="black"/>
<path d="M27.54 54.13C26.7775 53.5639 26.1493 52.8366 25.7 52C25.16 51.06 24.73 50.24 24.41 49.54C24.21 49.21 24.17 49.02 24.3 48.97C24.5078 48.9235 24.725 48.9445 24.92 49.03C25.8104 49.2379 26.7171 49.3684 27.63 49.42C28.63 49.48 29.63 49.52 30.63 49.54H31.96C32.91 49.54 33.96 49.54 34.96 49.44L38.13 49.22C39.2 49.15 40.23 49.08 41.22 49.03C42.9066 48.65 44.3966 49.2867 45.69 50.94C45.6 51.25 45.06 51.62 44.07 52.04C43.0351 52.4667 41.9767 52.834 40.9 53.14C40.1207 53.3853 39.3207 53.5593 38.51 53.66H37.33C36.53 53.66 35.78 53.66 35.09 53.66C34.2797 53.6927 33.4719 53.7695 32.67 53.89C32.38 55.99 32.14 58.1 31.94 60.24C32.59 60.29 33.24 60.36 33.94 60.43C35.3713 60.4681 36.8036 60.4247 38.23 60.3L39.93 60.2C40.1099 60.1175 40.3077 60.0815 40.5052 60.0955C40.7027 60.1095 40.8935 60.1729 41.06 60.28C41.4056 60.5102 41.6959 60.8142 41.91 61.17C42.1625 61.5131 42.3897 61.874 42.59 62.25C42.59 62.5433 42.33 62.8767 41.81 63.25C41.2842 63.6377 40.7215 63.9727 40.13 64.25C39.6783 64.5061 39.1771 64.663 38.66 64.71C37.46 64.64 36.55 64.62 35.91 64.64C35.27 64.66 34.73 64.7 34.29 64.75L33.14 64.85C32.73 64.85 32.21 64.85 31.57 64.85C31.4524 67.1137 31.4992 69.383 31.71 71.64C31.7922 71.8018 31.8398 71.9788 31.85 72.16C31.8464 72.317 31.7978 72.4698 31.71 72.6L31.43 72.77C31.2749 72.8479 31.1145 72.9148 30.95 72.97L34.56 73.11C34.8 73.11 35.03 73.11 35.26 73.11C36.49 73.11 37.85 73.06 39.37 72.93C40.89 72.8 42.23 72.63 43.43 72.42C43.5711 72.3047 43.7477 72.2416 43.93 72.2416C44.1122 72.2416 44.2889 72.3047 44.43 72.42C44.6583 72.5708 44.8552 72.7643 45.01 72.99C45.25 73.29 45.46 73.58 45.66 73.85C45.86 74.12 45.84 74.1 45.91 74.18C45.9619 74.4367 45.9427 74.7028 45.8546 74.9495C45.7665 75.1962 45.6128 75.4142 45.41 75.58C44.9313 76.0514 44.3726 76.434 43.76 76.71C43.2413 76.979 42.6794 77.155 42.1 77.23C40.75 77.23 39.39 77.23 38.02 77.33L37.1 77.39C35.93 77.52 34.55 77.63 32.97 77.72C31.5855 77.8157 30.1949 77.7688 28.82 77.58C27.8533 77.1648 27.0343 76.4678 26.47 75.58C25.8794 74.7122 25.3769 73.7876 24.97 72.82C24.83 72.55 24.79 72.39 24.86 72.32C24.9138 72.2802 24.976 72.2532 25.0419 72.241C25.1077 72.2289 25.1755 72.232 25.24 72.25C25.4208 72.2791 25.5984 72.326 25.77 72.39C26.8286 72.6081 27.9012 72.7518 28.98 72.82C28.3359 72.1008 27.861 71.2466 27.59 70.32C27.2872 69.5776 27.0887 68.7968 27 68C27 67.89 27 67.68 27 67.38C27 66.86 27.09 66.24 27.14 65.51C27.19 64.78 27.23 64.13 27.25 63.51C27.2842 63.1775 27.2842 62.8425 27.25 62.51C26.7067 61.7022 26.2157 60.8605 25.78 59.99C25.6 59.7 25.58 59.52 25.71 59.46C25.9114 59.3943 26.1285 59.3943 26.33 59.46C26.6 59.51 26.86 59.56 27.11 59.63H27.21C27.21 58.63 27.21 57.63 27.26 56.68C27.3001 55.825 27.3936 54.9733 27.54 54.13Z" fill="black"/>
<path d="M50.2299 52.3701C50.5878 51.4855 51.162 50.705 51.8999 50.1001C52.5905 49.4561 53.4787 49.0648 54.4199 48.99C55.2899 48.99 55.9399 49.5201 56.4199 50.6901C56.9599 52.2401 57.5999 53.8201 58.3299 55.4501C59.0599 57.0801 59.8099 58.6701 60.5799 60.2601C60.9299 61.0201 61.2799 61.76 61.5799 62.49C62.6799 64.6 63.8699 66.7701 65.1799 69.0101C65.1799 67.3301 65.1799 65.6401 65.1799 63.9301C65.1799 62.2201 65.0199 60.2401 64.9899 58.1601C64.9518 56.2897 65.0387 54.4188 65.2499 52.5601C65.5784 51.534 66.2446 50.6493 67.1399 50.05C68.0628 49.4405 69.0749 48.9783 70.1399 48.6801C70.3899 48.5201 70.5499 48.5501 70.6199 48.7601C70.6946 49.0232 70.7183 49.2981 70.6899 49.5701C70.6899 49.9001 70.6899 50.16 70.6299 50.36C70.624 50.3965 70.624 50.4336 70.6299 50.4701C70.1166 54.2501 69.7833 58.1267 69.6299 62.1001C69.6299 62.6301 69.5599 63.1601 69.5299 63.6801C69.4799 65.4001 69.5299 67.2701 69.5799 69.2901C69.6299 71.3101 69.8099 73.2101 70.0199 74.9701C70.1401 75.1961 70.2095 75.4456 70.2233 75.7012C70.2371 75.9568 70.195 76.2124 70.0999 76.4501C69.7099 77.5201 69.0999 77.91 68.2399 77.61C67.202 77.1845 66.2726 76.5319 65.5199 75.7001C64.5925 74.7629 63.7336 73.7604 62.9499 72.7001C62.4505 72.0637 61.9929 71.3957 61.5799 70.7001C60.5799 68.7001 59.5799 66.7001 58.4599 64.7801C58.3299 64.5701 58.1999 64.3601 58.0899 64.1601C56.9233 62.2801 55.7766 60.2801 54.6499 58.1601C54.5799 58.9701 54.5199 59.7701 54.4499 60.5601C54.3799 61.5601 54.2999 62.4901 54.2199 63.4301C54.0875 67.4042 54.1543 71.3826 54.4199 75.3501C54.6119 75.9073 54.6119 76.5128 54.4199 77.0701C54.2543 77.4148 53.9804 77.6958 53.6399 77.8701C53.3076 78.0728 52.9516 78.234 52.5799 78.3501C52.0999 78.1501 51.6499 77.5001 51.2199 76.4101C50.7992 75.2804 50.465 74.1204 50.2199 72.9401C50.0009 72.1054 49.8636 71.2514 49.8099 70.3901C49.9299 68.0901 49.9799 65.8301 49.9799 63.5901C49.9099 61.8401 49.8799 59.93 49.9099 57.86C49.8704 56.0244 49.9774 54.1886 50.2299 52.3701Z" fill="black"/>
<path d="M94.82 52.0001C94.9913 52.1726 95.1131 52.388 95.1729 52.6236C95.2327 52.8593 95.2283 53.1067 95.16 53.3401C94.9992 53.7517 94.7122 54.1018 94.34 54.3401C94.0123 54.5787 93.6243 54.7207 93.22 54.7501C93.0026 54.6851 92.7889 54.6083 92.58 54.5201C91.3392 54.0465 90.074 53.6392 88.79 53.3C87.6896 52.9482 86.514 52.9033 85.39 53.1701C83.8896 53.7555 82.5739 54.7328 81.58 56.0001C80.7748 57.2313 80.1675 58.5809 79.78 60.0001C79.3427 61.4694 79.0645 62.9814 78.95 64.5101C78.8606 65.9037 79.0197 67.3022 79.42 68.6401C79.826 70.073 80.5662 71.389 81.58 72.4801C82.3587 73.2148 83.342 73.696 84.4 73.86C85.4553 74.045 86.5347 74.045 87.59 73.86C88.5381 73.6874 89.4639 73.409 90.35 73.0301C90.53 72.9101 90.8 72.7101 91.14 72.4301L92.23 71.5401C92.6 71.2301 92.93 70.9601 93.23 70.7301C93.53 70.5001 93.65 70.3801 93.67 70.3501C94.231 70.1822 94.8289 70.1822 95.39 70.3501C95.8915 70.465 96.4092 70.492 96.92 70.4301C97.14 70.5301 97.18 70.7901 97.05 71.1901C96.8823 71.6684 96.6645 72.1277 96.4 72.5601C96.09 73.0601 95.79 73.5601 95.51 73.9201C95.23 74.2801 95.03 74.5701 94.94 74.6701C93.6969 75.9778 92.1857 77.0012 90.51 77.6701C89.1358 78.2327 87.6649 78.5214 86.18 78.5201C84.5765 78.5026 83 78.105 81.58 77.36C79.7847 76.4055 78.2633 75.0079 77.16 73.3C76.0873 71.6546 75.3216 69.8285 74.9 67.9101C74.0669 63.8581 74.4855 59.6487 76.1 55.8401C76.7006 54.3859 77.5275 53.0359 78.55 51.8401C79.5243 50.6877 80.7581 49.783 82.15 49.2001C85.0863 48.2151 88.2779 48.3108 91.15 49.4701C91.8207 49.795 92.4718 50.1589 93.1 50.5601C93.7332 50.9636 94.3113 51.4477 94.82 52.0001Z" fill="black"/>
<path d="M107.34 49.6301C107.58 49.5301 107.73 49.5401 107.81 49.6301C107.895 49.8002 107.93 49.9909 107.91 50.1801C107.9 50.4018 107.874 50.6225 107.83 50.8401C107.83 51.0501 107.77 51.1801 107.75 51.2401C107.14 54.5488 106.7 57.8865 106.43 61.2401C108.14 61.4301 109.56 61.5501 110.68 61.5901C112.136 61.6173 113.591 61.5572 115.04 61.4101C115.04 59.6701 115.04 57.7401 115.04 55.6401C115.057 53.8392 115.248 52.0442 115.61 50.2801C115.807 49.857 116.104 49.4878 116.475 49.204C116.846 48.9202 117.28 48.7302 117.74 48.6501C118.733 48.4563 119.757 48.4801 120.74 48.7201C121.09 48.7701 121.28 48.8501 121.3 48.9701C121.304 49.1453 121.252 49.3173 121.15 49.4601C121.15 49.4601 121.15 49.5201 121.09 49.5601C120.544 51.2491 120.186 52.9929 120.02 54.7601C119.76 56.9801 119.557 58.9801 119.41 60.7601V60.8701C119.882 60.9465 120.331 61.1313 120.72 61.4101C121.08 61.6635 121.415 61.9515 121.72 62.2701C121.87 62.4211 122.01 62.5814 122.14 62.7501C122.14 63.0501 121.82 63.4001 121.24 63.7501C120.591 64.1855 119.905 64.5636 119.19 64.8801C119.115 68.254 119.232 71.6294 119.54 74.9901C119.759 75.5424 119.759 76.1577 119.54 76.7101C119.399 77.0439 119.144 77.3168 118.82 77.4801C118.503 77.6775 118.168 77.8449 117.82 77.9801C117.26 77.8101 116.75 77.1701 116.28 76.0401C115.795 74.8666 115.416 73.6516 115.15 72.4101C114.93 71.5277 114.79 70.6274 114.73 69.7201C114.83 68.3901 114.87 67.0701 114.87 65.7201C114.35 65.7201 113.87 65.7201 113.31 65.7201H111.75C109.824 65.9286 107.885 65.9921 105.95 65.9101C105.826 69.1277 105.89 72.3498 106.14 75.5601C106.359 76.1263 106.359 76.7538 106.14 77.3201C105.961 77.6572 105.695 77.9403 105.37 78.1401C105.061 78.3669 104.725 78.555 104.37 78.7001C103.86 78.5101 103.37 77.8601 102.95 76.7501C102.492 75.5994 102.121 74.4161 101.84 73.2101C101.609 72.3428 101.462 71.4554 101.4 70.5601C101.52 68.9701 101.6 67.3801 101.64 65.7701C101.64 65.2101 101.64 64.66 101.7 64.11C100.703 63.1012 99.8184 61.9882 99.0599 60.7901C98.8499 60.5701 98.7999 60.4201 98.8899 60.3401C99.0483 60.2529 99.2314 60.2212 99.4099 60.2501C99.6512 60.2575 99.8917 60.2809 100.13 60.3201L100.56 60.3801L101.11 60.4801L101.66 60.5601C101.66 59.1734 101.7 57.7934 101.78 56.4201C101.844 55.1892 101.984 53.9635 102.2 52.7501C102.578 51.7989 103.289 51.0172 104.2 50.5501C105.196 50.0913 106.254 49.7814 107.34 49.6301Z" fill="black"/>
<path d="M140.61 48.17C140.75 48.01 140.91 48.02 141.09 48.17C141.311 48.3837 141.494 48.634 141.63 48.91C141.804 49.2332 141.958 49.5672 142.09 49.91C142.22 50.23 142.31 50.48 142.36 50.65C143.726 55.3256 144.729 60.0998 145.36 64.93C145.36 65.08 145.42 65.25 145.46 65.42C145.64 66.42 145.85 67.42 146.08 68.56L146.55 68.68C146.855 68.8109 147.133 68.9975 147.37 69.23C147.644 69.4865 147.899 69.764 148.13 70.06C148.303 70.2712 148.46 70.4951 148.6 70.73C148.6 70.85 148.6 70.99 148.37 71.15C148.152 71.3204 147.921 71.4742 147.68 71.61L147 71.94L146.88 72C147.215 73.4383 147.639 74.8543 148.15 76.24C148.291 76.4057 148.398 76.5983 148.463 76.8063C148.529 77.0142 148.551 77.2331 148.53 77.45C148.465 77.5928 148.374 77.7218 148.26 77.83C148.11 77.99 147.94 78.16 147.75 78.33C147.56 78.5 147.41 78.63 147.28 78.74C147.245 78.7762 147.205 78.8066 147.16 78.83C146.64 78.94 146.08 78.67 145.48 78.03C144.837 77.3357 144.28 76.5668 143.82 75.74C143.377 74.9937 142.999 74.2109 142.69 73.4H142.61C141.237 73.3262 139.86 73.3529 138.49 73.48C137.98 73.57 137.25 73.69 136.3 73.83C135.35 73.97 134.4 74.09 133.47 74.17C132.77 74.2619 132.06 74.2619 131.36 74.17L131.08 74.64C130.95 74.87 130.82 75.1 130.67 75.32C130.491 76.0782 130.039 76.7439 129.4 77.19C128.981 77.4684 128.493 77.6243 127.99 77.64C127.46 77.7007 126.923 77.677 126.4 77.57C126.251 76.8265 126.303 76.0568 126.55 75.34C126.81 74.14 127.14 72.91 127.55 71.65C126.908 71.0369 126.301 70.3893 125.73 69.71C125.5 69.54 125.41 69.41 125.48 69.31C125.603 69.189 125.768 69.1209 125.94 69.12C126.185 69.0881 126.433 69.0714 126.68 69.07H127.26H127.33C127.67 69.07 128.02 69.07 128.39 69.07C128.7 68.2754 129.078 67.5092 129.52 66.78C130.053 65.8926 130.505 64.9588 130.87 63.99C131.16 63.13 131.57 61.8 132.12 59.99C132.67 58.18 133.12 56.69 133.64 55.1C134.16 53.51 134.54 52.41 134.81 51.8C135.208 51.0007 135.799 50.3133 136.53 49.8C137.134 49.4355 137.788 49.1594 138.47 48.98C139.207 48.7761 139.923 48.505 140.61 48.17ZM133.77 69.17C134.77 69.17 135.69 69.17 136.64 69.17C137.86 69.17 139.12 69.06 140.41 68.95L141.82 68.83C141.75 68.53 141.68 68.23 141.6 67.92C141.47 67.29 141.34 66.68 141.21 66.08C141.08 65.48 140.81 64.59 140.61 63.79C139.95 61.4 139.36 59.02 138.81 56.65C137.79 59.5633 136.67 62.4 135.45 65.16C135.24 65.64 135.04 66.16 134.84 66.63C134.64 67.1 134.5 67.46 134.34 67.88C134.18 68.3 133.94 68.71 133.77 69.13V69.17Z" fill="black"/>
<path d="M160 71C160.36 71 160.56 71.06 160.6 71.19C160.64 71.32 160.6 71.48 160.39 71.69C160.032 72.1089 159.735 72.577 159.51 73.08C159.28 73.61 159.06 74.14 158.87 74.67C158.8 74.86 158.74 75.03 158.67 75.2C158.571 75.7238 158.53 76.2572 158.55 76.79C158.55 77.45 158.55 78 158.63 78.44C158.75 78.56 158.79 78.66 158.76 78.73C158.714 78.8136 158.64 78.8776 158.55 78.91C158.351 78.981 158.141 79.0182 157.93 79.02H156.98C156.66 79.02 156.43 79.02 156.27 79.02C155.846 78.9407 155.455 78.7351 155.15 78.43C154.677 78.0593 154.248 77.6367 153.87 77.17C153.5 76.72 153.35 76.39 153.4 76.17C153.581 75.545 153.685 74.9002 153.71 74.25C153.66 73.6777 153.66 73.1022 153.71 72.53C153.734 71.9622 153.907 71.4106 154.21 70.93C155.038 70.615 155.932 70.5119 156.81 70.63C157.97 70.72 158.97 70.82 159.81 70.95L160 71Z" fill="black"/>
<path d="M194.59 52.0001C194.762 52.1719 194.884 52.3876 194.942 52.6239C195.001 52.8602 194.993 53.1079 194.92 53.3401C194.765 53.755 194.477 54.1067 194.1 54.3401C193.776 54.5783 193.391 54.7204 192.99 54.7501C192.78 54.6901 192.57 54.6101 192.34 54.5201C191.1 54.0435 189.835 53.6363 188.55 53.3C187.453 52.9481 186.281 52.9031 185.16 53.1701C183.656 53.7489 182.339 54.7274 181.35 56.0001C180.542 57.2307 179.931 58.5804 179.54 60.0001C179.108 61.4705 178.829 62.982 178.71 64.5101C178.629 65.9042 178.791 67.3018 179.19 68.6401C179.596 70.073 180.336 71.389 181.35 72.4801C182.129 73.2148 183.112 73.696 184.17 73.86C185.222 74.045 186.298 74.045 187.35 73.86C188.302 73.6887 189.231 73.4103 190.12 73.0301C190.3 72.9101 190.56 72.7101 190.91 72.4301L191.99 71.5401L192.99 70.7301L193.43 70.3501C193.991 70.1822 194.589 70.1822 195.15 70.3501C195.648 70.465 196.163 70.4921 196.67 70.4301C196.89 70.5301 196.94 70.7901 196.81 71.1901C196.643 71.6703 196.421 72.1299 196.15 72.5601C195.85 73.0601 195.55 73.5601 195.26 73.9201C195.088 74.1807 194.901 74.4311 194.7 74.6701C193.451 75.9759 191.937 76.9989 190.26 77.6701C188.889 78.2317 187.422 78.5204 185.94 78.5201C184.336 78.5048 182.759 78.1072 181.34 77.36C179.543 76.4043 178.018 75.0072 176.91 73.3C175.836 71.6567 175.073 69.8296 174.66 67.9101C174.161 65.3913 174.121 62.8032 174.54 60.2701C174.815 58.7491 175.257 57.2633 175.86 55.8401C176.457 54.3863 177.281 53.0363 178.3 51.8401C179.278 50.6873 180.515 49.7826 181.91 49.2001C184.846 48.2151 188.038 48.3108 190.91 49.4701C191.579 49.7929 192.227 50.1569 192.85 50.5601C193.49 50.9628 194.075 51.4468 194.59 52.0001Z" fill="black"/>
<path d="M205 49.13C205.25 49.04 205.41 49.04 205.5 49.13C205.543 49.1828 205.574 49.2436 205.593 49.3089C205.612 49.3741 205.618 49.4425 205.61 49.51C205.594 49.665 205.567 49.8187 205.53 49.97C205.224 51.4452 205.047 52.9442 205 54.45C204.91 56.32 204.85 58.13 204.82 59.89C204.82 60.89 204.82 61.76 204.77 62.49C204.77 64.8367 204.77 67.2067 204.77 69.6C204.823 71.64 204.84 73.67 204.82 75.69C204.908 75.9456 204.94 76.2171 204.914 76.4863C204.888 76.7554 204.805 77.0158 204.67 77.25C204.408 77.5251 204.049 77.6867 203.67 77.7C203.282 77.7593 202.888 77.7593 202.5 77.7C201.863 77.2368 201.41 76.5641 201.22 75.8C200.877 74.8071 200.619 73.7868 200.45 72.75C200.308 71.9911 200.228 71.2219 200.21 70.45C200.36 67.95 200.4 65.45 200.35 62.9C200.35 62.35 200.27 61.74 200.23 61.08C200.13 59.41 200.05 57.66 200 55.83C199.937 54.2786 199.984 52.7248 200.14 51.18C200.25 50.8343 200.436 50.518 200.686 50.2547C200.935 49.9914 201.241 49.7881 201.58 49.66C202.29 49.4312 203.026 49.2902 203.77 49.24L205 49.13Z" fill="black"/>
<path d="M209.51 49.6C209.33 49.4 209.27 49.26 209.33 49.18C209.38 49.09 209.51 49.05 209.71 49.04C209.91 49.0208 210.11 49.0208 210.31 49.04C210.462 49.058 210.613 49.0881 210.76 49.13C212.173 49.3648 213.599 49.5151 215.03 49.58C216.51 49.64 217.95 49.67 219.36 49.67H220.51C222.83 49.57 225.22 49.35 227.7 49.01L229.43 48.79C229.683 48.6748 229.957 48.6151 230.235 48.6151C230.513 48.6151 230.787 48.6748 231.04 48.79C231.469 48.9833 231.859 49.2545 232.19 49.59C232.551 49.9165 232.885 50.271 233.19 50.65C233.19 51.0233 232.82 51.4333 232.08 51.88C231.316 52.3565 230.509 52.7616 229.67 53.09C229.032 53.3731 228.36 53.5714 227.67 53.68C226.62 53.68 225.57 53.68 224.5 53.79C224.5 53.93 224.5 54.06 224.5 54.2C224.494 54.3089 224.474 54.4165 224.44 54.52C224.204 55.973 224.057 57.4391 224 58.91C223.93 60.58 223.89 62.23 223.88 63.91C223.88 64.96 223.83 65.91 223.8 66.8C223.8 70.2933 223.923 73.8433 224.17 77.45C224.224 77.5014 224.268 77.5634 224.298 77.6322C224.327 77.701 224.343 77.7751 224.343 77.85C224.343 77.9249 224.327 77.999 224.298 78.0678C224.268 78.1366 224.224 78.1986 224.17 78.25C223.968 78.2872 223.762 78.2872 223.56 78.25L222.84 78.15C222.607 78.0775 222.364 78.0371 222.12 78.03C221.646 77.8645 221.212 77.6008 220.847 77.2562C220.481 76.9116 220.193 76.4937 220 76.03C219.622 75.1689 219.421 74.2404 219.41 73.3C219.51 71.47 219.53 69.62 219.46 67.73C219.46 67.44 219.46 67.16 219.46 66.89C219.46 66.62 219.46 66.44 219.41 66.21C219.28 64.55 219.16 62.74 219.06 60.78C218.966 59.1134 218.996 57.4421 219.15 55.78C219.348 55.1407 219.79 54.6053 220.38 54.29C218.473 54.5745 216.539 54.6282 214.62 54.45C213.502 54.0462 212.509 53.3566 211.74 52.45C210.914 51.5675 210.168 50.6138 209.51 49.6Z" fill="black"/>
<path d="M244.59 53.64H243.87C243.14 53.64 242.35 53.64 241.49 53.64C240.677 53.6117 239.869 53.4978 239.08 53.3C238.396 53.0652 237.762 52.7058 237.21 52.24C236.763 51.913 236.378 51.5102 236.07 51.05C236.431 50.6315 236.897 50.3172 237.42 50.14C237.84 49.9856 238.271 49.8652 238.71 49.78L238.93 49.72C240.502 49.2887 242.113 49.0141 243.74 48.9C245.24 48.81 246.93 48.79 248.79 48.84C251.115 48.921 253.352 49.7486 255.17 51.2C256.839 52.5086 258.076 54.2891 258.72 56.31C259.346 58.2068 259.195 60.2744 258.3 62.06C257.4 63.9 255.55 65.31 252.75 66.29C253.26 67.14 253.75 67.94 254.22 68.67L254.92 69.82C256.173 71.6267 257.58 73.4567 259.14 75.31L259.55 75.82C259.713 75.9125 259.85 76.0441 259.95 76.203C260.049 76.3619 260.108 76.543 260.12 76.73C260.109 76.9274 260.043 77.1178 259.93 77.28C259.806 77.494 259.666 77.698 259.51 77.89C259.389 78.0473 259.258 78.1975 259.12 78.34C258.623 78.4496 258.103 78.3712 257.66 78.12C257.008 77.8322 256.388 77.477 255.81 77.06C255.315 76.7172 254.865 76.3141 254.47 75.86C253.722 74.633 252.894 73.4571 251.99 72.34C251.84 72.1266 251.676 71.9229 251.5 71.73C250.94 71.07 250.35 70.34 249.74 69.54C249.175 68.8246 248.673 68.0618 248.24 67.26C247.645 67.3578 247.042 67.3913 246.44 67.36C245.799 67.3399 245.164 67.2357 244.55 67.05C244.47 68.35 244.45 69.76 244.47 71.27C244.49 72.6414 244.59 74.0104 244.77 75.37C244.874 75.5715 244.932 75.7935 244.94 76.02C244.939 76.2372 244.906 76.453 244.84 76.66C244.727 76.8257 244.581 76.9655 244.41 77.07C244.19 77.22 243.96 77.37 243.71 77.51L243.13 77.81C242.63 77.69 242.13 77.22 241.68 76.39C241.191 75.5223 240.799 74.6034 240.51 73.65C240.254 72.931 240.096 72.181 240.04 71.42C240.14 70.11 240.21 68.77 240.25 67.42C240.25 66.9467 240.27 66.4767 240.31 66.01C240.31 64.5834 240.31 63.0033 240.31 61.27C240.34 59.7386 240.481 58.2114 240.73 56.7C241.054 55.9451 241.589 55.2994 242.27 54.84C242.993 54.3497 243.772 53.9469 244.59 53.64ZM244.92 63.79L246.19 63.46C247.19 63.23 248.28 62.93 249.45 62.57C250.561 62.2435 251.632 61.7905 252.64 61.22C253.487 60.7788 254.17 60.0779 254.59 59.22C254.76 58.8183 254.848 58.3864 254.848 57.95C254.848 57.5136 254.76 57.0817 254.59 56.68C254.217 55.8031 253.595 55.0553 252.8 54.53C251.936 53.9358 250.908 53.6279 249.86 53.65H247.99H246.13C246.155 53.876 246.155 54.104 246.13 54.33C246.13 54.57 246.13 54.75 246.13 54.88C246.13 55.01 246.13 55 246.13 55.01C245.783 57.25 245.48 59.5367 245.22 61.87L244.92 63.79Z" fill="black"/>
<path d="M268.77 49.2401C268.98 49.1701 269.12 49.1801 269.19 49.2401C269.269 49.3834 269.297 49.5489 269.27 49.7101C269.25 49.9307 269.206 50.1486 269.14 50.3601C269.08 50.5801 269.01 50.7701 268.96 50.9301C268.929 51.0223 268.892 51.1125 268.85 51.2001C268.425 52.5869 268.074 53.9956 267.8 55.4201C267.398 57.449 267.111 59.4989 266.94 61.5601C266.747 63.6147 266.787 65.6846 267.06 67.7301C267.192 69.3334 267.849 70.8483 268.93 72.0401C269.706 72.7091 270.607 73.2188 271.58 73.5401C272.504 73.8583 273.473 74.0303 274.45 74.0501C275.68 74.0501 276.45 73.9001 276.67 73.4701C276.963 72.769 277.053 71.9998 276.93 71.2501C276.93 70.7101 276.93 70.0501 276.93 69.2501C277.1 67.2001 277.19 65.1101 277.21 63.0001C277.215 62.9202 277.215 62.84 277.21 62.7601C277.12 61.1301 277.05 59.3801 277.01 57.5101C276.96 55.8403 277.034 54.1691 277.23 52.5101C277.55 51.527 278.214 50.6925 279.1 50.1601C280.009 49.6175 280.998 49.2226 282.03 48.9901C282.24 48.8601 282.39 48.8601 282.47 48.9901C282.569 49.1629 282.614 49.3614 282.6 49.5601C282.601 49.7914 282.581 50.0224 282.54 50.2501C282.54 50.4701 282.47 50.6101 282.46 50.6601C282.08 53.4201 281.84 56.3101 281.72 59.3101C281.65 60.5401 281.58 61.7301 281.5 62.8901C281.427 65.1834 281.39 67.5168 281.39 69.8901C281.39 71.4801 281.39 73.0501 281.39 74.6001C281.541 75.2253 281.455 75.8841 281.15 76.4501C280.947 76.7982 280.634 77.0691 280.26 77.2201C279.882 77.4169 279.478 77.5584 279.06 77.6401C278.845 77.5023 278.692 77.2876 278.63 77.0401C277.467 77.6855 276.177 78.0678 274.85 78.1601C273.419 78.2842 271.979 78.0931 270.63 77.6001C269.845 77.2914 269.097 76.8956 268.4 76.4201C267.695 75.9477 267.026 75.4229 266.4 74.8501C265.141 73.5728 264.199 72.0178 263.65 70.3101C263.055 68.5612 262.666 66.749 262.49 64.9101C262.331 63.3187 262.274 61.7187 262.32 60.1201C262.352 57.887 262.607 55.6627 263.08 53.4801C263.477 52.2737 264.236 51.2191 265.255 50.4603C266.273 49.7014 267.501 49.2753 268.77 49.2401Z" fill="black"/>
<path d="M303.44 55C303.44 55.19 303.44 55.29 303.28 55.3C303.124 55.2978 302.973 55.2452 302.85 55.15L302.36 54.84C302.266 54.7575 302.161 54.687 302.05 54.63C300.965 54.0146 299.775 53.6076 298.54 53.43C297.395 53.2383 296.225 53.2383 295.08 53.43C294 53.67 293.43 54.02 293.38 54.48C293.382 54.7754 293.449 55.0667 293.577 55.333C293.705 55.5993 293.891 55.8339 294.12 56.02C294.712 56.6276 295.347 57.1924 296.02 57.71C297.57 58.97 299.02 60.31 300.47 61.71C301.885 63.1168 303.149 64.6687 304.24 66.34C305.009 67.5354 305.633 68.8177 306.1 70.16C306.555 71.4434 306.648 72.8271 306.37 74.16C306.207 74.8581 305.905 75.5162 305.483 76.0952C305.06 76.6742 304.525 77.1621 303.91 77.53C302.557 78.2988 301.035 78.7213 299.48 78.76C297.735 78.8258 295.991 78.5993 294.32 78.09C292.629 77.6055 291.035 76.8306 289.61 75.8C289.015 75.3808 288.46 74.9089 287.95 74.39C287.434 73.8861 286.981 73.322 286.6 72.71C285.954 71.5846 285.648 70.2958 285.72 69C285.813 68.1479 286.19 67.3519 286.79 66.74C287.364 66.118 288.067 65.6299 288.85 65.31C288.873 65.4725 288.873 65.6375 288.85 65.8C288.85 66.08 288.85 66.44 288.79 66.85C288.73 67.26 288.74 67.77 288.73 68.19C288.707 68.4995 288.707 68.8104 288.73 69.12C288.857 69.9275 289.203 70.6849 289.73 71.31C290.735 72.4239 292.041 73.2228 293.49 73.61C294.877 73.9978 296.302 74.2326 297.74 74.31C298.491 74.3921 299.25 74.3584 299.99 74.21C300.668 74.0863 301.282 73.7332 301.73 73.21C301.945 72.9024 302.087 72.5495 302.144 72.1784C302.201 71.8074 302.173 71.4281 302.06 71.07C301.627 69.7355 300.926 68.5036 300 67.45C298.96 66.1996 297.823 65.0326 296.6 63.96C295.37 62.88 294.29 61.96 293.37 61.27C291.933 60.2226 290.667 58.9574 289.62 57.52C288.33 55.52 287.95 53.78 288.48 52.19C288.796 51.3664 289.308 50.6325 289.972 50.0521C290.636 49.4717 291.432 49.0624 292.29 48.86C294.219 48.4847 296.214 48.6535 298.053 49.3476C299.891 50.0416 301.5 51.2336 302.7 52.79C302.91 53.1255 303.088 53.4805 303.23 53.85C303.4 54.2081 303.473 54.6048 303.44 55Z" fill="black"/>
</svg>
