<svg width="268" height="135" viewBox="0 0 268 135" fill="none" xmlns="http://www.w3.org/2000/svg">
<path d="M0.750004 2.12997C0.610004 1.97997 0.560004 1.87997 0.610004 1.80997C0.645597 1.77255 0.689471 1.74402 0.738102 1.72665C0.786733 1.70929 0.838762 1.70356 0.890003 1.70996C1.04299 1.69535 1.19702 1.69535 1.35 1.70996C1.46178 1.72396 1.57217 1.74738 1.68 1.77997C2.73925 1.95282 3.80777 2.063 4.88 2.10995C5.99 2.15995 7.08 2.18997 8.13 2.18997H9C10.74 2.10997 12.54 1.93997 14.39 1.68997C14.84 1.62997 15.28 1.56997 15.7 1.52997C15.8873 1.44033 16.0923 1.3938 16.3 1.3938C16.5077 1.3938 16.7127 1.44033 16.9 1.52997C17.2238 1.66604 17.5165 1.8668 17.76 2.11996C18.0381 2.36516 18.2956 2.63274 18.53 2.91998C18.53 3.18998 18.24 3.49997 17.69 3.83997C17.1151 4.19674 16.5093 4.50129 15.88 4.74997C15.4011 4.96078 14.8969 5.10868 14.38 5.18997C13.6 5.18997 12.81 5.21997 12.01 5.27997C12.01 5.36997 12.01 5.46996 12.01 5.57996C12.0181 5.65975 12.0181 5.74018 12.01 5.81998C11.8255 6.90789 11.7153 8.00707 11.68 9.10995C11.62 10.36 11.59 11.6 11.58 12.84C11.58 13.62 11.58 14.34 11.53 15C11.53 17.62 11.62 20.2866 11.8 23C11.8412 23.0383 11.874 23.0848 11.8965 23.1364C11.919 23.188 11.9305 23.2437 11.9305 23.3C11.9305 23.3562 11.919 23.4119 11.8965 23.4636C11.874 23.5152 11.8412 23.5616 11.8 23.6C11.6484 23.6321 11.4917 23.6321 11.34 23.6L10.81 23.52C10.6343 23.4695 10.4528 23.4426 10.27 23.44C9.91319 23.3152 9.58694 23.116 9.31284 22.8557C9.03874 22.5954 8.82304 22.2799 8.68 21.93C8.39536 21.2833 8.24239 20.5864 8.23001 19.88C8.31001 18.51 8.32001 17.12 8.23001 15.7C8.23001 15.49 8.23001 15.28 8.23001 15.07C8.23001 14.86 8.23001 14.73 8.23001 14.56C8.13001 13.32 8.04001 11.96 7.97001 10.49C7.89582 9.23022 7.91587 7.96671 8.03 6.70996C8.17999 6.22849 8.5143 5.82589 8.96 5.58997C7.53039 5.80718 6.07947 5.84748 4.64 5.70996C3.80244 5.42006 3.05699 4.91274 2.48001 4.23996C1.84044 3.59064 1.26137 2.8844 0.750004 2.12997Z" fill="black"/>
<path d="M27.89 5.15995H27.35C26.8 5.15995 26.21 5.15995 25.57 5.15995C24.9596 5.14053 24.3529 5.05673 23.76 4.90995C23.2439 4.73421 22.7656 4.46279 22.35 4.10993C22.016 3.86612 21.7282 3.56476 21.5 3.21995C21.7667 2.90814 22.112 2.67336 22.5 2.53995C22.8261 2.42495 23.1604 2.33468 23.5 2.26994H23.66C24.8391 1.94105 26.0487 1.73332 27.27 1.64994C28.4 1.57994 29.66 1.56994 31.06 1.64994C32.7261 1.70692 34.3345 2.27474 35.6671 3.27644C36.9997 4.27813 37.9922 5.66529 38.51 7.24995C38.9776 8.67238 38.8626 10.2222 38.19 11.5599C37.7397 12.3364 37.1404 13.0162 36.4265 13.5602C35.7125 14.1042 34.8981 14.5018 34.03 14.73C34.41 15.37 34.78 15.97 35.13 16.51L35.66 17.38C36.6 18.7133 37.6533 20.0833 38.82 21.4899L39.13 21.88C39.2541 21.9468 39.3588 22.0445 39.4341 22.1636C39.5094 22.2827 39.5528 22.4192 39.56 22.5599C39.55 22.7065 39.5017 22.8479 39.42 22.9699C39.3225 23.1295 39.2157 23.2831 39.1 23.4299C38.98 23.5699 38.89 23.6899 38.81 23.7699C38.4349 23.8495 38.0436 23.7891 37.71 23.6C37.223 23.3869 36.7603 23.122 36.33 22.8099C35.9565 22.5539 35.6201 22.2477 35.33 21.8999C34.7692 20.9829 34.1478 20.1043 33.47 19.2699L33.11 18.8099C32.69 18.3199 32.24 17.81 31.78 17.17C31.358 16.6334 30.9833 16.0612 30.66 15.4599C30.2105 15.5316 29.7545 15.5551 29.3 15.5299C28.8217 15.5185 28.3472 15.4411 27.89 15.2999C27.83 16.2999 27.81 17.2999 27.83 18.4599C27.8456 19.4899 27.919 20.5182 28.05 21.54C28.1323 21.6904 28.1769 21.8585 28.18 22.0299C28.1799 22.1925 28.1563 22.3542 28.11 22.51C28.023 22.6291 27.9145 22.7308 27.79 22.8099C27.6208 22.9315 27.4438 23.0418 27.26 23.14C27.1184 23.2259 26.9714 23.3027 26.82 23.3699C26.45 23.2799 26.09 22.9299 25.74 22.3099C25.3733 21.657 25.0782 20.9663 24.86 20.2499C24.6653 19.7125 24.5475 19.1503 24.51 18.5799C24.59 17.5799 24.64 16.5799 24.67 15.5799C24.67 15.2299 24.67 14.8699 24.67 14.5199C24.67 13.4499 24.67 12.2599 24.67 10.9599C24.6924 9.81031 24.7994 8.66389 24.99 7.52995C25.2338 6.964 25.6368 6.48111 26.15 6.13996C26.6864 5.74128 27.271 5.41199 27.89 5.15995ZM28.14 12.7799L29.14 12.5299C29.89 12.3499 30.71 12.1299 31.59 11.8599C32.421 11.6155 33.2225 11.2801 33.98 10.8599C34.6181 10.529 35.1308 9.99886 35.44 9.34995C35.566 9.04907 35.6308 8.72613 35.6308 8.39994C35.6308 8.07375 35.566 7.75084 35.44 7.44996C35.1372 6.76436 34.6388 6.18329 34.0074 5.77952C33.3759 5.37574 32.6394 5.16718 31.89 5.17994H30.48H29.09C29.1052 5.3496 29.1052 5.52029 29.09 5.68995C29.09 5.86995 29.09 5.99995 29.09 6.09995V6.19996C28.83 7.87996 28.6 9.59995 28.41 11.35L28.14 12.7799Z" fill="black"/>
<path d="M51.87 1.05992C51.98 0.939924 52.1 0.949924 52.24 1.05992C52.3989 1.22693 52.5336 1.41543 52.64 1.61992C52.7696 1.85537 52.8831 2.09926 52.98 2.34993C53.08 2.59993 53.15 2.77993 53.19 2.90993C54.2159 6.41636 54.9681 9.9971 55.44 13.6199C55.44 13.7299 55.49 13.8599 55.52 13.9799C55.65 14.7099 55.81 15.4899 55.99 16.3399L56.34 16.4299C56.5667 16.5325 56.7733 16.6747 56.95 16.8499C57.1607 17.0365 57.3517 17.2443 57.52 17.4699C57.6518 17.6278 57.7721 17.7949 57.88 17.9699C57.88 18.0499 57.88 18.1599 57.7 18.2799C57.5371 18.4114 57.3631 18.5285 57.18 18.6299L56.67 18.8799H56.59C56.8356 19.9599 57.1529 21.0222 57.54 22.0599C57.6453 22.1851 57.7243 22.3302 57.7724 22.4865C57.8205 22.6428 57.8367 22.8072 57.82 22.9699C57.77 23.0741 57.7023 23.1688 57.62 23.2499L57.24 23.6299L56.88 23.9299L56.79 24.0099C56.5466 24.0231 56.3038 23.975 56.0837 23.8702C55.8636 23.7654 55.6732 23.6072 55.53 23.4099C55.0497 22.8843 54.6334 22.3036 54.29 21.6799C53.9573 21.1219 53.673 20.5364 53.44 19.9299H53.38C52.3499 19.8745 51.3172 19.8946 50.29 19.9899L48.65 20.2599C47.93 20.3599 47.23 20.4499 46.52 20.5099C45.9954 20.575 45.4647 20.575 44.94 20.5099L44.74 20.8599C44.64 21.0299 44.54 21.1999 44.43 21.3699C44.2791 21.9458 43.9236 22.447 43.43 22.7799C43.1081 22.9812 42.7393 23.0949 42.36 23.1099C41.9627 23.1529 41.561 23.1327 41.17 23.0499C41.0596 22.4926 41.1011 21.9158 41.29 21.3799C41.48 20.4899 41.73 19.5599 42.02 18.6199C41.5423 18.16 41.0884 17.6761 40.66 17.1699C40.48 17.0399 40.42 16.9399 40.47 16.8699C40.5119 16.8211 40.5641 16.7823 40.623 16.7563C40.6818 16.7303 40.7457 16.7179 40.81 16.7199C40.9964 16.7047 41.1836 16.7047 41.37 16.7199H41.8H41.86C42.11 16.7199 42.38 16.7199 42.65 16.7199C42.8827 16.1229 43.1671 15.5474 43.5 14.9999C43.8986 14.3364 44.2335 13.6366 44.5 12.9099C44.72 12.2599 45.03 11.2699 45.44 9.90993C45.85 8.54993 46.2 7.43993 46.58 6.24993C46.8318 5.40909 47.1255 4.58137 47.46 3.76992C47.759 3.17343 48.2025 2.66123 48.75 2.27992C49.1999 2.0025 49.6886 1.79356 50.2 1.65993C50.7752 1.51581 51.3346 1.31481 51.87 1.05992ZM46.74 16.7799C47.47 16.7799 48.18 16.7799 48.9 16.7799C49.81 16.7799 50.76 16.6899 51.72 16.6099L52.78 16.5299C52.73 16.2999 52.68 16.0699 52.62 15.8399C52.52 15.3666 52.42 14.9066 52.32 14.4599C52.18 13.9066 52.03 13.3366 51.87 12.7499C51.3767 10.9499 50.9267 9.16327 50.52 7.38994C49.76 9.56994 48.92 11.6966 48 13.7699L47.55 14.8699L47.17 15.8099C47 16.1499 46.87 16.4599 46.74 16.7799Z" fill="black"/>
<path d="M65.3 1.77992C65.49 1.70992 65.61 1.70992 65.68 1.77992C65.7126 1.81811 65.7367 1.86289 65.7505 1.9112C65.7643 1.95952 65.7675 2.01024 65.76 2.05992C65.7504 2.17813 65.7303 2.29527 65.7 2.40992C65.4685 3.51605 65.3347 4.64036 65.3 5.76991C65.23 7.16991 65.19 8.52992 65.17 9.84992C65.17 10.5999 65.17 11.2499 65.17 11.7999C65.17 13.5599 65.17 15.3399 65.17 17.1299C65.17 18.6599 65.23 20.1799 65.22 21.6999C65.2828 21.8925 65.3046 22.0961 65.2839 22.2976C65.2633 22.4991 65.2006 22.6941 65.1 22.8699C64.9103 23.0684 64.6538 23.1895 64.38 23.2099C64.0884 23.2547 63.7916 23.2547 63.5 23.2099C63.0064 22.8682 62.6516 22.3608 62.5 21.7799C62.24 21.0385 62.0459 20.2755 61.92 19.4999C61.8183 18.9319 61.7615 18.3568 61.75 17.7799C61.86 15.8999 61.89 14.0099 61.85 12.1099C61.85 11.6999 61.79 11.2399 61.76 10.7499C61.68 9.49992 61.63 8.17991 61.59 6.79991C61.5417 5.639 61.5751 4.47614 61.69 3.31993C61.7709 3.05997 61.9103 2.822 62.0975 2.62437C62.2847 2.42674 62.5148 2.27469 62.77 2.17991C63.3009 2.00599 63.8522 1.90178 64.41 1.86991L65.3 1.77992Z" fill="black"/>
<path d="M68.7 2.12997C68.56 1.97997 68.52 1.87997 68.56 1.80997C68.598 1.77297 68.6437 1.74483 68.6938 1.72754C68.744 1.71025 68.7973 1.70424 68.85 1.70996C68.9997 1.69538 69.1504 1.69538 69.3 1.70996C69.4151 1.72405 69.5288 1.74747 69.64 1.77997C70.6991 1.95385 71.7677 2.06404 72.84 2.10995C73.95 2.15995 75.03 2.18997 76.08 2.18997H77C78.74 2.10997 80.53 1.93997 82.39 1.68997C82.84 1.62997 83.27 1.56997 83.69 1.52997C83.8773 1.44033 84.0823 1.3938 84.29 1.3938C84.4977 1.3938 84.7027 1.44033 84.89 1.52997C85.2184 1.66302 85.5149 1.8641 85.76 2.11996C86.0327 2.36756 86.2867 2.63497 86.52 2.91998C86.52 3.18998 86.23 3.49997 85.68 3.83997C85.1096 4.19868 84.507 4.50334 83.88 4.74997C83.3982 4.96226 82.8905 5.1102 82.37 5.18997C81.59 5.18997 80.8 5.21997 80 5.27997C80 5.36997 80 5.46996 80 5.57996C79.9923 5.66156 79.9755 5.74207 79.95 5.81998C79.7754 6.9092 79.6652 8.00775 79.62 9.10995C79.57 10.36 79.54 11.6 79.53 12.84C79.53 13.62 79.51 14.34 79.47 15C79.47 17.62 79.5633 20.2866 79.75 23C79.8282 23.0803 79.872 23.1879 79.872 23.3C79.872 23.412 79.8282 23.5197 79.75 23.6C79.5983 23.6315 79.4417 23.6315 79.29 23.6L78.75 23.52C78.5745 23.4687 78.3928 23.4418 78.21 23.44C77.8547 23.3124 77.5299 23.1123 77.2561 22.8523C76.9824 22.5923 76.7657 22.2782 76.62 21.93C76.3354 21.2833 76.1824 20.5864 76.17 19.88C76.25 18.51 76.27 17.12 76.17 15.7C76.17 15.49 76.17 15.28 76.17 15.07C76.17 14.86 76.17 14.73 76.17 14.56C76.07 13.32 75.99 11.96 75.91 10.49C75.8335 9.23009 75.8569 7.96614 75.98 6.70996C76.0511 6.47145 76.1691 6.24954 76.3271 6.05722C76.4851 5.8649 76.6798 5.70603 76.9 5.58997C75.4704 5.80738 74.0195 5.84768 72.58 5.70996C71.7444 5.41625 70.9998 4.90955 70.42 4.23996C69.7839 3.59021 69.2082 2.88399 68.7 2.12997Z" fill="black"/>
<path d="M101.91 6.15987C101.91 6.29987 101.91 6.37987 101.79 6.37987C101.674 6.37915 101.562 6.3405 101.47 6.26985L101.1 6.03987C101.031 5.97678 100.953 5.92299 100.87 5.87987C100.054 5.41787 99.1584 5.11263 98.23 4.97988C97.3724 4.8392 96.4976 4.8392 95.64 4.97988C94.83 5.15988 94.4 5.41985 94.37 5.76985C94.3716 5.99017 94.4217 6.20745 94.5168 6.40621C94.6118 6.60497 94.7495 6.78035 94.92 6.91988C95.3636 7.37533 95.8381 7.79965 96.34 8.18987C97.5 9.13987 98.62 10.1399 99.68 11.1899C100.745 12.2455 101.694 13.4122 102.51 14.6699C103.092 15.5625 103.562 16.523 103.91 17.5299C104.25 18.4926 104.32 19.5304 104.11 20.5299C103.987 21.0526 103.759 21.5451 103.441 21.9781C103.124 22.411 102.722 22.7755 102.26 23.0499C101.248 23.6318 100.107 23.9515 98.94 23.9799C97.6315 24.0233 96.3245 23.8545 95.07 23.4799C93.8033 23.1135 92.6091 22.5317 91.54 21.7599C91.0941 21.4426 90.6759 21.088 90.29 20.6999C89.9094 20.3197 89.5738 19.8969 89.29 19.4399C88.8043 18.5971 88.5749 17.631 88.63 16.6599C88.7005 16.023 88.9822 15.4281 89.43 14.9699C89.856 14.4947 90.3867 14.125 90.98 13.8899C91.0005 14.0124 91.0005 14.1374 90.98 14.2599C90.98 14.4699 90.98 14.7299 90.98 15.0499C90.98 15.3699 90.98 15.7299 90.93 16.0499C90.912 16.2828 90.912 16.5169 90.93 16.7499C91.0291 17.3575 91.2958 17.9255 91.7 18.3899C92.4568 19.2224 93.4349 19.8224 94.52 20.1199C95.5615 20.4076 96.6311 20.5819 97.71 20.6399C98.2742 20.6983 98.8439 20.6714 99.4 20.5599C99.9037 20.4779 100.363 20.2234 100.7 19.8399C100.862 19.6102 100.968 19.3465 101.012 19.069C101.055 18.7916 101.034 18.5079 100.95 18.2399C100.623 17.2375 100.096 16.3121 99.4 15.5199C98.6223 14.582 97.7695 13.7091 96.85 12.9099C95.93 12.0999 95.12 11.4199 94.43 10.9099C93.3513 10.1229 92.4031 9.1713 91.62 8.08986C91.1746 7.53647 90.8656 6.88609 90.718 6.19124C90.5703 5.49639 90.5881 4.77655 90.77 4.08986C91.0026 3.47181 91.3846 2.92098 91.8819 2.4865C92.3792 2.05202 92.9763 1.74741 93.62 1.59987C95.0344 1.28169 96.5119 1.39666 97.86 1.92986C99.2894 2.41332 100.536 3.32448 101.43 4.53987C101.589 4.79291 101.723 5.06083 101.83 5.33986C101.924 5.6025 101.951 5.88411 101.91 6.15987Z" fill="black"/>
<path d="M111.15 11.94C110.914 11.9147 110.681 11.8746 110.45 11.82C110.06 11.75 109.63 11.64 109.16 11.52C108.737 11.4073 108.322 11.2636 107.92 11.09C107.57 10.94 107.36 10.78 107.31 10.62C107.412 10.4861 107.487 10.3331 107.53 10.17C107.61 9.91998 107.69 9.65998 107.76 9.38998C107.83 9.11998 107.88 8.95997 107.89 8.87997C107.855 8.6614 107.855 8.43854 107.89 8.21997C107.895 8.11922 107.922 8.02087 107.971 7.93246C108.019 7.84406 108.087 7.76793 108.17 7.70996C108.855 7.73517 109.531 7.87372 110.17 8.11996C111.04 8.40996 111.76 8.67997 112.32 8.90997H112.41H112.46L112.63 8.98996L112.81 9.06998C112.86 9.06998 112.88 9.12997 112.88 9.15997C112.88 9.18997 112.88 9.15996 112.75 9.20996C112.628 9.33257 112.533 9.47896 112.47 9.63998C112.37 9.84998 112.27 10.08 112.16 10.33C112.031 10.7013 111.874 11.0624 111.69 11.41C111.53 11.77 111.35 11.93 111.15 11.94ZM112.41 18.18H112.46L112.63 18.25L112.81 18.34C112.86 18.34 112.88 18.39 112.88 18.42C112.88 18.45 112.88 18.42 112.75 18.47C112.631 18.5945 112.536 18.7404 112.47 18.9C112.37 19.11 112.27 19.34 112.16 19.6C112.033 19.9689 111.876 20.3267 111.69 20.67C111.53 20.99 111.35 21.16 111.15 21.17C110.914 21.1447 110.681 21.1046 110.45 21.05C110.06 20.97 109.63 20.87 109.16 20.74C108.738 20.6259 108.324 20.4856 107.92 20.32C107.57 20.16 107.36 20 107.31 19.85C107.412 19.7161 107.487 19.5631 107.53 19.4C107.61 19.15 107.69 18.89 107.76 18.63C107.812 18.4557 107.856 18.2788 107.89 18.1C107.855 17.8813 107.855 17.6586 107.89 17.44C107.895 17.3392 107.922 17.2409 107.971 17.1525C108.019 17.0641 108.087 16.9879 108.17 16.93C108.855 16.946 109.532 17.0813 110.17 17.33C111.04 17.63 111.76 17.9 112.32 18.13L112.41 18.18Z" fill="black"/>
<path d="M8.52 53.5499C7.06 53.8299 5.8 54.0999 4.75 54.3699L3.85 54.6099C3.49678 54.0236 3.20203 53.4039 2.97 52.7599C2.73 52.1199 2.55 51.5699 2.42 51.1299L2.32 50.7999C3.6532 50.1685 5.07716 49.7501 6.54 49.5599C8.58312 49.235 10.6573 49.1511 12.72 49.3099C14.9092 49.4444 17.0533 49.9906 19.04 50.9199C21.0096 51.8312 22.6232 53.3674 23.63 55.2899C24.5821 57.2944 25.0219 59.5037 24.91 61.7199C24.832 64.2719 24.2722 66.786 23.26 69.1299C22.2323 71.5788 20.655 73.7584 18.65 75.4999C16.4944 77.3282 13.8471 78.4796 11.04 78.8099C9.2318 79.0519 7.39367 78.9364 5.63 78.4699C3.71021 77.9064 2.0455 76.6941 0.919998 75.0399C1.61028 74.9678 2.30734 74.9947 2.99 75.1199C3.98551 75.2423 4.98706 75.309 5.99 75.3199C7.27532 75.3238 8.55581 75.1625 9.8 74.8399C10.6227 74.6153 11.4202 74.3071 12.18 73.9199C12.845 73.5726 13.4864 73.1817 14.1 72.7499C14.34 72.6099 14.58 72.4499 14.84 72.2799C16.1981 71.345 17.3264 70.1141 18.14 68.6799C19.0829 67.1195 19.7588 65.4128 20.14 63.6299C20.5411 61.9367 20.5411 60.1732 20.14 58.4799C19.7318 56.8761 18.7361 55.4842 17.35 54.5799C15.92 53.5799 13.84 53.1599 11.13 53.2799C11.1588 54.1541 11.1321 55.0292 11.05 55.8999C10.95 57.1899 10.81 58.6699 10.65 60.3499C10.42 62.6699 10.24 64.8999 10.08 67.0499C9.92248 68.575 9.9024 70.1112 10.02 71.6399C10.088 72.0393 10.0136 72.4498 9.81 72.7999C9.62237 73.0714 9.35764 73.2804 9.05 73.3999C8.78348 73.5033 8.50434 73.5705 8.22 73.5999C8.07066 73.6198 7.91934 73.6198 7.77 73.5999C7.27 73.3199 6.85 72.4099 6.52 70.8799C6.19564 69.3219 5.96523 67.7457 5.83 66.1599C5.70898 65.0978 5.66553 64.0283 5.7 62.9599C5.80647 61.5224 5.82651 60.0799 5.76 58.64C5.62601 57.5953 5.72156 56.5339 6.04 55.5299C6.58784 54.5812 7.47349 53.8741 8.52 53.5499Z" fill="black"/>
<path d="M31.29 54.6499C30.5298 54.0895 29.9017 53.3693 29.45 52.5399C28.91 51.5999 28.48 50.7799 28.16 50.0799C27.96 49.7499 27.92 49.5599 28.05 49.5099C28.2578 49.4634 28.475 49.4844 28.67 49.5699C29.5604 49.7778 30.4671 49.9083 31.38 49.9599C32.38 50.0199 33.38 50.0599 34.38 50.0799H35.71C36.66 50.0799 37.71 50.0799 38.71 49.9799L41.88 49.7599C42.95 49.6899 43.98 49.6199 44.97 49.5699C46.6567 49.1899 48.1467 49.8266 49.44 51.4799C49.35 51.7899 48.81 52.1599 47.82 52.5799C46.7851 53.0066 45.7267 53.3738 44.65 53.6799C43.8707 53.9252 43.0708 54.0993 42.26 54.1999H41.08C40.28 54.1999 39.53 54.1999 38.84 54.1999C38.0298 54.2326 37.2219 54.3094 36.42 54.4299C36.13 56.5299 35.89 58.6399 35.69 60.7799C36.34 60.8299 36.99 60.8999 37.69 60.9699C39.1213 61.008 40.5536 60.9646 41.98 60.8399L43.68 60.7399C43.8599 60.6574 44.0578 60.6214 44.2552 60.6354C44.4527 60.6494 44.6435 60.7129 44.81 60.8199C45.1556 61.0501 45.4459 61.3541 45.66 61.7099C45.9125 62.053 46.1397 62.4139 46.34 62.7899C46.34 63.0766 46.08 63.4099 45.56 63.7899C45.0342 64.1776 44.4715 64.5126 43.88 64.7899C43.4283 65.0461 42.9271 65.2029 42.41 65.2499C41.21 65.1799 40.3 65.1599 39.66 65.1799C39.02 65.1999 38.48 65.2399 38.04 65.2899L36.89 65.3899C36.48 65.3899 35.96 65.3899 35.32 65.3899C35.2024 67.6537 35.2492 69.9229 35.46 72.1799C35.5422 72.3417 35.5899 72.5187 35.6 72.6999C35.5964 72.857 35.5479 73.0097 35.46 73.1399L35.18 73.3099C35.0249 73.3879 34.8645 73.4547 34.7 73.5099L38.31 73.6499C38.55 73.6499 38.78 73.6499 39.01 73.6499C40.24 73.6499 41.6 73.5999 43.12 73.4699C44.64 73.3399 45.98 73.1699 47.18 72.9599C47.3211 72.8445 47.4977 72.7815 47.68 72.7815C47.8622 72.7815 48.0389 72.8445 48.18 72.9599C48.4083 73.1107 48.6053 73.3042 48.76 73.5299C49 73.8299 49.21 74.1199 49.41 74.3899C49.61 74.6599 49.59 74.6399 49.66 74.7199C49.7119 74.9767 49.6927 75.2427 49.6046 75.4894C49.5165 75.7361 49.3628 75.9541 49.16 76.1199C48.6813 76.5913 48.1226 76.974 47.51 77.2499C46.9913 77.5189 46.4295 77.6949 45.85 77.7699C44.5 77.7699 43.14 77.7699 41.77 77.8699L40.85 77.9299C39.68 78.0599 38.3 78.1699 36.72 78.2599C35.3355 78.3556 33.9449 78.3087 32.57 78.1199C31.6034 77.7048 30.7844 77.0077 30.22 76.1199C29.6294 75.2521 29.127 74.3275 28.72 73.3599C28.58 73.0899 28.54 72.9299 28.61 72.8599C28.6638 72.8201 28.726 72.7931 28.7919 72.781C28.8578 72.7688 28.9255 72.7719 28.99 72.7899C29.1709 72.819 29.3484 72.8659 29.52 72.9299C30.5787 73.148 31.6513 73.2917 32.73 73.3599C32.0859 72.6407 31.611 71.7865 31.34 70.8599C31.0477 70.0795 30.8692 69.2611 30.81 68.4299C30.81 68.3199 30.81 68.1099 30.81 67.8099C30.81 67.2899 30.9 66.6699 30.95 65.9399C31 65.2099 31.04 64.5599 31.06 63.9399C31.0942 63.6074 31.0942 63.2724 31.06 62.9399C30.5167 62.1321 30.0257 61.2904 29.59 60.4199C29.41 60.1299 29.39 59.9499 29.52 59.8899C29.7215 59.8242 29.9386 59.8242 30.14 59.8899C30.41 59.8899 30.67 59.9899 30.92 60.0599H31.02C31.02 59.0599 31.02 58.0599 31.07 57.1099C31.0939 56.2862 31.1674 55.4647 31.29 54.6499Z" fill="black"/>
<path d="M60.94 54.1599H60.21C59.49 54.1599 58.69 54.1599 57.84 54.1599C57.0269 54.1323 56.219 54.0183 55.43 53.8199C54.7444 53.5831 54.1074 53.224 53.55 52.7599C53.1085 52.4303 52.7263 52.0279 52.42 51.5699C52.7775 51.148 53.2447 50.833 53.77 50.6599C54.1896 50.5055 54.621 50.385 55.06 50.2999L55.27 50.2399C56.8458 49.8086 58.4603 49.534 60.09 49.4199C61.59 49.3299 63.27 49.3099 65.09 49.3599C67.4119 49.4409 69.6458 50.2686 71.46 51.7199C73.132 53.0279 74.3723 54.8083 75.02 56.8299C75.6461 58.7267 75.4951 60.7943 74.6 62.5799C73.7 64.4199 71.85 65.8299 69.05 66.8099C69.56 67.6599 70.05 68.4599 70.52 69.1899L71.22 70.3399C72.4733 72.1466 73.88 73.9766 75.44 75.8299L75.85 76.3399C76.013 76.4315 76.1499 76.5631 76.2479 76.7224C76.3459 76.8816 76.4017 77.0632 76.41 77.2499C76.3983 77.4457 76.3363 77.6351 76.23 77.7999C76.1061 78.0139 75.9657 78.2179 75.81 78.4099L75.42 78.8599C74.9196 78.9692 74.3965 78.8909 73.95 78.6399C73.3013 78.352 72.6845 77.9967 72.11 77.5799C71.6131 77.2398 71.1626 76.8364 70.77 76.3799C70.0222 75.1529 69.1937 73.977 68.29 72.8599C68.15 72.6599 67.98 72.4599 67.8 72.2499C67.24 71.5833 66.65 70.8533 66.03 70.0599C65.4717 69.342 64.9734 68.5795 64.54 67.7799C63.942 67.878 63.3352 67.9115 62.73 67.8799C62.0925 67.8589 61.4605 67.7547 60.85 67.5699C60.77 68.8699 60.74 70.2799 60.77 71.7899C60.7869 73.1611 60.8837 74.5301 61.06 75.8899C61.1713 76.089 61.2331 76.312 61.24 76.5399C61.2395 76.7571 61.2058 76.9729 61.14 77.1799C61.0246 77.3432 60.8786 77.4825 60.71 77.5899C60.49 77.7399 60.26 77.8899 60.01 78.0299L59.42 78.3299C58.93 78.2099 58.42 77.7399 57.98 76.9099C57.4909 76.0422 57.0986 75.1233 56.81 74.1699C56.5497 73.4523 56.3914 72.7016 56.34 71.9399C56.44 70.6299 56.51 69.2899 56.55 67.9399C56.55 67.4666 56.57 66.9966 56.61 66.5299C56.61 65.1033 56.61 63.5233 56.61 61.7899C56.6404 60.2585 56.7808 58.7312 57.03 57.2199C57.3507 56.4628 57.8861 55.8162 58.57 55.3599C59.3089 54.8661 60.1046 54.4632 60.94 54.1599ZM61.27 64.3099L62.54 63.9799C63.54 63.7499 64.63 63.4499 65.8 63.0899C66.9076 62.7615 67.9744 62.3086 68.98 61.7399C69.8447 61.3061 70.5462 60.6046 70.98 59.7399C71.1505 59.3382 71.2384 58.9063 71.2384 58.4699C71.2384 58.0335 71.1505 57.6016 70.98 57.1999C70.6075 56.323 69.9849 55.5752 69.19 55.0499C68.3265 54.4556 67.298 54.1478 66.25 54.1699H64.38H62.52C62.5401 54.3962 62.5401 54.6237 62.52 54.8499C62.52 55.0899 62.52 55.2699 62.52 55.3999C62.52 55.5299 62.52 55.5199 62.52 55.5299C62.1667 57.7699 61.86 60.0566 61.6 62.3899C61.43 63.0599 61.35 63.6899 61.27 64.3099Z" fill="black"/>
<path d="M81.52 54.6499C80.7632 54.0887 80.1386 53.3685 79.69 52.5399C79.2152 51.7442 78.7846 50.9229 78.4 50.0799C78.1867 49.7532 78.1467 49.5632 78.28 49.5099C78.4912 49.4653 78.711 49.4862 78.91 49.5699C79.797 49.7779 80.7004 49.9084 81.61 49.9599C82.61 50.0199 83.61 50.0599 84.61 50.0799H85.94C86.89 50.0799 87.89 50.0799 88.94 49.9799L92.12 49.7599C93.19 49.6899 94.22 49.6199 95.2 49.5699C96.9 49.1899 98.3933 49.8266 99.68 51.4799C99.59 51.7899 99.05 52.1599 98.06 52.5799C97.0223 53.0081 95.9605 53.3754 94.88 53.6799C94.1012 53.9272 93.3011 54.1013 92.49 54.1999H91.32C90.51 54.1999 89.76 54.1999 89.07 54.1999C88.2598 54.2326 87.4519 54.3094 86.65 54.4299C86.36 56.5299 86.12 58.6399 85.93 60.7799C86.58 60.8299 87.23 60.8999 87.88 60.9699C89.3146 61.0082 90.7503 60.9648 92.18 60.8399L93.88 60.7399C94.06 60.6574 94.2578 60.6214 94.4552 60.6354C94.6527 60.6494 94.8435 60.7129 95.01 60.8199C95.3518 61.0546 95.6412 61.3577 95.86 61.7099C96.1098 62.0528 96.3338 62.4138 96.53 62.7899C96.53 63.0766 96.27 63.4099 95.75 63.7899C95.2271 64.182 94.6639 64.5172 94.07 64.7899C93.6222 65.0467 93.1241 65.2036 92.61 65.2499C91.41 65.1799 90.49 65.1599 89.85 65.1799C89.21 65.1999 88.67 65.2399 88.23 65.2899L87.09 65.3899C86.68 65.3899 86.15 65.3899 85.52 65.3899C85.3993 67.6534 85.4427 69.9227 85.65 72.1799C85.7322 72.3417 85.7798 72.5187 85.79 72.6999C85.7864 72.857 85.7378 73.0097 85.65 73.1399L85.37 73.3099C85.2149 73.3879 85.0545 73.4547 84.89 73.5099L88.51 73.6499C88.74 73.6499 88.97 73.6499 89.21 73.6499C90.43 73.6499 91.8 73.5999 93.31 73.4699C94.82 73.3399 96.17 73.1699 97.37 72.9599C97.5111 72.8445 97.6877 72.7815 97.87 72.7815C98.0523 72.7815 98.2289 72.8445 98.37 72.9599C98.6017 73.1099 98.8021 73.3035 98.96 73.5299L99.6 74.3899L99.85 74.7199C99.9009 74.9757 99.8822 75.2405 99.796 75.4867C99.7099 75.733 99.5593 75.9516 99.36 76.1199C98.8813 76.5913 98.3226 76.974 97.71 77.2499C97.1902 77.5163 96.6289 77.6921 96.05 77.7699C94.69 77.7699 93.33 77.7699 91.96 77.8699L91.05 77.9299C89.87 78.0599 88.5 78.1699 86.91 78.2599C85.5255 78.3554 84.1349 78.3085 82.76 78.1199C81.7953 77.7016 80.9772 77.0053 80.41 76.1199C79.8224 75.252 79.3232 74.3273 78.92 73.3599C78.77 73.0899 78.74 72.9299 78.81 72.8599C78.8616 72.8195 78.9221 72.7921 78.9865 72.7799C79.0509 72.7677 79.1172 72.7712 79.18 72.7899C79.3641 72.8189 79.545 72.8658 79.72 72.9299C80.7754 73.1473 81.8446 73.291 82.92 73.3599C82.2831 72.6356 81.8091 71.7831 81.53 70.8599C81.2398 70.0794 81.0646 69.2608 81.01 68.4299C81.01 68.3199 81.01 68.1099 81.01 67.8099C81.01 67.2899 81.09 66.6699 81.14 65.9399C81.19 65.2099 81.23 64.5599 81.26 63.9399C81.3018 63.6079 81.3018 63.2719 81.26 62.9399C80.7241 62.1275 80.2334 61.2863 79.79 60.4199C79.61 60.1299 79.59 59.9499 79.73 59.8899C79.9284 59.8264 80.1416 59.8264 80.34 59.8899C80.6028 59.9328 80.8632 59.9895 81.12 60.0599H81.22C81.22 59.0599 81.22 58.0599 81.28 57.1099C81.3157 56.2862 81.3958 55.465 81.52 54.6499Z" fill="black"/>
<path d="M106.27 49.7299C106.57 49.5699 106.75 49.5499 106.81 49.6799C106.878 49.8757 106.905 50.0833 106.89 50.2899C107.033 51.8714 107.314 53.4374 107.73 54.9699C108.23 56.9299 108.713 58.7299 109.18 60.3699L109.59 61.7999C110.497 64.7399 111.57 67.7799 112.81 70.9199C112.9 70.4399 112.99 70.0499 113.07 69.7599C113.863 67.4999 114.583 65.1899 115.23 62.8299C115.258 62.7556 115.278 62.6785 115.29 62.5999C115.4 62.1699 115.51 61.6999 115.63 61.1899C116.003 59.4966 116.43 57.6966 116.91 55.7899C117.316 54.1334 117.834 52.5063 118.46 50.9199C118.855 50.2971 119.475 49.8497 120.19 49.6699C120.879 49.5165 121.585 49.456 122.29 49.4899C122.829 49.5297 123.371 49.5297 123.91 49.4899C124.18 49.3999 124.34 49.4199 124.38 49.5499C124.434 49.7088 124.434 49.8811 124.38 50.0399C124.322 50.2098 124.249 50.3739 124.16 50.5299C123.475 51.9106 122.887 53.3374 122.4 54.7999C121.82 56.5099 121.26 58.1999 120.74 59.8799C120.39 61.0199 120.07 62.0299 119.74 62.9299C119.05 65.1899 118.38 67.5099 117.74 69.8599C117.26 71.6666 116.767 73.4566 116.26 75.2299C116.288 75.4606 116.253 75.6945 116.16 75.9073C116.067 76.1201 115.918 76.304 115.73 76.4399C115.333 76.7825 114.995 77.1879 114.73 77.6399C114.538 77.9548 114.306 78.2438 114.04 78.4999C113.779 78.7377 113.443 78.8758 113.09 78.8899C112.58 78.8899 111.99 78.3599 111.33 77.3499C110.637 76.2996 110.022 75.2 109.49 74.0599C109.069 73.2065 108.692 72.332 108.36 71.4399C107.693 69.1399 106.943 66.8499 106.11 64.5699C106.05 64.3899 105.98 64.1999 105.92 63.9999C105.333 62.5199 104.667 60.7399 103.92 58.6599C103.272 56.9394 102.773 55.1661 102.43 53.3599C102.458 52.8993 102.591 52.4512 102.82 52.0506C103.049 51.6499 103.367 51.3075 103.75 51.0499C104.519 50.4858 105.368 50.0408 106.27 49.7299Z" fill="black"/>
<path d="M137.93 52.4399C138.137 52.5799 138.217 52.6899 138.17 52.7699C138.123 52.8499 138.003 52.91 137.81 52.95C137.62 52.95 137.4 53.0199 137.15 53.0499C136.834 53.079 136.52 53.1291 136.21 53.2C135.91 53.3098 135.627 53.4612 135.37 53.6499C134.464 54.3206 133.736 55.203 133.25 56.2199C132.689 57.3468 132.259 58.5347 131.97 59.76C131.687 60.9152 131.506 62.093 131.43 63.2799C131.35 64.7082 131.4 66.1408 131.58 67.5599C131.777 69.041 132.206 70.4818 132.85 71.8299C133.87 73.9233 135.38 74.8633 137.38 74.6499C139.109 74.4945 140.744 73.7942 142.05 72.6499C143.37 71.4727 144.397 70.0038 145.05 68.3599C145.753 66.6259 146.139 64.7801 146.19 62.9099C146.269 61.0541 146.004 59.1997 145.41 57.4399C145.092 56.5508 144.666 55.7044 144.14 54.92C143.696 54.3492 143.201 53.8203 142.66 53.3399C142.16 52.8479 141.595 52.4273 140.98 52.0899C140.08 51.4833 139.34 51.0233 138.76 50.7099C138.18 50.4099 137.4 50.0499 136.43 49.6499C136.56 49.3599 136.98 49.19 137.7 49.14C138.452 49.0805 139.208 49.0805 139.96 49.14C140.544 49.1798 141.125 49.2532 141.7 49.3599C143.443 49.9136 145.021 50.8931 146.29 52.2099C147.852 53.9302 149.043 55.9534 149.79 58.1537C150.536 60.354 150.822 62.6844 150.63 64.9999C150.357 67.3388 149.681 69.6126 148.63 71.7199C147.612 73.7663 146.095 75.5236 144.22 76.8299C143.186 77.538 142.054 78.0905 140.86 78.4699C139.589 78.8776 138.253 79.0471 136.92 78.9699C135.505 78.8777 134.133 78.4454 132.92 77.7099C131.245 76.6807 129.866 75.2333 128.92 73.51C127.941 71.7485 127.265 69.8353 126.92 67.85C126.554 65.8723 126.427 63.8579 126.54 61.85C126.621 60.1218 126.924 58.4112 127.44 56.76C127.935 55.0172 128.989 53.4854 130.44 52.3999C131.035 51.9013 131.712 51.5089 132.44 51.2399C133.19 50.9601 133.99 50.8375 134.79 50.88C135.387 50.917 135.974 51.0487 136.53 51.2699C137.085 51.5408 137.565 51.9423 137.93 52.4399Z" fill="black"/>
<path d="M161.76 71.48C162.12 71.48 162.32 71.54 162.35 71.67C162.38 71.8 162.35 71.96 162.15 72.17C161.788 72.5864 161.492 73.055 161.27 73.56C161.04 74.09 160.82 74.6199 160.63 75.1499C160.56 75.3399 160.5 75.5099 160.43 75.6799C160.331 76.2038 160.29 76.7371 160.31 77.2699C160.31 77.9299 160.31 78.48 160.39 78.92C160.51 79.04 160.55 79.1399 160.52 79.2099C160.474 79.2936 160.4 79.3576 160.31 79.39C160.111 79.461 159.901 79.4982 159.69 79.5H158.74C158.42 79.5 158.18 79.5 158.03 79.5C157.603 79.4191 157.21 79.2138 156.9 78.91C156.433 78.5363 156.007 78.1139 155.63 77.6499C155.26 77.1999 155.1 76.8699 155.16 76.6499C155.341 76.0249 155.445 75.3802 155.47 74.73C155.42 74.1577 155.42 73.5822 155.47 73.01C155.49 72.4413 155.662 71.8886 155.97 71.41C156.795 71.0958 157.685 70.9927 158.56 71.1099C159.72 71.1999 160.73 71.2999 161.56 71.4299L161.76 71.48Z" fill="black"/>
<path d="M182.93 53.5499C181.47 53.8299 180.21 54.0999 179.16 54.3699L178.26 54.6099C177.911 54.0214 177.616 53.4022 177.38 52.7599C177.15 52.1199 176.97 51.5699 176.84 51.1299C176.84 50.9999 176.76 50.8899 176.74 50.7999C178.072 50.1656 179.496 49.747 180.96 49.5599C183.003 49.2348 185.077 49.1509 187.14 49.3099C189.329 49.4456 191.473 49.9918 193.46 50.9199C195.43 51.8312 197.043 53.3674 198.05 55.2899C198.998 57.2958 199.437 59.504 199.33 61.7199C199.252 64.2719 198.692 66.786 197.68 69.1299C196.649 71.5769 195.072 73.7557 193.07 75.4999C190.912 77.33 188.261 78.4815 185.45 78.8099C183.642 79.0517 181.804 78.9362 180.04 78.4699C178.12 77.9064 176.455 76.6941 175.33 75.0399C176.02 74.9677 176.717 74.9946 177.4 75.1199C178.396 75.2416 179.397 75.3084 180.4 75.3199C181.689 75.3235 182.972 75.1622 184.22 74.8399C185.039 74.6138 185.833 74.3055 186.59 73.9199C187.257 73.5705 187.902 73.1797 188.52 72.7499L189.26 72.2799C190.613 71.3393 191.74 70.1096 192.56 68.6799C193.508 67.1218 194.184 65.4143 194.56 63.6299C194.945 61.9328 194.928 60.1693 194.51 58.4799C194.11 56.8752 193.116 55.4816 191.73 54.5799C189.848 53.494 187.669 53.0385 185.51 53.2799C185.539 54.1543 185.509 55.0296 185.42 55.8999C185.32 57.1899 185.19 58.6699 185.02 60.3499C184.8 62.6699 184.61 64.9033 184.45 67.0499C184.3 68.5755 184.283 70.1114 184.4 71.6399C184.474 72.0046 184.414 72.3838 184.23 72.7073C184.046 73.0309 183.751 73.2769 183.4 73.3999C183.133 73.5021 182.854 73.5694 182.57 73.5999C182.421 73.6199 182.269 73.6199 182.12 73.5999C181.61 73.3199 181.19 72.4099 180.87 70.8799C180.536 69.3236 180.305 67.7468 180.18 66.1599C180.059 65.0978 180.016 64.0283 180.05 62.9599C180.146 61.522 180.166 60.08 180.11 58.64C179.968 57.5961 180.061 56.5338 180.38 55.5299C180.947 54.5693 181.859 53.8612 182.93 53.5499Z" fill="black"/>
<path d="M219.16 49.8399C219.36 49.6899 219.5 49.6799 219.61 49.8399C219.729 50.0297 219.797 50.2464 219.81 50.4699C219.835 50.746 219.835 51.0238 219.81 51.2999C219.81 51.5699 219.81 51.7699 219.81 51.8799V51.9599C219.81 53.6599 219.81 55.3399 219.81 57.0199C219.81 59.2699 219.81 61.5499 219.74 63.8399C219.67 65.2399 219.57 66.6399 219.42 68.0399C219.282 69.416 219.042 70.7798 218.7 72.1199C218.464 73.2405 218.129 74.338 217.7 75.3999C217.281 76.3327 216.582 77.112 215.7 77.6299C214.803 78.1631 213.806 78.5037 212.77 78.6299C211.768 78.7527 210.752 78.6951 209.77 78.4599C207.867 77.9347 206.158 76.8682 204.85 75.3899C204.301 74.7757 203.818 74.1054 203.41 73.3899C202.781 72.5653 202.393 71.582 202.29 70.5499C202.239 70.2185 202.239 69.8813 202.29 69.5499C202.311 69.063 202.49 68.5963 202.8 68.2199C203.051 67.8874 203.381 67.6221 203.76 67.4476C204.138 67.2731 204.554 67.1949 204.97 67.2199C204.97 67.2199 204.97 67.3299 205.03 67.5199C205.09 67.7099 205.03 67.8999 205.03 68.1199C205.03 68.3399 205.03 68.4699 205.03 68.6299C205.016 68.7462 205.016 68.8637 205.03 68.9799C205.1 69.5095 205.258 70.0235 205.5 70.4999C205.993 71.4989 206.72 72.3636 207.62 73.0199C207.989 73.2999 208.385 73.5443 208.8 73.7499C209.196 73.9211 209.608 74.0518 210.03 74.1399H210.12H210.18C210.525 74.2679 210.897 74.3058 211.26 74.2499C211.849 74.2045 212.422 74.034 212.94 73.7499C213.087 73.6492 213.213 73.52 213.31 73.3699C213.42 73.1899 213.51 73.0399 213.58 72.9099C213.789 72.4986 213.953 72.0661 214.07 71.6199C214.15 71.2299 214.22 70.8199 214.3 70.3899C214.631 67.8568 214.795 65.3046 214.79 62.7499C214.79 61.9999 214.79 61.2399 214.79 60.4799C214.79 58.9899 214.79 57.4799 214.79 56.0299C214.898 54.675 215.312 53.3621 216 52.1899C216.768 51.0819 217.878 50.2564 219.16 49.8399Z" fill="black"/>
<path d="M229.16 49.6499C229.41 49.5599 229.57 49.5599 229.66 49.6499C229.703 49.7027 229.734 49.7635 229.753 49.8288C229.772 49.894 229.778 49.9624 229.77 50.0299C229.754 50.1849 229.727 50.3386 229.69 50.4899C229.384 51.9651 229.207 53.4641 229.16 54.9699C229.07 56.8399 229.01 58.6499 228.98 60.4099C228.98 61.4099 228.98 62.2799 228.93 63.0099C228.93 65.3632 228.93 67.7332 228.93 70.1199C228.977 72.1599 228.993 74.1899 228.98 76.2099C229.068 76.4655 229.1 76.7371 229.074 77.0062C229.048 77.2753 228.965 77.5357 228.83 77.7699C228.568 78.045 228.209 78.2066 227.83 78.2199C227.442 78.2792 227.048 78.2792 226.66 78.2199C226.023 77.7567 225.57 77.084 225.38 76.3199C225.035 75.3447 224.777 74.3407 224.61 73.3199C224.468 72.561 224.388 71.7918 224.37 71.0199C224.52 68.5199 224.56 66.0199 224.51 63.4699C224.51 62.9199 224.43 62.3099 224.39 61.6499C224.29 59.9799 224.21 58.2299 224.16 56.3999C224.097 54.8485 224.144 53.2947 224.3 51.7499C224.41 51.4042 224.596 51.0878 224.846 50.8246C225.095 50.5613 225.401 50.358 225.74 50.2299C226.45 50.0003 227.185 49.8592 227.93 49.8099L229.16 49.6499Z" fill="black"/>
<path d="M235.25 52.89C235.608 52.0054 236.182 51.2249 236.92 50.6199C237.611 49.9759 238.499 49.5847 239.44 49.51C240.31 49.51 240.96 50.0399 241.44 51.2099C241.98 52.7599 242.62 54.34 243.35 55.97C244.08 57.6 244.83 59.1899 245.6 60.7799C245.95 61.5399 246.3 62.28 246.65 63.01C247.737 65.1233 248.933 67.2966 250.24 69.5299C250.24 67.8499 250.24 66.16 250.24 64.45C250.24 62.74 250.08 60.7599 250.05 58.6799C250.012 56.8096 250.099 54.9387 250.31 53.0799C250.638 52.0538 251.305 51.1692 252.2 50.57C253.123 49.9604 254.135 49.4982 255.2 49.2C255.44 49.04 255.6 49.0699 255.68 49.2799C255.755 49.543 255.778 49.818 255.75 50.0899C255.75 50.4199 255.75 50.68 255.69 50.88C255.684 50.9164 255.684 50.9535 255.69 50.9899C255.183 54.7699 254.85 58.6466 254.69 62.6199C254.69 63.1499 254.62 63.68 254.59 64.2C254.54 65.92 254.59 67.7899 254.64 69.8099C254.69 71.8299 254.87 73.7299 255.08 75.4899C255.2 75.716 255.27 75.9655 255.283 76.2211C255.297 76.4767 255.255 76.7323 255.16 76.9699C254.77 78.0399 254.16 78.43 253.3 78.13C252.262 77.7044 251.333 77.0518 250.58 76.2199C249.653 75.2828 248.794 74.2802 248.01 73.2199C247.511 72.5836 247.053 71.9155 246.64 71.2199C245.64 69.2199 244.64 67.2199 243.52 65.2999C243.39 65.0899 243.26 64.8799 243.15 64.6799C241.977 62.7999 240.83 60.7999 239.71 58.6799C239.64 59.4899 239.58 60.2899 239.51 61.0799C239.44 62.0799 239.36 63.01 239.28 63.95C239.148 67.9241 239.214 71.9024 239.48 75.8699C239.672 76.4272 239.672 77.0327 239.48 77.5899C239.314 77.9347 239.04 78.2157 238.7 78.39C238.368 78.5927 238.012 78.7539 237.64 78.8699C237.16 78.6699 236.71 78.0199 236.28 76.9299C235.859 75.8003 235.525 74.6403 235.28 73.4599C235.061 72.6252 234.924 71.7712 234.87 70.91C234.98 68.61 235.04 66.3499 235.04 64.1099C234.97 62.3599 234.94 60.45 234.97 58.38C234.917 56.5454 235.011 54.7096 235.25 52.89Z" fill="black"/>
<path d="M266.82 71.48C267.18 71.48 267.38 71.54 267.41 71.67C267.415 71.7628 267.4 71.8557 267.365 71.942C267.331 72.0284 267.278 72.1062 267.21 72.17C266.848 72.5864 266.552 73.055 266.33 73.56C266.09 74.09 265.88 74.62 265.68 75.15C265.62 75.34 265.55 75.51 265.49 75.68C265.391 76.2038 265.35 76.7371 265.37 77.27C265.37 77.93 265.37 78.48 265.45 78.92C265.57 79.04 265.61 79.14 265.58 79.21C265.532 79.2914 265.458 79.3547 265.37 79.39C265.171 79.4611 264.961 79.4982 264.75 79.5H263.8C263.48 79.5 263.24 79.5 263.09 79.5C262.663 79.4191 262.27 79.2138 261.96 78.91C261.49 78.5364 261.061 78.114 260.68 77.65C260.32 77.2 260.16 76.87 260.21 76.65C260.399 76.0264 260.507 75.3811 260.53 74.73C260.48 74.1578 260.48 73.5822 260.53 73.01C260.55 72.4414 260.722 71.8886 261.03 71.41C261.855 71.095 262.745 70.9919 263.62 71.11C264.78 71.2 265.78 71.3 266.62 71.43L266.82 71.48Z" fill="black"/>
<path d="M8.58999 104.57C8.84999 104.57 9.02 104.57 9.08 104.71C9.11543 104.758 9.13927 104.814 9.14967 104.873C9.16008 104.932 9.15676 104.992 9.14 105.05C9.10848 105.195 9.06154 105.335 9 105.47C9.00565 105.513 9.00565 105.557 9 105.6C8.55606 107.063 8.26123 108.567 8.12 110.09C7.91 111.89 7.75 113.62 7.64 115.27C7.64 115.96 7.53 116.59 7.48 117.17C7.30061 120.912 7.34068 124.662 7.6 128.4C7.6941 128.586 7.74535 128.791 7.75 129H8.44C8.60319 129.01 8.76681 129.01 8.93 129C10.75 129 12.6967 128.91 14.77 128.73C15.5 128.66 16.19 128.61 16.84 128.57C17.0923 128.46 17.3647 128.403 17.64 128.403C17.9153 128.403 18.1877 128.46 18.44 128.57C18.8609 128.749 19.2392 129.015 19.55 129.35C19.899 129.685 20.2139 130.053 20.49 130.45C20.49 130.73 20.09 131.08 19.3 131.5C18.4825 131.931 17.6334 132.298 16.76 132.6C16.1186 132.859 15.4463 133.034 14.76 133.12C13.3477 133.045 11.9323 133.045 10.52 133.12H10.46C9.65 133.25 8.7 133.36 7.61 133.43C6.65775 133.519 5.69768 133.468 4.76 133.28C3.9783 132.745 3.36448 132 2.98999 131.13C2.59299 130.289 2.25875 129.42 1.98999 128.53C1.85999 128.22 1.84999 128.03 1.98999 127.97C2.12999 127.91 2.25999 127.97 2.51999 128.08C3.08202 128.314 3.67477 128.465 4.28 128.53C3.88294 127.657 3.57796 126.746 3.37 125.81C3.19755 125.115 3.09042 124.405 3.05 123.69C3.15 121.97 3.21 120.22 3.23 118.45C3.23 118.01 3.23 117.57 3.23 117.12C3.15 115.5 3.10999 113.65 3.12999 111.59C3.11481 109.81 3.26547 108.032 3.58 106.28C3.77196 105.856 4.0598 105.483 4.42079 105.19C4.78177 104.896 5.20602 104.691 5.66 104.59C6.62585 104.391 7.62151 104.384 8.58999 104.57Z" fill="black"/>
<path d="M27.05 109.65C26.2898 109.09 25.6617 108.369 25.21 107.54C24.7419 106.742 24.3147 105.921 23.93 105.08C23.7167 104.753 23.6767 104.563 23.81 104.51C24.0178 104.463 24.235 104.484 24.43 104.57C25.3204 104.778 26.2271 104.908 27.14 104.96C28.14 105.02 29.14 105.06 30.14 105.08H31.46C32.46 105.08 33.46 105.08 34.46 104.98L37.64 104.76C38.7 104.69 39.73 104.62 40.72 104.57C42.41 104.19 43.91 104.83 45.19 106.48C45.1 106.79 44.56 107.16 43.57 107.58C42.5357 108.008 41.4772 108.375 40.4 108.68C39.621 108.926 38.8209 109.1 38.01 109.2H36.84C36.03 109.2 35.28 109.2 34.59 109.2C33.7798 109.233 32.9719 109.309 32.17 109.43C31.88 111.53 31.64 113.64 31.44 115.78C32.1 115.83 32.75 115.9 33.44 115.97C34.8713 116.008 36.3036 115.965 37.73 115.84L39.43 115.74C39.6115 115.657 39.811 115.62 40.0102 115.634C40.2095 115.648 40.402 115.712 40.57 115.82C40.9118 116.055 41.2012 116.358 41.42 116.71C41.6698 117.053 41.8938 117.414 42.09 117.79C42.09 118.077 41.83 118.41 41.31 118.79C40.7842 119.178 40.2215 119.513 39.63 119.79C39.1788 120.047 38.6774 120.204 38.16 120.25C36.97 120.18 36.05 120.16 35.41 120.18C34.77 120.2 34.23 120.24 33.79 120.29L32.65 120.39C32.24 120.39 31.71 120.39 31.07 120.39C30.9524 122.654 30.9992 124.923 31.21 127.18C31.2922 127.342 31.3399 127.519 31.35 127.7C31.3465 127.857 31.2979 128.01 31.21 128.14L30.93 128.31C30.7749 128.388 30.6145 128.455 30.45 128.51L34.06 128.65C34.3 128.65 34.53 128.65 34.77 128.65C35.99 128.65 37.36 128.6 38.87 128.47C40.38 128.34 41.73 128.17 42.93 127.96C43.0711 127.845 43.2477 127.782 43.43 127.782C43.6122 127.782 43.7889 127.845 43.93 127.96C44.1583 128.111 44.3553 128.304 44.51 128.53C44.75 128.83 44.96 129.12 45.16 129.39L45.41 129.72C45.4619 129.977 45.4427 130.243 45.3546 130.489C45.2665 130.736 45.1128 130.954 44.91 131.12C44.4313 131.591 43.8726 131.974 43.26 132.25C42.7413 132.519 42.1795 132.695 41.6 132.77C40.25 132.77 38.89 132.77 37.52 132.87L36.6 132.93C35.43 133.06 34.05 133.17 32.47 133.26C31.0855 133.356 29.6949 133.309 28.32 133.12C27.3534 132.705 26.5344 132.008 25.97 131.12C25.3832 130.25 24.8809 129.326 24.47 128.36C24.33 128.09 24.29 127.93 24.37 127.86C24.4216 127.82 24.4821 127.792 24.5465 127.78C24.6109 127.768 24.6772 127.771 24.74 127.79C24.9208 127.819 25.0984 127.866 25.27 127.93C26.3286 128.148 27.4013 128.292 28.48 128.36C27.8359 127.641 27.361 126.787 27.09 125.86C26.7977 125.08 26.6192 124.261 26.56 123.43C26.5717 123.223 26.5717 123.016 26.56 122.81C26.56 122.29 26.65 121.67 26.7 120.94C26.75 120.21 26.79 119.56 26.82 118.94C26.8566 118.608 26.8566 118.272 26.82 117.94C26.2804 117.13 25.7895 116.288 25.35 115.42C25.17 115.13 25.15 114.95 25.28 114.89C25.4814 114.824 25.6986 114.824 25.9 114.89C26.17 114.89 26.43 114.99 26.68 115.06H26.78C26.78 114.06 26.78 113.06 26.84 112.11C26.8611 111.287 26.9312 110.465 27.05 109.65Z" fill="black"/>
<path d="M55.66 105C55.94 104.93 56.11 105 56.19 105.08C56.3967 105 56.5267 105.02 56.58 105.14C56.6257 105.317 56.6257 105.503 56.58 105.68C56.6397 107.011 56.8408 108.332 57.18 109.62C57.56 111.25 57.94 112.73 58.3 114.04C58.38 114.33 58.45 114.6 58.51 114.84C59.0167 116.42 59.6433 118.153 60.39 120.04C61.14 118.39 61.85 116.68 62.5 114.92C62.5372 114.859 62.5706 114.795 62.6 114.73C62.99 113.45 63.48 112 64.08 110.37C64.5697 108.97 65.2136 107.628 66 106.37C66.3319 106.081 66.7199 105.863 67.1397 105.73C67.5595 105.598 68.0022 105.554 68.44 105.6C69.4776 104.976 70.6594 104.631 71.87 104.6C72.13 104.53 72.3 104.6 72.36 104.71C72.4137 104.879 72.4137 105.061 72.36 105.23C72.3403 105.415 72.2966 105.596 72.23 105.77C72.2407 105.802 72.2407 105.837 72.23 105.87C71.9386 107.357 71.7648 108.865 71.71 110.38C71.64 111.97 71.62 113.56 71.63 115.15C71.63 116.06 71.63 116.96 71.63 117.84C71.68 120.55 71.81 123.32 72 126.16C72.09 127.52 72.17 128.84 72.24 130.16C72.4314 130.767 72.4031 131.422 72.16 132.01C71.9786 132.358 71.6866 132.636 71.33 132.8C70.9691 133.007 70.5775 133.156 70.17 133.24C69.5702 132.714 69.1475 132.015 68.96 131.24C68.5609 130.09 68.227 128.918 67.96 127.73C67.7446 126.873 67.5942 126 67.51 125.12C67.56 123.23 67.51 121.32 67.43 119.38C67.43 119.02 67.43 118.67 67.43 118.32C67.35 117.55 67.28 116.7 67.2 115.76L67 116C66.7 116.74 66.27 118.09 65.71 120C65.22 121.7 64.71 123.35 64.19 124.93C63.8878 126.028 63.4334 127.078 62.84 128.05C62.52 128.45 62.06 128.5 61.47 128.19C60.8351 127.842 60.2772 127.369 59.83 126.8C58.8464 125.632 57.9977 124.358 57.3 123C56.7758 121.881 56.3346 120.724 55.98 119.54C55.66 118.54 55.25 117.44 54.75 116.16C54.67 116.827 54.59 117.517 54.51 118.23C54.13 122.19 53.8833 126.233 53.77 130.36C53.77 130.59 53.77 130.83 53.77 131.06C53.9344 131.71 53.8636 132.397 53.57 133C53.3558 133.336 53.0458 133.601 52.68 133.76C52.3005 133.955 51.8971 134.1 51.48 134.19C50.88 133.574 50.4943 132.782 50.38 131.93C50.0688 130.686 49.8383 129.424 49.69 128.15C49.5588 127.239 49.492 126.32 49.49 125.4C49.77 123.13 49.97 120.86 50.1 118.56C50.1 118.45 50.1 118.34 50.1 118.23C50.1 117.72 50.1 117.18 50.1 116.59C50.1 115.05 50.17 113.45 50.25 111.77C50.3059 110.315 50.4562 108.865 50.7 107.43C50.8925 107.026 51.1643 106.664 51.4993 106.367C51.8342 106.07 52.2256 105.843 52.65 105.7C53.544 105.381 54.4691 105.156 55.41 105.03L55.66 105Z" fill="black"/>
<path d="M87.42 107.44C87.63 107.58 87.71 107.69 87.67 107.77C87.5746 107.876 87.442 107.94 87.3 107.95C87.11 107.95 86.89 108.02 86.64 108.05C86.3238 108.08 86.0098 108.13 85.7 108.2C85.4003 108.31 85.1175 108.461 84.86 108.65C83.954 109.321 83.2261 110.203 82.74 111.22C82.1786 112.347 81.7491 113.535 81.46 114.76C81.182 115.916 81.0013 117.094 80.92 118.28C80.8402 119.708 80.8905 121.141 81.07 122.56C81.2721 124.04 81.7004 125.48 82.34 126.83C83.36 128.923 84.8733 129.863 86.88 129.65C88.6062 129.494 90.2381 128.794 91.54 127.65C92.8631 126.475 93.8909 125.006 94.54 123.36C95.2425 121.626 95.6286 119.78 95.68 117.91C95.7589 116.054 95.4944 114.2 94.9 112.44C94.5821 111.551 94.1555 110.704 93.63 109.92C93.1859 109.349 92.6905 108.82 92.15 108.34C91.6502 107.848 91.0849 107.427 90.47 107.09C89.57 106.483 88.83 106.023 88.25 105.71C87.67 105.41 86.9 105.05 85.92 104.65C86.05 104.36 86.47 104.19 87.19 104.14C87.9422 104.08 88.6978 104.08 89.45 104.14C90.0337 104.18 90.6147 104.253 91.19 104.36C92.9331 104.914 94.5107 105.893 95.78 107.21C97.4416 108.966 98.6769 111.08 99.39 113.39C100.103 115.506 100.365 117.747 100.16 119.97C99.883 122.308 99.2065 124.581 98.16 126.69C97.135 128.735 95.6157 130.491 93.74 131.8C92.7085 132.512 91.5758 133.065 90.38 133.44C89.1086 133.848 87.7729 134.017 86.44 133.94C85.0248 133.848 83.6526 133.415 82.44 132.68C80.7648 131.651 79.3863 130.203 78.44 128.48C77.4612 126.719 76.7852 124.805 76.44 122.82C76.0725 120.843 75.9483 118.828 76.07 116.82C76.1416 115.091 76.4443 113.379 76.97 111.73C77.4606 109.985 78.5156 108.452 79.97 107.37C80.5656 106.872 81.242 106.48 81.97 106.21C82.7171 105.931 83.5136 105.808 84.31 105.85C84.907 105.887 85.4943 106.019 86.05 106.24C86.597 106.523 87.0671 106.935 87.42 107.44Z" fill="black"/>
<path d="M104.92 107.89C105.278 107.005 105.852 106.225 106.59 105.62C107.281 104.976 108.169 104.585 109.11 104.51C109.98 104.51 110.63 105.04 111.11 106.21C111.66 107.76 112.3 109.34 113.03 110.97C113.76 112.6 114.51 114.19 115.27 115.78L116.33 118.01C117.423 120.123 118.62 122.297 119.92 124.53C119.92 122.85 119.92 121.16 119.92 119.45C119.92 117.74 119.77 115.76 119.74 113.68C119.697 111.81 119.784 109.938 120 108.08C120.325 107.052 120.992 106.166 121.89 105.57C122.813 104.96 123.825 104.498 124.89 104.2C125.13 104.04 125.29 104.07 125.36 104.28C125.444 104.541 125.471 104.817 125.44 105.09C125.44 105.42 125.44 105.68 125.37 105.88V105.99C124.87 109.77 124.537 113.647 124.37 117.62C124.37 118.15 124.3 118.68 124.27 119.2C124.27 120.92 124.27 122.79 124.32 124.81C124.37 126.83 124.55 128.73 124.76 130.49C124.88 130.716 124.95 130.965 124.963 131.221C124.977 131.477 124.935 131.732 124.84 131.97C124.45 133.04 123.84 133.43 122.98 133.13C121.941 132.707 121.011 132.054 120.26 131.22C119.333 130.283 118.474 129.28 117.69 128.22C117.191 127.584 116.733 126.916 116.32 126.22C115.32 124.22 114.32 122.22 113.2 120.3L112.82 119.68C111.647 117.8 110.503 115.8 109.39 113.68C109.32 114.49 109.26 115.29 109.19 116.08C109.11 117.08 109.04 118.01 108.96 118.95C108.833 122.87 108.897 126.843 109.15 130.87C109.352 131.426 109.352 132.034 109.15 132.59C108.992 132.937 108.72 133.219 108.38 133.39C108.047 133.591 107.691 133.752 107.32 133.87C106.84 133.67 106.38 133.02 105.96 131.93C105.539 130.8 105.205 129.64 104.96 128.46C104.741 127.625 104.604 126.771 104.55 125.91C104.66 123.61 104.72 121.35 104.72 119.11C104.64 117.36 104.62 115.45 104.64 113.38C104.592 111.545 104.685 109.71 104.92 107.89Z" fill="black"/>
<path d="M149.73 110.68C149.92 110.97 149.94 111.12 149.79 111.12C149.521 111.094 149.259 111.015 149.02 110.89C148.66 110.72 148.26 110.53 147.83 110.29L146.68 109.65L146 109.28C144.684 108.677 143.221 108.472 141.79 108.69C140.509 108.91 139.301 109.438 138.27 110.23C137.264 111 136.401 111.941 135.72 113.01C134.611 114.772 133.889 116.748 133.6 118.81C133.244 121.031 133.478 123.308 134.28 125.41C134.862 126.92 135.914 128.203 137.28 129.07C137.906 129.463 138.615 129.706 139.351 129.779C140.086 129.851 140.829 129.753 141.52 129.49C142.738 129.009 143.784 128.173 144.52 127.09C145.227 125.986 145.757 124.778 146.09 123.51C146.096 123.427 146.123 123.348 146.17 123.28H146C145.236 123.409 144.464 123.485 143.69 123.51C142.909 123.56 142.126 123.482 141.37 123.28C140.539 122.723 139.854 121.976 139.37 121.1C138.848 120.238 138.371 119.35 137.94 118.44C137.78 118.193 137.75 118.033 137.85 117.96C137.982 117.88 138.14 117.855 138.29 117.89C138.477 117.913 138.661 117.953 138.84 118.01C140.479 118.445 142.151 118.74 143.84 118.89L144.76 119C145.406 119.036 146.054 119.036 146.7 119L148.88 118.89H149.72C149.774 118.835 149.84 118.794 149.913 118.772C149.987 118.749 150.065 118.745 150.14 118.76C150.313 118.801 150.478 118.869 150.63 118.96C150.81 119.111 150.968 119.286 151.1 119.48C151.29 119.74 151.45 120 151.61 120.27C151.736 120.478 151.846 120.696 151.94 120.92C152.01 121.11 151.86 121.4 151.48 121.78C151.081 122.177 150.646 122.535 150.18 122.85C149.805 123.131 149.376 123.332 148.92 123.44C149.01 123.737 149.074 124.042 149.11 124.35C149.231 125.581 149.095 126.823 148.711 127.999C148.327 129.174 147.704 130.258 146.88 131.18C146.025 132.237 144.936 133.083 143.7 133.65C141.844 134.383 139.785 134.411 137.91 133.73C135.854 133.031 134.028 131.782 132.63 130.12C130.981 128.142 129.868 125.773 129.4 123.24C128.964 120.907 128.92 118.517 129.27 116.17C129.525 114.375 130.076 112.635 130.9 111.02C131.716 109.38 132.828 107.905 134.18 106.67C135.506 105.453 137.126 104.601 138.88 104.2C140.368 103.875 141.917 103.975 143.35 104.49C146.184 105.671 148.464 107.883 149.73 110.68Z" fill="black"/>
<path d="M163.11 109.16H162.38C161.647 109.16 160.857 109.16 160.01 109.16C159.197 109.132 158.389 109.018 157.6 108.82C156.913 108.585 156.276 108.226 155.72 107.76C155.278 107.43 154.896 107.028 154.59 106.57C154.948 106.148 155.415 105.833 155.94 105.66C156.359 105.503 156.79 105.382 157.23 105.3L157.44 105.24C159.016 104.809 160.63 104.534 162.26 104.42C163.76 104.327 165.427 104.307 167.26 104.36C169.585 104.441 171.822 105.268 173.64 106.72C175.312 108.028 176.552 109.808 177.2 111.83C177.816 113.728 177.666 115.792 176.78 117.58C175.88 119.42 174.03 120.83 171.23 121.81C171.74 122.66 172.23 123.46 172.69 124.19C172.97 124.63 173.2 125.02 173.4 125.34C174.65 127.15 176.05 128.98 177.62 130.83L178.03 131.34C178.193 131.431 178.33 131.563 178.428 131.722C178.526 131.882 178.582 132.063 178.59 132.25C178.578 132.446 178.516 132.635 178.41 132.8C178.28 133.01 178.14 133.21 177.99 133.41L177.6 133.86C177.1 133.969 176.576 133.891 176.13 133.64C175.481 133.352 174.865 132.997 174.29 132.58C173.791 132.243 173.34 131.839 172.95 131.38C172.202 130.153 171.374 128.977 170.47 127.86C170.32 127.66 170.16 127.46 169.98 127.25C169.42 126.583 168.83 125.853 168.21 125.06C167.648 124.344 167.15 123.582 166.72 122.78C166.122 122.878 165.515 122.911 164.91 122.88C164.273 122.859 163.64 122.755 163.03 122.57C162.95 123.87 162.92 125.28 162.95 126.79C162.962 128.161 163.059 129.531 163.24 130.89C163.351 131.089 163.413 131.312 163.42 131.54C163.415 131.757 163.381 131.972 163.32 132.18C163.202 132.341 163.056 132.48 162.89 132.59C162.67 132.74 162.43 132.89 162.19 133.03L161.6 133.33C161.278 133.201 160.984 133.009 160.737 132.765C160.49 132.521 160.293 132.23 160.16 131.91C159.672 131.04 159.276 130.122 158.98 129.17C158.725 128.451 158.566 127.701 158.51 126.94C158.62 125.63 158.69 124.29 158.73 122.94C158.73 122.467 158.75 121.997 158.79 121.53C158.79 120.103 158.79 118.523 158.79 116.79C158.811 115.258 158.951 113.73 159.21 112.22C159.531 111.463 160.066 110.816 160.75 110.36C161.485 109.865 162.277 109.462 163.11 109.16ZM163.44 119.31L164.71 118.98C165.71 118.75 166.8 118.45 167.97 118.09C169.078 117.761 170.144 117.309 171.15 116.74C172.012 116.303 172.713 115.602 173.15 114.74C173.318 114.338 173.405 113.906 173.405 113.47C173.405 113.034 173.318 112.602 173.15 112.2C172.767 111.298 172.122 110.532 171.3 110C170.436 109.406 169.408 109.098 168.36 109.12H166.48H164.63C164.65 109.346 164.65 109.574 164.63 109.8C164.63 110.04 164.63 110.22 164.63 110.35C164.63 110.48 164.63 110.47 164.63 110.48C164.283 112.72 163.977 115.007 163.71 117.34C163.59 118.06 163.52 118.69 163.44 119.31Z" fill="black"/>
<path d="M195.08 103.69C195.22 103.53 195.38 103.54 195.57 103.69C195.785 103.907 195.964 104.157 196.1 104.43C196.274 104.753 196.428 105.087 196.56 105.43C196.69 105.75 196.78 106 196.84 106.17C198.206 110.846 199.209 115.62 199.84 120.45C199.84 120.6 199.9 120.77 199.94 120.94C200.12 121.94 200.33 122.94 200.57 124.08L201.04 124.2C201.344 124.333 201.621 124.52 201.86 124.75C202.132 125.009 202.386 125.286 202.62 125.58C202.79 125.794 202.947 126.017 203.09 126.25C203.13 126.37 203.05 126.51 202.85 126.67C202.634 126.843 202.403 126.997 202.16 127.13C201.89 127.27 201.67 127.38 201.48 127.46L201.37 127.52C201.7 128.96 202.125 130.376 202.64 131.76C202.782 131.931 202.887 132.129 202.949 132.343C203.011 132.556 203.028 132.78 203 133C202.935 133.143 202.844 133.272 202.73 133.38L202.23 133.88L201.75 134.29C201.715 134.326 201.675 134.357 201.63 134.38C201.11 134.49 200.55 134.22 199.95 133.58C199.307 132.886 198.75 132.117 198.29 131.29C197.851 130.542 197.473 129.759 197.16 128.95H197.08C195.721 128.868 194.357 128.885 193 129C192.49 129.09 191.76 129.21 190.81 129.35C189.86 129.49 188.92 129.61 187.98 129.69C187.28 129.782 186.57 129.782 185.87 129.69L185.6 130.16C185.47 130.39 185.33 130.62 185.19 130.84C185.003 131.595 184.553 132.258 183.92 132.71C183.497 132.988 183.006 133.144 182.5 133.16C181.97 133.22 181.433 133.197 180.91 133.09C180.761 132.346 180.817 131.575 181.07 130.86C181.33 129.66 181.65 128.43 182.07 127.17C181.432 126.557 180.827 125.909 180.26 125.23C180.02 125.06 179.94 124.93 180 124.83C180.124 124.711 180.288 124.643 180.46 124.64C180.705 124.608 180.953 124.591 181.2 124.59H181.78H181.86C182.2 124.59 182.55 124.59 182.91 124.59C183.22 123.795 183.598 123.029 184.04 122.3C184.573 121.413 185.025 120.479 185.39 119.51C185.68 118.65 186.1 117.32 186.64 115.51C187.18 113.7 187.64 112.21 188.17 110.62C188.5 109.5 188.891 108.398 189.34 107.32C189.735 106.519 190.327 105.83 191.06 105.32C191.66 104.954 192.31 104.678 192.99 104.5C193.71 104.295 194.41 104.024 195.08 103.69ZM188.24 124.69C189.24 124.69 190.16 124.69 191.11 124.69C192.34 124.69 193.59 124.58 194.88 124.47L196.29 124.35C196.22 124.05 196.15 123.75 196.07 123.44C195.94 122.81 195.81 122.2 195.68 121.6L195.08 119.31C194.413 116.923 193.813 114.543 193.28 112.17C192.273 115.077 191.153 117.913 189.92 120.68C189.707 121.16 189.507 121.65 189.32 122.15L188.81 123.4C188.6 123.81 188.41 124.23 188.24 124.65V124.69Z" fill="black"/>
<path d="M224.32 110.49C224.32 110.68 224.32 110.78 224.16 110.79C224.004 110.788 223.853 110.735 223.73 110.64L223.24 110.33C223.146 110.248 223.042 110.177 222.93 110.12C221.843 109.502 220.648 109.095 219.41 108.92C218.268 108.728 217.102 108.728 215.96 108.92C214.88 109.16 214.31 109.51 214.26 109.97C214.262 110.265 214.329 110.557 214.457 110.823C214.585 111.089 214.771 111.324 215 111.51C215.591 112.115 216.223 112.68 216.89 113.2C218.44 114.46 219.89 115.8 221.35 117.2C222.766 118.607 224.029 120.159 225.12 121.83C225.889 123.025 226.513 124.308 226.98 125.65C227.435 126.933 227.528 128.317 227.25 129.65C227.087 130.348 226.785 131.006 226.363 131.585C225.94 132.164 225.405 132.652 224.79 133.02C223.437 133.789 221.915 134.211 220.36 134.25C218.615 134.316 216.871 134.089 215.2 133.58C213.509 133.095 211.915 132.321 210.49 131.29C209.895 130.871 209.34 130.399 208.83 129.88C208.314 129.376 207.861 128.812 207.48 128.2C206.834 127.075 206.528 125.786 206.6 124.49C206.693 123.638 207.07 122.842 207.67 122.23C208.242 121.606 208.946 121.118 209.73 120.8C209.753 120.962 209.753 121.128 209.73 121.29C209.73 121.57 209.73 121.93 209.67 122.29C209.61 122.65 209.62 123.21 209.61 123.63C209.587 123.94 209.587 124.25 209.61 124.56C209.733 125.369 210.079 126.127 210.61 126.75C211.615 127.864 212.921 128.663 214.37 129.05C215.757 129.438 217.182 129.673 218.62 129.75C219.371 129.832 220.13 129.798 220.87 129.65C221.548 129.526 222.162 129.173 222.61 128.65C222.825 128.342 222.967 127.989 223.024 127.618C223.081 127.247 223.053 126.868 222.94 126.51C222.53 125.224 221.871 124.031 221 123C219.96 121.75 218.823 120.583 217.6 119.51C216.37 118.43 215.29 117.51 214.37 116.82C212.933 115.773 211.667 114.507 210.62 113.07C209.33 111.07 208.95 109.33 209.48 107.74C209.796 106.916 210.308 106.183 210.972 105.602C211.636 105.022 212.432 104.612 213.29 104.41C215.219 104.035 217.214 104.204 219.053 104.898C220.891 105.592 222.5 106.784 223.7 108.34C223.91 108.676 224.088 109.03 224.23 109.4C224.349 109.75 224.38 110.125 224.32 110.49Z" fill="black"/>
<path d="M247.21 110.49C247.21 110.68 247.21 110.78 247.05 110.79C246.894 110.788 246.743 110.735 246.62 110.64L246.13 110.33C246.036 110.247 245.932 110.177 245.82 110.12C244.733 109.502 243.538 109.095 242.3 108.92C241.158 108.728 239.992 108.728 238.85 108.92C237.77 109.16 237.2 109.51 237.15 109.97C237.152 110.265 237.219 110.557 237.347 110.823C237.475 111.089 237.661 111.324 237.89 111.51C238.482 112.118 239.117 112.682 239.79 113.2C241.33 114.46 242.79 115.8 244.24 117.2C245.656 118.607 246.919 120.159 248.01 121.83C248.779 123.025 249.403 124.308 249.87 125.65C250.325 126.933 250.418 128.317 250.14 129.65C249.977 130.348 249.675 131.006 249.253 131.585C248.83 132.164 248.295 132.652 247.68 133.02C246.327 133.789 244.805 134.211 243.25 134.25C241.505 134.316 239.761 134.089 238.09 133.58C236.399 133.095 234.805 132.321 233.38 131.29C232.785 130.871 232.23 130.399 231.72 129.88C231.204 129.376 230.751 128.812 230.37 128.2C229.724 127.075 229.418 125.786 229.49 124.49C229.583 123.638 229.96 122.842 230.56 122.23C231.132 121.606 231.836 121.117 232.62 120.8C232.643 120.962 232.643 121.127 232.62 121.29C232.62 121.57 232.62 121.93 232.56 122.29C232.5 122.65 232.51 123.21 232.5 123.63C232.477 123.939 232.477 124.25 232.5 124.56C232.623 125.369 232.969 126.127 233.5 126.75C234.505 127.864 235.811 128.663 237.26 129.05C238.647 129.438 240.072 129.673 241.51 129.75C242.261 129.832 243.02 129.798 243.76 129.65C244.438 129.526 245.052 129.173 245.5 128.65C245.715 128.342 245.857 127.989 245.914 127.618C245.971 127.247 245.943 126.868 245.83 126.51C245.397 125.175 244.696 123.944 243.77 122.89C242.73 121.639 241.593 120.473 240.37 119.4C239.14 118.32 238.06 117.4 237.14 116.71C235.703 115.663 234.437 114.397 233.39 112.96C232.1 110.96 231.72 109.22 232.25 107.63C232.566 106.806 233.078 106.072 233.742 105.492C234.406 104.912 235.202 104.502 236.06 104.3C237.989 103.925 239.984 104.093 241.823 104.788C243.661 105.482 245.27 106.673 246.47 108.23C246.68 108.565 246.858 108.92 247 109.29C247.179 109.663 247.252 110.078 247.21 110.49Z" fill="black"/>
</svg>
