<svg width="655" height="196" viewBox="0 0 655 196" fill="none" xmlns="http://www.w3.org/2000/svg">
<path d="M36.4 175.71H51.78C51.61 175.94 51.45 176.16 51.27 176.37C49.4784 178.446 47.1707 180.012 44.58 180.91C41.4708 181.997 38.193 182.522 34.9 182.46C31.5224 182.544 28.1664 181.899 25.06 180.57C22.3971 179.402 20.1663 177.43 18.68 174.93C17.1155 172.126 16.3446 168.949 16.45 165.74C16.3471 162.612 17.0569 159.512 18.51 156.74C19.855 154.333 21.9126 152.401 24.4 151.21C27.2526 149.894 30.3694 149.251 33.51 149.33C36.1452 149.295 38.7699 149.669 41.29 150.44C43.4066 151.063 45.3597 152.146 47.01 153.61C48.4497 154.918 49.4898 156.606 50.01 158.48H65.69C64.9216 154.258 63.0792 150.304 60.34 147C57.3784 143.527 53.5978 140.846 49.34 139.2C44.2876 137.237 38.8994 136.282 33.48 136.39C27.7085 136.291 21.987 137.476 16.73 139.86C11.9487 142.04 7.90445 145.563 5.09 150C2.32491 154.799 0.869484 160.241 0.869484 165.78C0.869484 171.319 2.32491 176.761 5.09 181.56C7.84982 185.964 11.8221 189.478 16.53 191.68C21.5706 194.045 27.083 195.231 32.65 195.15C37.92 195.308 43.1426 194.113 47.82 191.68C50.3468 190.315 52.6172 188.522 54.53 186.38L55.27 193.91H66.27V164.81H36.4V175.71Z" fill="black"/>
<path d="M91.82 137.61H76.26V193.86H91.82V137.61Z" fill="black"/>
<path d="M150.4 176.23L123.17 137.61H103.04V193.86H118.15V154.37L145.9 193.86H165.47V137.61H150.4V176.23Z" fill="black"/>
<path d="M173.35 132.66L183.47 146.84H197.65L188.24 132.66H173.35Z" fill="black"/>
<path d="M272.2 176.23L244.97 137.61H224.83V193.86H239.95V154.37L267.7 193.86H287.27V137.61H272.2V176.23Z" fill="black"/>
<path d="M295.15 132.66L305.27 146.84H319.45L310.03 132.66H295.15Z" fill="black"/>
<path d="M401 157C401.077 153.408 400.127 149.869 398.26 146.8C396.361 143.812 393.624 141.45 390.39 140.01C386.565 138.329 382.417 137.51 378.24 137.61H346.63V193.86H362.2V176.39H378.2C382.377 176.49 386.525 175.671 390.35 173.99C393.587 172.554 396.325 170.191 398.22 167.2C400.103 164.136 401.068 160.596 401 157ZM384.35 160.73C383.704 161.787 382.747 162.619 381.61 163.11C380.263 163.692 378.807 163.975 377.34 163.94H362.2V150.06H377.31C378.778 150.026 380.236 150.317 381.58 150.91C382.717 151.412 383.673 152.249 384.32 153.31C384.937 154.449 385.26 155.724 385.26 157.02C385.26 158.316 384.937 159.591 384.32 160.73H384.35Z" fill="black"/>
<path d="M422.46 137.61L396.85 193.86H413.46L418.14 183H447.2L451.9 193.83H468.47L442.9 137.61H422.46ZM423.54 170.54L432.66 149.45L441.79 170.54H423.54Z" fill="black"/>
<path d="M518.23 140C514.405 138.317 510.257 137.498 506.08 137.6H474.51V193.85H490.07V176.39H506.07C510.247 176.492 514.395 175.673 518.22 173.99C521.458 172.552 524.199 170.19 526.1 167.2C527.888 164.098 528.83 160.581 528.83 157C528.83 153.42 527.888 149.902 526.1 146.8C524.203 143.808 521.465 141.443 518.23 140ZM512.23 160.72C511.584 161.777 510.627 162.609 509.49 163.1C508.14 163.682 506.68 163.965 505.21 163.93H490.07V150.06H505.18C506.652 150.027 508.113 150.317 509.46 150.91C510.595 151.415 511.55 152.251 512.2 153.31C512.811 154.451 513.131 155.726 513.131 157.02C513.131 158.315 512.811 159.589 512.2 160.73L512.23 160.72Z" fill="black"/>
<path d="M552.67 171.4H584.16V160.08H552.67L551.07 150.21H586.33V137.61H534.39L538.67 165.74L534.39 193.86H586.71V181.26H551.07L552.67 171.4Z" fill="black"/>
<path d="M635.12 193.86H653.12L637 172.77C638.375 172.427 639.714 171.955 641 171.36C644.057 170.013 646.671 167.829 648.54 165.06C650.349 162.274 651.282 159.011 651.22 155.69C651.28 152.338 650.348 149.043 648.54 146.22C646.686 143.424 644.069 141.217 641 139.86C637.466 138.299 633.633 137.531 629.77 137.61H596.34V193.86H611.91V173.61H620L635.12 193.86ZM611.91 149.16H627.62C629.071 149.124 630.514 149.387 631.86 149.93C632.962 150.388 633.902 151.165 634.56 152.16C635.162 153.228 635.478 154.434 635.478 155.66C635.478 156.886 635.162 158.092 634.56 159.16C633.899 160.166 632.952 160.95 631.84 161.41C630.499 161.946 629.064 162.205 627.62 162.17H611.91V149.16Z" fill="black"/>
<path d="M32.61 119.92C26.9676 119.994 21.3816 118.79 16.27 116.4C11.4815 114.151 7.44086 110.572 4.63 106.09C1.70471 101.275 0.219497 95.7226 0.350002 90.09C0.20276 84.4216 1.70343 78.8323 4.67 74C7.55104 69.5042 11.6646 65.9321 16.52 63.71C21.8589 61.3019 27.664 60.1033 33.52 60.2C39.0041 60.1012 44.4552 61.0691 49.57 63.05C53.8886 64.7393 57.7224 67.4703 60.73 71C63.5317 74.3808 65.4217 78.4223 66.22 82.74L66.33 83.33H49.67L49.57 82.97C49.0655 81.1784 48.0593 79.5685 46.67 78.33C45.0703 76.9188 43.1836 75.8714 41.14 75.26C38.6663 74.5145 36.0934 74.1503 33.51 74.18C30.4467 74.1014 27.406 74.7239 24.62 76C22.2449 77.1542 20.2827 79.0117 19 81.32C17.59 84.0118 16.901 87.0228 17 90.06C16.8844 93.1757 17.6135 96.2647 19.11 99C20.55 101.406 22.6978 103.31 25.26 104.45C28.3062 105.741 31.5924 106.368 34.9 106.29C38.1315 106.347 41.3476 105.832 44.4 104.77C46.8431 103.925 49.0292 102.469 50.75 100.54H35.9V88.54H66.71V118.64H54.77L54.1 111.77C52.3082 113.586 50.2598 115.129 48.02 116.35C43.2692 118.828 37.9663 120.056 32.61 119.92ZM33.48 61.2C27.7822 61.1093 22.1346 62.2771 16.94 64.62C12.2567 66.7608 8.28868 70.2046 5.51001 74.54C2.65458 79.2034 1.20979 84.5936 1.35 90.06C1.2169 95.5139 2.64646 100.892 5.47 105.56C8.18767 109.877 12.0845 113.327 16.7 115.5C21.6786 117.822 27.1169 118.991 32.61 118.92C37.7943 119.069 42.9316 117.899 47.54 115.52C50.0125 114.177 52.235 112.418 54.11 110.32L54.87 109.46L55.68 117.68H65.68V89.58H36.9V99.58H52.76L52.18 100.38C52.01 100.61 51.84 100.84 51.65 101.06C49.8014 103.202 47.4217 104.819 44.75 105.75C41.5853 106.852 38.2507 107.387 34.9 107.33C31.4508 107.41 28.0243 106.752 24.85 105.4C22.0988 104.178 19.7933 102.135 18.25 99.55C16.6416 96.6701 15.8465 93.407 15.95 90.11C15.8534 86.9012 16.587 83.7219 18.08 80.88C19.4769 78.3891 21.6067 76.3885 24.18 75.15C27.102 73.8031 30.2935 73.1429 33.51 73.22C36.1989 73.1879 38.8768 73.569 41.45 74.35C43.6309 75.0035 45.6439 76.1226 47.35 77.63C48.7738 78.9113 49.833 80.5467 50.42 82.37H65.11C64.3147 78.4246 62.5596 74.7359 60 71.63C57.0659 68.233 53.3391 65.6123 49.15 64C44.1573 62.0606 38.8354 61.1096 33.48 61.2Z" fill="black"/>
<path d="M92.32 118.68H75.76V61.4299H92.32V118.68ZM76.76 117.68H91.32V62.4299H76.76V117.68Z" fill="black"/>
<path d="M166 118.68H145.64L118.64 80.2699V118.68H102.54V61.4299H123.43L149.9 98.9999V61.4299H166V118.68ZM146.19 117.68H165V62.4299H150.9V102.13L122.9 62.4299H103.54V117.68H117.65V77.1099L146.19 117.68Z" fill="black"/>
<path d="M198.58 71.66H183.21L172.38 56.48H188.5L198.58 71.66ZM183.73 70.66H196.73L188 57.48H174.32L183.73 70.66Z" fill="black"/>
<path d="M287.77 118.68H267.44L240.44 80.2699V118.68H224.33V61.4299H245.23L271.7 98.9999V61.4299H287.77V118.68ZM267.96 117.68H286.77V62.4299H272.7V102.13L244.7 62.4299H225.33V117.68H239.45V77.1099L267.96 117.68Z" fill="black"/>
<path d="M320.38 71.66H305L294.17 56.48H310.3L320.38 71.66ZM305.53 70.66H318.53L309.79 57.48H296.12L305.53 70.66Z" fill="black"/>
<path d="M362.69 118.68H346.13V61.43H378.21C382.459 61.3368 386.678 62.1729 390.57 63.88C393.898 65.3652 396.712 67.8005 398.66 70.88C400.501 74.0604 401.47 77.6702 401.47 81.345C401.47 85.0198 400.501 88.6296 398.66 91.81C396.71 94.888 393.896 97.3228 390.57 98.81C386.679 100.523 382.46 101.359 378.21 101.26H362.69V118.68ZM347.13 117.68H361.69V100.21H378.21C382.314 100.306 386.389 99.5042 390.15 97.86C393.291 96.4521 395.953 94.1584 397.81 91.26C399.553 88.239 400.471 84.8127 400.471 81.325C400.471 77.8373 399.553 74.4109 397.81 71.39C395.956 68.4889 393.293 66.1944 390.15 64.79C386.39 63.1424 382.314 62.3369 378.21 62.43H347.13V117.68ZM377.31 88.76H361.69V73.88H377.31C378.852 73.8435 380.382 74.1509 381.79 74.78C383.03 75.3183 384.077 76.2218 384.79 77.37C385.453 78.5884 385.8 79.9531 385.8 81.34C385.8 82.7268 385.453 84.0916 384.79 85.31C384.079 86.4578 383.031 87.3587 381.79 87.89C380.377 88.4991 378.849 88.7959 377.31 88.76ZM362.69 87.76H377.31C378.704 87.7967 380.089 87.5306 381.37 86.98C382.416 86.5271 383.296 85.7622 383.89 84.79C384.495 83.7361 384.797 82.5349 384.76 81.32C384.793 80.1182 384.492 78.9309 383.89 77.89C383.291 76.917 382.413 76.1469 381.37 75.68C380.092 75.1186 378.706 74.8454 377.31 74.88H362.69V87.76Z" fill="black"/>
<path d="M469.25 118.68H451.57L446.87 107.85H418.47L413.79 118.68H396.07L422.14 61.4299H443.22L469.25 118.68ZM452.25 117.68H467.72L442.57 62.4299H422.78L397.62 117.68H413.13L417.81 106.85H447.53L452.25 117.68ZM442.58 95.3599H422.78L432.66 72.5099L442.58 95.3599ZM424.33 94.3599H441L432.66 74.9999L424.33 94.3599Z" fill="black"/>
<path d="M490.57 118.68H474V61.43H506.07C510.319 61.3358 514.538 62.172 518.43 63.88C521.758 65.3652 524.572 67.8005 526.52 70.88C528.361 74.0604 529.33 77.6702 529.33 81.345C529.33 85.0198 528.361 88.6296 526.52 91.81C524.57 94.888 521.756 97.3228 518.43 98.81C514.539 100.523 510.32 101.359 506.07 101.26H490.57V118.68ZM475.01 117.68H489.57V100.21H506.08C510.177 100.304 514.245 99.5023 518 97.86C521.143 96.4551 523.806 94.1607 525.66 91.26C527.403 88.2391 528.321 84.8127 528.321 81.325C528.321 77.8373 527.403 74.411 525.66 71.39C523.812 68.4842 521.147 66.1884 518 64.79C514.24 63.1414 510.165 62.3359 506.06 62.43H475L475.01 117.68ZM505.18 88.76H489.57V73.88H505.18C506.725 73.8427 508.259 74.1501 509.67 74.78C510.911 75.3167 511.958 76.2206 512.67 77.37C513.333 78.5884 513.68 79.9532 513.68 81.34C513.68 82.7269 513.333 84.0917 512.67 85.31C511.961 86.46 510.913 87.3615 509.67 87.89C508.254 88.5014 506.722 88.7983 505.18 88.76ZM490.57 87.76H505.18C506.577 87.7956 507.965 87.5296 509.25 86.98C510.293 86.5265 511.169 85.7615 511.76 84.79C512.365 83.7361 512.667 82.5349 512.63 81.32C512.663 80.1182 512.362 78.9309 511.76 77.89C511.166 76.9125 510.287 76.141 509.24 75.68C507.962 75.1176 506.576 74.8445 505.18 74.88H490.57V87.76Z" fill="black"/>
<path d="M587.21 118.68H533.81L538.16 90.0599L533.81 61.4299H586.81V74.9999H551.66L553.1 83.8699H584.66V96.2199H553.1L551.66 105.08H587.21V118.68ZM534.98 117.68H586.21V106.08H550.48L552.25 95.2199H583.66V84.8999H552.25L550.48 73.9999H585.83V62.4299H535L539.19 90.0599V90.1299L534.98 117.68Z" fill="black"/>
<path d="M654.17 118.68H634.87L619.78 98.43H612.41V118.68H595.84V61.43H629.76C633.695 61.3578 637.599 62.1426 641.2 63.73C644.349 65.1295 647.034 67.3983 648.94 70.27C650.806 73.1676 651.77 76.554 651.71 80C651.772 83.4212 650.807 86.7824 648.94 89.65C647.016 92.4911 644.335 94.736 641.2 96.13C640.112 96.6255 638.989 97.04 637.84 97.37L654.17 118.68ZM635.37 117.68H652.14L636.14 96.79L636.88 96.6C638.223 96.2644 639.531 95.8058 640.79 95.23C643.758 93.9167 646.298 91.7962 648.12 89.11C649.871 86.4023 650.777 83.2343 650.72 80.01C650.777 76.753 649.868 73.552 648.11 70.81C646.306 68.0994 643.767 65.9592 640.79 64.64C637.328 63.1115 633.574 62.3573 629.79 62.43H596.84V117.68H611.41V97.43H620.28L635.37 117.68ZM627.62 87H611.41V73H627.62C629.139 72.9681 630.65 73.2436 632.06 73.81C633.257 74.2992 634.281 75.1349 635 76.21C635.661 77.3618 636.01 78.6668 636.01 79.995C636.01 81.3232 635.661 82.6282 635 83.78C634.276 84.8841 633.228 85.7366 632 86.22C630.608 86.774 629.118 87.0393 627.62 87ZM612.41 86H627.62C628.988 86.0307 630.348 85.7859 631.62 85.28C632.642 84.8653 633.511 84.146 634.11 83.22C634.674 82.2296 634.97 81.1096 634.97 79.97C634.97 78.8304 634.674 77.7104 634.11 76.72C633.504 75.8227 632.644 75.1264 631.64 74.72C630.369 74.2107 629.009 73.9624 627.64 73.99H612.41V86Z" fill="black"/>
<g opacity="0.5">
<path d="M32.61 45.25C27.0063 45.323 21.4584 44.1301 16.38 41.76C11.6333 39.5298 7.62765 35.9823 4.83999 31.54C1.93889 26.753 0.467686 21.236 0.599997 15.64C0.456555 10.031 1.9433 4.5009 4.88 -0.279993C7.72958 -4.74325 11.8106 -8.2859 16.63 -10.48C21.9181 -12.8822 27.6724 -14.0843 33.48 -14C38.9467 -14.1071 44.3817 -13.1458 49.48 -11.17C53.7744 -9.5007 57.5906 -6.79746 60.59 -3.29999C63.3632 0.0585442 65.2262 4.07378 66 8.36001L66.06 8.65001H49.86L49.81 8.47001C49.2811 6.63121 48.2407 4.98048 46.81 3.71001C45.1945 2.27982 43.287 1.21856 41.22 0.600007C38.7221 -0.162079 36.1213 -0.533133 33.51 -0.499992C30.408 -0.579283 27.3292 0.0535927 24.51 1.35001C22.0704 2.52207 20.052 4.41832 18.73 6.78001C17.3109 9.51164 16.622 12.5637 16.73 15.64C16.6306 18.8034 17.3909 21.9345 18.93 24.7C20.3911 27.1516 22.579 29.0878 25.19 30.24C28.2659 31.5518 31.587 32.1895 34.93 32.11C38.1927 32.1699 41.4401 31.6485 44.52 30.57C47.0714 29.6902 49.3448 28.1515 51.11 26.11L51.31 25.86H36.15V14.41H66.46V44H55L54.29 36.81C52.4374 38.7846 50.28 40.449 47.9 41.74C43.1832 44.1869 37.9218 45.3947 32.61 45.25ZM33.48 -13.47C27.7457 -13.5508 22.0641 -12.366 16.84 -9.99999C12.1112 -7.84651 8.10431 -4.37429 5.3 7.62939e-06C2.41793 4.70157 0.959167 10.1372 1.1 15.65C0.964627 21.1505 2.40827 26.5746 5.26 31.28C8.00753 35.6278 11.9426 39.0979 16.6 41.28C21.6072 43.6141 27.076 44.7899 32.6 44.72C37.8108 44.8637 42.9726 43.6799 47.6 41.28C50.0996 39.9261 52.3461 38.1499 54.24 36.03L54.62 35.6L55.39 43.48H66V14.91H36.65V25.36H52.27L51.98 25.76C51.81 25.99 51.64 26.21 51.46 26.43C49.6398 28.5397 47.2937 30.1302 44.66 31.04C41.5255 32.138 38.2207 32.6697 34.9 32.61C31.4682 32.698 28.0577 32.0466 24.9 30.7C22.2209 29.5074 19.9753 27.5168 18.47 25C16.8817 22.1605 16.097 18.9419 16.2 15.69C16.0995 12.5271 16.8195 9.39208 18.29 6.59001C19.6638 4.1388 21.7586 2.16969 24.29 0.950007C27.1745 -0.394456 30.3282 -1.06146 33.51 -0.999992C36.1719 -1.03124 38.8228 -0.653506 41.37 0.120008C43.5165 0.761161 45.4986 1.85968 47.18 3.34001C48.6185 4.63515 49.6765 6.29818 50.24 8.15001H65.42C64.6194 4.06746 62.8074 0.250978 60.15 -2.94999C57.208 -6.38869 53.4596 -9.04454 49.24 -10.68C44.2169 -12.6216 38.8644 -13.5691 33.48 -13.47Z" fill="black"/>
<path d="M92.07 44H76V-12.74H92.06L92.07 44ZM76.51 43.5H91.57V-12.24H76.51V43.5Z" fill="black"/>
<path d="M165.72 44H145.72L118.4 5.06001V44H102.79V-12.74H123.3L150.15 25.34V-12.74H165.72V44ZM146 43.51H165.19V-12.24H150.65V26.92L123 -12.24H103.29V43.51H117.9V3.51001L146 43.51Z" fill="black"/>
<path d="M287.52 44H267.57L240.2 5.06001V44H224.58V-12.74H245.1L272 25.34V-12.74H287.57L287.52 44ZM267.83 43.5H287V-12.24H272.45V26.92L244.84 -12.24H225.08V43.51H239.7V3.51001L267.83 43.5Z" fill="black"/>
<path d="M362.44 44H346.38V-12.7399H378.21C382.422 -12.836 386.604 -12.0065 390.46 -10.31C393.747 -8.85536 396.53 -6.46175 398.46 -3.42995C400.344 -0.319163 401.301 3.26431 401.22 6.90005C401.296 10.5379 400.332 14.1218 398.44 17.23C396.51 20.2648 393.727 22.6618 390.44 24.1201C386.581 25.8085 382.401 26.6344 378.19 26.5401H362.44V44ZM346.88 43.5H361.94V26H378.21C382.336 26.0914 386.431 25.2791 390.21 23.6201C393.4 22.2251 396.109 19.9229 398 17C399.835 13.9668 400.772 10.4747 400.7 6.93005C400.776 3.37549 399.839 -0.12736 398 -3.16995C396.122 -6.11378 393.42 -8.44032 390.23 -9.85995C386.451 -11.5181 382.356 -12.3304 378.23 -12.2399H346.88V43.5ZM377.31 14.08H361.94V-0.289949H377.31C378.816 -0.321476 380.311 -0.0245943 381.69 0.58005C382.87 1.10381 383.861 1.97625 384.53 3.08005C385.21 4.23654 385.556 5.55878 385.53 6.90005C385.56 8.2544 385.214 9.59051 384.53 10.76C383.86 11.8581 382.868 12.7238 381.69 13.24C380.307 13.833 378.814 14.1228 377.31 14.09V14.08ZM362.44 13.58H377.31C378.741 13.615 380.163 13.3421 381.48 12.7801C382.569 12.3018 383.487 11.503 384.11 10.49C384.731 9.39399 385.042 8.1495 385.01 6.89005C385.039 5.64371 384.727 4.41308 384.11 3.33005C383.492 2.30307 382.574 1.48997 381.48 1.00005C380.168 0.419037 378.744 0.13559 377.31 0.170051H362.44V13.58Z" fill="black"/>
<path d="M468.86 44H451.73L447 33.18H418.31L413.62 44H396.46L422.3 -12.74H443.06L443.12 -12.59L468.86 44ZM452.06 43.5H468.06L442.73 -12.24H422.62L397.23 43.51H413.29L418 32.68H447.39L452.06 43.5ZM442.17 20.68H423.17L432.67 -1.31999L442.17 20.68ZM423.92 20.18H441.41L432.66 9.53674e-06L423.92 20.18Z" fill="black"/>
<path d="M490.32 44.0001H474.26V-12.7399H506.08C510.295 -12.8352 514.48 -12.0058 518.34 -10.3099C521.623 -8.84979 524.405 -6.45743 526.34 -3.42995C528.216 -0.316152 529.169 3.26589 529.09 6.90005C529.165 10.5364 528.204 14.119 526.32 17.2301C524.388 20.2624 521.605 22.6587 518.32 24.1201C514.458 25.8081 510.274 26.6339 506.06 26.5401H490.32V44.0001ZM474.76 43.5001H489.82V26.0001H506.08C510.206 26.0898 514.301 25.2776 518.08 23.6201C521.276 22.2269 523.992 19.9247 525.89 17.0001C527.73 13.9688 528.667 10.4753 528.59 6.93005C528.665 3.38503 527.728 -0.107987 525.89 -3.13995C524.016 -6.08306 521.317 -8.40968 518.13 -9.82995C514.351 -11.4875 510.256 -12.2997 506.13 -12.2099H474.76V43.5001ZM505.18 14.0801H489.82V-0.289947H505.18C506.686 -0.321473 508.181 -0.0245914 509.56 0.580053C510.741 1.10643 511.734 1.97802 512.41 3.08005C513.086 4.23833 513.431 5.55934 513.41 6.90005C513.435 8.25386 513.089 9.58873 512.41 10.7601C511.736 11.8588 510.741 12.7244 509.56 13.2401C508.177 13.833 506.684 14.1228 505.18 14.0901V14.0801ZM490.32 13.5801H505.18C506.611 13.615 508.033 13.3421 509.35 12.7801C510.445 12.3079 511.37 11.5124 512 10.5001C512.626 9.40572 512.937 8.16 512.9 6.90005C512.934 5.65313 512.622 4.42115 512 3.34005C511.378 2.30627 510.453 1.4892 509.35 1.00005C508.039 0.418084 506.614 0.134594 505.18 0.170053H490.32V13.5801Z" fill="black"/>
<path d="M587 44H534.1L538.42 15.63L534.1 -12.74H586.58V0.360009H551.36L552.89 9.73001H584.41V21.55H552.89L551.37 30.91H587V44ZM534.73 43.5H586.5V31.41H550.78L552.46 21.05H583.91V10.23H552.46L550.78 -0.139991H586.08V-12.24H534.69L538.92 15.64L534.73 43.5Z" fill="black"/>
<path d="M653.66 44H635L634.93 43.9L619.93 23.75H612.18V44H596.09V-12.74H629.76C633.658 -12.8131 637.524 -12.035 641.09 -10.46C644.201 -9.08 646.852 -6.8384 648.73 -4.00004C650.569 -1.13636 651.518 2.20739 651.46 5.60996C651.52 8.9814 650.569 12.2935 648.73 15.12C646.837 17.9284 644.189 20.1438 641.09 21.51C639.908 22.0571 638.68 22.4988 637.42 22.83L653.66 44ZM635.24 43.5H652.65L636.56 22.5L636.93 22.41C638.302 22.0676 639.641 21.6024 640.93 21.02C643.939 19.682 646.516 17.5314 648.37 14.81C650.142 12.0657 651.058 8.85618 651 5.58996C651.06 2.28612 650.138 -0.961188 648.35 -3.74004C646.51 -6.49834 643.918 -8.67093 640.88 -10C637.38 -11.5439 633.585 -12.3049 629.76 -12.23H596.59V43.51H611.66V23.26H620.16L620.23 23.36L635.24 43.5ZM627.62 12.35H611.62V-1.19004H627.62C629.119 -1.22791 630.609 -0.959075 632 -0.400044C633.147 0.0765944 634.123 0.88878 634.8 1.92996C635.482 3.02696 635.829 4.29873 635.8 5.58996C635.82 6.8737 635.473 8.13642 634.8 9.22996C634.116 10.2857 633.125 11.106 631.96 11.58C630.582 12.1326 629.105 12.3981 627.62 12.36V12.35ZM612.16 11.85H627.62C629.029 11.8807 630.43 11.6291 631.74 11.11C632.8 10.686 633.707 9.95027 634.34 8.99996C634.958 7.98657 635.27 6.81647 635.24 5.62996C635.276 4.43648 634.963 3.25841 634.34 2.23996C633.722 1.26721 632.822 0.506545 631.76 0.0599556C630.445 -0.467068 629.036 -0.722198 627.62 -0.690044H612.16V11.85Z" fill="black"/>
</g>
</svg>
