<svg width="529" height="194" viewBox="0 0 529 194" fill="none" xmlns="http://www.w3.org/2000/svg">
<path d="M59.1299 151.45V137.61H0.669922V151.45H22.1099V193.86H37.6799V151.45H59.1299Z" fill="black"/>
<path d="M78.0001 137.61L52.3901 193.86H69.0001L73.6801 183H102.68L107.38 193.83H124L98.4301 137.58L78.0001 137.61ZM79.0801 170.54L88.2001 149.45L97.3401 170.54H79.0801Z" fill="black"/>
<path d="M174.68 171.36C177.737 170.013 180.351 167.829 182.22 165.06C184.034 162.276 184.967 159.012 184.9 155.69C184.966 152.337 184.033 149.041 182.22 146.22C180.366 143.424 177.749 141.217 174.68 139.86C171.146 138.299 167.313 137.531 163.45 137.61H130V193.86H145.6V173.61H153.73L168.81 193.86H186.81L170.64 172.77C172.029 172.431 173.382 171.959 174.68 171.36ZM145.6 149.16H161.31C162.761 149.124 164.204 149.386 165.55 149.93C166.654 150.385 167.595 151.162 168.25 152.16C168.859 153.226 169.179 154.432 169.179 155.66C169.179 156.888 168.859 158.094 168.25 159.16C167.593 160.169 166.644 160.954 165.53 161.41C164.189 161.947 162.754 162.206 161.31 162.17H145.6V149.16Z" fill="black"/>
<path d="M253.26 137.61H236.05L219.19 159.14L202.3 137.61H185.09L211.45 171.25V193.86H227.01V171.05L253.26 137.61Z" fill="black"/>
<path d="M268.6 161.61H248.91V173.72H268.6V161.61Z" fill="black"/>
<path d="M327.61 165.4C326.448 164.914 325.247 164.526 324.02 164.24C324.44 164.04 324.85 163.83 325.24 163.6C327.519 162.357 329.403 160.5 330.68 158.24C331.821 156.106 332.409 153.72 332.39 151.3C332.457 148.726 331.78 146.188 330.44 143.99C329.069 141.878 327.093 140.23 324.77 139.26C321.958 138.094 318.933 137.532 315.89 137.61H275.84L280.19 165L275.84 193.87H317.35C320.886 193.982 324.403 193.299 327.64 191.87C330.276 190.683 332.493 188.728 334 186.26C335.449 183.777 336.189 180.944 336.14 178.07C336.201 175.389 335.463 172.75 334.02 170.49C332.438 168.193 330.206 166.42 327.61 165.4ZM313.75 149.15C314.62 149.54 315.357 150.176 315.87 150.98C316.366 151.799 316.619 152.742 316.6 153.7C316.625 154.808 316.333 155.901 315.76 156.85C315.204 157.742 314.411 158.462 313.47 158.93C312.437 159.434 311.299 159.685 310.15 159.66H294.2L292.36 148.49H310.45C311.585 148.461 312.713 148.687 313.75 149.15ZM318.46 181.34C316.977 182.512 315.116 183.099 313.23 182.99H292.29L294.29 170.31H312.29C314.433 170.173 316.556 170.792 318.29 172.06C318.933 172.643 319.451 173.352 319.811 174.142C320.172 174.932 320.368 175.787 320.388 176.655C320.407 177.523 320.25 178.386 319.925 179.192C319.601 179.997 319.116 180.728 318.5 181.34H318.46Z" fill="black"/>
<path d="M361.09 171.4H392.57V160.08H361.09L359.49 150.21H394.75V137.61H342.81L347.09 165.74L342.81 193.86H395.13V181.26H359.49L361.09 171.4Z" fill="black"/>
<path d="M449.41 171.36C452.462 170.009 455.072 167.826 456.94 165.06C458.753 162.276 459.687 159.011 459.62 155.69C459.686 152.337 458.753 149.041 456.94 146.22C455.087 143.426 452.474 141.219 449.41 139.86C445.872 138.299 442.036 137.531 438.17 137.61H404.76V193.86H420.32V173.61H428.45L443.54 193.86H461.54L445.38 172.77C446.764 172.427 448.113 171.955 449.41 171.36ZM420.32 149.16H436C437.448 149.123 438.888 149.386 440.23 149.93C441.333 150.385 442.274 151.162 442.93 152.16C443.538 153.226 443.858 154.432 443.858 155.66C443.858 156.887 443.538 158.094 442.93 159.16C442.273 160.169 441.324 160.954 440.21 161.41C438.873 161.947 437.44 162.206 436 162.17H420.32V149.16Z" fill="black"/>
<path d="M527.99 137.61H510.77L493.91 159.14L477.02 137.61H459.81L486.17 171.25V193.86H501.74V171.06L527.99 137.61Z" fill="black"/>
<path d="M38.1799 119.26H21.6199V76.85H0.169922V62H59.6299V76.85H38.1799V119.26ZM22.6199 118.26H37.1799V75.85H58.6299V63H1.16992V75.85H22.6199V118.26Z" fill="black"/>
<path d="M124.78 119.26H107.1L102.41 108.42H74.0001L69.3201 119.26H51.6001L77.6701 62H98.7501L124.78 119.26ZM107.78 118.26H123.25L98.1101 63H78.3101L53.1501 118.25H68.6601L73.3501 107.41H103.06L107.78 118.26ZM98.1101 95.93H78.3101L88.1901 73.09L98.1101 95.93ZM79.8601 94.93H96.5801L88.1901 75.6L79.8601 94.93Z" fill="black"/>
<path d="M187.86 119.26H168.56L153.48 99.0001H146.1V119.25H129.54V62.0001H163.45C167.385 61.9237 171.29 62.7087 174.89 64.3001C178.041 65.6963 180.73 67.9613 182.64 70.8301C184.498 73.7347 185.458 77.1226 185.4 80.5701C185.462 83.9898 184.501 87.3501 182.64 90.2201C180.716 93.0645 178.03 95.31 174.89 96.7001C173.81 97.2231 172.69 97.6579 171.54 98.0001L187.86 119.26ZM169.06 118.26H185.84L169.84 97.3601L170.58 97.1801C171.923 96.8461 173.232 96.3874 174.49 95.8101C177.459 94.4927 179.998 92.3689 181.82 89.6801C183.578 86.9755 184.484 83.8053 184.42 80.5801C184.48 77.3272 183.575 74.1294 181.82 71.3901C180.013 68.6762 177.47 66.5328 174.49 65.2101C171.026 63.6875 167.273 62.9368 163.49 63.0101H130.54V118.26H145.1V98.0001H154L169.06 118.26ZM161.31 87.6101H145.1V73.6101H161.31C162.83 73.5735 164.341 73.8491 165.75 74.4201C166.947 74.9116 167.965 75.7557 168.67 76.8401C169.338 77.9895 169.69 79.2954 169.69 80.6251C169.69 81.9547 169.338 83.2606 168.67 84.4101C167.966 85.5077 166.939 86.3601 165.73 86.8501C164.324 87.4023 162.82 87.661 161.31 87.6101ZM146.1 86.6101H161.31C162.679 86.6388 164.04 86.3905 165.31 85.8801C166.335 85.4654 167.207 84.7464 167.81 83.8201C168.374 82.8315 168.67 81.7131 168.67 80.5751C168.67 79.437 168.374 78.3186 167.81 77.3301C167.202 76.43 166.338 75.7332 165.33 75.3301C164.061 74.8154 162.699 74.5669 161.33 74.6001H146.1V86.6101Z" fill="black"/>
<path d="M227.51 119.26H211V96.26L184.06 62H202.54L219.19 83.21L235.81 62H254.29L227.51 96.12V119.26ZM211.95 118.26H226.51V95.78L226.62 95.64L252.24 63H236.3L219.19 84.85L202.06 63H186.12L212 96L211.95 118.26Z" fill="black"/>
<path d="M269.1 99.12H248.41V86H269.1V99.12ZM249.41 98.12H268.1V87H249.41V98.12Z" fill="black"/>
<path d="M317.35 119.26H275.26L279.68 89.89L275.25 62H315.89C319.012 61.927 322.115 62.506 325 63.7C327.407 64.7164 329.455 66.43 330.88 68.62C332.255 70.9047 332.949 73.5345 332.88 76.2C332.897 78.7002 332.288 81.1649 331.11 83.37C329.79 85.7101 327.844 87.6356 325.49 88.93H325.39C326.206 89.1696 327.008 89.4567 327.79 89.79C330.473 90.8412 332.784 92.6648 334.43 95.03C335.922 97.3723 336.687 100.104 336.63 102.88C336.677 105.845 335.913 108.767 334.42 111.33C332.858 113.878 330.57 115.901 327.85 117.14C324.551 118.617 320.964 119.341 317.35 119.26ZM276.42 118.26H317.35C320.817 118.351 324.26 117.667 327.43 116.26C329.97 115.108 332.108 113.225 333.57 110.85C334.971 108.442 335.687 105.696 335.64 102.91C335.707 100.333 335.011 97.7933 333.64 95.61C332.104 93.4096 329.95 91.7147 327.45 90.74C326.316 90.2575 325.141 89.876 323.94 89.6L322.55 89.27L323.84 88.66C324.25 88.47 324.65 88.26 325.03 88.04C327.228 86.8452 329.047 85.0574 330.28 82.88C331.377 80.8181 331.944 78.5157 331.93 76.18C331.983 73.7166 331.334 71.289 330.06 69.18C328.734 67.1616 326.837 65.5844 324.61 64.65C321.851 63.4945 318.88 62.9323 315.89 63H276.42L280.69 89.87V90L276.42 118.26ZM313.22 108.38H291.71L293.82 94.71H312.25C314.51 94.5686 316.747 95.2271 318.57 96.57C319.263 97.1995 319.82 97.9634 320.208 98.8153C320.595 99.6672 320.806 100.589 320.825 101.525C320.845 102.461 320.674 103.391 320.322 104.258C319.97 105.125 319.446 105.912 318.78 106.57C317.213 107.837 315.233 108.481 313.22 108.38ZM292.88 107.38H313.22C314.987 107.485 316.732 106.945 318.13 105.86C318.692 105.296 319.134 104.624 319.429 103.884C319.725 103.145 319.867 102.353 319.849 101.557C319.83 100.761 319.65 99.9773 319.321 99.2525C318.991 98.5277 318.518 97.8771 317.93 97.34C316.284 96.1522 314.275 95.5757 312.25 95.71H294.68L292.88 107.38ZM310.15 85.06H293.77L291.77 72.88H310.45C311.658 72.8522 312.858 73.0948 313.96 73.59C314.914 74.0162 315.724 74.7112 316.29 75.59C316.84 76.4927 317.121 77.5334 317.1 78.59C317.124 79.7911 316.805 80.9741 316.18 82C315.576 82.9663 314.718 83.7481 313.7 84.26C312.596 84.8022 311.38 85.0762 310.15 85.06ZM294.62 84.06H310.15C311.219 84.081 312.278 83.848 313.24 83.38C314.101 82.9552 314.825 82.2968 315.33 81.48C315.856 80.6131 316.123 79.6138 316.1 78.6C316.118 77.7341 315.889 76.8809 315.44 76.14C314.98 75.4172 314.32 74.8438 313.54 74.49C312.567 74.0646 311.512 73.8564 310.45 73.88H293L294.62 84.06Z" fill="black"/>
<path d="M395.62 119.26H342.23L346.58 90.63L342.23 62H395.23V75.6H360.08L361.52 84.46H393.07V96.8H361.52L360.08 105.66H395.62V119.26ZM343.39 118.26H394.62V106.66H358.9L360.67 95.8H392.07V85.47H360.67L358.9 74.61H394.25V63H343.39L347.59 90.62V90.7L343.39 118.26Z" fill="black"/>
<path d="M462.59 119.26H443.28L428.2 99H420.82V119.25H404.26V62H438.17C442.105 61.9211 446.01 62.7062 449.61 64.3001C452.761 65.6962 455.449 67.9613 457.36 70.83C459.218 73.7346 460.178 77.1226 460.12 80.57C460.181 83.9898 459.22 87.3501 457.36 90.22C455.438 93.0666 452.752 95.3128 449.61 96.7C448.531 97.2247 447.41 97.6596 446.26 98L462.59 119.26ZM443.79 118.26H460.56L444.56 97.36L445.29 97.18C446.633 96.846 447.942 96.3874 449.2 95.81C452.17 94.4954 454.71 92.371 456.53 89.68C458.288 86.9754 459.194 83.8053 459.13 80.58C459.19 77.3272 458.285 74.1293 456.53 71.39C454.725 68.674 452.182 66.5299 449.2 65.21C445.736 63.6875 441.983 62.9368 438.2 63.01H405.26V118.26H419.82V98H428.7L443.79 118.26ZM436 87.61H419.82V73.61H436C437.516 73.5734 439.024 73.8491 440.43 74.42C441.626 74.9115 442.645 75.7556 443.35 76.84C444.018 77.9895 444.37 79.2954 444.37 80.625C444.37 81.9547 444.018 83.2606 443.35 84.4101C442.645 85.5077 441.618 86.3601 440.41 86.85C439.007 87.4012 437.506 87.6599 436 87.61ZM420.78 86.61H436C437.369 86.6376 438.729 86.3894 440 85.88C441.02 85.4626 441.889 84.7439 442.49 83.82C443.054 82.8315 443.35 81.7131 443.35 80.575C443.35 79.437 443.054 78.3186 442.49 77.33C441.882 76.43 441.018 75.7332 440.01 75.33C438.74 74.8154 437.379 74.5669 436.01 74.6H420.82L420.78 86.61Z" fill="black"/>
<path d="M502.24 119.26H485.67V96.32L458.78 62H477.27L493.91 83.21L510.53 62H529L502.24 96.12V119.26ZM486.67 118.26H501.24V95.78L527 63H511L493.91 84.85L476.78 63H460.84L486.67 96V118.26Z" fill="black"/>
<g opacity="0.5">
<path d="M37.9299 44.13H21.8699V1.72001H0.419922V-12.62H59.4199V1.72001H37.9299V44.13ZM22.3699 43.63H37.4299V1.22001H58.8799V-12.12H0.879921V1.22001H22.3299L22.3699 43.63Z" fill="black"/>
<path d="M124.39 44.13H107.26L102.57 33.29H73.84L69.15 44.13H52L77.84 -12.62H98.6L98.67 -12.47L124.39 44.13ZM107.59 43.63H123.59L98.27 -12.12H78.15L52.77 43.63H68.83L73.51 32.79H102.9L107.59 43.63ZM97.71 20.8H78.71L88.21 -1.2L97.71 20.8ZM79.46 20.3H96.94L88.19 0.100005L79.46 20.3Z" fill="black"/>
<path d="M187.36 44.13H168.69L168.61 44.03L153.61 23.88H145.86V44.13H129.79V-12.62H163.45C167.35 -12.697 171.22 -11.9224 174.79 -10.35C177.895 -8.96466 180.544 -6.72837 182.43 -3.90002C184.264 -1.03833 185.21 2.30175 185.15 5.69998C185.215 9.07378 184.267 12.3896 182.43 15.22C180.527 18.0189 177.881 20.2318 174.79 21.61C173.603 22.1528 172.372 22.5944 171.11 22.93L187.36 44.13ZM168.94 43.63H186.35L170.25 22.63L170.62 22.54C171.994 22.2046 173.334 21.7392 174.62 21.15C177.614 19.8131 180.171 17.6611 182 14.94C183.781 12.1917 184.7 8.97418 184.64 5.69998C184.696 2.39811 183.778 -0.847081 182 -3.63002C180.169 -6.38094 177.592 -8.55257 174.57 -9.89002C171.066 -11.434 167.268 -12.1951 163.44 -12.12H130.29V43.63H145.35V23.38H153.85L153.93 23.48L168.94 43.63ZM161.31 12.48H145.31V-1.07002H161.31C162.796 -1.10953 164.274 -0.840532 165.65 -0.280016C166.794 0.182057 167.772 0.976219 168.46 1.99998C169.14 3.09792 169.487 4.36905 169.46 5.65998C169.485 6.94444 169.138 8.20872 168.46 9.29998C167.781 10.3554 166.792 11.176 165.63 11.65C164.261 12.2168 162.791 12.4992 161.31 12.48ZM145.85 12H161.31C162.72 12.0345 164.122 11.7792 165.43 11.25C166.487 10.8049 167.384 10.0479 168 9.07998C168.619 8.0635 168.932 6.88981 168.9 5.69998C168.936 4.50651 168.623 3.32844 168 2.30998C167.379 1.36372 166.492 0.622556 165.45 0.179984C164.136 -0.351933 162.727 -0.607247 161.31 -0.570016H145.85V12Z" fill="black"/>
<path d="M227.26 44.13H211.2V21.35L184.58 -12.65H202.42L219.19 8.74998L235.93 -12.62H253.78L227.26 21.16V44.13ZM211.7 43.63H226.76V21L252.76 -12.1H236.17L219.17 9.57998L202.17 -12.1H185.6L211.7 21.2V43.63Z" fill="black"/>
<path d="M268.85 24H248.66V11.38H268.85V24ZM249.16 23.5H268.35V11.88H249.16V23.5Z" fill="black"/>
<path d="M317.35 44.13H275.55L279.93 15L275.54 -12.63H315.89C318.974 -12.7066 322.039 -12.1378 324.89 -10.96C327.252 -9.96556 329.261 -8.2868 330.66 -6.14001C332.028 -3.89994 332.722 -1.31378 332.66 1.30999C332.667 3.75122 332.069 6.15616 330.92 8.30999C329.629 10.6154 327.712 12.5083 325.39 13.77L324.76 14.12C325.783 14.3788 326.786 14.7131 327.76 15.12C330.399 16.1524 332.671 17.9447 334.29 20.27C335.756 22.5703 336.507 25.2531 336.45 27.98C336.498 30.9037 335.744 33.7847 334.27 36.31C332.735 38.8133 330.485 40.7988 327.81 42.01C324.527 43.4928 320.952 44.2174 317.35 44.13ZM276.13 43.63H317.35C320.85 43.7317 324.329 43.0483 327.53 41.63C330.118 40.4566 332.298 38.5382 333.79 36.12C335.211 33.6712 335.937 30.881 335.89 28.05C335.947 25.4221 335.223 22.8362 333.81 20.62C332.254 18.3643 330.06 16.6236 327.51 15.62C326.374 15.1465 325.2 14.7718 324 14.5L323.3 14.33L323.95 14.03C324.43 13.8 324.81 13.6 325.16 13.4C327.394 12.1767 329.243 10.3553 330.5 8.13999C331.616 6.04092 332.194 3.69739 332.18 1.31999C332.242 -1.20658 331.579 -3.69802 330.27 -5.86001C328.923 -7.92628 326.986 -9.53954 324.71 -10.49C321.929 -11.639 318.938 -12.1942 315.93 -12.12H276.13L280.44 15L276.13 43.63ZM313.22 33.25H292L294 20.08H312.21C314.41 19.9439 316.589 20.5806 318.37 21.88C319.086 22.4747 319.655 23.2257 320.035 24.0753C320.415 24.9248 320.594 25.8501 320.56 26.78C320.602 27.6722 320.444 28.5626 320.098 29.3861C319.752 30.2096 319.227 30.9455 318.56 31.54C317.045 32.7355 315.148 33.3429 313.22 33.25ZM292.58 32.75H313.22C315.046 32.8584 316.849 32.2965 318.29 31.17C318.898 30.6182 319.376 29.938 319.689 29.1787C320.002 28.4195 320.143 27.6001 320.1 26.78C320.135 25.9251 319.973 25.0736 319.627 24.2915C319.28 23.5093 318.757 22.8176 318.1 22.27C316.408 21.0463 314.344 20.4489 312.26 20.58H294.47L292.58 32.75ZM310.15 9.92999H294L292.07 -1.75001H310.45C311.624 -1.77864 312.789 -1.54282 313.86 -1.06001C314.775 -0.650718 315.547 0.0210075 316.08 0.869992C316.601 1.72811 316.868 2.71631 316.85 3.71999C316.88 4.87141 316.585 6.00803 316 6.99999C315.417 7.92808 314.59 8.67858 313.61 9.16999C312.533 9.69378 311.347 9.95426 310.15 9.92999ZM294.41 9.42999H310.15C311.26 9.44789 312.358 9.20829 313.36 8.72999C314.257 8.27665 315.011 7.58458 315.54 6.72999C316.091 5.82796 316.372 4.78686 316.35 3.72999C316.37 2.81879 316.13 1.92073 315.66 1.13999C315.178 0.377071 314.482 -0.227835 313.66 -0.600008C312.657 -1.04703 311.568 -1.26564 310.47 -1.24001H292.66L294.41 9.42999Z" fill="black"/>
<path d="M395.37 44.13H342.52L346.83 15.75L342.52 -12.62H395V0.480004H359.78L361.3 9.84H392.82V21.67H361.3L359.78 31H395.37V44.13ZM343.1 43.63H394.87V31.53H359.19L360.88 21.17H392.32V10.34H360.88L359.19 4.76837e-06H394.5V-12.1H343.1L347.34 15.77L343.1 43.63Z" fill="black"/>
<path d="M462.08 44.13H443.41L443.33 44.03L428.33 23.88H420.58V44.13H404.51V-12.62H438.17C442.07 -12.697 445.94 -11.9224 449.51 -10.35C452.619 -8.97173 455.27 -6.73393 457.15 -3.90002C458.983 -1.03833 459.93 2.30175 459.87 5.69998C459.934 9.07378 458.987 12.3896 457.15 15.22C455.247 18.0189 452.601 20.2318 449.51 21.61C448.322 22.1528 447.091 22.5944 445.83 22.93L462.08 44.13ZM443.66 43.63H461.07L445 22.63L445.36 22.54C446.735 22.2064 448.074 21.7409 449.36 21.15C452.372 19.821 454.947 17.6684 456.79 14.94C458.57 12.1917 459.49 8.97418 459.43 5.69998C459.486 2.39811 458.568 -0.847081 456.79 -3.63002C454.959 -6.38094 452.381 -8.55257 449.36 -9.89002C445.856 -11.435 442.058 -12.196 438.23 -12.12H405V43.63H420.06V23.38H428.57L428.64 23.48L443.66 43.63ZM436 12.48H420V-1.07002H436C437.482 -1.10872 438.957 -0.83973 440.33 -0.280016C441.488 0.175184 442.481 0.969965 443.18 1.99998C443.859 3.09792 444.207 4.36905 444.18 5.65998C444.205 6.94444 443.858 8.20872 443.18 9.29998C442.5 10.3554 441.512 11.176 440.35 11.65C438.972 12.2211 437.491 12.5036 436 12.48ZM420.57 12H436C437.407 12.0345 438.806 11.7792 440.11 11.25C441.181 10.82 442.093 10.0689 442.72 9.09999C443.339 8.0835 443.652 6.90981 443.62 5.71998C443.656 4.52651 443.343 3.34844 442.72 2.32998C442.105 1.37386 441.216 0.624778 440.17 0.179984C438.847 -0.356574 437.427 -0.611987 436 -0.570016H420.57V12Z" fill="black"/>
<path d="M502 44.13H485.92V21.35L459.3 -12.65H477.15L477.22 -12.55L493.91 8.74998L510.65 -12.62H528.5L502 21.16V44.13ZM486.43 43.63H501.5V21V20.94L527.43 -12.06H510.9L493.9 9.61998L493.71 9.36998L476.9 -12.12H460.32L486.42 21.18L486.43 43.63Z" fill="black"/>
</g>
</svg>
