<svg width="434" height="80" viewBox="0 0 434 80" fill="none" xmlns="http://www.w3.org/2000/svg">
<path d="M0.750217 2.12997C0.610217 1.97997 0.560218 1.87997 0.610218 1.80997C0.645811 1.77255 0.689685 1.74402 0.738315 1.72665C0.786946 1.70929 0.838976 1.70356 0.890217 1.70996C1.0432 1.69535 1.19723 1.69535 1.35022 1.70996C1.46199 1.72396 1.57239 1.74738 1.68022 1.77997C2.73946 1.95282 3.80799 2.063 4.88021 2.10995C5.99021 2.15995 7.08021 2.18997 8.13021 2.18997H9.00022C10.7402 2.10997 12.5402 1.93997 14.3902 1.68997C14.8402 1.62997 15.2802 1.56997 15.7002 1.52997C15.8875 1.44033 16.0926 1.3938 16.3002 1.3938C16.5079 1.3938 16.7129 1.44033 16.9002 1.52997C17.2241 1.66604 17.5167 1.8668 17.7602 2.11996C18.0383 2.36516 18.2958 2.63274 18.5302 2.91998C18.5302 3.18998 18.2402 3.49997 17.6902 3.83997C17.1153 4.19674 16.5095 4.50129 15.8802 4.74997C15.4013 4.96078 14.8971 5.10868 14.3802 5.18997C13.6002 5.18997 12.8102 5.21997 12.0102 5.27997C12.0102 5.36997 12.0102 5.46996 12.0102 5.57996C12.0183 5.65975 12.0183 5.74018 12.0102 5.81998C11.8257 6.90789 11.7155 8.00707 11.6802 9.10995C11.6202 10.36 11.5902 11.6 11.5802 12.84C11.5802 13.62 11.5802 14.34 11.5302 15C11.5302 17.62 11.6202 20.2866 11.8002 23C11.8414 23.0383 11.8743 23.0848 11.8967 23.1364C11.9192 23.188 11.9308 23.2437 11.9308 23.3C11.9308 23.3562 11.9192 23.4119 11.8967 23.4636C11.8743 23.5152 11.8414 23.5616 11.8002 23.6C11.6486 23.6321 11.4919 23.6321 11.3402 23.6L10.8102 23.52C10.6346 23.4695 10.453 23.4426 10.2702 23.44C9.9134 23.3152 9.58715 23.116 9.31305 22.8557C9.03895 22.5954 8.82325 22.2799 8.68022 21.93C8.39558 21.2833 8.2426 20.5864 8.23022 19.88C8.31022 18.51 8.32022 17.12 8.23022 15.7C8.23022 15.49 8.23022 15.28 8.23022 15.07C8.23022 14.86 8.23022 14.73 8.23022 14.56C8.13022 13.32 8.04022 11.96 7.97022 10.49C7.89603 9.23022 7.91609 7.96671 8.03022 6.70996C8.18021 6.22849 8.51452 5.82589 8.96022 5.58997C7.5306 5.80718 6.07968 5.84748 4.64022 5.70996C3.80265 5.42006 3.05721 4.91274 2.48022 4.23996C1.84065 3.59064 1.26158 2.8844 0.750217 2.12997Z" fill="black"/>
<path d="M27.89 5.15995H27.35C26.8 5.15995 26.21 5.15995 25.57 5.15995C24.9596 5.14053 24.3529 5.05673 23.76 4.90995C23.2439 4.73421 22.7656 4.46279 22.35 4.10993C22.016 3.86612 21.7282 3.56476 21.5 3.21995C21.7667 2.90814 22.112 2.67336 22.5 2.53995C22.8261 2.42495 23.1604 2.33468 23.5 2.26994H23.66C24.8391 1.94105 26.0487 1.73332 27.27 1.64994C28.4 1.57994 29.66 1.56994 31.06 1.64994C32.7261 1.70692 34.3345 2.27474 35.6671 3.27644C36.9997 4.27813 37.9922 5.66529 38.51 7.24995C38.9776 8.67238 38.8626 10.2222 38.19 11.5599C37.7397 12.3364 37.1404 13.0162 36.4265 13.5602C35.7125 14.1042 34.8981 14.5018 34.03 14.73C34.41 15.37 34.78 15.97 35.13 16.51L35.66 17.38C36.6 18.7133 37.6533 20.0833 38.82 21.4899L39.13 21.88C39.2541 21.9468 39.3588 22.0445 39.4341 22.1636C39.5094 22.2827 39.5528 22.4192 39.56 22.5599C39.55 22.7065 39.5017 22.8479 39.42 22.9699C39.3225 23.1295 39.2157 23.2831 39.1 23.4299C38.98 23.5699 38.89 23.6899 38.81 23.7699C38.4349 23.8495 38.0436 23.7891 37.71 23.6C37.223 23.3869 36.7603 23.122 36.33 22.8099C35.9565 22.5539 35.6201 22.2477 35.33 21.8999C34.7692 20.9829 34.1478 20.1043 33.47 19.2699L33.11 18.8099C32.69 18.3199 32.24 17.81 31.78 17.17C31.358 16.6334 30.9833 16.0612 30.66 15.4599C30.2105 15.5316 29.7545 15.5551 29.3 15.5299C28.8217 15.5185 28.3472 15.4411 27.89 15.2999C27.83 16.2999 27.81 17.2999 27.83 18.4599C27.8456 19.4899 27.919 20.5182 28.05 21.54C28.1323 21.6904 28.1769 21.8585 28.18 22.0299C28.1799 22.1925 28.1563 22.3542 28.11 22.51C28.023 22.6291 27.9145 22.7308 27.79 22.8099C27.6208 22.9315 27.4438 23.0418 27.26 23.14C27.1184 23.2259 26.9714 23.3027 26.82 23.3699C26.45 23.2799 26.09 22.9299 25.74 22.3099C25.3733 21.657 25.0782 20.9663 24.86 20.2499C24.6653 19.7125 24.5475 19.1503 24.51 18.5799C24.59 17.5799 24.64 16.5799 24.67 15.5799C24.67 15.2299 24.67 14.8699 24.67 14.5199C24.67 13.4499 24.67 12.2599 24.67 10.9599C24.6924 9.81031 24.7994 8.66389 24.99 7.52995C25.2338 6.964 25.6368 6.48111 26.15 6.13996C26.6864 5.74128 27.271 5.41199 27.89 5.15995ZM28.14 12.7799L29.14 12.5299C29.89 12.3499 30.71 12.1299 31.59 11.8599C32.421 11.6155 33.2225 11.2801 33.98 10.8599C34.6181 10.529 35.1308 9.99886 35.44 9.34995C35.566 9.04907 35.6308 8.72613 35.6308 8.39994C35.6308 8.07375 35.566 7.75084 35.44 7.44996C35.1372 6.76436 34.6388 6.18329 34.0074 5.77952C33.3759 5.37574 32.6394 5.16718 31.89 5.17994H30.48H29.09C29.1052 5.3496 29.1052 5.52029 29.09 5.68995C29.09 5.86995 29.09 5.99995 29.09 6.09995V6.19996C28.83 7.87996 28.6 9.59995 28.41 11.35L28.14 12.7799Z" fill="black"/>
<path d="M51.87 1.05992C51.98 0.939924 52.1001 0.949924 52.2401 1.05992C52.399 1.22693 52.5336 1.41543 52.6401 1.61992C52.7696 1.85537 52.8832 2.09926 52.98 2.34993C53.08 2.59993 53.1501 2.77993 53.1901 2.90993C54.2159 6.41636 54.9682 9.9971 55.4401 13.6199C55.4401 13.7299 55.4901 13.8599 55.5201 13.9799C55.6501 14.7099 55.8101 15.4899 55.9901 16.3399L56.34 16.4299C56.5668 16.5325 56.7733 16.6747 56.9501 16.8499C57.1608 17.0365 57.3518 17.2443 57.5201 17.4699C57.6518 17.6278 57.7721 17.7949 57.8801 17.9699C57.8801 18.0499 57.8801 18.1599 57.7001 18.2799C57.5372 18.4114 57.3632 18.5285 57.18 18.6299L56.6701 18.8799H56.59C56.8356 19.9599 57.153 21.0222 57.54 22.0599C57.6453 22.1851 57.7244 22.3302 57.7725 22.4865C57.8206 22.6428 57.8368 22.8072 57.8201 22.9699C57.7701 23.0741 57.7024 23.1688 57.62 23.2499L57.2401 23.6299L56.8801 23.9299L56.79 24.0099C56.5466 24.0231 56.3038 23.975 56.0837 23.8702C55.8636 23.7654 55.6733 23.6072 55.5301 23.4099C55.0497 22.8843 54.6335 22.3036 54.29 21.6799C53.9574 21.1219 53.673 20.5364 53.4401 19.9299H53.3801C52.35 19.8745 51.3172 19.8946 50.29 19.9899L48.65 20.2599C47.93 20.3599 47.2301 20.4499 46.5201 20.5099C45.9954 20.575 45.4647 20.575 44.9401 20.5099L44.7401 20.8599C44.6401 21.0299 44.54 21.1999 44.43 21.3699C44.2791 21.9458 43.9236 22.447 43.43 22.7799C43.1082 22.9812 42.7394 23.0949 42.3601 23.1099C41.9627 23.1529 41.5611 23.1327 41.1701 23.0499C41.0597 22.4926 41.1011 21.9158 41.29 21.3799C41.48 20.4899 41.7301 19.5599 42.0201 18.6199C41.5424 18.16 41.0884 17.6761 40.6601 17.1699C40.4801 17.0399 40.4201 16.9399 40.4701 16.8699C40.5119 16.8211 40.5642 16.7823 40.623 16.7563C40.6819 16.7303 40.7458 16.7179 40.8101 16.7199C40.9964 16.7047 41.1837 16.7047 41.37 16.7199H41.8001H41.8601C42.1101 16.7199 42.38 16.7199 42.65 16.7199C42.8827 16.1229 43.1672 15.5474 43.5001 14.9999C43.8987 14.3364 44.2335 13.6366 44.5001 12.9099C44.7201 12.2599 45.0301 11.2699 45.4401 9.90993C45.8501 8.54993 46.2001 7.43993 46.5801 6.24993C46.8318 5.40909 47.1255 4.58137 47.4601 3.76992C47.7591 3.17343 48.2025 2.66123 48.7501 2.27992C49.2 2.0025 49.6886 1.79356 50.2001 1.65993C50.7752 1.51581 51.3347 1.31481 51.87 1.05992ZM46.7401 16.7799C47.4701 16.7799 48.18 16.7799 48.9 16.7799C49.81 16.7799 50.7601 16.6899 51.7201 16.6099L52.7801 16.5299C52.7301 16.2999 52.68 16.0699 52.62 15.8399C52.52 15.3666 52.4201 14.9066 52.3201 14.4599C52.1801 13.9066 52.03 13.3366 51.87 12.7499C51.3767 10.9499 50.9267 9.16327 50.5201 7.38994C49.7601 9.56994 48.9201 11.6966 48.0001 13.7699L47.5501 14.8699L47.1701 15.8099C47.0001 16.1499 46.8701 16.4599 46.7401 16.7799Z" fill="black"/>
<path d="M65.3003 1.77992C65.4903 1.70992 65.6103 1.70992 65.6803 1.77992C65.7129 1.81811 65.737 1.86289 65.7508 1.9112C65.7646 1.95952 65.7678 2.01024 65.7603 2.05992C65.7507 2.17813 65.7306 2.29527 65.7003 2.40992C65.4688 3.51605 65.335 4.64036 65.3003 5.76991C65.2303 7.16991 65.1903 8.52992 65.1703 9.84992C65.1703 10.5999 65.1703 11.2499 65.1703 11.7999C65.1703 13.5599 65.1703 15.3399 65.1703 17.1299C65.1703 18.6599 65.2303 20.1799 65.2203 21.6999C65.2831 21.8925 65.3049 22.0961 65.2842 22.2976C65.2636 22.4991 65.2009 22.6941 65.1003 22.8699C64.9106 23.0684 64.6541 23.1895 64.3803 23.2099C64.0887 23.2547 63.7919 23.2547 63.5003 23.2099C63.0067 22.8682 62.6519 22.3608 62.5003 21.7799C62.2403 21.0385 62.0462 20.2755 61.9203 19.4999C61.8186 18.9319 61.7618 18.3568 61.7503 17.7799C61.8603 15.8999 61.8903 14.0099 61.8503 12.1099C61.8503 11.6999 61.7903 11.2399 61.7603 10.7499C61.6803 9.49992 61.6303 8.17991 61.5903 6.79991C61.542 5.639 61.5754 4.47614 61.6903 3.31993C61.7711 3.05997 61.9105 2.822 62.0978 2.62437C62.285 2.42674 62.5151 2.27469 62.7703 2.17991C63.3012 2.00599 63.8525 1.90178 64.4103 1.86991L65.3003 1.77992Z" fill="black"/>
<path d="M68.7001 2.12997C68.5601 1.97997 68.5201 1.87997 68.5601 1.80997C68.5981 1.77297 68.6438 1.74483 68.6939 1.72754C68.7441 1.71025 68.7974 1.70424 68.8501 1.70996C68.9998 1.69538 69.1505 1.69538 69.3001 1.70996C69.4152 1.72405 69.5289 1.74747 69.6401 1.77997C70.6992 1.95385 71.7678 2.06404 72.8401 2.10995C73.9501 2.15995 75.0301 2.18997 76.0801 2.18997H77.0001C78.7401 2.10997 80.5301 1.93997 82.3901 1.68997C82.8401 1.62997 83.2701 1.56997 83.6901 1.52997C83.8774 1.44033 84.0824 1.3938 84.2901 1.3938C84.4978 1.3938 84.7028 1.44033 84.8901 1.52997C85.2185 1.66302 85.515 1.8641 85.7601 2.11996C86.0328 2.36756 86.2868 2.63497 86.5201 2.91998C86.5201 3.18998 86.2301 3.49997 85.6801 3.83997C85.1097 4.19868 84.5071 4.50334 83.8801 4.74997C83.3983 4.96226 82.8906 5.1102 82.3701 5.18997C81.5901 5.18997 80.8001 5.21997 80.0001 5.27997C80.0001 5.36997 80.0001 5.46996 80.0001 5.57996C79.9924 5.66156 79.9756 5.74207 79.9501 5.81998C79.7755 6.9092 79.6653 8.00775 79.6201 9.10995C79.5701 10.36 79.5401 11.6 79.5301 12.84C79.5301 13.62 79.5101 14.34 79.4701 15C79.4701 17.62 79.5634 20.2866 79.7501 23C79.8283 23.0803 79.8721 23.1879 79.8721 23.3C79.8721 23.412 79.8283 23.5197 79.7501 23.6C79.5984 23.6315 79.4418 23.6315 79.2901 23.6L78.7501 23.52C78.5746 23.4687 78.3929 23.4418 78.2101 23.44C77.8548 23.3124 77.53 23.1123 77.2562 22.8523C76.9825 22.5923 76.7658 22.2782 76.6201 21.93C76.3355 21.2833 76.1825 20.5864 76.1701 19.88C76.2501 18.51 76.2701 17.12 76.1701 15.7C76.1701 15.49 76.1701 15.28 76.1701 15.07C76.1701 14.86 76.1701 14.73 76.1701 14.56C76.0701 13.32 75.9901 11.96 75.9101 10.49C75.8336 9.23009 75.857 7.96614 75.9801 6.70996C76.0512 6.47145 76.1692 6.24954 76.3272 6.05722C76.4852 5.8649 76.6799 5.70603 76.9001 5.58997C75.4705 5.80738 74.0196 5.84768 72.5801 5.70996C71.7445 5.41625 70.9999 4.90955 70.4201 4.23996C69.784 3.59021 69.2083 2.88399 68.7001 2.12997Z" fill="black"/>
<path d="M101.91 6.15987C101.91 6.29987 101.91 6.37987 101.79 6.37987C101.674 6.37915 101.562 6.3405 101.47 6.26985L101.1 6.03987C101.031 5.97678 100.953 5.92299 100.87 5.87987C100.054 5.41787 99.1585 5.11263 98.2301 4.97988C97.3725 4.8392 96.4977 4.8392 95.6401 4.97988C94.8301 5.15988 94.4001 5.41985 94.3701 5.76985C94.3717 5.99017 94.4218 6.20745 94.5168 6.40621C94.6119 6.60497 94.7496 6.78035 94.9201 6.91988C95.3637 7.37533 95.8381 7.79965 96.3401 8.18987C97.5001 9.13987 98.6201 10.1399 99.6801 11.1899C100.745 12.2455 101.694 13.4122 102.51 14.6699C103.092 15.5625 103.562 16.523 103.91 17.5299C104.251 18.4926 104.32 19.5304 104.11 20.5299C103.987 21.0526 103.759 21.5451 103.441 21.9781C103.124 22.411 102.722 22.7755 102.26 23.0499C101.248 23.6318 100.107 23.9515 98.9401 23.9799C97.6316 24.0233 96.3246 23.8545 95.0701 23.4799C93.8034 23.1135 92.6092 22.5317 91.5401 21.7599C91.0941 21.4426 90.676 21.088 90.2901 20.6999C89.9094 20.3197 89.5739 19.8969 89.2901 19.4399C88.8044 18.5971 88.575 17.631 88.6301 16.6599C88.7006 16.023 88.9822 15.4281 89.4301 14.9699C89.8561 14.4947 90.3867 14.125 90.9801 13.8899C91.0006 14.0124 91.0006 14.1374 90.9801 14.2599C90.9801 14.4699 90.9801 14.7299 90.9801 15.0499C90.9801 15.3699 90.9801 15.7299 90.9301 16.0499C90.9121 16.2828 90.9121 16.5169 90.9301 16.7499C91.0292 17.3575 91.2959 17.9255 91.7001 18.3899C92.4569 19.2224 93.435 19.8224 94.5201 20.1199C95.5616 20.4076 96.6311 20.5819 97.7101 20.6399C98.2743 20.6983 98.844 20.6714 99.4001 20.5599C99.9038 20.4779 100.363 20.2234 100.7 19.8399C100.862 19.6102 100.968 19.3465 101.012 19.069C101.055 18.7916 101.034 18.5079 100.95 18.2399C100.623 17.2375 100.096 16.3121 99.4001 15.5199C98.6224 14.582 97.7696 13.7091 96.8501 12.9099C95.9301 12.0999 95.1201 11.4199 94.4301 10.9099C93.3514 10.1229 92.4032 9.1713 91.6201 8.08986C91.1747 7.53647 90.8657 6.88609 90.7181 6.19124C90.5704 5.49639 90.5882 4.77655 90.7701 4.08986C91.0027 3.47181 91.3847 2.92098 91.882 2.4865C92.3793 2.05202 92.9764 1.74741 93.6201 1.59987C95.0345 1.28169 96.5119 1.39666 97.8601 1.92986C99.2895 2.41332 100.536 3.32448 101.43 4.53987C101.589 4.79291 101.723 5.06083 101.83 5.33986C101.924 5.6025 101.951 5.88411 101.91 6.15987Z" fill="black"/>
<path d="M111.15 11.94C110.914 11.9147 110.681 11.8746 110.45 11.82C110.06 11.75 109.63 11.64 109.16 11.52C108.737 11.4073 108.322 11.2636 107.92 11.09C107.57 10.94 107.36 10.78 107.31 10.62C107.413 10.4861 107.487 10.3331 107.53 10.17C107.61 9.91998 107.69 9.65998 107.76 9.38998C107.83 9.11998 107.88 8.95997 107.89 8.87997C107.855 8.6614 107.855 8.43854 107.89 8.21997C107.895 8.11922 107.922 8.02087 107.971 7.93246C108.019 7.84406 108.088 7.76793 108.17 7.70996C108.855 7.73517 109.531 7.87372 110.17 8.11996C111.04 8.40996 111.76 8.67997 112.32 8.90997H112.41H112.46L112.63 8.98996L112.81 9.06998C112.86 9.06998 112.88 9.12997 112.88 9.15997C112.88 9.18997 112.88 9.15996 112.75 9.20996C112.628 9.33257 112.533 9.47896 112.47 9.63998C112.37 9.84998 112.27 10.08 112.16 10.33C112.031 10.7013 111.874 11.0624 111.69 11.41C111.53 11.77 111.35 11.93 111.15 11.94ZM112.41 18.18H112.46L112.63 18.25L112.81 18.34C112.86 18.34 112.88 18.39 112.88 18.42C112.88 18.45 112.88 18.42 112.75 18.47C112.631 18.5945 112.536 18.7404 112.47 18.9C112.37 19.11 112.27 19.34 112.16 19.6C112.033 19.9689 111.876 20.3267 111.69 20.67C111.53 20.99 111.35 21.16 111.15 21.17C110.914 21.1447 110.681 21.1046 110.45 21.05C110.06 20.97 109.63 20.87 109.16 20.74C108.738 20.6259 108.324 20.4856 107.92 20.32C107.57 20.16 107.36 20 107.31 19.85C107.413 19.7161 107.487 19.5631 107.53 19.4C107.61 19.15 107.69 18.89 107.76 18.63C107.813 18.4557 107.856 18.2788 107.89 18.1C107.855 17.8813 107.855 17.6586 107.89 17.44C107.895 17.3392 107.922 17.2409 107.971 17.1525C108.019 17.0641 108.088 16.9879 108.17 16.93C108.855 16.946 109.532 17.0813 110.17 17.33C111.04 17.63 111.76 17.9 112.32 18.13L112.41 18.18Z" fill="black"/>
<path d="M18.7104 55.4899C18.7104 55.6799 18.7104 55.78 18.5504 55.79C18.3976 55.7878 18.2499 55.7351 18.1304 55.64C17.9604 55.54 17.7904 55.4399 17.6404 55.3299C17.5429 55.2469 17.4354 55.1764 17.3204 55.12C16.2355 54.5045 15.045 54.0976 13.8104 53.92C12.665 53.7283 11.4957 53.7283 10.3504 53.92C9.27038 54.16 8.70038 54.51 8.65038 54.97C8.65637 55.2646 8.72553 55.5546 8.8532 55.8203C8.98086 56.086 9.16404 56.3212 9.39038 56.51C9.98283 57.1177 10.6178 57.6824 11.2904 58.2C12.8404 59.46 14.2904 60.8 15.7404 62.2C17.1585 63.6045 18.4223 65.1567 19.5104 66.8299C20.2864 68.0227 20.9144 69.3054 21.3804 70.65C21.8319 71.9343 21.9218 73.318 21.6404 74.65C21.4775 75.348 21.1758 76.0062 20.7531 76.5852C20.3305 77.1641 19.7956 77.6521 19.1804 78.0199C17.8313 78.7887 16.3127 79.2113 14.7604 79.25C13.0118 79.3159 11.2644 79.0895 9.59038 78.5799C7.90029 78.0934 6.30689 77.3187 4.88038 76.29C4.28775 75.8683 3.73239 75.3966 3.22038 74.88C2.705 74.3784 2.25479 73.814 1.88038 73.2C1.22954 72.0764 0.923516 70.7862 1.00038 69.4899C1.0899 68.639 1.46328 67.8429 2.06038 67.23C2.63582 66.6102 3.33858 66.1224 4.12038 65.7999C4.14961 65.962 4.14961 66.1279 4.12038 66.29C4.12038 66.57 4.12038 66.93 4.06038 67.29C4.00038 67.65 4.06038 68.21 4.00038 68.63C3.98246 68.9397 3.98246 69.2502 4.00038 69.56C4.12415 70.3686 4.47038 71.1268 5.00038 71.75C6.0032 72.8662 7.30994 73.6655 8.76038 74.0499C10.147 74.4386 11.5723 74.6734 13.0104 74.75C13.7578 74.8319 14.5133 74.7981 15.2504 74.65C15.928 74.5263 16.5424 74.1732 16.9904 73.65C17.21 73.3444 17.3543 72.9913 17.4116 72.6195C17.469 72.2476 17.4377 71.8675 17.3204 71.51C16.8919 70.1736 16.1904 68.9409 15.2604 67.89C14.2227 66.6372 13.0857 65.47 11.8604 64.4C10.6304 63.32 9.56038 62.3999 8.63038 61.7099C7.19764 60.6571 5.93321 59.3927 4.88038 57.9599C3.59038 55.9599 3.21038 54.22 3.75038 52.63C4.06289 51.8045 4.57403 51.0689 5.23857 50.4881C5.90311 49.9072 6.70057 49.4992 7.56038 49.2999C9.44621 48.8798 11.4148 49.0366 13.2104 49.75C15.1176 50.392 16.78 51.6074 17.9704 53.23C18.1735 53.5679 18.3475 53.9225 18.4904 54.29C18.6786 54.6601 18.755 55.0771 18.7104 55.4899Z" fill="black"/>
<path d="M38.93 48.69C39.07 48.53 39.23 48.54 39.41 48.69C39.6313 48.9037 39.814 49.1541 39.95 49.43C40.1245 49.7532 40.2781 50.0872 40.41 50.43C40.54 50.75 40.63 51 40.68 51.17C42.0464 55.8456 43.0494 60.6198 43.68 65.45C43.68 65.6 43.74 65.77 43.78 65.94C43.96 66.94 44.17 67.94 44.4 69.08L44.87 69.2C45.1751 69.331 45.4531 69.5175 45.69 69.75C45.9645 70.0065 46.2186 70.284 46.45 70.58C46.6233 70.7912 46.7804 71.0152 46.92 71.25C46.92 71.37 46.92 71.51 46.69 71.67C46.4719 71.8405 46.2413 71.9942 46 72.13L45.32 72.46L45.2 72.52C45.5351 73.9583 45.9593 75.3744 46.47 76.76C46.6115 76.9258 46.7181 77.1184 46.7834 77.3263C46.8487 77.5342 46.8713 77.7531 46.85 77.97C46.7853 78.1129 46.6936 78.2419 46.58 78.35C46.43 78.51 46.26 78.68 46.07 78.85C45.88 79.02 45.73 79.15 45.6 79.26L45.48 79.35C44.96 79.46 44.4 79.19 43.8 78.55C43.1573 77.8557 42.6 77.0869 42.14 76.26C41.6971 75.5138 41.319 74.7309 41.01 73.92H40.93C39.5566 73.8462 38.1796 73.8729 36.81 74C36.3 74.09 35.57 74.21 34.62 74.35C33.67 74.49 32.72 74.61 31.79 74.69C31.0897 74.7819 30.3804 74.7819 29.68 74.69L29.4 75.16C29.27 75.39 29.14 75.62 28.99 75.84C28.8109 76.5982 28.3588 77.2639 27.72 77.71C27.3011 77.9884 26.8128 78.1443 26.31 78.16C25.7797 78.2207 25.243 78.1971 24.72 78.09C24.5712 77.3465 24.6229 76.5768 24.87 75.86C25.13 74.66 25.46 73.43 25.87 72.17C25.2285 71.5569 24.621 70.9093 24.05 70.23C23.82 70.06 23.73 69.93 23.8 69.83C23.9227 69.7091 24.0878 69.6409 24.26 69.64C24.5054 69.6081 24.7526 69.5914 25 69.59H25.58H25.65C25.99 69.59 26.34 69.59 26.71 69.59C27.0198 68.7955 27.3979 68.0293 27.84 67.3C28.3733 66.4126 28.8252 65.4789 29.19 64.51C29.48 63.65 29.89 62.32 30.44 60.51C30.99 58.7 31.44 57.21 31.96 55.62C32.2972 54.5007 32.691 53.3993 33.14 52.32C33.5346 51.5214 34.1224 50.8339 34.85 50.32C35.4543 49.9556 36.1076 49.6794 36.79 49.5C37.5267 49.2962 38.243 49.025 38.93 48.69ZM32.09 69.69C33.09 69.69 34.01 69.69 34.96 69.69C36.18 69.69 37.44 69.58 38.73 69.47L40.14 69.35C40.07 69.05 40 68.75 39.92 68.44C39.79 67.81 39.66 67.2 39.53 66.6C39.4 66 39.13 65.11 38.93 64.31C38.27 61.92 37.68 59.54 37.13 57.17C36.11 60.0767 34.99 62.9133 33.77 65.68C33.56 66.16 33.36 66.68 33.16 67.15C32.96 67.62 32.83 67.98 32.66 68.4C32.49 68.82 32.26 69.23 32.09 69.65V69.69Z" fill="black"/>
<path d="M57.17 49.7299C57.44 49.7299 57.61 49.7899 57.67 49.9299C57.7249 50.0886 57.7249 50.2612 57.67 50.4199C57.6 50.6099 57.54 50.7699 57.47 50.9199V50.9899C57.0478 52.312 56.7532 53.6716 56.59 55.0499C56.38 56.6299 56.2201 58.2399 56.1001 59.8799C57.0996 59.0175 58.023 58.0707 58.86 57.0499C59.38 56.3499 60.02 55.3799 60.79 54.1399C61.26 53.3999 61.7 52.7099 62.12 52.0899C62.4217 51.6236 62.7558 51.1792 63.12 50.7599C63.7961 50.287 64.5801 49.9913 65.4 49.8999C66.3273 49.7584 67.2624 49.6749 68.2 49.6499H68.9601C69.2301 49.5399 69.4 49.5599 69.45 49.7099C69.5156 49.8942 69.5156 50.0956 69.45 50.2799C69.37 50.5199 69.29 50.7499 69.2 50.9699C69.11 51.1899 69.04 51.3099 69.01 51.3699C68.1458 52.8961 67.1803 54.3627 66.12 55.7599C65.12 57.0599 63.9901 58.3999 62.7401 59.7599C62.9134 60.1799 63.0734 60.5899 63.22 60.9899C63.78 62.4099 64.33 63.7299 64.86 64.9899C65.39 66.2499 66.05 67.6199 66.86 69.1799C67.5267 70.2666 68.3267 71.4966 69.26 72.8699C70.1091 74.0945 71.0272 75.2698 72.01 76.3899C72.185 76.4736 72.3383 76.5965 72.458 76.7492C72.5777 76.9018 72.6605 77.08 72.7 77.2699C72.7142 77.4652 72.6939 77.6616 72.64 77.8499C72.5738 78.1139 72.4937 78.3743 72.4 78.6299C72.3371 78.8316 72.2603 79.0288 72.17 79.2199C71.81 79.4499 71.2501 79.3999 70.4901 79.0499C69.6888 78.6751 68.9338 78.2087 68.2401 77.6599C67.6359 77.2001 67.0857 76.6734 66.6001 76.0899C65.6667 74.5632 64.71 73.0466 63.73 71.5399C63.35 71.0199 62.8201 70.2299 62.1301 69.1699C61.4401 68.1099 60.8 67.0499 60.22 66.0099C59.7465 65.2976 59.4076 64.5045 59.22 63.6699L58.65 64.2599C58.18 64.7699 57.65 65.2599 57.11 65.8299C56.7223 66.2573 56.2486 66.5981 55.72 66.8299C55.72 69.5199 55.72 72.2199 55.84 74.9099C55.84 75.4699 55.84 76.0199 55.9 76.5499C55.9967 76.7681 56.0398 77.0063 56.0259 77.2446C56.012 77.4829 55.9414 77.7144 55.8201 77.9199C55.5647 78.1659 55.2331 78.3176 54.8801 78.3499C54.5147 78.4216 54.1419 78.4484 53.7701 78.4299C53.1236 78.0516 52.6421 77.4452 52.42 76.7299C52.0534 75.8076 51.7723 74.8536 51.58 73.8799C51.4271 73.1787 51.3301 72.4665 51.29 71.7499C51.37 70.5899 51.41 69.3999 51.43 68.1899C51.45 66.9799 51.43 65.7999 51.43 64.6399C51.35 62.7399 51.3167 60.6432 51.33 58.3499C51.3176 56.3154 51.4882 54.2838 51.84 52.2799C52.0279 51.7997 52.312 51.3631 52.6748 50.9967C53.0377 50.6304 53.4717 50.3422 53.95 50.1499C54.9644 49.7166 56.0785 49.5713 57.17 49.7299Z" fill="black"/>
<path d="M78.5403 54.6499C77.7801 54.0895 77.152 53.3693 76.7003 52.5399C76.2255 51.7442 75.7949 50.9229 75.4103 50.0799C75.197 49.7532 75.157 49.5632 75.2903 49.5099C75.5015 49.4653 75.7213 49.4862 75.9203 49.5699C76.8074 49.7772 77.7108 49.9076 78.6203 49.9599C79.6203 50.0199 80.6203 50.0599 81.6203 50.0799H82.9503C83.9003 50.0799 84.9003 50.0799 85.9503 49.9799L89.1203 49.7599C90.1903 49.6899 91.2203 49.6199 92.2103 49.5699C93.897 49.1899 95.387 49.8266 96.6803 51.4799C96.5903 51.7899 96.0503 52.1599 95.0603 52.5799C94.0226 53.0081 92.9608 53.3754 91.8803 53.6799C91.1015 53.9272 90.3014 54.1013 89.4903 54.1999H88.3203C87.5103 54.1999 86.7603 54.1999 86.0703 54.1999C85.2601 54.2331 84.4523 54.3098 83.6503 54.4299C83.3703 56.5299 83.1203 58.6399 82.9303 60.7799C83.5803 60.8299 84.2303 60.8999 84.8803 60.9699C86.3149 61.0082 87.7506 60.9648 89.1803 60.8399L90.8803 60.7399C91.0603 60.6574 91.2581 60.6214 91.4555 60.6354C91.653 60.6494 91.8438 60.7129 92.0103 60.8199C92.3521 61.0546 92.6415 61.3577 92.8603 61.7099C93.1137 62.0503 93.3378 62.4116 93.5303 62.7899C93.5303 63.0766 93.2703 63.4099 92.7503 63.7899C92.2274 64.182 91.6642 64.5172 91.0703 64.7899C90.6225 65.0467 90.1244 65.2036 89.6103 65.2499C88.4103 65.1799 87.4903 65.1599 86.8503 65.1799C86.2103 65.1999 85.6803 65.2399 85.2303 65.2899L84.0903 65.3899C83.6803 65.3899 83.1603 65.3899 82.5203 65.3899C82.3976 67.6536 82.4444 69.9232 82.6603 72.1799C82.7399 72.3421 82.7841 72.5193 82.7903 72.6999C82.7909 72.8561 82.7457 73.0091 82.6603 73.1399L82.3703 73.3099C82.2169 73.3914 82.0562 73.4584 81.8903 73.5099L85.5103 73.6499C85.7403 73.6499 85.9803 73.6499 86.2103 73.6499C87.4303 73.6499 88.8003 73.5999 90.3103 73.4699C91.8203 73.3399 93.1803 73.1699 94.3703 72.9599C94.5114 72.8445 94.688 72.7815 94.8703 72.7815C95.0526 72.7815 95.2292 72.8445 95.3703 72.9599C95.602 73.1099 95.8024 73.3035 95.9603 73.5299C96.1903 73.8299 96.4103 74.1199 96.6003 74.3899L96.8603 74.7199C96.91 74.9766 96.8898 75.242 96.8018 75.4883C96.7139 75.7346 96.5614 75.9527 96.3603 76.1199C95.8816 76.5913 95.3229 76.974 94.7103 77.2499C94.1911 77.5176 93.6295 77.6935 93.0503 77.7699C91.6903 77.7699 90.3303 77.7699 88.9603 77.8699L88.0503 77.9299C86.8803 78.0599 85.5003 78.1699 83.9203 78.2599C82.5358 78.3558 81.1452 78.3089 79.7703 78.1199C78.801 77.7048 77.9787 77.008 77.4103 76.1199C76.8227 75.252 76.3235 74.3273 75.9203 73.3599C75.7703 73.0899 75.7403 72.9299 75.8103 72.8599C75.8623 72.8202 75.9228 72.7933 75.987 72.7811C76.0512 72.769 76.1174 72.772 76.1803 72.7899C76.3647 72.8177 76.5456 72.8646 76.7203 72.9299C77.7757 73.1473 78.8449 73.291 79.9203 73.3599C79.2831 72.6374 78.812 71.7841 78.5403 70.8599C78.2432 70.0809 78.0645 69.2618 78.0103 68.4299C78.0103 68.3199 78.0103 68.1099 78.0103 67.8099C78.0103 67.2899 78.0903 66.6699 78.1403 65.9399C78.1903 65.2099 78.2303 64.5599 78.2603 63.9399C78.3021 63.6079 78.3021 63.2719 78.2603 62.9399C77.7236 62.1299 77.236 61.2884 76.8003 60.4199C76.6103 60.1299 76.5903 59.9499 76.7303 59.8899C76.9287 59.8264 77.1419 59.8264 77.3403 59.8899C77.6031 59.9328 77.8635 59.9895 78.1203 60.0599H78.2203C78.2203 59.0599 78.2203 58.0599 78.2803 57.1099C78.3175 56.2854 78.4043 55.4639 78.5403 54.6499Z" fill="black"/>
<path d="M107.56 71.48C107.92 71.48 108.12 71.54 108.15 71.67C108.18 71.8 108.15 71.96 107.95 72.17C107.589 72.5864 107.292 73.055 107.07 73.56C106.84 74.09 106.62 74.62 106.43 75.15C106.36 75.34 106.3 75.51 106.23 75.68C106.131 76.2038 106.091 76.7371 106.11 77.2699C106.11 77.9299 106.11 78.48 106.19 78.92C106.31 79.04 106.35 79.14 106.32 79.21C106.275 79.2936 106.2 79.3576 106.11 79.39C105.911 79.4611 105.702 79.4982 105.49 79.5H104.49C104.17 79.5 103.93 79.5 103.78 79.5C103.356 79.4207 102.966 79.2151 102.66 78.91C102.188 78.5393 101.758 78.1167 101.38 77.65C101.01 77.2 100.86 76.87 100.91 76.65C101.091 76.0249 101.195 75.3802 101.22 74.73C101.17 74.1577 101.17 73.5822 101.22 73.01C101.245 72.4422 101.417 71.8906 101.72 71.41C102.548 71.095 103.442 70.9919 104.32 71.1099C105.47 71.1999 106.48 71.3 107.32 71.43L107.56 71.48Z" fill="black"/>
<path d="M128.69 50C128.96 49.93 129.14 50 129.22 50.08C129.434 50 129.564 50.02 129.61 50.14C129.651 50.3177 129.651 50.5023 129.61 50.68C129.671 52.0101 129.869 53.3305 130.2 54.62C130.59 56.25 130.96 57.73 131.33 59.04C131.41 59.33 131.48 59.6 131.54 59.84C132.05 61.42 132.67 63.15 133.42 65.04C134.17 63.39 134.88 61.68 135.53 59.92C135.568 59.8608 135.599 59.7969 135.62 59.73C136.01 58.45 136.51 57 137.11 55.37C137.601 53.9717 138.241 52.6305 139.02 51.37C139.353 51.0817 139.741 50.8646 140.161 50.7322C140.58 50.5998 141.023 50.5548 141.46 50.6C142.501 49.9739 143.686 49.6293 144.9 49.6C145.16 49.53 145.32 49.6 145.39 49.71C145.444 49.8791 145.444 50.0608 145.39 50.23C145.366 50.414 145.322 50.5949 145.26 50.77C145.266 50.8031 145.266 50.8369 145.26 50.87C144.97 52.3578 144.793 53.8654 144.73 55.38C144.67 56.97 144.64 58.56 144.66 60.15C144.66 61.06 144.66 61.96 144.66 62.84C144.714 65.5466 144.837 68.32 145.03 71.16C145.12 72.52 145.2 73.84 145.26 75.16C145.462 75.7656 145.433 76.424 145.18 77.01C145.001 77.3599 144.709 77.6386 144.35 77.8C143.99 78.0087 143.598 78.1573 143.19 78.24C142.598 77.7097 142.179 77.0125 141.99 76.24C141.587 75.0912 141.253 73.919 140.99 72.73C140.77 71.8736 140.619 71.0007 140.54 70.12C140.59 68.23 140.54 66.32 140.46 64.38C140.46 64.02 140.46 63.67 140.46 63.32C140.38 62.55 140.3 61.7 140.22 60.76L140.07 61.04C139.77 61.78 139.34 63.13 138.78 65.04C138.28 66.74 137.78 68.39 137.26 69.97C136.958 71.0679 136.504 72.1181 135.91 73.09C135.58 73.49 135.13 73.54 134.54 73.23C133.905 72.8822 133.348 72.4093 132.9 71.84C131.901 70.6672 131.042 69.3819 130.34 68.01C129.817 66.889 129.373 65.7328 129.01 64.55C128.7 63.55 128.29 62.45 127.78 61.17C127.71 61.87 127.63 62.56 127.55 63.24C127.17 67.2 126.924 71.2433 126.81 75.37C126.81 75.6 126.81 75.84 126.81 76.07C126.97 76.7203 126.899 77.4058 126.61 78.01C126.393 78.3479 126.08 78.6127 125.71 78.77C125.334 78.965 124.934 79.1096 124.52 79.2C123.915 78.5882 123.528 77.7938 123.42 76.94C123.104 75.6972 122.874 74.4342 122.73 73.16C122.594 72.2497 122.527 71.3304 122.53 70.41C122.8 68.14 123.01 65.87 123.14 63.57V63.24C123.14 62.73 123.14 62.19 123.14 61.6C123.14 60.06 123.22 58.46 123.3 56.78C123.356 55.3251 123.507 53.8754 123.75 52.44C123.941 52.0359 124.211 51.6745 124.544 51.3772C124.877 51.08 125.267 50.853 125.69 50.71C126.588 50.3907 127.516 50.1661 128.46 50.04L128.69 50Z" fill="black"/>
<path d="M163.61 48.69C163.76 48.53 163.92 48.54 164.1 48.69C164.315 48.909 164.497 49.1583 164.64 49.43C164.81 49.7553 164.964 50.0891 165.1 50.43C165.23 50.75 165.32 51 165.37 51.17C166.732 55.8468 167.734 60.6207 168.37 65.45C168.37 65.6 168.43 65.77 168.47 65.94C168.65 66.94 168.86 67.94 169.09 69.08L169.56 69.2C169.864 69.3333 170.141 69.5195 170.38 69.75C170.654 70.0065 170.909 70.284 171.14 70.58C171.31 70.7937 171.467 71.0175 171.61 71.25C171.61 71.37 171.61 71.51 171.38 71.67C171.16 71.8427 170.926 71.9965 170.68 72.13C170.42 72.27 170.19 72.38 170.01 72.46L169.89 72.52C170.22 73.9595 170.645 75.3759 171.16 76.76C171.3 76.9266 171.404 77.1195 171.468 77.3274C171.532 77.5353 171.553 77.7538 171.53 77.97C171.474 78.1152 171.385 78.2453 171.27 78.35C171.12 78.51 170.95 78.68 170.76 78.85L170.28 79.26L170.17 79.35C169.844 79.3749 169.518 79.3142 169.223 79.1738C168.929 79.0335 168.676 78.8184 168.49 78.55C167.844 77.8583 167.286 77.0891 166.83 76.26C166.388 75.5116 166.007 74.7291 165.69 73.92H165.62C164.243 73.8463 162.863 73.873 161.49 74C160.99 74.09 160.26 74.21 159.31 74.35C158.36 74.49 157.41 74.61 156.47 74.69C155.773 74.7823 155.067 74.7823 154.37 74.69C154.27 74.84 154.18 75 154.09 75.16C154 75.32 153.82 75.62 153.68 75.84C153.497 76.5963 153.045 77.2606 152.41 77.71C151.99 77.9865 151.502 78.1422 151 78.16C150.466 78.2203 149.926 78.1966 149.4 78.09C149.263 77.3452 149.318 76.5776 149.56 75.86C149.82 74.66 150.15 73.43 150.56 72.17C149.918 71.5569 149.311 70.9093 148.74 70.23C148.51 70.06 148.42 69.93 148.49 69.83C148.55 69.7692 148.622 69.7211 148.701 69.6885C148.78 69.6558 148.864 69.6394 148.95 69.64C149.195 69.6078 149.443 69.5911 149.69 69.59H150.26H150.34C150.68 69.59 151.03 69.59 151.4 69.59C151.71 68.7955 152.088 68.0293 152.53 67.3C153.063 66.4126 153.515 65.4789 153.88 64.51C154.16 63.65 154.58 62.32 155.13 60.51C155.68 58.7 156.13 57.21 156.65 55.62C157.17 54.03 157.55 52.93 157.82 52.32C158.218 51.5207 158.809 50.8333 159.54 50.32C160.141 49.9556 160.791 49.6794 161.47 49.5C162.208 49.2996 162.924 49.0283 163.61 48.69ZM156.78 69.69C157.78 69.69 158.7 69.69 159.65 69.69C160.87 69.69 162.13 69.58 163.42 69.47L164.82 69.35C164.76 69.05 164.69 68.75 164.61 68.44C164.48 67.81 164.35 67.2 164.22 66.6C164.09 66 163.82 65.11 163.61 64.31C162.943 61.9233 162.347 59.5434 161.82 57.17C160.8 60.0767 159.68 62.9133 158.46 65.68C158.25 66.16 158.05 66.68 157.85 67.15L157.34 68.4C157.14 68.81 157 69.23 156.78 69.65V69.69Z" fill="black"/>
<path d="M182.73 49.5699C183 49.5699 183.16 49.5699 183.22 49.7099C183.255 49.7581 183.279 49.8139 183.29 49.8729C183.3 49.9318 183.297 49.9924 183.28 50.0499C183.249 50.1945 183.202 50.3353 183.14 50.4699V50.5999C182.687 52.0614 182.389 53.5663 182.25 55.0899C182.04 56.8899 181.89 58.6199 181.77 60.2699C181.72 60.9599 181.66 61.5899 181.61 62.1699C181.431 65.9124 181.471 69.6621 181.73 73.3999C181.827 73.5856 181.882 73.7905 181.89 73.9999H182.57C182.733 74.0096 182.897 74.0096 183.06 73.9999C184.88 73.9999 186.827 73.9099 188.9 73.7299C189.63 73.6599 190.32 73.6099 190.97 73.5699C191.222 73.4598 191.495 73.4029 191.77 73.4029C192.045 73.4029 192.318 73.4598 192.57 73.5699C192.992 73.7462 193.371 74.0124 193.68 74.3499C194.029 74.6845 194.344 75.053 194.62 75.4499C194.62 75.7299 194.22 76.0799 193.43 76.4999C192.613 76.9306 191.763 77.2983 190.89 77.5999C190.249 77.859 189.576 78.0337 188.89 78.1199C187.478 78.0447 186.062 78.0447 184.65 78.1199H184.59C183.78 78.2499 182.83 78.3599 181.74 78.4299C180.788 78.5181 179.828 78.4675 178.89 78.2799C178.108 77.7453 177.495 76.9997 177.12 76.1299C176.706 75.2905 176.355 74.4214 176.07 73.5299C175.94 73.2199 175.93 73.0299 176.07 72.9699C176.21 72.9099 176.34 72.9699 176.6 73.0799C177.162 73.3136 177.755 73.4651 178.36 73.5299C177.963 72.6573 177.658 71.7457 177.45 70.8099C177.278 70.1147 177.17 69.405 177.13 68.6899C177.23 66.9699 177.29 65.2199 177.31 63.4499C177.31 63.0099 177.31 62.5699 177.31 62.1199C177.23 60.4999 177.2 58.6499 177.21 56.5899C177.195 54.8097 177.346 53.0321 177.66 51.2799C177.852 50.8562 178.14 50.483 178.501 50.1897C178.862 49.8964 179.286 49.6911 179.74 49.5899C180.725 49.3826 181.742 49.3758 182.73 49.5699Z" fill="black"/>
<path d="M203.93 49.6499C204.17 49.5599 204.34 49.5599 204.42 49.6499C204.465 49.7014 204.498 49.7621 204.517 49.8278C204.536 49.8934 204.54 49.9624 204.53 50.0299C204.519 50.1855 204.492 50.3396 204.45 50.4899C204.148 51.9655 203.974 53.4644 203.93 54.9699C203.83 56.8399 203.78 58.6499 203.75 60.4099C203.75 61.4099 203.75 62.2799 203.69 63.0099C203.69 65.3599 203.69 67.7299 203.69 70.1199C203.737 72.1599 203.757 74.1899 203.75 76.2099C203.839 76.4658 203.871 76.7381 203.844 77.0077C203.816 77.2773 203.729 77.5375 203.59 77.7699C203.344 78.0376 203.003 78.199 202.64 78.2199C202.249 78.2793 201.851 78.2793 201.46 78.2199C200.83 77.7527 200.381 77.0811 200.19 76.3199C199.842 75.345 199.581 74.341 199.41 73.3199C199.27 72.5609 199.193 71.7916 199.18 71.0199C199.32 68.5199 199.37 66.0199 199.32 63.4699C199.32 62.9199 199.24 62.3099 199.2 61.6499C199.09 59.9799 199.02 58.2299 198.96 56.3999C198.902 54.8485 198.949 53.295 199.1 51.7499C199.21 51.4028 199.398 51.0855 199.649 50.822C199.9 50.5586 200.209 50.3561 200.55 50.2299C201.257 50.0012 201.989 49.8601 202.73 49.8099L203.93 49.6499Z" fill="black"/>
<path d="M210 52.89C210.358 52.0054 210.932 51.2249 211.67 50.6199C212.358 49.9726 213.248 49.5808 214.19 49.51C215.06 49.51 215.71 50.0399 216.19 51.2099C216.74 52.7599 217.38 54.34 218.11 55.97C218.84 57.6 219.58 59.1899 220.35 60.7799C220.7 61.5399 221.06 62.28 221.41 63.01C222.503 65.1233 223.7 67.2966 225 69.5299C225 67.8499 225 66.16 225 64.45C225 62.74 224.85 60.7599 224.82 58.6799C224.772 56.8095 224.859 54.9379 225.08 53.0799C225.405 52.0546 226.067 51.1697 226.96 50.57C227.885 49.9642 228.897 49.5023 229.96 49.2C230.21 49.04 230.37 49.0699 230.44 49.2799C230.519 49.5423 230.546 49.8173 230.52 50.0899C230.52 50.4199 230.52 50.68 230.45 50.88V50.9899C229.943 54.7699 229.61 58.6466 229.45 62.6199C229.45 63.1499 229.37 63.68 229.35 64.2C229.3 65.92 229.35 67.7899 229.4 69.8099C229.45 71.8299 229.63 73.7299 229.84 75.4899C229.959 75.7167 230.026 75.9666 230.038 76.2222C230.051 76.4778 230.007 76.733 229.91 76.9699C229.52 78.0399 228.91 78.43 228.06 78.13C227.018 77.7072 226.084 77.0543 225.33 76.2199C224.406 75.2828 223.55 74.2802 222.77 73.2199C222.267 72.5863 221.809 71.9179 221.4 71.2199C220.4 69.2199 219.4 67.2199 218.27 65.2999L217.9 64.6799C216.727 62.7999 215.583 60.7999 214.47 58.6799C214.4 59.4899 214.34 60.2899 214.27 61.0799C214.19 62.0799 214.11 63.01 214.04 63.95C213.913 67.87 213.977 71.8433 214.23 75.8699C214.427 76.4264 214.427 77.0335 214.23 77.5899C214.069 77.9344 213.798 78.2158 213.46 78.39C213.127 78.5907 212.771 78.7517 212.4 78.8699C211.91 78.6699 211.46 78.0199 211.04 76.9299C210.607 75.8001 210.256 74.6404 209.99 73.4599C209.776 72.6242 209.639 71.7706 209.58 70.91C209.7 68.61 209.76 66.3499 209.76 64.1099C209.68 62.3599 209.65 60.45 209.68 58.38C209.64 56.5443 209.747 54.7085 210 52.89Z" fill="black"/>
<path d="M248.73 48.69C248.87 48.53 249.04 48.54 249.22 48.69C249.436 48.909 249.617 49.1583 249.76 49.43C249.927 49.7554 250.078 50.0892 250.21 50.43C250.34 50.75 250.44 51 250.49 51.17C251.852 55.8468 252.855 60.6207 253.49 65.45C253.49 65.6 253.54 65.77 253.58 65.94C253.77 66.94 253.97 67.94 254.21 69.08L254.68 69.2C254.984 69.3333 255.262 69.5195 255.5 69.75C255.772 70.0091 256.026 70.2864 256.26 70.58C256.43 70.7937 256.587 71.0175 256.73 71.25C256.77 71.37 256.69 71.51 256.49 71.67C256.276 71.845 256.045 71.999 255.8 72.13L255.13 72.46L255.01 72.52C255.341 73.9595 255.765 75.3759 256.28 76.76C256.42 76.9266 256.525 77.1195 256.588 77.3274C256.652 77.5353 256.673 77.7538 256.65 77.97C256.59 78.1129 256.502 78.2422 256.39 78.35C256.24 78.51 256.07 78.68 255.88 78.85L255.4 79.26L255.28 79.35C254.76 79.46 254.2 79.19 253.6 78.55C252.958 77.8557 252.4 77.0869 251.94 76.26C251.506 75.5095 251.128 74.7273 250.81 73.92H250.73C249.357 73.8464 247.98 73.8731 246.61 74C246.1 74.09 245.37 74.21 244.42 74.35C243.47 74.49 242.53 74.61 241.59 74.69C240.89 74.7819 240.181 74.7819 239.48 74.69L239.21 75.16C239.08 75.39 238.94 75.62 238.8 75.84C238.617 76.5963 238.166 77.2606 237.53 77.71C237.108 77.9883 236.616 78.144 236.11 78.16C235.58 78.22 235.043 78.1964 234.52 78.09C234.383 77.3452 234.438 76.5776 234.68 75.86C234.94 74.66 235.26 73.43 235.68 72.17C235.042 71.557 234.438 70.9093 233.87 70.23C233.63 70.06 233.55 69.93 233.61 69.83C233.734 69.7108 233.899 69.643 234.07 69.64C234.316 69.6081 234.563 69.5914 234.81 69.59H235.39H235.47C235.81 69.59 236.16 69.59 236.52 69.59C236.834 68.7952 237.215 68.029 237.66 67.3C238.194 66.4145 238.643 65.4803 239 64.51C239.29 63.65 239.71 62.32 240.25 60.51C240.79 58.7 241.25 57.21 241.78 55.62C242.31 54.03 242.68 52.93 242.95 52.32C243.349 51.5207 243.94 50.8333 244.67 50.32C245.271 49.9556 245.921 49.6794 246.6 49.5C247.334 49.2973 248.047 49.0261 248.73 48.69ZM241.89 69.69C242.89 69.69 243.82 69.69 244.77 69.69C245.99 69.69 247.25 69.58 248.54 69.47L249.94 69.35C249.88 69.05 249.8 68.75 249.73 68.44C249.6 67.81 249.47 67.2 249.34 66.6C249.21 66 248.94 65.11 248.73 64.31C248.064 61.9233 247.464 59.5434 246.93 57.17C245.924 60.0767 244.804 62.9133 243.57 65.68C243.37 66.16 243.16 66.68 242.97 67.15L242.46 68.4C242.25 68.81 242.06 69.23 241.89 69.65V69.69Z" fill="black"/>
<path d="M268.14 71.48C268.51 71.48 268.71 71.54 268.74 71.67C268.77 71.8 268.74 71.96 268.54 72.17C268.175 72.5839 267.878 73.053 267.66 73.56C267.42 74.09 267.21 74.6199 267.01 75.1499C266.95 75.3399 266.88 75.5099 266.82 75.6799C266.721 76.2038 266.681 76.7371 266.7 77.2699C266.7 77.9299 266.7 78.48 266.78 78.92C266.89 79.04 266.94 79.1399 266.9 79.2099C266.856 79.2912 266.786 79.3549 266.7 79.39C266.497 79.4602 266.285 79.4973 266.07 79.5H265.13C264.81 79.5 264.57 79.5 264.41 79.5C263.987 79.4184 263.597 79.2131 263.29 78.91C262.82 78.5364 262.391 78.114 262.01 77.6499C261.65 77.1999 261.49 76.8699 261.54 76.6499C261.729 76.0264 261.837 75.3811 261.86 74.73C261.805 74.158 261.805 73.582 261.86 73.01C261.881 72.443 262.05 71.8914 262.35 71.41C263.179 71.0958 264.072 70.9927 264.95 71.1099C266.11 71.1999 267.11 71.2999 267.95 71.4299L268.14 71.48Z" fill="black"/>
<path d="M281.8 50.12C281.61 49.92 281.55 49.78 281.61 49.7C281.67 49.62 281.8 49.57 281.99 49.56C282.193 49.5404 282.397 49.5404 282.6 49.56C282.752 49.5779 282.903 49.608 283.05 49.65C284.46 49.8847 285.883 50.035 287.31 50.1C288.79 50.16 290.23 50.19 291.64 50.19H292.79C295.11 50.09 297.507 49.87 299.98 49.53L301.72 49.31C301.971 49.1949 302.244 49.1354 302.52 49.1354C302.796 49.1354 303.069 49.1949 303.32 49.31C303.751 49.501 304.141 49.7725 304.47 50.11C304.83 50.4372 305.165 50.7916 305.47 51.17C305.47 51.54 305.08 51.95 304.36 52.4C303.592 52.8765 302.782 53.2815 301.94 53.61C301.303 53.8941 300.63 54.0925 299.94 54.2C298.94 54.2 297.84 54.2 296.78 54.31C296.78 54.45 296.78 54.58 296.78 54.72C296.77 54.8282 296.75 54.9353 296.72 55.04C296.479 56.4923 296.332 57.9587 296.28 59.43C296.21 61.1 296.17 62.75 296.15 64.43C296.15 65.48 296.15 66.43 296.07 67.32C296.07 70.8133 296.197 74.3633 296.45 77.97C296.555 78.0766 296.614 78.2203 296.614 78.37C296.614 78.5196 296.555 78.6633 296.45 78.77C296.245 78.8073 296.035 78.8073 295.83 78.77L295.12 78.67C294.886 78.599 294.644 78.5586 294.4 78.55C293.925 78.3862 293.49 78.1231 293.125 77.7783C292.759 77.4334 292.471 77.0147 292.28 76.55C291.899 75.6895 291.695 74.7611 291.68 73.82C291.79 71.99 291.8 70.14 291.74 68.25C291.74 67.96 291.74 67.68 291.74 67.41C291.74 67.14 291.74 66.96 291.68 66.73C291.55 65.07 291.44 63.26 291.34 61.3C291.236 59.6336 291.266 57.9615 291.43 56.3C291.525 55.9817 291.682 55.6857 291.894 55.4297C292.105 55.1737 292.366 54.9629 292.66 54.81C290.754 55.0944 288.82 55.1482 286.9 54.97C285.782 54.5661 284.789 53.8766 284.02 52.97C283.192 52.0924 282.448 51.1381 281.8 50.12Z" fill="black"/>
<path d="M323.4 48.69C323.54 48.53 323.7 48.54 323.89 48.69C324.105 48.907 324.284 49.1568 324.42 49.43C324.595 49.7532 324.748 50.0872 324.88 50.43C325.01 50.75 325.1 51 325.16 51.17C326.527 55.8456 327.53 60.6198 328.16 65.45C328.16 65.6 328.22 65.77 328.26 65.94C328.44 66.94 328.65 67.94 328.89 69.08L329.36 69.2C329.664 69.3333 329.941 69.5195 330.18 69.75C330.452 70.0091 330.706 70.2864 330.94 70.58C331.11 70.7937 331.267 71.0175 331.41 71.25C331.45 71.37 331.37 71.51 331.17 71.67C330.955 71.845 330.724 71.999 330.48 72.13C330.21 72.27 329.99 72.38 329.8 72.46L329.69 72.52C330.021 73.9595 330.445 75.3759 330.96 76.76C331.1 76.9266 331.205 77.1195 331.268 77.3274C331.332 77.5353 331.353 77.7538 331.33 77.97C331.265 78.1129 331.174 78.2419 331.06 78.35C330.904 78.5265 330.737 78.6935 330.56 78.85L330.08 79.26C330.045 79.2962 330.005 79.3266 329.96 79.35C329.44 79.46 328.88 79.19 328.28 78.55C327.637 77.8557 327.08 77.0869 326.62 76.26C326.181 75.5116 325.803 74.7291 325.49 73.92H325.41C324.037 73.8463 322.66 73.873 321.29 74C320.78 74.09 320.05 74.21 319.1 74.35C318.15 74.49 317.21 74.61 316.27 74.69C315.57 74.7819 314.86 74.7819 314.16 74.69L313.89 75.16C313.76 75.39 313.62 75.62 313.48 75.84C313.293 76.5949 312.843 77.2581 312.21 77.71C311.787 77.9883 311.296 78.144 310.79 78.16C310.26 78.22 309.723 78.1964 309.2 78.09C309.051 77.3458 309.107 76.5753 309.36 75.86C309.62 74.66 309.94 73.43 310.36 72.17C309.722 71.557 309.117 70.9093 308.55 70.23C308.31 70.06 308.23 69.93 308.29 69.83C308.414 69.7108 308.578 69.643 308.75 69.64C308.995 69.6081 309.243 69.5914 309.49 69.59H310.07H310.15C310.49 69.59 310.84 69.59 311.2 69.59C311.51 68.7955 311.888 68.0293 312.33 67.3C312.867 66.4148 313.319 65.4806 313.68 64.51C313.97 63.65 314.39 62.32 314.93 60.51C315.47 58.7 315.93 57.21 316.46 55.62C316.79 54.4998 317.181 53.3982 317.63 52.32C318.025 51.5186 318.617 50.8304 319.35 50.32C319.951 49.9556 320.601 49.6794 321.28 49.5C322.01 49.2967 322.72 49.0255 323.4 48.69ZM316.56 69.69C317.56 69.69 318.48 69.69 319.43 69.69C320.66 69.69 321.91 69.58 323.2 69.47L324.61 69.35C324.54 69.05 324.47 68.75 324.39 68.44C324.26 67.81 324.13 67.2 324 66.6L323.4 64.31C322.733 61.9233 322.133 59.5434 321.6 57.17C320.587 60.0767 319.467 62.9133 318.24 65.68C318.027 66.16 317.827 66.65 317.64 67.15L317.13 68.4C316.92 68.81 316.73 69.23 316.56 69.65V69.69Z" fill="black"/>
<path d="M343.44 54.1599H342.71C341.99 54.1599 341.19 54.1599 340.34 54.1599C339.527 54.1323 338.719 54.0183 337.93 53.8199C337.245 53.5831 336.608 53.224 336.05 52.7599C335.609 52.4303 335.227 52.0279 334.92 51.5699C335.278 51.148 335.745 50.833 336.27 50.6599C336.69 50.5055 337.121 50.385 337.56 50.2999L337.77 50.2399C339.346 49.8086 340.961 49.534 342.59 49.4199C344.09 49.3299 345.77 49.3099 347.64 49.3599C349.962 49.4409 352.196 50.2686 354.01 51.7199C355.682 53.0279 356.923 54.8083 357.57 56.8299C358.197 58.7267 358.045 60.7943 357.15 62.5799C356.25 64.4199 354.4 65.8299 351.6 66.8099C352.11 67.6599 352.6 68.4599 353.07 69.1899L353.77 70.3399C355.024 72.1466 356.43 73.9766 357.99 75.8299L358.4 76.3399C358.563 76.4315 358.7 76.5631 358.798 76.7224C358.896 76.8816 358.952 77.0632 358.96 77.2499C358.949 77.4457 358.887 77.6351 358.78 77.7999C358.657 78.0139 358.516 78.2179 358.36 78.4099L357.97 78.8599C357.47 78.9692 356.947 78.8909 356.5 78.6399C355.852 78.352 355.235 77.9967 354.66 77.5799C354.163 77.2398 353.713 76.8364 353.32 76.3799C352.573 75.1529 351.744 73.977 350.84 72.8599C350.7 72.6599 350.53 72.4599 350.35 72.2499C349.79 71.5833 349.2 70.8533 348.58 70.0599C348.022 69.342 347.524 68.5795 347.09 67.7799C346.492 67.878 345.886 67.9115 345.28 67.8799C344.643 67.8589 344.011 67.7547 343.4 67.5699C343.32 68.8699 343.29 70.2799 343.32 71.7899C343.337 73.1611 343.434 74.5301 343.61 75.8899C343.722 76.089 343.783 76.312 343.79 76.5399C343.79 76.7571 343.756 76.9729 343.69 77.1799C343.575 77.3432 343.429 77.4825 343.26 77.5899C343.04 77.7399 342.81 77.8899 342.56 78.0299L341.97 78.3299C341.48 78.2099 340.97 77.7399 340.53 76.9099C340.041 76.0422 339.649 75.1233 339.36 74.1699C339.1 73.4523 338.942 72.7016 338.89 71.9399C338.99 70.6299 339.06 69.2899 339.1 67.9399C339.1 67.4666 339.12 66.9966 339.16 66.5299C339.16 65.1033 339.16 63.5233 339.16 61.7899C339.191 60.2585 339.331 58.7312 339.58 57.2199C339.901 56.4628 340.436 55.8162 341.12 55.3599C341.844 54.8696 342.622 54.4668 343.44 54.1599ZM343.77 64.3099L345 63.9999C346 63.7699 347.09 63.4699 348.26 63.1099C349.368 62.7815 350.435 62.3286 351.44 61.7599C352.305 61.3261 353.007 60.6247 353.44 59.7599C353.611 59.3582 353.699 58.9263 353.699 58.4899C353.699 58.0535 353.611 57.6216 353.44 57.2199C353.068 56.343 352.445 55.5952 351.65 55.0699C350.787 54.4757 349.758 54.1678 348.71 54.1899H346.84H344.98C345.001 54.4161 345.001 54.6437 344.98 54.8699C344.98 55.1099 344.98 55.2899 344.98 55.4199C344.98 55.5499 344.98 55.5399 344.98 55.5499C344.627 57.7899 344.32 60.0766 344.06 62.4099C343.93 63.0599 343.85 63.6899 343.77 64.3099Z" fill="black"/>
<path d="M368.89 50.1499C369.12 50.0499 369.28 50.0599 369.36 50.1499C369.442 50.321 369.473 50.5118 369.45 50.6999C369.439 50.921 369.415 51.1413 369.38 51.3599C369.38 51.5699 369.31 51.6999 369.3 51.7599C368.682 55.0677 368.238 58.4056 367.97 61.7599C369.69 61.9499 371.11 62.0699 372.23 62.1099C373.682 62.1373 375.135 62.0772 376.58 61.9299C376.58 60.1899 376.58 58.2599 376.58 56.1599C376.597 54.359 376.788 52.564 377.15 50.7999C377.349 50.3755 377.647 50.0056 378.02 49.7218C378.392 49.4379 378.828 49.2486 379.29 49.1699C380.283 48.9732 381.307 48.9971 382.29 49.2399C382.65 49.2899 382.83 49.3699 382.85 49.4899C382.854 49.6652 382.802 49.8371 382.7 49.9799C382.675 50.0086 382.658 50.043 382.65 50.0799C382.096 51.7671 381.733 53.5115 381.57 55.2799C381.31 57.4999 381.11 59.4999 380.97 61.2799V61.3899C381.439 61.4664 381.885 61.6513 382.27 61.9299C382.631 62.1833 382.966 62.4714 383.27 62.7899C383.427 62.9345 383.568 63.0954 383.69 63.2699C383.69 63.5699 383.38 63.9199 382.79 64.2699C382.142 64.7074 381.456 65.0856 380.74 65.3999C380.665 68.7738 380.782 72.1493 381.09 75.5099C381.315 76.0613 381.315 76.6786 381.09 77.2299C380.949 77.5638 380.694 77.8366 380.37 77.9999C380.054 78.1992 379.719 78.3667 379.37 78.4999C378.81 78.3299 378.3 77.6899 377.83 76.5599C377.348 75.3861 376.973 74.1712 376.71 72.9299C376.49 72.0475 376.35 71.1473 376.29 70.2399C376.38 68.9099 376.42 67.5899 376.42 66.2399C375.9 66.2399 375.42 66.2399 374.86 66.2399H373.3C371.374 66.4484 369.435 66.512 367.5 66.4299C367.381 69.6476 367.445 72.8694 367.69 76.0799C367.914 76.6452 367.914 77.2746 367.69 77.8399C367.514 78.1794 367.248 78.4633 366.92 78.6599C366.61 78.8851 366.274 79.0731 365.92 79.2199C365.41 79.0299 364.92 78.3799 364.49 77.2199C364.036 76.069 363.668 74.8857 363.39 73.6799C363.154 72.8137 363.007 71.9259 362.95 71.0299C363.06 69.4399 363.14 67.8499 363.18 66.2399C363.18 65.6799 363.18 65.1299 363.24 64.5799C362.244 63.571 361.359 62.458 360.6 61.2599C360.4 61.0399 360.34 60.8899 360.44 60.8099C360.595 60.7219 360.775 60.6901 360.95 60.7199C361.195 60.7279 361.438 60.7513 361.68 60.7899L362.11 60.8499L362.65 60.9499L363.2 61.0299C363.2 59.6399 363.26 58.2599 363.33 56.8899C363.384 55.6583 363.525 54.4319 363.75 53.2199C364.125 52.2662 364.836 51.4833 365.75 51.0199C366.748 50.5777 367.806 50.2846 368.89 50.1499Z" fill="black"/>
<path d="M394.36 49.76C394.56 49.69 394.7 49.7 394.78 49.76C394.855 49.9045 394.88 50.0699 394.85 50.23C394.829 50.4497 394.789 50.6671 394.73 50.88C394.66 51.1 394.6 51.29 394.54 51.45C394.515 51.5441 394.478 51.6347 394.43 51.72C394.018 53.1068 393.684 54.5157 393.43 55.94C393.024 57.9681 392.737 60.0182 392.57 62.08C392.377 64.1346 392.417 66.2045 392.69 68.25C392.819 69.8523 393.473 71.3673 394.55 72.56C395.33 73.2291 396.234 73.7387 397.21 74.06C398.134 74.379 399.103 74.5511 400.08 74.57C401.3 74.57 402.08 74.42 402.3 73.99C402.593 73.2889 402.683 72.5197 402.56 71.77C402.56 71.23 402.56 70.57 402.56 69.77C402.73 67.77 402.82 65.63 402.83 63.52V63.41C402.84 63.3303 402.84 63.2497 402.83 63.17C402.74 61.54 402.68 59.79 402.64 57.92C402.592 56.2505 402.663 54.5796 402.85 52.92C403.174 51.9362 403.842 51.102 404.73 50.57C405.638 50.0256 406.627 49.6305 407.66 49.4C407.87 49.27 408.01 49.27 408.1 49.4C408.189 49.5765 408.23 49.7728 408.22 49.97C408.219 50.2009 408.203 50.4314 408.17 50.66C408.17 50.88 408.1 51.02 408.09 51.07C407.7 53.9392 407.453 56.8261 407.35 59.72C407.28 60.95 407.21 62.14 407.13 63.3C407.05 65.5867 407.01 67.92 407.01 70.3C407.01 71.89 407.01 73.46 407.01 75.01C407.169 75.6337 407.087 76.2941 406.78 76.86C406.57 77.206 406.255 77.4758 405.88 77.63C405.506 77.8267 405.105 77.9682 404.69 78.05C404.476 77.9121 404.322 77.6975 404.26 77.45C403.094 78.0953 401.8 78.4775 400.47 78.57C399.04 78.6935 397.599 78.5024 396.25 78.01C395.469 77.699 394.725 77.3033 394.03 76.83C393.305 76.3647 392.619 75.8395 391.98 75.26C390.722 73.9806 389.777 72.4265 389.22 70.72C388.629 68.9708 388.243 67.1586 388.07 65.32C387.909 63.7288 387.848 62.1289 387.89 60.53C387.927 58.2972 388.182 56.0734 388.65 53.89C389.069 52.7026 389.84 51.6711 390.86 50.9331C391.881 50.1952 393.102 49.786 394.36 49.76Z" fill="black"/>
<path d="M412.87 52.89C413.228 52.0054 413.803 51.2249 414.54 50.6199C415.229 49.9726 416.118 49.5808 417.06 49.51C417.93 49.51 418.58 50.0399 419.06 51.2099C419.61 52.7599 420.25 54.34 420.98 55.97C421.71 57.6 422.46 59.1899 423.22 60.7799L424.28 63.01C425.367 65.1233 426.564 67.2966 427.87 69.5299C427.87 67.8499 427.87 66.16 427.87 64.45C427.87 62.74 427.72 60.7599 427.69 58.6799C427.647 56.8095 427.734 54.9383 427.95 53.0799C428.275 52.052 428.942 51.1662 429.84 50.57C430.764 49.9614 431.776 49.4993 432.84 49.2C433.09 49.04 433.25 49.0699 433.32 49.2799C433.399 49.5423 433.426 49.8173 433.4 50.0899C433.4 50.4199 433.4 50.68 433.33 50.88V50.9899C432.83 54.7699 432.497 58.6466 432.33 62.6199C432.33 63.1499 432.26 63.68 432.23 64.2C432.18 65.92 432.23 67.7899 432.23 69.8099C432.23 71.8299 432.46 73.7299 432.67 75.4899C432.788 75.7168 432.856 75.9661 432.87 76.2213C432.884 76.4765 432.843 76.7317 432.75 76.9699C432.36 78.0399 431.75 78.43 430.89 78.13C429.851 77.7068 428.921 77.0538 428.17 76.2199C427.243 75.2828 426.384 74.2802 425.6 73.2199C425.101 72.5836 424.643 71.9155 424.23 71.2199C423.23 69.2199 422.23 67.2199 421.11 65.2999L420.73 64.6799C419.564 62.7999 418.42 60.7999 417.3 58.6799C417.23 59.4899 417.17 60.2899 417.1 61.0799C417.02 62.0799 416.95 63.01 416.87 63.95C416.744 67.87 416.807 71.8433 417.06 75.8699C417.257 76.4264 417.257 77.0335 417.06 77.5899C416.903 77.9366 416.631 78.2189 416.29 78.39C415.957 78.5907 415.601 78.7517 415.23 78.8699C414.75 78.6699 414.29 78.0199 413.87 76.9299C413.454 75.7988 413.12 74.6391 412.87 73.4599C412.657 72.6242 412.519 71.7706 412.46 70.91C412.58 68.61 412.64 66.3499 412.64 64.1099C412.56 62.3599 412.54 60.45 412.56 58.38C412.517 56.5446 412.621 54.7088 412.87 52.89Z" fill="black"/>
</svg>
