<svg width="656" height="196" viewBox="0 0 656 196" fill="none" xmlns="http://www.w3.org/2000/svg">
<path d="M24.3999 151.75C27.2107 150.423 30.2922 149.769 33.3999 149.84C36.1469 149.789 38.8797 150.246 41.4599 151.19C43.6498 151.994 45.6027 153.335 47.1399 155.09C48.619 156.827 49.6217 158.919 50.0499 161.16H65.6899C65.2162 156.442 63.4554 151.945 60.5999 148.16C57.6548 144.334 53.7685 141.337 49.3199 139.46C44.3 137.334 38.8908 136.281 33.4399 136.37C27.5192 136.246 21.651 137.503 16.2999 140.04C11.5555 142.31 7.56367 145.895 4.79992 150.37C2.13079 155.049 0.727051 160.343 0.727051 165.73C0.727051 171.117 2.13079 176.411 4.79992 181.09C7.56367 185.565 11.5555 189.15 16.2999 191.42C21.651 193.957 27.5192 195.214 33.4399 195.09C38.9042 195.184 44.3276 194.132 49.3599 192C53.8085 190.123 57.6948 187.126 60.6399 183.3C63.4954 179.515 65.2562 175.018 65.7299 170.3H50.0899C49.688 172.588 48.6913 174.729 47.1999 176.51C45.6771 178.246 43.7356 179.565 41.5599 180.34C38.9512 181.248 36.2017 181.685 33.4399 181.63C30.3323 181.701 27.2507 181.047 24.4399 179.72C21.9733 178.519 19.9322 176.593 18.5899 174.2C17.2475 171.568 16.5477 168.655 16.5477 165.7C16.5477 162.745 17.2475 159.832 18.5899 157.2C19.9318 154.838 21.9574 152.938 24.3999 151.75Z" fill="black"/>
<path d="M118.34 158.43H89.57V137.61H74.01V193.86H89.57V172.15H118.34V193.86H133.9V137.61H118.34V158.43Z" fill="black"/>
<path d="M193.52 140.05C188.005 137.624 182.045 136.371 176.02 136.371C169.995 136.371 164.035 137.624 158.52 140.05C153.689 142.293 149.607 145.879 146.76 150.38C144.036 155.041 142.6 160.342 142.6 165.74C142.6 171.138 144.036 176.439 146.76 181.1C149.607 185.601 153.689 189.187 158.52 191.43C164.035 193.856 169.995 195.109 176.02 195.109C182.045 195.109 188.005 193.856 193.52 191.43C198.342 189.175 202.422 185.591 205.28 181.1C208.017 176.444 209.46 171.141 209.46 165.74C209.46 160.339 208.017 155.036 205.28 150.38C202.422 145.889 198.342 142.305 193.52 140.05ZM191.59 174C190.123 176.357 187.98 178.218 185.44 179.34C179.412 181.82 172.648 181.82 166.62 179.34C164.085 178.218 161.949 176.357 160.49 174C159.089 171.476 158.354 168.637 158.354 165.75C158.354 162.863 159.089 160.024 160.49 157.5C161.946 155.141 164.083 153.279 166.62 152.16C172.648 149.68 179.412 149.68 185.44 152.16C187.982 153.279 190.126 155.14 191.59 157.5C193.006 160.019 193.749 162.86 193.749 165.75C193.749 168.64 193.006 171.481 191.59 174Z" fill="black"/>
<path d="M214.86 132.66L224.99 146.84H239.16L229.75 132.66H214.86Z" fill="black"/>
<path d="M268.22 151.75C271.032 150.425 274.113 149.772 277.22 149.84C279.967 149.788 282.7 150.245 285.28 151.19C287.47 151.994 289.423 153.335 290.96 155.09C292.446 156.823 293.45 158.916 293.87 161.16H309.51C309.04 156.443 307.282 151.946 304.43 148.16C301.48 144.335 297.591 141.338 293.14 139.46C288.12 137.334 282.711 136.281 277.26 136.37C271.339 136.246 265.471 137.503 260.12 140.04C255.376 142.307 251.387 145.894 248.63 150.37C245.961 155.049 244.557 160.343 244.557 165.73C244.557 171.117 245.961 176.411 248.63 181.09C251.387 185.566 255.376 189.153 260.12 191.42C265.471 193.957 271.339 195.214 277.26 195.09C282.724 195.184 288.148 194.132 293.18 192C297.631 190.122 301.52 187.125 304.47 183.3C307.322 179.514 309.08 175.017 309.55 170.3H293.91C293.512 172.589 292.515 174.732 291.02 176.51C289.497 178.246 287.556 179.565 285.38 180.34C282.771 181.249 280.022 181.686 277.26 181.63C274.153 181.698 271.072 181.045 268.26 179.72C265.793 178.519 263.752 176.593 262.41 174.2C261.074 171.566 260.378 168.654 260.378 165.7C260.378 162.746 261.074 159.834 262.41 157.2C263.752 154.838 265.777 152.938 268.22 151.75Z" fill="black"/>
<path d="M366.29 140.05C360.774 137.626 354.815 136.374 348.79 136.374C342.765 136.374 336.806 137.626 331.29 140.05C326.461 142.295 322.379 145.881 319.53 150.38C316.806 155.041 315.37 160.342 315.37 165.74C315.37 171.138 316.806 176.439 319.53 181.1C322.379 185.599 326.461 189.185 331.29 191.43C336.806 193.854 342.765 195.106 348.79 195.106C354.815 195.106 360.774 193.854 366.29 191.43C371.153 189.125 375.261 185.487 378.138 180.94C381.015 176.392 382.542 171.121 382.542 165.74C382.542 160.359 381.015 155.088 378.138 150.54C375.261 145.993 371.153 142.355 366.29 140.05ZM364.35 174C362.883 176.357 360.74 178.218 358.2 179.34C352.172 181.82 345.408 181.82 339.38 179.34C336.845 178.218 334.709 176.357 333.25 174C331.849 171.476 331.114 168.637 331.114 165.75C331.114 162.863 331.849 160.024 333.25 157.5C334.706 155.141 336.843 153.279 339.38 152.16C345.408 149.68 352.172 149.68 358.2 152.16C360.742 153.279 362.886 155.14 364.35 157.5C365.766 160.019 366.509 162.86 366.509 165.75C366.509 168.64 365.766 171.481 364.35 174Z" fill="black"/>
<path d="M406.52 137.61H390.96V193.86H441.62V180.03H406.52V137.61Z" fill="black"/>
<path d="M469.48 137.61L443.87 193.86H460.48L465.17 183H494.23L498.92 193.83H515.5L489.92 137.58L469.48 137.61ZM470.57 170.54L479.69 149.45L488.82 170.54H470.57Z" fill="black"/>
<path d="M567.1 141.12C561.599 138.688 555.633 137.49 549.62 137.61H521.53V193.86H549.62C555.632 193.983 561.599 192.788 567.1 190.36C571.868 188.256 575.938 184.836 578.83 180.5C581.556 176.06 583 170.951 583 165.74C583 160.529 581.556 155.421 578.83 150.98C575.938 146.644 571.868 143.224 567.1 141.12ZM565.28 173.31C563.905 175.509 561.907 177.249 559.54 178.31C556.785 179.533 553.793 180.131 550.78 180.06H537V151.45H550.76C553.773 151.379 556.765 151.977 559.52 153.2C561.887 154.26 563.886 156 565.26 158.2C566.57 160.51 567.259 163.12 567.259 165.775C567.259 168.43 566.57 171.04 565.26 173.35L565.28 173.31Z" fill="black"/>
<path d="M638.16 193.86H654.73L629.16 137.61H608.72L583.11 193.86H599.72L604.41 183H633.46L638.16 193.86ZM609.81 170.54L618.92 149.45L628.06 170.54H609.81Z" fill="black"/>
<path d="M33.48 120.5C27.483 120.614 21.541 119.338 16.12 116.77C11.2912 114.459 7.22958 110.807 4.42004 106.25C1.60714 101.532 0.169667 96.1219 0.270042 90.6301C0.16726 85.1348 1.60484 79.7206 4.42004 75.0001C7.22958 70.4432 11.2912 66.7912 16.12 64.4801C21.541 61.9126 27.483 60.6359 33.48 60.7501C39 60.6682 44.4764 61.7376 49.56 63.8901C54.0689 65.8203 58.0076 68.8742 61 72.7601C63.917 76.6136 65.7224 81.1927 66.22 86.0001L66.28 86.5601H49.68L49.6001 86.1601C49.1874 84.001 48.2228 81.9856 46.8 80.3101C45.3136 78.6216 43.4303 77.3294 41.3201 76.5501C38.7963 75.6315 36.1254 75.1841 33.44 75.2301C30.3957 75.159 27.3764 75.7957 24.62 77.0901C22.2515 78.2491 20.2915 80.1011 19 82.4001C17.7053 84.9503 17.0305 87.77 17.0305 90.6301C17.0305 93.4901 17.7053 96.3099 19 98.8601C20.2941 101.161 22.2578 103.013 24.63 104.17C27.3849 105.469 30.4053 106.106 33.45 106.03C36.1506 106.085 38.8393 105.659 41.39 104.77C43.4856 104.024 45.3575 102.757 46.83 101.09C48.2699 99.3704 49.229 97.3003 49.61 95.0901L49.68 94.6901H66.29L66.23 95.2501C65.733 100.065 63.924 104.652 61 108.51C57.994 112.394 54.0411 115.441 49.5201 117.36C44.4488 119.507 38.9865 120.576 33.48 120.5ZM33.48 61.7701C27.6352 61.6547 21.8432 62.8973 16.56 65.4001C11.9009 67.6256 7.98138 71.1459 5.27004 75.5401C2.55872 80.1 1.17345 85.3259 1.27004 90.6301C1.17212 95.9376 2.55742 101.167 5.27004 105.73C7.98138 110.124 11.9009 113.645 16.56 115.87C21.8432 118.373 27.6352 119.615 33.48 119.5C38.858 119.596 44.1974 118.575 49.16 116.5C53.5262 114.644 57.3441 111.7 60.25 107.95C62.9335 104.391 64.6275 100.185 65.16 95.7601H50.4901C50.037 97.972 49.0365 100.035 47.58 101.76C46.0054 103.573 43.9908 104.951 41.73 105.76C39.0667 106.688 36.2598 107.135 33.44 107.08C30.2399 107.142 27.0693 106.457 24.18 105.08C21.6244 103.832 19.5078 101.837 18.11 99.3601C16.7365 96.6586 16.0205 93.6707 16.0205 90.6401C16.0205 87.6094 16.7365 84.6216 18.11 81.9201C19.5068 79.4447 21.624 77.4531 24.18 76.2101C27.0693 74.8327 30.2399 74.1479 33.44 74.2101C36.249 74.1609 39.0427 74.6322 41.68 75.6001C43.9425 76.4231 45.9636 77.798 47.56 79.6001C49.0065 81.2962 50.0128 83.3226 50.4901 85.5001H65.16C64.6257 81.0752 62.9319 76.87 60.25 73.3101C57.3441 69.5598 53.5262 66.6163 49.16 64.7601C44.1967 62.6888 38.8573 61.6707 33.48 61.7701Z" fill="black"/>
<path d="M134.4 119.26H117.84V97.5501H90.07V119.26H73.51V62.0001H90.07V82.8201H117.84V62.0001H134.4V119.26ZM118.84 118.26H133.4V63.0001H118.84V83.8201H89.07V63.0001H74.51V118.25H89.07V96.5501H118.84V118.26Z" fill="black"/>
<path d="M176.05 120.5C169.94 120.613 163.885 119.337 158.34 116.77C153.416 114.488 149.251 110.84 146.34 106.26C143.468 101.56 141.997 96.1374 142.1 90.63C142.009 85.1187 143.493 79.6959 146.38 75C149.291 70.42 153.456 66.7721 158.38 64.49C163.957 62.0303 169.985 60.7599 176.08 60.7599C182.175 60.7599 188.203 62.0303 193.78 64.49C198.669 66.7933 202.803 70.4381 205.7 75C208.598 79.692 210.09 85.1161 210 90.63C210.101 96.1398 208.623 101.563 205.74 106.26C202.821 110.833 198.658 114.479 193.74 116.77C188.202 119.338 182.153 120.614 176.05 120.5ZM176.05 61.77C170.089 61.6551 164.181 62.8963 158.77 65.4C154.03 67.607 150.022 71.1259 147.22 75.54C144.455 80.0807 143.04 85.3147 143.14 90.63C143.038 95.9487 144.453 101.186 147.22 105.73C150.022 110.144 154.03 113.663 158.77 115.87C164.213 118.264 170.094 119.5 176.04 119.5C181.986 119.5 187.867 118.264 193.31 115.87C198.044 113.655 202.05 110.138 204.86 105.73C207.634 101.189 209.056 95.9507 208.96 90.63C209.054 85.3127 207.632 80.0786 204.86 75.54C202.05 71.1325 198.044 67.6155 193.31 65.4C187.907 62.8953 182.004 61.6539 176.05 61.77ZM176.05 106.58C172.737 106.654 169.447 106.005 166.41 104.68C163.787 103.514 161.575 101.588 160.06 99.15C158.616 96.5497 157.859 93.6244 157.859 90.65C157.859 87.6757 158.616 84.7504 160.06 82.15C161.575 79.7124 163.787 77.7859 166.41 76.62C172.571 74.0732 179.49 74.0732 185.65 76.62C188.263 77.7861 190.473 79.6999 192 82.12C193.457 84.7162 194.222 87.6431 194.222 90.62C194.222 93.597 193.457 96.5239 192 99.12C190.472 101.554 188.255 103.479 185.63 104.65C182.615 105.982 179.346 106.641 176.05 106.58ZM176.05 75.68C172.882 75.6067 169.735 76.2243 166.83 77.49C164.386 78.5813 162.325 80.3782 160.91 82.65C159.554 85.0983 158.842 87.8512 158.842 90.65C158.842 93.4489 159.554 96.2017 160.91 98.65C162.322 100.921 164.385 102.716 166.83 103.8C172.726 106.213 179.334 106.213 185.23 103.8C187.679 102.714 189.748 100.92 191.17 98.65C192.539 96.206 193.258 93.4514 193.258 90.65C193.258 87.8486 192.539 85.0941 191.17 82.65C189.745 80.3792 187.678 78.5831 185.23 77.49C182.338 76.226 179.205 75.6083 176.05 75.68Z" fill="black"/>
<path d="M240.09 72.2301H224.73L213.89 57.0601H230L240.09 72.2301ZM225.24 71.2301H238.24L229.49 58.0601H215.83L225.24 71.2301Z" fill="black"/>
<path d="M277.3 120.5C271.303 120.612 265.362 119.335 259.94 116.77C255.115 114.454 251.054 110.803 248.24 106.25C245.43 101.531 243.996 96.121 244.1 90.6301C243.994 85.1357 245.428 79.7214 248.24 75.0001C251.054 70.4472 255.115 66.7964 259.94 64.4801C265.362 61.9147 271.303 60.6381 277.3 60.7501C282.82 60.6682 288.296 61.7376 293.38 63.8901C297.904 65.8085 301.86 68.8557 304.87 72.7401C307.776 76.6036 309.568 81.1897 310.05 86.0001L310.11 86.5601H293.5L293.42 86.1601C293.011 84.0017 292.05 81.9862 290.63 80.3101C289.138 78.6234 287.252 77.3317 285.14 76.5501C282.617 75.6297 279.945 75.1822 277.26 75.2301C274.219 75.1591 271.203 75.7958 268.45 77.0901C266.074 78.2458 264.107 80.0981 262.81 82.4001C261.521 84.9522 260.85 87.7711 260.85 90.6301C260.85 93.489 261.521 96.308 262.81 98.8601C264.104 101.164 266.072 103.018 268.45 104.17C271.201 105.469 274.218 106.106 277.26 106.03C279.964 106.085 282.656 105.658 285.21 104.77C287.305 104.028 289.174 102.761 290.64 101.09C292.08 99.3704 293.039 97.3003 293.42 95.0901L293.5 94.6901H310.11L310.05 95.2501C309.564 100.053 307.773 104.632 304.87 108.49C301.86 112.374 297.904 115.422 293.38 117.34C288.298 119.499 282.821 120.576 277.3 120.5ZM277.3 61.7701C271.455 61.6547 265.663 62.8973 260.38 65.4001C255.721 67.6256 251.801 71.1459 249.09 75.5401C246.379 80.0999 244.993 85.3259 245.09 90.6301C244.992 95.9376 246.377 101.167 249.09 105.73C251.801 110.124 255.721 113.645 260.38 115.87C265.663 118.373 271.455 119.615 277.3 119.5C282.678 119.597 288.018 118.576 292.98 116.5C297.349 114.649 301.168 111.704 304.07 107.95C306.769 104.379 308.47 100.155 309 95.7101H294.32C293.859 97.9212 292.856 99.9831 291.4 101.71C289.825 103.523 287.811 104.901 285.55 105.71C282.887 106.639 280.08 107.086 277.26 107.03C274.06 107.091 270.89 106.406 268 105.03C265.446 103.783 263.333 101.788 261.94 99.3101C260.566 96.6085 259.85 93.6207 259.85 90.5901C259.85 87.5594 260.566 84.5716 261.94 81.8701C263.341 79.411 265.453 77.4342 268 76.2001C270.89 74.8238 274.06 74.139 277.26 74.2001C280.069 74.1509 282.863 74.6222 285.5 75.5901C287.764 76.4108 289.785 77.7861 291.38 79.5901C292.83 81.2837 293.837 83.3111 294.31 85.4901H309C308.466 81.0652 306.772 76.86 304.09 73.3001C301.178 69.5733 297.36 66.6539 293 64.8201C288.035 62.7244 282.688 61.6857 277.3 61.7701Z" fill="black"/>
<path d="M348.81 120.5C342.701 120.612 336.645 119.336 331.1 116.77C326.176 114.488 322.011 110.84 319.1 106.26C316.228 101.56 314.757 96.1374 314.86 90.63C314.769 85.1187 316.254 79.6959 319.14 75C322.051 70.42 326.216 66.7721 331.14 64.49C336.717 62.0303 342.745 60.7599 348.84 60.7599C354.935 60.7599 360.963 62.0303 366.54 64.49C371.457 66.782 375.62 70.4277 378.54 75C381.414 79.6964 382.888 85.1151 382.79 90.62C382.887 96.128 381.412 101.549 378.54 106.25C375.62 110.822 371.457 114.468 366.54 116.76C360.991 119.339 354.928 120.618 348.81 120.5ZM348.81 61.77C342.85 61.6561 336.941 62.8973 331.53 65.4C326.799 67.613 322.799 71.131 320 75.54C317.235 80.0807 315.82 85.3147 315.92 90.63C315.818 95.9487 317.233 101.186 320 105.73C322.805 110.142 326.812 113.66 331.55 115.87C336.993 118.264 342.874 119.5 348.82 119.5C354.766 119.5 360.647 118.264 366.09 115.87C370.824 113.655 374.83 110.138 377.64 105.73C380.414 101.189 381.836 95.9507 381.74 90.63C381.834 85.3127 380.412 80.0786 377.64 75.54C374.825 71.1296 370.812 67.6123 366.07 65.4C360.667 62.8953 354.764 61.6539 348.81 61.77ZM348.81 106.58C345.497 106.654 342.208 106.005 339.17 104.68C336.547 103.514 334.335 101.588 332.82 99.15C331.376 96.5497 330.619 93.6244 330.619 90.65C330.619 87.6757 331.376 84.7504 332.82 82.15C334.335 79.7124 336.547 77.7859 339.17 76.62C345.334 74.0738 352.256 74.0738 358.42 76.62C361.042 77.791 363.256 79.7161 364.78 82.15C366.237 84.7462 367.002 87.6731 367.002 90.65C367.002 93.627 366.237 96.5539 364.78 99.15C363.256 101.584 361.042 103.509 358.42 104.68C355.393 106.003 352.113 106.652 348.81 106.58ZM348.81 75.68C345.642 75.6067 342.495 76.2243 339.59 77.49C337.146 78.5813 335.085 80.3782 333.67 82.65C332.314 85.0983 331.602 87.8512 331.602 90.65C331.602 93.4489 332.314 96.2017 333.67 98.65C335.082 100.921 337.145 102.716 339.59 103.8C345.486 106.213 352.094 106.213 357.99 103.8C360.439 102.714 362.508 100.92 363.93 98.65C365.299 96.206 366.018 93.4514 366.018 90.65C366.018 87.8486 365.299 85.0941 363.93 82.65C362.508 80.3807 360.444 78.5848 358 77.49C355.105 76.2246 351.969 75.6068 348.81 75.68Z" fill="black"/>
<path d="M442.12 119.26H390.46V62.0001H407V104.41H442.1L442.12 119.26ZM391.46 118.26H441.12V105.42H406V63.0001H391.46V118.26Z" fill="black"/>
<path d="M516.27 119.26H498.59L493.9 108.42H465.5L460.81 119.26H443.1L469.16 62.0001H490.24L490.38 62.2901L516.27 119.26ZM499.27 118.26H514.74L489.6 63.0001H469.81L444.65 118.25H460.16L464.84 107.41H494.56L499.27 118.26ZM489.6 95.9301H469.81L479.69 73.0901L489.6 95.9301ZM471.35 94.9301H488.08L479.71 75.6101L471.35 94.9301Z" fill="black"/>
<path d="M549.62 119.26H521V62.0001H549.59C555.674 61.8879 561.71 63.0992 567.28 65.5501C572.126 67.6871 576.266 71.1546 579.22 75.5501C582.086 80.0212 583.564 85.2402 583.47 90.5501C583.564 95.8598 582.085 101.079 579.22 105.55C576.266 109.945 572.126 113.413 567.28 115.55C561.732 118.052 555.706 119.318 549.62 119.26ZM522.03 118.26H549.62C555.56 118.377 561.454 117.196 566.89 114.8C571.573 112.732 575.572 109.375 578.42 105.12C581.179 100.798 582.599 95.7567 582.5 90.6301C582.597 85.5068 581.177 80.4692 578.42 76.1501C575.572 71.8955 571.573 68.5383 566.89 66.4701C561.454 64.0706 555.561 62.8864 549.62 63.0001H522L522.03 118.26ZM550.78 105.42H536.52V75.8501H550.78C553.875 75.7776 556.948 76.3888 559.78 77.6401C562.249 78.7252 564.338 80.5217 565.78 82.8001C567.143 85.1864 567.859 87.887 567.859 90.6351C567.859 93.3831 567.143 96.0837 565.78 98.4701C564.338 100.748 562.249 102.545 559.78 103.63C556.948 104.881 553.875 105.492 550.78 105.42ZM537.52 104.42H550.78C553.719 104.485 556.637 103.908 559.33 102.73C561.59 101.722 563.508 100.079 564.85 98.0001C566.115 95.7695 566.78 93.2492 566.78 90.6851C566.78 88.1209 566.115 85.6006 564.85 83.3701C563.515 81.2726 561.597 79.6112 559.33 78.5901C556.637 77.4119 553.719 76.8352 550.78 76.9001H537.52V104.42Z" fill="black"/>
<path d="M655.51 119.26H637.83L633.14 108.42H604.73L600.05 119.26H582.33L608.4 62.0001H629.48L629.61 62.2901L655.51 119.26ZM638.51 118.26H654L628.84 63.0001H609L583.85 118.25H599.35L604.04 107.41H633.75L638.51 118.26ZM628.84 95.9301H609L618.88 73.0901L628.84 95.9301ZM610.59 94.9301H627.31L618.94 75.6101L610.59 94.9301Z" fill="black"/>
<g opacity="0.5">
<path d="M33.48 45.0601C27.5212 45.1786 21.6161 43.912 16.2301 41.3601C11.4457 39.0687 7.41961 35.4521 4.63005 30.94C1.84617 26.2594 0.422852 20.8951 0.520046 15.45C0.430308 10.0185 1.85336 4.66907 4.63005 4.76837e-05C7.41961 -4.51203 11.4457 -8.12856 16.2301 -10.42C21.6161 -12.9719 27.5212 -14.2385 33.48 -14.12C38.9713 -14.2037 44.42 -13.1446 49.48 -11.01C53.9626 -9.10593 57.881 -6.08271 60.8601 -2.22995C63.7344 1.5796 65.5118 6.10283 66 10.85V11.13H49.8801V10.92C49.4482 8.73084 48.4559 6.69108 47 5.00005C45.4854 3.28158 43.5682 1.96562 41.42 1.17005C38.8577 0.239046 36.1458 -0.211815 33.42 -0.159952C30.337 -0.231825 27.2796 0.415265 24.49 1.73005C22.0693 2.90515 20.0663 4.79305 18.75 7.14005C17.374 9.70414 16.6849 12.5808 16.75 15.49C16.6849 18.3993 17.374 21.276 18.75 23.84C20.0663 26.187 22.0693 28.0749 24.49 29.25C27.2781 30.5694 30.3366 31.2167 33.42 31.14C36.1414 31.1901 38.8501 30.7567 41.42 29.8601C43.5767 29.1009 45.4994 27.795 47 26.07C48.4641 24.3317 49.4437 22.238 49.84 20V19.8H66V20.07C65.5219 24.8302 63.7476 29.3681 60.87 33.19C57.8864 37.0579 53.9569 40.092 49.4601 42C44.4025 44.1148 38.9611 45.1568 33.48 45.0601ZM33.48 -13.66C27.6078 -13.7699 21.7896 -12.5207 16.4801 -10.01C11.768 -7.77031 7.80263 -4.21813 5.06005 0.220048C2.33337 4.82471 0.94792 10.0998 1.06005 15.45C0.94792 20.8003 2.33337 26.0754 5.06005 30.68C7.79457 35.1139 11.7491 38.6656 16.45 40.91C21.7596 43.4208 27.5778 44.67 33.45 44.5601C38.8662 44.6437 44.2403 43.5981 49.23 41.4901C53.6334 39.6215 57.483 36.6533 60.4101 32.87C63.18 29.2002 64.9075 24.8504 65.41 20.28H50.29C49.8647 22.5322 48.8659 24.6366 47.39 26.39C45.8419 28.1642 43.861 29.5078 41.64 30.2901C39.0061 31.2098 36.2295 31.6534 33.4401 31.6C30.2805 31.6755 27.1471 31.0112 24.2901 29.66C21.7637 28.4472 19.6697 26.4893 18.2901 24.05C16.8742 21.4086 16.1646 18.4463 16.2301 15.45C16.1646 12.4538 16.8742 9.49147 18.2901 6.85005C19.6697 4.41078 21.7637 2.45288 24.2901 1.24005C27.1471 -0.111095 30.2805 -0.775448 33.4401 -0.699952C36.218 -0.749711 38.9811 -0.285232 41.59 0.670048C43.8207 1.49944 45.8079 2.87467 47.37 4.67005C48.8334 6.39207 49.8378 8.45596 50.29 10.67H65.44C64.9393 6.09622 63.2117 1.74275 60.4401 -1.92995C57.513 -5.71324 53.6634 -8.68139 49.26 -10.55C44.2733 -12.6717 38.899 -13.7309 33.48 -13.66Z" fill="black"/>
<path d="M134.15 43.8301H118.09V22.1101H89.82V43.8301H73.76V-12.9199H89.82V7.89008H118.09V-12.9199H134.15V43.8301ZM118.59 43.3301H133.65V-12.4199H118.59V8.39008H89.32V-12.4199H74.26V43.3301H89.32V21.6101H118.59V43.3301Z" fill="black"/>
<path d="M176.05 45.0601C169.979 45.1787 163.96 43.9134 158.45 41.3601C153.579 39.0962 149.462 35.4791 146.59 30.9401C143.746 26.281 142.289 20.9077 142.39 15.4501C142.297 10.006 143.753 4.6476 146.59 5.91278e-05C149.462 -4.53895 153.579 -8.15608 158.45 -10.4199C163.993 -12.86 169.984 -14.1201 176.04 -14.1201C182.097 -14.1201 188.087 -12.86 193.63 -10.4199C198.494 -8.14474 202.608 -4.53014 205.49 5.91278e-05C208.345 4.65547 209.809 10.03 209.71 15.4901C209.809 20.9501 208.345 26.3246 205.49 30.9801C202.608 35.5103 198.494 39.1249 193.63 41.4001C188.124 43.94 182.112 45.1917 176.05 45.0601ZM176.05 -13.6599C170.051 -13.7697 164.106 -12.5183 158.66 -9.99994C153.877 -7.77185 149.832 -4.22226 147 0.230059C144.207 4.80821 142.778 10.0881 142.88 15.4501C142.776 20.8122 144.206 26.0926 147 30.6701C149.824 35.1272 153.868 38.681 158.65 40.9101C164.097 43.425 170.042 44.6729 176.04 44.5601C182.032 44.6741 187.971 43.426 193.41 40.9101C198.189 38.6753 202.231 35.1228 205.06 30.6701C207.864 26.0958 209.301 20.8145 209.2 15.4501C209.304 10.0866 207.871 4.80538 205.07 0.230059C202.236 -4.21645 198.196 -7.76465 193.42 -9.99994C187.982 -12.5193 182.043 -13.7708 176.05 -13.6599ZM176.05 31.1501C172.771 31.2246 169.516 30.583 166.51 29.2701C163.934 28.1198 161.761 26.2253 160.27 23.8301C158.78 21.2934 158.029 18.391 158.1 15.4501C158.029 12.5091 158.78 9.60671 160.27 7.07006C161.761 4.67482 163.934 2.78028 166.51 1.63006C172.597 -0.870391 179.424 -0.870391 185.51 1.63006C188.09 2.78213 190.269 4.67579 191.77 7.07006C193.285 9.59886 194.058 12.5028 194 15.4501C194.07 18.3934 193.311 21.2971 191.81 23.8301C190.309 26.2243 188.13 28.118 185.55 29.2701C182.558 30.581 179.316 31.2226 176.05 31.1501ZM176.05 0.250059C172.844 0.178478 169.661 0.802821 166.72 2.08006C164.242 3.19294 162.152 5.02117 160.72 7.33006C159.28 9.7895 158.553 12.601 158.62 15.4501C158.553 18.2991 159.28 21.1106 160.72 23.5701C162.152 25.879 164.242 27.7072 166.72 28.8201C169.661 30.0973 172.844 30.7216 176.05 30.6501C179.243 30.7197 182.412 30.0953 185.34 28.8201C187.815 27.7015 189.903 25.8746 191.34 23.5701C192.795 21.1162 193.53 18.3021 193.46 15.4501C193.53 12.598 192.795 9.78394 191.34 7.33006C189.903 5.02552 187.815 3.1986 185.34 2.08006C182.412 0.804845 179.243 0.180465 176.05 0.250059Z" fill="black"/>
<path d="M277.3 45.06C271.341 45.1774 265.436 43.9109 260.05 41.36C255.267 39.0658 251.242 35.4499 248.45 30.94C245.67 26.2584 244.25 20.8942 244.35 15.45C244.257 10.0194 245.677 4.67009 248.45 3.62396e-05C251.242 -4.50986 255.267 -8.12575 260.05 -10.42C265.436 -12.9708 271.341 -14.2374 277.3 -14.12C282.791 -14.2046 288.24 -13.1455 293.3 -11.01C297.785 -9.10624 301.707 -6.08313 304.69 -2.22996C307.563 1.59427 309.337 6.13098 309.82 10.89V11.17H293.71V10.96C293.291 8.7484 292.31 6.68197 290.86 4.96004C289.343 3.23926 287.422 1.92303 285.27 1.13004C282.708 0.198146 279.996 -0.252743 277.27 -0.199964C274.19 -0.271748 271.136 0.375374 268.35 1.69004C265.924 2.86186 263.917 4.75033 262.6 7.10004C261.223 9.66397 260.534 12.5407 260.6 15.45C260.534 18.3594 261.223 21.2361 262.6 23.8C263.917 26.1497 265.924 28.0382 268.35 29.21C271.134 30.5296 274.19 31.177 277.27 31.1C279.991 31.1501 282.7 30.7167 285.27 29.82C287.408 29.0661 289.316 27.7747 290.81 26.07C292.278 24.3318 293.264 22.2388 293.67 20V19.8H309.79V20.07C309.307 24.8291 307.533 29.3658 304.66 33.19C301.686 37.0551 297.767 40.0892 293.28 42C288.223 44.1157 282.781 45.1577 277.3 45.06ZM277.3 -13.66C271.428 -13.7699 265.61 -12.5207 260.3 -10.01C255.592 -7.76462 251.628 -4.21374 248.88 0.220037C246.157 4.82635 244.772 10.1003 244.88 15.45C244.772 20.7998 246.157 26.0737 248.88 30.68C251.62 35.1095 255.573 38.6599 260.27 40.91C265.58 43.4207 271.398 44.6699 277.27 44.56C282.686 44.6454 288.061 43.5998 293.05 41.49C297.455 39.6202 301.308 36.6524 304.24 32.87C307.002 29.1956 308.728 24.8481 309.24 20.28H294.12C293.691 22.533 292.689 24.6374 291.21 26.39C289.664 28.1618 287.687 29.505 285.47 30.29C282.833 31.2105 280.053 31.6541 277.26 31.6C274.1 31.6755 270.967 31.0112 268.11 29.66C265.601 28.4399 263.525 26.4826 262.16 24.05C260.739 21.4104 260.029 18.4468 260.1 15.45C260.029 12.4533 260.739 9.48966 262.16 6.85004C263.525 4.41751 265.601 2.46016 268.11 1.24004C270.967 -0.111107 274.1 -0.775459 277.26 -0.699964C280.038 -0.750646 282.801 -0.286139 285.41 0.670036C287.642 1.49676 289.63 2.87241 291.19 4.67004C292.661 6.3872 293.666 8.45311 294.11 10.67H309.27C308.76 6.09837 307.034 1.74712 304.27 -1.92996C301.338 -5.71238 297.485 -8.68015 293.08 -10.55C288.094 -12.6735 282.719 -13.7327 277.3 -13.66Z" fill="black"/>
<path d="M348.81 45.0601C342.738 45.1787 336.72 43.9134 331.21 41.3601C326.343 39.0905 322.227 35.4746 319.35 30.9401C316.506 26.281 315.049 20.9077 315.15 15.4501C315.057 10.006 316.513 4.6476 319.35 5.91278e-05C322.227 -4.53453 326.343 -8.15038 331.21 -10.4199C336.753 -12.86 342.743 -14.1201 348.8 -14.1201C354.856 -14.1201 360.847 -12.86 366.39 -10.4199C371.253 -8.14334 375.366 -4.52905 378.25 5.91278e-05C381.105 4.65547 382.569 10.03 382.47 15.4901C382.569 20.9501 381.105 26.3246 378.25 30.9801C375.368 35.5103 371.254 39.1249 366.39 41.4001C360.884 43.94 354.872 45.1917 348.81 45.0601ZM348.81 -13.6599C342.814 -13.7709 336.872 -12.5195 331.43 -9.99994C326.646 -7.77327 322.6 -4.22336 319.77 0.230059C316.981 4.81019 315.553 10.0887 315.65 15.4501C315.551 20.8116 316.98 26.0906 319.77 30.6701C322.596 35.1297 326.643 38.684 331.43 40.9101C336.906 43.3171 342.823 44.5601 348.805 44.5601C354.787 44.5601 360.704 43.3171 366.18 40.9101C370.959 38.6753 375.001 35.1228 377.83 30.6701C380.645 26.099 382.092 20.8175 382 15.4501C382.092 10.0826 380.645 4.80114 377.83 0.230059C374.996 -4.21645 370.955 -7.76465 366.18 -9.99994C360.742 -12.5193 354.802 -13.7708 348.81 -13.6599ZM348.81 31.1501C345.531 31.2246 342.275 30.583 339.27 29.2701C336.683 28.1249 334.499 26.2298 333 23.8301C331.51 21.2934 330.759 18.391 330.83 15.4501C330.759 12.5091 331.51 9.60671 333 7.07006C334.491 4.67482 336.664 2.78028 339.24 1.63006C345.326 -0.870391 352.153 -0.870391 358.24 1.63006C360.82 2.78213 362.999 4.67579 364.5 7.07006C366.001 9.60299 366.76 12.5067 366.69 15.4501C366.76 18.3934 366.001 21.2971 364.5 23.8301C362.999 26.2243 360.82 28.118 358.24 29.2701C355.27 30.572 352.052 31.2134 348.81 31.1501ZM348.81 0.250059C345.604 0.178478 342.421 0.802821 339.48 2.08006C337.001 3.19294 334.912 5.02117 333.48 7.33006C332.04 9.7895 331.313 12.601 331.38 15.4501C331.313 18.2991 332.04 21.1106 333.48 23.5701C334.912 25.879 337.001 27.7072 339.48 28.8201C342.421 30.0973 345.604 30.7216 348.81 30.6501C352.003 30.7197 355.172 30.0953 358.1 28.8201C360.575 27.7015 362.663 25.8746 364.1 23.5701C365.555 21.1162 366.29 18.3021 366.22 15.4501C366.29 12.598 365.555 9.78394 364.1 7.33006C362.663 5.02552 360.575 3.1986 358.1 2.08006C355.172 0.804845 352.003 0.180465 348.81 0.250059Z" fill="black"/>
<path d="M441.87 43.8301H390.71V-12.9199H406.77V29.4901H441.87V43.8301ZM391.21 43.3301H441.37V30.0001H406.27V-12.4199H391.21V43.3301Z" fill="black"/>
<path d="M515.89 43.83H498.76L494.06 33H465.33L460.65 43.84H443.48L469.32 -12.91H490.08L490.15 -12.77L515.89 43.83ZM499.09 43.33H515.09L489.76 -12.42H469.65L444.26 43.33H460.32L465 32.49H494.38L499.09 43.33ZM489.2 20.5H470.2L479.7 -1.49997L489.2 20.5ZM471 20H488.49L479.69 -0.209973L471 20Z" fill="black"/>
<path d="M549.62 43.8301H521.28V-12.9199H549.62C555.666 -13.037 561.665 -11.8359 567.2 -9.39992C571.996 -7.26225 576.087 -3.80872 579 0.560078C581.843 4.99855 583.308 10.1798 583.21 15.4501C583.308 20.7203 581.843 25.9016 579 30.3401C576.082 34.7295 571.976 38.1979 567.16 40.3401C561.635 42.76 555.65 43.9508 549.62 43.8301ZM521.78 43.3301H549.62C555.598 43.4432 561.529 42.2523 567 39.8401C571.728 37.7531 575.765 34.3646 578.64 30.0701C581.425 25.7097 582.859 20.6231 582.76 15.4501C582.854 10.2762 581.418 5.1898 578.63 0.830077C575.755 -3.46044 571.722 -6.84805 567 -8.93992C561.531 -11.3473 555.604 -12.5348 549.63 -12.4199H521.78V43.3301ZM550.78 29.9901H536.78V0.910077H550.78C553.83 0.846206 556.858 1.45032 559.65 2.68008C562.051 3.7572 564.082 5.51694 565.49 7.74008C566.871 10.0696 567.565 12.7428 567.49 15.4501C567.566 18.1576 566.873 20.8311 565.49 23.1601C564.082 25.3832 562.051 27.143 559.65 28.2201C556.859 29.4533 553.831 30.0608 550.78 30.0001V29.9901ZM537.27 29.4901H550.78C553.754 29.5559 556.707 28.9688 559.43 27.7701C561.749 26.7332 563.711 25.0358 565.07 22.8901C566.424 20.6481 567.118 18.069 567.07 15.4501C567.118 12.8312 566.424 10.2521 565.07 8.01008C563.707 5.86747 561.746 4.17097 559.43 3.13008C556.707 1.93133 553.754 1.34421 550.78 1.41008H537.27V29.4901Z" fill="black"/>
<path d="M655.12 43.83H638L633.3 33H604.57L599.88 43.84H582.72L608.56 -12.91H629.32L629.39 -12.77L655.12 43.83ZM638.32 43.33H654.32L629 -12.42H608.88L583.5 43.33H599.56L604.24 32.49H633.63L638.32 43.33ZM628.44 20.5H609.44L618.94 -1.49997L628.44 20.5ZM610.19 20H627.68L618.92 -0.209973L610.19 20Z" fill="black"/>
</g>
</svg>
