<svg width="459" height="80" viewBox="0 0 459 80" fill="none" xmlns="http://www.w3.org/2000/svg">
<path d="M0.749973 2.12994C0.609973 1.97994 0.559974 1.87994 0.609974 1.80994C0.645567 1.77252 0.68944 1.74399 0.738071 1.72662C0.786702 1.70926 0.838732 1.70353 0.889973 1.70993C1.04296 1.69532 1.19699 1.69532 1.34997 1.70993C1.46175 1.72393 1.57214 1.74735 1.67997 1.77994C2.73922 1.95279 3.80774 2.06297 4.87997 2.10992C5.98997 2.15992 7.07997 2.18994 8.12997 2.18994H8.99997C10.74 2.10994 12.54 1.93994 14.39 1.68994C14.84 1.62994 15.28 1.56994 15.7 1.52994C15.8873 1.4403 16.0923 1.39377 16.3 1.39377C16.5076 1.39377 16.7127 1.4403 16.9 1.52994C17.2238 1.66601 17.5165 1.86677 17.76 2.11993C18.0381 2.36513 18.2956 2.63271 18.53 2.91995C18.53 3.18995 18.24 3.49994 17.69 3.83994C17.115 4.19671 16.5093 4.50126 15.88 4.74994C15.4011 4.96075 14.8969 5.10865 14.38 5.18994C13.6 5.18994 12.81 5.21994 12.01 5.27994C12.01 5.36994 12.01 5.46993 12.01 5.57993C12.0181 5.65972 12.0181 5.74015 12.01 5.81995C11.8255 6.90786 11.7152 8.00704 11.68 9.10992C11.62 10.3599 11.59 11.5999 11.58 12.8399C11.58 13.6199 11.58 14.3399 11.53 14.9999C11.53 17.6199 11.62 20.2866 11.8 22.9999C11.8412 23.0383 11.874 23.0847 11.8965 23.1364C11.9189 23.188 11.9305 23.2436 11.9305 23.2999C11.9305 23.3562 11.9189 23.4119 11.8965 23.4635C11.874 23.5151 11.8412 23.5616 11.8 23.5999C11.6483 23.6321 11.4916 23.6321 11.34 23.5999L10.81 23.5199C10.6343 23.4694 10.4527 23.4425 10.27 23.4399C9.91315 23.3151 9.58691 23.116 9.31281 22.8557C9.03871 22.5954 8.82301 22.2798 8.67997 21.9299C8.39533 21.2833 8.24236 20.5864 8.22998 19.8799C8.30998 18.5099 8.31998 17.12 8.22998 15.7C8.22998 15.49 8.22998 15.2799 8.22998 15.0699C8.22998 14.8599 8.22998 14.7299 8.22998 14.5599C8.12998 13.3199 8.03997 11.9599 7.96997 10.4899C7.89579 9.23019 7.91584 7.96668 8.02997 6.70993C8.17996 6.22846 8.51427 5.82586 8.95997 5.58994C7.53036 5.80715 6.07944 5.84745 4.63997 5.70993C3.80241 5.42003 3.05696 4.91271 2.47998 4.23993C1.84041 3.59061 1.26134 2.88437 0.749973 2.12994Z" fill="black"/>
<path d="M27.89 5.15995H27.35C26.8 5.15995 26.21 5.15995 25.57 5.15995C24.9596 5.14053 24.3529 5.05673 23.76 4.90995C23.2439 4.73421 22.7656 4.46279 22.35 4.10993C22.016 3.86612 21.7282 3.56476 21.5 3.21995C21.7667 2.90814 22.112 2.67336 22.5 2.53995C22.8261 2.42495 23.1604 2.33468 23.5 2.26994H23.66C24.8391 1.94105 26.0487 1.73332 27.27 1.64994C28.4 1.57994 29.66 1.56994 31.06 1.64994C32.7261 1.70692 34.3345 2.27474 35.6671 3.27644C36.9997 4.27813 37.9922 5.66529 38.51 7.24995C38.9776 8.67238 38.8626 10.2222 38.19 11.5599C37.7397 12.3364 37.1404 13.0162 36.4265 13.5602C35.7125 14.1042 34.8981 14.5018 34.03 14.73C34.41 15.37 34.78 15.97 35.13 16.51L35.66 17.38C36.6 18.7133 37.6533 20.0833 38.82 21.4899L39.13 21.88C39.2541 21.9468 39.3588 22.0445 39.4341 22.1636C39.5094 22.2827 39.5528 22.4192 39.56 22.5599C39.55 22.7065 39.5017 22.8479 39.42 22.9699C39.3225 23.1295 39.2157 23.2831 39.1 23.4299C38.98 23.5699 38.89 23.6899 38.81 23.7699C38.4349 23.8495 38.0436 23.7891 37.71 23.6C37.223 23.3869 36.7603 23.122 36.33 22.8099C35.9565 22.5539 35.6201 22.2477 35.33 21.8999C34.7692 20.9829 34.1478 20.1043 33.47 19.2699L33.11 18.8099C32.69 18.3199 32.24 17.81 31.78 17.17C31.358 16.6334 30.9833 16.0612 30.66 15.4599C30.2105 15.5316 29.7545 15.5551 29.3 15.5299C28.8217 15.5185 28.3472 15.4411 27.89 15.2999C27.83 16.2999 27.81 17.2999 27.83 18.4599C27.8456 19.4899 27.919 20.5182 28.05 21.54C28.1323 21.6904 28.1769 21.8585 28.18 22.0299C28.1799 22.1925 28.1563 22.3542 28.11 22.51C28.023 22.6291 27.9145 22.7308 27.79 22.8099C27.6208 22.9315 27.4438 23.0418 27.26 23.14C27.1184 23.2259 26.9714 23.3027 26.82 23.3699C26.45 23.2799 26.09 22.9299 25.74 22.3099C25.3733 21.657 25.0782 20.9663 24.86 20.2499C24.6653 19.7125 24.5475 19.1503 24.51 18.5799C24.59 17.5799 24.64 16.5799 24.67 15.5799C24.67 15.2299 24.67 14.8699 24.67 14.5199C24.67 13.4499 24.67 12.2599 24.67 10.9599C24.6924 9.81031 24.7994 8.66389 24.99 7.52995C25.2338 6.964 25.6368 6.48111 26.15 6.13996C26.6864 5.74128 27.271 5.41199 27.89 5.15995ZM28.14 12.7799L29.14 12.5299C29.89 12.3499 30.71 12.1299 31.59 11.8599C32.421 11.6155 33.2225 11.2801 33.98 10.8599C34.6181 10.529 35.1308 9.99886 35.44 9.34995C35.566 9.04907 35.6308 8.72613 35.6308 8.39994C35.6308 8.07375 35.566 7.75084 35.44 7.44996C35.1372 6.76436 34.6388 6.18329 34.0074 5.77952C33.3759 5.37574 32.6394 5.16718 31.89 5.17994H30.48H29.09C29.1052 5.3496 29.1052 5.52029 29.09 5.68995C29.09 5.86995 29.09 5.99995 29.09 6.09995V6.19996C28.83 7.87996 28.6 9.59995 28.41 11.35L28.14 12.7799Z" fill="black"/>
<path d="M51.87 1.05992C51.98 0.939924 52.1001 0.949924 52.2401 1.05992C52.399 1.22693 52.5336 1.41543 52.6401 1.61992C52.7696 1.85537 52.8832 2.09926 52.98 2.34993C53.08 2.59993 53.1501 2.77993 53.1901 2.90993C54.2159 6.41636 54.9682 9.9971 55.4401 13.6199C55.4401 13.7299 55.4901 13.8599 55.5201 13.9799C55.6501 14.7099 55.8101 15.4899 55.9901 16.3399L56.34 16.4299C56.5668 16.5325 56.7733 16.6747 56.9501 16.8499C57.1608 17.0365 57.3518 17.2443 57.5201 17.4699C57.6518 17.6278 57.7721 17.7949 57.8801 17.9699C57.8801 18.0499 57.8801 18.1599 57.7001 18.2799C57.5372 18.4114 57.3632 18.5285 57.18 18.6299L56.6701 18.8799H56.59C56.8356 19.9599 57.153 21.0222 57.54 22.0599C57.6453 22.1851 57.7244 22.3302 57.7725 22.4865C57.8206 22.6428 57.8368 22.8072 57.8201 22.9699C57.7701 23.0741 57.7024 23.1688 57.62 23.2499L57.2401 23.6299L56.8801 23.9299L56.79 24.0099C56.5466 24.0231 56.3038 23.975 56.0837 23.8702C55.8636 23.7654 55.6733 23.6072 55.5301 23.4099C55.0497 22.8843 54.6335 22.3036 54.29 21.6799C53.9574 21.1219 53.673 20.5364 53.4401 19.9299H53.3801C52.35 19.8745 51.3172 19.8946 50.29 19.9899L48.65 20.2599C47.93 20.3599 47.2301 20.4499 46.5201 20.5099C45.9954 20.575 45.4647 20.575 44.9401 20.5099L44.7401 20.8599C44.6401 21.0299 44.54 21.1999 44.43 21.3699C44.2791 21.9458 43.9236 22.447 43.43 22.7799C43.1082 22.9812 42.7394 23.0949 42.3601 23.1099C41.9627 23.1529 41.5611 23.1327 41.1701 23.0499C41.0597 22.4926 41.1011 21.9158 41.29 21.3799C41.48 20.4899 41.7301 19.5599 42.0201 18.6199C41.5424 18.16 41.0884 17.6761 40.6601 17.1699C40.4801 17.0399 40.4201 16.9399 40.4701 16.8699C40.5119 16.8211 40.5642 16.7823 40.623 16.7563C40.6819 16.7303 40.7458 16.7179 40.8101 16.7199C40.9964 16.7047 41.1837 16.7047 41.37 16.7199H41.8001H41.8601C42.1101 16.7199 42.38 16.7199 42.65 16.7199C42.8827 16.1229 43.1672 15.5474 43.5001 14.9999C43.8987 14.3364 44.2335 13.6366 44.5001 12.9099C44.7201 12.2599 45.0301 11.2699 45.4401 9.90993C45.8501 8.54993 46.2001 7.43993 46.5801 6.24993C46.8318 5.40909 47.1255 4.58137 47.4601 3.76992C47.7591 3.17343 48.2025 2.66123 48.7501 2.27992C49.2 2.0025 49.6886 1.79356 50.2001 1.65993C50.7752 1.51581 51.3347 1.31481 51.87 1.05992ZM46.7401 16.7799C47.4701 16.7799 48.18 16.7799 48.9 16.7799C49.81 16.7799 50.7601 16.6899 51.7201 16.6099L52.7801 16.5299C52.7301 16.2999 52.68 16.0699 52.62 15.8399C52.52 15.3666 52.4201 14.9066 52.3201 14.4599C52.1801 13.9066 52.03 13.3366 51.87 12.7499C51.3767 10.9499 50.9267 9.16327 50.5201 7.38994C49.7601 9.56994 48.9201 11.6966 48.0001 13.7699L47.5501 14.8699L47.1701 15.8099C47.0001 16.1499 46.8701 16.4599 46.7401 16.7799Z" fill="black"/>
<path d="M65.3 1.77995C65.49 1.70995 65.61 1.70995 65.68 1.77995C65.7127 1.81814 65.7367 1.86292 65.7505 1.91123C65.7643 1.95955 65.7676 2.01027 65.76 2.05995C65.7505 2.17816 65.7304 2.2953 65.7 2.40995C65.4686 3.51608 65.3348 4.64039 65.3 5.76994C65.23 7.16994 65.19 8.52995 65.17 9.84995C65.17 10.6 65.17 11.2499 65.17 11.7999C65.17 13.5599 65.17 15.34 65.17 17.13C65.17 18.66 65.23 20.18 65.22 21.7C65.2829 21.8925 65.3047 22.0961 65.284 22.2976C65.2633 22.4992 65.2007 22.6941 65.1 22.8699C64.9104 23.0684 64.6538 23.1895 64.38 23.2099C64.0884 23.2547 63.7917 23.2547 63.5 23.2099C63.0064 22.8682 62.6516 22.3609 62.5 21.7799C62.24 21.0385 62.046 20.2755 61.92 19.4999C61.8183 18.932 61.7615 18.3569 61.75 17.7799C61.86 15.8999 61.89 14.0099 61.85 12.1099C61.85 11.6999 61.79 11.2399 61.76 10.7499C61.68 9.49995 61.63 8.17994 61.59 6.79994C61.5417 5.63903 61.5751 4.47617 61.69 3.31996C61.7709 3.06 61.9103 2.82203 62.0975 2.6244C62.2848 2.42677 62.5148 2.27472 62.77 2.17994C63.301 2.00602 63.8523 1.90181 64.41 1.86994L65.3 1.77995Z" fill="black"/>
<path d="M68.6999 2.12994C68.5599 1.97994 68.5199 1.87994 68.5599 1.80994C68.5979 1.77294 68.6436 1.7448 68.6937 1.72751C68.7438 1.71022 68.7972 1.70421 68.8499 1.70993C68.9995 1.69535 69.1502 1.69535 69.2999 1.70993C69.4149 1.72402 69.5286 1.74744 69.6399 1.77994C70.699 1.95382 71.7676 2.064 72.8399 2.10992C73.9499 2.15992 75.0299 2.18994 76.0799 2.18994H76.9999C78.7399 2.10994 80.5299 1.93994 82.3899 1.68994C82.8399 1.62994 83.2699 1.56994 83.6899 1.52994C83.8772 1.4403 84.0822 1.39377 84.2899 1.39377C84.4975 1.39377 84.7026 1.4403 84.8899 1.52994C85.2183 1.66299 85.5148 1.86407 85.7599 2.11993C86.0325 2.36753 86.2866 2.63494 86.5199 2.91995C86.5199 3.18995 86.2299 3.49994 85.6799 3.83994C85.1095 4.19865 84.5069 4.50331 83.8799 4.74994C83.398 4.96223 82.8903 5.11017 82.3699 5.18994C81.5899 5.18994 80.7999 5.21994 79.9999 5.27994C79.9999 5.36994 79.9999 5.46993 79.9999 5.57993C79.9921 5.66153 79.9753 5.74204 79.9499 5.81995C79.7753 6.90917 79.6651 8.00772 79.6199 9.10992C79.5699 10.3599 79.5399 11.5999 79.5299 12.8399C79.5299 13.6199 79.5099 14.3399 79.4699 14.9999C79.4699 17.6199 79.5632 20.2866 79.7499 22.9999C79.8281 23.0802 79.8718 23.1879 79.8718 23.2999C79.8718 23.412 79.8281 23.5197 79.7499 23.5999C79.5982 23.6315 79.4416 23.6315 79.2899 23.5999L78.7499 23.5199C78.5744 23.4687 78.3927 23.4418 78.2099 23.4399C77.8546 23.3124 77.5297 23.1122 77.256 22.8523C76.9822 22.5923 76.7656 22.2782 76.6199 21.9299C76.3352 21.2833 76.1823 20.5864 76.1699 19.8799C76.2499 18.5099 76.2699 17.12 76.1699 15.7C76.1699 15.49 76.1699 15.2799 76.1699 15.0699C76.1699 14.8599 76.1699 14.7299 76.1699 14.5599C76.0699 13.3199 75.9899 11.9599 75.9099 10.4899C75.8334 9.23006 75.8568 7.96611 75.9799 6.70993C76.051 6.47142 76.169 6.24951 76.3269 6.05719C76.4849 5.86487 76.6797 5.706 76.8999 5.58994C75.4703 5.80735 74.0193 5.84765 72.5799 5.70993C71.7442 5.41622 70.9997 4.90952 70.4199 4.23993C69.7838 3.59018 69.2081 2.88396 68.6999 2.12994Z" fill="black"/>
<path d="M101.91 6.15993C101.91 6.29993 101.91 6.37993 101.79 6.37993C101.674 6.37922 101.562 6.34056 101.47 6.26992L101.1 6.03994C101.031 5.97684 100.953 5.92305 100.87 5.87993C100.054 5.41793 99.1585 5.11269 98.2301 4.97994C97.3725 4.83926 96.4977 4.83926 95.6401 4.97994C94.8301 5.15994 94.4001 5.41992 94.3701 5.76992C94.3717 5.99023 94.4218 6.20751 94.5168 6.40627C94.6119 6.60503 94.7496 6.78041 94.9201 6.91994C95.3637 7.37539 95.8381 7.79971 96.3401 8.18993C97.5001 9.13993 98.6201 10.1399 99.6801 11.1899C100.745 12.2456 101.694 13.4122 102.51 14.6699C103.092 15.5626 103.562 16.523 103.91 17.5299C104.251 18.4927 104.32 19.5305 104.11 20.5299C103.987 21.0527 103.759 21.5452 103.441 21.9781C103.124 22.4111 102.722 22.7756 102.26 23.0499C101.248 23.6319 100.107 23.9516 98.9401 23.9799C97.6316 24.0234 96.3246 23.8545 95.0701 23.4799C93.8034 23.1136 92.6092 22.5317 91.5401 21.7599C91.0941 21.4427 90.676 21.088 90.2901 20.6999C89.9094 20.3198 89.5739 19.897 89.2901 19.4399C88.8044 18.5972 88.575 17.6311 88.6301 16.6599C88.7006 16.0231 88.9822 15.4282 89.4301 14.9699C89.8561 14.4947 90.3867 14.125 90.9801 13.8899C91.0006 14.0124 91.0006 14.1375 90.9801 14.2599C90.9801 14.4699 90.9801 14.7299 90.9801 15.0499C90.9801 15.3699 90.9801 15.7299 90.9301 16.0499C90.9121 16.2829 90.9121 16.5169 90.9301 16.7499C91.0292 17.3576 91.2959 17.9255 91.7001 18.3899C92.4569 19.2225 93.435 19.8225 94.5201 20.1199C95.5616 20.4076 96.6311 20.582 97.7101 20.6399C98.2743 20.6984 98.844 20.6714 99.4001 20.5599C99.9038 20.478 100.363 20.2234 100.7 19.8399C100.862 19.6103 100.968 19.3465 101.012 19.0691C101.055 18.7916 101.034 18.5079 100.95 18.2399C100.623 17.2376 100.096 16.3122 99.4001 15.5199C98.6224 14.5821 97.7696 13.7092 96.8501 12.9099C95.9301 12.0999 95.1201 11.4199 94.4301 10.9099C93.3514 10.123 92.4032 9.17136 91.6201 8.08992C91.1747 7.53653 90.8657 6.88615 90.7181 6.1913C90.5704 5.49645 90.5882 4.77661 90.7701 4.08992C91.0027 3.47188 91.3847 2.92104 91.882 2.48656C92.3793 2.05208 92.9764 1.74747 93.6201 1.59993C95.0345 1.28175 96.5119 1.39672 97.8601 1.92992C99.2895 2.41338 100.536 3.32454 101.43 4.53994C101.589 4.79298 101.723 5.0609 101.83 5.33992C101.924 5.60256 101.951 5.88417 101.91 6.15993Z" fill="black"/>
<path d="M111.15 11.9399C110.914 11.9147 110.681 11.8746 110.45 11.8199C110.06 11.7499 109.63 11.6399 109.16 11.5199C108.737 11.4073 108.322 11.2636 107.92 11.0899C107.57 10.9399 107.36 10.7799 107.31 10.6199C107.413 10.486 107.487 10.3331 107.53 10.17C107.61 9.91995 107.69 9.65995 107.76 9.38995C107.83 9.11995 107.88 8.95994 107.89 8.87994C107.855 8.66137 107.855 8.43851 107.89 8.21994C107.895 8.11919 107.922 8.02084 107.971 7.93243C108.019 7.84403 108.088 7.76789 108.17 7.70993C108.855 7.73514 109.531 7.87369 110.17 8.11993C111.04 8.40993 111.76 8.67994 112.32 8.90994H112.41H112.46L112.63 8.98993L112.81 9.06995C112.86 9.06995 112.88 9.12994 112.88 9.15994C112.88 9.18994 112.88 9.15993 112.75 9.20993C112.628 9.33254 112.533 9.47893 112.47 9.63995C112.37 9.84995 112.27 10.0799 112.16 10.3299C112.031 10.7013 111.874 11.0623 111.69 11.4099C111.53 11.7699 111.35 11.9299 111.15 11.9399ZM112.41 18.1799H112.46L112.63 18.2499L112.81 18.3399C112.86 18.3399 112.88 18.39 112.88 18.42C112.88 18.45 112.88 18.4199 112.75 18.4699C112.631 18.5945 112.536 18.7404 112.47 18.8999C112.37 19.1099 112.27 19.3399 112.16 19.5999C112.033 19.9688 111.876 20.3267 111.69 20.67C111.53 20.99 111.35 21.16 111.15 21.17C110.914 21.1447 110.681 21.1046 110.45 21.0499C110.06 20.9699 109.63 20.8699 109.16 20.7399C108.738 20.6258 108.324 20.4856 107.92 20.3199C107.57 20.1599 107.36 19.9999 107.31 19.8499C107.413 19.716 107.487 19.5631 107.53 19.3999C107.61 19.1499 107.69 18.8899 107.76 18.6299C107.813 18.4557 107.856 18.2787 107.89 18.0999C107.855 17.8813 107.855 17.6586 107.89 17.4399C107.895 17.3392 107.922 17.2408 107.971 17.1524C108.019 17.064 108.088 16.9879 108.17 16.9299C108.855 16.9459 109.532 17.0813 110.17 17.3299C111.04 17.6299 111.76 17.8999 112.32 18.1299L112.41 18.1799Z" fill="black"/>
<path d="M9.5499 53.6499C9.7899 53.5099 9.93989 53.5099 10.0199 53.6499C10.1075 53.8512 10.142 54.0716 10.1199 54.29C10.1199 54.56 10.1199 54.8099 10.0399 55.0499C9.95989 55.2899 9.96989 55.43 9.95989 55.48C9.63989 57.23 9.3599 59.06 9.1199 60.95H9.21989H9.31989C10.6192 60.6364 11.8851 60.1977 13.0999 59.64C14.268 59.0794 15.3545 58.3628 16.3299 57.51C17.3299 56.51 17.8299 55.7 17.7099 54.97C17.5899 54.24 16.7099 53.7 14.9999 53.35C13.2601 53.0483 11.4881 52.9777 9.7299 53.14C8.0717 53.2262 6.4299 53.5115 4.83989 53.9899C4.2352 53.8302 3.6855 53.5087 3.24989 53.06C2.7865 52.6068 2.39228 52.0879 2.0799 51.5199C1.82882 51.1146 1.67799 50.6552 1.63989 50.1799C2.29765 50.0004 2.96549 49.8602 3.63989 49.76L4.73989 49.56C6.43229 49.2602 8.14272 49.0732 9.85989 49C11.8296 48.9092 13.8031 49.0502 15.7399 49.42C17.581 49.7481 19.3045 50.5512 20.7399 51.75C21.4726 52.4245 22.0552 53.2456 22.4499 54.16C22.8255 54.9964 22.9639 55.9201 22.8499 56.8299C22.5895 58.0325 22.0365 59.1522 21.2399 60.0899C20.531 61.0343 19.6184 61.8068 18.5699 62.35C18.9666 62.4758 19.3514 62.6364 19.7199 62.8299C20.1017 63.0312 20.4692 63.2584 20.8199 63.51C21.9879 64.4194 22.79 65.7184 23.0799 67.17C23.3415 68.4905 23.3415 69.8495 23.0799 71.17C22.6973 73.1765 21.5681 74.9633 19.9199 76.17C18.2199 77.3734 16.2783 78.1924 14.2299 78.57L13.4499 78.73L12.6699 78.8699C10.8 79.2994 8.85979 79.3233 6.9799 78.94C6.05285 78.7656 5.15654 78.4556 4.31989 78.0199C3.44229 77.5972 2.64928 77.0177 1.9799 76.3099C1.9799 76.2299 2.2899 76.13 2.9099 76.01C3.5299 75.9 4.2999 75.78 5.2299 75.66C4.82481 74.7024 4.49058 73.7164 4.2299 72.7099C3.99216 71.9579 3.85431 71.1779 3.81989 70.39C4.00371 68.7928 4.10717 67.1875 4.12989 65.5799C4.04989 64.2599 4.01989 62.8099 4.03989 61.2399C4.04254 59.8419 4.16634 58.4467 4.4099 57.07C4.86033 56.1085 5.62114 55.3266 6.56989 54.85C7.51603 54.3415 8.51542 53.939 9.5499 53.6499ZM8.5499 75.19L9.19989 75.1199C10.0599 75.0199 10.7999 74.94 11.4199 74.85C11.8168 74.8068 12.2109 74.74 12.5999 74.6499C13.6608 74.3045 14.67 73.8167 15.5999 73.2C16.5042 72.5927 17.2847 71.8189 17.8999 70.92C18.2138 70.4508 18.4314 69.9239 18.5399 69.3699C18.67 68.7895 18.7172 68.1936 18.6799 67.6C18.6987 67.3216 18.6472 67.0431 18.5299 66.79C18.3831 66.5728 18.1568 66.422 17.8999 66.3699C16.9245 66.0986 15.9102 65.9938 14.8999 66.0599C13.8953 66.1127 12.894 66.2161 11.8999 66.3699L11.2599 66.44C10.8921 66.4415 10.5246 66.4181 10.1599 66.3699C9.55771 66.1749 9.00025 65.8622 8.51989 65.45V65.7999C8.35989 68.3999 8.32323 71.0966 8.4099 73.89V74.6099C8.49519 74.7919 8.54281 74.9892 8.5499 75.19Z" fill="black"/>
<path d="M40.9999 48.6899C41.1399 48.5299 41.2999 48.5399 41.4899 48.6899C41.7046 48.907 41.8835 49.1567 42.0199 49.4299C42.1943 49.7532 42.3479 50.0872 42.4799 50.4299C42.6099 50.7499 42.6999 51 42.7499 51.17C44.1162 55.8456 45.1192 60.6198 45.7499 65.45C45.7499 65.6 45.8099 65.7699 45.8499 65.9399C46.0299 66.9399 46.2399 67.9399 46.4799 69.0799L46.9399 69.2C47.2449 69.3309 47.5229 69.5174 47.7599 69.7499C48.0349 70.009 48.2921 70.2863 48.5299 70.5799C48.6973 70.7933 48.8509 71.0171 48.9899 71.2499C48.9899 71.3699 48.9899 71.51 48.7599 71.67C48.5434 71.8427 48.3126 71.9966 48.0699 72.13C47.7999 72.27 47.5799 72.3799 47.3899 72.4599L47.2799 72.5199C47.6057 73.9607 48.03 75.3774 48.5499 76.76C48.6896 76.9265 48.7943 77.1195 48.8579 77.3273C48.9214 77.5352 48.9425 77.7538 48.9199 77.9699C48.8551 78.1128 48.7634 78.2418 48.6499 78.35L48.1499 78.85L47.6699 79.26L47.5499 79.35C47.0299 79.46 46.4699 79.1899 45.8699 78.5499C45.2271 77.8556 44.6698 77.0868 44.2099 76.26C43.7669 75.5137 43.3889 74.7309 43.0799 73.92H42.9999C41.6264 73.8462 40.2494 73.8729 38.8799 73.9999C38.3699 74.0899 37.6399 74.21 36.6899 74.35C35.7399 74.49 34.7999 74.6099 33.8599 74.6899C33.1595 74.7818 32.4502 74.7818 31.7499 74.6899L31.4799 75.16C31.3499 75.3899 31.2099 75.6199 31.0699 75.8399C30.8831 76.5948 30.4327 77.258 29.7999 77.7099C29.3772 77.9882 28.8857 78.144 28.3799 78.16C27.8495 78.2206 27.3128 78.197 26.7899 78.0899C26.641 77.3465 26.6928 76.5768 26.9399 75.8599C27.1999 74.6599 27.5299 73.43 27.9399 72.17C27.2984 71.5569 26.6908 70.9093 26.1199 70.23C25.8899 70.06 25.7999 69.9299 25.8699 69.8299C25.9937 69.7107 26.158 69.6429 26.3299 69.64C26.5753 69.608 26.8224 69.5913 27.0699 69.5899H27.6499H27.7299C28.0599 69.5899 28.4199 69.5899 28.7299 69.5899C29.0397 68.7954 29.4177 68.0292 29.8599 67.2999C30.3931 66.4126 30.845 65.4788 31.2099 64.51C31.4999 63.65 31.9099 62.32 32.4599 60.51C33.0099 58.7 33.4599 57.2099 33.9799 55.6199C34.317 54.5006 34.7108 53.3992 35.1599 52.32C35.5547 51.5185 36.1466 50.8304 36.8799 50.32C37.4797 49.9539 38.13 49.6776 38.8099 49.4999C39.5641 49.3008 40.2975 49.0296 40.9999 48.6899ZM34.1599 69.6899C35.1599 69.6899 36.0799 69.6899 37.0299 69.6899C38.2599 69.6899 39.5099 69.5799 40.7999 69.4699L42.2099 69.35C42.1399 69.05 42.0699 68.7499 41.9899 68.4399C41.8599 67.8099 41.7299 67.2 41.5999 66.6L40.9999 64.3099C40.3332 61.9233 39.7332 59.5433 39.1999 57.17C38.1799 60.0766 37.0599 62.9133 35.8399 65.6799C35.6332 66.1599 35.4332 66.6499 35.2399 67.1499L34.7299 68.3999C34.4799 68.8099 34.2899 69.2299 34.1199 69.6499L34.1599 69.6899Z" fill="black"/>
<path d="M54.0001 52.89C54.358 52.0054 54.9322 51.2249 55.6701 50.6199C56.3606 49.9759 57.2488 49.5847 58.1901 49.51C59.0601 49.51 59.7101 50.0399 60.1901 51.2099C60.7301 52.7599 61.3701 54.34 62.1001 55.97C62.8301 57.6 63.5801 59.1899 64.3501 60.7799C64.7001 61.5399 65.0501 62.28 65.3501 63.01C66.4434 65.1233 67.6401 67.2966 68.9401 69.5299C68.9401 67.8499 68.9401 66.16 68.9401 64.45C68.9401 62.74 68.7901 60.7599 68.7601 58.6799C68.7168 56.8095 68.8036 54.9383 69.0201 53.0799C69.3449 52.052 70.0119 51.1662 70.9101 50.57C71.8329 49.9604 72.845 49.4982 73.9101 49.2C74.1501 49.04 74.3101 49.0699 74.3901 49.2799C74.4647 49.543 74.4885 49.818 74.4601 50.0899C74.4601 50.4199 74.4601 50.68 74.4001 50.88C74.3941 50.9164 74.3941 50.9535 74.4001 50.9899C73.8867 54.7699 73.5534 58.6466 73.4001 62.6199C73.4001 63.1499 73.3301 63.68 73.3001 64.2C73.2501 65.92 73.3001 67.7899 73.3501 69.8099C73.4001 71.8299 73.5801 73.7299 73.7901 75.4899C73.9102 75.716 73.9796 75.9655 73.9935 76.2211C74.0073 76.4767 73.9652 76.7323 73.8701 76.9699C73.4801 78.0399 72.8701 78.43 72.0101 78.13C70.9721 77.7044 70.0427 77.0518 69.2901 76.2199C68.3626 75.2828 67.5037 74.2802 66.7201 73.2199C66.2206 72.5836 65.763 71.9155 65.3501 71.2199C64.3501 69.2199 63.3501 67.2199 62.2301 65.2999C62.1001 65.0899 61.9701 64.8799 61.8601 64.6799C60.6801 62.7999 59.5401 60.8099 58.4201 58.6799C58.3501 59.4899 58.2901 60.2899 58.2201 61.0799C58.1501 62.0799 58.0701 63.01 57.9901 63.95C57.8634 67.87 57.9267 71.8433 58.1801 75.8699C58.3768 76.4264 58.3768 77.0335 58.1801 77.5899C58.0145 77.9347 57.7405 78.2157 57.4001 78.39C57.0677 78.5927 56.7117 78.7539 56.3401 78.8699C55.8601 78.6699 55.4001 78.0199 54.9801 76.9299C54.5594 75.8003 54.2251 74.6403 53.9801 73.4599C53.761 72.6252 53.6237 71.7712 53.5701 70.91C53.6801 68.61 53.7401 66.3499 53.7401 64.1099C53.6601 62.3599 53.6401 60.45 53.6601 58.38C53.6316 56.5439 53.7453 54.7085 54.0001 52.89Z" fill="black"/>
<path d="M92.7499 48.6899C92.8999 48.5299 93.0599 48.5399 93.2399 48.6899C93.455 48.909 93.6369 49.1583 93.7799 49.4299C93.9543 49.7532 94.1079 50.0872 94.2399 50.4299C94.3699 50.7499 94.4599 51 94.5099 51.17C95.8714 55.8468 96.8744 60.6206 97.5099 65.45C97.5099 65.6 97.5699 65.7699 97.6099 65.9399C97.7899 66.9399 97.9999 67.9399 98.2299 69.0799L98.6999 69.2C99.0049 69.3309 99.283 69.5174 99.5199 69.7499C99.7944 70.0065 100.048 70.284 100.28 70.5799C100.45 70.7937 100.607 71.0174 100.75 71.2499C100.75 71.3699 100.75 71.51 100.52 71.67C100.3 71.8426 100.066 71.9965 99.8199 72.13C99.5599 72.27 99.3299 72.3799 99.1499 72.4599L99.0299 72.5199C99.3603 73.9594 99.7845 75.3758 100.3 76.76C100.442 76.9249 100.548 77.1177 100.612 77.326C100.676 77.5343 100.696 77.7536 100.67 77.9699C100.614 78.1151 100.525 78.2452 100.41 78.35C100.26 78.51 100.09 78.68 99.8999 78.85L99.4199 79.26C99.3883 79.2957 99.3512 79.3261 99.3099 79.35C98.7899 79.46 98.2299 79.1899 97.6299 78.5499C96.9839 77.8582 96.4263 77.089 95.9699 76.26C95.5282 75.5115 95.147 74.7291 94.8299 73.92H94.7599C93.3831 73.8462 92.0028 73.873 90.6299 73.9999C90.1299 74.0899 89.3999 74.21 88.4499 74.35C87.4999 74.49 86.5499 74.6099 85.6199 74.6899C84.9195 74.7821 84.2102 74.7821 83.5099 74.6899C83.4099 74.8399 83.3199 75 83.2299 75.16C83.1399 75.32 82.9699 75.6199 82.8199 75.8399C82.6364 76.5963 82.1853 77.2606 81.5499 77.7099C81.13 77.9864 80.6422 78.1421 80.1399 78.16C79.6061 78.2202 79.0663 78.1966 78.5399 78.0899C78.4026 77.3451 78.4576 76.5775 78.6999 75.8599C78.9599 74.6599 79.2899 73.43 79.6999 72.17C79.0584 71.5569 78.4508 70.9093 77.8799 70.23C77.6499 70.06 77.5599 69.9299 77.6299 69.8299C77.69 69.7691 77.7616 69.721 77.8406 69.6884C77.9196 69.6558 78.0044 69.6393 78.0899 69.64C78.3352 69.6077 78.5824 69.591 78.8299 69.5899H79.3999H79.4799C79.8199 69.5899 80.1699 69.5899 80.5399 69.5899C80.8497 68.7954 81.2277 68.0292 81.6699 67.2999C82.2032 66.4126 82.655 65.4788 83.0199 64.51C83.2999 63.65 83.7199 62.32 84.2699 60.51C84.8199 58.7 85.2699 57.2099 85.7899 55.6199C86.3099 54.0299 86.6899 52.93 86.9599 52.32C87.358 51.5206 87.9492 50.8332 88.6799 50.32C89.2841 49.9555 89.9374 49.6794 90.6199 49.4999C91.3538 49.2976 92.067 49.0264 92.7499 48.6899ZM85.9199 69.6899C86.9199 69.6899 87.8399 69.6899 88.7899 69.6899C90.0099 69.6899 91.2699 69.5799 92.5599 69.4699L93.9599 69.35C93.8999 69.05 93.8299 68.7499 93.7499 68.4399C93.6199 67.8099 93.4899 67.2 93.3599 66.6C93.2299 66 92.9599 65.1099 92.7499 64.3099C92.0832 61.9233 91.4865 59.5433 90.9599 57.17C89.9399 60.0766 88.8199 62.9133 87.5999 65.6799C87.3899 66.1599 87.1899 66.6799 86.9899 67.1499L86.4799 68.3999C86.2799 68.8099 86.0899 69.2299 85.9199 69.6499V69.6899Z" fill="black"/>
<path d="M105.84 52.89C106.198 52.0054 106.772 51.2249 107.51 50.6199C108.198 49.9726 109.088 49.5808 110.03 49.51C110.9 49.51 111.55 50.0399 112.03 51.2099C112.58 52.7599 113.22 54.34 113.95 55.97C114.68 57.6 115.42 59.1899 116.19 60.7799C116.54 61.5399 116.9 62.28 117.25 63.01C118.343 65.1233 119.54 67.2966 120.84 69.5299C120.84 67.8499 120.84 66.16 120.84 64.45C120.84 62.74 120.69 60.7599 120.66 58.6799C120.612 56.8095 120.699 54.9379 120.92 53.0799C121.244 52.0546 121.907 51.1697 122.8 50.57C123.725 49.9642 124.736 49.5023 125.8 49.2C126.05 49.04 126.21 49.0699 126.28 49.2799C126.358 49.5423 126.386 49.8173 126.36 50.0899C126.36 50.4199 126.36 50.68 126.29 50.88V50.9899C125.777 54.7699 125.443 58.6466 125.29 62.6199C125.29 63.1499 125.21 63.68 125.19 64.2C125.14 65.92 125.19 67.7899 125.19 69.8099C125.19 71.8299 125.42 73.7299 125.63 75.4899C125.748 75.7167 125.816 75.9666 125.828 76.2222C125.84 76.4778 125.797 76.733 125.7 76.9699C125.31 78.0399 124.7 78.43 123.85 78.13C122.808 77.7072 121.874 77.0543 121.12 76.2199C120.196 75.2828 119.34 74.2802 118.56 73.2199C118.057 72.5863 117.599 71.9179 117.19 71.2199C116.19 69.2199 115.19 67.2199 114.06 65.2999L113.69 64.6799C112.523 62.7999 111.38 60.7999 110.26 58.6799C110.19 59.4899 110.13 60.2899 110.06 61.0799C109.98 62.0799 109.9 63.01 109.83 63.95C109.697 67.87 109.76 71.8433 110.02 75.8699C110.217 76.4264 110.217 77.0335 110.02 77.5899C109.859 77.9344 109.588 78.2158 109.25 78.39C108.916 78.5907 108.561 78.7517 108.19 78.8699C107.7 78.6699 107.25 78.0199 106.83 76.9299C106.414 75.7988 106.08 74.6391 105.83 73.4599C105.616 72.6242 105.479 71.7706 105.42 70.91C105.54 68.61 105.6 66.3499 105.6 64.1099C105.52 62.3599 105.49 60.45 105.52 58.38C105.48 56.5443 105.587 54.7085 105.84 52.89Z" fill="black"/>
<path d="M137.4 71.4799C137.77 71.4799 137.97 71.5399 138 71.6699C138.03 71.7999 138 71.9599 137.79 72.1699C137.432 72.5889 137.135 73.0569 136.91 73.5599C136.68 74.0899 136.46 74.6199 136.27 75.1499C136.2 75.3399 136.14 75.5099 136.07 75.6799C135.97 76.2036 135.933 76.7374 135.96 77.2699C135.96 77.9299 135.96 78.4799 136.04 78.9199C136.15 79.0399 136.19 79.1399 136.16 79.2099C136.116 79.2912 136.045 79.3548 135.96 79.3899C135.757 79.4602 135.544 79.4973 135.33 79.4999H134.33C134.02 79.4999 133.78 79.4999 133.62 79.4999C133.196 79.4184 132.807 79.2131 132.5 78.9099C132.027 78.5393 131.598 78.1166 131.22 77.6499C130.86 77.1999 130.7 76.8699 130.75 76.6499C130.935 76.0259 131.04 75.3806 131.06 74.7299C131.014 74.1575 131.014 73.5824 131.06 73.0099C131.089 72.4429 131.261 71.8925 131.56 71.4099C132.388 71.095 133.282 70.9918 134.16 71.1099C135.32 71.1999 136.32 71.2999 137.16 71.4299L137.4 71.4799Z" fill="black"/>
<path d="M159.57 54.16H158.85C158.12 54.16 157.33 54.16 156.47 54.16C155.657 54.1317 154.849 54.0177 154.06 53.82C153.377 53.5852 152.743 53.2258 152.19 52.76C151.743 52.4329 151.358 52.0301 151.05 51.57C151.411 51.1514 151.877 50.8372 152.4 50.66C152.82 50.5055 153.251 50.3851 153.69 50.2999L153.91 50.2399C155.482 49.8087 157.094 49.534 158.72 49.42C160.22 49.33 161.91 49.3099 163.72 49.3599C166.045 49.441 168.282 50.2685 170.1 51.72C171.769 53.0285 173.006 54.809 173.65 56.8299C174.276 58.7267 174.125 60.7943 173.23 62.5799C172.33 64.4199 170.48 65.83 167.68 66.8099C168.19 67.66 168.68 68.46 169.15 69.19L169.85 70.3399C171.103 72.1466 172.51 73.9766 174.07 75.8299L174.48 76.3399C174.643 76.4325 174.781 76.5641 174.88 76.7229C174.98 76.8818 175.038 77.0629 175.05 77.25C175.039 77.4473 174.973 77.6377 174.86 77.7999C174.736 78.0139 174.596 78.2179 174.44 78.41C174.319 78.5672 174.188 78.7174 174.05 78.8599C173.553 78.9695 173.033 78.8912 172.59 78.64C171.938 78.3522 171.318 77.9969 170.74 77.5799C170.245 77.2371 169.795 76.834 169.4 76.38C168.652 75.153 167.824 73.977 166.92 72.8599C166.77 72.6465 166.606 72.4428 166.43 72.25C165.87 71.59 165.28 70.8599 164.67 70.0599C164.105 69.3445 163.604 68.5817 163.17 67.78C162.575 67.8777 161.972 67.9112 161.37 67.88C160.729 67.8598 160.094 67.7556 159.48 67.57C159.4 68.87 159.38 70.28 159.4 71.79C159.42 73.1613 159.52 74.5303 159.7 75.89C159.804 76.0915 159.862 76.3134 159.87 76.54C159.87 76.7571 159.836 76.973 159.77 77.1799C159.657 77.3456 159.511 77.4854 159.34 77.5899C159.12 77.7399 158.89 77.89 158.64 78.03L158.06 78.3299C157.56 78.2099 157.06 77.74 156.61 76.91C156.121 76.0422 155.729 75.1234 155.44 74.17C155.185 73.4509 155.027 72.7009 154.97 71.94C155.07 70.63 155.15 69.29 155.18 67.94C155.18 67.4666 155.2 66.9966 155.24 66.53C155.24 65.1033 155.24 63.5233 155.24 61.79C155.27 60.2585 155.411 58.7313 155.66 57.22C155.985 56.4625 156.524 55.8161 157.21 55.3599C157.944 54.864 158.737 54.461 159.57 54.16ZM159.9 64.3099L161.17 63.98C162.17 63.75 163.26 63.4499 164.43 63.0899C165.541 62.7634 166.612 62.3104 167.62 61.7399C168.467 61.2987 169.15 60.5978 169.57 59.7399C169.741 59.3383 169.828 58.9063 169.828 58.47C169.828 58.0336 169.741 57.6017 169.57 57.2C169.198 56.323 168.575 55.5752 167.78 55.0499C166.917 54.4557 165.888 54.1479 164.84 54.17H162.97H161.11C161.135 54.3959 161.135 54.624 161.11 54.85C161.11 55.09 161.11 55.2699 161.11 55.3999C161.11 55.5299 161.11 55.52 161.11 55.53C160.757 57.77 160.453 60.0566 160.2 62.39C160.067 63.05 159.967 63.6899 159.9 64.3099Z" fill="black"/>
<path d="M188.38 52.4399C188.587 52.5799 188.667 52.6899 188.62 52.7699C188.573 52.8499 188.453 52.91 188.26 52.95C188.07 52.95 187.84 53.0199 187.6 53.0499C187.284 53.079 186.97 53.1291 186.66 53.2C186.36 53.3098 186.077 53.4612 185.82 53.6499C184.911 54.3179 184.183 55.201 183.7 56.2199C183.139 57.3468 182.709 58.5347 182.42 59.76C182.137 60.9152 181.956 62.093 181.88 63.2799C181.8 64.7082 181.85 66.1408 182.03 67.5599C182.227 69.041 182.656 70.4818 183.3 71.8299C184.32 73.9233 185.83 74.8633 187.83 74.6499C189.559 74.4945 191.194 73.7942 192.5 72.6499C193.82 71.4727 194.847 70.0038 195.5 68.3599C196.202 66.6259 196.589 64.7801 196.64 62.9099C196.719 61.0541 196.454 59.1997 195.86 57.4399C195.542 56.5508 195.115 55.7044 194.59 54.92C194.146 54.3492 193.65 53.8203 193.11 53.3399C192.61 52.8479 192.045 52.4273 191.43 52.0899C190.53 51.4833 189.79 51.0233 189.21 50.7099C188.63 50.4099 187.85 50.0499 186.88 49.6499C187.01 49.3599 187.43 49.19 188.15 49.14C188.902 49.0805 189.658 49.0805 190.41 49.14C190.994 49.1798 191.575 49.2532 192.15 49.3599C193.893 49.9136 195.471 50.8931 196.74 52.2099C198.395 53.9688 199.626 56.0826 200.34 58.39C201.063 60.5033 201.325 62.7468 201.11 64.9699C200.838 67.3089 200.161 69.5828 199.11 71.6899C198.092 73.7363 196.575 75.4936 194.7 76.7999C193.666 77.508 192.534 78.0606 191.34 78.4399C190.065 78.8484 188.726 79.0179 187.39 78.9399C185.975 78.8477 184.603 78.4154 183.39 77.6799C181.715 76.6507 180.336 75.2033 179.39 73.48C178.416 71.7164 177.74 69.8039 177.39 67.82C177.032 65.8413 176.908 63.8275 177.02 61.82C177.101 60.0918 177.404 58.3812 177.92 56.73C178.415 54.9872 179.469 53.4554 180.92 52.3699C181.5 51.8762 182.159 51.484 182.87 51.2099C183.62 50.9301 184.42 50.8076 185.22 50.85C185.814 50.8859 186.398 51.0175 186.95 51.2399C187.52 51.5137 188.011 51.9264 188.38 52.4399Z" fill="black"/>
<path d="M211.8 49.9999C212.07 49.9299 212.25 49.9999 212.32 50.0799C212.527 49.9999 212.657 50.0199 212.71 50.1399C212.76 50.3165 212.76 50.5033 212.71 50.6799C212.78 52.0098 212.981 53.3296 213.31 54.6199C213.69 56.2499 214.07 57.7299 214.43 59.0399C214.51 59.3299 214.58 59.5999 214.65 59.8399C215.157 61.4199 215.78 63.1533 216.52 65.0399C217.28 63.3933 217.983 61.6866 218.63 59.9199C218.667 59.8587 218.701 59.7953 218.73 59.7299C219.12 58.4499 219.62 56.9999 220.21 55.3699C220.7 53.9695 221.344 52.6279 222.13 51.3699C222.462 51.0806 222.85 50.863 223.27 50.7305C223.69 50.598 224.132 50.5535 224.57 50.5999C225.611 49.9739 226.796 49.6292 228.01 49.5999C228.27 49.5299 228.43 49.5999 228.5 49.7099C228.553 49.8792 228.553 50.0607 228.5 50.2299C228.478 50.4135 228.438 50.5944 228.38 50.7699C228.386 50.803 228.386 50.8368 228.38 50.8699C228.085 52.357 227.908 53.865 227.85 55.3799C227.78 56.9699 227.76 58.5599 227.77 60.1499C227.77 61.0599 227.77 61.9599 227.77 62.8399C227.77 65.5499 227.95 68.3199 228.14 71.1599C228.23 72.5199 228.31 73.8399 228.38 75.1599C228.577 75.7662 228.548 76.423 228.3 77.0099C228.119 77.358 227.827 77.6359 227.47 77.7999C227.11 78.0087 226.718 78.1573 226.31 78.2399C225.711 77.7151 225.291 77.0156 225.11 76.2399C224.706 75.0911 224.372 73.919 224.11 72.7299C223.9 71.8714 223.749 70.9993 223.66 70.1199C223.71 68.2299 223.66 66.3199 223.58 64.3799C223.58 64.0199 223.58 63.6699 223.58 63.3199C223.51 62.5499 223.43 61.6999 223.35 60.7599L223.19 61.0399C222.89 61.7799 222.46 63.1299 221.91 65.0399C221.41 66.7399 220.91 68.3899 220.38 69.9699C220.078 71.0678 219.623 72.118 219.03 73.0899C218.71 73.4899 218.25 73.5399 217.67 73.2299C217.017 72.8793 216.447 72.3915 216 71.7999C214.997 70.6297 214.138 69.3439 213.44 67.9699C212.913 66.8507 212.468 65.6943 212.11 64.5099C211.8 63.5099 211.39 62.4099 210.88 61.1299C210.8 61.7966 210.72 62.4866 210.64 63.1999C210.267 67.1599 210.02 71.2033 209.9 75.3299C209.9 75.5599 209.9 75.7999 209.9 76.0299C210.062 76.6792 209.995 77.3646 209.71 77.9699C209.49 78.3055 209.178 78.5696 208.81 78.7299C208.434 78.9249 208.034 79.0695 207.62 79.1599C207.016 78.5457 206.627 77.7531 206.51 76.8999C206.204 75.6551 205.973 74.3927 205.82 73.1199C205.686 72.2096 205.622 71.2901 205.63 70.3699C205.9 68.0999 206.1 65.8299 206.23 63.5299C206.23 63.4199 206.23 63.3099 206.23 63.1999C206.23 62.6899 206.23 62.1499 206.23 61.5599C206.23 60.0199 206.31 58.4199 206.39 56.7399C206.436 55.2844 206.586 53.834 206.84 52.3999C207.03 51.9959 207.3 51.6344 207.634 51.3372C207.967 51.0399 208.357 50.813 208.78 50.6699C209.674 50.3506 210.599 50.126 211.54 49.9999H211.8Z" fill="black"/>
<path d="M239.57 71.4799C239.93 71.4799 240.13 71.5399 240.17 71.6699C240.21 71.7999 240.17 71.9599 239.96 72.1699C239.602 72.5889 239.305 73.0569 239.08 73.5599C238.85 74.0899 238.63 74.6199 238.44 75.1499C238.37 75.3399 238.31 75.5099 238.24 75.6799C238.14 76.2036 238.103 76.7374 238.13 77.2699C238.13 77.9299 238.13 78.4799 238.2 78.9199C238.32 79.0399 238.36 79.1399 238.33 79.2099C238.286 79.2912 238.215 79.3548 238.13 79.3899C237.927 79.4602 237.715 79.4973 237.5 79.4999H236.55C236.23 79.4999 236 79.4999 235.84 79.4999C235.417 79.4184 235.027 79.2131 234.72 78.9099C234.247 78.5393 233.818 78.1166 233.44 77.6499C233.07 77.1999 232.92 76.8699 232.97 76.6499C233.151 76.0249 233.255 75.3802 233.28 74.7299C233.235 74.1575 233.235 73.5824 233.28 73.0099C233.304 72.4421 233.477 71.8906 233.78 71.4099C234.608 71.095 235.502 70.9918 236.38 71.1099C237.54 71.1999 238.54 71.2999 239.38 71.4299L239.57 71.4799Z" fill="black"/>
<path d="M274.14 52.4799C274.312 52.6517 274.434 52.8675 274.492 53.1038C274.55 53.3401 274.543 53.5878 274.47 53.8199C274.315 54.2349 274.026 54.5866 273.65 54.8199C273.326 55.0582 272.941 55.2003 272.54 55.2299C272.33 55.17 272.12 55.0899 271.89 54.9999C270.653 54.5249 269.391 54.1176 268.11 53.7799C267.009 53.4281 265.834 53.3832 264.71 53.6499C263.207 54.2315 261.891 55.2095 260.9 56.4799C260.091 57.7106 259.481 59.0603 259.09 60.4799C258.657 61.9504 258.379 63.4619 258.26 64.9899C258.178 66.384 258.341 67.7817 258.74 69.1199C259.14 70.5671 259.881 71.8974 260.9 72.9999C261.679 73.7347 262.662 74.2159 263.72 74.3799C264.772 74.5649 265.848 74.5649 266.9 74.3799C267.852 74.2086 268.781 73.9302 269.67 73.5499C269.85 73.4299 270.11 73.23 270.46 72.95L271.54 72.0599L272.54 71.2499L272.98 70.8699C273.541 70.7021 274.139 70.7021 274.7 70.8699C275.198 70.9849 275.712 71.012 276.22 70.95C276.44 71.05 276.49 71.3099 276.36 71.7099C276.193 72.1901 275.971 72.6497 275.7 73.0799C275.4 73.5799 275.1 74.0799 274.82 74.4399C274.54 74.7999 274.34 75.0899 274.25 75.1899C273.003 76.4934 271.493 77.5161 269.82 78.1899C268.445 78.7516 266.975 79.0403 265.49 79.0399C263.886 79.0236 262.31 78.626 260.89 77.8799C259.095 76.9254 257.573 75.5278 256.47 73.8199C255.389 72.1789 254.623 70.3512 254.21 68.4299C253.716 65.9106 253.676 63.3235 254.09 60.7899C254.365 59.269 254.807 57.7832 255.41 56.3599C256.007 54.9062 256.831 53.5561 257.85 52.3599C258.828 51.2072 260.065 50.3025 261.46 49.7199C264.396 48.735 267.588 48.8307 270.46 49.9899C271.128 50.3128 271.776 50.6768 272.4 51.0799C273.037 51.4703 273.622 51.9408 274.14 52.4799Z" fill="black"/>
<path d="M287.46 50.1499C287.7 50.0499 287.85 50.0599 287.93 50.1499C288.015 50.32 288.05 50.5108 288.03 50.6999C288.016 50.9212 287.989 51.1416 287.95 51.3599C287.95 51.5699 287.88 51.6999 287.87 51.7599C287.257 55.0685 286.813 58.4062 286.54 61.7599C288.26 61.9499 289.68 62.0699 290.8 62.1099C292.256 62.1372 293.712 62.0771 295.16 61.9299C295.16 60.1899 295.16 58.2599 295.16 56.1599C295.179 54.3597 295.367 52.5652 295.72 50.7999C295.92 50.3766 296.219 50.0075 296.591 49.7238C296.964 49.4401 297.399 49.2502 297.86 49.1699C298.853 48.9761 299.877 49 300.86 49.2399C301.21 49.2899 301.4 49.3699 301.41 49.4899C301.42 49.6643 301.37 49.8369 301.27 49.9799C301.239 50.0052 301.218 50.0405 301.21 50.0799C300.66 51.7677 300.301 53.512 300.14 55.2799C299.873 57.4999 299.67 59.4999 299.53 61.2799V61.3899C300.003 61.4664 300.451 61.6512 300.84 61.9299C301.203 62.1802 301.538 62.4685 301.84 62.7899C301.997 62.9346 302.138 63.0954 302.26 63.2699C302.26 63.5699 301.95 63.9199 301.37 64.2699C300.719 64.7073 300.029 65.0855 299.31 65.3999C299.243 68.774 299.364 72.1492 299.67 75.5099C299.884 76.0632 299.884 76.6766 299.67 77.2299C299.521 77.5622 299.264 77.8338 298.94 77.9999C298.624 78.1995 298.289 78.367 297.94 78.4999C297.38 78.3299 296.86 77.6899 296.39 76.5599C295.913 75.3845 295.538 74.1699 295.27 72.9299C295.05 72.0475 294.91 71.1473 294.85 70.2399C294.94 68.9099 294.99 67.5899 294.99 66.2399C294.47 66.2399 293.99 66.2399 293.43 66.2399H291.86C289.934 66.4487 287.995 66.5122 286.06 66.4299C285.945 69.6478 286.011 72.8696 286.26 76.0799C286.474 76.647 286.474 77.2728 286.26 77.8399C286.078 78.1748 285.813 78.4572 285.49 78.6599C285.181 78.8868 284.845 79.0748 284.49 79.2199C283.98 79.0299 283.49 78.3799 283.06 77.2199C282.606 76.069 282.238 74.8857 281.96 73.6799C281.729 72.8127 281.582 71.9253 281.52 71.0299C281.64 69.4399 281.72 67.8499 281.76 66.2399C281.76 65.6799 281.76 65.1299 281.81 64.5799C280.82 63.5684 279.938 62.4557 279.18 61.2599C278.97 61.0399 278.91 60.8899 279.01 60.8099C279.169 60.7227 279.352 60.691 279.53 60.7199C279.771 60.7274 280.012 60.7508 280.25 60.7899L280.68 60.8499L281.23 60.9499L281.78 61.0299C281.78 59.6433 281.82 58.2633 281.9 56.8899C281.954 55.6583 282.095 54.4319 282.32 53.2199C282.7 52.2697 283.41 51.4885 284.32 51.0199C285.319 50.5793 286.377 50.2863 287.46 50.1499Z" fill="black"/>
<path d="M317.56 52.4399C317.767 52.5799 317.847 52.6899 317.8 52.7699C317.753 52.8499 317.633 52.91 317.44 52.95C317.25 52.95 317.02 53.0199 316.78 53.0499C316.464 53.079 316.15 53.1291 315.84 53.2C315.54 53.3098 315.258 53.4612 315 53.6499C314.092 54.3179 313.363 55.201 312.88 56.2199C312.319 57.3468 311.889 58.5347 311.6 59.76C311.319 60.9159 311.135 62.0933 311.05 63.2799C310.979 64.7085 311.032 66.1407 311.21 67.5599C311.407 69.041 311.836 70.4818 312.48 71.8299C313.493 73.9433 315 74.8833 317 74.6499C318.729 74.4945 320.364 73.7942 321.67 72.6499C322.99 71.4727 324.017 70.0038 324.67 68.3599C325.368 66.6245 325.754 64.7796 325.81 62.9099C325.889 61.0541 325.624 59.1997 325.03 57.4399C324.526 55.8377 323.571 54.4143 322.28 53.3399C321.778 52.8502 321.213 52.4298 320.6 52.0899C319.7 51.4833 318.96 51.0233 318.38 50.7099C317.8 50.4099 317.02 50.0499 316.05 49.6499C316.18 49.3599 316.6 49.19 317.32 49.14C318.072 49.0805 318.828 49.0805 319.58 49.14C320.164 49.1812 320.745 49.2546 321.32 49.3599C323.063 49.9136 324.641 50.8931 325.91 52.2099C327.565 53.9688 328.797 56.0826 329.51 58.39C330.233 60.5033 330.496 62.7468 330.28 64.9699C330.008 67.3089 329.331 69.5828 328.28 71.6899C327.262 73.7363 325.746 75.4936 323.87 76.7999C322.836 77.508 321.704 78.0606 320.51 78.4399C319.235 78.8484 317.896 79.0179 316.56 78.9399C315.145 78.8477 313.773 78.4154 312.56 77.6799C310.885 76.6507 309.506 75.2033 308.56 73.48C307.586 71.7164 306.91 69.8039 306.56 67.82C306.203 65.8413 306.078 63.8275 306.19 61.82C306.271 60.0918 306.574 58.3812 307.09 56.73C307.585 54.9872 308.639 53.4554 310.09 52.3699C310.67 51.8762 311.329 51.484 312.04 51.2099C312.79 50.9301 313.59 50.8076 314.39 50.85C314.984 50.8859 315.568 51.0175 316.12 51.2399C316.693 51.5123 317.189 51.9251 317.56 52.4399Z" fill="black"/>
<path d="M340.21 49.73C340.49 49.73 340.65 49.7899 340.71 49.9299C340.742 50.0076 340.759 50.0909 340.759 50.1749C340.759 50.259 340.742 50.3423 340.71 50.42C340.65 50.61 340.58 50.77 340.52 50.92V50.9899C340.098 52.3121 339.803 53.6716 339.64 55.0499C339.43 56.6299 339.27 58.24 339.15 59.88C340.149 59.0176 341.073 58.0707 341.91 57.0499C342.43 56.3499 343.07 55.38 343.84 54.14C344.31 53.4 344.75 52.71 345.17 52.09C345.472 51.624 345.806 51.1796 346.17 50.76C346.85 50.2881 347.637 49.9926 348.46 49.8999C349.384 49.7589 350.316 49.6754 351.25 49.6499H352.01C352.29 49.5399 352.45 49.5599 352.51 49.7099C352.574 49.8946 352.574 50.0953 352.51 50.28C352.442 50.514 352.362 50.7443 352.27 50.97C352.214 51.1084 352.147 51.2422 352.07 51.3699C351.209 52.8983 350.244 54.3652 349.18 55.76C348.18 57.06 347.053 58.3933 345.8 59.76C345.97 60.18 346.14 60.5899 346.29 60.9899C346.85 62.4099 347.39 63.7299 347.92 64.9899C348.45 66.2499 349.12 67.6199 349.92 69.1799C350.587 70.2666 351.39 71.4966 352.33 72.8699C353.179 74.0946 354.097 75.2699 355.08 76.39C355.253 76.4755 355.404 76.5991 355.521 76.7516C355.639 76.904 355.721 77.0813 355.76 77.2699C355.784 77.4646 355.767 77.6622 355.71 77.85C355.637 78.11 355.557 78.37 355.47 78.63C355.38 78.89 355.3 79.09 355.24 79.22C354.967 79.3303 354.672 79.3725 354.379 79.3429C354.086 79.3133 353.805 79.2127 353.56 79.0499C352.756 78.6797 352.001 78.213 351.31 77.66C350.703 77.2029 350.153 76.6759 349.67 76.09C348.73 74.5599 347.78 73.09 346.8 71.54C346.42 71.02 345.89 70.23 345.2 69.17C344.51 68.11 343.87 67.05 343.28 66.01C342.826 65.2928 342.505 64.5003 342.33 63.67C342.18 63.82 341.99 64.01 341.76 64.26C341.29 64.77 340.76 65.2599 340.22 65.8299C339.83 66.2552 339.357 66.5956 338.83 66.8299C338.83 69.5199 338.83 72.22 338.95 74.91C338.95 75.47 338.95 76.0199 339.01 76.5499C339.107 76.7682 339.15 77.0064 339.136 77.2446C339.122 77.4829 339.051 77.7144 338.93 77.92C338.673 78.164 338.342 78.3153 337.99 78.35C337.625 78.4216 337.252 78.4485 336.88 78.4299C336.227 78.0594 335.743 77.45 335.53 76.73C335.163 75.8077 334.882 74.8537 334.69 73.88C334.532 73.1797 334.435 72.467 334.4 71.75C334.48 70.59 334.52 69.4 334.53 68.19C334.54 66.98 334.53 65.8 334.53 64.64C334.46 62.74 334.42 60.64 334.44 58.35C334.43 56.3159 334.597 54.2849 334.94 52.28C335.129 51.8007 335.414 51.3648 335.777 50.9987C336.139 50.6326 336.572 50.3438 337.05 50.1499C338.046 49.7276 339.138 49.5825 340.21 49.73Z" fill="black"/>
<path d="M369.8 52.4399C370.01 52.5799 370.09 52.6899 370.05 52.7699C369.957 52.8733 369.828 52.9376 369.69 52.9499C369.49 52.9499 369.27 53.0199 369.02 53.0499C368.707 53.079 368.396 53.1291 368.09 53.1999C367.79 53.3098 367.508 53.4612 367.25 53.6499C366.342 54.3179 365.613 55.201 365.13 56.2199C364.564 57.3449 364.135 58.5333 363.85 59.7599C363.569 60.9159 363.385 62.0933 363.3 63.2799C363.219 64.7085 363.272 66.1415 363.46 67.5599C363.653 69.0419 364.082 70.4835 364.73 71.8299C365.737 73.9233 367.247 74.8633 369.26 74.6499C370.989 74.4924 372.623 73.7924 373.93 72.6499C375.233 71.4678 376.242 69.9992 376.88 68.3599C377.581 66.6251 377.97 64.7801 378.03 62.9099C378.099 61.0546 377.835 59.202 377.25 57.4399C376.748 55.8342 375.789 54.4095 374.49 53.3399C373.99 52.8479 373.425 52.4273 372.81 52.0899C371.91 51.4799 371.17 51.0199 370.6 50.7099C370.03 50.3999 369.24 50.0499 368.26 49.6499C368.39 49.3599 368.82 49.19 369.53 49.14C370.286 49.0805 371.045 49.0805 371.8 49.14C372.384 49.1812 372.965 49.2546 373.54 49.3599C375.281 49.9189 376.857 50.8977 378.13 52.2099C379.7 53.9257 380.899 55.9475 381.651 58.1485C382.403 60.3494 382.692 62.682 382.5 64.9999C382.223 67.3379 381.547 69.611 380.5 71.7199C379.475 73.7646 377.956 75.521 376.08 76.8299C375.051 77.5399 373.922 78.0926 372.73 78.4699C371.455 78.8777 370.116 79.0472 368.78 78.9699C367.364 78.8804 365.992 78.448 364.78 77.7099C363.103 76.6825 361.725 75.2347 360.78 73.5099C359.801 71.7485 359.125 69.8353 358.78 67.8499C358.418 65.8719 358.293 63.8575 358.41 61.8499C358.492 60.1218 358.794 58.4112 359.31 56.7599C359.799 55.014 360.854 53.4801 362.31 52.3999C362.89 51.9062 363.549 51.514 364.26 51.2399C365.007 50.9609 365.804 50.8383 366.6 50.8799C367.197 50.917 367.784 51.0486 368.34 51.2699C368.918 51.5299 369.42 51.9325 369.8 52.4399Z" fill="black"/>
<path d="M393.34 49.5699C393.6 49.5699 393.76 49.5699 393.83 49.7099C393.892 49.8115 393.914 49.9331 393.89 50.0499C393.858 50.1945 393.812 50.3353 393.75 50.4699C393.75 50.4699 393.75 50.5599 393.75 50.5999C393.302 52.0626 393.004 53.567 392.86 55.0899C392.66 56.8899 392.5 58.6199 392.38 60.2699C392.38 60.9599 392.28 61.5899 392.23 62.1699C392.042 65.9121 392.079 69.6622 392.34 73.3999C392.441 73.5839 392.496 73.7899 392.5 73.9999H393.18C393.343 74.0095 393.507 74.0095 393.67 73.9999C395.5 73.9999 397.44 73.9199 399.51 73.7299C400.24 73.6599 400.93 73.6099 401.58 73.5699C401.832 73.4598 402.105 73.4029 402.38 73.4029C402.655 73.4029 402.928 73.4598 403.18 73.5699C403.605 73.7455 403.988 74.0117 404.3 74.3499C404.646 74.6872 404.961 75.0554 405.24 75.4499C405.24 75.7299 404.84 76.0799 404.04 76.4999C403.223 76.9324 402.374 77.3002 401.5 77.5999C400.859 77.8606 400.187 78.0355 399.5 78.1199C398.088 78.0448 396.672 78.0448 395.26 78.1199H395.21C394.4 78.2499 393.45 78.3599 392.35 78.4299C391.398 78.5178 390.438 78.4673 389.5 78.2799C388.722 77.7439 388.112 76.9985 387.74 76.1299C387.339 75.291 387.004 74.4216 386.74 73.5299C386.61 73.2199 386.59 73.0299 386.69 72.9699C386.79 72.9099 386.97 72.9699 387.23 73.0799C387.792 73.3148 388.384 73.4664 388.99 73.5299C388.588 72.6591 388.283 71.747 388.08 70.8099C387.902 70.1158 387.795 69.4055 387.76 68.6899C387.86 66.9699 387.92 65.2199 387.93 63.4499C387.93 63.0099 387.93 62.5699 387.93 62.1199C387.85 60.4999 387.82 58.6499 387.83 56.5899C387.825 54.8102 387.975 53.0334 388.28 51.2799C388.472 50.8563 388.76 50.4831 389.121 50.1898C389.482 49.8965 389.906 49.6911 390.36 49.5899C391.342 49.3853 392.355 49.3786 393.34 49.5699Z" fill="black"/>
<path d="M423.18 48.6899C423.33 48.5299 423.49 48.5399 423.67 48.6899C423.885 48.909 424.067 49.1583 424.21 49.4299C424.38 49.7552 424.534 50.089 424.67 50.4299C424.8 50.7499 424.89 51 424.94 51.17C426.302 55.8468 427.305 60.6206 427.94 65.45C427.94 65.6 428 65.7699 428.04 65.9399C428.22 66.9399 428.43 67.9399 428.66 69.0799L429.13 69.2C429.434 69.3333 429.711 69.5195 429.95 69.7499C430.225 70.0065 430.479 70.284 430.71 70.5799C430.88 70.7937 431.037 71.0174 431.18 71.2499C431.18 71.3699 431.18 71.51 430.95 71.67C430.73 71.8426 430.496 71.9965 430.25 72.13C429.99 72.27 429.76 72.3799 429.58 72.4599L429.46 72.5199C429.791 73.9594 430.215 75.3758 430.73 76.76C430.872 76.9249 430.979 77.1177 431.042 77.326C431.106 77.5343 431.126 77.7536 431.1 77.9699C431.044 78.1151 430.955 78.2452 430.84 78.35C430.69 78.51 430.52 78.68 430.33 78.85L429.85 79.26C429.818 79.2957 429.781 79.3261 429.74 79.35C429.22 79.46 428.66 79.1899 428.06 78.5499C427.414 77.8582 426.857 77.089 426.4 76.26C425.958 75.5115 425.577 74.7291 425.26 73.92H425.19C423.813 73.8462 422.433 73.873 421.06 73.9999C420.56 74.0899 419.83 74.21 418.88 74.35C417.93 74.49 416.98 74.6099 416.04 74.6899C415.343 74.7822 414.637 74.7822 413.94 74.6899C413.84 74.8399 413.75 75 413.66 75.16C413.57 75.32 413.4 75.6199 413.25 75.8399C413.067 76.5963 412.615 77.2606 411.98 77.7099C411.56 77.9864 411.072 78.1421 410.57 78.16C410.036 78.2202 409.496 78.1966 408.97 78.0899C408.833 77.3451 408.888 76.5775 409.13 75.8599C409.39 74.6599 409.72 73.43 410.13 72.17C409.489 71.5569 408.881 70.9093 408.31 70.23C408.08 70.06 407.99 69.9299 408.06 69.8299C408.12 69.7691 408.192 69.721 408.271 69.6884C408.35 69.6558 408.435 69.6393 408.52 69.64C408.765 69.6077 409.013 69.591 409.26 69.5899H409.83H409.91C410.25 69.5899 410.6 69.5899 410.97 69.5899C411.28 68.7954 411.658 68.0292 412.1 67.2999C412.633 66.4126 413.085 65.4788 413.45 64.51C413.73 63.65 414.15 62.32 414.7 60.51C415.25 58.7 415.7 57.2099 416.22 55.6199C416.74 54.0299 417.12 52.93 417.39 52.32C417.788 51.5206 418.379 50.8332 419.11 50.32C419.713 49.9538 420.367 49.6775 421.05 49.4999C421.784 49.2976 422.497 49.0264 423.18 48.6899ZM416.35 69.6899C417.35 69.6899 418.27 69.6899 419.22 69.6899C420.44 69.6899 421.7 69.5799 422.99 69.4699L424.39 69.35C424.33 69.05 424.26 68.7499 424.18 68.4399C424.05 67.8099 423.92 67.2 423.79 66.6C423.66 66 423.39 65.1099 423.18 64.3099C422.513 61.9233 421.917 59.5433 421.39 57.17C420.37 60.0766 419.25 62.9133 418.03 65.6799C417.82 66.1599 417.62 66.6799 417.42 67.1499L416.91 68.3999C416.71 68.8099 416.52 69.2299 416.35 69.6499V69.6899Z" fill="black"/>
<path d="M442.23 53.5499C440.77 53.8299 439.51 54.0999 438.46 54.3699L437.56 54.6099C437.207 54.0236 436.912 53.4039 436.68 52.7599C436.45 52.1199 436.26 51.5699 436.13 51.1299C436.09 51.0033 436.06 50.8933 436.04 50.7999C437.369 50.1669 438.79 49.7484 440.25 49.5599C442.296 49.2348 444.374 49.1509 446.44 49.3099C448.626 49.4457 450.766 49.9919 452.75 50.92C454.72 51.8312 456.333 53.3674 457.34 55.2899C458.292 57.2944 458.732 59.5037 458.62 61.7199C458.542 64.2719 457.982 66.786 456.97 69.1299C455.942 71.5788 454.365 73.7584 452.36 75.4999C450.204 77.3282 447.557 78.4796 444.75 78.8099C442.942 79.052 441.104 78.9364 439.34 78.4699C437.42 77.9064 435.755 76.6941 434.63 75.0399C435.32 74.9678 436.017 74.9947 436.7 75.1199C437.695 75.242 438.697 75.3087 439.7 75.3199C440.988 75.3228 442.272 75.1615 443.52 74.8399C444.339 74.6138 445.133 74.3055 445.89 73.92C446.555 73.5726 447.196 73.1817 447.81 72.7499C448.05 72.6099 448.29 72.4499 448.55 72.2799C449.909 71.3435 451.041 70.1131 451.86 68.6799C452.799 67.1177 453.475 65.4116 453.86 63.6299C454.245 61.9328 454.227 60.1693 453.81 58.4799C453.402 56.879 452.41 55.4881 451.03 54.5799C449.148 53.4953 446.969 53.0399 444.81 53.2799C444.828 54.1543 444.798 55.0289 444.72 55.8999C444.62 57.1899 444.49 58.6699 444.32 60.3499C444.1 62.6699 443.91 64.9033 443.75 67.0499C443.592 68.575 443.572 70.1112 443.69 71.64C443.758 72.0393 443.684 72.4498 443.48 72.7999C443.294 73.0686 443.033 73.2772 442.73 73.3999C442.463 73.5011 442.184 73.5683 441.9 73.5999C441.751 73.6199 441.599 73.6199 441.45 73.5999C440.94 73.3199 440.52 72.4099 440.2 70.8799C439.867 69.3229 439.633 67.7465 439.5 66.1599C439.38 65.0978 439.34 64.0281 439.38 62.9599C439.462 61.5211 439.462 60.0788 439.38 58.64C439.246 57.5953 439.341 56.5339 439.66 55.5299C440.229 54.5632 441.15 53.8538 442.23 53.5499Z" fill="black"/>
</svg>
